/* XPM */
static char *Activate[] = {
/* columns rows colors chars-per-pixel */
"32 32 256 2",
"   c #010000",
".  c #0D0B0A",
"X  c #171512",
"o  c #231E1A",
"O  c #25211E",
"+  c #393530",
"@  c #461C12",
"#  c #481E12",
"$  c #562E07",
"%  c #5A2E07",
"&  c #542F08",
"*  c #5E2E09",
"=  c #5F300A",
"-  c #552916",
";  c #5B2C17",
":  c #5D3914",
">  c #632F07",
",  c #612F0A",
"<  c #6D3207",
"1  c #64310C",
"2  c #6A320D",
"3  c #713107",
"4  c #7D3307",
"5  c #74340B",
"6  c #7C350B",
"7  c #7F380E",
"8  c #662F19",
"9  c #6B3511",
"0  c #6F3814",
"q  c #63331B",
"w  c #6B321B",
"e  c #753710",
"r  c #723915",
"t  c #7B3B14",
"y  c #73341E",
"u  c #7A371E",
"i  c #753C18",
"p  c #7B3E1A",
"a  c #5C372E",
"s  c #453E38",
"d  c #623720",
"f  c #633B24",
"g  c #7D411D",
"h  c #4E433A",
"j  c #674523",
"k  c #66422A",
"l  c #6E4A28",
"z  c #774721",
"x  c #764F2D",
"c  c #6A4731",
"v  c #6E4A35",
"b  c #714E39",
"n  c #7F5637",
"m  c #76563D",
"M  c #4F4941",
"N  c #5F5448",
"B  c #5F5B57",
"V  c #6D5447",
"C  c #7A5946",
"Z  c #655E57",
"A  c #6D6259",
"S  c #766656",
"D  c #82360B",
"F  c #8C3708",
"G  c #88380B",
"H  c #8B390C",
"J  c #933B0C",
"K  c #9B3A0B",
"L  c #833D13",
"P  c #8B3D13",
"I  c #973E11",
"U  c #A43C0A",
"Y  c #A93F0D",
"T  c #B33E0A",
"R  c #8F4016",
"E  c #83421E",
"W  c #8A431C",
"Q  c #914015",
"!  c #9C4114",
"~  c #93451B",
"^  c #9D4619",
"/  c #96481E",
"(  c #9D4A1E",
")  c #AD410E",
"_  c #B5420E",
"`  c #A44313",
"'  c #AB4514",
"]  c #A34719",
"[  c #A1491C",
"{  c #AA4B1D",
"}  c #B34612",
"|  c #B34A17",
" . c #BA4915",
".. c #B44C1B",
"X. c #BD4D1A",
"o. c #BB511E",
"O. c #844522",
"+. c #8C4722",
"@. c #8C4A25",
"#. c #944A24",
"$. c #9C4C24",
"%. c #994E28",
"&. c #9E5029",
"*. c #855735",
"=. c #995A34",
"-. c #A34D22",
";. c #AA4F22",
":. c #A35027",
">. c #AB5125",
",. c #A55128",
"<. c #AE5228",
"1. c #B45325",
"2. c #BC5425",
"3. c #B95C2E",
"4. c #B45D32",
"5. c #96613E",
"6. c #A4643F",
"7. c #AC653E",
"8. c #B5653D",
"9. c #DE690E",
"0. c #DE6C12",
"q. c #DD7017",
"w. c #DF761C",
"e. c #E06D13",
"r. c #E2751B",
"t. c #CF6925",
"y. c #D26A25",
"u. c #C2673D",
"i. c #E27C23",
"p. c #82644A",
"a. c #8B6648",
"s. c #866C4F",
"d. c #9A6A4A",
"f. c #876B53",
"g. c #8D6E54",
"h. c #936C56",
"j. c #9A6E56",
"k. c #8A7157",
"l. c #8D755C",
"z. c #9F7457",
"x. c #92765B",
"c. c #99765B",
"v. c #99795F",
"b. c #A56A47",
"n. c #A86843",
"m. c #B56740",
"M. c #B36C45",
"N. c #BD6A42",
"B. c #BD714A",
"V. c #A37454",
"C. c #AC7555",
"Z. c #A1795D",
"A. c #AC795A",
"S. c #B57452",
"D. c #BA7755",
"F. c #B67856",
"G. c #BB7855",
"H. c #B37E5E",
"J. c #BC7C5B",
"K. c #8F7C6A",
"L. c #937C63",
"P. c #9C7C63",
"I. c #A77E64",
"U. c #C56E43",
"Y. c #C86F45",
"T. c #C87147",
"R. c #C2744D",
"E. c #C9744B",
"W. c #C37752",
"Q. c #CB7750",
"!. c #C37955",
"~. c #CD7B55",
"^. c #C67D5A",
"/. c #CD7F5A",
"(. c #FF9416",
"). c #FF9719",
"_. c #FF9B1C",
"`. c #E28029",
"'. c #FF9F21",
"]. c #E38833",
"[. c #FFA224",
"{. c #FFA72A",
"}. c #FFAA2C",
"|. c #FFAE32",
" X c #FFB237",
".X c #FFB83D",
"XX c #9F8067",
"oX c #97826A",
"OX c #9C836C",
"+X c #958572",
"@X c #9E8A74",
"#X c #9D8F7F",
"$X c #AF8265",
"%X c #A2856D",
"&X c #AB866B",
"*X c #AC886D",
"=X c #B28265",
"-X c #BB8363",
";X c #B2866C",
":X c #BC8769",
">X c #B4896F",
",X c #BC896D",
"<X c #A18571",
"1X c #A48A74",
"2X c #AC8C74",
"3X c #A58E79",
"4X c #B48D74",
"5X c #BA8D72",
"6X c #A5927D",
"7X c #AB927D",
"8X c #B49177",
"9X c #B89076",
"0X c #B4937C",
"qX c #B89179",
"wX c #DF8B43",
"eX c #C5815E",
"rX c #C9805C",
"tX c #E59F4F",
"yX c #E09D5A",
"uX c #F3AD4A",
"iX c #F3B14D",
"pX c #E5A455",
"aX c #F4B452",
"sX c #F4B857",
"dX c #F4BB5A",
"fX c #C38463",
"gX c #C18769",
"hX c #FFC34B",
"jX c #FFC750",
"kX c #FFCA53",
"lX c #FFCD58",
"zX c #A79581",
"xX c #AA9683",
"cX c #AC9986",
"vX c #AD9D8B",
"bX c #B19782",
"nX c #B39A85",
"mX c #B19E8B",
"MX c #B2A18F",
"NX c #B4A493",
"BX c #B7A897",
"VX c #B8A896",
"CX c #B7A999",
"ZX c #BAAB9C",
"AX c #AFABA3",
"SX c #B0ABA4",
"DX c #BCAFA1",
"FX c #B3AFA8",
"GX c #BEB1A2",
"HX c #B9B3A9",
"JX c #C1B3A6",
"KX c #C2B6A8",
"LX c #C4B9AB",
"PX c #C9BEB2",
"IX c #CBC1B5",
"UX c #CEC5BA",
/* pixels */
"Z SXIXPXIXIXIXIXIXIXIXIXUXUXUXUXUXUXUXUXUXUXUXUXUXUXUXUXUXUXAXB ",
"HXzXcXcXvXvXNXNXNXBXCXCXZXZXDXGXGXJXJXKXKXLXLXLXLXLXLXLXLXLXKXFX",
"DX6X6XzXxXcXcXvXvXNXNXNXBXBXCXZXZXDXGXGXJXJXKXKXLXLXLXLXLXLXLXHX",
"GX@X@X3X6XxXMXNXNXNXvXvXNXNXNXBXCXZXZXZXGXGXJXJXKXKXKXLXLXLXLXLX",
"DXOX@X@X1XcX.     A vXcXvXvXNXNXNXBXCXZXZXZXDXGXJXJXJXKXKXLXLXPX",
"ZXL.oXoX@X+X  .   O MXzXxXcXvXvXmXNXNXNXBXCXZXZXZXGXGXJXJXJXKXPX",
"NXL.L.L.@XM   + X   #X6X6XzXzXxXcXvXvXMXNXNXBXCXZXZXZXDXGXGXJXLX",
"cXl.l.L.@XX   A s   Z 6X1X3X6X7XxXxXcXmXmXmXNXNXNXVXCXZXZXZXGXKX",
"@Xf.k.l.K.    o X   o 7X<X1X1X2X7X7X7XbXnXnXmXmXMXMXNXVXVXCXZXGX",
"oXm s.x.N             <X*X&X*X2X2X4X8X0X0X0XnXnXnXmXmXMXNXNXVXZX",
"L.: p.l.o   h 2X0Xo   V =X$X$X;X;X>X4X4X9XqX0X0XbXbXcXcXmXmXMXVX",
"l.& j s.C S g.V.A.h.h.j.H.H.H.=X-X:X:X,X,X5X5X9X8X0X7XxXxXcXmXMX",
"g.$ $ l a.d.d.b.b.S.F.D.G.G.J.J.J.-XfXfXgXgX,X5X4X4X2X7X7X7XxXcX",
"f.$ $ % z 5.n.n.M.M.B.B.R.R.W.!.!.^.^.eXfXfXfX:X,X;X2X1X1X3X6X7X",
"p.$ % * < L =.7.m.N.U.Y.T.T.E.E.Q.Q.~.~./.rXeX-X-X=X&X%X%X<X1X1X",
"C % % > < 4 F ^ 4.u.wXuXuXiXiXaXaXaXsXdXdXyX^.J.J.H.I.I.XXXX%XOX",
"C % % > 3 4 F K U | ].hXhXhXhXhXjXkXkXlXlXpXW.G.F.A.A.Z.P.P.P.P.",
"m % * 1 3 4 F K U T 9.(.[.|..XhXhXhXhXjXkXtXR.B.S.C.V.z.c.c.v.x.",
"b * * 2 5 D F K U T 0.(.(.(.(.(._.'.{.|. X].3.8.7.6.=.*.*.n x C ",
"v * , 2 5 D J K Y _ e.).).).).).).).).).).0.) U J G 6 < 1 = * v ",
"c 1 1 2 6 G J ! ' } r._._._._._._._._._._.q.} ` I H 7 5 2 1 1 c ",
"k 1 2 5 t P I ` '  .r.'.[.[.[.[.[.[.[.[.'.w.} ` ! P L e 2 1 1 k ",
"k 2 9 e L P ! ` | X.r.[.[.[.[.[.[.[.[.[.[.w.| ' ! Q L t 9 9 2 k ",
"f 9 9 e L R ^ ] ..X.i.{.{.{.{.{.{.{.{.{.{.i...{ ] ~ P t r 9 9 f ",
"f 9 r t L ~ ^ { ..o.i.}.}.}.}.}.}.}.}.}.}.i.o.{ [ ~ W p r 0 9 f ",
"q r r p E ~ ^ { ..2.y.`.`.`.`.`.`.`.`.`.`.t.1.{ [ / W p i r 0 d ",
"q r i p E ~ ( -.>.1.2.2.2.2.2.2.2.2.2.2.2.1.1.;.-./ W g i i r q ",
"q i p p E ~ $.-.;.1.1.1.1.1.1.1.1.1.1.1.1.1.>.-.$.#.W E g i i q ",
"; i p g E +.#.$.-.>.>.<.<.<.<.<.<.<.<.<.<.>.,.-.$.#.O.E g g i ; ",
"- p g E O.+.#.$.$.:.:.,.,.,.,.,.,.,.,.,.,.:.$.$.#.@.O.O.g g g - ",
"# g E O.O.O.@.#.%.%.&.&.&.&.&.&.&.&.&.&.&.&.%.%.@.@.O.O.O.g g @ ",
"a # 8 8 w w w w y y u u u u u u u u u u u y y y w w w w 8 q @ a "
};
