/* XPM */
static char *AnimImport[] = {
/* columns rows colors chars-per-pixel */
"32 32 180 2",
"   c #000233",
".  c #000A37",
"X  c #000439",
"o  c #000E38",
"O  c #00143B",
"+  c #001B3E",
"@  c #001F40",
"#  c #0A1C44",
"$  c #002342",
"%  c #0B2147",
"&  c #042945",
"*  c #0B2D46",
"=  c #0F2F48",
"-  c #14224D",
";  c #113048",
":  c #142354",
">  c #152C51",
",  c #1C2D57",
"<  c #1A2C5C",
"1  c #113450",
"2  c #183852",
"3  c #183C58",
"4  c #203A5D",
"5  c #233362",
"6  c #273962",
"7  c #293E64",
"8  c #224160",
"9  c #2A4366",
"0  c #2E4E66",
"q  c #2B4668",
"w  c #2D4C6B",
"e  c #2F536D",
"r  c #32556E",
"t  c #214172",
"y  c #2B4675",
"u  c #2B4875",
"i  c #334C70",
"p  c #375770",
"a  c #3B5A71",
"s  c #3C547B",
"d  c #415D73",
"f  c #415C7D",
"g  c #4B687C",
"h  c #325F89",
"j  c #36628B",
"k  c #3A648C",
"l  c #297EA9",
"z  c #415680",
"x  c #455E84",
"c  c #4A6B84",
"v  c #4E6D8B",
"b  c #52748D",
"n  c #506E90",
"m  c #567493",
"M  c #597794",
"N  c #5B7B96",
"B  c #5A7699",
"V  c #5B7A9B",
"C  c #497FB1",
"Z  c #338EBD",
"A  c #3490BE",
"S  c #62819E",
"D  c #69859C",
"F  c #4488B3",
"G  c #4B8BB3",
"H  c #5E86B1",
"J  c #6788AC",
"K  c #6C8EAF",
"L  c #7192AC",
"P  c #648CB3",
"I  c #6692BC",
"U  c #6D97BE",
"Y  c #7196B8",
"T  c #7499BA",
"R  c #7A9DBC",
"E  c #7CA0BC",
"W  c #2B84C6",
"Q  c #2686CC",
"!  c #2885C9",
"~  c #2589CE",
"^  c #298BCF",
"/  c #3287C7",
"(  c #358CCD",
")  c #388ECD",
"_  c #3A9BCD",
"`  c #268BD1",
"'  c #298FD2",
"]  c #2C94D2",
"[  c #2E99D3",
"{  c #3592D2",
"}  c #3C97D6",
"|  c #329CD4",
" . c #3B9FD5",
".. c #36A1D5",
"X. c #3AA5D6",
"o. c #3EAAD7",
"O. c #418FCB",
"+. c #4699C5",
"@. c #489CC6",
"#. c #4190CC",
"$. c #4B96CE",
"%. c #429CD7",
"&. c #4C9BD5",
"*. c #459ED8",
"=. c #529CD2",
"-. c #5D9FD2",
";. c #6598C4",
":. c #749FC4",
">. c #46A1CF",
",. c #41A6D7",
"<. c #4EA5D1",
"1. c #40AAD7",
"2. c #43A7D9",
"3. c #4CA2D9",
"4. c #44AAD8",
"5. c #4BACDA",
"6. c #54A4D2",
"7. c #5CA2D5",
"8. c #54A4DA",
"9. c #5BA4D9",
"0. c #52ADDB",
"q. c #5CABDD",
"w. c #7AA0C3",
"e. c #63A5D5",
"r. c #6BA9D7",
"t. c #64ACDD",
"y. c #6CADDC",
"u. c #73AEDA",
"i. c #64B1DE",
"p. c #6CB0DF",
"a. c #74B1DD",
"s. c #7CB4DD",
"d. c #6FB1E0",
"f. c #74B4E0",
"g. c #7CB6E0",
"h. c #84A4BF",
"j. c #85A6C0",
"k. c #88A7C1",
"l. c #86ABC7",
"z. c #8CAAC2",
"x. c #81ABCC",
"c. c #8BAFCB",
"v. c #94AFC5",
"b. c #8AB1CF",
"n. c #97B5CD",
"m. c #98B6CD",
"M. c #80AFD5",
"N. c #87B4D7",
"B. c #89B4D7",
"V. c #82B6DD",
"C. c #85B9DF",
"Z. c #8ABADF",
"A. c #92B4D1",
"S. c #97BCDB",
"D. c #ABBDCB",
"F. c #8DBCE0",
"G. c #91BEE1",
"H. c #B0C1CF",
"J. c #8FC1E6",
"K. c #96C2E2",
"L. c #9BC4E4",
"P. c #9DC8E7",
"I. c #A0C7E5",
"U. c #A4CAE6",
"Y. c #A9CCE7",
"T. c #ACCEE8",
"R. c #AFD0E9",
"E. c #B9D2E4",
"W. c #B5D3EA",
"Q. c #BAD6EC",
"!. c #BED9ED",
"~. c #C3DCEE",
"^. c #C8DDEE",
"/. c #C9DEF0",
"(. c #CDE0EF",
"). c #D7E4EE",
"_. c #DBE7EF",
"`. c #CDE2F1",
"'. c #D1E4F2",
"]. c #D8E6F0",
/* pixels */
"H.).'.`.`.`.`.`.`.`.`.`.`.`.'.'.'.'.'.'.'.'.'.'.'.'.'.'.'.]._.D.",
"].K.K.K.L.L.P.I.U.U.U.Y.Y.T.T.R.W.W.W.W.W.W.Q.Q.Q.Q.Q.Q.Q.Q.W._.",
"^.F.G.G.K.K.L.L.L.I.I.U.U.Y.Y.T.T.T.W.W.W.W.W.W.Q.Q.Q.Q.Q.Q.Q.(.",
"~.Z.Z.G.K.L.L.L.L.L.U.U.U.U.Y.T.T.T.W.W.W.W.Q.Q.Q.Q.Q.!.!.Q.Q.`.",
"~.V.C.F.V q q R K.L.v w c.U.c.e L W.b r n.m.a a D !.g d d !.Q.`.",
"!.s.V.G.> O O f K.L.w + 8 Y.h.$ N W.e & z.z.* * 0 E.= = ; !.W.`.",
"Q.u.s.w.O i # % K.K.q + + M h.$ N T.e $ z.z.& 1 & v.* 2 = Q.W./.",
"R.u.s.x o B s O K K.9 O 4 + S + M Y.w $ k.k.$ e & c & p * Q.R.~.",
"U.r.V.- . , - o s K.9 O A.% % + m U.w @ h.j.$ N $ 3 r r & W.Y.~.",
"L.-.U   . . . . # L.7 O L.V O O m P.q + h.h.@ N w $ b e $ W.U.!.",
"K.O.s   z C.Z., . J 6 o Z.F.7 O n K.9 O R R + M v @ L w $ Y.I.Q.",
"G./ C H ;.r.r.I P :.U P s.s.M.Y x.Z.:.Y N.B.T c.b.R S.l.E P.L.W.",
"F.W / $.e.e.e.e.r.r.r.r.r.r.s.x 7 C.s.V.V.V.C.Z.Z.F.F.G.K.K.K.W.",
"Z.W W W #.7.7.7.e.e.e.e.r.r.s.6 . C.u.a.s.s.s.s.V.C.C.F.F.F.F.T.",
"V.W W W W ( =.7.7.7.7.e.e.e.a.5 X V.y.u.u.a.a.s.s.s.s.V.C.C.F.U.",
"s.W ! ! ! ! ! ) &.7.7.9.9.9.u.5 X s.t.y.y.y.y.a.a.a.s.s.s.V.C.P.",
"a.! ! Q Q Q Q Q Q ( &.8.8.9.y.5 X a.t.t.t.t.t.y.y.p.a.a.f.s.g.L.",
"a.Q Q Q ~ ~ ~ ~ ~ ~ ~ ^ { %.q.5 X f.q.q.q.q.t.t.t.t.y.p.d.a.f.J.",
"p.~ ` ` ` ` ` ` ` ` ` ` ` ` } <   3.} %.%.*.*.8.8.8.3.3.3.3.*.f.",
"t.` ` ` ` ' ' ' ' ' ' ' ' ' %.<   *.' ' ' ' ' ' ' ' ' ` ` ` ` t.",
"q.' ' ' ] ] ] ] ] ] ] ] ] ] *.<   3.] ] ] ] ] ] ] ] ] ] ' ' ` q.",
"0.] ] ] ] ] ] ] ] [ [ | %.3.q.<   i.3.,.| [ [ ] ] ] ] ] ] ] ' 0.",
"5.] ] ] ] [ [ | | | |  .t             : _ | | | | [ ] ] ] ] ] 5.",
"5.] ] [ [ | | | | | |  .5.y         : 6.X.| | | | | | [ [ ] ] 5.",
"4.[ [ [ | | | | |  .....X.0.y     : 6.X..... .| | | | | [ [ ] 4.",
"2.[ [ | | | | ........X.X.X.0.u : 6.,.X.X.........| | | | | [ 2.",
",.| | | ..........X.X.X.,.,.4.0.<.5.,.,.o.X.X.........| | | | ,.",
"o.| | ........X.X.X.o.>.F G G G G G G F +.,.X.X.X.........| | X.",
"X.| ......X.X.X.X.X.1.F                 h 4.X.X.X.X.X.......|  .",
"_ ......X.X.X.X.X.o.1.@.j k k k k k k j F 4.o.X.X.X.X.X......._ ",
"A ....X.X.X.X.X.o.o.o.4.5.5.5.5.5.5.5.5.4.1.o.o.X.X.X.X.X.....A ",
"l A X.X.o.o.o.o.o.o.o.1.1.1.1.1.1.1.1.1.1.o.o.o.o.o.o.X.X.X.Z l "
};
