/* XPM */
static char *animCopyPaste[] = {
/* columns rows colors chars-per-pixel */
"32 32 207 2 ",
"   c #0F0000",
".  c #140000",
"X  c #1C0000",
"o  c #240000",
"O  c #2B0000",
"+  c #240909",
"@  c #2A0A09",
"#  c #320100",
"$  c #3D0000",
"%  c #3C0C0C",
"&  c #2B1110",
"*  c #321312",
"=  c #361A18",
"-  c #45110F",
";  c #48110E",
":  c #451514",
">  c #491411",
",  c #451E1E",
"<  c #541613",
"1  c #551815",
"2  c #5F1916",
"3  c #5C1F1C",
"4  c #641B15",
"5  c #631E1A",
"6  c #5D201D",
"7  c #62231F",
"8  c #78271F",
"9  c #462423",
"0  c #4D2726",
"q  c #4E2827",
"w  c #532322",
"e  c #542A2A",
"r  c #5B2D2D",
"t  c #5B302F",
"y  c #5D3635",
"u  c #6D2925",
"i  c #742B25",
"p  c #742F29",
"a  c #76312B",
"s  c #603433",
"d  c #643B3B",
"f  c #6A3C3B",
"g  c #7D3933",
"h  c #734544",
"j  c #744846",
"k  c #774C4A",
"l  c #7B4E4D",
"z  c #7F514F",
"x  c #7D5250",
"c  c #940500",
"v  c #960902",
"b  c #9A0D03",
"n  c #940A08",
"m  c #990F08",
"M  c #9E1206",
"N  c #9A1109",
"B  c #9C190F",
"V  c #9D1E16",
"C  c #A01609",
"Z  c #A41C0C",
"A  c #A21F14",
"S  c #A7200F",
"D  c #A8210F",
"F  c #A72211",
"G  c #A92511",
"H  c #AD2B15",
"J  c #A5251A",
"K  c #A12A1F",
"L  c #AE2E19",
"P  c #B02F17",
"I  c #AF311C",
"U  c #B2341B",
"Y  c #B4391E",
"T  c #882E29",
"R  c #9E2923",
"E  c #863127",
"W  c #833028",
"Q  c #8C372E",
"!  c #8B3A34",
"~  c #823F38",
"^  c #933C35",
"/  c #993E32",
"(  c #A32C23",
")  c #A92E24",
"_  c #A43227",
"`  c #AC3424",
"'  c #AD3927",
"]  c #A3362B",
"[  c #AA352A",
"{  c #A0382C",
"}  c #AD3B2A",
"|  c #B13622",
" . c #B43D21",
".. c #B23C2B",
"X. c #AD3E34",
"o. c #A93D39",
"O. c #B03D32",
"+. c #9A453B",
"@. c #B4422C",
"#. c #AE4135",
"$. c #AE443A",
"%. c #A7493D",
"&. c #B54633",
"*. c #B74C37",
"=. c #B1463C",
"-. c #B2493C",
";. c #B94F3C",
":. c #934A44",
">. c #9D4C43",
",. c #95534E",
"<. c #9C534D",
"1. c #815453",
"2. c #865957",
"3. c #8A5B5B",
"4. c #905956",
"5. c #9F5954",
"6. c #945F5D",
"7. c #9D5C58",
"8. c #A44B40",
"9. c #A34F49",
"0. c #B24D43",
"q. c #B24F4C",
"w. c #A55047",
"e. c #A2544A",
"r. c #A4584F",
"t. c #AF594E",
"y. c #B45145",
"u. c #B95343",
"i. c #B6544C",
"p. c #B8574A",
"a. c #BB5B4C",
"s. c #A55A50",
"d. c #AA5D55",
"f. c #B45552",
"g. c #BB5E53",
"h. c #B75C5A",
"j. c #9F625E",
"k. c #BE6254",
"l. c #BD645A",
"z. c #976666",
"x. c #976866",
"c. c #A46661",
"v. c #AE6560",
"b. c #A66A67",
"n. c #A46D6B",
"m. c #BB6562",
"M. c #B76963",
"N. c #BD6966",
"B. c #BD6A6A",
"V. c #A7706D",
"C. c #BE726F",
"Z. c #A87673",
"A. c #AA7976",
"S. c #AB7C7A",
"D. c #BD7670",
"F. c #B17974",
"G. c #B97A74",
"H. c #B37F7E",
"J. c #C16758",
"K. c #C0695D",
"L. c #C16D64",
"P. c #C06E6A",
"I. c #C37065",
"U. c #C4746C",
"Y. c #C6786F",
"T. c #C27573",
"R. c #C67A74",
"E. c #C87E77",
"W. c #C57C7B",
"Q. c #C87E79",
"!. c #AE817F",
"~. c #CD8376",
"^. c #C7807F",
"/. c #C9827D",
"(. c #CF8A7F",
"). c #B08382",
"_. c #BA8481",
"`. c #B38887",
"'. c #BA8A89",
"]. c #C68380",
"[. c #C98583",
"{. c #CB8985",
"}. c #CC8C8A",
"|. c #CE918E",
" X c #D29086",
".X c #D4978E",
"XX c #CE9291",
"oX c #D19695",
"OX c #D39A96",
"+X c #D39C9B",
"@X c #D6A19E",
"#X c #D8A39C",
"$X c #D6A3A3",
"%X c #D9A7A4",
"&X c #D8A8A7",
"*X c #D5ADAC",
"=X c #D9AAA9",
"-X c #DCB1AF",
";X c #DDB2B1",
":X c #E0B6B3",
">X c #E1BCBB",
",X c #E5C4C4",
"<X c #E6C8C8",
"1X c #EACFCF",
"2X c #EED7D7",
"3X c #EFDADA",
"4X c None",
/* pixels */
",X2X1X,X,X,X,X,X,X,X,X,X<X,X<X,X<X,X<X<X<X<X<X<X<X<X<X<X<X1X3X>X",
"2XW.^.[.[.[.}.}.XXXXXXoX+X+X+X+X$X$X$X$X%X&X&X&X&X&X&X&X&X&X&X3X",
",XW.W.W.^.].].[.{.}.}.XXXXXXoX+X+X+X+X$X@X$X%X%X&X&X&X&X&X&X&X<X",
";XC.C.T.^.[.}.[.[.{.|.oXXXXXoX+X+X+X$X$X$X$X=X=X=X=X-X-X-X=X&X<X",
";XB.B.T.x q q n.].{.h e H.XXH.e z.+Xl r '.'.r s 3.-Xf s s ;X&X,X",
"-Xm.B.W.* X X d ^.[.q o , oXA.O x $Xr O ).).O # w *X# # # ;X&X>X",
"=Xh.m.b.. e + @ [.^.q X o x S.o x +Xe O !.).O % # `.# % # =X$X>X",
"+Xf.B.f . x y X 6.^.0 X , o 2.o x +Xe O S.S.O r O h # t # =X@X:X",
"|.q.N.& . = * X y ].9 X _.@ @ o x |.q o A.S.o 2.O : r r O %XOX;X",
"{.o.7.        . + [.9 . [.z X X k }.q o Z.Z.o x q O k r O @X.X;X",
"[.V t   y P.T.= . 3.9 . C.T.9 X j /.0 o n.n.o x j O x.e O .X|.=X",
"W.n T :.9.0.q.<.,.d.s.,.l.l.M.7.v.U.c.j.D.T.c.G.G.n.].F.V. X{.%X",
"R.c n R $.$.=.0.0.i.i.i.i.f.g.g.k.l.m.L.M.I.U.U.Y.Y.R.~./././.#X",
"U.c c c V o.$.$.=.=.-.0.y.y.i.i.i.g.g.g.l.l.l.N.N.I.I.U.Y.R.~.OX",
"P.c c c c N [ X.o.#.=.=.-.0.0.y.i.i.i.a.a.g.k.l.l.L.L.I.I.U.U..X",
"K.c c c c c c B [ #.$.-.-.=.-.-.0.y.p.p.a.k.k.k.k.k.l.K.K.N.I. X",
"J.c c c c c c c m _ %.>.w.a.-.-.u.%.t.e.r.s.d.J.k.a.J.k.J.J.K.(.",
"a.v v v b b c m R > X o O > 0.y.+.a ~ $ $ $ $ g k.a.a.a.a.k.J.~.",
"a.b b v b v b A 3 o 3 ! > o 4 ( 5 ^ a # u :.# $ a.&.' ' } } ) J.",
"u.b b b b b M ) o o o.J R _ J ) ; X.u o 6 ! o # K M M b b b v u.",
";.b M M M M C [ o o O.A K _ ) ] < O.p o O O O u J M M M M M b ;.",
"*.b M M C C C ) - O +.&.p O i E 8 ..p O 7 ^ { K S C C C M M M *.",
"@.C C Z C Z Z J Q O # 1 # O +.5 { ` p # a ` J S S Z Z C C C M &.",
"@.C C Z Z S G G ' / 6 1 7 / &.4 ' | E 1 E I G G S S S Z Z C C @.",
"@.Z Z D D D G G H I ..@...| I | I L  ...| H H G G G G S S Z Z ..",
"Y D D D D G G P H P H P L L L L L L L L L P P H H H G G S S Z  .",
"Y D D G H G P P P P P P U I I U U U U L P U P P H H H G G G S Y ",
"Y G G H H P P P U U U U U U Y U U U U U U U U U L L H H G G G I ",
"U D P P P P P U U U Y U U Y Y Y Y U Y U Y U U U U P P P H H G U ",
"U H P P P U U U U Y Y Y Y Y Y Y Y Y U  .Y Y Y U U Y U P L H G U ",
"U P P P U U U Y Y Y Y Y Y Y Y  .Y Y  .Y Y Y Y Y Y U P U P L H U ",
"4XU U U Y Y Y Y  . . . . . . .Y @. . . . . . . .Y Y Y Y U U U 4X"
};
