/* XPM */
static char *AnimLibImport[] = {
/* columns rows colors chars-per-pixel */
"32 32 155 2",
"   c #161616",
".  c #1C1C1C",
"X  c #232323",
"o  c #2B2B2B",
"O  c #2E2E31",
"+  c #333334",
"@  c #3B3B3B",
"#  c #2A3744",
"$  c #2E3C49",
"%  c #3C3E41",
"&  c #403F45",
"*  c #3C4045",
"=  c #3A4654",
"-  c #434343",
";  c #414348",
":  c #44484F",
">  c #4B4B4B",
",  c #454C54",
"<  c #484D56",
"1  c #494F5D",
"2  c #47515C",
"3  c #4A545A",
"4  c #4E585E",
"5  c #535353",
"6  c #565B5D",
"7  c #5B5B5B",
"8  c #495663",
"9  c #495862",
"0  c #455A6A",
"q  c #4C5D6A",
"w  c #505664",
"e  c #515F6A",
"r  c #566065",
"t  c #5B6062",
"y  c #56636D",
"u  c #58676E",
"i  c #48647A",
"p  c #4F6878",
"a  c #506470",
"s  c #596273",
"d  c #566A75",
"f  c #5B6D75",
"g  c #5A6E78",
"h  c #5E727B",
"j  c #646464",
"k  c #606A6E",
"l  c #6C6C6C",
"z  c #637277",
"x  c #6A7477",
"c  c #64757C",
"v  c #747474",
"b  c #707A7C",
"n  c #7A7A7A",
"m  c #4F728E",
"M  c #5C7581",
"N  c #496F96",
"B  c #4D739A",
"V  c #52789F",
"C  c #667A81",
"Z  c #6B7E83",
"A  c #577FA7",
"S  c #6E8287",
"D  c #62808E",
"F  c #758689",
"G  c #768A8D",
"H  c #7A898A",
"J  c #61899E",
"K  c #798D90",
"L  c #75939A",
"P  c #78969C",
"I  c #7D9B9F",
"U  c #5F8CA6",
"Y  c #5685AC",
"T  c #5C8CB9",
"R  c #5890BC",
"E  c #638EA3",
"W  c #6F8EAE",
"Q  c #6B93A4",
"!  c #6D9AAD",
"~  c #7496A1",
"^  c #729AA7",
"/  c #769EA9",
"(  c #698FB6",
")  c #6394B1",
"_  c #6D93BA",
"`  c #7298BF",
"'  c #79A1AB",
"]  c #6CA3BD",
"[  c #71A2B7",
"{  c #5A95C4",
"}  c #5397CB",
"|  c #5A99CD",
" . c #4697D3",
".. c #4A9BD8",
"X. c #599DD6",
"o. c #5A9FD9",
"O. c #759CC3",
"+. c #4DA0DD",
"@. c #55A1DC",
"#. c #64A5CE",
"$. c #73AAC0",
"%. c #72ADC9",
"&. c #7BB6CC",
"*. c #7EB9CC",
"=. c #6FB0D1",
"-. c #6DB4DA",
";. c #70B5DB",
":. c #75BADC",
">. c #55A7E5",
",. c #58A6E2",
"<. c #5BA9E5",
"1. c #54AAE8",
"2. c #64AEE9",
"3. c #6CB6E4",
"4. c #63B4EE",
"5. c #67B8EE",
"6. c #6CBCEE",
"7. c #70BFEE",
"8. c #7FC0D5",
"9. c #7AC4E6",
"0. c #74C3EF",
"q. c #7AC9EF",
"w. c #7DCCF0",
"e. c #848484",
"r. c #8C8C8C",
"t. c #949494",
"y. c #9B9B9B",
"u. c #80A8AF",
"i. c #81AEB6",
"p. c #87B4B9",
"a. c #8AB7BB",
"s. c #A3A3A3",
"d. c #ACACAC",
"f. c #B3B3B3",
"g. c #BDBDBD",
"h. c #85B6C0",
"j. c #83BECE",
"k. c #86C1CF",
"l. c #8CC3CA",
"z. c #8EC9D2",
"x. c #81C6DE",
"c. c #86CBDF",
"v. c #91CCD3",
"b. c #8FD0D9",
"n. c #8CD6E8",
"m. c #80CFF0",
"M. c #84D3F0",
"N. c #88D7F1",
"B. c #8BDAF1",
"V. c #93E2F2",
"C. c #98E7F2",
"Z. c #C1C1C1",
"A. c #CDCDCD",
"S. c #DBDBDB",
"D. c None",
/* pixels */
"Z.S.A.g.g.g.g.g.g.g.g.g.g.g.Z.Z.Z.Z.Z.Z.Z.Z.Z.Z.Z.Z.Z.Z.Z.A.S.Z.",
"S.j j j j j l l l l l l v v v v v v n n n n n n n n n n n n n S.",
"g.7 7 j j j j j j l l l l l v v v v v v v n n n n n n n n n n Z.",
"g.7 7 7 7 7 j j j j j l l l l l l v v v v v v n n n n n n n n Z.",
"f.5 5 7 7 7 C &.*.~ j j L k.P l l l F z.p.H v.a.v v n n n n n g.",
"f.5 5 5 5 5 [ M.M.x.7 j / B.' j l l b u.I K C.v.v v v v n n n g.",
"d.> > > 5 5 9.9.$.M.z 7 ^ N./ j j j Z k.i.G V.b.l.l.H v v v v f.",
"s.> > > > M q.] D w.! 7 Q M.^ 7 j j S B.j.F V.V.h.V.b.v v v v f.",
"t.- - - > ) 0.;.=.q.:.5 Q m.Q 7 7 7 Z N.j.S B.k.l V.V.l l l v d.",
"t.+ - - - 3.7.0.0.0.q.u E q.%.Q Q C C M.&.Z B.c.x B.n.l l l l d.",
"r.. @ - p 6.#.- - U 0.E J q.q.q.w.Q c m.&.C N.8.N.B.' j j l l s.",
"e.  X @ , q 9 - - 3 a e 4 d d f g r 6 h f t c k c c j j j j j s.",
"e.    o @ @ @ @ - - - - - - > W -.y > 5 5 5 5 5 7 7 7 7 7 j j y.",
"n       X @ @ @ @ @ @ - - - - O.6.y > > > > 5 5 5 5 7 7 7 7 7 t.",
"n         . + @ @ @ @ @ @ - - ` 6.e - > > > > > 5 5 5 5 5 7 7 r.",
"v             X + @ @ @ @ @ @ _ 5.q - - - - > > > > > 5 5 5 5 e.",
"l                 X o @ @ @ @ _ 4.8 - - - - - - > > > > > 5 5 e.",
"j                     . X o + ( 4.8 @ @ - - - - - - > > > > > n ",
"j                 . . . . . . N  .$ o o + + + @ @ @ + + + + + l ",
"7   . . . . . . . . . . . . . B  .# . . . . . . . . . . . .   7 ",
"5 . . . . . . . X X X X X X X V ..$ X X X X X X . . . . . . . 5 ",
"5 . . . . X X X X X X o + O o A +.= o + O X X X X X X . . . . 5 ",
"> . . X X X X X X o o & T X.| @.@.| | o.1 o o X X X X X X . . > ",
"> X X X X X o o o o o o @ R 1.,.,.>.>.w o o o o o o X X X X X > ",
"- X X X X o o o o o + + + @ { <.<.1.w + + + o o o o o X X X X - ",
"- X X o o o o o + + + + + + * } <.s + + + + + + o o o o o X X - ",
"@ X o o o o o + + + + + + + + * 2 + + + + + + + + o o o o o X @ ",
"@ o o o o + + + + + + % < < < , : < < < ; + + + + + + o o o o @ ",
"+ o o o + + + + + + + i 2.2.2.2.2.2.2.2.Y + + + + + + + o o o @ ",
"+ o o + + + + + + @ @ 0 { R R R R R R { m @ @ + + + + + + o o + ",
"+ o + + + + + + @ @ @ @ @ @ @ @ @ @ @ @ @ @ @ @ + + + + + + o + ",
"D.+ + + + @ @ @ @ @ @ @ @ @ @ @ @ @ @ @ @ @ @ @ @ @ @ + + + + D."
};
