/* XPM */
static char *AnimLibExport[] = {
/* columns rows colors chars-per-pixel */
"32 32 154 2",
"   c #161616",
".  c #1C1C1C",
"X  c #242424",
"o  c #2B2B2B",
"O  c #343434",
"+  c #3A3A3A",
"@  c #2C4355",
"#  c #2F4658",
"$  c #334A5C",
"%  c #374E60",
"&  c #3C5365",
"*  c #444444",
"=  c #4C4C4C",
"-  c #434D54",
";  c #4B4D50",
":  c #46535D",
">  c #4A545A",
",  c #4E585E",
"<  c #535353",
"1  c #565B5D",
"2  c #5B5B5B",
"3  c #445867",
"4  c #4A5962",
"5  c #405769",
"6  c #435A6C",
"7  c #495D6B",
"8  c #505F68",
"9  c #485F71",
"0  c #566065",
"q  c #5B6062",
"w  c #58676E",
"e  c #4F6878",
"r  c #506470",
"t  c #596470",
"y  c #566A75",
"u  c #5E6D73",
"i  c #5D727C",
"p  c #646464",
"a  c #606A6E",
"s  c #6C6C6C",
"d  c #637277",
"f  c #6A7477",
"g  c #64757C",
"h  c #747474",
"j  c #707A7C",
"k  c #7A7A7A",
"l  c #376E98",
"z  c #3B729C",
"x  c #566C80",
"c  c #5C7581",
"v  c #507694",
"b  c #667A81",
"n  c #6B7E83",
"m  c #4077A1",
"M  c #447BA5",
"N  c #487FA9",
"B  c #6E8287",
"V  c #62808E",
"C  c #758689",
"Z  c #768A8D",
"A  c #7A898A",
"S  c #61899E",
"D  c #728A96",
"F  c #798D90",
"G  c #75939A",
"H  c #78969C",
"J  c #7D9B9F",
"K  c #4D84AE",
"L  c #5F8CA6",
"P  c #5586AB",
"I  c #5588AF",
"U  c #5A8CAF",
"Y  c #548AB4",
"T  c #578EB8",
"R  c #5D98BF",
"E  c #638EA3",
"W  c #748EAC",
"Q  c #6B93A4",
"!  c #6D9AAD",
"~  c #7496A1",
"^  c #729AA7",
"/  c #769EA9",
"(  c #6394B1",
")  c #6D96BC",
"_  c #7896B8",
"`  c #79A1AB",
"'  c #6CA3BD",
"]  c #71A2B7",
"[  c #5D98C3",
"{  c #5D99C8",
"}  c #4795D1",
"|  c #4896D2",
" . c #4C9AD6",
".. c #509EDA",
"X. c #54A2DE",
"o. c #64A5CE",
"O. c #73AAC0",
"+. c #72ADC9",
"@. c #7BB6CC",
"#. c #7EB9CC",
"$. c #61A7DB",
"%. c #6FB0D1",
"&. c #70B5DB",
"*. c #75BADC",
"=. c #58A6E2",
"-. c #5CAAE6",
";. c #5EACE8",
":. c #63ACE3",
">. c #61AFEB",
",. c #67B0E3",
"<. c #6CB6E4",
"1. c #66B4EE",
"2. c #69B7EE",
"3. c #6BBBEE",
"4. c #72B6E7",
"5. c #70BFEE",
"6. c #7FC0D5",
"7. c #6BC1EE",
"8. c #7AC4E6",
"9. c #74C3EF",
"0. c #7AC9EF",
"q. c #7DCCF0",
"w. c #848484",
"e. c #8C8C8C",
"r. c #949494",
"t. c #9B9B9B",
"y. c #80A8AF",
"u. c #81AEB6",
"i. c #87B4B9",
"p. c #8AB7BB",
"a. c #A3A3A3",
"s. c #ACACAC",
"d. c #B3B3B3",
"f. c #BDBDBD",
"g. c #85B6C0",
"h. c #83BECE",
"j. c #86C1CF",
"k. c #8CC3CA",
"l. c #8EC9D2",
"z. c #81C6DE",
"x. c #86CBDF",
"c. c #91CCD3",
"v. c #8FD0D9",
"b. c #8CD6E8",
"n. c #80CFF0",
"m. c #84D3F0",
"M. c #88D7F1",
"N. c #8BDAF1",
"B. c #93E2F2",
"V. c #98E7F2",
"C. c #C1C1C1",
"Z. c #CDCDCD",
"A. c #DBDBDB",
"S. c None",
/* pixels */
"C.A.Z.f.f.f.f.f.f.f.f.f.f.f.C.C.C.C.C.C.C.C.C.C.C.C.C.C.C.Z.A.C.",
"A.p p p p p s s s s s s h h h h h h k k k k k k k k k k k k k A.",
"f.2 2 p p p p p p s s s s s h h h h h h h k k k k k k k k k k C.",
"f.2 2 2 2 2 p p p p p s s s s s s h h h h h h k k k k k k k k C.",
"d.< < 2 2 2 b @.#.~ p p G j.H s s s C l.i.A c.p.h h k k k k k f.",
"d.< < < < < ] m.m.z.2 p / N.` p s s j y.J F V.c.h h h h k k k f.",
"s.= = = < < 8.8.O.m.d 2 ^ M./ p p p n j.u.Z B.v.k.k.A h h h h d.",
"a.= = = = c 0.' V q.! 2 Q m.^ 2 p p B N.h.C B.B.g.B.v.h h h h d.",
"r.* * * = ( 9.&.%.0.*.< Q n.Q 2 2 2 n M.h.B N.j.s B.B.s s s h s.",
"r.O * * * <.5.9.9.9.0.w E 0.+.Q Q b b m.@.n N.x.f N.b.s s s s s.",
"e.. + * e 3.o.* * L 9.E S 0.0.0.q.Q g n.@.b M.6.M.N.` p p s s a.",
"w.  X + - 7 4 * * > r 8 , y y i D 0 1 i u q g a g g p p p p p a.",
"w.    o + + + + * * * * * * = t _ = = < < < < < 2 2 2 2 2 p p t.",
"k       X + + + + + + * * * 4 4.7.W = = = = < < < < 2 2 2 2 2 r.",
"k         . O + + + + + + : ,.3.3.3.) = = = = = < < < < < 2 2 e.",
"h             X O + + + 7 :.1.2.2.3.3.) ; * = = = = = < < < < w.",
"s                 X o 3 I Y P $.1.[ U R x * * * = = = = = < < w.",
"p                     . X o O T 1.9 + + * * * * * * = = = = = k ",
"p                 . . . . . . l | # o o O O O + + + O O O O O s ",
"2   . . . . . . . . . . . . . z } @ . . . . . . . . . . . .   2 ",
"< . . . . . . . X X X X X X X m  .# X X X X X X . . . . . . . < ",
"< . . . . X X X X X X X X X X M ..$ X X X X X X X X X . . . . < ",
"= . . X X X X X X o o o o o o N X.% o o o o o X X X X X X . . = ",
"= X X X X X o o o o o o o o o K =.& o o o o o o o o X X X X X = ",
"* X X X X o o o o o O O O O O K -.& O O O O o o o o o X X X X * ",
"* X X o o o o o O O O O O O O Y ;.5 O O O O O O o o o o o X X * ",
"+ X o o o o o O O O O O O O O Y ;.5 O O O O O O O o o o o o X + ",
"+ o o o o O O O O O O O O O O Y >.6 O O O O O O O O O o o o o + ",
"O o o o O O O O O O O + + + + Y >.6 + + + O O O O O O O o o o + ",
"O o o O O O O O O + + + + + + v { : + + + + + O O O O O O o o O ",
"O o O O O O O O + + + + + + + + + + + + + + + + O O O O O O o O ",
"S.O O O O + + + + + + + + + + + + + + + + + + + + + + O O O O S."
};
