/* XPM */
static char *AnimExport[] = {
/* columns rows colors chars-per-pixel */
"32 32 183 2",
"   c #000334",
".  c #000A37",
"X  c #000538",
"o  c #000C38",
"O  c #00143B",
"+  c #001B3E",
"@  c #090F41",
"#  c #091341",
"$  c #001F40",
"%  c #0A1C44",
"&  c #111A4E",
"*  c #002342",
"=  c #0B2147",
"-  c #042945",
";  c #0B2D46",
":  c #0F2F48",
">  c #14224D",
",  c #113048",
"<  c #152C51",
"1  c #1C2D57",
"2  c #1B2D5D",
"3  c #113450",
"4  c #183852",
"5  c #1D325F",
"6  c #183C58",
"7  c #203A5D",
"8  c #1D3460",
"9  c #223263",
"0  c #273A62",
"q  c #293E64",
"w  c #224160",
"e  c #2A4366",
"r  c #2E4E66",
"t  c #2B4668",
"y  c #2D4C6B",
"u  c #2F536D",
"i  c #32556E",
"p  c #334C70",
"a  c #375770",
"s  c #3B5A71",
"d  c #3C547B",
"f  c #415D73",
"g  c #415C7D",
"h  c #4B687C",
"j  c #32608A",
"k  c #3F608D",
"l  c #3E6294",
"z  c #3C749E",
"x  c #297EA9",
"c  c #415680",
"v  c #455E83",
"b  c #415E8D",
"n  c #4A6B84",
"m  c #45628E",
"M  c #4E6D8B",
"N  c #52748D",
"B  c #506E90",
"V  c #567493",
"C  c #597794",
"Z  c #5B7B96",
"A  c #5A7699",
"S  c #5B7A9B",
"D  c #5478A2",
"F  c #5D7DA3",
"G  c #497FB1",
"H  c #338EBD",
"J  c #3490BE",
"K  c #62819E",
"L  c #69859C",
"P  c #5E86B1",
"I  c #5E91BD",
"U  c #6788AC",
"Y  c #6C8EAF",
"T  c #7192AC",
"R  c #648CB3",
"E  c #6E94B7",
"W  c #6692BC",
"Q  c #6C97BE",
"!  c #7196B8",
"~  c #7499BA",
"^  c #7A9DBC",
"/  c #7CA0BC",
"(  c #2B84C6",
")  c #2686CC",
"_  c #2885C9",
"`  c #2589CE",
"'  c #3287C7",
"]  c #358CCD",
"[  c #388ECD",
"{  c #399DCE",
"}  c #268BD1",
"|  c #298FD2",
" . c #2C94D2",
".. c #2E99D3",
"X. c #3097D3",
"o. c #3D97D5",
"O. c #339CD4",
"+. c #3B9FD2",
"@. c #36A1D5",
"#. c #3AA5D6",
"$. c #3EA9D7",
"%. c #418FCB",
"&. c #4190CC",
"*. c #4B96CE",
"=. c #439CD7",
"-. c #4C9BD5",
";. c #459ED8",
":. c #529CD2",
">. c #5D9FD2",
",. c #6598C4",
"<. c #739DC3",
"1. c #41A7D7",
"2. c #40ABD7",
"3. c #44A5D9",
"4. c #4CA2D9",
"5. c #44A9D9",
"6. c #4BACDA",
"7. c #57A1D6",
"8. c #5CA2D5",
"9. c #53A6DB",
"0. c #5DA6D9",
"q. c #52ACDB",
"w. c #5BACDD",
"e. c #56B1DC",
"r. c #58B3DC",
"t. c #7AA0C3",
"y. c #7BA8CB",
"u. c #63A5D5",
"i. c #6CA9D7",
"p. c #64ADDE",
"a. c #6CADDC",
"s. c #7FADD4",
"d. c #73AED9",
"f. c #6CB0DF",
"g. c #73B1DE",
"h. c #7CB3DD",
"j. c #6FB1E0",
"k. c #75B4E0",
"l. c #7CB6E0",
"z. c #79B8E2",
"x. c #84A4BF",
"c. c #85A6C0",
"v. c #88A7C1",
"b. c #86ABC7",
"n. c #8CAAC2",
"m. c #8BAFCB",
"M. c #94AFC5",
"N. c #8AB1CF",
"B. c #97B5CD",
"V. c #98B6CD",
"C. c #87B4D7",
"Z. c #89B4D7",
"A. c #82B6DD",
"S. c #85B9DF",
"D. c #8ABADF",
"F. c #92B4D1",
"G. c #97BCDB",
"H. c #ABBDCB",
"J. c #8DBCE0",
"K. c #91BEE1",
"L. c #B0C1CF",
"P. c #8FC1E6",
"I. c #96C2E2",
"U. c #9BC4E4",
"Y. c #9DC8E7",
"T. c #A0C7E5",
"R. c #A4CAE6",
"E. c #A9CCE7",
"W. c #ACCEE8",
"Q. c #AFD0E9",
"!. c #B9D2E4",
"~. c #B5D3EA",
"^. c #BAD6EC",
"/. c #BED9ED",
"(. c #C3DCEE",
"). c #C8DDEE",
"_. c #C9DEF0",
"`. c #CDE0EF",
"'. c #D7E4EE",
"]. c #DBE7EF",
"[. c #CDE2F1",
"{. c #D1E4F2",
"}. c #D8E6F0",
/* pixels */
"L.'.{.[.[.[.[.[.[.[.[.[.[.[.{.{.{.{.{.{.{.{.{.{.{.{.{.{.{.}.].H.",
"}.I.I.I.U.U.Y.T.R.R.R.E.E.W.W.Q.~.~.~.~.~.~.^.^.^.^.^.^.^.^.~.].",
").J.K.K.I.I.U.U.U.T.T.R.R.E.E.W.W.W.~.~.~.~.~.~.^.^.^.^.^.^.^.`.",
"(.D.D.K.I.U.U.U.U.U.R.R.R.R.E.W.W.W.~.~.~.~.^.^.^.^.^././.^.^.[.",
"(.A.S.J.S t t ^ I.U.M y m.R.m.u T ~.N i B.V.s s L /.h f f /.^.[.",
"/.h.A.K.< O O g I.U.y + w E.x.* Z ~.u - n.n.; ; r !.: : , /.~.[.",
"^.d.h.t.O p % = I.I.t + + C x.* Z W.u * n.n.- 3 - M.; 4 : ^.~._.",
"Q.d.h.v o A d O Y I.e O 7 + K + C E.y * v.v.* u - n - a ; ^.Q.(.",
"R.i.A.> . 1 > o d I.e O F.= = + V R.y $ x.c.* Z * 6 i i - ~.E.(.",
"U.>.Q   . . . . % U.q O U.S O O V Y.t + x.x.$ Z y * N u * ~.R./.",
"I.%.d   c S.D.1 . U 0 o D.J.q O B I.e O ^ ^ + C M $ T y * E.T.^.",
"K.' G P ,.i.i.W R <.Q R h.h.s.E y.D.<.! C.Z.~ m.N.^ G.b./ Y.U.~.",
"J.( ' *.u.u.u.u.i.i.i.i.i.d.h.<.F S.h.A.A.A.S.D.D.J.J.K.I.I.I.~.",
"D.( ( ( &.8.8.8.u.u.u.u.i.d.<.# . F A.h.h.h.h.h.A.S.S.J.J.J.J.W.",
"A.( ( ( ( ] :.8.8.8.8.u.i.Q # X X . F h.d.g.g.h.h.h.h.A.S.S.J.R.",
"h.( _ _ _ _ _ [ -.7.7.0.I @   X X X . D g.a.a.g.g.g.h.h.h.A.S.Y.",
"g._ _ ) ) ) ) ) ) ] -.0.l b m & X m m k u.p.p.a.a.f.g.g.k.h.l.U.",
"g.) ) ) ` ` ` ` ` ` ` | o.4.a.9 X z.p.p.p.w.p.p.p.p.a.f.j.g.k.P.",
"f.` } } } } } } } } } } } } o.2   4.o.=.=.;.;.9.9.9.4.4.4.4.;.k.",
"p.} } } } | | | | | | | | | =.2   ;.| | | | | | | | | } } } } p.",
"w.| | |  . . . . . . . . . .;.2   4. . . . . . . . . . .| | } w.",
"q. . . . . . . . .....X.X.X.3.2   4.X.X.X..... . . . . . . .| q.",
"6. . . . .....X.X.O.O.O.O.O.3.2   q.O.O.O.O.O.X.X... . . . . .6.",
"6. . .....X.O.O.O.O.O.O.O.O.6.2   q.O.O.O.O.O.O.O.O.X..... . .6.",
"5.......O.O.O.O.O.O.@.@.@.@.6.2   q.@.@.@.@.O.O.O.O.O.O..... .5.",
"3.....O.O.O.O.@.@.@.@.#.#.#.6.5   e.#.#.#.@.@.@.@.O.O.O.O.O...3.",
"1.O.O.O.@.@.@.@.@.#.#.#.#.#.6.5   e.#.#.#.#.#.@.@.@.@.O.O.O.O.1.",
"$.O.O.@.@.@.@.#.#.#.#.#.#.#.q.5   r.#.#.#.#.#.#.#.@.@.@.@.O.O.$.",
"#.O.@.@.@.#.#.#.#.#.#.$.$.$.6.8   e.$.$.$.#.#.#.#.#.#.@.@.@.O.+.",
"{ @.@.@.#.#.#.#.#.$.$.$.$.$.6.z j 6.$.$.$.$.$.#.#.#.#.#.@.@.@.{ ",
"J @.@.#.#.#.#.#.$.$.$.$.$.$.5.6.6.5.$.$.$.$.$.$.#.#.#.#.#.@.@.J ",
"x J #.#.$.$.$.$.$.$.$.2.2.2.2.2.2.2.2.2.2.$.$.$.$.$.$.#.#.#.H x "
};
