/* XPM */
static char *AnimCopy[] = {
/* columns rows colors chars-per-pixel */
"32 32 177 2",
"   c #0F0000",
".  c #140000",
"X  c #1C0000",
"o  c #240000",
"O  c #2C0000",
"+  c #250909",
"@  c #2A0A09",
"#  c #340000",
"$  c #3A0000",
"%  c #350909",
"&  c #3C0C0C",
"*  c #2B1010",
"=  c #321312",
"-  c #361818",
";  c #440404",
":  c #430A09",
">  c #4C0D0D",
",  c #451414",
"<  c #4D1717",
"1  c #451E1E",
"2  c #541212",
"3  c #521817",
"4  c #5E1C1C",
"5  c #641D1D",
"6  c #691D1C",
"7  c #462323",
"8  c #4D2726",
"9  c #532222",
"0  c #542A2A",
"q  c #5B2D2D",
"w  c #5D3535",
"e  c #672525",
"r  c #6E2524",
"t  c #6F2A29",
"y  c #702222",
"u  c #792727",
"i  c #722C2B",
"p  c #792928",
"a  c #603333",
"s  c #643B3B",
"d  c #6A3B3B",
"f  c #763545",
"g  c #734545",
"h  c #7B4D4C",
"j  c #7E504F",
"k  c #7D5151",
"l  c #940101",
"z  c #9C0404",
"x  c #940808",
"c  c #9D0C0C",
"v  c #9D1818",
"b  c #A00707",
"n  c #A40C0C",
"m  c #A90E0E",
"M  c #A51212",
"N  c #AC1212",
"B  c #A41C1C",
"V  c #AD1D1D",
"C  c #B11616",
"Z  c #B51B1A",
"A  c #B91D1D",
"S  c #832222",
"D  c #882525",
"F  c #812D2D",
"G  c #8C2A29",
"H  c #9B262F",
"J  c #932E2D",
"K  c #9D2D2D",
"L  c #95302F",
"P  c #9A302F",
"I  c #992931",
"U  c #8B3130",
"Y  c #883F3E",
"T  c #943232",
"R  c #9A3535",
"E  c #973A39",
"W  c #9F3C3C",
"Q  c #A52223",
"!  c #AD2423",
"~  c #A22A29",
"^  c #AC2D2C",
"/  c #B32323",
"(  c #B92626",
")  c #B32C2C",
"_  c #BA2B2B",
"`  c #A2302E",
"'  c #B4302F",
"]  c #A53434",
"[  c #AB3534",
"{  c #AD3C3B",
"}  c #B63635",
"|  c #BC3333",
" . c #B33B3B",
".. c #BD3939",
"X. c #C03B3B",
"o. c #B9413F",
"O. c #904746",
"+. c #924847",
"@. c #944C4B",
"#. c #9B4D4C",
"$. c #80504F",
"%. c #96504F",
"&. c #815353",
"*. c #865858",
"=. c #8A5B5B",
"-. c #905656",
";. c #9F5655",
":. c #945E5E",
">. c #9D5B5A",
",. c #A34B4A",
"<. c #B54342",
"1. c #BA4746",
"2. c #B54C4C",
"3. c #B94C4C",
"4. c #AC5352",
"5. c #A85857",
"6. c #B45353",
"7. c #BC5454",
"8. c #BD5857",
"9. c #B35A5A",
"0. c #BC5B5A",
"q. c #BF605F",
"w. c #976766",
"e. c #A46362",
"r. c #AE6261",
"t. c #A76867",
"y. c #A46B6B",
"u. c #B76564",
"i. c #BB6363",
"p. c #BD6B6B",
"a. c #AA7675",
"s. c #AC7B7B",
"d. c #B17575",
"f. c #BB7372",
"g. c #B37E7E",
"h. c #C05D5D",
"j. c #C1605F",
"k. c #C16463",
"l. c #C36867",
"z. c #C46C6C",
"x. c #C47373",
"c. c #C57C7C",
"v. c #C97C7B",
"b. c #C8817F",
"n. c #AE8080",
"m. c #B08282",
"M. c #BA8281",
"N. c #B38888",
"B. c #BA8989",
"V. c #AEA1AB",
"C. c #B4A6AF",
"Z. c #C68181",
"A. c #CA8484",
"S. c #CC8B8B",
"D. c #D28887",
"F. c #CF908F",
"G. c #CE9191",
"H. c #D19595",
"J. c #D59897",
"K. c #D39C9C",
"L. c #D89E9D",
"P. c #D7A09F",
"I. c #D6A3A3",
"U. c #D8A6A6",
"Y. c #D5ACAC",
"T. c #D9AAAA",
"R. c #DCB0AF",
"E. c #DEB2B2",
"W. c #DFB8B9",
"Q. c #E2BBBB",
"!. c #E0BFC0",
"~. c #E5C4C4",
"^. c #E6C8C8",
"/. c #E8CFCF",
"(. c #E6D4D6",
"). c #E6D6D8",
"_. c #E8D8DA",
/* pixels */
"C.(./.~.~.~.~.~.~.~.~.~.~.~.~.~.~.^.^.^.^.^.^.^.^.^.^.^.^./.).V.",
"(.c.Z.A.A.S.S.S.G.G.G.H.J.K.K.K.I.I.I.U.U.U.U.U.U.U.U.U.U.U.U._.",
"!.x.c.c.c.Z.A.A.S.S.S.G.G.H.H.J.K.K.K.I.I.I.I.U.U.U.U.U.U.U.U.~.",
"W.p.x.x.c.A.S.A.A.A.S.G.G.G.H.K.K.K.I.I.I.I.T.T.T.T.T.E.T.T.U.~.",
"E.p.p.x.&.8 8 y.Z.A.g 0 g.G.g.0 w.L.h q B.B.q q =.R.d a a T.U.~.",
"E.i.i.c.= X X s Z.A.0 o 1 H.a.O &.L.q O m.m.# # 9 Y.# # # T.U.Q.",
"T.9.i.t.. 0 + + A.Z.8 o o k s.o &.K.0 O s.n.O & # N.# & # T.I.Q.",
"L.6.i.s . h w X :.b.8 X 1 o *.o k H.0 O s.s.O q O g O q # T.K.Q.",
"S.2.i.* . - * . w b.7 X M.@ @ o h F.0 o a.s.O &.O , q q O I.H.E.",
"A.{ >.  . . . . + A.7 X A.$.X X h S.8 o a.a.o &.0 O h q O P.H.T.",
"A.v q   a z.x.- . -.7 . x.x.7 X g v.8 o y.y.o j g o w.0 O J.S.T.",
"v.x G O.,.2.2.#.@.5.;.%.0.0.u.>.r.z.e.>.f.f.e.f.f.t.Z.d.y.S.A.I.",
"x.l x Q { { <.<.2.2.2.2.2.2.7.8.0.0.i.k.k.l.z.z.x.x.x.v.v.v.v.L.",
"z.l l l v [ { {  .<.2.7.0.0.0.8.7.7.7.8.0.0.q.l.x.x.z.z.x.x.x.J.",
"l.l l l l c ^  .1.4.Y e 4 4 i +.0.8.7.7.7.8.0.z.i i z.l.l.z.z.H.",
"k.l l l l l z ^ i # # $ $ $ $ $ : #.7.3.3.3.8.u.; i z.h.k.k.l.D.",
"0.l l l l l B < X o # # $ $ $ $ $ $ 4.3.1.1.7.#.; +.j.8.0.h.k.A.",
"7.l l l l c u o o o o % i t & $ $ $ 5 7.<.<.7.i ; 9.7.7.7.8.0.v.",
"3.l l l z B & o o o % ] B B T o o O , ` ! ! <.> : 7.^ ^ ^ ^ ! h.",
"1.z z z z ~ o o o o r B z z B S G ^ B n z c K o 3 B z z z z z 1.",
"o.z z z n G o o o o T M n n n M M n n n b M F o p M z z z z z o.",
" .z z z M J O O O O L M n n n n n n n n n ! 5 O P M b b z z z  .",
"} b b b M J O O O O R V M M N ! ! V N M M ) : % ) n n b b b z } ",
"' b n n m [ O O # # F / N N / 6 4 F ] / V ] # 4 ! m n n n n b ' ",
") n n m m ) : # # # 3 ../ / <.$ # # # D ) U # F ! N m m n n n ) ",
"/ n m m m V U # # # # 5 W E 2 # # # #  .) r # ] V N N m m m n / ",
"/ m m N N N | 2 $ $ $ $ $ $ $ $ $ $ F _ | > ; ..N N N N N m m / ",
"Z m N N N C Z } 2 $ $ $ $ $ $ $ $ y | /  .$ 6 _ C C N N N N m Z ",
"V N N N C C C / | T 6 ; $ $ ; 6 R | / / G $ G ( C C C C N N N V ",
"! N C C C C Z Z A ( | ..X.X...| ( A Z A _ | _ A Z Z C C C N N Q ",
"I N C C Z Z Z Z Z Z A A A A A A A A A A A A Z Z Z Z Z Z C C N I ",
"f H Z Z Z A A A A A A A A A A A A A A A A A A A A A Z Z Z C H f "
};
