/* XPM */
static char *AnimStore[] = {
/* columns rows colors chars-per-pixel */
"32 32 194 2",
"   c #000000",
".  c #0D0303",
"X  c #140000",
"o  c #1C0000",
"O  c #230000",
"+  c #2B0000",
"@  c #240909",
"#  c #2A0A09",
"$  c #320000",
"%  c #3C0C0C",
"&  c #251410",
"*  c #2B1110",
"=  c #321312",
"-  c #311A17",
";  c #321D1B",
":  c #35211E",
">  c #3E221C",
",  c #372220",
"<  c #392321",
"1  c #421616",
"2  c #451E1E",
"3  c #59231F",
"4  c #462423",
"5  c #4D2726",
"6  c #4C2926",
"7  c #512421",
"8  c #5B2723",
"9  c #5B2A25",
"0  c #542A2A",
"q  c #5B2D2D",
"w  c #4E322E",
"e  c #5D312E",
"r  c #5D3635",
"t  c #623026",
"y  c #63352C",
"u  c #65382E",
"i  c #603433",
"p  c #6B3730",
"a  c #643B3B",
"s  c #6A3C3B",
"d  c #67413A",
"f  c #734544",
"g  c #744945",
"h  c #774C4A",
"j  c #7B4E4D",
"k  c #7F514F",
"l  c #7D5250",
"z  c #940500",
"x  c #960902",
"c  c #9A0D03",
"v  c #940A08",
"b  c #9E1206",
"n  c #9D140A",
"m  c #9C190F",
"M  c #9D1E16",
"N  c #A01609",
"B  c #A41B0B",
"V  c #A11E14",
"C  c #A7200F",
"Z  c #A8210F",
"A  c #A62314",
"S  c #AA2511",
"D  c #AE2B15",
"F  c #AC2C1A",
"G  c #B02F17",
"H  c #AF321D",
"J  c #B2341B",
"K  c #B43A1E",
"L  c #832E27",
"P  c #882E29",
"I  c #87352E",
"U  c #88382F",
"Y  c #8B3C32",
"T  c #A52B23",
"R  c #A82E26",
"E  c #AA3224",
"W  c #AD3927",
"Q  c #AA342A",
"!  c #AD3B2B",
"~  c #B43D21",
"^  c #AC3D34",
"/  c #A93D39",
"(  c #B23F31",
")  c #8E4135",
"_  c #8B4038",
"`  c #904335",
"'  c #A4402D",
"]  c #B5422B",
"[  c #B8462E",
"{  c #AE443B",
"}  c #B44534",
"|  c #B64B36",
" . c #BA4A37",
".. c #B1473C",
"X. c #B54A3C",
"o. c #B94E3A",
"O. c #8E4D44",
"+. c #914D45",
"@. c #955144",
"#. c #93534C",
"$. c #9C534D",
"%. c #97594F",
"&. c #815453",
"*. c #865957",
"=. c #8A5B5B",
"-. c #935A54",
";. c #9C5C56",
":. c #945F5D",
">. c #9D5C58",
",. c #A34F49",
"<. c #B34E44",
"1. c #B24F4C",
"2. c #A55143",
"3. c #B75243",
"4. c #B95444",
"5. c #B6544C",
"6. c #BB5B4B",
"7. c #A85C57",
"8. c #B45552",
"9. c #BB5E53",
"0. c #B75C5A",
"q. c #9F625E",
"w. c #A2625A",
"e. c #B56254",
"r. c #BE6254",
"t. c #BD645A",
"y. c #976666",
"u. c #976866",
"i. c #A46661",
"p. c #AE6560",
"a. c #A66A67",
"s. c #A46D6B",
"d. c #BB6562",
"f. c #B76963",
"g. c #BE6964",
"h. c #BD6A6A",
"j. c #A7706D",
"k. c #BE726F",
"l. c #A87673",
"z. c #AA7976",
"x. c #AB7C7A",
"c. c #BD7670",
"v. c #B17974",
"b. c #B97A74",
"n. c #B37F7E",
"m. c #C16758",
"M. c #C0695E",
"N. c #C16D64",
"B. c #C06E6A",
"V. c #C37066",
"C. c #C4736B",
"Z. c #C6786F",
"A. c #C27573",
"S. c #C67A74",
"D. c #C87E77",
"F. c #C57C7B",
"G. c #C87E79",
"H. c #AE817F",
"J. c #CD8376",
"K. c #C7807F",
"L. c #C9827D",
"P. c #CF8A7F",
"I. c #B08382",
"U. c #BA8481",
"Y. c #B38887",
"T. c #BA8A89",
"R. c #C68380",
"E. c #C98583",
"W. c #CB8985",
"Q. c #CC8C8A",
"!. c #CE918E",
"~. c #D29086",
"^. c #D4978E",
"/. c #CE9291",
"(. c #D19695",
"). c #D39A96",
"_. c #D39C9B",
"`. c #D6A19E",
"'. c #D8A39C",
"]. c #D6A3A3",
"[. c #D9A7A4",
"{. c #D8A8A7",
"}. c #D5ADAC",
"|. c #D9AAA9",
" X c #DCB1AF",
".X c #DDB2B1",
"XX c #E0B6B3",
"oX c #E1BCBB",
"OX c #E5C4C4",
"+X c #E6C8C8",
"@X c #EACFCF",
"#X c #EED7D7",
"$X c #EFDADA",
"%X c None",
/* pixels */
"OX#X@XOXOXOXOXOXOXOXOXOXOXOX+X+X+X+X+X+X+X+X+X+X+X+X+X+X+X@X$XoX",
"#XF.R.E.E.W.Q.Q./././.(.)._._._.].].].[.[.{.{.{.{.{.{.{.{.{.[.$X",
"OXA.F.F.F.R.E.W.W.Q.Q././.(.(.)._._._.].].].].{.{.{.{.{.{.{.{.+X",
"oXk.A.A.K.W.W.E.E.W.!./././.(._._._.].].].].|.|.|.|.|..X}.|.{.OX",
".Xh.h.A.&.5 5 s.R.W.f 0 n./.n.0 y._.j q T.T.q q =. Xs i i  X{.OX",
".Xd.d.F.= o o a R.E.0 O 2 (.z.+ &.`.q + I.I.$ $ 7 }.$ $ $  X[.oX",
"|.0.d.a.o 0 @ @ R.R.5 O O l x.O &._.0 + H.H.+ % $ Y.$ % $ |.].oX",
"`.8.d.a X j r o :.K.5 o 2 O *.O l (.0 + x.x.+ q + f $ q $ |._.oX",
"!.1.g.* X ; * X r L.4 o U.# # O j !.0 O z.x.+ &.+ 1 q q + [.).XX",
"W./ >.. X X X X @ E.4 o E.k o o h Q.5 O l.l.O &.0 + h q + `.(. X",
"E.M e . i B.A.- X -.4 X C.A.4 o f L.5 O s.s.O k g O u.0 + ).Q.|.",
"G.v P +.,.<.5.$.#.7.;.#.t.t.f.>.p.C.i.q.k.c.i.b.b.a.R.v.j.Q.W.[.",
"S.z v T { { ..<.<.5.5.5.5.5.9.9.t.t.t.N.N.N.C.C.Z.S.S.D.L.L.L.'.",
"C.z z z M ^ { { <.5.9.9.t.t.t.t.g.N.N.V.C.C.C.V.N.N.C.C.Z.S.D.).",
"N.z z z z n Q ^ 5.; ; ; ; ; ; ; ; : : , < < < w.N.M.N.N.V.C.Z.^.",
"M.z z z z z z m <.  #.O.O.O.+.#.#.#.-.w       ;.t.r.t.M.M.N.V.~.",
"t.z z z z x x x T   4.....X.X.X.<.3.9.d       %.r.6.9.r.t.t.M.P.",
"9.x x x x x x x T   ^ V T ! } 3.4.4.r.d     g e.6.6.6.6.r.r.t.J.",
"6.x x x c c c c R   9 9 9 9 8 3 8 9 e -     6 2.| } W ! ! ! E m.",
"4.c c c c c c c Q           . 7 7 .           L n c c c c c c 4.",
"o.c b b b b b b Q           _ E E _           I V b b b b c c o.",
"| b b b N N N B !           X.A A X.          U A N N N b b b | ",
"[ b N N B B B B (           p } } p           Y A B B B N N b } ",
"] N B B B B C A }             & &             Y F C B B B B N ] ",
"] B B B C S S S }             > y             ) F S S C B B B ] ",
"~ B B Z S S D D  .            y +.            ) H D S S Z C B ~ ",
"~ Z S S D D D D  .            y @.            ` J D D S S S C ~ ",
"J S S D D D D J  .            & >             ` K D D D D S S J ",
"J S D D G J J J ] t u u u u u y y u u u u u t ' K J J D D D S J ",
"J D D G J J J J ~ ] [ [ [ [ [ [ [ [ [ [ [ [ ] ~ J J J J D D D J ",
"K D G J J J J K K K K K K K K K K K K K K K K K K J J J J D D J ",
"%XJ J J K K K K K ~ ~ ~ ~ ~ ~ ~ ~ ~ ~ ~ ~ ~ ~ K K K K K J J J %X"
};
