/* XPM */
static char *AnimPaste[] = {
/* columns rows colors chars-per-pixel */
"32 32 177 2",
"   c #0F0000",
".  c #140000",
"X  c #1C0000",
"o  c #240000",
"O  c #2C0000",
"+  c #250909",
"@  c #2A0A09",
"#  c #330000",
"$  c #3C0000",
"%  c #350909",
"&  c #3C0C0C",
"*  c #2B1010",
"=  c #321312",
"-  c #361818",
";  c #420101",
":  c #480707",
">  c #410C0C",
",  c #4B0A0A",
"<  c #421616",
"1  c #491313",
"2  c #451E1E",
"3  c #551515",
"4  c #531818",
"5  c #5D1C1C",
"6  c #601717",
"7  c #631E1D",
"8  c #462323",
"9  c #4D2726",
"0  c #532222",
"q  c #542A2A",
"w  c #5B2D2D",
"e  c #5D3535",
"r  c #652222",
"t  c #6C2424",
"y  c #732928",
"u  c #7A2C2C",
"i  c #603333",
"p  c #643B3B",
"a  c #6A3B3B",
"s  c #763545",
"d  c #734545",
"f  c #7B4D4C",
"g  c #7E504F",
"h  c #7D5151",
"j  c #950101",
"k  c #9B0404",
"l  c #940808",
"z  c #9C0C0C",
"x  c #9D1818",
"c  c #A00707",
"v  c #A40B0B",
"b  c #A90E0E",
"n  c #A31514",
"m  c #AC1313",
"M  c #A41817",
"N  c #A61B1B",
"B  c #AE1E1E",
"V  c #B11616",
"C  c #B41A1A",
"Z  c #B91D1D",
"A  c #AA201F",
"S  c #8D2727",
"D  c #822D2C",
"F  c #892C2C",
"G  c #9B262F",
"H  c #922C2B",
"J  c #9D2C2C",
"K  c #992931",
"L  c #803737",
"P  c #803837",
"I  c #843C3B",
"U  c #923131",
"Y  c #9C3130",
"T  c #963C3B",
"R  c #A62223",
"E  c #AB2323",
"W  c #A92827",
"Q  c #AC2E2D",
"!  c #B22524",
"~  c #B92525",
"^  c #B22B2A",
"/  c #BA2C2C",
"(  c #B4302F",
")  c #A43535",
"_  c #AE3433",
"`  c #AE3B3B",
"'  c #B53433",
"]  c #BB3434",
"[  c #BA3837",
"{  c #B43C3B",
"}  c #BD3939",
"|  c #85403F",
" . c #B9413F",
".. c #874140",
"X. c #894242",
"o. c #904746",
"O. c #9D4645",
"+. c #944F4E",
"@. c #9B4F4F",
"#. c #80504F",
"$. c #96504F",
"%. c #815353",
"&. c #865858",
"*. c #8A5B5B",
"=. c #905656",
"-. c #9F5655",
";. c #945E5E",
":. c #9D5B5A",
">. c #A34B4A",
",. c #AB4E4D",
"<. c #B34342",
"1. c #BA4746",
"2. c #B54C4C",
"3. c #B94D4C",
"4. c #B8504F",
"5. c #A25656",
"6. c #A85857",
"7. c #B55352",
"8. c #BB5453",
"9. c #BE5857",
"0. c #B75A5A",
"q. c #BD5B5A",
"w. c #976766",
"e. c #A46362",
"r. c #AE6261",
"t. c #A76867",
"y. c #A46B6B",
"u. c #B76564",
"i. c #BB6363",
"p. c #BD6B6B",
"a. c #AA7675",
"s. c #AC7B7B",
"d. c #B17575",
"f. c #BB7372",
"g. c #B37E7E",
"h. c #C1504F",
"j. c #C05D5C",
"k. c #C16464",
"l. c #C36867",
"z. c #C36C6B",
"x. c #C47373",
"c. c #C57C7C",
"v. c #C97C7B",
"b. c #C8817F",
"n. c #AE8080",
"m. c #B08282",
"M. c #BA8281",
"N. c #B38888",
"B. c #BA8989",
"V. c #AEA1AB",
"C. c #B4A6AF",
"Z. c #C68181",
"A. c #CA8484",
"S. c #CC8B8B",
"D. c #D28887",
"F. c #CF908F",
"G. c #CE9191",
"H. c #D19595",
"J. c #D59897",
"K. c #D39C9C",
"L. c #D89E9D",
"P. c #D7A09F",
"I. c #D6A3A3",
"U. c #D8A6A6",
"Y. c #D5ACAC",
"T. c #D9AAAA",
"R. c #DCB0AF",
"E. c #DEB2B2",
"W. c #DFB8B9",
"Q. c #E2BBBB",
"!. c #E0BFC0",
"~. c #E5C4C4",
"^. c #E6C8C8",
"/. c #E8CFCF",
"(. c #E6D4D6",
"). c #E6D6D8",
"_. c #E8D8DA",
/* pixels */
"C.(./.~.~.~.~.~.~.~.~.~.~.~.~.~.~.^.^.^.^.^.^.^.^.^.^.^.^./.).V.",
"(.c.Z.A.A.S.S.S.G.G.G.H.J.K.K.K.I.I.I.U.U.U.U.U.U.U.U.U.U.U.U._.",
"!.x.c.c.c.Z.A.A.S.S.S.G.G.H.H.J.K.K.K.I.I.I.I.U.U.U.U.U.U.U.U.~.",
"W.p.x.x.c.A.S.A.A.A.S.G.G.G.H.K.K.K.I.I.I.I.T.T.T.T.T.E.T.T.U.~.",
"E.p.p.x.%.9 9 y.Z.A.d q g.G.g.q w.L.f w B.B.w w *.R.a i i T.U.~.",
"E.i.i.c.= X X p Z.A.q o 2 H.a.O %.L.w O m.m.# # 0 Y.# # # T.U.Q.",
"T.0.i.t.X q + + A.Z.9 o o h s.o %.K.q O s.n.O & # N.# & # T.I.Q.",
"L.7.i.p . f e X ;.b.9 X 2 o &.o h H.q O s.s.O w O d O w # T.K.Q.",
"S.2.p.* . - * . e b.8 X M.@ @ o f F.q o a.s.O %.O < w w O I.H.E.",
"A.` :.  . . . . + A.8 X A.#.X X f S.9 o a.a.o %.q O f w O P.H.T.",
"A.x w   i z.x.- . =.8 . x.x.8 X d v.9 o y.y.o g d o w.q O J.S.T.",
"v.l F o.>.2.2.@.+.6.-.$.q.q.u.:.r.z.e.:.f.f.e.f.f.t.Z.d.y.S.A.I.",
"x.j l R ` ` <.<.2.2.2.2.2.2.8.9.q.q.i.k.k.l.z.z.x.x.x.v.v.v.v.L.",
"z.j j j x _ ` ` { <.4.8.2.3.8.q.q.q.k.k.k.l.l.k.k.l.z.z.x.x.x.J.",
"l.j j j j z Q _ ` 2.r r 8.O.I I I | ..X.X.X.5.z.l.k.k.l.z.z.z.H.",
"k.j j j j j j z Q ,.# r 9.L $ $ $ $ $ ; ; ; ; , @.k.q.j.k.k.l.D.",
"q.j j j j j j j z D # I 8.P $ $ $ $ $ $ $ ; ; ; ; i.q.9.q.j.k.A.",
"8.j j j j j j j M 5 o H W u # $ $ $ 7 7 : $ ; ; ; P j.8.8.9.q.v.",
"3.j j j k k k k R % @ W M t o o o O 3.{ 7.& # $ $ 5 <.Q Q Q E j.",
"1.k k k k k k z J o 4 N M t o o o o _ n _ > o o o 1 N k k k k 1.",
" .k k k k k k n D o u M N y O O O O T U y O o o o 5 N k k k k  .",
"{ k k k c c v A 7 O Y n B y O O O O O O O O O O O H n c k k k { ",
"' c c c v v v ^ > % ' m E u O O O O O O O O O O 7 E v v c c k ' ",
"( c v v v b m ) # 5 ^ m ! u # # # # # # # # 3 F ^ m b v v v c ( ",
"^ v v v b b B F # D ! m ! u # # # # h.[ [ ' ^ B m m b b v v v ^ ",
"! v b b b m ! r # ) C m ! u # # # # [ m m m m m m m m b b b v ! ",
"! b b m m m ' , : [ C V ^ D $ $ $ $ } C V V V V m m m m m b b ! ",
"C b m m m C ` $ 7 / C C / D $ $ $ $ } C C C C V V V m m m m b C ",
"B m m m V C S $ F ~ C C ~ H 6 6 6 6 / C C C C C C V V V m m m B ",
"E m V V V C ~ ] / Z C C Z ~ ] ] ] / ~ C C C C C C C V V V m m R ",
"K m V V C C C C C C Z Z Z Z Z Z Z Z Z Z Z Z C C C C C C V V m K ",
"s G C C C Z Z Z Z Z Z Z Z Z Z Z Z Z Z Z Z Z Z Z Z Z Z C C C G s "
};
