/* XPM */
static char *Arc[] = {
/* columns rows colors chars-per-pixel */
"32 32 200 2",
"   c #3C1E00",
".  c #3B2400",
"X  c #3D2A00",
"o  c #412300",
"O  c #422800",
"+  c #482C07",
"@  c #442F08",
"#  c #4A2F08",
"$  c #463108",
"%  c #4A360A",
"&  c #50380F",
"*  c #4F3B10",
"=  c #5C3F16",
"-  c #524012",
";  c #5A4317",
":  c #5C4A1A",
">  c #614919",
",  c #694D1E",
"<  c #665422",
"1  c #6A5321",
"2  c #695925",
"3  c #6F5C28",
"4  c #74652F",
"5  c #7C652F",
"6  c #7D6932",
"7  c #7D6F38",
"8  c #85682A",
"9  c #836931",
"0  c #847036",
"q  c #867539",
"w  c #8A763A",
"e  c #89783D",
"r  c #967C3D",
"t  c #C74F18",
"y  c #C84E18",
"u  c #BA9C3E",
"i  c #EC9D0D",
"p  c #E28412",
"a  c #ED8B16",
"s  c #ED9212",
"d  c #ED9D11",
"f  c #D5AC04",
"g  c #DCAA04",
"h  c #DEAD09",
"j  c #D3B10E",
"k  c #DAB214",
"l  c #E5A605",
"z  c #EBA406",
"x  c #E3A904",
"c  c #EBAA05",
"v  c #EDA10A",
"b  c #E7AF0B",
"n  c #F0A607",
"m  c #F3AB06",
"M  c #F8AD07",
"N  c #F2A50C",
"B  c #F6AA0C",
"V  c #F8AD0C",
"C  c #EEB009",
"Z  c #FAB307",
"A  c #F4B10B",
"S  c #FAB30A",
"D  c #FBBB0A",
"F  c #EFA212",
"G  c #EAAD15",
"H  c #EEA719",
"J  c #EEAB1C",
"K  c #F2A411",
"L  c #F6A810",
"P  c #E4B41E",
"I  c #EDB11A",
"U  c #F5B313",
"Y  c #F8B315",
"T  c #FBBC10",
"R  c #F4B41C",
"E  c #F2B81F",
"W  c #D6BB27",
"Q  c #DDB72A",
"!  c #DDBA2B",
"~  c #C3A43A",
"^  c #CDAE3F",
"/  c #DDBB32",
"(  c #DFBE38",
")  c #EFAD26",
"_  c #E3B625",
"`  c #EEB624",
"'  c #EBB826",
"]  c #E2B729",
"[  c #EFB02C",
"{  c #E5B92C",
"}  c #ECB92C",
"|  c #F3B622",
" . c #F3B823",
".. c #F4BA2B",
"X. c #EFB532",
"o. c #E4BB33",
"O. c #EDBB34",
"+. c #E3BD3B",
"@. c #ECBD3B",
"#. c #F1BB32",
"$. c #F1B73A",
"%. c #F0BC38",
"&. c #FCC20D",
"*. c #FECD0E",
"=. c #FFD50C",
"-. c #FCC310",
";. c #FECA10",
":. c #FFD510",
">. c #DCC036",
",. c #D7C13D",
"<. c #DAC13C",
"1. c #E0C03C",
"2. c #928346",
"3. c #988746",
"4. c #978843",
"5. c #BC9F43",
"6. c #B2984C",
"7. c #A99552",
"8. c #A79857",
"9. c #AF9C51",
"0. c #BDA24A",
"q. c #B0A156",
"w. c #BFA454",
"e. c #B7A857",
"r. c #B3A35C",
"t. c #BEA95D",
"y. c #B3A461",
"u. c #BCAD65",
"i. c #BDAE6A",
"p. c #C4A741",
"a. c #C6A947",
"s. c #C4AC4F",
"d. c #CFB248",
"f. c #D9BB48",
"g. c #CAAD55",
"h. c #CBAF58",
"j. c #C2B05A",
"k. c #DBBD50",
"l. c #E3BF42",
"z. c #EABE42",
"x. c #F1BC41",
"c. c #F1BD48",
"v. c #C0AC64",
"b. c #C7B360",
"n. c #D9C344",
"m. c #D7C54A",
"M. c #D9C64D",
"N. c #D9C751",
"B. c #DAC854",
"V. c #DBCB5B",
"C. c #E4C145",
"Z. c #E9C044",
"A. c #E6C14C",
"S. c #E8C14B",
"D. c #E6C753",
"F. c #E5C95C",
"G. c #F1C253",
"H. c #DDC367",
"J. c #DCCD63",
"K. c #DECF6A",
"L. c #DDD067",
"P. c #DED16D",
"I. c #DDCA72",
"U. c #D3C379",
"Y. c #DFD272",
"T. c #E3CE64",
"R. c #E8CB60",
"E. c #E1CF6A",
"W. c #EFCC6F",
"Q. c #F1C760",
"!. c #F2CA67",
"~. c #E2D06D",
"^. c #F4CB70",
"/. c #E2D273",
"(. c #EED174",
"). c #E4D57B",
"_. c #ECD27C",
"`. c #F5D27C",
"'. c #BEBA9A",
"]. c #C2BF9F",
"[. c #EDD782",
"{. c #EBD887",
"}. c #E7D989",
"|. c #F4D488",
" X c #F4D98D",
".X c #EDDB90",
"XX c #ECDF9B",
"oX c #F2DA95",
"OX c #F3E09B",
"+X c #EEE0A5",
"@X c #EEE3AC",
"#X c #F2E1A3",
"$X c #F0E4AB",
"%X c #EEE5B3",
"&X c #EEE7B9",
"*X c #EEE8BF",
"=X c #F1E5B2",
"-X c #F0EBBD",
";X c #F1EEC9",
":X c #EEECD3",
/* pixels */
"].:X;X-X-X-X-X-X-X-X-X-X-X-X-X-X-X-X-X-X-X-X-X-X-X-X-X-X-X;X:X'.",
":XV.V.V.V.J.J.J.J.J.L.L.L.P.P.P.P.P.Y.Y.Y.Y.Y.Y.Y.Y.Y.Y.Y.Y.Y.:X",
"&XB.B.B.V.V.V.V.V.J.J.J.J.J.K.K.K.K.P.P.P.P.P.Y.Y.Y.Y.Y.Y.Y.Y.*X",
"%XM.N.N.B.B.V.J.K.K.J.J.J.K.Y./././.Y.P.K./.).).)./.Y.Y.Y.Y.Y.&X",
"@Xm.M.M.M.N.V.4.< < e.J.K.q < < < 2 2././.u.7 2 4 y.)././.Y.Y.%X",
"@Xn.n.m.M.M.T.* . . 6 T.E.< X : < % X 8.y.X % 2 X X r./.~.~./.=X",
"+Xn.n.n.n.M.j.. 3 @ $ ~.E.< . u.}.6 X 2.- X i.).r.e q./.~.~.~.=X",
"XX,.,.n.n.B.0 . 3.5 . 9.E.< . . . X $ U.X X ).E.~././.E.E.E.E.$X",
".X<.<.<.<.V.% . ; & . 5 ~.1 . 6 $ . 7.).$ X I.~.t.w b.T.T.T.T.#X",
"{.W / >.<.s.      . . + /., . t.t.. # I.9 o 9 v.> O r T.F.T.T.#X",
"[.j / / <.8   9 F.R.=   6.,   0.F.5 o r H.1 o o o 1 H.F.F.F.F.OX",
"_.f k ! / ~ u ^ ( 1.p.5.d.a.5.f.C.k.0.5.D.F.g.w.h.R.D.D.D.D.F.oX",
"(.f f k Q / / o./ o.o.+.+.+.+.+.+.l.l.C.C.l.S.A.A.A.A.A.A.D.D. X",
"W.f f f k ] ] ] ] { { { o.o.o.o.o.o.+.@.@.@.@.Z.Z.z.Z.S.S.A.A.|.",
"!.g g g g h P _ ' ' ' } } } } } O.O.O.O.O.@.@.@.@.@.z.z.Z.Z.Z.`.",
"Q.g g g g x x b I ` ` ` ` ` } } } } } } #.#.#.%.%.@.@.@.@.z.z.`.",
"G.x x x x x c c c C U E |  . . . . .............#.#.O.O.O.@.@.^.",
"G.x l l c c c c m m m m A U R |  . .|  . .............#.O.O.O.!.",
"c.l l z c c m m m m M M M M m m m m A U Y Y Y R R | R I I J G G.",
"x.z z z z n m m M M M Z D Z M M M M m M M D Z M m m c z z z z x.",
"$.z z z n m m B M M *.=.=.=.*.D S M M M S =.&.M B m n z z z z $.",
"X.z z n n n B B V &.=.*.&.*.:.:.:.&.S V D =.D B B n n v v z z X.",
"[ v v n n N B B V *.*.V V V S &.:.:.:.:.:.*.V B B N N v v v v [ ",
") i v N N N B B V ;.-.V B B B V V T -.;.-.V B B N N N v v v i ) ",
"J v v v N N N B V V B B B B B B V V V V B B B B N N N v v v v J ",
"H i i v N N N N B B L L L L L L L L L L L L N N N N v v i i i H ",
"H i i v N N N N L L L L K K K K L L L L L L K K N N v v i i i H ",
"F i i i v N N K K K K K K K K K K K K K K K K K K v i i i i i F ",
"d i i i i F K K K K K K K F F K K K K K K K K F F d d i i i i d ",
"d i i i d d d d F F F d d d d d d F F F F d d d d d d d i i i d ",
"p i i d d d d d d d d d d d d d d d d d d d d d d d d d d i i p ",
"y p d d s a a a a a a a a a a a a a a a a a a a a a s d d d p t "
};
