/* XPM */
static char * aTan_xpm[] = {
"32 32 665 2",
"  	c None",
". 	c #6A6859",
"+ 	c #C0BCA4",
"@ 	c #E0D9B7",
"# 	c #E4DCB2",
"$ 	c #E4DCB3",
"% 	c #E5DDB4",
"& 	c #E5DDB6",
"* 	c #E5DFB7",
"= 	c #E6DFB8",
"- 	c #E6E0B8",
"; 	c #E6E0B9",
"> 	c #E1D9B9",
", 	c #BDBAA3",
"' 	c #686557",
") 	c #C7C3AA",
"! 	c #D4C783",
"~ 	c #D5C985",
"{ 	c #D6CA87",
"] 	c #D7CB8A",
"^ 	c #D7CC8C",
"/ 	c #D8CD8F",
"( 	c #D9CE91",
"_ 	c #DACF94",
": 	c #DBD096",
"< 	c #DBD198",
"[ 	c #DCD29A",
"} 	c #DDD39C",
"| 	c #DED49F",
"1 	c #DFD5A1",
"2 	c #DFD6A3",
"3 	c #E0D7A5",
"4 	c #E0D7A6",
"5 	c #E1D8A8",
"6 	c #E1D9A9",
"7 	c #E2D9AA",
"8 	c #E2D9AB",
"9 	c #E1D8A9",
"0 	c #C2BDA8",
"a 	c #D5CEA4",
"b 	c #D2C47C",
"c 	c #D3C57E",
"d 	c #D3C580",
"e 	c #D5C885",
"f 	c #D6C987",
"g 	c #D7CA8A",
"h 	c #D8CB8C",
"i 	c #D9CC8F",
"j 	c #D9CD91",
"k 	c #DBCF96",
"l 	c #DCD098",
"m 	c #DCD19A",
"n 	c #DDD29C",
"o 	c #DED39E",
"p 	c #E0D5A3",
"q 	c #E0D6A4",
"r 	c #E1D7A6",
"s 	c #E1D7A7",
"t 	c #E2D8A9",
"u 	c #E2D8AA",
"v 	c #D4CCA8",
"w 	c #DBD2A2",
"x 	c #CFC074",
"y 	c #D0C277",
"z 	c #D1C37A",
"A 	c #D3C57F",
"B 	c #D4C682",
"C 	c #D5C783",
"D 	c #D6C986",
"E 	c #DACE93",
"F 	c #DCD198",
"G 	c #DED39D",
"H 	c #DFD4A0",
"I 	c #DED4A0",
"J 	c #DDD29D",
"K 	c #DFD5A2",
"L 	c #E0D6A5",
"M 	c #DED6AF",
"N 	c #CDBD6D",
"O 	c #CEBF70",
"P 	c #CFBF72",
"Q 	c #D1C175",
"R 	c #D2C278",
"S 	c #D3C37B",
"T 	c #D3C47D",
"U 	c #D4C580",
"V 	c #D8CA8A",
"W 	c #7F7245",
"X 	c #60542A",
"Y 	c #61542B",
"Z 	c #62552B",
"` 	c #63562C",
" .	c #63572C",
"..	c #83784A",
"+.	c #DED29C",
"@.	c #DDD098",
"#.	c #DDD19A",
"$.	c #DFD39E",
"%.	c #DFD49F",
"&.	c #E0D5A1",
"*.	c #E1D5A3",
"=.	c #E1D6A4",
"-.	c #E5DCB3",
";.	c #DED29D",
">.	c #CCBA67",
",.	c #CDBC69",
"'.	c #CDBC6B",
").	c #CFBF71",
"!.	c #D2C37A",
"~.	c #D5C681",
"{.	c #D7C987",
"].	c #7D6F43",
"^.	c #5F5129",
"/.	c #4A3B15",
"(.	c #342600",
"_.	c #4B3D15",
":.	c #61552B",
"<.	c #827648",
"[.	c #DED29B",
"}.	c #E2D7A6",
"|.	c #E2D7A7",
"1.	c #E3D9AA",
"2.	c #E3D8A9",
"3.	c #E4DBAF",
"4.	c #DCCE94",
"5.	c #C9B760",
"6.	c #CAB963",
"7.	c #D0C175",
"8.	c #827346",
"9.	c #584826",
"0.	c #594926",
"a.	c #85764A",
"b.	c #CCBE7F",
"c.	c #D6C784",
"d.	c #D9CD8F",
"e.	c #897B51",
"f.	c #322300",
"g.	c #8A7D53",
"h.	c #DDD197",
"i.	c #DBCF93",
"j.	c #BFB380",
"k.	c #6D6136",
"l.	c #62562C",
"m.	c #6E6237",
"n.	c #B8AC7D",
"o.	c #867A4D",
"p.	c #665B2E",
"q.	c #B2A87E",
"r.	c #685D2F",
"s.	c #887E50",
"t.	c #E3D9A9",
"u.	c #E3DAAC",
"v.	c #D7C886",
"w.	c #C7B459",
"x.	c #C8B65C",
"y.	c #9D8C52",
"z.	c #402E12",
"A.	c #4C3A1B",
"B.	c #574625",
"C.	c #2C1A00",
"D.	c #8E7F50",
"E.	c #D4C47D",
"F.	c #88794F",
"G.	c #312000",
"H.	c #897B50",
"I.	c #D8C987",
"J.	c #D9CA89",
"K.	c #6B5C33",
"L.	c #352600",
"M.	c #82754B",
"N.	c #372800",
"O.	c #43350B",
"P.	c #E3D7A6",
"Q.	c #65582C",
"R.	c #3A2D00",
"S.	c #514317",
"T.	c #3B2E00",
"U.	c #3C3000",
"V.	c #C4BA8D",
"W.	c #E0D4A0",
"X.	c #D1BF73",
"Y.	c #C6B252",
"Z.	c #C7B356",
"`.	c #CAB75F",
" +	c #C8B770",
".+	c #8B7B4D",
"++	c #604E2C",
"@+	c #342109",
"#+	c #2A1700",
"$+	c #837449",
"%+	c #D1C172",
"&+	c #D2C275",
"*+	c #86774C",
"=+	c #2F1D00",
"-+	c #87784D",
";+	c #D5C781",
">+	c #D7C985",
",+	c #B4A777",
"'+	c #7F7148",
")+	c #55461F",
"!+	c #362700",
"~+	c #E2D7A5",
"{+	c #382A00",
"]+	c #BAAF82",
"^+	c #65582D",
"/+	c #3B2D00",
"(+	c #BAAF81",
"_+	c #DFD29C",
":+	c #E1D5A1",
"<+	c #CDBB68",
"[+	c #BDA639",
"}+	c #C5B04E",
"|+	c #CAB75D",
"1+	c #5D4928",
"2+	c #261100",
"3+	c #806E44",
"4+	c #76643C",
"5+	c #291400",
"6+	c #827147",
"7+	c #D1BE6E",
"8+	c #D1BF70",
"9+	c #847449",
"0+	c #2D1A00",
"a+	c #86764B",
"b+	c #D5C57B",
"c+	c #B9A96E",
"d+	c #311F00",
"e+	c #483614",
"f+	c #C0B281",
"g+	c #342300",
"h+	c #61532A",
"i+	c #372700",
"j+	c #B9AD7F",
"k+	c #64552B",
"l+	c #392A00",
"m+	c #B8AD7E",
"n+	c #DDCF96",
"o+	c #CDB861",
"p+	c #B19413",
"q+	c #C3AC48",
"r+	c #C9B356",
"s+	c #705C35",
"t+	c #240D00",
"u+	c #250F00",
"v+	c #483319",
"w+	c #271100",
"x+	c #7F6C40",
"y+	c #CDB966",
"z+	c #CEBA67",
"A+	c #816E43",
"B+	c #2B1600",
"C+	c #837045",
"D+	c #D2C073",
"E+	c #C1B06F",
"F+	c #3A2609",
"G+	c #2F1C00",
"H+	c #3B280A",
"I+	c #473614",
"J+	c #322000",
"K+	c #DED096",
"L+	c #604F29",
"M+	c #352300",
"N+	c #B7A979",
"O+	c #62532A",
"P+	c #372600",
"Q+	c #B6A876",
"R+	c #DCCD8F",
"S+	c #DED095",
"T+	c #C9B55B",
"U+	c #AD8F07",
"V+	c #B69B22",
"W+	c #C5AD49",
"X+	c #C9B458",
"Y+	c #A48F4F",
"Z+	c #B09C58",
"`+	c #C5B164",
" @	c #A59252",
".@	c #AE9A53",
"+@	c #CBB459",
"@@	c #CBB55B",
"#@	c #BCA75D",
"$@	c #A99558",
"%@	c #BCA961",
"&@	c #CFBA66",
"*@	c #D1BD6C",
"=@	c #C1AE6C",
"-@	c #AE9C63",
";@	c #CEBC7C",
">@	c #BAA96E",
",@	c #B09D64",
"'@	c #CEBB79",
")@	c #BBAA6F",
"!@	c #B3A16A",
"~@	c #D1BF82",
"{@	c #BDAC76",
"]@	c #B3A470",
"^@	c #D1C184",
"/@	c #D9C988",
"(@	c #DAC989",
"_@	c #DBCC8E",
":@	c #C9B155",
"<@	c #AE8F06",
"[@	c #B99C25",
"}@	c #C4AA44",
"|@	c #C5AC48",
"1@	c #C6AC4A",
"2@	c #C7AD4C",
"3@	c #C8AE4F",
"4@	c #C8AF50",
"5@	c #C9AF51",
"6@	c #CBB256",
"7@	c #CBB35A",
"8@	c #CCB45B",
"9@	c #CDB55E",
"0@	c #CFB763",
"a@	c #D0B966",
"b@	c #D1B968",
"c@	c #D2BC6B",
"d@	c #D2BC6D",
"e@	c #D3BD6F",
"f@	c #D4BF72",
"g@	c #D5C076",
"h@	c #D5C077",
"i@	c #D6C27A",
"j@	c #D7C57E",
"k@	c #D8C57F",
"l@	c #D9C681",
"m@	c #DBC886",
"n@	c #C5AD51",
"o@	c #AF8E06",
"p@	c #B89920",
"q@	c #C4A73D",
"r@	c #C4A840",
"s@	c #C5A942",
"t@	c #C6AA44",
"u@	c #C6AB46",
"v@	c #C7AC48",
"w@	c #C8AD49",
"x@	c #C9AE4C",
"y@	c #C9AF4E",
"z@	c #CAB050",
"A@	c #CBB153",
"B@	c #CCB255",
"C@	c #CDB358",
"D@	c #CEB45B",
"E@	c #CEB55D",
"F@	c #CFB760",
"G@	c #D0B762",
"H@	c #D1B965",
"I@	c #D2BA67",
"J@	c #D3BB6A",
"K@	c #D3BC6D",
"L@	c #D4BD70",
"M@	c #D5BF73",
"N@	c #D6C076",
"O@	c #D6C178",
"P@	c #D6C27B",
"Q@	c #D7C67E",
"R@	c #C4AA4C",
"S@	c #B08E06",
"T@	c #B59411",
"U@	c #C1A334",
"V@	c #C5A83F",
"W@	c #C6A941",
"X@	c #C6AA43",
"Y@	c #C7AA45",
"Z@	c #C8AB47",
"`@	c #C8AC49",
" #	c #C9AD4A",
".#	c #CAAE4D",
"+#	c #CBAF4F",
"@#	c #CBB051",
"##	c #CCB154",
"$#	c #CDB256",
"%#	c #CEB459",
"&#	c #CFB55C",
"*#	c #D0B65E",
"=#	c #D1B761",
"-#	c #D2B864",
";#	c #D2BA68",
">#	c #D3BC6B",
",#	c #D4BD6E",
"'#	c #D5BE70",
")#	c #D5BF74",
"!#	c #D6BF75",
"~#	c #C2A647",
"{#	c #B18E06",
"]#	c #B18D06",
"^#	c #B28D06",
"/#	c #B89517",
"(#	c #C2A131",
"_#	c #C5A63C",
":#	c #C6A63E",
"<#	c #C6A740",
"[#	c #C7A842",
"}#	c #C8A944",
"|#	c #C8AA46",
"1#	c #C9AB48",
"2#	c #CAAC49",
"3#	c #CAAC4B",
"4#	c #CBAE4E",
"5#	c #CCAF50",
"6#	c #CDB053",
"7#	c #CEB155",
"8#	c #CFB258",
"9#	c #CFB35A",
"0#	c #D0B45D",
"a#	c #D1B55F",
"b#	c #D1B662",
"c#	c #D2B865",
"d#	c #D3BA66",
"e#	c #D4BB69",
"f#	c #D4BC6C",
"g#	c #C3A243",
"h#	c #B38D06",
"i#	c #B38D07",
"j#	c #B99416",
"k#	c #C19F2D",
"l#	c #C6A63C",
"m#	c #C6A63D",
"n#	c #C7A73F",
"o#	c #C8A841",
"p#	c #C8A942",
"q#	c #C9A944",
"r#	c #CAAA46",
"s#	c #CAAB48",
"t#	c #CBAC4A",
"u#	c #CCAD4C",
"v#	c #CDAE4F",
"w#	c #CDAF51",
"x#	c #CEB054",
"y#	c #CFB156",
"z#	c #D0B359",
"A#	c #D0B35A",
"B#	c #D1B55D",
"C#	c #D2B660",
"D#	c #D2B763",
"E#	c #D1B763",
"F#	c #C09E3F",
"G#	c #B38E07",
"H#	c #B48D07",
"I#	c #B58D08",
"J#	c #B68F0B",
"K#	c #BB9517",
"L#	c #C09C26",
"M#	c #C5A132",
"N#	c #C8A63D",
"O#	c #C9A73F",
"P#	c #CAA841",
"Q#	c #CAA842",
"R#	c #CBAA45",
"S#	c #CCAA47",
"T#	c #CCAB49",
"U#	c #CDAC4B",
"V#	c #CEAD4D",
"W#	c #CFAE50",
"X#	c #CFAF52",
"Y#	c #CFB154",
"Z#	c #CFB257",
"`#	c #D0B45A",
" $	c #D1B45B",
".$	c #D1B55E",
"+$	c #CEB359",
"@$	c #C09B39",
"#$	c #B58D09",
"$$	c #B68D09",
"%$	c #B68E09",
"&$	c #B78E0A",
"*$	c #B78F0B",
"=$	c #BA9312",
"-$	c #BC9517",
";$	c #BF991F",
">$	c #C29D28",
",$	c #C49F2C",
"'$	c #C49F2E",
")$	c #C9A63D",
"!$	c #C9A63E",
"~$	c #C5A233",
"{$	c #C5A234",
"]$	c #C6A336",
"^$	c #C5A344",
"/$	c #BD9735",
"($	c #B78D0A",
"_$	c #B88E0B",
":$	c #B98E0C",
"<$	c #B98F0D",
"[$	c #B98F0E",
"}$	c #BA900E",
"|$	c #BA900F",
"1$	c #BA9010",
"2$	c #BA9110",
"3$	c #B78E0B",
"4$	c #BC9735",
"5$	c #BC9331",
"6$	c #BA8F0C",
"7$	c #BA8F0E",
"8$	c #BB900E",
"9$	c #BB900F",
"0$	c #BB9110",
"a$	c #BC9111",
"b$	c #BC9212",
"c$	c #BD9313",
"d$	c #BD9414",
"e$	c #BE9414",
"f$	c #BE9415",
"g$	c #B98F0C",
"h$	c #B88E0C",
"i$	c #BB9431",
"j$	c #BB922D",
"k$	c #BB8F0E",
"l$	c #BC8F0F",
"m$	c #BC9010",
"n$	c #BD9011",
"o$	c #BF9212",
"p$	c #BF9213",
"q$	c #C09315",
"r$	c #C19416",
"s$	c #C19417",
"t$	c #C29518",
"u$	c #C29519",
"v$	c #C2961A",
"w$	c #C2961B",
"x$	c #BE9213",
"y$	c #BE9212",
"z$	c #BC9110",
"A$	c #BB922E",
"B$	c #BB8D2A",
"C$	c #BD9010",
"D$	c #BE9011",
"E$	c #C09314",
"F$	c #C19316",
"G$	c #C29317",
"H$	c #C39419",
"I$	c #C3951B",
"J$	c #C4961D",
"K$	c #C4961E",
"L$	c #C5971F",
"M$	c #C59720",
"N$	c #C59821",
"O$	c #BF9314",
"P$	c #BA8E2A",
"Q$	c #BB8B26",
"R$	c #BF9012",
"S$	c #C09113",
"T$	c #C29215",
"U$	c #C39317",
"V$	c #C49419",
"W$	c #C5951B",
"X$	c #C5961D",
"Y$	c #C6971F",
"Z$	c #C79820",
"`$	c #C79922",
" %	c #C89924",
".%	c #C89A25",
"+%	c #C19215",
"@%	c #C09213",
"#%	c #BE9112",
"$%	c #B98B27",
"%%	c #BA8A23",
"&%	c #C19214",
"*%	c #C49316",
"=%	c #C49418",
"-%	c #C5951A",
";%	c #C6961B",
">%	c #C7971E",
",%	c #C89820",
"'%	c #C99922",
")%	c #C99A24",
"!%	c #CA9B26",
"~%	c #CA9B27",
"{%	c #CA9C28",
"]%	c #CB9C28",
"^%	c #C6961C",
"/%	c #C39418",
"(%	c #C39316",
"_%	c #C09214",
":%	c #B98B23",
"<%	c #B98720",
"[%	c #C69319",
"}%	c #C7941B",
"|%	c #C8961C",
"1%	c #C9971F",
"2%	c #C99821",
"3%	c #CA9924",
"4%	c #CB9A26",
"5%	c #CB9B28",
"6%	c #CC9B29",
"7%	c #CC9C2B",
"8%	c #CD9C2B",
"9%	c #CD9C2C",
"0%	c #C6941B",
"a%	c #C59419",
"b%	c #B78721",
"c%	c #BA831E",
"d%	c #C8951B",
"e%	c #C9961D",
"f%	c #CA971F",
"g%	c #CB9822",
"h%	c #CC9924",
"i%	c #CC9A27",
"j%	c #CC9B28",
"k%	c #CD9C2A",
"l%	c #CD9D2B",
"m%	c #CD9D2C",
"n%	c #CE9D2D",
"o%	c #CE9E2E",
"p%	c #CA9720",
"q%	c #C8961D",
"r%	c #C7951B",
"s%	c #B8841F",
"t%	c #B8821B",
"u%	c #CA961D",
"v%	c #CA961F",
"w%	c #CB9823",
"x%	c #CC9A26",
"y%	c #CE9C2C",
"z%	c #CE9E2F",
"A%	c #CF9E2F",
"B%	c #CC9925",
"C%	c #B7831B",
"D%	c #AC7719",
"E%	c #CA951D",
"F%	c #CC9825",
"G%	c #CC9927",
"H%	c #CD9A29",
"I%	c #CD9B2B",
"J%	c #CE9C2D",
"K%	c #CE9D2E",
"L%	c #CF9D30",
"M%	c #CF9E30",
"N%	c #CF9E31",
"O%	c #CA9820",
"P%	c #AD7719",
"Q%	c #A36D17",
"R%	c #CC9928",
"S%	c #CE9B2B",
"T%	c #CF9D2E",
"U%	c #CF9F32",
"V%	c #CE9B2C",
"W%	c #CD9A2A",
"X%	c #9D6A17",
"Y%	c #814D14",
"Z%	c #CD9B29",
"`%	c #CF9D2F",
" &	c #CF9F33",
".&	c #CD9B2A",
"+&	c #CB9923",
"@&	c #7E4B14",
"#&	c #69452D",
"$&	c #824C14",
"%&	c #BD7F1B",
"&&	c #BF801E",
"*&	c #C0801E",
"=&	c #C0831F",
"-&	c #C18320",
";&	c #C18421",
">&	c #C28421",
",&	c #C28622",
"'&	c #C28623",
")&	c #C28723",
"!&	c #C0841F",
"~&	c #BF811E",
"{&	c #BD801E",
"]&	c #BB801B",
"^&	c #68462E",
". + @ # # $ % % % & & & * * = - - ; ; ; ; ; ; ; ; ; ; ; ; > , ' ",
") ! ~ { ] ^ / ( _ : < [ } | | 1 2 3 4 5 6 7 8 8 8 8 8 8 8 8 9 0 ",
"a b c d ! e f g h i j _ k l m n o | 1 p q r s t u u u u 8 8 8 v ",
"w x y z b A B C D g E F n G H 1 I G J o H K q L s 5 t u u u u M ",
"1 N O P Q R S T U V W X Y Z `  ...+.@.#.+.$.%.&.*.=.r s 5 u u -.",
";.>.,.'.).!.~.C ~.{.].^./.(._.:.<.[.[.%.H G $.p }.|.1.2.|.}.5 3.",
"4.5.6.>.7.8.9.0.a.b.c.d.e.f.g.h.i.j.k.l.m.n.&.o.p.q.r.s.t.p =.u.",
"v.w.x.6.y.z.A.B.C.D.R E.F.G.H.I.J.K.L.M.N.O.P.Q.R.S.T.U.V.W.W.}.",
"X.Y.Z.`. +.+++@+#+$+%+&+*+=+-+;+>+,+'+)+L.!+~+Z {+]+^+/+(+_+[.:+",
"<+[+}+|+1+2+3+4+5+6+7+8+9+0+a+b+c+d+e+f+g+g+:+h+i+j+k+l+m+h.n+_+",
"o+p+q+r+s+t+u+v+w+x+y+z+A+B+C+D+E+F+G+H+I+J+K+L+M+N+O+P+Q+R+R+S+",
"T+U+V+W+X+Y+Z+`+ @.@+@@@#@$@%@&@*@=@-@;@>@,@'@)@!@~@{@]@^@/@(@_@",
":@<@<@[@}@|@1@2@3@4@3@5@6@7@8@8@9@0@a@b@c@d@e@f@g@h@i@j@k@k@l@m@",
"n@o@o@o@p@q@r@s@t@u@v@w@x@y@z@A@B@C@D@E@F@G@H@I@J@K@L@M@N@O@P@Q@",
"R@S@S@S@S@T@U@q@V@W@X@Y@Z@`@ #.#+#@###$#%#&#*#=#-#H@;#>#,#'#)#!#",
"~#{#{#]#^#^#^#/#(#_#:#<#[#}#|#1#2#3#4#5#6#7#8#9#0#a#b#c#d#e#f#>#",
"g#^#^#^#h#h#i#i#i#j#k#l#m#n#o#p#q#r#s#t#u#v#w#x#y#z#A#B#C#D#c#E#",
"F#i#i#G#H#I#I#I#I#I#I#J#K#L#M#N#O#P#Q#R#S#T#U#V#W#X#Y#Z#`# $.$+$",
"@$I##$$$%$%$%$&$&$&$*$*$*$*$*$*$=$-$;$>$,$'$'$)$!$O#~${${$]$k#^$",
"/$&$($_$_$:$<$<$[$}$|$|$1$2$2$2$2$2$2$1$|$|$}$[$<$<$:$3$*$&$&$4$",
"5$:$6$7$8$9$0$a$b$c$c$d$e$f$f$f$f$f$f$e$d$c$c$b$a$0$9$8$7$g$h$i$",
"j$k$l$m$n$o$p$q$r$s$t$u$v$w$w$w$w$w$w$v$u$t$s$r$q$x$y$n$z$9$7$A$",
"B$C$D$p$E$F$G$H$I$J$K$L$M$N$N$N$N$N$N$M$L$K$J$I$H$G$r$O$p$n$m$P$",
"Q$R$S$T$U$V$W$X$Y$Z$`$ %.%.%.%.%.%.%.%.% %`$Z$Y$X$W$V$G$+%@%#%$%",
"%%&%*%=%-%;%>%,%'%)%!%~%{%]%]%]%]%]%]%{%~%!%)%'%,%>%^%-%/%(%_%:%",
"<%*%[%}%|%1%2%3%4%5%6%7%8%9%9%9%9%9%9%8%7%6%5%4%3%2%1%|%0%a%(%b%",
"c%[%d%e%f%g%h%i%j%k%l%m%n%o%o%o%o%o%o%n%m%l%k%j%i%h%g%p%q%r%a%s%",
"t%d%u%v%w%h%x%6%k%y%n%o%z%A%A%A%A%A%A%z%o%n%y%k%6%x%B%w%f%e%r%C%",
"D%E%p%g%F%G%H%I%J%K%L%M%N%N%N%N%N%N%N%N%M%L%K%J%I%H%i%B%w%O%e%P%",
"Q%p%g%F%R%H%S%J%T%A%M%N%U%U%U%U%U%U%U%U%N%M%A%T%J%V%W%R%B%w%O%X%",
"Y%g%F%G%Z%S%n%`%M%N%U% & & & & & & & & & &U%N%M%`%n%S%.&R%B%+&@&",
"#&$&%&&&*&=&-&;&>&,&'&'&'&)&)&)&)&)&)&'&'&'&,&>&;&-&!&~&{&]&@&^&"};
