/* XPM */
static char * aTanUI_xpm[] = {
"32 32 722 2",
"  	c None",
". 	c #6A6859",
"+ 	c #C0BCA4",
"@ 	c #E0D9B7",
"# 	c #E4DCB2",
"$ 	c #E4DCB3",
"% 	c #E5DDB4",
"& 	c #E5DDB6",
"* 	c #E5DFB7",
"= 	c #E6DFB8",
"- 	c #E6E0B8",
"; 	c #E6E0B9",
"> 	c #E1D9B9",
", 	c #BDBAA3",
"' 	c #686557",
") 	c #C7C3AA",
"! 	c #D4C783",
"~ 	c #D5C985",
"{ 	c #D6CA87",
"] 	c #D7CB8A",
"^ 	c #D7CC8C",
"/ 	c #D8CD8F",
"( 	c #D9CE91",
"_ 	c #DACF94",
": 	c #DBD096",
"< 	c #DBD198",
"[ 	c #DCD29A",
"} 	c #DDD39C",
"| 	c #DED49F",
"1 	c #DFD5A1",
"2 	c #DFD6A3",
"3 	c #E0D7A5",
"4 	c #E0D7A6",
"5 	c #E1D8A8",
"6 	c #E1D9A9",
"7 	c #E2D9AA",
"8 	c #E2D9AB",
"9 	c #E1D8A9",
"0 	c #C2BDA8",
"a 	c #D5CEA4",
"b 	c #D2C47C",
"c 	c #D3C57E",
"d 	c #D3C580",
"e 	c #D5C885",
"f 	c #D6C987",
"g 	c #D7CA8A",
"h 	c #D8CB8C",
"i 	c #D9CC8F",
"j 	c #D9CD91",
"k 	c #DBCF96",
"l 	c #DCD098",
"m 	c #DCD19A",
"n 	c #DDD29C",
"o 	c #DED39E",
"p 	c #E0D5A3",
"q 	c #E0D6A4",
"r 	c #E1D7A6",
"s 	c #E1D7A7",
"t 	c #E2D8A9",
"u 	c #E2D8AA",
"v 	c #D4CCA8",
"w 	c #DBD2A2",
"x 	c #CFC074",
"y 	c #D0C277",
"z 	c #D1C37A",
"A 	c #D3C57F",
"B 	c #D4C682",
"C 	c #D5C783",
"D 	c #D6C986",
"E 	c #DACE93",
"F 	c #DCD198",
"G 	c #DED39D",
"H 	c #DFD4A0",
"I 	c #DED4A0",
"J 	c #DDD29D",
"K 	c #DFD5A2",
"L 	c #E0D6A5",
"M 	c #DED6AF",
"N 	c #CDBD6D",
"O 	c #CEBF70",
"P 	c #CFBF72",
"Q 	c #D1C175",
"R 	c #D2C278",
"S 	c #D3C37B",
"T 	c #D3C47D",
"U 	c #D4C580",
"V 	c #D8CA8A",
"W 	c #7F7245",
"X 	c #60542A",
"Y 	c #61542B",
"Z 	c #62552B",
"` 	c #63562C",
" .	c #63572C",
"..	c #83784A",
"+.	c #DED29C",
"@.	c #DDD098",
"#.	c #DDD19A",
"$.	c #DFD39E",
"%.	c #DFD49F",
"&.	c #E0D5A1",
"*.	c #E1D5A3",
"=.	c #E1D6A4",
"-.	c #E5DCB3",
";.	c #DED29D",
">.	c #CCBA67",
",.	c #CDBC69",
"'.	c #CDBC6B",
").	c #CFBF71",
"!.	c #D2C37A",
"~.	c #D5C681",
"{.	c #D7C987",
"].	c #7D6F43",
"^.	c #5F5129",
"/.	c #4A3B15",
"(.	c #342600",
"_.	c #4B3D15",
":.	c #61552B",
"<.	c #827648",
"[.	c #DED29B",
"}.	c #E2D7A6",
"|.	c #E2D7A7",
"1.	c #E3D9AA",
"2.	c #E3D8A9",
"3.	c #E4DBAF",
"4.	c #DCCE94",
"5.	c #C9B760",
"6.	c #CAB963",
"7.	c #D0C175",
"8.	c #827346",
"9.	c #584826",
"0.	c #594926",
"a.	c #85764A",
"b.	c #CCBE7F",
"c.	c #D6C784",
"d.	c #D9CD8F",
"e.	c #897B51",
"f.	c #322300",
"g.	c #8A7D53",
"h.	c #DDD197",
"i.	c #DBCF93",
"j.	c #BFB380",
"k.	c #6D6136",
"l.	c #62562C",
"m.	c #6E6237",
"n.	c #B8AC7D",
"o.	c #867A4D",
"p.	c #665B2E",
"q.	c #B2A87E",
"r.	c #685D2F",
"s.	c #887E50",
"t.	c #E3D9A9",
"u.	c #E3DAAC",
"v.	c #D7C886",
"w.	c #C7B459",
"x.	c #C8B65C",
"y.	c #9D8C52",
"z.	c #402E12",
"A.	c #4C3A1B",
"B.	c #574625",
"C.	c #2C1A00",
"D.	c #8E7F50",
"E.	c #D4C47D",
"F.	c #88794F",
"G.	c #312000",
"H.	c #897B50",
"I.	c #D8C987",
"J.	c #D9CA89",
"K.	c #6B5C33",
"L.	c #352600",
"M.	c #82754B",
"N.	c #372800",
"O.	c #43350B",
"P.	c #E3D7A6",
"Q.	c #65582C",
"R.	c #3A2D00",
"S.	c #514317",
"T.	c #3B2E00",
"U.	c #3C3000",
"V.	c #C4BA8D",
"W.	c #E0D4A0",
"X.	c #D1BF73",
"Y.	c #C6B252",
"Z.	c #C7B356",
"`.	c #CAB75F",
" +	c #C8B770",
".+	c #8B7B4D",
"++	c #604E2C",
"@+	c #342109",
"#+	c #2A1700",
"$+	c #837449",
"%+	c #D1C172",
"&+	c #D2C275",
"*+	c #86774C",
"=+	c #2F1D00",
"-+	c #87784D",
";+	c #D5C781",
">+	c #D7C985",
",+	c #B4A777",
"'+	c #7F7148",
")+	c #55461F",
"!+	c #362700",
"~+	c #E2D7A5",
"{+	c #382A00",
"]+	c #BAAF82",
"^+	c #65582D",
"/+	c #3B2D00",
"(+	c #BAAF81",
"_+	c #DFD29C",
":+	c #E1D5A1",
"<+	c #CDBB68",
"[+	c #BDA639",
"}+	c #C5B04E",
"|+	c #CAB75D",
"1+	c #5D4928",
"2+	c #261100",
"3+	c #806E44",
"4+	c #76643C",
"5+	c #291400",
"6+	c #827147",
"7+	c #D1BE6E",
"8+	c #D1BF70",
"9+	c #847449",
"0+	c #2D1A00",
"a+	c #86764B",
"b+	c #D5C57B",
"c+	c #B9A96E",
"d+	c #311F00",
"e+	c #483614",
"f+	c #C0B281",
"g+	c #342300",
"h+	c #61532A",
"i+	c #372700",
"j+	c #B9AD7F",
"k+	c #64552B",
"l+	c #392A00",
"m+	c #B8AD7E",
"n+	c #DDCF96",
"o+	c #CDB861",
"p+	c #B19413",
"q+	c #C3AC48",
"r+	c #C9B356",
"s+	c #705C35",
"t+	c #240D00",
"u+	c #250F00",
"v+	c #483319",
"w+	c #271100",
"x+	c #7F6C40",
"y+	c #CDB966",
"z+	c #CEBA67",
"A+	c #816E43",
"B+	c #2B1600",
"C+	c #837045",
"D+	c #D2C073",
"E+	c #C1B06F",
"F+	c #3A2609",
"G+	c #2F1C00",
"H+	c #3B280A",
"I+	c #473614",
"J+	c #322000",
"K+	c #DED096",
"L+	c #604F29",
"M+	c #352300",
"N+	c #B7A979",
"O+	c #62532A",
"P+	c #372600",
"Q+	c #B6A876",
"R+	c #DCCD8F",
"S+	c #DED095",
"T+	c #C9B55B",
"U+	c #AD8F07",
"V+	c #B69B22",
"W+	c #C5AD49",
"X+	c #CAB55A",
"Y+	c #A69152",
"Z+	c #B29F5C",
"`+	c #C7B469",
" @	c #A79455",
".@	c #B09D57",
"+@	c #CDB75F",
"@@	c #BDAA62",
"#@	c #AB985C",
"$@	c #BEAC65",
"%@	c #D0BD6C",
"&@	c #D2BF70",
"*@	c #C2B070",
"=@	c #AF9D66",
"-@	c #D0BE80",
";@	c #BCAA72",
">@	c #B29F67",
",@	c #D0BD7E",
"'@	c #BDAB72",
")@	c #B4A26E",
"!@	c #D3C186",
"~@	c #BEAE78",
"{@	c #B4A571",
"]@	c #D1C185",
"^@	c #D9C988",
"/@	c #DAC989",
"(@	c #DBCC8E",
"_@	c #C9B155",
":@	c #AE8F06",
"<@	c #BA9D28",
"[@	c #BEA54A",
"}@	c #A38C47",
"|@	c #A58E4E",
"1@	c #A68E4F",
"2@	c #A58F4E",
"3@	c #A58E4B",
"4@	c #A58D4A",
"5@	c #A58D4B",
"6@	c #A99252",
"7@	c #AA965A",
"8@	c #AD985E",
"9@	c #AC975F",
"0@	c #AD9860",
"a@	c #AF9B64",
"b@	c #AF9A63",
"c@	c #AE985E",
"d@	c #AE9A5D",
"e@	c #AE9A5F",
"f@	c #AF9B60",
"g@	c #B09C64",
"h@	c #B2A069",
"i@	c #B3A06A",
"j@	c #B29F6A",
"k@	c #C6B577",
"l@	c #D9C782",
"m@	c #D8C57F",
"n@	c #D9C681",
"o@	c #DBC886",
"p@	c #C5AD51",
"q@	c #AF8E06",
"r@	c #B1910D",
"s@	c #957C2B",
"t@	c #856B3B",
"u@	c #654C2C",
"v@	c #452A16",
"w@	c #A79052",
"x@	c #A58E4D",
"y@	c #A68F4E",
"z@	c #A78F4F",
"A@	c #AA9457",
"B@	c #493018",
"C@	c #280E00",
"D@	c #290F00",
"E@	c #2A1000",
"F@	c #2B1100",
"G@	c #2C1200",
"H@	c #AE9A64",
"I@	c #AC985D",
"J@	c #AE9A60",
"K@	c #B19D65",
"L@	c #735D38",
"M@	c #523C1C",
"N@	c #B3A06E",
"O@	c #887345",
"P@	c #D8C47E",
"Q@	c #D6C178",
"R@	c #D6C27B",
"S@	c #D7C67E",
"T@	c #C4AA4C",
"U@	c #B08E06",
"V@	c #B3920F",
"W@	c #90761F",
"X@	c #57421D",
"Y@	c #4C301B",
"Z@	c #381C0F",
"`@	c #7B6135",
" #	c #7A6031",
".#	c #7A6132",
"+#	c #7B6133",
"@#	c #7D6438",
"##	c #3C2110",
"$#	c #270B00",
"%#	c #280C00",
"&#	c #290D00",
"*#	c #290E00",
"=#	c #2A0F00",
"-#	c #826A3F",
";#	c #826A3B",
">#	c #826B3C",
",#	c #836C3D",
"'#	c #856E41",
")#	c #5C4424",
"!#	c #452E12",
"~#	c #877247",
"{#	c #867143",
"]#	c #D7C278",
"^#	c #D5BE70",
"/#	c #D5BF74",
"(#	c #D6BF75",
"_#	c #C2A647",
":#	c #B18E06",
"<#	c #B4910F",
"[#	c #90731A",
"}#	c #927722",
"|#	c #BC9C27",
"1#	c #C0A02F",
"2#	c #C7A942",
"3#	c #C9AC49",
"4#	c #CAAC4B",
"5#	c #CAAD4D",
"6#	c #CCAF52",
"7#	c #CEB359",
"8#	c #D0B65F",
"9#	c #D1B762",
"0#	c #D1B863",
"a#	c #D1B864",
"b#	c #D2B864",
"c#	c #D1B65F",
"d#	c #D2B761",
"e#	c #D2B764",
"f#	c #D3B967",
"g#	c #D5BC6D",
"h#	c #D6BD70",
"i#	c #D7C077",
"j#	c #856D3F",
"k#	c #D6BF71",
"l#	c #D4BB69",
"m#	c #D4BC6C",
"n#	c #D3BC6B",
"o#	c #C3A243",
"p#	c #B28D06",
"q#	c #B5910F",
"r#	c #907319",
"s#	c #B69110",
"t#	c #B38D07",
"u#	c #B99416",
"v#	c #C19F2D",
"w#	c #C6A63C",
"x#	c #C6A63D",
"y#	c #C7A73F",
"z#	c #C8A841",
"A#	c #C8A942",
"B#	c #C9A944",
"C#	c #CAAA46",
"D#	c #CAAB48",
"E#	c #CBAC4A",
"F#	c #CCAD4C",
"G#	c #CDAE4F",
"H#	c #CDAF51",
"I#	c #CEB054",
"J#	c #CFB156",
"K#	c #D0B359",
"L#	c #D3B865",
"M#	c #83693A",
"N#	c #D5BB6B",
"O#	c #D2B763",
"P#	c #D2B865",
"Q#	c #D1B763",
"R#	c #C09E3F",
"S#	c #B69210",
"T#	c #917319",
"U#	c #927319",
"V#	c #B89111",
"W#	c #B58D08",
"X#	c #B68F0B",
"Y#	c #BB9517",
"Z#	c #C09C26",
"`#	c #C5A132",
" $	c #C8A63D",
".$	c #C9A73F",
"+$	c #CAA841",
"@$	c #CAA842",
"#$	c #CBAA45",
"$$	c #CCAA47",
"%$	c #CCAB49",
"&$	c #CDAC4B",
"*$	c #CEAD4D",
"=$	c #CFAE50",
"-$	c #CFAF52",
";$	c #D2B760",
">$	c #826737",
",$	c #D3B965",
"'$	c #D1B45B",
")$	c #D1B55E",
"!$	c #C09B39",
"~$	c #B58D09",
"{$	c #B99112",
"]$	c #93731A",
"^$	c #B99212",
"/$	c #B78E0A",
"($	c #B78F0B",
"_$	c #BA9312",
":$	c #BC9517",
"<$	c #BF991F",
"[$	c #C29D28",
"}$	c #C49F2C",
"|$	c #C49F2E",
"1$	c #C9A63D",
"2$	c #C9A63E",
"3$	c #C9A841",
"4$	c #785828",
"5$	c #C9A842",
"6$	c #C6A336",
"7$	c #C5A344",
"8$	c #BD9735",
"9$	c #B78D0A",
"0$	c #BB9214",
"a$	c #95731C",
"b$	c #96731C",
"c$	c #BC9316",
"d$	c #B98F0D",
"e$	c #B98F0E",
"f$	c #BA900E",
"g$	c #BA900F",
"h$	c #BA9010",
"i$	c #BA9110",
"j$	c #BE961D",
"k$	c #6B4F17",
"l$	c #BC971C",
"m$	c #BC9735",
"n$	c #BC9331",
"o$	c #B98E0C",
"p$	c #BA8F0C",
"q$	c #BC9317",
"r$	c #98751E",
"s$	c #BD9518",
"t$	c #BC9111",
"u$	c #BC9212",
"v$	c #BD9313",
"w$	c #BD9414",
"x$	c #BE9414",
"y$	c #BE9415",
"z$	c #BB9110",
"A$	c #C09820",
"B$	c #6F5018",
"C$	c #BF971F",
"D$	c #B98F0C",
"E$	c #B88E0C",
"F$	c #BB9431",
"G$	c #BB922D",
"H$	c #BB8F0E",
"I$	c #BC8F0F",
"J$	c #BE9418",
"K$	c #9A751F",
"L$	c #9C7620",
"M$	c #C1961B",
"N$	c #C09315",
"O$	c #C19416",
"P$	c #C19417",
"Q$	c #C29518",
"R$	c #C29519",
"S$	c #C2961A",
"T$	c #C2961B",
"U$	c #BE9213",
"V$	c #C39A22",
"W$	c #71501A",
"X$	c #C19921",
"Y$	c #BB900F",
"Z$	c #BA8F0E",
"`$	c #BB922E",
" %	c #BB8D2A",
".%	c #BD9010",
"+%	c #BE9011",
"@%	c #9D7722",
"#%	c #9E7723",
"$%	c #C4971F",
"%%	c #C39419",
"&%	c #C3951B",
"*%	c #C4961D",
"=%	c #C4961E",
"-%	c #C5971F",
";%	c #C59720",
">%	c #C59821",
",%	c #C29317",
"'%	c #C59C26",
")%	c #73511B",
"!%	c #C39A23",
"~%	c #BD9011",
"{%	c #BC9010",
"]%	c #BA8E2A",
"^%	c #BB8B26",
"/%	c #BF9012",
"(%	c #C09113",
"_%	c #9F7724",
":%	c #A07825",
"<%	c #C79923",
"[%	c #C5961D",
"}%	c #C6971F",
"|%	c #C79820",
"1%	c #C79922",
"2%	c #C89924",
"3%	c #C89A25",
"4%	c #C5951B",
"5%	c #C89C29",
"6%	c #76511C",
"7%	c #C59A25",
"8%	c #C09213",
"9%	c #BE9112",
"0%	c #B98B27",
"a%	c #BA8A23",
"b%	c #C19214",
"c%	c #C49316",
"d%	c #C69820",
"e%	c #A17825",
"f%	c #A27926",
"g%	c #C99B26",
"h%	c #C89820",
"i%	c #C99922",
"j%	c #C99A24",
"k%	c #CA9B26",
"l%	c #CA9B27",
"m%	c #CA9C28",
"n%	c #CB9C28",
"o%	c #C7971E",
"p%	c #CA9D2C",
"q%	c #78521D",
"r%	c #C79C28",
"s%	c #C39316",
"t%	c #C09214",
"u%	c #B98B23",
"v%	c #B98720",
"w%	c #C69319",
"x%	c #C99823",
"y%	c #A47927",
"z%	c #A57929",
"A%	c #CB9C29",
"B%	c #CA9924",
"C%	c #CB9A26",
"D%	c #CB9B28",
"E%	c #CC9B29",
"F%	c #CC9C2B",
"G%	c #CD9C2B",
"H%	c #CD9C2C",
"I%	c #C99821",
"J%	c #CD9E2E",
"K%	c #7B531E",
"L%	c #CA9C2B",
"M%	c #C59419",
"N%	c #B78721",
"O%	c #BA831E",
"P%	c #C8951B",
"Q%	c #CB9A25",
"R%	c #A67929",
"S%	c #A77A2B",
"T%	c #CE9D2C",
"U%	c #CC9A27",
"V%	c #CC9B28",
"W%	c #CD9C2A",
"X%	c #CD9D2B",
"Y%	c #CD9D2C",
"Z%	c #CE9D2D",
"`%	c #CE9E2E",
" &	c #CC9924",
".&	c #CF9F31",
"+&	c #7D5320",
"@&	c #CC9D2D",
"#&	c #C7951B",
"$&	c #B8841F",
"%&	c #B8821B",
"&&	c #CA961D",
"*&	c #A77B2C",
"=&	c #CE9C2C",
"-&	c #CE9E2F",
";&	c #CF9E2F",
">&	c #CC9A26",
",&	c #D0A034",
"'&	c #7E5421",
")&	c #C9961D",
"!&	c #B7831B",
"~&	c #AC7719",
"{&	c #CA951D",
"]&	c #CA9720",
"^&	c #A87B2F",
"/&	c #A97E35",
"(&	c #D2A43F",
"_&	c #D1A23A",
":&	c #D2A33C",
"<&	c #D2A43D",
"[&	c #D2A43E",
"}&	c #D2A53E",
"|&	c #D2A53F",
"1&	c #D1A138",
"2&	c #D2A641",
"3&	c #7F5524",
"4&	c #CF9F32",
"5&	c #CA9820",
"6&	c #AD7719",
"7&	c #A36D17",
"8&	c #CB9822",
"9&	c #CD9B2B",
"0&	c #A77B2F",
"a&	c #6B401D",
"b&	c #815626",
"c&	c #815525",
"d&	c #825626",
"e&	c #825627",
"f&	c #825728",
"g&	c #805526",
"h&	c #7F5423",
"i&	c #CF9E30",
"j&	c #CB9823",
"k&	c #9D6A17",
"l&	c #814D14",
"m&	c #CC9825",
"n&	c #CC9A29",
"o&	c #D2A23A",
"p&	c #D2A43C",
"q&	c #D2A640",
"r&	c #D0A035",
"s&	c #CD9B2C",
"t&	c #CC9925",
"u&	c #CB9923",
"v&	c #7E4B14",
"w&	c #69452D",
"x&	c #824C14",
"y&	c #BD7F1B",
"z&	c #BF801E",
"A&	c #C0801E",
"B&	c #C0831F",
"C&	c #C18320",
"D&	c #C18421",
"E&	c #C28421",
"F&	c #C28622",
"G&	c #C28623",
"H&	c #C28723",
"I&	c #C0841F",
"J&	c #BF811E",
"K&	c #BD801E",
"L&	c #BB801B",
"M&	c #68462E",
". + @ # # $ % % % & & & * * = - - ; ; ; ; ; ; ; ; ; ; ; ; > , ' ",
") ! ~ { ] ^ / ( _ : < [ } | | 1 2 3 4 5 6 7 8 8 8 8 8 8 8 8 9 0 ",
"a b c d ! e f g h i j _ k l m n o | 1 p q r s t u u u u 8 8 8 v ",
"w x y z b A B C D g E F n G H 1 I G J o H K q L s 5 t u u u u M ",
"1 N O P Q R S T U V W X Y Z `  ...+.@.#.+.$.%.&.*.=.r s 5 u u -.",
";.>.,.'.).!.~.C ~.{.].^./.(._.:.<.[.[.%.H G $.p }.|.1.2.|.}.5 3.",
"4.5.6.>.7.8.9.0.a.b.c.d.e.f.g.h.i.j.k.l.m.n.&.o.p.q.r.s.t.p =.u.",
"v.w.x.6.y.z.A.B.C.D.R E.F.G.H.I.J.K.L.M.N.O.P.Q.R.S.T.U.V.W.W.}.",
"X.Y.Z.`. +.+++@+#+$+%+&+*+=+-+;+>+,+'+)+L.!+~+Z {+]+^+/+(+_+[.:+",
"<+[+}+|+1+2+3+4+5+6+7+8+9+0+a+b+c+d+e+f+g+g+:+h+i+j+k+l+m+h.n+_+",
"o+p+q+r+s+t+u+v+w+x+y+z+A+B+C+D+E+F+G+H+I+J+K+L+M+N+O+P+Q+R+R+S+",
"T+U+V+W+X+Y+Z+`+ @.@+@o+@@#@$@%@&@*@=@-@;@>@,@'@)@!@~@{@]@^@/@(@",
"_@:@:@<@[@}@|@1@2@3@4@5@6@7@8@9@0@a@b@c@d@e@f@g@h@i@j@k@l@m@n@o@",
"p@q@q@r@s@t@u@v@w@x@y@z@A@B@C@D@E@F@G@H@I@8@J@K@L@M@N@O@P@Q@R@S@",
"T@U@U@V@W@X@Y@Z@`@ #.#+#@###$#%#&#*#=#-#;#>#,#'#)#!#~#{#]#^#/#(#",
"_#:#:#<#[#}#|#1#2#3#4#5#6#7#8#9#0#a#b#8#c#d#e#f#g#h#i#j#k#l#m#n#",
"o#p#p#q#r#r#s#t#t#u#v#w#x#y#z#A#B#C#D#E#F#G#H#I#J#K#L#M#N#O#P#Q#",
"R#t#t#S#T#U#V#W#W#W#W#X#Y#Z#`# $.$+$@$#$$$%$&$*$=$-$;$>$,$'$)$7#",
"!$W#~${$]$]$^$/$/$/$($($($($($($_$:$<$[$}$|$|$1$2$.$3$4$5$6$v#7$",
"8$/$9$0$a$b$c$d$e$f$g$g$h$i$i$i$i$i$i$h$g$g$f$e$d$d$j$k$l$/$/$m$",
"n$o$p$q$r$r$s$t$u$v$v$w$x$y$y$y$y$y$y$x$w$v$v$u$t$z$A$B$C$D$E$F$",
"G$H$I$J$K$L$M$N$O$P$Q$R$S$T$T$T$T$T$T$S$R$Q$P$O$N$U$V$W$X$Y$Z$`$",
" %.%+%M$@%#%$%%%&%*%=%-%;%>%>%>%>%>%>%;%-%=%*%&%%%,%'%)%!%~%{%]%",
"^%/%(%*%_%:%<%[%}%|%1%2%3%3%3%3%3%3%3%3%2%1%|%}%[%4%5%6%7%8%9%0%",
"a%b%c%d%e%f%g%h%i%j%k%l%m%n%n%n%n%n%n%m%l%k%j%i%h%o%p%q%r%s%t%u%",
"v%c%w%x%y%z%A%B%C%D%E%F%G%H%H%H%H%H%H%G%F%E%D%C%B%I%J%K%L%M%s%N%",
"O%w%P%Q%R%S%T%U%V%W%X%Y%Z%`%`%`%`%`%`%Z%Y%X%W%V%U% &.&+&@&#&M%$&",
"%&P%&&U%S%*&`%E%W%=&Z%`%-&;&;&;&;&;&;&-&`%Z%=&W%E%>&,&'&`%)&#&!&",
"~&{&]&W%^&/&(&_&:&<&[&}&|&|&|&|&|&|&|&|&}&[&<&:&_&1&2&3&4&5&)&6&",
"7&]&8&9&0&a&b&c&d&d&e&e&f&f&f&f&f&f&f&f&e&e&d&d&c&c&g&h&i&j&5&k&",
"l&8&m&n&4&o&p&<&}&|&q&2&2&2&2&2&2&2&2&2&2&q&|&}&<&p&o&r&s&t&u&v&",
"w&x&y&z&A&B&C&D&E&F&G&G&G&H&H&H&H&H&H&G&G&G&F&E&D&C&I&J&K&L&v&M&"};
