/* XPM */
static char *AtmMshUpdt[] = {
/* columns rows colors chars-per-pixel */
"32 32 204 2",
"   c #1C222E",
".  c #1E2532",
"X  c #202735",
"o  c #212837",
"O  c #242B3B",
"+  c #2A3345",
"@  c #2E384C",
"#  c #30394E",
"$  c #323D53",
"%  c #37435A",
"&  c #39455E",
"*  c #3D4A64",
"=  c #2D4C7D",
"-  c #364F7A",
";  c #414E6A",
":  c #42516E",
">  c #465574",
",  c #485574",
"<  c #4B5B7B",
"1  c #204C8F",
"2  c #2D538D",
"3  c #375585",
"4  c #35568C",
"5  c #3D5A8C",
"6  c #204D91",
"7  c #245193",
"8  c #23549B",
"9  c #29579A",
"0  c #365D9A",
"q  c #124FA4",
"w  c #1751A3",
"e  c #1E55A6",
"r  c #0854BD",
"t  c #1657B5",
"y  c #215AAB",
"u  c #255FB1",
"i  c #3861A4",
"p  c #3E66AB",
"a  c #2963B7",
"s  c #2561BB",
"d  c #2D68BD",
"f  c #3465B1",
"g  c #425C87",
"h  c #4A5D83",
"j  c #425D89",
"k  c #506083",
"l  c #54658A",
"z  c #576A8F",
"x  c #586A8F",
"c  c #466194",
"v  c #4E6B9E",
"b  c #576A91",
"n  c #5A6D95",
"m  c #576E9E",
"M  c #5C7098",
"N  c #446CAF",
"B  c #5775AB",
"V  c #4E76BB",
"C  c #5F7EB5",
"Z  c #6376A0",
"A  c #6479A4",
"S  c #657BAA",
"D  c #6A7FAC",
"F  c #0555C5",
"G  c #0A58C5",
"H  c #095CCC",
"J  c #085DD2",
"K  c #045EDB",
"L  c #1768CF",
"P  c #1A69CF",
"I  c #0668D4",
"U  c #0A69D4",
"Y  c #0760DB",
"T  c #0960DB",
"R  c #096EDE",
"E  c #126ED6",
"W  c #1E6DD2",
"Q  c #1271D7",
"!  c #1475D8",
"~  c #1B7CD8",
"^  c #306BC4",
"/  c #386EC0",
"(  c #3A75CC",
")  c #226DD2",
"_  c #3273D7",
"`  c #0563E2",
"'  c #0965E2",
"]  c #056EE3",
"[  c #096DE1",
"{  c #0670E5",
"}  c #0971E4",
"|  c #1275E2",
" . c #177FE6",
".. c #1B7AE5",
"X. c #2B75E1",
"o. c #2C7CE2",
"O. c #307AE2",
"+. c #4877C2",
"@. c #557FC4",
"#. c #6681B5",
"$. c #6C83B2",
"%. c #728ABB",
"&. c #2283D9",
"*. c #2C8ADA",
"=. c #318FDA",
"-. c #3594DB",
";. c #3894DB",
":. c #3A99DB",
">. c #1C83E5",
",. c #2486E6",
"<. c #2D85E5",
"1. c #2B8EE7",
"2. c #3084E5",
"3. c #3F85E3",
"4. c #348CE5",
"5. c #2E91E6",
"6. c #2F94E8",
"7. c #3394E6",
"8. c #3B94E6",
"9. c #3698E7",
"0. c #3C9CE6",
"q. c #3196E8",
"w. c #359AE9",
"e. c #3B9DE9",
"r. c #3DA0E6",
"t. c #3EA1E9",
"y. c #449EDC",
"u. c #6485C4",
"i. c #628ACF",
"p. c #778EC2",
"a. c #7891C5",
"s. c #7392CF",
"d. c #7B95CA",
"f. c #6E92D5",
"g. c #6993DD",
"h. c #7F99D1",
"j. c #48A4DD",
"k. c #4DA8DD",
"l. c #52ACDE",
"z. c #59B2DE",
"x. c #64BBDF",
"c. c #4581E0",
"v. c #4B86E1",
"b. c #4B8BE2",
"n. c #528CE2",
"m. c #419BE7",
"M. c #419EE8",
"N. c #5491E3",
"B. c #5F95E3",
"V. c #6E9BE2",
"C. c #42A3E6",
"Z. c #49A5E7",
"A. c #4CACE7",
"S. c #43A5E9",
"D. c #49A7E9",
"F. c #46A9EA",
"G. c #4BACEA",
"H. c #51AFEA",
"J. c #4EB1EB",
"K. c #53B0E7",
"L. c #54B4EA",
"P. c #59B7EA",
"I. c #5BB9EB",
"U. c #77A7E4",
"Y. c #7FA0E1",
"T. c #6BC1DF",
"R. c #79CCDF",
"E. c #6CC3E0",
"W. c #75CCE1",
"Q. c #7ACEE1",
"!. c #7DD2E1",
"~. c #819DD5",
"^. c #84A1DA",
"/. c #87A6E2",
"(. c #8DACE2",
"). c #85B4E5",
"_. c #88B4E5",
"`. c #95B4E3",
"'. c #95B9E5",
"]. c #99B9E4",
"[. c #9CC8CE",
"{. c #9DC6E6",
"}. c #83D7E1",
"|. c #87DCE2",
" X c #8DDDE3",
".X c #97DEE2",
"XX c #99DEE3",
"oX c #A2C3E5",
"OX c #A8CAE6",
"+X c #ACD0E7",
"@X c #B2D6E8",
"#X c #B3D8E8",
"$X c #9DECF1",
"%X c #B7E1E4",
"&X c #BAE2E5",
"*X c #BEE4E9",
"=X c #A3ECF1",
"-X c #AAECF1",
";X c #B2EDF1",
":X c #C1DBDF",
">X c #CCDBDF",
",X c #C0E7EA",
"<X c #C4EBEC",
"1X c #CCECEC",
/* pixels */
":X<X;X$X$X=X$X$X=X=X$X$X=X=X$X=X=X=X=X=X-X=X=X=X=X=X=X-X=X-X<X>X",
"%XC.F.G.G.F.G.H.G.G.K.L.L.L.L.L.L.L.I.L.L.I.I.P.P.I.I.P.P.I.L.&X",
".Xr.S.D.F.S.D.G.F.F.H.K.G.G.L.L.L.L.P.L.L.P.I.P.L.I.I.L.P.I.P.XX",
" XC.S.t.S.D.F.S.D.G.F.F.H.H.G.G.L.L.L.L.P.L.L.P.P.L.P.I.P.L.L.XX",
"|.0.t.e.t.S.S.S.S.D.S.F.G.G.F.G.K.G.G.K.L.L.L.L.P.L.L.I.P.L.L..X",
"|.7.e.C.e.e.S.S.S.t.D.D.S.F.A.G.F.G.H.G.G.K.L.L.L.P.P.L.L.P.L. X",
"}.7.w.e.w.e.e.t.t.t.S.S.S.S.F.F.F.F.G.G.G.G.H.G.G.L.L.L.L.P.L. X",
"W.7.w.6.9.0.w.q.e.C.e.e.S.S.t.S.D.F.S.G.A.F.F.H.H.G.G.L.L.J.K. X",
"T.5.6.q.q.q.q.q.9.e.w.e.e.t.t.t.S.S.S.S.D.F.F.G.G.G.G.H.G.G.A.}.",
"x.>.5.7.6.1.4.7.1.6.0.0.7.7.8.e.w.e.M.0.e.S.D.S.M.Z.D.F.G.H.A.!.",
"x.| 1.1.,.o.v.v.b.O.<.o.n.b.n.3.4.2.N.n.b.4.8.3.N.n.b.m.D.G.D.Q.",
"z.|  .,.X.<XOXOXOX<Xs ).OXOXOX*X/ _.OXOX@XB._ <XOXOX*Xb.M.S.Z.R.",
"z.[ } ..c.oXo . o ~.u.+Xo . o a.f.1XO X h {.+.oXo o a.U.8.S.C.E.",
"l.] } [ ( ]..   . l /.d..   . %.u.,XX . < '.N ].. . %.V.4.S.C.E.",
"k.} } ] ^ (.. . $ + OXk . $ . $.C #XX . > (.p (.. . $.g.4.e.0.x.",
"j.} } ] d ^.. . n o (.+ & ; . A B oXX . : Y.i ^.. . A i.2.w.0.x.",
"y.] } [ a a.. . %.o < X l * . M v `.X . * s.0 a.. . M @.<.e.9.z.",
"y.] } [ u $.. X h.o O . S * . l c ^.o . * #.= $.. . l V <.9.7.l.",
":.} } ` y Z . X p.$ . X %.% . < 5 S $ . . S p.; . . M f ..>.>.y.",
"-.} } [ e x X o D , X # b $ X , 4 2 l X . . . . . # m G } { [ ;.",
"=.] } [ t l $ $ h l $ < - * $ < 8 r 5 < @ o X O & n 9 ` } } [ *.",
"*.[ } } ` 8 g g 6 1 j 7 q 4 j 8 Y [ J 7 h z z l 3 w ` ] } } ] *.",
"*.} } ] } ' K K ' ' ` ` [ ' K ' } } ] ' H F F G T ` } } } ] [ *.",
"&.[ } } { } } } } } } } } { } } } } } } } } } } } } } } { } [ &.",
"&.] } } { { } } { { } } ] } } } ] } } { { } } { } } } ] } } [ ~ ",
"~ [ { { } } { { } } { { } { { } } { { } } { { } } { { } { { [ ~ ",
"~ [ } ] } } { { } } ] { } } ] } } { { } } { { } } ] } } { ] [ ~ ",
"! ] } } { { } } { { } } { { } { { } } { { } } { { } { { } } [ ! ",
"Q ] } } { { } } ] { } } { { } { { } } ] ] } } ] { } } { } } [ E ",
"E [ { ] } } { ] } } { { } { { } } { ] } } ] { } } { { } { { [ E ",
"W R [ ] [ R ] ] R [ ] [ R [ ] [ R ] ] R R ] ] R [ ] [ R [ ] R ) ",
"[.L U U I I U U I I U U I I U I I U U I I U U I I U I I U U P [."
};
