/* XPM */
static char *AtmMrrInflnc[] = {
/* columns rows colors chars-per-pixel */
"32 32 173 2",
"   c #1C222E",
".  c #1E2632",
"X  c #202735",
"o  c #212837",
"O  c #242B3B",
"+  c #2A3345",
"@  c #333E54",
"#  c #37435A",
"$  c #38445D",
"%  c #1D4176",
"&  c #3D4964",
"*  c #25487A",
"=  c #37517A",
"-  c #404D69",
";  c #42516E",
":  c #485574",
">  c #4B5A7B",
",  c #154489",
"<  c #214C8D",
"1  c #2C5187",
"2  c #32558C",
"3  c #204D91",
"4  c #225191",
"5  c #22539A",
"6  c #29589E",
"7  c #375A94",
"8  c #375D9A",
"9  c #3B609A",
"0  c #124FA4",
"q  c #2658A0",
"w  c #3E63A3",
"e  c #2E65B5",
"r  c #2C65BA",
"t  c #425C87",
"y  c #485C83",
"u  c #425C8A",
"i  c #506083",
"p  c #53658A",
"a  c #586A8F",
"s  c #596C94",
"d  c #5C7098",
"f  c #456AA6",
"g  c #446CAC",
"h  c #4D75B5",
"j  c #4D76BA",
"k  c #6376A0",
"l  c #6479A4",
"z  c #667CA9",
"x  c #6A7FAC",
"c  c #0557C8",
"v  c #055EDA",
"b  c #1768CF",
"n  c #1A69CF",
"m  c #0B60D4",
"M  c #0668D4",
"N  c #0A69D4",
"B  c #0560DD",
"V  c #0861DB",
"C  c #096EDE",
"Z  c #126ED6",
"A  c #1E6DD2",
"S  c #1271D7",
"D  c #1475D8",
"F  c #1B7CD8",
"G  c #226DD2",
"H  c #0563E2",
"J  c #0A66E2",
"K  c #056EE3",
"L  c #096EE1",
"P  c #0670E5",
"I  c #0971E4",
"U  c #1276E3",
"Y  c #1B76E3",
"T  c #167EE6",
"R  c #237DE3",
"E  c #2C7EE3",
"W  c #3377E0",
"Q  c #347FE2",
"!  c #557FC4",
"~  c #6C83B2",
"^  c #728ABB",
"/  c #2283D9",
"(  c #2C8ADA",
")  c #318FDA",
"_  c #3594DB",
"`  c #3894DB",
"'  c #3A99DB",
"]  c #1C83E6",
"[  c #2186E7",
"{  c #2C84E5",
"}  c #258BE7",
"|  c #2B8DE7",
" . c #3981E3",
".. c #3489E5",
"X. c #388CE5",
"o. c #2D91E6",
"O. c #2D92E8",
"+. c #3394E6",
"@. c #3B96E7",
"#. c #3698E7",
"$. c #3C9BE6",
"%. c #3196E8",
"&. c #359AE8",
"*. c #3B9DE9",
"=. c #3DA0E6",
"-. c #3EA1E9",
";. c #5581CA",
":. c #5F89CF",
">. c #449EDC",
",. c #6385C8",
"<. c #778EC2",
"1. c #7891C5",
"2. c #7B95CA",
"3. c #628DD9",
"4. c #6792DD",
"5. c #7F99D1",
"6. c #48A4DD",
"7. c #4DA8DD",
"8. c #52ACDE",
"9. c #59B2DE",
"0. c #64BBDF",
"q. c #4585E2",
"w. c #4C86E1",
"e. c #468CE3",
"r. c #528CE2",
"t. c #449EE7",
"y. c #6A97E1",
"u. c #6E9BE2",
"i. c #42A3E6",
"p. c #48A7E6",
"a. c #4CACE7",
"s. c #43A5E9",
"d. c #49A7E9",
"f. c #46A9EA",
"g. c #4BACEA",
"h. c #51AFEA",
"j. c #4EB1EB",
"k. c #53B0E7",
"l. c #54B4EA",
"z. c #59B7EA",
"x. c #5BB9EB",
"c. c #74A4E3",
"v. c #6BC1DF",
"b. c #79CCDF",
"n. c #6CC3E0",
"m. c #75CCE1",
"M. c #7ACEE1",
"N. c #7DD2E1",
"B. c #819DD5",
"V. c #84A0D9",
"C. c #87A6E2",
"Z. c #8EABE2",
"A. c #88B4E5",
"S. c #99B9E4",
"D. c #9CC8CE",
"F. c #83D7E1",
"G. c #87DCE2",
"H. c #8DDDE3",
"J. c #97DEE2",
"K. c #99DEE3",
"L. c #A1C2E5",
"P. c #A8CAE6",
"I. c #ACD0E7",
"U. c #9DECF1",
"Y. c #B7E1E4",
"T. c #BAE2E5",
"R. c #BEE4E9",
"E. c #A3ECF1",
"W. c #AAECF1",
"Q. c #B2EDF1",
"!. c #C1DBDF",
"~. c #CCDBDF",
"^. c #C4EBEC",
/* pixels */
"!.^.Q.U.U.E.U.U.E.E.U.U.E.E.U.E.E.E.E.E.W.E.E.E.E.E.E.W.E.W.^.~.",
"Y.i.f.g.g.f.g.h.g.g.k.l.l.l.l.l.l.l.x.l.l.x.x.z.z.x.x.z.z.x.l.T.",
"J.=.s.d.f.s.d.a.f.f.h.k.g.g.l.l.l.l.z.l.l.z.x.z.l.x.x.l.z.x.z.K.",
"H.i.s.-.s.d.f.s.d.g.f.f.h.h.g.g.l.l.l.l.z.l.l.z.z.l.z.x.z.l.l.K.",
"G.$.-.*.-.s.s.s.s.d.s.f.g.g.f.g.k.g.g.k.l.l.l.l.z.l.l.x.z.l.l.J.",
"G.+.*.i.*.*.s.s.s.-.d.d.s.f.a.g.f.g.h.g.g.k.l.l.l.z.z.l.l.z.l.H.",
"F.+.&.*.&.*.*.-.-.-.s.s.s.s.f.f.f.f.g.g.g.g.h.g.g.l.l.l.l.z.l.H.",
"m.#.&.O.#.$.&.&.*.i.*.*.s.s.-.s.d.f.s.g.a.f.f.h.h.g.g.l.l.j.k.H.",
"v.o.O.%.%.%.&.&.#.*.&.*.*.-.-.-.s.s.s.s.d.f.f.g.g.g.g.h.g.g.a.F.",
"0.] o.+.O.O.%.#.+.| +.@.%.&.$.@.+.$.i.-.*.t.t.s.s.g.g.f.g.h.a.N.",
"0.U | | O.O.O.{  .w.w.r.E | Q r.r.r. ... .r.r.e.@.s.f.f.f.g.p.M.",
"9.U T } | +.} W R.P.P.P.A.r ^.P.P.P.^.e ^.P.P.R.q.$.s.d.s.s.p.b.",
"9.L I ] } } R c.1.o . o I.,.B.o . o L.g L.o o 1.c.X.s.s.s.s.i.n.",
"8.K I I T [ R y.^ .   . 2.C.p .   . S.w S.. . ^ u.X.-.*.-.s.i.n.",
"7.I I P I U Y 3.~ . @ . i P.+ @ . . Z.9 Z.. . ~ 4.{ &.*.*.*.$.0.",
"6.I I P I I H ;.l . - $ + Z.o s . . V.7 V.. . l :.{ &.$.&.&.$.0.",
">.K I I I P J j d . & p X > o ^ . . 1.2 1.. . d ! { %.%.&.*.#.9.",
">.L I I I P J g p . & z . O o 5.X . ~ 1 ~ . . p h { %.O.%.#.+.8.",
"' I I P I I H w > . # ^ X . @ <.X . k * k . . > f Y ] [ ] ] ] >.",
"_ I I I I I H 8 : X @ p @ X ; x o X a % a X . : 8 H I I I P L ` ",
") K I I I P L 6 > @ & = > @ p y @ @ p , p @ @ > q J I P I I L ( ",
"( L I I P I L V 5 u 2 0 4 u < 3 u t 5 c 5 t t 5 B L I P I I L ( ",
"( I I K I I P K J m H J J V H J m v H L J v v J L K I I I K L ( ",
"/ L I I P I I I I I I I I P I I I I I I I I I I I I I I P I L / ",
"/ K I I P P I I P P I I K I I I K I I P P I I P I I I K I I L F ",
"F L P P P I P P I I P P I P P P I P P I I P P I P P P I P P L F ",
"F L P K I I P P I I K P I I K I I P P I I P P I I K I I P K L F ",
"D K I I P P I I P P I I P P I P P I I P P I I P P I P P P I L D ",
"S K I I P P I I K P I I P P I P P I I K K I I K P I I P I I L Z ",
"Z L P K I I P K I I P P I P P I I P K I I K P I I P P I P P L Z ",
"A C L K L C K K C L K L C L K L C K K C C K K C L K L C L K C G ",
"D.b N N M M N N M M N N M M N M M N N M M N N M M N M M N N n D."
};
