/* XPM */
static char *AtmSknInflnc[] = {
/* columns rows colors chars-per-pixel */
"32 32 177 2",
"   c #1E2532",
".  c #202735",
"X  c #212837",
"o  c #242C3B",
"O  c #282F3F",
"+  c #293243",
"@  c #30394E",
"#  c #333E54",
"$  c #374259",
"%  c #39445D",
"&  c #3D4A64",
"*  c #42516E",
"=  c #465574",
"-  c #495776",
";  c #4A5A7A",
":  c #1C519C",
">  c #294D87",
",  c #375587",
"<  c #3B5685",
"1  c #32558D",
"2  c #335894",
"3  c #1751A4",
"4  c #0C54B7",
"5  c #0C55BD",
"6  c #1257B5",
"7  c #2155A3",
"8  c #3F66A4",
"9  c #3866AC",
"0  c #425B86",
"q  c #4E5F80",
"w  c #48618F",
"e  c #526387",
"r  c #52658C",
"t  c #576A8F",
"y  c #576B95",
"u  c #5B6E95",
"i  c #59709A",
"p  c #496AA0",
"a  c #597AB5",
"s  c #6377A3",
"d  c #657AA5",
"f  c #667DAA",
"g  c #6A7FAC",
"h  c #0755C2",
"j  c #0958C2",
"k  c #0355CA",
"l  c #065CD4",
"z  c #095DD1",
"x  c #055EDB",
"c  c #1768CF",
"v  c #1B69CF",
"b  c #0668D4",
"n  c #0A69D4",
"m  c #0860DB",
"M  c #096EDE",
"N  c #126ED6",
"B  c #1C6AD3",
"V  c #1E6BD9",
"C  c #1271D7",
"Z  c #1475D8",
"A  c #1B7CD8",
"S  c #226DD2",
"D  c #206CDB",
"F  c #2970D7",
"G  c #2B73DA",
"H  c #0665E3",
"J  c #0A63E0",
"K  c #056EE2",
"L  c #096EE1",
"P  c #0670E5",
"I  c #0971E4",
"U  c #1276E3",
"Y  c #167EE6",
"T  c #2276E3",
"R  c #2873E2",
"E  c #2B7BE3",
"W  c #3C7EE0",
"Q  c #407ED9",
"!  c #6D84B3",
"~  c #738CBD",
"^  c #2283D9",
"/  c #2C8ADA",
"(  c #318FDA",
")  c #3594DB",
"_  c #3894DB",
"`  c #3A99DB",
"'  c #1C83E6",
"]  c #2186E7",
"[  c #248BE7",
"{  c #2B8CE7",
"}  c #288DE8",
"|  c #3486E4",
" . c #338BE5",
".. c #3A8DE5",
"X. c #2D91E6",
"o. c #2D92E8",
"O. c #3394E6",
"+. c #3A90E5",
"@. c #3698E7",
"#. c #3B9BE6",
"$. c #3196E8",
"%. c #3599E8",
"&. c #3A9DE9",
"*. c #3DA0E6",
"=. c #3EA1E9",
"-. c #449EDC",
";. c #758EC3",
":. c #7C95CA",
">. c #6992D9",
",. c #7997D1",
"<. c #7F99D1",
"1. c #7D9EDB",
"2. c #48A4DD",
"3. c #4DA8DD",
"4. c #52ACDE",
"5. c #59B2DE",
"6. c #64BBDF",
"7. c #4282E0",
"8. c #4A8DE3",
"9. c #538DE2",
"0. c #429EE7",
"q. c #409EE8",
"w. c #5592E3",
"e. c #5C92E2",
"r. c #42A3E6",
"t. c #48A7E6",
"y. c #4CACE7",
"u. c #43A5E9",
"i. c #49A7E9",
"p. c #46A9EA",
"a. c #4BACEA",
"s. c #51AFEA",
"d. c #4EB1EB",
"f. c #53B0E7",
"g. c #54B4EA",
"h. c #59B7EA",
"j. c #5BB9EB",
"k. c #6EA0E3",
"l. c #77A7E4",
"z. c #6BC1DF",
"x. c #79CCDF",
"c. c #6CC3E0",
"v. c #75CCE1",
"b. c #7ACEE1",
"n. c #7DD2E1",
"m. c #86A2DB",
"M. c #8CACE2",
"N. c #87B2E4",
"B. c #8AB7E5",
"V. c #89B9E6",
"C. c #95B5E3",
"Z. c #99B7E4",
"A. c #9CBDE4",
"S. c #9CC8CE",
"D. c #9CC4E6",
"F. c #83D7E1",
"G. c #87DCE2",
"H. c #8DDDE3",
"J. c #97DEE2",
"K. c #99DEE3",
"L. c #A3C4E6",
"P. c #A8CCE6",
"I. c #ADD0E7",
"U. c #B2D6E8",
"Y. c #B3D8E8",
"T. c #9DECF1",
"R. c #B7E1E4",
"E. c #BAE2E5",
"W. c #BEE4E9",
"Q. c #A3ECF1",
"!. c #AAECF1",
"~. c #B2EDF1",
"^. c #C1DBDF",
"/. c #CCDBDF",
"(. c #C0E7EA",
"). c #C0ECEE",
"_. c #CCECEC",
/* pixels */
"^.).~.T.T.Q.T.T.Q.Q.T.T.Q.Q.T.Q.Q.Q.Q.Q.!.Q.Q.Q.Q.Q.Q.!.Q.!.)./.",
"R.r.p.a.a.p.a.s.a.a.f.g.g.g.g.g.g.g.j.g.g.j.j.h.h.j.j.h.h.j.g.E.",
"J.*.u.i.p.u.i.y.p.p.s.f.a.a.g.g.g.g.h.g.g.h.j.h.g.j.j.g.h.j.h.K.",
"H.r.u.=.u.i.p.u.i.a.p.p.s.s.a.a.g.g.g.g.h.g.g.h.h.g.h.j.h.g.g.K.",
"G.#.=.&.=.u.u.u.u.i.u.p.a.a.p.a.f.a.a.f.g.g.g.g.h.g.g.j.h.g.g.J.",
"G.O.&.r.&.&.u.u.u.=.i.i.u.p.y.a.p.a.s.a.a.f.g.g.g.h.h.g.g.h.g.H.",
"F.O.%.&.%.&.&.=.=.=.u.u.u.u.p.p.p.p.a.a.a.a.s.a.a.g.g.g.g.h.g.H.",
"v.O.%.o.@.#.%.%.&.r.&.&.u.u.=.u.i.p.u.a.y.p.p.s.s.a.a.g.g.d.f.H.",
"z.X.o.$.$.$.%.%.%.&.%.&.&.=.=.=.u.u.u.u.i.p.p.a.a.a.a.s.a.a.y.F.",
"6.' X.O.o.o.$.@.$.$.#.O.{  .+.#.%.=.u.&.#.0.i.u.p.a.a.p.a.s.y.n.",
"6.U } { o.o.o.o.$.{ E 7.l.l.k.W | O. .8.9.w.| q.u.u.p.p.p.a.t.b.",
"5.U Y [ } O.o.} { 8.B.U.:.:.m.W.B.F e.U.P.P.V...u.=.u.i.u.u.t.x.",
"5.L I ' [ [ } { T N.s .       X C.>.D.q . o _.E =.=.r.u.u.u.r.c.",
"4.K I I Y ] } { G I.X   & f . . $ P.C.;   . (.R &.q.=.&.=.u.r.c.",
"3.I I P I U ' ] Q M..   q L.Z.M.M.a M.=   . Y.G %.%.%.&.&.&.#.6.",
"2.I I P I I I I B M.&       # d A.p 1.*   . L.F @.$.%.#.%.%.#.6.",
"-.K I I I P I I x 8 M.q +       % ,.;.&   . C.D o.@.O.$.%.&.@.5.",
"-.L I I I P I L 5 <.! ! <.~ #   . ! f &   . m.V o.$.$.o.$.@.O.4.",
"` I I P I I P H 9 e X . - ;.&   . f i $   . ;.v [ ] ' ] ' ' ' -.",
") I I I I I I L 4 d O           @ y r #   X g j I P I I I P L _ ",
"( K I I I P I I H 2 r $ X . o % u > , & # # w l I I I P I I L / ",
"/ L I I P I I I L x : < t t r , 3 z 6 1 0 0 7 H P I I P I I L / ",
"/ I I K I I P P I I H x j h k m L L K J z x H I I K I I I K L / ",
"^ L I I P I I I I I I I I P I I I I I I I I I I I I I I P I L ^ ",
"^ K I I P P I I P P I I K I I I K I I P P I I P I I I K I I L A ",
"A L P P P I P P I I P P I P P P I P P I I P P I P P P I P P L A ",
"A L P K I I P P I I K P I I K I I P P I I P P I I K I I P K L A ",
"Z K I I P P I I P P I I P P I P P I I P P I I P P I P P P I L Z ",
"C K I I P P I I K P I I P P I P P I I K K I I K P I I P I I L N ",
"N L P K I I P K I I P P I P P I I P K I I K P I I P P I P P L N ",
"B M L K L M K K M L K L M L K L M K K M M K K M L K L M L K M S ",
"S.c n n b b n n b b n n b b n b b n n b b n n b b n b b n n v S."
};
