/* XPM */
static char *AtmSrfcRg[] = {
/* columns rows colors chars-per-pixel */
"32 32 189 2",
"   c #1C222E",
".  c #1D2531",
"X  c #202735",
"o  c #212837",
"O  c #242D3C",
"+  c #293142",
"@  c #2C3548",
"#  c #2E384C",
"$  c #333E55",
"%  c #374259",
"&  c #3A465F",
"*  c #3E4A65",
"=  c #224478",
"-  c #414F6C",
";  c #43526E",
":  c #455472",
">  c #485675",
",  c #4D5C7D",
"<  c #15468D",
"1  c #2E5185",
"2  c #2D538D",
"3  c #365587",
"4  c #32558D",
"5  c #3B5B8D",
"6  c #255194",
"7  c #2A5493",
"8  c #215198",
"9  c #3B5D94",
"0  c #3A5F9A",
"q  c #0549A9",
"w  c #1B51A0",
"e  c #084FB3",
"r  c #1255B5",
"t  c #2155A3",
"y  c #2D5CA3",
"u  c #2660B3",
"i  c #415B86",
"p  c #485D87",
"a  c #425C89",
"s  c #4A618C",
"d  c #52658B",
"f  c #576A8F",
"g  c #526A95",
"h  c #596C94",
"j  c #596E98",
"k  c #5E729C",
"l  c #62759E",
"z  c #4C6EA9",
"x  c #5877AF",
"c  c #4971B3",
"v  c #4575BD",
"b  c #547CBD",
"n  c #667CA9",
"m  c #6A7FAC",
"M  c #657FB1",
"N  c #0456C6",
"B  c #0C5AC4",
"V  c #0758CA",
"C  c #0A5CCC",
"Z  c #115AC0",
"A  c #035CD7",
"S  c #095ED4",
"D  c #075FD9",
"F  c #1768CF",
"G  c #1A69CF",
"H  c #0668D4",
"J  c #0A69D4",
"K  c #0A63DD",
"L  c #096EDE",
"P  c #126ED6",
"I  c #1E6DD2",
"U  c #1165DD",
"Y  c #1271D7",
"T  c #1475D8",
"R  c #1B7CD8",
"E  c #3B70C2",
"W  c #226DD2",
"Q  c #2E75DB",
"!  c #3F7CD9",
"~  c #0663E2",
"^  c #0964E1",
"/  c #056EE3",
"(  c #096EE1",
")  c #0670E5",
"_  c #0971E4",
"`  c #1275E2",
"'  c #1A72E3",
"]  c #167EE6",
"[  c #2A76E2",
"{  c #227AE3",
"}  c #2A7FE3",
"|  c #327FE3",
" . c #6D83B2",
".. c #6F89BB",
"X. c #728BBC",
"o. c #2283D9",
"O. c #2C8ADA",
"+. c #318FDA",
"@. c #3594DB",
"#. c #3894DB",
"$. c #3A99DB",
"%. c #1C83E5",
"&. c #2283E6",
"*. c #2E87E5",
"=. c #248BE7",
"-. c #2B8CE7",
";. c #3184E4",
":. c #3B81E2",
">. c #328CE6",
",. c #3A8EE6",
"<. c #2D91E6",
"1. c #2D92E8",
"2. c #3394E6",
"3. c #3698E7",
"4. c #3C9BE6",
"5. c #3196E8",
"6. c #3A97E8",
"7. c #3699E8",
"8. c #3B9DE9",
"9. c #3DA0E6",
"0. c #3EA1E9",
"q. c #449EDC",
"w. c #6587C6",
"e. c #778EC2",
"r. c #7C96CB",
"t. c #7F99D1",
"y. c #48A4DD",
"u. c #4DA8DD",
"i. c #52ACDE",
"p. c #59B2DE",
"a. c #64BBDF",
"s. c #538CE2",
"d. c #439BE7",
"f. c #5390E3",
"g. c #5890E2",
"h. c #6297E2",
"j. c #669EE4",
"k. c #42A3E6",
"l. c #48A7E6",
"z. c #4CACE7",
"x. c #43A4E9",
"c. c #49A7E9",
"v. c #46A9EA",
"b. c #4BACEA",
"n. c #51AFEA",
"m. c #4EB1EB",
"M. c #53B0E7",
"N. c #54B4EA",
"B. c #59B7EA",
"V. c #5BB9EB",
"C. c #74A5E4",
"Z. c #7CA9E3",
"A. c #6BC1DF",
"S. c #79CCDF",
"D. c #6CC3E0",
"F. c #75CCE1",
"G. c #7ACEE1",
"H. c #7DD2E1",
"J. c #85A1DA",
"K. c #80A3E2",
"L. c #88A4E1",
"P. c #80AEE4",
"I. c #8EABE2",
"U. c #90AFE3",
"Y. c #89B4E5",
"T. c #93B3E3",
"R. c #9CBBE4",
"E. c #9CC8CE",
"W. c #83D7E1",
"Q. c #87DCE2",
"!. c #8DDDE3",
"~. c #97DEE2",
"^. c #99DEE3",
"/. c #A3C4E6",
"(. c #A8CAE6",
"). c #AAD1E7",
"_. c #AFD9E9",
"`. c #B3D8E8",
"'. c #9DECF1",
"]. c #B7E1E4",
"[. c #BAE2E5",
"{. c #A3ECF1",
"}. c #AAECF1",
"|. c #B2EDF1",
" X c #C1DBDF",
".X c #CCDBDF",
"XX c #C0E7EA",
"oX c #C3EBED",
"OX c #CCECEC",
/* pixels */
" XoX|.'.'.{.'.'.{.{.'.'.{.{.'.{.{.{.{.{.}.{.{.{.{.{.{.}.{.}.oX.X",
"].k.v.b.b.v.b.n.b.b.M.N.N.N.N.N.N.N.V.N.N.V.V.B.B.V.V.B.B.V.N.[.",
"~.9.x.c.v.x.c.z.v.v.n.M.b.b.N.N.N.N.B.N.N.B.V.B.N.V.V.N.B.V.B.^.",
"!.k.x.0.x.c.v.x.c.b.v.v.n.n.b.b.N.N.N.N.B.N.N.B.B.N.B.V.B.N.N.^.",
"Q.4.0.8.0.x.x.x.x.c.x.v.b.b.v.b.M.b.b.M.N.N.N.N.B.N.N.V.B.N.N.~.",
"Q.2.8.k.8.8.x.x.x.0.c.c.x.v.z.b.v.b.n.b.b.M.N.N.N.B.B.N.N.B.N.!.",
"W.2.7.8.7.8.8.0.0.0.x.x.x.x.v.v.v.v.b.b.b.b.n.b.b.N.N.N.N.B.N.!.",
"F.3.7.1.3.4.7.5.8.k.8.8.x.x.0.x.c.v.x.b.z.v.v.n.n.b.b.N.N.m.M.!.",
"A.<.1.5.5.5.5.5.7.8.7.8.8.0.0.0.x.x.x.x.c.v.v.b.b.b.b.n.b.b.z.W.",
"a.%.<.2.1.1.5.3.2.-.>.>.>.3.k.0.7.4.d.6.6.d.d.x.v.b.b.v.b.n.z.H.",
"a.` -.-.1.1.-.} Q h.C.C.g.[ >.2.;.f.s.s.s.s.s.:.,.k.v.v.v.b.l.G.",
"p.` ] =.-.>.{ Z.oXU.r.r.R._.j.[ Y.(.(.(.(.(.(.oXP.;.k.c.x.x.l.S.",
"p.( _ %.=.&.! ).@ . . . X ; ).w OXo . X X X X @ I.C.,.x.x.x.k.D.",
"i./ _ _ ] ' Z.k . . n * X o J.b XXX   + > * . . % ).| 8.0.x.k.D.",
"u._ _ ) _ U Y.> . . J.(.I.I./.7 `.X   : L.T.* . o `.[ 8.8.8.4.a.",
"y._ _ ) _ ( E r.X . . X , J.w.< /.X   + ; & . . ; K.} 4.7.7.4.a.",
"q./ _ _ _ / e x X.% X . . o X.9 T.X   . . . . : I.v *.5.7.8.3.p.",
"q.( _ _ _ ~ c X. .X.t.h . . * M J.X   $ n O . $ t.u *.1.5.3.2.i.",
"$._ _ ) _ C ..+ X O  .n . . * g e.X . % j , . . , z ' &.%.%.%.q.",
"@._ _ _ _ ^ 0 > . . . . . o d = m o . $ d k @ . o l r ( _ ) ( #.",
"+./ _ _ _ / Z 5 - + o o # , 5 q s $ $ * 3 1 , $ $ : y ~ _ _ ( O.",
"O.( _ _ ) _ ( B 2 s f f p 6 S ~ t a i 4 r V 8 i i 7 S / _ _ ( O.",
"O._ _ / _ _ ) / K V N N C ^ / _ ^ D A ^ ( / ~ S S ~ ( _ _ / ( O.",
"o.( _ _ ) _ _ _ _ _ _ _ _ ) _ _ _ _ _ _ _ _ _ _ _ _ _ _ ) _ ( o.",
"o./ _ _ ) ) _ _ ) ) _ _ / _ _ _ / _ _ ) ) _ _ ) _ _ _ / _ _ ( R ",
"R ( ) ) ) _ ) ) _ _ ) ) _ ) ) ) _ ) ) _ _ ) ) _ ) ) ) _ ) ) ( R ",
"R ( ) / _ _ ) ) _ _ / ) _ _ / _ _ ) ) _ _ ) ) _ _ / _ _ ) / ( R ",
"T / _ _ ) ) _ _ ) ) _ _ ) ) _ ) ) _ _ ) ) _ _ ) ) _ ) ) ) _ ( T ",
"Y / _ _ ) ) _ _ / ) _ _ ) ) _ ) ) _ _ / / _ _ / ) _ _ ) _ _ ( P ",
"P ( ) / _ _ ) / _ _ ) ) _ ) ) _ _ ) / _ _ / ) _ _ ) ) _ ) ) ( P ",
"I L ( / ( L / / L ( / ( L ( / ( L / / L L / / L ( / ( L ( / L W ",
"E.F J J H H J J H H J J H H J H H J J H H J J H H J H H J J G E."
};
