/* XPM */
static char *AtmShpUpdt[] = {
/* columns rows colors chars-per-pixel */
"32 32 195 2",
"   c #1E2532",
".  c #202735",
"X  c #212837",
"o  c #242C3C",
"O  c #2A3244",
"+  c #2C3448",
"@  c #2F394D",
"#  c #30394E",
"$  c #323C51",
"%  c #364158",
"&  c #39455D",
"*  c #3D4A64",
"=  c #2C4C7E",
"-  c #424F6C",
";  c #42516E",
":  c #465574",
">  c #4C5C7C",
",  c #114389",
"<  c #1B519E",
"1  c #365485",
"2  c #3A5685",
"3  c #255194",
"4  c #25559E",
"5  c #28559A",
"6  c #2D5A9E",
"7  c #365891",
"8  c #3A5A91",
"9  c #325C9C",
"0  c #1751A3",
"q  c #1C57AB",
"w  c #0955BD",
"e  c #1E60BD",
"r  c #3A61A0",
"t  c #3E66A9",
"y  c #4B5E83",
"u  c #526286",
"i  c #53658A",
"p  c #576A8F",
"a  c #466191",
"s  c #5B6E95",
"d  c #546C9B",
"f  c #5C7098",
"g  c #62759E",
"h  c #506CA3",
"j  c #5876AB",
"k  c #5B79AF",
"l  c #406BB1",
"z  c #5176B3",
"x  c #5879B3",
"c  c #6479A4",
"v  c #677CA9",
"b  c #637EB1",
"n  c #607FBB",
"m  c #0555C5",
"M  c #0958C6",
"N  c #0557C8",
"B  c #0B5CCE",
"V  c #055DD5",
"C  c #085FD7",
"Z  c #045DD9",
"A  c #1768CF",
"S  c #1A69CF",
"D  c #0A60D4",
"F  c #0668D4",
"G  c #0A69D4",
"H  c #0B63D9",
"J  c #096EDE",
"K  c #126ED6",
"L  c #1E6DD2",
"P  c #1271D7",
"I  c #1475D8",
"U  c #1B7CD8",
"Y  c #3676CF",
"T  c #226DD2",
"R  c #2670DC",
"E  c #3A77D5",
"W  c #3779DD",
"Q  c #045FE0",
"!  c #0664E2",
"~  c #0B66E2",
"^  c #056EE3",
"/  c #096EE2",
"(  c #176BE1",
")  c #1A6CE2",
"_  c #0670E5",
"`  c #0971E4",
"'  c #1275E2",
"]  c #167EE6",
"[  c #2175E2",
"{  c #2B74E0",
"}  c #247CE4",
"|  c #2D7FE4",
" . c #327EE3",
".. c #3C7FE2",
"X. c #4676C2",
"o. c #6681B5",
"O. c #6D84B3",
"+. c #7289BA",
"@. c #2283D9",
"#. c #2C8ADA",
"$. c #318FDA",
"%. c #3594DB",
"&. c #3894DB",
"*. c #3A99DB",
"=. c #1C83E5",
"-. c #2285E6",
";. c #248BE7",
":. c #2B8DE7",
">. c #3A81E3",
",. c #348BE5",
"<. c #398CE5",
"1. c #2E91E6",
"2. c #2D92E8",
"3. c #3394E6",
"4. c #3892E6",
"5. c #3698E7",
"6. c #3C9BE6",
"7. c #3196E8",
"8. c #3699E8",
"9. c #3B9DE9",
"0. c #3DA0E6",
"q. c #3EA1E9",
"w. c #449EDC",
"e. c #6687C4",
"r. c #778EC2",
"t. c #7892C6",
"y. c #7392CF",
"u. c #7C95CA",
"i. c #638CD2",
"p. c #48A4DD",
"a. c #4DA8DD",
"s. c #52ACDE",
"d. c #59B2DE",
"f. c #64BBDF",
"g. c #4284E2",
"h. c #4D8EE3",
"j. c #528DE2",
"k. c #419DE7",
"l. c #5795E3",
"z. c #5F95E3",
"x. c #6C9BE2",
"c. c #42A3E6",
"v. c #48A7E6",
"b. c #4CACE7",
"n. c #43A4E9",
"m. c #49A7E9",
"M. c #46A9EA",
"N. c #4BACEA",
"B. c #51AFEA",
"V. c #4EB1EB",
"C. c #53B0E7",
"Z. c #54B4EA",
"A. c #59B7EA",
"S. c #5BB9EB",
"D. c #77A6E3",
"F. c #7FA0E1",
"G. c #6BC1DF",
"H. c #79CCDF",
"J. c #6CC3E0",
"K. c #75CCE1",
"L. c #7ACEE1",
"P. c #7DD2E1",
"I. c #86A2DB",
"U. c #80A7E3",
"Y. c #8DACE2",
"T. c #86B2E5",
"R. c #89B9E6",
"E. c #94B3E3",
"W. c #99B7E4",
"Q. c #95B9E5",
"!. c #99B9E4",
"~. c #9CC8CE",
"^. c #9DC6E6",
"/. c #83D7E1",
"(. c #87DCE2",
"). c #8DDDE3",
"_. c #97DEE2",
"`. c #99DEE3",
"'. c #A2C3E5",
"]. c #A8CBE6",
"[. c #ACD0E7",
"{. c #B2D6E8",
"}. c #B3D8E8",
"|. c #9DECF1",
" X c #B7E1E4",
".X c #BAE2E5",
"XX c #BEE4E9",
"oX c #A3ECF1",
"OX c #AAECF1",
"+X c #B2EDF1",
"@X c #C1DBDF",
"#X c #CCDBDF",
"$X c #C0E7EA",
"%X c #C2EBED",
"&X c #CCECEC",
/* pixels */
"@X%X+X|.|.oX|.|.oXoX|.|.oXoX|.oXoXoXoXoXOXoXoXoXoXoXoXOXoXOX%X#X",
" Xc.M.N.N.M.N.B.N.N.C.Z.Z.Z.Z.Z.Z.Z.S.Z.Z.S.S.A.A.S.S.A.A.S.Z..X",
"_.0.n.m.M.n.m.b.M.M.B.C.N.N.Z.Z.Z.Z.A.Z.Z.A.S.A.Z.S.S.Z.A.S.A.`.",
").c.n.q.n.m.M.n.m.N.M.M.B.B.N.N.Z.Z.Z.Z.A.Z.Z.A.A.Z.A.S.A.Z.Z.`.",
"(.6.q.9.q.n.n.n.n.m.n.M.N.N.M.N.C.N.N.C.Z.Z.Z.Z.A.Z.Z.S.A.Z.Z._.",
"(.3.8.c.9.9.n.n.n.q.m.m.n.M.b.N.M.N.B.N.N.C.Z.Z.Z.A.A.Z.Z.A.Z.).",
"/.3.8.6.8.9.9.q.q.q.n.n.n.n.M.M.M.M.N.N.N.N.B.N.N.Z.Z.Z.Z.A.Z.).",
"K.4.8.2.5.9.8.7.9.c.9.9.n.n.q.n.m.M.n.N.b.M.M.B.B.N.N.Z.Z.V.C.).",
"G.1.2.7.7.7.7.7.8.6.8.9.9.q.q.q.n.n.n.n.m.M.M.N.N.N.N.B.N.N.b./.",
"f.=.1.3.2.2.7.5.1.:.,.,.3.8.c.9.5.6.k.q.q.n.n.9.c.N.N.M.N.B.b.P.",
"f.' :.:.2.2.:.} W x.D.D.g.| 3.,.g.j.j.>.4.<.h.j.l.<.n.M.M.N.v.L.",
"d.' ] ;.:.:.[ T.XXI.u.u.{.T...E XX].].%XY z.{.].].R.<.m.n.n.v.H.",
"d./ ` =.;.} x.Y.X       . O.U.x.t.X X '.X.^.y . X &X .n.n.n.c.J.",
"s.^ ` ` ] ) [.%   O +.+ . X [.e.+.    !.l Q.>   . $X{ 9.q.n.c.J.",
"a.` ` _ ` B }.X   $ W.'.Y.Y.].n O.    Y.t Y.:   . }.{ 9.9.9.6.f.",
"p.` ` _ ` H i.f       O i E.k x c     I.r F.;   . '.{ 6.8.8.6.f.",
"w.^ ` ` ` ! q j f @       + I.h f     t.9 y.*   . E.R 7.8.6.5.d.",
"w./ ` ` _ Z z O.O.t.t.:     i a i     O.= o.*   X I.R 2.7.5.3.s.",
"*.` ` _ / e v X . % +.u     u 1 f     - r.v o   $ b ( -.=.=.=.w.",
"%.` ` ` ` B d %           o g , d #           . i 6 ! ` ` _ / &.",
"$.^ ` ` ` ! 4 s & o . X % i 7 m 5 s & o . X @ > 8 B / _ ` ` / #.",
"#./ ` ` _ ` ! 0 2 i p p 2 < C / ! 0 2 i p p y 3 V / ` _ ` ` / #.",
"#.` ` ^ ` ` _ ! D M m N D ~ ^ ` ` / Q M w m V ~ / ^ ` ` ` ^ / #.",
"@./ ` ` _ ` ` ` ` ` ` ` ` _ ` ` ` ` ` ` ` ` ` ` ` ` ` ` _ ` / @.",
"@.^ ` ` _ _ ` ` _ _ ` ` ^ ` ` ` ^ ` ` _ _ ` ` _ ` ` ` ^ ` ` / U ",
"U / _ _ _ ` _ _ ` ` _ _ ` _ _ _ ` _ _ ` ` _ _ ` _ _ _ ` _ _ / U ",
"U / _ ^ ` ` _ _ ` ` ^ _ ` ` ^ ` ` _ _ ` ` _ _ ` ` ^ ` ` _ ^ / U ",
"I ^ ` ` _ _ ` ` _ _ ` ` _ _ ` _ _ ` ` _ _ ` ` _ _ ` _ _ _ ` / I ",
"P ^ ` ` _ _ ` ` ^ _ ` ` _ _ ` _ _ ` ` ^ ^ ` ` ^ _ ` ` _ ` ` / K ",
"K / _ ^ ` ` _ ^ ` ` _ _ ` _ _ ` ` _ ^ ` ` ^ _ ` ` _ _ ` _ _ / K ",
"L J / ^ / J ^ ^ J / ^ / J / ^ / J ^ ^ J J ^ ^ J / ^ / J / ^ J T ",
"~.A G G F F G G F F G G F F G F F G G F F G G F F G F F G G S ~."
};
