/* XPM */
static char *AtmTrnsfrInflnc[] = {
/* columns rows colors chars-per-pixel */
"32 32 160 2",
"   c #1C222E",
".  c #1D2431",
"X  c #202735",
"o  c #212837",
"O  c #222A39",
"+  c #293243",
"@  c #333E54",
"#  c #38435A",
"$  c #3D4A64",
"%  c #42516E",
"&  c #465573",
"*  c #4A5979",
"=  c #33558C",
"-  c #375A94",
";  c #385C91",
":  c #1354B1",
">  c #125ABC",
",  c #2155A3",
"<  c #415B86",
"1  c #4E5F80",
"2  c #425C89",
"3  c #48618F",
"4  c #516B9C",
"5  c #5A76AA",
"6  c #5079BD",
"7  c #6A7FAC",
"8  c #0354C4",
"9  c #0955C0",
"0  c #0858C4",
"q  c #0557C8",
"w  c #065DD7",
"e  c #095ED2",
"r  c #045DDB",
"t  c #1C65CE",
"y  c #1768CF",
"u  c #1B69CF",
"i  c #0C61D3",
"p  c #0668D4",
"a  c #0A69D4",
"s  c #096EDE",
"d  c #126ED6",
"f  c #1E6DD2",
"g  c #1E6BD9",
"h  c #1271D7",
"j  c #1475D8",
"k  c #1B7CD8",
"l  c #2063C4",
"z  c #226DD2",
"x  c #206CDB",
"c  c #2972DA",
"v  c #0664E3",
"b  c #0964E1",
"n  c #056EE3",
"m  c #096EE1",
"M  c #0670E5",
"N  c #0971E4",
"B  c #0E79E5",
"V  c #1276E3",
"C  c #1D71E2",
"Z  c #167EE6",
"A  c #1E7EE5",
"S  c #2175E2",
"D  c #2873E2",
"F  c #247AE3",
"G  c #2E7DE3",
"H  c #337AE2",
"J  c #6785BD",
"K  c #2283D9",
"L  c #2C8ADA",
"P  c #318FDA",
"I  c #3594DB",
"U  c #3894DB",
"Y  c #3A99DB",
"T  c #1C83E6",
"R  c #2184E6",
"E  c #2B82E4",
"W  c #248BE7",
"Q  c #298DE7",
"!  c #3687E4",
"~  c #308EE7",
"^  c #3A8DE5",
"/  c #2E91E6",
"(  c #2D92E8",
")  c #3494E6",
"_  c #3B97E7",
"`  c #3698E7",
"'  c #3C9CE6",
"]  c #3196E8",
"[  c #3599E8",
"{  c #3B9DE9",
"}  c #3DA0E6",
"|  c #3EA1E9",
" . c #5781CA",
".. c #449EDC",
"X. c #778EC2",
"o. c #7890C4",
"O. c #7394D2",
"+. c #48A4DD",
"@. c #4DA8DD",
"#. c #52ACDE",
"$. c #59B2DE",
"%. c #64BBDF",
"&. c #4286E2",
"*. c #4D87E1",
"=. c #4D8BE3",
"-. c #518BE2",
";. c #429EE7",
":. c #409EE8",
">. c #5592E3",
",. c #5C92E2",
"<. c #6E99E2",
"1. c #42A3E6",
"2. c #48A7E6",
"3. c #4CACE7",
"4. c #43A5E9",
"5. c #49A7E9",
"6. c #46A9EA",
"7. c #4BACEA",
"8. c #51AFEA",
"9. c #4EB1EB",
"0. c #53B0E7",
"q. c #54B4EA",
"w. c #59B7EA",
"e. c #5BB9EB",
"r. c #75A2E3",
"t. c #7FA1E2",
"y. c #6BC1DF",
"u. c #79CCDF",
"i. c #6CC3E0",
"p. c #75CCE1",
"a. c #7ACEE1",
"s. c #7DD2E1",
"d. c #85A1DA",
"f. c #89ACE3",
"g. c #89B9E6",
"h. c #94B4E3",
"j. c #9BBFE5",
"k. c #9CC8CE",
"l. c #9DC8E7",
"z. c #83D7E1",
"x. c #87DCE2",
"c. c #8DDDE3",
"v. c #97DEE2",
"b. c #99DEE3",
"n. c #A4C6E6",
"m. c #A8CAE6",
"M. c #B2D6E8",
"N. c #B3D8E8",
"B. c #9DECF1",
"V. c #B7E1E4",
"C. c #BAE2E5",
"Z. c #BEE4E9",
"A. c #A3ECF1",
"S. c #AAECF1",
"D. c #B2EDF1",
"F. c #C1DBDF",
"G. c #CCDBDF",
"H. c #C0E7EA",
"J. c #C0ECEE",
"K. c #CCECEC",
/* pixels */
"F.J.D.B.B.A.B.B.A.A.B.B.A.A.B.A.A.A.A.A.S.A.A.A.A.A.A.S.A.S.J.G.",
"V.1.6.7.7.6.7.8.7.7.0.q.q.q.q.q.q.q.e.q.q.e.e.w.w.e.e.w.w.e.q.C.",
"v.} 4.5.6.4.5.3.6.6.8.0.7.7.q.q.q.q.w.q.q.w.e.w.q.e.e.q.w.e.w.b.",
"c.1.4.| 4.5.6.4.5.7.6.6.8.8.7.7.q.q.q.q.w.q.q.w.w.q.w.e.w.q.q.b.",
"x.' | { | 4.4.4.4.5.4.6.7.7.6.7.0.7.7.0.q.q.q.q.w.q.q.e.w.q.q.v.",
"x.) { 1.{ { 4.4.4.| 5.5.4.6.3.7.6.7.8.7.7.0.q.q.q.w.w.q.q.w.q.c.",
"z.) [ { [ { { | | | 4.4.4.4.6.6.6.6.7.7.7.7.8.7.7.q.q.q.q.w.q.c.",
"p.) [ ( ` ' [ [ { 1.{ { 4.4.| 4.5.6.4.7.3.6.6.8.8.7.7.q.q.9.0.c.",
"y./ ( ] ] ] [ [ [ { [ { { | | | 4.4.4.4.5.6.6.7.7.7.7.8.7.7.3.z.",
"%.T / ) ( ( ] ` ] / ) ) ~ ) _ _ ) { 1.{ _ ;.5.4.6.7.7.6.7.8.3.s.",
"%.V Q Q ( / ( / E &.*.*.*.=.-.-.-.&.G =.-.>.! :.4.4.6.6.6.7.2.a.",
"$.V Z W Q ) ( R ,.M.m.m.m.m.m.m.m.Z. .M.m.m.g.^ 4.| 4.5.4.4.2.u.",
"$.m N T W W Q F l.1 o X . . X X o o.j.1 X O K.G | | 1.4.4.4.1.i.",
"#.n N B Z R Q F r.7 * * .   + * * d.h.* . X H.D { :.| { | 4.1.i.",
"@.N N M N V T R H <.f.N.. . & f.f.6 f.& . X N.c [ [ [ { { { ' %.",
"+.N N M N B N B A F : n.X . % t.l t t.% . X n.c ` ] [ ' [ [ ' %.",
"..n N B N M N N M B t h.X . $ O.C S O.$ . X h.x ( ` ] ] [ { ` $.",
"..m N N N M N N M M 9 d.X . $ J C C J $ . X d.g ( ] ] ( ] ` ) #.",
"Y N N M N N M M N N 8 X.X . # 5 i i 5 # . X X.u W R T R T T T ..",
"I N N N N N N N N N q 7 o . @ 4 e w 4 @ . o 7 0 N M N N N M m U ",
"P n N N N M N N M M e 3 @ @ $ - v b ; $ @ @ 3 w N N N M N N m L ",
"L m N N M N N N N N b , 2 < = > m m > = < 2 , v M N N M N N m L ",
"L N N n N N M M N N n v i e v m N N n b e r v N N n N N N n m L ",
"K m N N M N N N N N N N N M N N N N N N N N N N N N N N M N m K ",
"K n N N M M N N M M N N n N N N n N N M M N N M N N N n N N m k ",
"k m M M M N M M N N M M N M M M N M M N N M M N M M M N M M m k ",
"k m M n N N M M N N n M N N n N N M M N N M M N N n N N M n m k ",
"j n N N M M N N M M N N M M N M M N N M M N N M M N M M M N m j ",
"h n N N M M N N n M N N M M N M M N N n n N N n M N N M N N m d ",
"d m M n N N M n N N M M N M M N N M n N N n M N N M M N M M m d ",
"f s m n m s n n s m n m s m n m s n n s s n n s m n m s m n s z ",
"k.y a a p p a a p p a a p p a p p a a p p a a p p a p p a a u k."
};
