/* XPM */
static char *AtmTrnsfrWght[] = {
/* columns rows colors chars-per-pixel */
"32 32 184 2",
"   c #1C222E",
".  c #1D2531",
"X  c #202735",
"o  c #212837",
"O  c #242D3C",
"+  c #293243",
"@  c #2D3549",
"#  c #333E55",
"$  c #38435A",
"%  c #3E4A65",
"&  c #414E6A",
"*  c #42516E",
"=  c #465472",
"-  c #485574",
";  c #4A5A7A",
":  c #204C8D",
">  c #2E548F",
",  c #325487",
"<  c #32558D",
"1  c #23549A",
"2  c #385C91",
"3  c #375C98",
"4  c #1C55A6",
"5  c #1A57AC",
"6  c #054FB5",
"7  c #0A55BD",
"8  c #125ABB",
"9  c #2155A3",
"0  c #2B65B7",
"q  c #3365B1",
"w  c #425B86",
"e  c #4E5F80",
"r  c #505F80",
"t  c #48618F",
"y  c #506083",
"u  c #546589",
"i  c #596C93",
"p  c #516B9B",
"a  c #5D719E",
"s  c #5A77AB",
"d  c #4D79BD",
"f  c #6377A2",
"g  c #6A7FAC",
"h  c #0453C2",
"j  c #0A58C3",
"k  c #0A5ACA",
"l  c #055CD6",
"z  c #095DD2",
"x  c #055EDA",
"c  c #1D65CA",
"v  c #1768CF",
"b  c #1A69CF",
"n  c #0668D4",
"m  c #0A69D4",
"M  c #0760DD",
"N  c #0962DD",
"B  c #096EDE",
"V  c #1966D5",
"C  c #126ED6",
"Z  c #1E6DD2",
"A  c #1C6CDD",
"S  c #1271D7",
"D  c #1475D8",
"F  c #1B7CD8",
"G  c #3671CC",
"H  c #226DD2",
"J  c #216CDB",
"K  c #3477DD",
"L  c #3A79D9",
"P  c #0665E2",
"I  c #0A65E1",
"U  c #056EE3",
"Y  c #096EE1",
"T  c #0670E5",
"R  c #0971E4",
"E  c #1275E2",
"W  c #1975E3",
"Q  c #167CE6",
"!  c #2079E4",
"~  c #307FE3",
"^  c #387FE2",
"/  c #4C7FCF",
"(  c #6A81AF",
")  c #6D84B3",
"_  c #6584BB",
"`  c #738CBD",
"'  c #2283D9",
"]  c #2C8ADA",
"[  c #318FDA",
"{  c #3594DB",
"}  c #3894DB",
"|  c #3A99DB",
" . c #1D83E5",
".. c #2483E6",
"X. c #2B8DE7",
"o. c #3085E4",
"O. c #3C83E3",
"+. c #318CE6",
"@. c #388CE5",
"#. c #2E91E6",
"$. c #2F94E8",
"%. c #3494E6",
"&. c #3A97E7",
"*. c #3698E7",
"=. c #3D9CE6",
"-. c #3295E8",
";. c #359AE9",
":. c #3B9DE9",
">. c #3DA0E6",
",. c #3EA1E9",
"<. c #5987CF",
"1. c #449EDC",
"2. c #778EC2",
"3. c #6D90CF",
"4. c #7890C4",
"5. c #7192CF",
"6. c #7B95CA",
"7. c #6B90D2",
"8. c #7F99D1",
"9. c #7599DB",
"0. c #48A4DD",
"q. c #4DA8DD",
"w. c #52ACDE",
"e. c #59B2DE",
"r. c #64BBDF",
"t. c #4384E2",
"y. c #4B85E0",
"u. c #418AE3",
"i. c #4E89E2",
"p. c #528BE2",
"a. c #429DE7",
"s. c #5691E3",
"d. c #7C9EE0",
"f. c #42A3E6",
"g. c #48A7E6",
"h. c #4CACE7",
"j. c #43A5E9",
"k. c #49A5E9",
"l. c #46A9EA",
"z. c #4BACEA",
"x. c #51AFEA",
"c. c #4EB1EB",
"v. c #53B0E7",
"b. c #54B4EA",
"n. c #59B7EA",
"m. c #5BB9EB",
"M. c #6FA2E3",
"N. c #79A0E2",
"B. c #6BC1DF",
"V. c #79CCDF",
"C. c #6CC3E0",
"Z. c #75CCE1",
"A. c #7ACEE1",
"S. c #7DD2E1",
"D. c #819DD5",
"F. c #86A2DB",
"G. c #88A7E2",
"H. c #89ADE3",
"J. c #87B2E4",
"K. c #8FB1E3",
"L. c #95B4E3",
"P. c #9CC8CE",
"I. c #9DC0E5",
"U. c #83D7E1",
"Y. c #87DCE2",
"T. c #8DDDE3",
"R. c #97DEE2",
"E. c #99DEE3",
"W. c #A3C4E6",
"Q. c #A8CAE6",
"!. c #ACD0E7",
"~. c #B2D6E8",
"^. c #B3D8E8",
"/. c #9DECF1",
"(. c #B7E1E4",
"). c #BAE2E5",
"_. c #BEE4E9",
"`. c #A3ECF1",
"'. c #AAECF1",
"]. c #B2EDF1",
"[. c #C1DBDF",
"{. c #CCDBDF",
"}. c #C0E7EA",
"|. c #C4EBEC",
/* pixels */
"[.|.]././.`././.`.`././.`.`./.`.`.`.`.`.'.`.`.`.`.`.`.'.`.'.|.{.",
"(.f.l.z.z.l.z.x.z.z.v.b.b.b.b.b.b.b.m.b.b.m.m.n.n.m.m.n.n.m.b.).",
"R.>.j.l.l.j.l.z.l.l.x.v.z.z.b.b.b.b.n.b.b.n.m.n.b.m.m.b.n.m.n.E.",
"T.f.j.,.j.z.l.j.l.z.l.l.x.x.z.z.b.b.b.b.n.b.b.n.n.b.n.m.n.b.b.E.",
"Y.=.,.:.,.j.j.j.j.l.j.l.z.z.l.z.v.z.z.v.b.b.b.b.n.b.b.m.n.b.b.R.",
"Y.%.:.f.:.:.j.j.j.,.k.k.j.l.h.z.l.z.x.z.z.v.b.b.b.n.n.b.b.n.b.T.",
"U.%.;.:.;.:.:.,.,.,.j.j.j.j.l.l.l.l.z.z.z.z.x.z.z.b.b.b.b.n.b.T.",
"Z.%.;.$.*.=.;.;.=.f.:.:.j.j.,.j.k.l.j.z.h.l.l.x.x.z.z.b.b.c.v.T.",
"B.#.$.-.-.-.;.;.*.:.;.:.:.,.,.,.j.j.j.j.k.l.l.z.z.z.z.x.z.z.h.U.",
"r. .#.%.#.X.+.%.X.X.%.%.+.%.=.&.*.=.j.:.&.a.k.j.j.k.k.j.z.x.h.S.",
"r.E X.X...^ y.y.y.y.y.y.i.t.L p.s.~ +.u.p.p.O.@.O.s.s.u.a.z.g.A.",
"e.E Q ..K _.Q.Q.Q.Q.Q.Q.Q.~._.Q.Q.J./ _.Q.Q.|.q |.Q.Q.|.u.j.g.V.",
"e.Y R W M.4.o X X . . X o e L.o o W.K.i X o D.3.4.o o }.O.j.f.C.",
"w.U R Y p.F.; ; +   . ; ; g !.X . 6.}.o   . ; L.u . # !.~ j.f.C.",
"q.R R U M / H.G.= . . ^.H.7.I.# . r F..     X Q.+ . i N.o.:.=.r.",
"0.R R T R Y 6 d.* . X W.5 c 9.; . + i . & . . ( . . ) <.+.;.=.r.",
"1.U R R R T z 5.% . X L.V ! d f . . @ . f = . @ . . 8.G %.:.*.e.",
"1.U R R R T z _ % . X F.k Q 0 ` .     X ` i .     o F.J -.*.%.w.",
"| R R T R R l s $ . X 2.7 R h 2.o     O ) ) X   . $ s A  . . .1.",
"{ R R R R R l p # . o g j R l p # . . % w a @ . . - 3 I R T Y } ",
"[ U R R R T I 2 % # # t l R I 1 ; # # ; : , & # # y 4 P R R Y ] ",
"] Y R R T R Y 8 < w w 9 P T Y M 1 w w 1 l j > w w 1 P T R R U ] ",
"] R R U R R T U N z x P R R U Y I x x I Y U P z z P R R R U Y ] ",
"' Y R R T R R R R R R R R T R R R R R R R R R R R R R R T R Y ' ",
"' U R R T T R R T T R R U R R R U R R T T R R T R R R U R R Y F ",
"F Y T T R R T T R R T T R T T R R T T R R T T R R T T R T T Y F ",
"F Y R U R R T T R R U T R R U R R T T R R T T R R U R R T U Y F ",
"D U R R T T R R T T R R T T R T T R R T T R R T T R T T R R Y D ",
"S U R R T T R R U T R R T T R T T R R U U R R U T R R T R R Y C ",
"C Y T U R R T U R R T T R T T R R T U R R U T R R T T R T T Y C ",
"Z B Y U Y B U U B Y U Y B Y U Y B U U B B U U B Y U Y B Y U B H ",
"P.v m m n n m m n n m m n n m n n m m n n m m n n m n n m m b P."
};
