/* XPM */
static char *AtmWghtUtl[] = {
/* columns rows colors chars-per-pixel */
"32 32 189 2",
"   c #1C222E",
".  c #1E2532",
"X  c #202735",
"o  c #212837",
"O  c #242D3C",
"+  c #2B3346",
"@  c #2D3549",
"#  c #2F394E",
"$  c #333E55",
"%  c #11366C",
"&  c #364158",
"*  c #38435A",
"=  c #3D4A64",
"-  c #414E6A",
";  c #42516E",
":  c #465573",
">  c #495675",
",  c #4B5B7B",
"<  c #19498F",
"1  c #154994",
"2  c #1B4C93",
"3  c #1C519D",
"4  c #224C8B",
"5  c #2D548F",
"6  c #3C5785",
"7  c #325489",
"8  c #37588F",
"9  c #23549B",
"0  c #345893",
"q  c #1655AB",
"w  c #1A54A9",
"e  c #1D5AB3",
"r  c #2057A6",
"t  c #2C60AC",
"y  c #2161BD",
"u  c #425B86",
"i  c #4E5F80",
"p  c #505F80",
"a  c #506083",
"s  c #536589",
"d  c #576A8F",
"f  c #586A8F",
"g  c #446091",
"h  c #596C93",
"j  c #516B9A",
"k  c #5D719E",
"l  c #62759E",
"z  c #4A6CA9",
"x  c #5B73A3",
"c  c #4471BA",
"v  c #6377A2",
"b  c #657FAF",
"n  c #0655C2",
"m  c #0A57C2",
"M  c #0C58C4",
"N  c #0556C9",
"B  c #085ACC",
"V  c #075DD5",
"C  c #095ED5",
"Z  c #055EDA",
"A  c #1768CF",
"S  c #1A69CF",
"D  c #0668D4",
"F  c #0A69D4",
"G  c #0760DB",
"H  c #0B66DD",
"J  c #096EDE",
"K  c #126ED6",
"L  c #1E6DD2",
"P  c #1271D7",
"I  c #1475D8",
"U  c #1B7CD8",
"Y  c #226DD2",
"T  c #3275D7",
"R  c #0664E1",
"E  c #0966E2",
"W  c #056EE3",
"Q  c #096EE1",
"!  c #0670E5",
"~  c #0971E4",
"^  c #1275E2",
"/  c #1B73E3",
"(  c #167AE5",
")  c #2577E3",
"_  c #2C73E0",
"`  c #2A7DE3",
"'  c #3077E2",
"]  c #347EE2",
"[  c #3A7FE2",
"{  c #4D7ECA",
"}  c #6A81AF",
"|  c #6D84B3",
" . c #738CBD",
".. c #2283D9",
"X. c #2C8ADA",
"o. c #318FDA",
"O. c #3594DB",
"+. c #3894DB",
"@. c #3A99DB",
"#. c #1C83E5",
"$. c #2681E5",
"%. c #2F82E3",
"&. c #2A8CE7",
"*. c #3583E4",
"=. c #358BE5",
"-. c #2D91E6",
";. c #2F93E8",
":. c #3495E6",
">. c #3D95E7",
",. c #3698E7",
"<. c #3D9CE6",
"1. c #3296E8",
"2. c #359AE9",
"3. c #3B9CE9",
"4. c #3DA0E6",
"5. c #3EA1E9",
"6. c #449EDC",
"7. c #6787C2",
"8. c #6B8DCF",
"9. c #758DC1",
"0. c #7890C4",
"q. c #7B95CA",
"w. c #7395D2",
"e. c #7E99D2",
"r. c #7298DB",
"t. c #48A4DD",
"y. c #4DA8DD",
"u. c #52ACDE",
"i. c #59B2DE",
"p. c #64BBDF",
"a. c #4B85E1",
"s. c #4C89E2",
"d. c #528DE2",
"f. c #429DE7",
"g. c #5492E3",
"h. c #669BE3",
"j. c #42A3E6",
"k. c #48A4E7",
"l. c #4CACE7",
"z. c #43A5E9",
"x. c #49A7E9",
"c. c #46A9EA",
"v. c #4BACEA",
"b. c #51AFEA",
"n. c #4EB1EB",
"m. c #53B0E7",
"M. c #54B4EA",
"N. c #59B7EA",
"B. c #5BB9EB",
"V. c #6BC1DF",
"C. c #79CCDF",
"Z. c #6CC3E0",
"A. c #75CCE1",
"S. c #7ACEE1",
"D. c #7DD2E1",
"F. c #819DD5",
"G. c #86A2DB",
"H. c #80A3E2",
"J. c #88A6E2",
"K. c #84AFE4",
"L. c #8DB1E3",
"P. c #8AB9E6",
"I. c #94B4E3",
"U. c #96BBE5",
"Y. c #9CC8CE",
"T. c #9DC0E5",
"R. c #9ECAE7",
"E. c #83D7E1",
"W. c #87DCE2",
"Q. c #8DDDE3",
"!. c #97DEE2",
"~. c #99DEE3",
"^. c #A3C5E6",
"/. c #A8CAE6",
"(. c #ADD0E7",
"). c #B2D6E8",
"_. c #B3D8E8",
"`. c #9DECF1",
"'. c #B7E1E4",
"]. c #BAE2E5",
"[. c #BEE4E9",
"{. c #A3ECF1",
"}. c #AAECF1",
"|. c #B2EDF1",
" X c #C1DBDF",
".X c #CCDBDF",
"XX c #C0E7EA",
"oX c #C4EBEC",
"OX c #CCECEC",
/* pixels */
" XoX|.`.`.{.`.`.{.{.`.`.{.{.`.{.{.{.{.{.}.{.{.{.{.{.{.}.{.}.oX.X",
"'.j.c.v.v.c.v.b.v.v.m.M.M.M.M.M.M.M.B.M.M.B.B.N.N.B.B.N.N.B.M.].",
"!.4.z.x.c.z.x.v.c.c.b.m.v.v.M.M.M.M.N.M.M.N.B.N.M.B.B.M.N.B.N.~.",
"Q.j.z.5.z.x.c.z.x.v.c.c.b.b.v.v.M.M.M.M.N.M.M.N.N.M.N.B.N.M.M.~.",
"W.<.5.3.5.z.z.z.z.x.z.c.v.v.c.v.m.v.v.m.M.M.M.M.N.M.M.B.N.M.M.!.",
"W.:.3.j.3.3.z.z.z.5.x.x.z.c.l.v.c.v.b.v.v.m.M.M.M.N.N.M.M.N.M.Q.",
"E.:.2.3.2.3.3.5.5.5.z.z.z.z.c.c.c.c.v.v.v.v.b.v.v.M.M.M.M.N.M.Q.",
"A.:.2.;.,.<.2.1.<.j.3.3.z.z.5.z.x.c.z.v.l.c.c.b.b.v.v.M.M.n.m.Q.",
"V.-.;.1.1.1.1.1.,.3.2.3.<.5.5.5.z.z.z.z.x.c.c.v.v.v.v.b.v.v.l.E.",
"p.#.-.:.&.&.=.,.1.;.:.:.1.2.<.>.:.3.f.3.3.z.x.z.j.k.x.c.v.b.l.D.",
"p.^ &.$.] a.s.) ` [ s.s.] %.] d.d.T a.d.g.*.>.=.g.d.g.>.c.v.x.S.",
"i.^ ( ' [././.K.{ [././.oXt oX/./.oX)././.P._ P././.).h.>.z.k.C.",
"i.Q Q a.I.o o ^.L.h X o F.8.0.o o XXi X o OXr OXo X i R.=.z.j.Z.",
"u.W Q y (.X . q.XXo   . , I.s . $ /., . X XX2 XXX . , U.*.z.j.Z.",
"y.~ ~ N T.$ . p G..     X /.+ . h J.: . X _.2 _.X . : L.%.3.<.p.",
"t.~ ~ Z r., . # h . - . . } . . | e.; . X ^.1 ^.X . ; H.` 2.<.p.",
"6.W ~ E c v . . @ . v : . @ . . e.9.= . X I.< I.X . = w.` 3.:.i.",
"6.W ~ Q e  ..     X  .h .     o G.b = . X G.% G.X . = 7.` ,.:.u.",
"@.~ ~ W n 9.o     O | | X   . * x g > . . f 9.f . . > z / #.#.6.",
"O.~ ~ ~ V j $ . . = u k @ . . > 8 1 l O . . . . . O l q Q ! Q +.",
"o.W ~ ~ E 9 > $ $ , 4 7 - $ $ a w B 0 s & o X o & s 0 R ~ ~ Q X.",
"X.Q ~ ~ W G 9 u u 9 C M 5 u u 9 R Q C 3 6 d d d 6 3 Z W ~ ~ W X.",
"X.~ ~ W ~ ~ E Z C E W W H V Z E ~ ~ W E C N n m C R ~ ~ ~ W Q X.",
"..Q ~ ~ ! ~ ~ ~ ~ ~ ~ ~ ~ ! ~ ~ ~ ~ ~ ~ ~ ~ ~ ~ ~ ~ ~ ~ ! ~ Q ..",
"..W ~ ~ ! ! ~ ~ ! ! ~ ~ W ~ ~ ~ W ~ ~ ! ! ~ ~ ! ~ ~ ~ W ~ ~ Q U ",
"U Q ! ! ~ ~ ! ! ~ ~ ! ! ~ ! ! ~ ~ ! ! ~ ~ ! ! ~ ~ ! ! ~ ! ! Q U ",
"U Q ~ W ~ ~ ! ! ~ ~ W ! ~ ~ W ~ ~ ! ! ~ ~ ! ! ~ ~ W ~ ~ ! W Q U ",
"I W ~ ~ ! ! ~ ~ ! ! ~ ~ ! ! ~ ! ! ~ ~ ! ! ~ ~ ! ! ~ ! ! ~ ~ Q I ",
"P W ~ ~ ! ! ~ ~ W ! ~ ~ ! ! ~ ! ! ~ ~ W W ~ ~ W ! ~ ~ ! ~ ~ Q K ",
"K Q ! W ~ ~ ! W ~ ~ ! ! ~ ! ! ~ ~ ! W ~ ~ W ! ~ ~ ! ! ~ ! ! Q K ",
"L J Q W Q J W W J Q W Q J Q W Q J W W J J W W J Q W Q J Q W J Y ",
"Y.A F F D D F F D D F F D D F D D F F D D F F D D F D D F F S Y."
};
