/* XPM */
static char *AtomLck[] = {
/* columns rows colors chars-per-pixel */
"32 32 191 2",
"   c #1C222E",
".  c #1E2532",
"X  c #202735",
"o  c #212837",
"O  c #232C3B",
"+  c #293142",
"@  c #2C3448",
"#  c #323D53",
"$  c #364158",
"%  c #38435A",
"&  c #3D4A64",
"*  c #324D7A",
"=  c #36517E",
"-  c #414E6A",
";  c #43516E",
":  c #465573",
">  c #485574",
",  c #4D5C7D",
"<  c #03439C",
"1  c #32558D",
"2  c #3E5889",
"3  c #245395",
"4  c #2B5391",
"5  c #21539A",
"6  c #29589E",
"7  c #375D9A",
"8  c #1E57A4",
"9  c #1251AB",
"0  c #1C57A9",
"q  c #1255B3",
"w  c #2055A4",
"e  c #2D5CA3",
"r  c #3E63A3",
"t  c #2263BD",
"y  c #3468B3",
"u  c #415A85",
"i  c #4B5F83",
"p  c #425D8A",
"a  c #48608D",
"s  c #506083",
"d  c #52668C",
"f  c #586A8F",
"g  c #466194",
"h  c #44659A",
"j  c #5E729A",
"k  c #62759E",
"l  c #466AA6",
"z  c #456CAE",
"x  c #5971A0",
"c  c #4B76BC",
"v  c #6479A4",
"b  c #6A7FAC",
"n  c #0A5DCE",
"m  c #055CD5",
"M  c #095FD4",
"N  c #055EDB",
"B  c #1768CF",
"V  c #1A69CF",
"C  c #0668D4",
"Z  c #0A69D4",
"A  c #0760DB",
"S  c #0C65DC",
"D  c #096EDE",
"F  c #126ED6",
"G  c #1E6DD2",
"H  c #1271D7",
"J  c #1475D8",
"K  c #1B7CD8",
"L  c #2B6BC8",
"P  c #3A71CA",
"I  c #216DD4",
"U  c #3F77D1",
"Y  c #0463E2",
"T  c #0A65E1",
"R  c #056EE2",
"E  c #096EE1",
"W  c #1168E2",
"Q  c #0670E5",
"!  c #0971E4",
"~  c #1275E2",
"^  c #1B72E3",
"/  c #167EE6",
"(  c #2075E2",
")  c #2977E2",
"_  c #217CE5",
"`  c #2D7CE3",
"'  c #327AE1",
"]  c #397FE2",
"[  c #537FC8",
"{  c #457CD2",
"}  c #6A81AF",
"|  c #6C83B2",
" . c #6684BB",
".. c #738ABB",
"X. c #2283D9",
"o. c #2C8ADA",
"O. c #318FDA",
"+. c #3594DB",
"@. c #3894DB",
"#. c #3A99DB",
"$. c #1C83E5",
"%. c #2384E6",
"&. c #2B84E5",
"*. c #248BE7",
"=. c #2C8DE7",
"-. c #3281E3",
";. c #3B82E3",
":. c #368BE5",
">. c #2D90E6",
",. c #2D92E8",
"<. c #3495E6",
"1. c #3698E7",
"2. c #3C9BE6",
"3. c #3296E8",
"4. c #3599E8",
"5. c #3B9DE9",
"6. c #3DA0E6",
"7. c #3EA1E9",
"8. c #5881C6",
"9. c #5885CF",
"0. c #449EDC",
"q. c #7891C5",
"w. c #628DD9",
"e. c #6690D9",
"r. c #7393D1",
"t. c #7F99D1",
"y. c #48A4DD",
"u. c #4DA8DD",
"i. c #52ACDE",
"p. c #59B2DE",
"a. c #64BBDF",
"s. c #4A86E1",
"d. c #468DE4",
"f. c #4A8BE3",
"g. c #538DE2",
"h. c #429CE7",
"j. c #419EE8",
"k. c #5392E3",
"l. c #5D95E3",
"z. c #6392E0",
"x. c #6A97E2",
"c. c #42A3E6",
"v. c #48A7E6",
"b. c #4CACE7",
"n. c #43A5E9",
"m. c #49A7E9",
"M. c #46A9EA",
"N. c #4BACEA",
"B. c #51AFEA",
"V. c #4EB1EB",
"C. c #53B0E7",
"Z. c #54B4EA",
"A. c #59B7EA",
"S. c #5BB9EB",
"D. c #71A2E3",
"F. c #7FA3E2",
"G. c #6BC1DF",
"H. c #79CCDF",
"J. c #6CC3E0",
"K. c #75CCE1",
"L. c #7ACEE1",
"P. c #7DD2E1",
"I. c #84A0D9",
"U. c #8DAEE3",
"Y. c #87B1E4",
"T. c #90B2E3",
"R. c #95BBE5",
"E. c #99B9E4",
"W. c #9CC8CE",
"Q. c #9DC8E7",
"!. c #83D7E1",
"~. c #87DCE2",
"^. c #8DDDE3",
"/. c #97DEE2",
"(. c #99DEE3",
"). c #A1C2E5",
"_. c #A8CAE6",
"`. c #B2D6E8",
"'. c #B6DBE8",
"]. c #9DECF1",
"[. c #B7E1E4",
"{. c #BAE2E5",
"}. c #BEE4E9",
"|. c #A3ECF1",
" X c #AAECF1",
".X c #B2EDF1",
"XX c #C1DBDF",
"oX c #CCDBDF",
"OX c #C0E7EA",
"+X c #C3EAEC",
"@X c #CCECEC",
/* pixels */
"XX+X.X].].|.].].|.|.].].|.|.].|.|.|.|.|. X|.|.|.|.|.|. X|. X+XoX",
"[.c.M.N.N.M.N.B.N.N.C.Z.Z.Z.Z.Z.Z.Z.S.Z.Z.S.S.A.A.S.S.A.A.S.Z.{.",
"/.6.n.m.M.n.m.N.M.M.B.C.N.N.Z.Z.Z.Z.A.Z.Z.A.S.A.Z.S.S.Z.A.S.A.(.",
"^.c.n.7.n.m.M.n.m.N.M.M.B.B.N.N.Z.Z.Z.Z.A.Z.Z.A.A.Z.A.S.A.Z.Z.(.",
"~.2.7.5.7.n.n.n.n.m.n.M.N.N.M.N.C.N.N.C.Z.Z.Z.Z.A.Z.Z.S.A.Z.Z./.",
"~.<.5.c.5.5.n.n.n.7.m.m.n.M.b.N.M.N.B.N.N.C.Z.Z.Z.A.A.Z.Z.A.Z.^.",
"!.<.4.5.4.5.5.7.7.7.n.n.n.n.M.M.M.M.N.N.N.N.B.N.N.Z.Z.Z.Z.A.Z.^.",
"K.<.4.,.1.5.4.3.5.c.5.5.n.n.7.n.m.M.n.N.b.M.M.B.B.N.N.Z.Z.V.C.^.",
"G.>.,.3.3.3.3.3.1.5.4.5.5.7.7.7.n.n.n.n.m.M.M.N.N.N.N.B.N.N.b.!.",
"a.$.>.<.,.,.<.<.=.=.2.5.4.4.c.5.1.2.j.7.7.n.h.2.j.m.N.M.N.B.b.P.",
"a.~ =.=.,.>.&.] s.f.' =.4.4.1.&.f.g.k.-.:.] g.g.g.d.h.m.M.N.v.L.",
"p.~ / *.=.=.' }._._.+X` <.1.&.l.`._._.Y.e.+X_._._.}.d.m.n.n.v.H.",
"p.E ! $.*._ D.q.o o ).s.=.,.` Q.i X O @XOX; X o ; OX;.7.n.n.c.J.",
"i.R ! ! / ^ x.... . E.{ %.,.) R., . X OXj . . - '.z.:.5.7.n.c.J.",
"u.! ! Q ! W w.| . . U.U &.=.( U.: . . ...   + _.9.&.1.5.5.5.2.a.",
"y.! ! Q ! T [ v . . I.P &.=.^ F.; .   .     # T.t =.4.2.4.4.2.a.",
"0.R ! ! ! Y c j . . q.y ^ _ I r.& .     .   . } 8.&.3.3.4.5.<.p.",
"0.E ! ! ! Y z d . . | h z c 8  .& .   . : . . + t.L =.,.3.1.<.i.",
"#.! ! Q ! S r , . . - , , , g x % . . f b @ . . , l ^ %.$.$.$.0.",
"+.! ! ! ! T 7 > . . . . . O b d # . o b * s . . O k q E ! Q E @.",
"O.R ! ! ! Y 6 > # # # # # # i = & # # a < p $ # # : e Y ! ! E o.",
"o.E ! ! Q E A 3 u u u u u p 5 9 1 u u w N 0 2 u u 4 M R ! ! E o.",
"o.! ! R ! ! R Y M n m m n M Y E S m N T E Y Y n M Y E ! ! R E o.",
"X.E ! ! Q ! ! ! ! ! ! ! ! Q ! ! ! ! ! ! ! ! ! ! ! ! ! ! Q ! E X.",
"X.R ! ! Q Q ! ! Q Q ! ! R ! ! ! R ! ! Q Q ! ! Q ! ! ! R ! ! E K ",
"K E Q Q Q ! Q Q ! ! Q Q ! Q Q Q ! Q Q ! ! Q Q ! Q Q Q ! Q Q E K ",
"K E Q R ! ! Q Q ! ! R Q ! ! R ! ! Q Q ! ! Q Q ! ! R ! ! Q R E K ",
"J R ! ! Q Q ! ! Q Q ! ! Q Q ! Q Q ! ! Q Q ! ! Q Q ! Q Q Q ! E J ",
"H R ! ! Q Q ! ! R Q ! ! Q Q ! Q Q ! ! R R ! ! R Q ! ! Q ! ! E F ",
"F E Q R ! ! Q R ! ! Q Q ! Q Q ! ! Q R ! ! R Q ! ! Q Q ! Q Q E F ",
"G D E R E D R R D E R E D E R E D R R D D R R D E R E D E R D I ",
"W.B Z Z C C Z Z C C Z Z C C Z C C Z Z C C Z Z C C Z C C Z Z V W."
};
