/* XPM */
static char *AtomTmp[] = {
/* columns rows colors chars-per-pixel */
"32 32 83 1",
"  c #1768CF",
". c #1A69CF",
"X c #0668D4",
"o c #0A69D4",
"O c #096EDE",
"+ c #126ED6",
"@ c #1E6DD2",
"# c #1271D7",
"$ c #1475D8",
"% c #1B7CD8",
"& c #226DD2",
"* c #056EE3",
"= c #096FE1",
"- c #0670E5",
"; c #0A71E4",
": c #0F79E6",
"> c #1276E3",
", c #167EE6",
"< c #1B7FE5",
"1 c #2283D9",
"2 c #2C8ADA",
"3 c #318FDA",
"4 c #3594DB",
"5 c #3894DB",
"6 c #3A99DB",
"7 c #1781E6",
"8 c #1C83E6",
"9 c #2186E6",
"0 c #248BE7",
"q c #2B8DE7",
"w c #268DE8",
"e c #288EE8",
"r c #2E91E7",
"t c #2D92E8",
"y c #3294E6",
"u c #3798E7",
"i c #3B9BE6",
"p c #3196E8",
"a c #3599E8",
"s c #3A9DE9",
"d c #3DA0E6",
"f c #3EA1E9",
"g c #449EDC",
"h c #48A4DD",
"j c #4DA8DD",
"k c #52ACDE",
"l c #59B2DE",
"z c #64BBDF",
"x c #409EE8",
"c c #42A3E6",
"v c #48A7E6",
"b c #4CACE7",
"n c #43A5E9",
"m c #49A7E9",
"M c #46A9EA",
"N c #4BACEA",
"B c #51AFEA",
"V c #4EB1EB",
"C c #53B0E7",
"Z c #54B4EA",
"A c #59B7EA",
"S c #5BB9EB",
"D c #6BC1DF",
"F c #79CCDF",
"G c #6CC3E0",
"H c #75CCE1",
"J c #7ACEE1",
"K c #7DD2E1",
"L c #9CC8CE",
"P c #83D7E1",
"I c #87DCE2",
"U c #8DDDE3",
"Y c #97DEE2",
"T c #99DEE3",
"R c #9DECF1",
"E c #B7E1E4",
"W c #BAE2E5",
"Q c #A3ECF1",
"! c #AAECF1",
"~ c #B2EDF1",
"^ c #C1DBDF",
"/ c #CCDBDF",
"( c #C0ECEE",
/* pixels */
"^(~RRQRRQQRRQQRQQQQQ!QQQQQQ!Q!(/",
"EcMNNMNBNNCZZZZZZZSZZSSAASSAASZW",
"YdnmMnmbMMBCNNZZZZAZZASAZSSZASAT",
"UcnfnmMnmNMMBBNNZZZZAZZAAZASAZZT",
"IifsfnnnnmnMNNMNCNNCZZZZAZZSAZZY",
"IyscssnnnfmmnMbNMNBNNCZZZAAZZAZU",
"PyasassfffnnnnMMMMNNNNBNNZZZZAZU",
"HuatusapscssnnfnmMnNbMMBBNNZZVCU",
"DrtpppppusassfffnnnnmMMNNNNBNNbP",
"z8ryttpuppisaacfsfnffMmnMNNMNBbK",
"z>eqtrttppppaaaassfffnnnnnMMMNvJ",
"l>,0eyteyyttuutasaascssnnfnmnnvF",
"l=;800eqetrtttypppuaasssffnnnncG",
"k*;:,9eqw0rqwtyttpuppiiasxfsfncG",
"j;;-;>890q0wqqerrttppppuuaasssiz",
"h;;-;:;:9090qe0eqqeryttuupaiaaiz",
"g*;:;-;;-:9090qw0eqeeryttuypasul",
"g=;;;-;;--;;:,900wq00qretyytpuyk",
"6;;-;;--;;-;;;-;>::<87700989888g",
"4;;;;;;;;;-;;;-;;;-;;--;;-;;;-=5",
"3*;;;-;;--;;*;;;*;;--;;-;;;-;;=2",
"2=;;-;;;;;;;;-;;;;;--;;--;;-;;=2",
"2;;*;;--;;--;;*;;;-;;--;;*;;;*=2",
"1=;;-;;;;;;;;-;;;;;;;;;;;;;;-;=1",
"1*;;--;;--;;*;;;*;;--;;-;;;*;;=%",
"%=---;--;;--;---;--;;--;---;--=%",
"%=-*;;--;;*-;;*;;--;;--;;*;;-*=%",
"$*;;--;;--;;--;--;;--;;--;---;=$",
"#*;;--;;*-;;--;--;;**;;*-;;-;;=+",
"+=-*;;-*;;--;--;;-*;;*-;;--;--=+",
"@O=*=O**O=*=O=*=O**OO**O=*=O=*O&",
"L ooXXooXXooXXoXXooXXooXXoXXoo.L"
};
