/* XPM */
static char *AtomSkn[] = {
/* columns rows colors chars-per-pixel */
"32 32 214 2",
"   c #1C222E",
".  c #1E2532",
"X  c #202735",
"o  c #212837",
"O  c #242D3C",
"+  c #293143",
"@  c #2D3549",
"#  c #2E384C",
"$  c #323E53",
"%  c #364259",
"&  c #39455D",
"*  c #1C447E",
"=  c #3D4A64",
"-  c #324D7A",
";  c #414E6A",
":  c #43516E",
">  c #465573",
",  c #485777",
"<  c #4C5B7C",
"1  c #1B4889",
"2  c #05449C",
"3  c #1D519A",
"4  c #214C8D",
"5  c #294F8B",
"6  c #2E538B",
"7  c #3D5887",
"8  c #32558D",
"9  c #37598F",
"0  c #3A588A",
"q  c #235295",
"w  c #20539C",
"e  c #28579A",
"r  c #124DA3",
"t  c #1A52A0",
"y  c #1C57AB",
"u  c #1E58AB",
"i  c #1957B1",
"p  c #1258BA",
"a  c #1E5FBB",
"s  c #2155A3",
"d  c #345FA0",
"f  c #3460A6",
"g  c #3363AD",
"h  c #3B6BB5",
"j  c #326ABB",
"k  c #3E71BC",
"l  c #415A86",
"z  c #4C5E81",
"x  c #415C8A",
"c  c #4A618B",
"v  c #516285",
"b  c #536589",
"n  c #57698E",
"m  c #586A8F",
"M  c #4A6391",
"N  c #406299",
"B  c #506694",
"V  c #5B6E96",
"C  c #5D729B",
"Z  c #62759E",
"A  c #4A6BA2",
"S  c #4D6FA8",
"D  c #5675AB",
"F  c #5377B5",
"G  c #5579B7",
"H  c #5879B1",
"J  c #6376A0",
"K  c #6278A2",
"L  c #667DAC",
"P  c #6A7FAC",
"I  c #0757C4",
"U  c #0A57C0",
"Y  c #0C58C6",
"T  c #075BCF",
"R  c #0A5FCF",
"E  c #045BD3",
"W  c #095FD6",
"Q  c #055EDB",
"!  c #1768CF",
"~  c #1A69CF",
"^  c #0668D4",
"/  c #0A69D4",
"(  c #0760DD",
")  c #0962DD",
"_  c #096EDE",
"`  c #126ED6",
"'  c #1E6DD2",
"]  c #116ADF",
"[  c #1E6EDD",
"{  c #1271D7",
"}  c #1475D8",
"|  c #1B7CD8",
" . c #2266C6",
".. c #226DD2",
"X. c #2673D7",
"o. c #2977D6",
"O. c #2D73DB",
"+. c #3579D5",
"@. c #3D79D4",
"#. c #0663E2",
"$. c #0966E2",
"%. c #056EE2",
"&. c #096EE1",
"*. c #0670E5",
"=. c #0971E4",
"-. c #257FE5",
";. c #2D7EE3",
":. c #337CE2",
">. c #577FC4",
",. c #6A81AF",
"<. c #6E85B4",
"1. c #728ABB",
"2. c #2283D9",
"3. c #2B86D9",
"4. c #2888DA",
"5. c #1C83E4",
"6. c #2C82E4",
"7. c #2D8CE6",
"8. c #3485E4",
"9. c #3C84E3",
"0. c #318CE6",
"q. c #2E91E4",
"w. c #2F94E8",
"e. c #3595E5",
"r. c #3C94E6",
"t. c #3C9BE7",
"y. c #3197E8",
"u. c #3599E8",
"i. c #3B9DE9",
"p. c #3DA0E6",
"a. c #3EA1E9",
"s. c #5C81C3",
"d. c #5584CF",
"f. c #4986D6",
"g. c #5A8FDF",
"h. c #509EDA",
"j. c #6484C0",
"k. c #668BCC",
"l. c #758EC3",
"z. c #7790C4",
"x. c #7892C6",
"c. c #7C95CA",
"v. c #638ED9",
"b. c #6491D5",
"n. c #6C95D5",
"m. c #659DD7",
"M. c #759DD6",
"N. c #7F99D1",
"B. c #789BDD",
"V. c #5EB4DE",
"C. c #7FAAD7",
"Z. c #67BDDF",
"A. c #6EBBDD",
"S. c #4184E2",
"D. c #4589E2",
"F. c #4C8BE1",
"G. c #528CE2",
"H. c #4199E6",
"J. c #5592E3",
"K. c #5991E3",
"L. c #6095E2",
"P. c #6499E3",
"I. c #43A2E6",
"U. c #4BA5E6",
"Y. c #4FAFE7",
"T. c #43A5E9",
"R. c #4AA7E9",
"E. c #46A9EA",
"W. c #4BACEA",
"Q. c #51AFEA",
"!. c #4EB1EB",
"~. c #53B0E7",
"^. c #54B4EA",
"/. c #59B7EA",
"(. c #5BB9EB",
"). c #76A4E3",
"_. c #7DA2E1",
"`. c #7BABE4",
"'. c #6BC1DF",
"]. c #75CCE1",
"[. c #7CD1E1",
"{. c #839DD5",
"}. c #85A2DB",
"|. c #88A6E2",
" X c #84ADE3",
".X c #8EACE2",
"XX c #90AFE3",
"oX c #92B4E3",
"OX c #99B7E4",
"+X c #9CBCE4",
"@X c #9CC8CE",
"#X c #9DC5E6",
"$X c #83D7E1",
"%X c #87DCE2",
"&X c #8DDDE3",
"*X c #97DEE2",
"=X c #99DEE3",
"-X c #A4C6E6",
";X c #A8CBE6",
":X c #ADD8E8",
">X c #B2D6E8",
",X c #B5DAE8",
"<X c #9DECF1",
"1X c #B7E1E4",
"2X c #BCE3E6",
"3X c #BEE4E9",
"4X c #A3ECF1",
"5X c #AAECF1",
"6X c #B2EDF1",
"7X c #C1DBDF",
"8X c #CCDBDF",
"9X c #C0E7EA",
"0X c #C3EAEC",
"qX c #CCECEC",
/* pixels */
"7X0X6X<X<X4X<X<X4X4X<X<X4X4X<X4X4X4X4X4X5X4X4X4X4X4X4X5X4X5X0X8X",
"1XI.E.W.W.E.W.Q.W.W.~.^.^.^.^.^.^.^.(.^.^.(.(././.(.(././.(.^.2X",
"*Xp.T.R.E.T.R.Y.E.E.Q.~.W.W.^.^.^.^./.^.^./.(./.^.(.(.^./.(./.=X",
"&XI.T.a.T.R.E.T.R.W.E.E.Q.Q.W.W.^.^.^.^./.^.^././.^./.(./.^.^.=X",
"%Xt.a.i.a.T.T.T.T.R.T.E.W.W.E.W.~.Y.W.~.^.^.^.^./.^.^.(./.^.^.*X",
"%Xe.u.I.i.i.T.T.T.a.R.R.T.E.W.W.E.W.Q.W.W.~.^.^.^././.^.^./.^.&X",
"$Xe.u.i.u.i.i.a.a.a.T.T.T.T.E.E.E.E.W.W.W.Y.Q.W.W.^.^.^.^./.^.&X",
"].e.u.w.u.i.u.y.i.I.i.i.T.T.a.T.R.E.T.W.W.E.E.Q.Q.W.Y.^.^.!.~.&X",
"'.q.w.y.y.y.y.y.u.i.u.i.i.a.a.a.T.T.T.T.R.E.E.W.W.W.W.Q.W.Y.Y.$X",
"Z.5.7.0.6.-.7.e.y.y.t.u.0.e.i.a.u.t.H.t.i.I.I.i.T.W.W.E.R.U.U.[.",
"V.] [ G.).).L.O.6.7.6.D.F.G.;.6.:.G.G.G.S.:.K.J.9.r.I.r.J.K.F.A.",
"h.g.:X+Xc.c.XX0X`.X.K.>X;X;X Xv.0X;X;X;X3X X;X;X0XP.8.P.>X;X2Xm.",
"f.3X: X . . . @ ,Xh #Xz X o qX9X: X o : 9XqXo X z #Xj #Xz o l.C.",
"b.{.. . v b X o C _.oX< . X 9XC . . ; ,XG 9XX   . 1.B.oX< . 1.M.",
"n.,.. . ,.;X.X.XOXd .X> . . 1..   + ;Xd.u >XX   . X .X|.> . ,.n.",
"@.oX+ . . X & 1.j.e _.: .   .     $ oXa  .-XX . & . $ +X: . K k.",
"+.S N.> X . . X n H l.= .     .   . ,.>.i oXX . x.% . > = . V s.",
"k z.<.<.}.L O . o }.L = .   . > . . + N.1 }.X . <.1.+ . . . b F ",
"D = o o C 1.@ . O <.C % . . m L @ . . < l l.X . J l m .   . < A ",
"g n o . . . . . : 7 B $ . o P - v . . O Z P o X m * M & . . > N ",
"o.9 < # o o + ; 0 r 0 = $ $ c 2 x % $ $ > z $ $ b t 3 V % $ , f ",
"3.T q z m m c 6 Y #.p 8 l x s Q y 7 l l 5 4 x l w ( #.t 7 l q X.",
"4.&.$.E I U E #.&.=.%.#.R W #.&.&.( E W ) #.Q W $.%.=.&.( Q ) 3.",
"2.&.=.=.*.=.=.=.=.=.=.=.=.*.=.=.=.=.=.=.=.=.=.=.=.=.=.=.*.=.&.2.",
"2.%.=.=.*.*.=.=.*.*.=.=.%.=.=.=.%.=.=.*.*.=.=.*.=.=.=.%.=.=.&.| ",
"| &.*.*.=.=.*.*.=.=.*.*.=.*.*.=.=.*.*.=.=.*.*.=.=.*.*.=.*.*.&.| ",
"| &.=.%.=.=.*.*.=.=.%.*.=.=.%.=.=.*.*.=.=.*.*.=.=.%.=.=.*.%.&.| ",
"} %.=.=.*.*.=.=.*.*.=.=.*.*.=.*.*.=.=.*.*.=.=.*.*.=.*.*.=.=.&.} ",
"{ %.=.=.*.*.=.=.%.*.=.=.*.*.=.*.*.=.=.%.%.=.=.%.*.=.=.*.=.=.&.` ",
"` &.*.%.=.=.*.%.=.=.*.*.=.*.*.=.=.*.%.=.=.%.*.=.=.*.*.=.*.*.&.` ",
"' _ &.%.&._ %.%._ &.%.&._ &.%.&._ %.%._ _ %.%._ &.%.&._ &.%._ ..",
"@X! / / ^ ^ / / ^ ^ / / ^ ^ / ^ ^ / / ^ ^ / / ^ ^ / ^ ^ / / ~ @X"
};
