/* XPM */
static char *AtomUtl[] = {
/* columns rows colors chars-per-pixel */
"32 32 183 2",
"   c #1E2632",
".  c #202735",
"X  c #212837",
"o  c #232B3A",
"O  c #293243",
"+  c #323D53",
"@  c #364158",
"#  c #3F4A65",
"$  c #414F6C",
"%  c #42516E",
"&  c #485574",
"*  c #4C5B7B",
"=  c #2D538D",
"-  c #3B5889",
";  c #22539A",
":  c #29589E",
">  c #375D9A",
",  c #1E55A6",
"<  c #1F56A8",
"1  c #1456B5",
"2  c #1A58B1",
"3  c #1157BA",
"4  c #145ABB",
"5  c #2B5FAC",
"6  c #235DB3",
"7  c #3C63A3",
"8  c #2760B5",
"9  c #2C63B5",
"0  c #2863BA",
"q  c #3B6AB3",
"w  c #346BBC",
"e  c #3B6EBA",
"r  c #425B86",
"t  c #4D6189",
"y  c #54668A",
"u  c #576A8F",
"i  c #586A8F",
"p  c #446091",
"a  c #40619A",
"s  c #4A689A",
"d  c #5C7098",
"f  c #466AA4",
"g  c #496EAF",
"h  c #4D70AB",
"j  c #4D72B2",
"k  c #5377B7",
"l  c #537ABC",
"z  c #6376A0",
"x  c #6479A4",
"c  c #0555C6",
"v  c #0C58C2",
"b  c #0A5CCB",
"n  c #055BD2",
"m  c #095ED3",
"M  c #075FD9",
"N  c #1C63C6",
"B  c #1A63C8",
"V  c #1768CF",
"C  c #1A69CF",
"Z  c #0A60D3",
"A  c #0668D4",
"S  c #0A69D4",
"D  c #0562DE",
"F  c #0961DA",
"G  c #096EDE",
"H  c #126ED6",
"J  c #1E6DD2",
"K  c #1271D7",
"L  c #1475D8",
"P  c #1B7CD8",
"I  c #2064C5",
"U  c #336DC3",
"Y  c #3770C6",
"T  c #3C71C3",
"R  c #3473CF",
"E  c #246ED3",
"W  c #2F73D6",
"Q  c #3273D2",
"!  c #0565E2",
"~  c #0964E1",
"^  c #056EE3",
"/  c #096DE1",
"(  c #126CE1",
")  c #1D6EE2",
"_  c #0670E5",
"`  c #0971E4",
"'  c #1A71E2",
"]  c #2676E2",
"[  c #2B76E1",
"{  c #217BE4",
"}  c #307AE2",
"|  c #397FE2",
" . c #547CC0",
".. c #6B81AF",
"X. c #6C83B2",
"o. c #7289BA",
"O. c #2283D9",
"+. c #2C89DA",
"@. c #338EDA",
"#. c #3594DB",
"$. c #3B95DB",
"%. c #1C83E3",
"&. c #2A84E4",
"*. c #2C8CE6",
"=. c #3487E4",
"-. c #3A81E2",
";. c #338BE5",
":. c #2E91E4",
">. c #2F94E8",
",. c #3494E6",
"<. c #3A95E6",
"1. c #3B9BE6",
"2. c #3195E8",
"3. c #359AE8",
"4. c #3B9DE9",
"5. c #3DA0E6",
"6. c #3EA1E9",
"7. c #5C83C5",
"8. c #5F89D1",
"9. c #4195DA",
"0. c #429ADB",
"q. c #499EDB",
"w. c #6085C8",
"e. c #7891C5",
"r. c #678DD1",
"t. c #6792DD",
"y. c #50A2DB",
"u. c #52AADD",
"i. c #58B1DE",
"p. c #64BBDF",
"a. c #4285E2",
"s. c #4A85E2",
"d. c #4A8BE3",
"f. c #518AE2",
"g. c #4199E7",
"h. c #419EE8",
"j. c #5591E3",
"k. c #6F9AE2",
"l. c #43A2E6",
"z. c #48A7E6",
"x. c #4CACE7",
"c. c #43A5E9",
"v. c #49A6E9",
"b. c #46A9EA",
"n. c #4BACEA",
"m. c #51AFEA",
"M. c #4EB1EB",
"N. c #53B0E7",
"B. c #54B4EA",
"V. c #59B7EA",
"C. c #5BB9EB",
"Z. c #77A6E4",
"A. c #6BC1DF",
"S. c #79CCDF",
"D. c #6CC3E0",
"F. c #75CCE1",
"G. c #7ACEE1",
"H. c #7DD2E1",
"J. c #84A0D9",
"K. c #84ABE3",
"L. c #8DACE2",
"P. c #8BB1E4",
"I. c #92B4E3",
"U. c #99B9E4",
"Y. c #9CC8CE",
"T. c #83D7E1",
"R. c #87DCE2",
"E. c #8DDDE3",
"W. c #97DEE2",
"Q. c #99DEE3",
"!. c #A1C2E5",
"~. c #A8CAE6",
"^. c #9DECF1",
"/. c #B7E1E4",
"(. c #BAE2E5",
"). c #BEE4E9",
"_. c #A3ECF1",
"`. c #AAECF1",
"'. c #B2EDF1",
"]. c #C1DBDF",
"[. c #CCDBDF",
"{. c #C5EBEC",
"}. c #CCECEC",
/* pixels */
"].{.'.^.^._.^.^._._.^.^._._.^._._._._._.`._._._._._._.`._.`.{.[.",
"/.l.b.n.n.b.n.m.n.n.N.B.B.B.B.B.B.B.C.B.B.C.C.V.V.C.C.V.V.C.B.(.",
"W.5.c.v.b.c.v.n.b.b.m.N.n.n.B.B.B.B.V.B.B.V.C.V.B.C.C.B.V.C.V.Q.",
"E.l.c.6.c.v.b.c.v.n.b.b.m.m.n.n.B.B.B.B.V.B.B.V.V.B.V.C.V.B.B.Q.",
"R.1.6.4.6.c.c.c.c.v.c.b.n.n.b.n.N.n.n.N.B.B.B.B.V.B.B.C.V.B.B.W.",
"R.,.3.l.4.4.c.c.c.6.v.v.c.b.x.n.b.n.m.n.n.N.B.B.B.V.V.B.B.V.B.E.",
"T.,.3.4.3.4.4.6.6.6.c.c.c.c.b.b.b.b.n.n.n.n.m.n.n.B.B.B.B.V.B.E.",
"F.,.3.>.3.4.3.3.4.l.4.4.c.c.6.c.v.b.c.n.x.b.b.m.m.n.n.B.B.M.N.E.",
"A.:.>.2.2.2.2.2.3.4.3.4.4.6.6.6.c.c.c.c.v.b.b.n.n.n.n.m.n.n.x.T.",
"p.%.*.;.*.*.,.3.2.*.<.<.,.,.<.<.,.<.g.<.1.c.v.4.h.v.n.b.n.m.x.H.",
"p.( [ s.s.| &.&.-.s.d.W W f.f.f.f.f.f.f.j.} | j.f.d.g.v.b.n.z.G.",
"i.B {.~.~.).Q Q ).~.~.{.{.~.~.~.~.~.~.~.~.K.{.~.~.).a.l.c.c.z.S.",
"u.R !.X X e.k.k.e.X X !.!.o . .     . . o }.!.X X e.Z.<.c.c.l.D.",
"y.U U.    o.r.r.o.    U.!.* & +     # * * I.U.    o.k.;.6.c.l.D.",
"q.w L.    X.7.w.X.    L.f L.L...    L.L.P.g L.    X.t.;.4.4.1.p.",
"0.9 J.    x k l x     J.e N 7.x     J.q E T J.    x 8.=.3.3.1.p.",
"9.8 e.    d h h d     e.U )  .d     e.Y { T e.    d l ] *.,.,.i.",
"$.6 X.    y p p y     X.0 ( j y     X.w { w X.    y s j l R &.u.",
"$.3 o.X   + o.o.+   X o.3 F 7 *     z 5 ' 8 z     @ * * * X.I 0.",
"#.Z a %             % a F ~ > &   . i , ~ , i .         X i < @.",
"@.! 4 - $ O X X O $ - 4 ! ! : & + + y 1 ! 2 y + + + + + + y 1 +.",
"+./ / v = t u u t = v / ` ^ F ; r r ; ! ^ ~ ; r r r r r r ; D +.",
"+.` ` ^ ~ b c c b ~ ^ _ ` ` ^ ~ Z M ! ` ` ^ ! m m n n b M ! / +.",
"O./ ` ` _ ` ` ` ` ` ` ` ` _ ` ` ` ` ` ` ` ` ` ` ` ` ` ` _ ` / O.",
"O.^ ` ` _ _ ` ` _ _ ` ` ^ ` ` ` ^ ` ` _ _ ` ` _ ` ` ` ^ ` ` / P ",
"P / _ _ ` ` _ _ ` ` _ _ ` _ _ ` ` _ _ ` ` _ _ ` ` _ _ ` _ _ / P ",
"P / ` ^ ` ` _ _ ` ` ^ _ ` ` ^ ` ` _ _ ` ` _ _ ` ` ^ ` ` _ ^ / P ",
"L ^ ` ` _ _ ` ` _ _ ` ` _ _ ` _ _ ` ` _ _ ` ` _ _ ` _ _ ` ` / L ",
"K ^ ` ` _ _ ` ` ^ _ ` ` _ _ ` _ _ ` ` ^ ^ ` ` ^ _ ` ` _ ` ` / H ",
"H / _ ^ ` ` _ ^ ` ` _ _ ` _ _ ` ` _ ^ ` ` ^ _ ` ` _ _ ` _ _ / H ",
"J G / ^ / G ^ ^ G / ^ / G / ^ / G ^ ^ G G ^ ^ G / ^ / G / ^ G E ",
"Y.V S S A A S S A A S S A A S A A S S A A S S A A S A A S S C Y."
};
