/* XPM */
static char *Atom[] = {
/* columns rows colors chars-per-pixel */
"32 32 184 2",
"   c #1C222E",
".  c #1D2531",
"X  c #202735",
"o  c #212837",
"O  c #242C3B",
"+  c #2A3244",
"@  c #2D3549",
"#  c #333E53",
"$  c #364259",
"%  c #38445D",
"&  c #404C67",
"*  c #414E6A",
"=  c #42516E",
"-  c #485675",
";  c #4B5B7B",
":  c #0E4898",
">  c #2D548B",
",  c #3C5785",
"<  c #3C5887",
"1  c #3A5A8D",
"2  c #2C5491",
"3  c #235398",
"4  c #29559A",
"5  c #034AAC",
"6  c #1653A6",
"7  c #1553AB",
"8  c #1B55AB",
"9  c #0F55B5",
"0  c #0A56BD",
"q  c #2958A0",
"w  c #255AAB",
"e  c #3C63A0",
"r  c #2965BA",
"t  c #3E6BB3",
"y  c #4B5F85",
"u  c #4C6087",
"i  c #4D628A",
"p  c #526286",
"a  c #53668C",
"s  c #55688D",
"d  c #4E6A9A",
"f  c #516691",
"g  c #5A6D95",
"h  c #5F739C",
"j  c #60759E",
"k  c #5576B1",
"l  c #6377A3",
"z  c #6579A4",
"x  c #677CA9",
"c  c #697FAC",
"v  c #0657CA",
"b  c #0759CC",
"n  c #0858C8",
"m  c #055BD4",
"M  c #0A5CD1",
"N  c #045FDC",
"B  c #1768CF",
"V  c #1A69CF",
"C  c #0A60D7",
"Z  c #0668D4",
"A  c #0A69D4",
"S  c #096EDE",
"D  c #126ED6",
"F  c #1E6DD2",
"G  c #1271D7",
"H  c #1475D8",
"J  c #1B7CD8",
"K  c #2168C6",
"L  c #266ACC",
"P  c #226DD2",
"I  c #3576D7",
"U  c #0664E2",
"Y  c #0865E2",
"T  c #056EE2",
"R  c #096DE2",
"E  c #0670E5",
"W  c #0A71E4",
"Q  c #1276E3",
"!  c #167EE6",
"~  c #2271E1",
"^  c #2379E3",
"/  c #2E7EE3",
"(  c #307FE3",
")  c #3B7FE2",
"_  c #4177CF",
"`  c #527EC8",
"'  c #497ED1",
"]  c #6B81AF",
"[  c #6581B5",
"{  c #6D83B3",
"}  c #7189BA",
"|  c #2283D9",
" . c #2C8ADA",
".. c #318FDA",
"X. c #3594DB",
"o. c #3894DB",
"O. c #3A99DB",
"+. c #1D83E6",
"@. c #2286E6",
"#. c #2E85E4",
"$. c #248BE7",
"%. c #2A8DE7",
"&. c #298EE8",
"*. c #3289E5",
"=. c #3A89E4",
"-. c #2D91E6",
";. c #2D92E8",
":. c #3394E6",
">. c #3C92E6",
",. c #3698E7",
"<. c #3C9CE6",
"1. c #3196E8",
"2. c #3599E8",
"3. c #3B9DE9",
"4. c #3DA0E6",
"5. c #3EA1E9",
"6. c #449EDC",
"7. c #668ACA",
"8. c #768EC2",
"9. c #7692CC",
"0. c #7C96CB",
"q. c #7D98CF",
"w. c #638CD2",
"e. c #48A4DD",
"r. c #4DA8DD",
"t. c #52ACDE",
"y. c #59B2DE",
"u. c #64BBDF",
"i. c #4287E3",
"p. c #4C85E0",
"a. c #4B8AE3",
"s. c #4294E5",
"d. c #459EE7",
"f. c #409EE8",
"g. c #5F90E2",
"h. c #42A3E6",
"j. c #48A7E6",
"k. c #4CACE7",
"l. c #43A5E9",
"z. c #48A6E9",
"x. c #45A9EA",
"c. c #4BACEA",
"v. c #51AFEA",
"b. c #4EB1EB",
"n. c #53B0E7",
"m. c #54B4EA",
"M. c #59B7EA",
"N. c #5BB9EB",
"B. c #75A3E3",
"V. c #7BACE4",
"C. c #6BC1DF",
"Z. c #79CCDF",
"A. c #6CC3E0",
"S. c #75CCE1",
"D. c #7ACEE1",
"F. c #7DD2E1",
"G. c #85A2DB",
"H. c #88A3DD",
"J. c #85A7E2",
"K. c #8AA5E1",
"L. c #85B1E5",
"P. c #88B6E5",
"I. c #8AB9E6",
"U. c #93B4E3",
"Y. c #95BDE5",
"T. c #9CC8CE",
"R. c #83D7E1",
"E. c #87DCE2",
"W. c #8DDDE3",
"Q. c #97DEE2",
"!. c #99DEE3",
"~. c #A1C2E5",
"^. c #ABCEE7",
"/. c #B2D6E8",
"(. c #9DECF1",
"). c #B7E1E4",
"_. c #BAE2E5",
"`. c #A3ECF1",
"'. c #AAECF1",
"]. c #B2EDF1",
"[. c #C1DBDF",
"{. c #CCDBDF",
"}. c #C2EBEC",
"|. c #D2EDED",
/* pixels */
"[.}.].(.(.`.(.(.`.`.(.(.`.`.(.`.`.`.`.`.'.`.`.`.`.`.`.'.`.'.}.{.",
").h.x.c.c.x.c.v.c.c.n.m.m.m.m.m.m.m.N.m.m.N.N.M.M.N.N.M.M.N.m._.",
"Q.4.l.z.x.l.z.k.x.x.v.n.c.c.m.m.m.m.M.m.m.M.N.M.m.N.N.m.M.N.M.!.",
"W.h.l.5.l.z.x.l.z.c.x.x.v.v.c.c.m.m.m.m.M.m.m.M.M.m.M.N.M.m.m.!.",
"E.<.5.3.5.l.l.l.l.z.l.x.c.c.x.c.n.c.c.n.m.m.m.m.M.m.m.N.M.m.m.Q.",
"E.:.3.h.3.3.l.l.l.5.z.z.<.>.s.s.>.s.s.d.z.n.m.m.m.M.M.m.m.M.m.W.",
"R.:.2.3.2.3.3.5.5.5.h.>.a.I.L.L.L.L.P.V.i.z.v.c.c.m.m.m.m.M.m.W.",
"S.,.2.;.,.<.2.2.3.h.,.a./.] } } } } { q.|.=.x.v.v.c.c.m.m.b.n.W.",
"C.-.;.1.1.1.2.2.2.3.*.B.0.X . . . . . @ }.) l.c.c.c.c.v.c.c.k.R.",
"u.+.-.:.;.-.1.,.1.1.( Y.a .           . ^.p.d.l.x.c.c.x.c.v.k.F.",
"u.Q &.%.-.;.;.;.1.1.~ }.$             . K.g.>.l.l.l.x.x.x.c.j.D.",
"y.Q ! $.%.:.;.&.:.:.I ^.o             . x B.*.l.l.5.l.z.l.l.j.Z.",
"y.R W +.$.$.&.%.&.@.' K..             . = U./ 3.5.5.l.l.l.l.h.A.",
"t.T W W ! @.&.%.$.^ w.c .               O ~.I :.3.f.5.3.5.l.h.A.",
"r.W W E W Q +.@.$.~ J.& .     o +       . G._ :.2.2.2.3.3.3.<.u.",
"e.W W E W W W W +.L U.+       # p .     . c ` #.,.1.2.<.2.2.<.u.",
"6.T W W W E W W T r 0..     . = 8..     . ; 7.^ ;.,.1.1.2.3.,.y.",
"6.T W W W E W W U t j .     . g H.o     . $ 9.~ -.:.1.;.1.,.:.t.",
"O.W W E W W E E C k - .     . ; g O       O 0.K @.@.+.@.+.+.+.6.",
"X.W W W W W W E v [ # .       . . .       . z w R E W W W E R o.",
"..T W W W E W R 9 { o                     . ; e U W W E W W R  .",
" .R W W E W W Y q p .                     . % d m W W E W W T  .",
" .W W T W W E N 1 * .     . O @ @ + .       + l 0 T W W W T R  .",
"| R W W E W W 0 h # .     . y a f a @ .     o s 7 R W W E W R | ",
"| T W W E E R 6 p O .   . O s : 5 , $ .     . - 3 Y W T W W R J ",
"J R E E E W T 8 - @ + + + # < m Y 3 = + + + + * 4 Y E W E E R J ",
"J R E T W W T N 2 u y y u < 8 Y R m 2 i y y i > M T W W E T R J ",
"H T W W E E W R U m n v m N Y T E R Y m v n b U T W E E E W R H ",
"G T W W E E W W T E W W E E W E E W W T T W W T E W W E W W R D ",
"D R E T W W E T W W E E W E E W W E T W W T E W W E E W E E R D ",
"F S R T R S T T S R T R S R T R S T T S S T T S R T R S R T S P ",
"T.B A A Z Z A A Z Z A A Z Z A Z Z A A Z Z A A Z Z A Z Z A A V T."
};
