/* XPM */
static char *AtomSwap[] = {
/* columns rows colors chars-per-pixel */
"32 32 182 2",
"   c #1C222E",
".  c #1E2532",
"X  c #202735",
"o  c #212837",
"O  c #232B3A",
"+  c #2A3345",
"@  c #2E384C",
"#  c #303B50",
"$  c #364158",
"%  c #3A465F",
"&  c #3C4963",
"*  c #414F6C",
"=  c #42516E",
"-  c #485776",
";  c #4C5C7D",
":  c #154A9A",
">  c #194C98",
",  c #3A5789",
"<  c #224F95",
"1  c #295495",
"2  c #375D98",
"3  c #385D98",
"4  c #1554AD",
"5  c #1955AC",
"6  c #0553BD",
"7  c #0A53BA",
"8  c #1957B3",
"9  c #1658B5",
"0  c #2C5AA0",
"q  c #526285",
"w  c #54668A",
"e  c #55688D",
"r  c #456194",
"t  c #596C93",
"y  c #5E729B",
"u  c #60739C",
"i  c #4568A3",
"p  c #466EAC",
"a  c #5376B1",
"s  c #6376A0",
"d  c #667AA5",
"f  c #607CAF",
"g  c #627EB3",
"h  c #0757C6",
"j  c #0B56C1",
"k  c #0B58C2",
"l  c #0757C9",
"z  c #0758CC",
"x  c #085CCC",
"c  c #065CD6",
"v  c #095FD4",
"b  c #075ED9",
"n  c #1768CF",
"m  c #1A69CF",
"M  c #0C63D6",
"N  c #0668D4",
"B  c #0A69D4",
"V  c #096DDE",
"C  c #126ED6",
"Z  c #1E6DD2",
"A  c #1271D7",
"S  c #1475D8",
"D  c #1B7CD8",
"F  c #2166CC",
"G  c #2468C8",
"H  c #3A71C2",
"J  c #226DD2",
"K  c #226CD9",
"L  c #286FDA",
"P  c #3C77D5",
"I  c #0662E2",
"U  c #0966E2",
"Y  c #056DE3",
"T  c #096EE1",
"R  c #0670E5",
"E  c #0971E4",
"W  c #1275E2",
"Q  c #1A76E1",
"!  c #177FE6",
"~  c #1B7FE5",
"^  c #2071E2",
"/  c #2E77E2",
"(  c #247CE4",
")  c #2A7EE3",
"_  c #327EE2",
"`  c #407EE0",
"'  c #6B81AF",
"]  c #6382BB",
"[  c #738BBC",
"{  c #2283D9",
"}  c #2C8ADA",
"|  c #318FDA",
" . c #3594DB",
".. c #3894DB",
"X. c #3C9ADB",
"o. c #1C83E4",
"O. c #2A81E4",
"+. c #228AE7",
"@. c #2C8CE7",
"#. c #3283E3",
"$. c #388DE5",
"%. c #2D91E6",
"&. c #2E93E8",
"*. c #3395E6",
"=. c #3A93E5",
"-. c #3798E7",
";. c #3C9BE6",
":. c #3296E8",
">. c #3599E8",
",. c #3B9DE9",
"<. c #3DA0E6",
"1. c #3EA1E9",
"2. c #5D8CD7",
"3. c #558CDF",
"4. c #5889D9",
"5. c #459DDB",
"6. c #758DC0",
"7. c #7892C6",
"8. c #7C95CA",
"9. c #7397D9",
"0. c #46A2DC",
"q. c #4EA8DD",
"w. c #54AADD",
"e. c #59B3DE",
"r. c #60B4DD",
"t. c #65BBDF",
"y. c #438AE3",
"u. c #4B89E2",
"i. c #429CE7",
"p. c #5F98E3",
"a. c #6A97E1",
"s. c #629BE4",
"d. c #6A9BE3",
"f. c #769CE1",
"g. c #42A3E6",
"h. c #48A7E6",
"j. c #4CACE7",
"k. c #43A5E9",
"l. c #49A6E9",
"z. c #46A9EA",
"x. c #4BACEA",
"c. c #51AFEA",
"v. c #4EB1EB",
"b. c #53B0E7",
"n. c #54B4EA",
"m. c #59B7EA",
"M. c #5BB9EB",
"N. c #77A3E3",
"B. c #79A3E3",
"V. c #7CB1E5",
"C. c #6BC1DF",
"Z. c #79CCDF",
"A. c #6CC3E0",
"S. c #75CCE1",
"D. c #7ACEE1",
"F. c #7DD2E1",
"G. c #82AFE4",
"H. c #8BA9E2",
"J. c #90AFE3",
"K. c #8CB4E5",
"L. c #95B4E3",
"P. c #9DBCE4",
"I. c #9CC8CE",
"U. c #83D7E1",
"Y. c #87DCE2",
"T. c #8DDDE3",
"R. c #97DEE2",
"E. c #99DEE3",
"W. c #A8CAE6",
"Q. c #B2D6E8",
"!. c #B5DAE8",
"~. c #B9DEE9",
"^. c #9DECF1",
"/. c #B7E1E4",
"(. c #BAE2E5",
"). c #A3ECF1",
"_. c #AAECF1",
"`. c #B2EDF1",
"'. c #C1DBDF",
"]. c #CCDBDF",
"[. c #C0ECEE",
"{. c #CCECEC",
/* pixels */
"'.[.`.^.^.).^.^.).).^.^.).).^.).).).).)._.).).).).).)._.)._.[.].",
"/.g.z.x.x.z.x.c.x.x.b.n.n.n.n.n.n.n.M.n.n.M.M.m.m.M.M.m.m.M.n.(.",
"R.<.k.l.z.k.l.j.z.z.c.b.x.x.n.n.n.n.m.n.n.m.M.m.n.M.M.n.m.M.m.E.",
"T.g.k.1.k.l.z.k.l.x.z.z.c.c.x.x.n.n.n.n.m.n.n.m.m.n.m.M.m.n.n.E.",
"Y.;.1.,.1.k.k.k.k.l.k.z.x.x.z.x.b.x.x.b.n.n.n.n.m.n.n.M.m.n.n.R.",
"Y.*.,.g.,.,.k.k.k.1.l.l.k.z.j.x.z.x.c.x.x.b.n.n.n.m.m.n.n.m.n.T.",
"U.*.>.,.>.,.,.1.1.1.k.k.k.k.z.z.z.z.x.x.x.x.c.x.x.n.n.n.n.m.n.T.",
"S.=.>.&.-.;.>.:.,.g.,.,.k.k.1.k.l.z.k.x.j.z.z.c.c.x.x.n.n.v.b.T.",
"C.%.&.:.:.:.:.:.-.,.>.,.,.1.1.1.k.k.k.k.l.z.z.x.x.x.x.c.x.x.j.U.",
"t.o.%.*.&.%.:.-.@.@.-.,.>.,.g.1.,.1.k.1.1.k.i.;.k.x.x.z.x.c.j.F.",
"r.W @.@.%.&.@.( u.s.) :.>.>.>.>.,.,.1.1.1.=.u.V.y.i.k.z.z.x.h.D.",
"e.W ! +.@.@.^ G.W.L.p.@.-.-.&.>.,.>.>.,.i.y.~.8.K.u.$.l.k.k.h.Z.",
"e.T E ~ ( / G.P.O 8.N.O.&.&.*.:.:.:.-.>.*.` ~.O d {.d.#.1.k.g.A.",
"w.Y E M P K.6.X . 8.a.K ( ( ) ) ( O.#.O.) H Q.o . * !.N.#.i.g.A.",
"q.T b 4.!.t .   . 8.9.N.B.B.N.B.B.B.B.B.B.f.Q..   . @ L.B._ =.t.",
"0.M 2.P.$ .     . * y u u u u u u u u u u u w .     . X [ f._ r.",
"5.F H.@ .         . . . . . . . . . . . . . .         . o [ 3.w.",
"X.l L.7.+ .     . # * * * * * * * * * * * = & .     . . e J.L q.",
"X.V j p 7.% .   . t f ] ] ] ] ] ] ] ] ] ] g 8..   . O s a G Q 5.",
" .E T b 0 [ = . . q 3 6 v c c c v c c v x : ' X . + d i z Y T ..",
"| Y E E I 5 r ; O - 2 U Y E E E Y E E R Y 5 u O $ s 2 c T E T } ",
"} T E E R T h , ; - 1 U E R E E E E E R Y 4 e & y < b Y E E T } ",
"} E E Y E E Y 7 w ; 4 Y E E Y E E E R E T j q ; > I E E E Y T } ",
"{ T E E R E E U k 9 U E E R E E E E E E E U j 8 I E E E R E T { ",
"{ Y E E R R E E Y Y E E Y E E E Y E E R R E T Y E E E Y E E T D ",
"D T R R E E R R E E R R E R R E E R R E E R R E E R R E R R T D ",
"D T E Y E E R R E E Y R E E Y E E R R E E R R E E Y E E R Y T D ",
"S Y E E R R E E R R E E R R E R R E E R R E E R R E R R E E T S ",
"A Y E E R R E E Y R E E R R E R R E E Y Y E E Y R E E R E E T C ",
"C T R Y E E R Y E E R R E R R E E R Y E E Y R E E R R E R R T C ",
"Z V T Y T V Y Y V T Y T V T Y T V Y Y V V Y Y V T Y T V T Y V J ",
"I.n B B N N B B N N B B N N B N N B B N N B B N N B N N B B m I."
};
