/* XPM */
static char *Audio[] = {
/* columns rows colors chars-per-pixel */
"32 32 180 2",
"   c #00002F",
".  c #000433",
"X  c #000B37",
"o  c #000E38",
"O  c #090C3C",
"+  c #00133A",
"@  c #0A1440",
"#  c #0A1C44",
"$  c #111747",
"%  c #121847",
"&  c #131E4B",
"*  c #0A2046",
"=  c #14234D",
"-  c #1B2553",
";  c #152B51",
":  c #1E3057",
">  c #1E3459",
",  c #1F385C",
"<  c #222F5C",
"1  c #25345F",
"2  c #29355F",
"3  c #263761",
"4  c #273962",
"5  c #283D63",
"6  c #294065",
"7  c #2E426F",
"8  c #31476D",
"9  c #32496E",
"0  c #354773",
"q  c #3A4C75",
"w  c #305571",
"e  c #3D527D",
"r  c #3F5780",
"t  c #3374A7",
"y  c #3375A9",
"u  c #3779AA",
"i  c #445E83",
"p  c #476285",
"a  c #496486",
"s  c #47628A",
"d  c #4B648B",
"f  c #4F698D",
"g  c #4F6D95",
"h  c #516C93",
"j  c #597799",
"k  c #587CA6",
"l  c #3883BE",
"z  c #5F81A3",
"x  c #6487AB",
"c  c #6688AD",
"v  c #678DB3",
"b  c #6B8EB4",
"n  c #6590BB",
"m  c #6B95BD",
"M  c #7292B1",
"N  c #7497B8",
"B  c #7698B9",
"V  c #2C83C5",
"C  c #3384C5",
"Z  c #3B85C5",
"A  c #3B89C4",
"S  c #3689C8",
"D  c #3C8CC9",
"F  c #4385C5",
"G  c #4A86C5",
"H  c #468FCB",
"J  c #5486C5",
"K  c #5C87C5",
"L  c #5488C5",
"P  c #5E89C5",
"I  c #5B8CC8",
"U  c #4491CC",
"Y  c #4C96CE",
"T  c #4F98CF",
"R  c #5396CD",
"E  c #5D90CA",
"W  c #5299CF",
"Q  c #599ACF",
"!  c #559BD0",
"~  c #5A9DD1",
"^  c #6087C5",
"/  c #6488C5",
"(  c #6C88C5",
")  c #7389C5",
"_  c #7E8AC5",
"`  c #6D9ACE",
"'  c #7690C9",
"]  c #709BCF",
"[  c #6F9ED1",
"{  c #749ED1",
"}  c #5EA1D3",
"|  c #7FA4C4",
" . c #70A4CE",
".. c #7BA6CD",
"X. c #64A4D4",
"o. c #6AA6D5",
"O. c #6DA9D7",
"+. c #75A3D3",
"@. c #74A9D7",
"#. c #73ADD9",
"$. c #78AFDA",
"%. c #77B0D9",
"&. c #7CB2DB",
"*. c #A0B1BC",
"=. c #838AC5",
"-. c #8B8BC5",
";. c #938CC5",
":. c #9A8CC5",
">. c #8194CA",
",. c #869CCF",
"<. c #8B9DCF",
"1. c #9691CA",
"2. c #9F95CD",
"3. c #8A9FD0",
"4. c #A494CB",
"5. c #AA94CB",
"6. c #A49ACC",
"7. c #A89FCE",
"8. c #B092CA",
"9. c #BA93C9",
"0. c #AC97D2",
"q. c #AD9DD4",
"w. c #B69BD3",
"e. c #BB9CD2",
"r. c #80A6D4",
"t. c #8CA4D2",
"y. c #89AFD8",
"u. c #90A1D1",
"i. c #90A9D4",
"p. c #84B1D5",
"a. c #83B6DD",
"s. c #8AB4D9",
"d. c #86B8DE",
"f. c #8ABADE",
"g. c #99B1D9",
"h. c #92BAD9",
"j. c #AAA1CF",
"k. c #A5B5C2",
"l. c #A1A5D3",
"z. c #ADA5D2",
"x. c #A0ABD6",
"c. c #AFA8D3",
"v. c #B6A5DD",
"b. c #BCA7DE",
"n. c #B7AAD9",
"m. c #B9ADDB",
"M. c #A3B1D9",
"N. c #BBB1DC",
"B. c #8EBDE0",
"V. c #92BEE1",
"C. c #C49ACF",
"Z. c #C79DD4",
"A. c #C8A0DB",
"S. c #C5A4E1",
"D. c #C3AAE1",
"F. c #DEADEB",
"G. c #E6B0EF",
"H. c #E9B2F0",
"J. c #F0B3F1",
"K. c #F2B9F4",
"L. c #F7BDF9",
"P. c #FFBDFE",
"I. c #95C1E2",
"U. c #9AC3E3",
"Y. c #A0C6E5",
"T. c #A3C9E7",
"R. c #A9CCE7",
"E. c #ACCFE8",
"W. c #B4D3EA",
"Q. c #BAD6EC",
"!. c #BFD8ED",
"~. c #C5DDEF",
"^. c #E9CBEF",
"/. c #F2CDF5",
"(. c #F3D1F6",
"). c #F7D3F9",
"_. c #FFD3FF",
"`. c #D6E4EE",
"'. c #D9E6EE",
"]. c #D1E3F1",
/* pixels */
"k.`.].~.~.~.~.~.~.~.~.~.~.~.~.~.~.~.~.~.~.~.~.~.~.~.~.~.~.].'.*.",
"`.#.#.#.#.$.$.%.%.&.&.&.&.&.a.a.a.a.a.d.d.d.d.d.d.d.d.d.d.d.d.'.",
"~.O.O.O.#.#.#.#.$.$.%.&.&.&.&.&.&.a.a.a.a.d.d.d.d.d.d.d.d.d.d.~.",
"!.o.o.#.&.a.&.$.&.a.&.&.a.d.a.f.B.V.B.d.d.f.B.d.d.B.I.I.V.f.d.~.",
"Q.X.O.m . . g &.s X v a.4 o I.o o o # z V.6 + V.V.a * + , | B.~.",
"Q.X.O.e . - - d.d . b a.4 X U.X : B = # h.5 + U.j + a M ; * s.~.",
"W.} #.% - h . ..s . v a.3 X U.X 4 V.f o B 5 o U.5 + U.V.h + B !.",
"E.} n . $ - . h s . b d.1 . I.. 3 V.f X N 4 o U.9 o s.V.a + N Q.",
"T.X.e   < < O - b . - e . 1 f.. & d @ = V.4 X B.c o 5 p # > B.W.",
"U.W 7 < #.#.e <  .k < < 0 ..s.2 2 2 q m &.r 3 a.&.x 8 5 i p.&.W.",
"I.S ~ } ~ ! X.X.X.X.o.O.@.r.i.x.M.g.y.@.O.$.$.#.#.$.&.a.&.%.%.E.",
"V.V D T W W W ! ! ! ~ ~ o.t.l.c.c.l.t.+.o.o.o.o.O.O.O.#.#.#.#.R.",
"B.V V D Y T W W W ! ! ~ { u.z.^.).N.t.+.X.X.X.o.o.o.O.O.O.O.#.T.",
"f.V V V D Y Y T T W W Q { u.z.(._.N.t.+.X.} X.X.X.X.o.o.o.O.O.Y.",
"a.V V V V S U Y Y Y T Q ] <.j.(._.m.t.+.~ } } } X.X.X.X.o.o.o.U.",
"&.V V V V V V S U Y Y R ` <.j./._.m.3.[ ~ ~ ~ ~ } } } X.X.X.X.I.",
"&.V V V V V V V V S U R ` <.7./._.n.,.` ! ! ! ~ ~ ~ ~ } } X.X.B.",
"#.V V V V V V V V V V Z I >.6./._.n.,.` W W ! ! ! ! ~ ~ ~ } } f.",
"O.V V V V V V V V C C F L ) :.K.P.q.' E Y H U Y Y Y U U U U U %.",
"o.V V V V V V V C F J K / ) :.K.P.0.) P L G C V V V V V V V V o.",
"X.V V V V V V V C J ) _ =.-.:.K.P.0.=.=.) K F V V V V V V V V X.",
"} V V V V V V V Z K =.4.5.5.9.K.P.Z.5.5.1.( G C V V V V V V V } ",
"~ V V V V V V V Z K _ q.L.P.P.P.P.P.P.P.v.( G C V V V V V V V ~ ",
"! V V V V V V V C G / =.4.K.P.P.P.P.P.b.) L Z V V V V V V V V ! ",
"T V V V V V V V V Z J / =.4.L.P.P.P.v.) ^ G C V V V V V V V V T ",
"Y V V V V V V V C F J / ) =.5.J.P.D._ / K G C V V V V V V V V Y ",
"U V V V V V V V C J ) =.=.=.;.8.e.-.=.=._ ^ F V V V V V V V V U ",
"D V V V V V V V Z ^ =.4.e.e.e.Z.C.e.w.w.2.) J Z V V V V V V V D ",
"A V V V V V V C F / -.A.P.P.P.P.P.P.P.P.F._ L Z V V V V V V V A ",
"C V V V V V V V Z K _ w.H.G.G.G.G.G.G.H.S.) J C V V V V V V V l ",
"u V V V V V V V C G / ) _ _ _ _ _ _ _ _ ) P F C V V V V V V V u ",
"w y V V V V V V C Z G L P P P P P P P P L F Z V V V V V V V t w "
};
