/* XPM */
static char *bake[] = {
/* columns rows colors chars-per-pixel */
"32 32 130 2 ",
"   c black",
".  c #020101",
"X  c #030101",
"o  c #050202",
"O  c #080303",
"+  c #0A0404",
"@  c #0C0505",
"#  c #0D0505",
"$  c #0E0606",
"%  c #0F0606",
"&  c #130808",
"*  c #170909",
"=  c #190A0A",
"-  c #1B0B0B",
";  c #220E0E",
":  c #230E0E",
">  c #240E0E",
",  c #250F0F",
"<  c #271010",
"1  c #2C1212",
"2  c #2E1313",
"3  c #301313",
"4  c #391717",
"5  c #3A1717",
"6  c #3D1919",
"7  c #411A1A",
"8  c #421B1B",
"9  c #431B1B",
"0  c #441B1B",
"q  c #451C1C",
"w  c #491D1D",
"e  c #4A1E1E",
"r  c #4E1F1F",
"t  c #5D2626",
"y  c #612727",
"u  c #642828",
"i  c #662929",
"p  c #682A2A",
"a  c #692A2A",
"s  c #6B2B2B",
"d  c #712E2E",
"f  c #732E2E",
"g  c #742F2F",
"h  c #752F2F",
"j  c #7E3333",
"k  c #803434",
"l  c #843636",
"z  c #883737",
"x  c #893838",
"c  c #8A3838",
"v  c #8B3939",
"b  c #8C3939",
"n  c #8F3A3A",
"m  c #923B3B",
"M  c #953D3D",
"N  c #963D3D",
"B  c #973D3D",
"V  c #983E3E",
"C  c #993E3E",
"Z  c #9A3F3F",
"A  c #9B3F3F",
"S  c #9C3F3F",
"D  c #9D4040",
"F  c #9E4040",
"G  c #9F4141",
"H  c #A04141",
"J  c #A14141",
"K  c #A24242",
"L  c #A34242",
"P  c #A44343",
"I  c #A54343",
"U  c #A64343",
"Y  c #A74444",
"T  c #A84444",
"R  c #A94545",
"E  c #AA4545",
"W  c #AB4646",
"Q  c #AC4646",
"!  c #AD4646",
"~  c #AE4747",
"^  c #AF4747",
"/  c #B04848",
"(  c #B14848",
")  c #B24848",
"_  c #B34949",
"`  c #B44949",
"'  c #B54A4A",
"]  c #B64A4A",
"[  c #B74A4A",
"{  c #B84B4B",
"}  c #B94B4B",
"|  c #BA4C4C",
" . c #BB4C4C",
".. c #BC4C4C",
"X. c #BD4D4D",
"o. c #BE4D4D",
"O. c #BF4E4E",
"+. c #C04E4E",
"@. c #C14E4E",
"#. c #C24F4F",
"$. c #C34F4F",
"%. c #C45050",
"&. c #C55050",
"*. c #C65050",
"=. c #C75151",
"-. c #C95252",
";. c #CA5252",
":. c #CB5252",
">. c #CC5353",
",. c #CD5353",
"<. c #CE5454",
"1. c #CF5454",
"2. c #D25555",
"3. c #D35656",
"4. c #D55656",
"5. c #D75757",
"6. c #D85858",
"7. c #D95858",
"8. c #DA5959",
"9. c #DB5959",
"0. c #DC5959",
"q. c #DD5A5A",
"w. c #DE5A5A",
"e. c #DF5B5B",
"r. c #E05B5B",
"t. c #E15B5B",
"y. c #E35C5C",
"u. c #E45D5D",
"i. c #E55D5D",
"p. c None",
/* pixels */
"#.y.u.q.y.r.q.y.q.y.q.y.y.q.r.r.r.r.r.r.r.r.r.r.r.r.r.r.r.u.u...",
"u.} | ..| | ......#.#...#.%.#.#.&.#.&.=.=.#.&.&.&.&.&.&.&.&.;.u.",
"q.' } } | ..| ........#...#...%.#.&.#.&.&.=.&.&.&.=.&.=.&.&.&.q.",
"9.' '       & h | | ..2   r %...#.  w #.u   a =.        d &.&.r.",
"9.) '   6 D > + } } P     % ......  w h   t #.#.  q ~ ~ ..&.&.q.",
"9.) )   0 ' 3 % } ' a   8   b ....  &   r #.#.#.  w #.#.&.&.=.q.",
"5.~ ~         u ' ' < O D   w } ..    o P ....%.    o o h #.#.q.",
"2.~ ~   4 m ; % ' D   5 ' = % ' }   > o - ~ ....  6 P P ' #.#.9.",
"<.~ W   5 M > o ) y           l '   q z   > / ..  8 W W ' #.#.5.",
">.P W       % u / ; % b n k   q '   q } k   2 )         a ....5.",
";.Z W W W W W ~ W ~ ~ ~ / ) / / ' ) ) } ' ' [ } } | | | ......5.",
"=.M S P T T W ~ W ~ W ~ E / / ~ / / / ' ) ' [ } ' } } } | ....2.",
"&.M M S W P T T T W ~ W ~ ~ ~ ~ / / / / ) ) ) ) ' } ' ' | } | 2.",
"#.M M M S P P T T T T E W T W ~ ~ ~ / / / / ) ) / ' ) ' ' ' } >.",
"#.M M M M Z P P P T P T T W ~ ~ ~ E E E / / ~ / ) ) ' ' ' ' ' ;.",
"..M M M M M M S L P P T P T P T T ~ E ~ E E ~ / / / / / / ' ) ;.",
"} M M M M M M m M S S L P P T P T T T ~ W W ~ ~ E ~ / / / / ) *.",
"} M M m M M M B M M M B Z L L W T T T T T W W W T ~ ~ E ! / ! &.",
"' M B B M M M Z M M B B M M M M Z Z S L J L P P T P P P J P J ..",
"' M B B Z M M Z Z Z Z Z Z S Z Z Z Z Z Z Z Z Z Z Z B B B B B B ) ",
"/ B B Z Z Z Z Z Z Z Z Z S S S S Z Z S Z Z Z Z Z Z Z B Z Z B B / ",
"/ Z B Z Z Z Z Z Z S Z S S S S D S S S Z S S Z Z S Z Z Z Z B B / ",
"~ Z Z Z Z S S S D S S S S S J S S S S S S D D D S Z S Z Z Z S ~ ",
"T Z Z Z S S D D D S S L J J J J L L L L L S D D S S S Z S Z S E ",
"T S Z S D D D D J J J J J J J J L D L D J J L S J S D D S S Z W ",
"P S S S D D D L J J J P P J J P L L L L L J L J S L D D D S S P ",
"P S S S S D L L J J J P J J P J L L L L L L L J L S L S D D S P ",
"T S D L L L D L P J P J P P P P L L L L L L P L L L L S L D D P ",
"L D S S L S L L J J T P P P P P L P P P P P P P L L L D L S S D ",
"Z S L L L L L L P P P P P P T P P P P P P P P P L L L L S L D S ",
"c L D L L L L P P P P T P T P P P T P T T P P P L L L L D L L z ",
"p.z L L L L P P T P P P P P T P P P P P P P P P L L L L L L c p."
};
