/* XPM */
static char *bakeToLoc[] = {
/* columns rows colors chars-per-pixel */
"32 32 71 1 ",
"  c black",
". c #030503",
"X c #060906",
"o c #0A0F0A",
"O c #0A100A",
"+ c #0B110B",
"@ c #0F160F",
"# c #101910",
"$ c #172217",
"% c #182418",
"& c #1C2A1C",
"* c #1F2F1F",
"= c #243524",
"- c #253725",
"; c #273B27",
": c #293D29",
"> c #293E29",
", c #2C422C",
"< c #2D432D",
"1 c #2D442D",
"2 c #2F462F",
"3 c #314A31",
"4 c #354F35",
"5 c #375337",
"6 c #385438",
"7 c #3F5F3F",
"8 c #426342",
"9 c #446644",
"0 c #456745",
"q c #466846",
"w c #476B47",
"e c #486B48",
"r c #486C48",
"t c #4A6E4A",
"y c #507750",
"u c #527B52",
"i c #557F55",
"p c #558055",
"a c #578157",
"s c #588358",
"d c #588458",
"f c #598659",
"g c #5B885B",
"h c #5C895C",
"j c #5C8A5C",
"k c #5E8C5E",
"l c #608F60",
"z c #609060",
"x c #629262",
"c c #649564",
"v c #649664",
"b c #659665",
"n c #669866",
"m c #689B68",
"M c #6A9F6A",
"N c #6BA16B",
"B c #6DA36D",
"V c #6FA66F",
"C c #70A770",
"Z c #71A971",
"A c #73AC73",
"S c #76B076",
"D c #77B177",
"F c #79B579",
"G c #7BB77B",
"H c #7BB87B",
"J c #7EBC7E",
"K c #7FBE7F",
"L c #80C080",
"P c #82C182",
"I c #83C483",
/* pixels */
"mPIKKKKPKLLKPPPPIPPPPPPPPPPPPIPb",
"PZAAAAAADDDDDDDDFFHFGHHHHHGGHHGI",
"KCZZAAADZDZDADDASDDDDDDGHGGGGGGP",
"KCC   +tDDD& 3DDS ,S7 8S    0GGP",
"KBC :b%XSSM  +ZSS 20 5SS :MNAHHP",
"JNC <A*oDA8 : dDD @ 3DSS ,DGFHFP",
"GNC    8DD%Xb 2AS  .bZDS  ..wFFK",
"GMV :x$oZN ;A#oZZ %.#MDD :bbVDFK",
"ZMV ;b%.A7     iA <s %CA ;MMVDDK",
"AxM   +0D$+hks <D <Ay &Z    8ZDJ",
"AsnVVZZDSDZDADAAAAADADAAAAAADASG",
"ZihmVADAZDAAAAAAAAADAAAAAAZAZAZG",
"CiihnVAAADAAZZVVZZZAAAAAZCZCZZAG",
"ViiigbMCZZVVCVBuaVVZVZZCCCCVCCCD",
"BiiiisxmNNBVBBM<4BVBVVVVCVVBBVCA",
"NiiiiiignNMnnmM<2BNBBBBBNVMBBVND",
"Mpupupaudkbnnbn,<MnNNNNBMMMMMMMZ",
"npapapaaaaaddxn<:MnbnMmnMnnNMMNZ",
"mappapaaadgadgx==bkxxxxbbxxkzzkB",
"napppdagggkhgxn-=bxghkgdadaaaaab",
"vaaddadg9999ww0--tw000w8gdadaaav",
"vddaadgk=;;;--:-;-;-:--=kgdaaddv",
"vadddggk9wwwwwr;;twww000gggddddv",
"xdddddgghzkvxvN;:nbxxxxkjgdgdaax",
"xdgdffgjkkkkkxn;-nxkkkkggkgdgddv",
"zddgfjjgkggkkzn:,nzkjkkkggggdgdz",
"zdggggkkkkkkkzn-;nzkkkkkkhgggfdk",
"kdggkkkgkkkkkxn,:nvkkkkkkkkkjggk",
"gkgjkkkkkkzkhxv,,vzkzkkkkkkjgjgk",
"ggjggkkkkzkzxkvwwvvkkzzkkkkkkggg",
"ujkkkkkxzkkzzzzvxxkkzkzkkkkkkggu",
"6ugkkkzkkzzzzkzxzzzzzkzzkzkkkku6"
};
