/* XPM */
static char *CacheImport[] = {
/* columns rows colors chars-per-pixel */
"32 32 256 2",
"   c #010300",
".  c #000C00",
"X  c #090C09",
"o  c #001200",
"O  c #0A160A",
"+  c #121710",
"@  c #141D12",
"#  c #1A2718",
"$  c #202419",
"%  c #20341E",
"&  c #252F23",
"*  c #283826",
"=  c #293B27",
"-  c #313F2E",
";  c #2B422A",
":  c #32432E",
">  c #394C36",
",  c #3C4E38",
"<  c #3E533B",
"1  c #42543C",
"2  c #4A5F44",
"3  c #4C6546",
"4  c #4E664A",
"5  c #536B4E",
"6  c #576E52",
"7  c #5B7355",
"8  c #5D7659",
"9  c #627D5C",
"0  c #1D8F1D",
"q  c #1D921E",
"w  c #2E951F",
"e  c #259C1F",
"r  c #2C9B1E",
"t  c #31961F",
"y  c #34991F",
"u  c #26A11F",
"i  c #2BA41E",
"p  c #29AB1E",
"a  c #30A21E",
"s  c #30AC1F",
"d  c #338D23",
"f  c #3B8B25",
"g  c #3A8729",
"h  c #2F9320",
"j  c #2A9D21",
"k  c #329120",
"l  c #369A20",
"z  c #2CAC21",
"x  c #2FA828",
"c  c #31AB21",
"v  c #36A824",
"b  c #2BB422",
"n  c #2DB925",
"m  c #2FB929",
"M  c #33B524",
"N  c #3CB324",
"B  c #35B926",
"V  c #3AB926",
"C  c #33B52A",
"Z  c #3EB629",
"A  c #32B82A",
"S  c #3CB333",
"D  c #36B933",
"F  c #479C1F",
"G  c #4B9B1F",
"H  c #699C1F",
"J  c #4AA11F",
"K  c #4B9320",
"L  c #4A9A20",
"P  c #599321",
"I  c #489938",
"U  c #529031",
"Y  c #689620",
"T  c #6B9C21",
"R  c #769923",
"E  c #45A620",
"W  c #4AA520",
"Q  c #4AAD20",
"!  c #53AC20",
"~  c #56AF28",
"^  c #45B524",
"/  c #4AB529",
"(  c #52B526",
")  c #56B727",
"_  c #5BB624",
"`  c #53BA29",
"'  c #56A33B",
"]  c #45B43A",
"[  c #67A725",
"{  c #6AA422",
"}  c #65AC23",
"|  c #6BA925",
" . c #72A725",
".. c #7FA323",
"X. c #7EAB25",
"o. c #7CAE28",
"O. c #65B325",
"+. c #69B325",
"@. c #6CB828",
"#. c #71B523",
"$. c #7CB526",
"%. c #73B827",
"&. c #7AB328",
"*. c #74B828",
"=. c #75A536",
"-. c #4F9440",
";. c #5C8352",
":. c #688654",
">. c #64825B",
",. c #668C5D",
"<. c #718956",
"1. c #75945F",
"2. c #4DB542",
"3. c #54B64A",
"4. c #5EAD52",
"5. c #5DB653",
"6. c #6BA64D",
"7. c #77A849",
"8. c #63AB55",
"9. c #6AAA5A",
"0. c #73AB52",
"q. c #78A558",
"w. c #73AC5B",
"e. c #7BAA5C",
"r. c #64B75B",
"t. c #6B8B64",
"y. c #6D9264",
"u. c #6F9965",
"i. c #76956F",
"p. c #769B6A",
"a. c #779670",
"s. c #799773",
"d. c #7E9C76",
"f. c #6DAC61",
"g. c #76AA65",
"h. c #77A669",
"j. c #7AA36F",
"k. c #7BAA6D",
"l. c #6BBA62",
"z. c #75B76A",
"x. c #79B16D",
"c. c #7EAB71",
"v. c #7FB372",
"b. c #7EBE75",
"n. c #859520",
"m. c #859B21",
"M. c #8F9D21",
"N. c #939621",
"B. c #909F21",
"V. c #84A424",
"C. c #8CA424",
"Z. c #84AB26",
"A. c #8CAE25",
"S. c #92AB25",
"D. c #95AA26",
"F. c #86B425",
"G. c #9BB224",
"H. c #9ABB24",
"J. c #94B328",
"K. c #84A333",
"L. c #98A73C",
"P. c #A0AF23",
"I. c #A9B826",
"U. c #B5BA27",
"Y. c #A9BB3A",
"T. c #99C427",
"R. c #A3C928",
"E. c #AECC2A",
"W. c #B8C826",
"Q. c #B1D72D",
"!. c #BBD12B",
"~. c #B6DC2D",
"^. c #B0CC33",
"/. c #BCE32B",
"(. c #C3DD29",
"). c #C4D92C",
"_. c #C5E42E",
"`. c #C8E52C",
"'. c #CCED2B",
"]. c #CEF52C",
"[. c #CFF82E",
"{. c #D1F72F",
"}. c #D7EA35",
"|. c #CFF331",
" X c #D1F531",
".X c #DBF637",
"XX c #D2F831",
"oX c #86A94A",
"OX c #95A845",
"+X c #9DA54A",
"@X c #92A94C",
"#X c #9BAD4B",
"$X c #87A853",
"%X c #8AAB54",
"&X c #85AB59",
"*X c #99AB54",
"=X c #87B058",
"-X c #9CB15A",
";X c #B0AF42",
":X c #A3B046",
">X c #ACB641",
",X c #B6BB48",
"<X c #A5AE50",
"1X c #A4B256",
"2X c #B0B353",
"3X c #819D7A",
"4X c #81AF62",
"5X c #84B166",
"6X c #8DB063",
"7X c #93B266",
"8X c #81AD75",
"9X c #81A279",
"0X c #84AE7A",
"qX c #82B373",
"wX c #86B27A",
"eX c #89B27E",
"rX c #85BF7B",
"tX c #B4C34F",
"yX c #84C67D",
"uX c #C4C449",
"iX c #D1CF4A",
"pX c #D2D64D",
"aX c #C3C556",
"sX c #DEE546",
"dX c #E3E94C",
"fX c #E6F642",
"gX c #EDF64C",
"hX c #E5EA5A",
"jX c #EFF750",
"kX c #F0F753",
"lX c #F0F759",
"zX c #89AE80",
"xX c #8DB583",
"cX c #8DBB83",
"vX c #90B686",
"bX c #91B887",
"nX c #92B788",
"mX c #95BB8B",
"MX c #99BD8E",
"NX c #9BBE91",
"BX c #AEBDAA",
"VX c #8CC483",
"CX c #94C58C",
"ZX c #9DC194",
"AX c #98CA91",
"SX c #A3CC9A",
"DX c #ABCEA3",
"FX c #B3C1AF",
"GX c #B2D2AC",
"HX c #BBD6B4",
"JX c #BBD6B5",
"KX c #C3D8BD",
"LX c #C7DBC2",
"PX c #CBDCC6",
"IX c #D3E2CF",
"UX c #D9E4D6",
/* pixels */
"FXUXIXLXLXPXPXPXPXPXPXPXPXPXPXPXPXPXPXPXPXPXPXPXPXPXPXPXPXIXUXBX",
"UXc.8X8X8X8X0X0X0XwXeXeXeXxXxXxXxXxXxXvXvXnXnXnXnXnXnXnXnXnXvXUX",
"LXk.k.c.c.c.8X8X8X0XwXwXwXeXeXeXxXxXxXxXxXvXvXbXbXbXnXnXnXnXnXPX",
"KXh.k.8XwXeXwX0X8X8XwXxXbXxXeXeXeXxXmXMXmXbXvXmXMXMXnXmXNXNXmXPX",
"JXh.8X7 - * , i.0Xc.eX, = = zXeXxXt.> = 1 9XmXd.; 3 MXNX; ; NXLX",
"JXk.1   @ #   X p.c.9X. . . 9 xXt.. O % o O vXs.o ; NXZXo o ZXKX",
"HXp.  X 0XwX2 2 y.8X6   , . : bX4 . = d.8 5 0Xs.o % 3X3Xo o ZXKX",
"GX>.  & c.g.c.c.k.wX#   d.@ . eXeX# . . . < xXs.o o o o o o ZXJX",
"DX,.  # 8Xh.3 3 u.j.    * X   9 p.i.a.7 # . 7 s.. # 5 5 o o MXHX",
"SX9.+   5 >.X   ,.5           : >   , i.: . 7 a.. = mXZXo o MXGX",
"ZXI ,.+       1 qX$   >.qX0X    d.@   . . * 8Xy.. = wXcX. . cXGX",
"CXg -.f.;.:.1.e.e.:.<.q.q.g.:.<.h.qXu.,.u.v.k.k.1.p.v.v.y.y.wXDX",
"CXg g I 6.6.7.oXoX$X%X$X$X$X&X%X&Xe.w.f.f.w.e.6X7X6X5Xx.x.x.x.SX",
"VXf f f U 7.oX+X+X+X+X+X+X@X@X*X*X$Xq.9.9.w.&X-X1X-X6X4Xg.f.g.SX",
"rXd d f P R L.uXiXiXiXiXuX,X<XuXaX#X$X0.8.0.%X1XaX2X-X=Xw.f.f.AX",
"b.d d f P R N.}.fXgXgXgXgXgXiXjXkX,X@X7.6.0.%X<XhXhX-X%Xw.9.9.CX",
"b.d d d K Y R n.N.U.fX>X>X,X;XgXgXdX:XoX7.6.oX#XpXlX1X%X0.8.8.VX",
"z.d k k f K P T m.U.'.m.R K.L.sXgXgXpXOX7.7.oX#XpXkXtXoX0.8.4.yX",
"l.w h w t y K Y m.W.'.m.T T M.(.).!..X^.K.=.=.L.uXgXY.=.' ' I z.",
"r.w w w w t F H m.W.].m.T T M.(.(.B.`.'.P.R T R I.].G.H G k h r.",
"5.w r r r y F { V.W.{.V.{  .C._._.C.D.'.'.D.....I.].G.H L t w 5.",
"5.r r r j l W { V.!.{.V.|  .S.`._.V...I.].`.S.V.I.].H.{ G y r 5.",
"3.r r r v v W [ Z.!.{.Z.|  .S.`._.X.| X.I.{.(.D.U.].H.{ J l r 3.",
"2.i i i v ! }  .A.!.XXA.o.o.S.`._.o.} | Z.E.{.(.W.].H.{ W a r 2.",
"] i i i E } X.A.G.).XXG.J.J.J._._.&.O.~ } $.E.{.'.[.T.} W a i ] ",
"] i p c Q +.A._.].XXXXXXXX|.J. X_.&.~ / ( O.$.E.[.[.T.} E i i ] ",
"S p p s Q O.F./._.~.Q.Q.Q.Q.F.~.T.@./ Z ^ ( O.$.R./.#.! v z i S ",
"C p p z N _ #.$.$.%.%.%.*.@.@.*.@.) Z C C Z ( _ #.#.O.^ c p p S ",
"C p p b M ^ ( _ ) ` ` ` ` ` ` ` / Z A A A B V ^ ( ( ^ N b z z C ",
"z p b b b b B V V V V V V B B V B A m m m m n B V V M b b b z x ",
"u b b b b n n n n n n n n n n n n n n n n n n n n n n b b b z j ",
"q u n n m D D D D D D D D D D D D D D D D D D D D D A n n n e 0 "
};
