/* XPM */
static char *cacheGreen[] = {
/* columns rows colors chars-per-pixel */
"32 32 155 2",
"   c #4D863A",
".  c #46B32C",
"X  c #4BB32D",
"o  c #57AD3F",
"O  c #59AD3E",
"+  c #45B631",
"@  c #4EB430",
"#  c #45B836",
"$  c #4EB738",
"%  c #45BA3B",
"&  c #53B534",
"*  c #57B739",
"=  c #59B73B",
"-  c #52B93C",
";  c #5AB83D",
":  c #45BD41",
">  c #5DB741",
",  c #5EBA41",
"<  c #5EBF4C",
"1  c #61BB45",
"2  c #64BE4B",
"3  c #6ABF4F",
"4  c #45C046",
"5  c #53C04C",
"6  c #4EC552",
"7  c #59C95E",
"8  c #62C04E",
"9  c #6AC254",
"0  c #66C65C",
"q  c #6EC55C",
"w  c #70C257",
"e  c #72C55D",
"r  c #5DC960",
"t  c #6FC760",
"y  c #69CC6A",
"u  c #73C763",
"i  c #7AC663",
"p  c #72C965",
"a  c #73CB6B",
"s  c #7BCA6B",
"d  c #6BCF70",
"f  c #76CE71",
"g  c #7BCE73",
"h  c #74D375",
"j  c #72D876",
"k  c #75D27A",
"l  c #7CD27B",
"z  c #7BDD7C",
"x  c #7EE17A",
"c  c #81CA6C",
"v  c #83CE75",
"b  c #8ACE77",
"n  c #89CE78",
"m  c #84D17C",
"M  c #8BD17E",
"N  c #85E87F",
"B  c #8CF27D",
"V  c #7ED481",
"C  c #7DDA85",
"Z  c #84D483",
"A  c #8BD485",
"S  c #83DC85",
"D  c #83D789",
"F  c #8DD78A",
"G  c #85D88C",
"H  c #8BD88D",
"J  c #91D486",
"K  c #93D88F",
"L  c #98D88F",
"P  c #86DD91",
"I  c #8DDB91",
"U  c #96D790",
"Y  c #93DA94",
"T  c #9BDA96",
"R  c #95DD9A",
"E  c #9ADD9C",
"W  c #A0D791",
"Q  c #A3DC9C",
"!  c #85E384",
"~  c #89E782",
"^  c #8CE38B",
"/  c #8DEC88",
"(  c #90E58D",
")  c #99FF80",
"_  c #9DF88C",
"`  c #8EE591",
"'  c #93E593",
"]  c #97EC93",
"[  c #99EA94",
"{  c #97E399",
"}  c #9BE59D",
"|  c #9EEB98",
" . c #9FF690",
".. c #A3EF9E",
"X. c #A3F496",
"o. c #A6FA95",
"O. c #ABFF96",
"+. c #AEFF99",
"@. c #B2FF9D",
"#. c #9EC9A4",
"$. c #9EDFA1",
"%. c #A4CDAB",
"&. c #A1DEA1",
"*. c #AADDA0",
"=. c #9DE3A2",
"-. c #9EE8A0",
";. c #A3E2A5",
":. c #A8E1A7",
">. c #A4E9A4",
",. c #ABEEA6",
"<. c #A6E3AA",
"1. c #ACE3AD",
"2. c #A5E9A8",
"3. c #ACEBAC",
"4. c #B3E3AF",
"5. c #B2EEAD",
"6. c #AAF5A0",
"7. c #AEF0AA",
"8. c #B2FBA2",
"9. c #B7F7AC",
"0. c #B8F6AF",
"q. c #B6F9A9",
"w. c #ADE5B1",
"e. c #AEE9B3",
"r. c #B2E6B4",
"t. c #B9E6B6",
"y. c #B3EBB4",
"u. c #B9EEB6",
"i. c #B6E7B8",
"p. c #B6EABA",
"a. c #BCE9BD",
"s. c #B9F2B4",
"d. c #BEFBB2",
"f. c #C5FFB4",
"g. c #C1F3BC",
"h. c #CAFEBB",
"j. c #BFEBC1",
"k. c #C2EDC3",
"l. c #CCEDCB",
"z. c #C4F1C3",
"x. c #CAF3C7",
"c. c #CDFAC5",
"v. c #C6F0C9",
"b. c #CCF2CC",
"n. c #D0F3CE",
"m. c #D4FCCC",
"M. c #DAFECF",
"N. c #D3EFD1",
"B. c #D5F1D5",
"V. c #D5F8D0",
"C. c #DDFED3",
"Z. c #DBF1DB",
"A. c #E0FFD5",
"S. c #E0F1DF",
"D. c #E8FEE0",
/* pixels */
"%.Z.Z.B.B.B.B.B.B.N.B.B.B.B.B.B.B.B.B.B.B.B.B.B.B.B.B.B.B.Z.Z.#.",
"Z.&.&.:.<.1.1.1.1.1.4.r.r.i.p.p.a.a.a.a.a.a.j.j.j.j.j.j.j.a.a.S.",
"l.E $.;.3.y.u.y.1.1.1.1.r.r.k.x.x.z.a.a.a.a.a.j.b.B.B.b.j.j.a.N.",
"l.R E ,.=.2.3.<.s.<.:.1.w.g.i.a.a.p.x.p.i.a.a.V.k.b.b.k.B.j.a.N.",
"l.Y } 8.E >.2.3.f.;.;.<.e.h.w.p.p.a.M.r.r.i.j.C.a.v.v.b.D.j.j.N.",
"k.I { @...-.>.>.,.$.$.;.3.h.s.y.y.y.g.w.r.r.j.A.b.z.v.k.n.a.a.N.",
"k.G I o.+.@.8.6.} E E E =.d.f.h.h.g.y.1.1.w.r.m.C.C.A.V.k.a.a.l.",
"t.Z G P ] o.+.+.@.} R R E =.7.d.f.h.h.y.:.1.1.r.z.m.C.C.A.k.p.l.",
"1.V D ^ P ` ' ] O.X.I Y R } =.>.2.3.f.s.;.:.<.y.e.p.p.z.M.c.r.l.",
":.d S ) / ^ ^ G _  .H I ' @...} -.E q.9.$.;.1.h.s.y.y.w.c.c.r.k.",
";.6 z B C ! ! D _ / D G I X.I { } R 8.>.E E ;.0.<.3.3.<.h.u.1.k.",
"E 4 7 x x N N ~ ~ V Z Z D ( ' ] [ [ | Y Y Y E >.2.3.5.5.5.:.:.a.",
"T : 4 r k z z k k l l l Z Z D ^ ^ H H H F K Y R R >.>.$.$.&.Q t.",
"U % : : 7 j j h f f f g l l V S S Z Z Z A A F I Y { } R T T T 4.",
"J # % : 4 6 y a a p a a f f l l l l m m m m Z A H H Y Y U K L 1.",
"A + # % % : : 5 0 t t u p a f f g g g g g v m m Z A F F F J J *.",
"n . + # # % % # + - 8 q t p p a a a s s s s g v m m m m M M M Q ",
"v . . + + + + + . . . X - < 9 u u u u u i i s s g g v v v v n W ",
"c . . . . . . . . . . . . . + + $ - , < 2 2 2 e e e 9 9 9 9 2 b ",
"i . . . . . . X X X X X X X @ @ @ X X X X X X X X . . . . . . i ",
"i . . X X X X X X X X @ @ @ @ @ @ @ @ @ @ X X X X X X X X . . i ",
"e . X X X X X @ @ & & & & & & & & & & & & & & @ @ X X X X X . e ",
"w X X X X @ & & & & & & * * * * * * * * & & & & & & @ X X X X w ",
"9 X X X & & & & & * * * * * = = = = * * * * * & & & & & X X X 9 ",
"3 X @ & & & & * * * = = ; ; ; ; ; ; ; ; = = = * * & & & & @ X 3 ",
"2 @ & & & * * * = ; ; ; ; ; ; ; ; ; ; ; ; ; ; = * * * & & & @ 2 ",
"2 & & & * * = = ; ; ; , , , , , , , , , , ; ; ; = = * * & & & 2 ",
"1 & & * * = ; ; ; , , , , , , , , , , , , , , ; ; ; = * * & & 1 ",
"> & * * = ; ; , , , , , , 1 1 1 1 1 1 , , , , , , ; ; = * * & , ",
"> * * = ; ; , , , , 1 1 1 1 1 1 1 1 1 1 1 1 , , , , ; ; = * * ; ",
"O * = ; ; , , , 1 1 1 1 1 1 1 1 1 1 1 1 1 1 1 1 , , , ; ; = * o ",
"  O ; , , 1 1 1 1 1 1 1 1 1 1 1 1 1 1 1 1 1 1 1 1 1 1 , , ; O   "
};
