/* XPM */
static char *cacheYellow[] = {
/* columns rows colors chars-per-pixel */
"32 32 101 2",
"   c #789B32",
".  c #B7C737",
"X  c #B7C936",
"o  c #B8C836",
"O  c #CECD25",
"+  c #CECE29",
"@  c #D0CE27",
"#  c #D0CE2B",
"$  c #CDD02E",
"%  c #CACF39",
"&  c #D1CF30",
"*  c #CDD233",
"=  c #CDD43B",
"-  c #D2D134",
";  c #D4D23C",
":  c #CDD640",
">  c #CFDA4E",
",  c #D5D443",
"<  c #D7D64C",
"1  c #D8D74D",
"2  c #D0D94C",
"3  c #D6D650",
"4  c #D6DA55",
"5  c #D9D955",
"6  c #D2DC5A",
"7  c #D9DA5C",
"8  c #D6DE65",
"9  c #DBDC64",
"0  c #DBDE6C",
"q  c #DEDF71",
"w  c #E0DE73",
"e  c #D7E06C",
"r  c #DBE06F",
"t  c #DCE174",
"y  c #DDE27B",
"u  c #E4EA76",
"i  c #E0E27A",
"p  c #E4EB7B",
"a  c #E9EE7C",
"s  c #EBF07B",
"d  c #F4F777",
"f  c #FFFF7B",
"g  c #AFD09A",
"h  c #B6D4A1",
"j  c #DEE583",
"k  c #DFE68A",
"l  c #E1E483",
"z  c #E4EB84",
"x  c #EAEF85",
"c  c #E1E68C",
"v  c #E4EB8C",
"b  c #E9EF8A",
"n  c #EDF382",
"m  c #EEF28F",
"M  c #F9FA82",
"N  c #F6F98E",
"B  c #FBFC8D",
"V  c #E3E792",
"C  c #E4E995",
"Z  c #E9EF96",
"A  c #E4EA9B",
"S  c #E9EE9D",
"D  c #EDF192",
"F  c #ECF19E",
"G  c #F5F892",
"H  c #FEFE93",
"J  c #F0F49A",
"K  c #F6F89B",
"L  c #FDFE9B",
"P  c #E6ECA3",
"I  c #E9EDA4",
"U  c #E7EDA9",
"Y  c #E9EDAC",
"T  c #EBF1A3",
"R  c #EDF2AB",
"E  c #F0F4A5",
"W  c #F9FBA6",
"Q  c #F1F4AC",
"!  c #F7F9AD",
"~  c #FDFDAE",
"^  c #EBEFB3",
"/  c #EDF1B4",
"(  c #EDF1BB",
")  c #F2F5B2",
"_  c #F7FAB6",
"`  c #FFFFB5",
"'  c #F2F6BC",
"]  c #FCFDBB",
"[  c #EEF2C1",
"{  c #F1F5C4",
"}  c #F5F8C7",
"|  c #F9FBC3",
" . c #F2F5CB",
".. c #F6F8CD",
"X. c #FDFECC",
"o. c #EFF5D9",
"O. c #F4F6D3",
"+. c #F5F8D1",
"@. c #FEFED2",
"#. c #F2F6DA",
"$. c #FEFEDD",
/* pixels */
"h o.#. .O.O.O.O.O.O.O.O.O.O.O.O.O.O.O.O.O.O.O.O.O.O.O.O.O.#.o.g ",
"#.A P P U U Y Y Y Y Y Y ^ / ( ( ( ( ( ( ( ( ( [ [ [ [ [ ( ( ( #.",
" .A A P R Q ) / U U U Y ^ ^ ' { } { ( ( ( ( ( [  .+.+. .[ ( ( O.",
" .C A E P T R U ) I U U Y ' / ( ( ( } / ^ ( ( ..[  . .[ +.[ ( O.",
"{ V Z L A T T R ~ P P U R ] Y / ( ' X.^ ^ / { @.( {  . .$.[ ( O.",
"{ c Z L J F T S E A A P R ` ) / / / ' Y ^ ^ ' @.} { { { ..( (  .",
"( k k B H H L K S A C A P ~ ` ` ] _ / Y Y Y ^ X.X.@.@...{ ( (  .",
"/ j j c m H H H L Z C C A P E ~ ` ` ` R U U Y / ' X.X.X.@.{ (  .",
"Y y j z c b b m B G c V C S A T T E ~ ! P I U / / / / ' X.| ^ { ",
"I e p f n z z k B N c c Z L J S S A W W A P R ` ) / / Y ] | ^ { ",
"P > i d j z z j M x j k v N V Z Z C L F C A P ! U R R U ] ) Y ( ",
"A : 6 u u s s a s y y y j b b m D D D V V V C F T E E R Q I P ( ",
"C = : 6 t u u t t t t t y j j z b k c c c c c C C S I A A A A ^ ",
"c * = = 6 t t t 0 0 0 0 t y y l l j j j j l l c V C C C C C C Y ",
"l * * = : 2 8 0 9 9 9 9 0 t t y y y y t t y y l c c c c c c c I ",
"i + $ * = = = , 4 7 7 7 9 0 0 r q t 0 0 0 q t y y j l l l l l S ",
"t + + $ * * * $ $ - < 5 7 7 9 9 9 9 9 9 9 0 0 t t y y y i i i C ",
"0 O + + + $ $ + + O O + - , 4 7 7 7 7 7 7 9 9 0 0 0 q q q q q c ",
"9 O O O + + + + O O O O O + + + - - ; , , , < 5 5 7 3 1 1 1 , w ",
"9 O O O O O O O O O O O + + + + + + + + O O O O O O O O O O O 9 ",
"7 O O O O O O O + + @ @ @ # # # # # # @ @ @ + + + O O O O O O 7 ",
"5 O O O O O @ @ # # # # # # # # # # # # # # # # @ @ O O O O O 5 ",
"5 O O O @ @ # # # # # & - - - - - - - - & # # # # # @ @ O O O 5 ",
"1 O @ @ # # # # - - - - - - - - - - - - - - - - # # # # @ @ O 1 ",
"< @ @ # # # - - - - - - - - - - - - - - - - - - - - # # # @ @ < ",
", # # # # - - - - - - ; ; ; ; ; ; ; ; ; ; - - - - - - # # # # , ",
", # # & - - - - - ; ; ; ; ; ; ; ; ; ; ; ; ; ; - - - - - & # # , ",
"; # & - - - - ; ; ; ; ; ; ; ; ; ; ; ; ; ; ; ; ; ; - - - - & # ; ",
"; & - - - - ; ; ; ; ; ; ; ; ; ; ; ; ; ; ; ; ; ; ; ; - - - - & ; ",
"% - - - - ; ; ; ; ; ; ; ; ; ; ; ; ; ; ; ; ; ; ; ; ; ; - - - - % ",
"o - - - ; ; ; ; ; ; ; ; ; ; ; ; ; ; ; ; ; ; ; ; ; ; ; ; - - - . ",
"  X ; ; ; ; ; ; , , , , , , , , , , , , , , , , ; ; ; ; ; ; X   "
};
