/* XPM */
static char *CacheExport[] = {
/* columns rows colors chars-per-pixel */
"32 32 255 2",
"   c #000300",
".  c #000C00",
"X  c #090C09",
"o  c #001200",
"O  c #0A160A",
"+  c #121710",
"@  c #131D12",
"#  c #1C241A",
"$  c #192818",
"%  c #20341E",
"&  c #252F23",
"*  c #283826",
"=  c #293B27",
"-  c #313F2E",
";  c #2B422A",
":  c #32432E",
">  c #394C36",
",  c #3C4E38",
"<  c #3E523A",
"1  c #42553E",
"2  c #4A5F44",
"3  c #4C6546",
"4  c #4E664A",
"5  c #536B4E",
"6  c #576E52",
"7  c #5B7355",
"8  c #5D7659",
"9  c #627D5C",
"0  c #1D911E",
"q  c #259C1F",
"w  c #2C9C1E",
"e  c #36991F",
"r  c #26A11F",
"t  c #2AA51E",
"y  c #2BAD1F",
"u  c #35A41E",
"i  c #38B01F",
"p  c #3C8A26",
"a  c #3A8729",
"s  c #279C22",
"d  c #3B9F21",
"f  c #2CAC22",
"g  c #2FA828",
"h  c #35AE27",
"j  c #2CB422",
"k  c #2DB925",
"l  c #2FB929",
"z  c #34B625",
"x  c #37B727",
"c  c #33B927",
"v  c #3BB926",
"b  c #34B728",
"n  c #3FB928",
"m  c #3CB233",
"M  c #36B933",
"N  c #469D1F",
"B  c #539B1F",
"V  c #5E9B1E",
"C  c #6A9D1F",
"Z  c #779A1F",
"A  c #43AD1D",
"S  c #54A91E",
"D  c #6FAE1E",
"F  c #74AB1C",
"G  c #7FB11F",
"H  c #4A8D25",
"J  c #499620",
"K  c #4C9A22",
"L  c #569921",
"P  c #549134",
"I  c #679624",
"U  c #6C9A20",
"Y  c #739321",
"T  c #729B21",
"R  c #7B9924",
"E  c #47A720",
"W  c #4DA222",
"Q  c #53A323",
"!  c #59A826",
"~  c #5CAB26",
"^  c #45B425",
"/  c #4BB425",
"(  c #47B72A",
")  c #53B525",
"_  c #5CB424",
"`  c #54B728",
"'  c #58B829",
"]  c #46B33B",
"[  c #56B633",
"{  c #64A322",
"}  c #6AA224",
"|  c #64A924",
" . c #6BAB22",
".. c #72A423",
"X. c #72AA23",
"o. c #75A825",
"O. c #79AA25",
"+. c #62B423",
"@. c #6CB325",
"#. c #6FB629",
"$. c #64B828",
"%. c #77B727",
"&. c #7BB326",
"*. c #7AA538",
"=. c #71B23B",
"-. c #4F9440",
";. c #5C8453",
":. c #63825B",
">. c #658C5D",
",. c #699C5D",
"<. c #55AF48",
"1. c #5CB652",
"2. c #67A643",
"3. c #63A24C",
"4. c #6BA34C",
"5. c #74A145",
"6. c #7CA446",
"7. c #7EA845",
"8. c #73A44A",
"9. c #63A452",
"0. c #66A659",
"q. c #6AA55C",
"w. c #6AA959",
"e. c #77AB58",
"r. c #6DB85B",
"t. c #6B8B64",
"y. c #6C9264",
"u. c #6E9865",
"i. c #76956F",
"p. c #769B6C",
"a. c #779670",
"s. c #799773",
"d. c #7D9C76",
"f. c #6EA961",
"g. c #72AC61",
"h. c #76A569",
"j. c #77AB6B",
"k. c #7AA96E",
"l. c #7AB067",
"z. c #7DB16D",
"x. c #7EAB71",
"c. c #7DB372",
"v. c #889A1F",
"b. c #959F1E",
"n. c #86A71E",
"m. c #96B11E",
"M. c #8E9721",
"N. c #899B21",
"B. c #979825",
"V. c #8DA422",
"C. c #88A726",
"Z. c #8DAD23",
"A. c #86AE28",
"S. c #92A524",
"D. c #92AD25",
"F. c #9CAD23",
"G. c #89B526",
"H. c #9AB322",
"J. c #9AB825",
"K. c #86A63A",
"L. c #9DA53A",
"P. c #A5A722",
"I. c #A8B824",
"U. c #B5B524",
"Y. c #A9B33C",
"T. c #99C529",
"R. c #AACA27",
"E. c #B5C828",
"W. c #B2CD2A",
"Q. c #ADD227",
"!. c #AAD02D",
"~. c #BAD727",
"^. c #BAD52D",
"/. c #BCDD2E",
"(. c #BCCC37",
"). c #BEE428",
"_. c #C7CC28",
"`. c #C4D827",
"'. c #C3DD2A",
"]. c #C2CD38",
"[. c #CCDE31",
"{. c #C2E727",
"}. c #C3E42B",
"|. c #CAE22B",
" X c #CDEC2C",
".X c #D0EA2A",
"XX c #CBF529",
"oX c #D1F82F",
"OX c #C7E930",
"+X c #D1E23B",
"@X c #D3F832",
"#X c #84A643",
"$X c #8AA646",
"%X c #93A643",
"&X c #9DA947",
"*X c #99AC44",
"=X c #96BB4B",
"-X c #8BAC51",
";X c #85AD5A",
":X c #94AE55",
">X c #89B550",
",X c #99B756",
"<X c #9BB15C",
"1X c #A4AD4E",
"2X c #ABBC48",
"3X c #ADAF51",
"4X c #AFB155",
"5X c #ABB65A",
"6X c #B3B455",
"7X c #819D7A",
"8X c #8AB062",
"9X c #87B769",
"0X c #93B562",
"qX c #81AD75",
"wX c #81A279",
"eX c #84AE7A",
"rX c #84BB77",
"tX c #86B27A",
"yX c #89B27E",
"uX c #B6C24B",
"iX c #B6C351",
"pX c #89C06A",
"aX c #A1C87D",
"sX c #C5C94A",
"dX c #CCD34D",
"fX c #DCE34D",
"gX c #E8F153",
"hX c #F0F755",
"jX c #F0F759",
"kX c #F0F85C",
"lX c #89AE80",
"zX c #8DB583",
"xX c #8DBB83",
"cX c #90B686",
"vX c #91B887",
"bX c #92B788",
"nX c #95BB8B",
"mX c #99BD8E",
"MX c #9BBE91",
"NX c #AEBDAA",
"BX c #8CC182",
"VX c #94C38C",
"CX c #9DC194",
"ZX c #ABCA87",
"AX c #A5CC98",
"SX c #ABCEA3",
"DX c #B3C1AF",
"FX c #B2D2AC",
"GX c #BBD6B4",
"HX c #BBD6B5",
"JX c #C3D8BD",
"KX c #C7DBC2",
"LX c #CBDCC6",
"PX c #D3E2CF",
"IX c #D9E4D6",
/* pixels */
"DXIXPXKXKXLXLXLXLXLXLXLXLXLXLXLXLXLXLXLXLXLXLXLXLXLXLXLXLXPXIXNX",
"IXx.qXqXqXqXeXeXeXtXyXyXyXzXzXzXzXzXzXcXcXbXbXbXbXbXbXbXbXbXcXIX",
"KXk.k.x.x.x.qXqXqXeXtXtXtXyXyXyXzXzXzXzXzXcXcXvXvXvXbXbXbXbXbXLX",
"JXh.k.qXtXyXtXeXqXqXtXzXvXzXyXyXyXzXnXmXnXvXcXnXmXmXbXnXMXMXnXLX",
"HXh.qX7 - * , i.eXx.yX, = = lXyXzXt.> = 1 wXnXd.; 3 mXMX; ; MXKX",
"HXk.1   @ #   X p.x.wX. . . 9 zXt.. O % o O cXs.o ; MXCXo o CXJX",
"GXp.  X eXtX2 2 y.qX6   , . : vX4 . = d.8 5 eXs.o % 7X7Xo o CXJX",
"FX:.  & x.f.x.x.j.tX#   d.@ . yXyX$ . . . < zXs.o o o o o o CXHX",
"SX>.  # qXj.3 3 u.h.    * X   9 p.i.a.7 $ . 7 s.. $ 5 5 o o mXGX",
"AXq.+   5 :.X   >.5           : >   , i.: . 7 a.. = nXCXo o mXFX",
"CXP >.+       < c.#   :.tXeX    d.@   . . * qXy.. = tXxX. . xXFX",
"VXa -.f.;.;.,.q.q.;.;.,.0.f.;.:.h.c.u.>.u.c.j.j.>.u.c.c.y.y.tXSX",
"VXa a P 3.3.3.3.3.9.9.9.9.9.0.0.0.0.w.g.g.e.e.g.l.l.l.l.z.z.z.AX",
"BXp p H P 5.5.5.8.4.4.4.8.4.3.9.9.9.w.e.e.;X;X;X;X8X8X8X8X8X9XAX",
"rXp H L I R K.$X#X6.6.6.#X6.8.3.3.4.e.-X-X:X:X:X<X<X<X<X<X0X0XAX",
"rXH I Y N.M.B.B.L.%X$X%X&X%X#X2.3.8.$X&X1X1X6X3X3X4X4X4X4X5X<XZX",
"9XL Y M.P._..X.X|.E.L.L.dXsX#X2.2.7.*XsXfXdXhXhXhXjXjXkXkXgX5XZX",
"9XY M.U. X~.I.F.I.|.`.B.[.(.K.=.2.7.*XdXfX*X2XuXsXhXdXiXiXdX,XaX",
"0Xv.P. XR.Z U U R P. XU.`.E.T L K U S.].+XK.*.K.Y.gXY.K.*.*.*.pX",
",Xv.~.~.Z V B B U N.'._.'.E.T L K U N.E.'.R U T b.XXH.C B J J r.",
",Xb.XXJ.C N N K ..S.|._.|.W...Q W } V.E.}...{ ..V.}.H.C K e e 1.",
"=XI.XXn.{ E d Q o.S. X_.|.W.o.! Q ..S.'.^.o.{ ..V.}.W...B e w 1.",
"=XI.XXn.{ W W | C.I.oXI.|.^.O.| ~ O.D. X!.X.~ ..Z.}.Q...S d w <.",
">Xm.XXJ.O.|  .O.D.'. XD.^.OXA.X.X.A.I.@XJ. .! X.Z.}.Q.X.Q u w <.",
"=.n.).{.H.Z.Z.D.W.oXT.&.R.@XW.G.G.H.}. X&.~ ! X.Z.}.Q. .Q u t ] ",
"=.F m.{.XX~.~.}.oXR.@.@.G./.@X'.^.}.@XT.@.) / @.G.}.Q. .E u t ] ",
"[ S D G R.).)./.T.@._ _ #.&.!.}.OX/.T.#.' ^ ^ _ &.T.G._ E f t m ",
"( A S +.@.%.%.#.$.` / ^ ` $.%.%.%.%.$.` ^ x x / _ @.+./ h y y m ",
"h y i ^ ) ) ' ) / n b b n ( ` ' ' ` ( n b c c x ^ / ^ z j f f h ",
"f y j j z v v v c k l l c c v v v v c l l l k k z z j j j j f g ",
"r j j j j k k k k k k k k k k k k k k k k k k k k k k j j j f s ",
"0 r j k l M M M M M M M M M M M M M M M M M M M M M l k k k q 0 "
};
