/* XPM */
static char *camAttrs[] = {
/* columns rows colors chars-per-pixel */
"32 32 256 2",
"   c #1E1E1E",
".  c #221C1B",
"X  c #281D1B",
"o  c #331A16",
"O  c #361E1A",
"+  c #3D1D17",
"@  c #28201E",
"#  c #35201D",
"$  c #3F211C",
"%  c #242424",
"&  c #2B2422",
"*  c #2B2B2B",
"=  c #3B2622",
"-  c #302C2B",
";  c #372927",
":  c #343434",
">  c #3C3634",
",  c #3B3A3A",
"<  c #541F16",
"1  c #43211C",
"2  c #4A251F",
"3  c #55231B",
"4  c #59241A",
"5  c #6A2417",
"6  c #66291E",
"7  c #6B291C",
"8  c #652419",
"9  c #712C1D",
"0  c #782D1E",
"q  c #412722",
"w  c #4C2822",
"e  c #472B26",
"r  c #542B23",
"t  c #5C2D25",
"y  c #45312E",
"u  c #59352E",
"i  c #433532",
"p  c #4E3936",
"a  c #453E3C",
"s  c #4D3B38",
"d  c #533631",
"f  c #553A35",
"g  c #5B3A34",
"h  c #5B3F3A",
"j  c #583A35",
"k  c #622D24",
"l  c #722F23",
"z  c #64342C",
"x  c #6E3127",
"c  c #793527",
"v  c #6B3C34",
"b  c #6D3F38",
"n  c #653830",
"m  c #703D33",
"M  c #774238",
"N  c #424242",
"B  c #4C4B4A",
"V  c #555454",
"C  c #5C5452",
"Z  c #5C5C5C",
"A  c #5B5857",
"S  c #5B4845",
"D  c #694A45",
"F  c #764B43",
"G  c #68514D",
"H  c #75534E",
"J  c #625C5B",
"K  c #6A5755",
"L  c #755651",
"P  c #795C57",
"I  c #79625F",
"U  c #646463",
"Y  c #6A6564",
"T  c #6D6C6C",
"R  c #746563",
"E  c #7B6662",
"W  c #736C6A",
"Q  c #7A6A67",
"!  c #77716F",
"~  c #737272",
"^  c #7C7674",
"/  c #7C7B7A",
"(  c #7A7877",
")  c #812E1C",
"_  c #8C331E",
"`  c #82311E",
"'  c #93381F",
"]  c #98321D",
"[  c #802F21",
"{  c #833526",
"}  c #883B28",
"|  c #943A23",
" . c #993C24",
".. c #9F3F28",
"X. c #813D31",
"o. c #A63E25",
"O. c #9C432B",
"+. c #9C4026",
"@. c #8B4534",
"#. c #854538",
"$. c #884839",
"%. c #944735",
"&. c #AE4A2A",
"*. c #A44429",
"=. c #B34C2D",
"-. c #BE4C2A",
";. c #A24D35",
":. c #AB4E33",
">. c #A24F38",
",. c #A5543D",
"<. c #AA543B",
"1. c #B95333",
"2. c #B25336",
"3. c #C6522D",
"4. c #C25432",
"5. c #C85B34",
"6. c #D35B30",
"7. c #D86B3A",
"8. c #E6763B",
"9. c #875449",
"0. c #995F4F",
"q. c #955545",
"w. c #885B54",
"e. c #A75942",
"r. c #A95842",
"t. c #84625D",
"y. c #8A635C",
"u. c #9E6354",
"i. c #996559",
"p. c #98665B",
"a. c #A46C5D",
"s. c #A96756",
"d. c #B56B57",
"f. c #B7745C",
"g. c #BB6145",
"h. c #8B6760",
"j. c #846964",
"k. c #846E6A",
"l. c #8A6964",
"z. c #946B64",
"x. c #936B65",
"c. c #88716E",
"v. c #93726C",
"b. c #99746E",
"n. c #837371",
"m. c #8C7672",
"M. c #827C7A",
"N. c #8D7D7B",
"B. c #867876",
"V. c #937974",
"C. c #957E7A",
"Z. c #9B7B76",
"A. c #A26F61",
"S. c #AC7668",
"D. c #BA7C65",
"F. c #B77861",
"G. c #A07D77",
"H. c #CA7454",
"J. c #8B817E",
"K. c #94807D",
"L. c #9C837F",
"P. c #BC836D",
"I. c #A3827C",
"U. c #BA8976",
"Y. c #CE8B6C",
"T. c #D78C66",
"R. c #CF9274",
"E. c #C4937D",
"W. c #D19A7C",
"Q. c #D09577",
"!. c #C28D77",
"~. c #E19366",
"^. c #838282",
"/. c #8D8684",
"(. c #8D8887",
"). c #8C8B8B",
"_. c #938482",
"`. c #9D8682",
"'. c #948886",
"]. c #9B8986",
"[. c #948D8B",
"{. c #9D8D8A",
"}. c #9C908E",
"|. c #999695",
" X c #A48B86",
".X c #AC8C86",
"XX c #A18C89",
"oX c #AC8F8A",
"OX c #A78781",
"+X c #A4918E",
"@X c #AF938E",
"#X c #B5958C",
"$X c #B99689",
"%X c #A39593",
"&X c #AB9592",
"*X c #A79A97",
"=X c #AB9D9B",
"-X c #A39D9C",
";X c #B39A95",
":X c #BD9B93",
">X c #B69A95",
",X c #ADA19F",
"<X c #B4A19E",
"1X c #BCA19C",
"2X c #BEA194",
"3X c #ACA6A5",
"4X c #ACACAC",
"5X c #A4A2A2",
"6X c #B4A7A5",
"7X c #BDA5A1",
"8X c #B4ADAC",
"9X c #BAAEAC",
"0X c #BAA8A5",
"qX c #BAB0AE",
"wX c #B2B1B1",
"eX c #BAB2B0",
"rX c #BCBBBB",
"tX c #C39A87",
"yX c #D39F81",
"uX c #C19E98",
"iX c #CFA388",
"pX c #D5A689",
"aX c #D7AB8E",
"sX c #D4A184",
"dX c #CAA69C",
"fX c #CCAB9D",
"gX c #C4A399",
"hX c #D9AF92",
"jX c #D2AA9B",
"kX c #DAB295",
"lX c #DCBA9C",
"zX c #DBB79A",
"xX c #E5BF9B",
"cX c #C2AAA6",
"vX c #C3ADAA",
"bX c #CDADA3",
"nX c #C7B1AA",
"mX c #DDBEA1",
"MX c #D3B5A7",
"NX c #C1BFBF",
"BX c #DEC2A7",
"VX c #DECCB5",
"CX c #E2C4A6",
"ZX c #E4CAAC",
"AX c #E2C6A9",
"SX c #EED8AE",
"DX c #E3CEB1",
"FX c #E5D2B4",
"GX c #E9D3B4",
"HX c #F5EABA",
"JX c #C4C4C4",
"KX c #C9C7C7",
"LX c #CCCBCB",
"PX c #DDDDDD",
"IX c #D3D2D2",
"UX c None",
/* pixels */
"KXPXIXKXKXKXKXKXKXLXLXLXLXLXLXLXLXLXLXLXLXLXLXLXLXLXLXLXLXIXPXJX",
"PX).[.}.%X%X*X*X=X=X=X,X3X6X6X6X0X8X9X9XqXqXeXeXwXwXwXwXwXwX4XPX",
"JX/.]. XoX@X#X;X;X>X>X>X1X1X7X7X7XcXcXvXvXvXnXvXeXwXwXwXwXwXwXLX",
"NXN.L.tXhXkXkXzXlXlXmXmXCXCXAXZXZXZXDXFXFXFXGXVX9X8X8XwXwXwXwXLX",
"rXB.Z.tXiX$X#X$X$X:X:X2XgXdXfXfXfXbXbXMXMXMXBXGXvX9X9X9XqXwXwXKX",
"rXn.V.E.tXC.N.J._.'.'.{.oX#X:X:X:XuXuXgXgXdXMXGXbXcXcXvXvX9X8XJX",
"wXQ v.!.U.m.^ ( / M.^./.]..XxXzXlXlXmXBXCXAXSXHXZXDXDXFXFX0X8XJX",
"3XR l.P.U.c.~ ~ ~ ( / M.K.OXhX XXXXX+X&X&X:XjXCX1X<X<X7XDX0X3XrX",
"|.P h.P.P.j.W T T ~ ~ ^ N.I.pXL././.(.[.}.@XgXmX;X*X=X>XAX<X5XrX",
"[.S t.D.D.E Y U Y T T ! n.Z.sXC.M./ ^.^./. XtXzX+X}.%X>XBX=X-XrX",
"[.= w.F.F.P J Z U U U T k.b.W.m.^ ( / / J.`.$XkXXX[.+X@XmX&X|.wX",
"(.o z f.f.L J Z Z Z U Y E z.Q.c.! ~ ~ ( M.C.$XaX`.'.].oXzX+X}.4X",
"^.o < <.d.K C V A A Z J I x.R.j.W T T ~ ^ V.U.pXK.J._.OXkXXX[.3X",
"M.o < ' >.H G C C K K K P p.Y.h.E R W Q k.v.U.yXV.B.N.I.aX`./.5X",
"( o < ' ' k F H H H L P w.s.T.i.y.t.j.j.l.v.S.W.m.n.m.G.pXC.J.|.",
"~ o < ' ' 8 5 } q.0.u.u.s.d.~.d.a.a.A.A.A.z.S.R.k.Q n.b.yXV.M.|.",
"W o < ' ' 5 ) _ 9 c 9.0.s.d.T.s.u.i.p.a.D.p.S.Y.j.R Q v.W.m.^ ).",
"Y o 3 | | 5 ) 9 + o o 1 z #.H.9.H H L w.f.i.a.Y.t.R E x.R.k.W (.",
"U o 3 |  .5 ` 9 O . . X 1 8 &.3 w r n #.g.%.r.H.9.H D F H.D a T ",
"J O 3  . .7 { c $ X . @ 2 6 =.6 6 7 0 _ -.] o.3.) 7 4 8 *.1 X Z ",
"A O 3  .+.9 | } r q = q r l 4.4.4.4.5.6.8.6.7.8.3.-.&.&. .1 . A ",
"V # 4 +.*.[ *...l k t k x c { { { { | o.3. .*.4.l t w 2 1 # . V ",
"B # 3 O.1.=.5.5.:.;.;.;.;.:.:.:.:.:.2.4.7.1.1.1.t q ; & & @   B ",
"B & w c *.=.5.5.:.;.;.;.>.>.>.>.>.,.<.1.7.2.;.@.e - % % % % % B ",
"N & = e t c O.%.z d d d d d d d d d n X.2.v u y ; * * % % % % N ",
"N % % - e z @.@.d i > > > > > > > i f m <.g i : - * * * * % % N ",
", % * * ; u @.#.d > > > > > > > > > p v ,.j > : : * * * * * % , ",
", * * * y u @.$.j p p p p p p p p p f b ,.j > : : : : * * * * , ",
", * * - i g $.$.v v b b b b b b b b b M e.f > : : : : : * * * , ",
": * * : > j M ,.e.e.e.e.e.e.e.e.e.e.e.e.$.s , , : : : : : * * : ",
": * : : > i f j h h h h h h h h h h h h s a , , , : : : : : * : ",
"UX: : : , , , a a a a a a a a a a a a a a , , , , , , , : : : UX"
};
