/* XPM */
static char * C:\Users\Slabster & Vicster\Documents\maya\2013_x64\prefs\icons\camOverlayLo_xpm[] = {
"32 32 957 2",
"  	c None",
". 	c #C5C5C5",
"+ 	c #C0BFBF",
"@ 	c #B2B1B1",
"# 	c #ACABAB",
"$ 	c #ADACAC",
"% 	c #AFADAD",
"& 	c #B1AFAF",
"* 	c #B3B0B0",
"= 	c #B4B2B1",
"- 	c #B5B3B3",
"; 	c #B6B3B4",
"> 	c #B7B4B5",
", 	c #B7B6B7",
"' 	c #B8B6B7",
") 	c #B8B7B7",
"! 	c #B9B8B8",
"~ 	c #BBBABA",
"{ 	c #BCBBBB",
"] 	c #BDBBBB",
"^ 	c #BDBBBC",
"/ 	c #BEBBBC",
"( 	c #BEBDBD",
"_ 	c #BEBDBE",
": 	c #BEBCBE",
"< 	c #BDBCBD",
"[ 	c #BEBCBD",
"} 	c #BFBDBE",
"| 	c #C2C1C1",
"1 	c #C8C7C8",
"2 	c #CBCBCB",
"3 	c #BDBCBC",
"4 	c #B9B7B6",
"5 	c #AFA9A8",
"6 	c #ABA3A2",
"7 	c #ADA5A4",
"8 	c #AFA7A6",
"9 	c #B2A9A7",
"0 	c #B3AAA9",
"a 	c #B4ADAB",
"b 	c #B5AEAC",
"c 	c #B6AEAD",
"d 	c #B7AFAE",
"e 	c #B7B0B0",
"f 	c #B8B2B1",
"g 	c #B9B3B1",
"h 	c #BBB4B3",
"i 	c #BCB6B5",
"j 	c #BDB7B7",
"k 	c #BEB8B7",
"l 	c #BFB8B8",
"m 	c #C0B9B9",
"n 	c #C0BABA",
"o 	c #C0BBBA",
"p 	c #C0BBBB",
"q 	c #C0BABB",
"r 	c #C1BBBB",
"s 	c #BFBBBA",
"t 	c #C1BEBE",
"u 	c #C6C5C5",
"v 	c #C8C8C8",
"w 	c #AAA5A4",
"x 	c #A9A09F",
"y 	c #A7948F",
"z 	c #A88E8A",
"A 	c #AA918E",
"B 	c #AE9391",
"C 	c #B29794",
"D 	c #B49A97",
"E 	c #B49D99",
"F 	c #B49F9B",
"G 	c #B4A09C",
"H 	c #B4A09D",
"I 	c #B5A19F",
"J 	c #B8A3A1",
"K 	c #BBA6A3",
"L 	c #BDA9A5",
"M 	c #BEACA8",
"N 	c #BFADAA",
"O 	c #C0AEAB",
"P 	c #C1AFAC",
"Q 	c #C2B0AE",
"R 	c #C3B1AF",
"S 	c #C4B3AF",
"T 	c #C5B4B0",
"U 	c #C5B4B2",
"V 	c #C6B5B3",
"W 	c #C8B7B3",
"X 	c #C6B6B2",
"Y 	c #BFB4B2",
"Z 	c #BEB6B5",
"` 	c #C1BDBD",
" .	c #C2C0C0",
"..	c #9E9998",
"+.	c #A09492",
"@.	c #A28782",
"#.	c #A9857D",
"$.	c #B38E83",
"%.	c #B99388",
"&.	c #B9948A",
"*.	c #BA978D",
"=.	c #BB9B90",
"-.	c #BB9D92",
";.	c #BB9E94",
">.	c #BC9F95",
",.	c #BEA097",
"'.	c #C0A39A",
").	c #C3A79D",
"!.	c #C4AAA0",
"~.	c #C5ACA2",
"{.	c #C6AEA3",
"].	c #C9AFA5",
"^.	c #CAB0A7",
"/.	c #CAB2A8",
"(.	c #CBB4AA",
"_.	c #CCB6AB",
":.	c #CDB7AD",
"<.	c #CDB8AE",
"[.	c #CEBAB0",
"}.	c #D1BCB1",
"|.	c #CEBBB0",
"1.	c #C6B6AF",
"2.	c #C1B6B1",
"3.	c #BFBAB8",
"4.	c #BEBCBC",
"5.	c #9B9898",
"6.	c #9E9392",
"7.	c #A0837F",
"8.	c #AF867A",
"9.	c #C89C85",
"0.	c #D1A58A",
"a.	c #C8A18A",
"b.	c #C6A18C",
"c.	c #C9A690",
"d.	c #CCA893",
"e.	c #CDAA94",
"f.	c #CFAB95",
"g.	c #D2AD96",
"h.	c #D2B09A",
"i.	c #D1B5A0",
"j.	c #D1B8A2",
"k.	c #D1B7A1",
"l.	c #D3B8A2",
"m.	c #D8BBA5",
"n.	c #DABDA7",
"o.	c #D8BEA8",
"p.	c #D8C0AA",
"q.	c #D8C3AD",
"r.	c #D9C5AF",
"s.	c #D8C6B1",
"t.	c #D9C8B3",
"u.	c #DCCBB5",
"v.	c #DAC9B5",
"w.	c #D3C2B1",
"x.	c #CBBDB2",
"y.	c #C0BBB8",
"z.	c #979495",
"A.	c #9A8F8E",
"B.	c #9D7E7A",
"C.	c #AE8276",
"D.	c #CD9D81",
"E.	c #D2A586",
"F.	c #BF9C85",
"G.	c #B99985",
"H.	c #C19D88",
"I.	c #C9A18B",
"J.	c #CFA58E",
"K.	c #D5A990",
"L.	c #D9AD92",
"M.	c #D8B095",
"N.	c #D1B099",
"O.	c #CDB19B",
"P.	c #CBB19B",
"Q.	c #CEB29C",
"R.	c #D5B59E",
"S.	c #DAB9A1",
"T.	c #DDBEA4",
"U.	c #DDC0A7",
"V.	c #DBC0A9",
"W.	c #D4C0AC",
"X.	c #D5C3AE",
"Y.	c #DAC8B1",
"Z.	c #DBC9B2",
"`.	c #D8C5B1",
" +	c #CFC0B2",
".+	c #C0BAB6",
"++	c #B9B7B8",
"@+	c #938D8D",
"#+	c #968887",
"$+	c #997874",
"%+	c #A87B6F",
"&+	c #C19079",
"*+	c #BE947D",
"=+	c #9E857A",
"-+	c #957F79",
";+	c #A38279",
">+	c #B2887C",
",+	c #C19081",
"'+	c #CD9885",
")+	c #D4A08A",
"!+	c #D0A08B",
"~+	c #C3988A",
"{+	c #B9968B",
"]+	c #B4998E",
"^+	c #B69B90",
"/+	c #C09D92",
"(+	c #CBA496",
"_+	c #D8B29E",
":+	c #DBB5A1",
"<+	c #D2AE9F",
"[+	c #CAA99E",
"}+	c #C1A89F",
"|+	c #C2ABA1",
"1+	c #CAB3A4",
"2+	c #D0BAA8",
"3+	c #D3C0AD",
"4+	c #CDBFB1",
"5+	c #BDB8B4",
"6+	c #B6B4B5",
"7+	c #898383",
"8+	c #8D7F7D",
"9+	c #94726D",
"0+	c #A3756A",
"a+	c #BA8773",
"b+	c #B38875",
"c+	c #8E7772",
"d+	c #867170",
"e+	c #9A7570",
"f+	c #B07F74",
"g+	c #C78F7C",
"h+	c #D69B82",
"i+	c #DBA287",
"j+	c #D7A188",
"k+	c #CA9885",
"l+	c #BD9184",
"m+	c #AE8C85",
"n+	c #B08F88",
"o+	c #C29B8D",
"p+	c #D2A794",
"q+	c #DEB49C",
"r+	c #E1B79E",
"s+	c #DAB09C",
"t+	c #CEA89A",
"u+	c #BD9F99",
"v+	c #BA9F9A",
"w+	c #C4A89D",
"x+	c #CBB1A2",
"y+	c #CABBAD",
"z+	c #BAB4B1",
"A+	c #B3B1B3",
"B+	c #797676",
"C+	c #807472",
"D+	c #8F6D67",
"E+	c #A17166",
"F+	c #B7816E",
"G+	c #B18170",
"H+	c #90716A",
"I+	c #8C6E6A",
"J+	c #A7776D",
"K+	c #C38975",
"L+	c #E2A280",
"M+	c #F0B087",
"N+	c #EEB28B",
"O+	c #ECB28C",
"P+	c #E8B08A",
"Q+	c #D7A287",
"R+	c #BA8B81",
"S+	c #BC8F84",
"T+	c #DCAE92",
"U+	c #EDC09A",
"V+	c #EFC49D",
"W+	c #F0C7A0",
"X+	c #F1C8A1",
"Y+	c #E3BD9E",
"Z+	c #C8A598",
"`+	c #BE9E97",
" @	c #C6A79B",
".@	c #CBAE9F",
"+@	c #CDB4A2",
"@@	c #C6B5A6",
"#@	c #B6B0AD",
"$@	c #AFAEAF",
"%@	c #6A6666",
"&@	c #736664",
"*@	c #89655F",
"=@	c #9F6C60",
"-@	c #B47B68",
";@	c #AF7B69",
">@	c #8F6B63",
",@	c #8F6A63",
"'@	c #B0786A",
")@	c #D08D73",
"!@	c #EEA87E",
"~@	c #FBB586",
"{@	c #F6B688",
"]@	c #F5B78A",
"^@	c #F6B98B",
"/@	c #E7AA86",
"(@	c #CA8A7B",
"_@	c #CB8E7F",
":@	c #EBB590",
"<@	c #F9C99A",
"[@	c #F6C89B",
"}@	c #F7CA9D",
"|@	c #FBD1A0",
"1@	c #EEC59E",
"2@	c #D0A895",
"3@	c #C39D93",
"4@	c #C7A396",
"5@	c #CAA99A",
"6@	c #CAAE9C",
"7@	c #C2AFA1",
"8@	c #B1ABA8",
"9@	c #AAA9AB",
"0@	c #5A5453",
"a@	c #655654",
"b@	c #815B55",
"c@	c #9B6559",
"d@	c #B27560",
"e@	c #AD7561",
"f@	c #8B655C",
"g@	c #8F665D",
"h@	c #B67765",
"i@	c #D68B6E",
"j@	c #ECA179",
"k@	c #F6AB7F",
"l@	c #F3AB80",
"m@	c #F2AE83",
"n@	c #F4B486",
"o@	c #EDA881",
"p@	c #DE8B75",
"q@	c #DE8D77",
"r@	c #EEB089",
"s@	c #F5C092",
"t@	c #F4BF93",
"u@	c #F5C296",
"v@	c #F8C89A",
"w@	c #EDC098",
"x@	c #D5A891",
"y@	c #C99D8E",
"z@	c #C89E8F",
"A@	c #C7A192",
"B@	c #C6A797",
"C@	c #BDA89D",
"D@	c #ABA5A2",
"E@	c #A3A3A4",
"F@	c #514A49",
"G@	c #5C4A48",
"H@	c #744942",
"I@	c #905547",
"J@	c #B06D58",
"K@	c #AE715D",
"L@	c #8B6157",
"M@	c #8C6058",
"N@	c #AF705F",
"O@	c #CE8368",
"P@	c #E89973",
"Q@	c #F4A479",
"R@	c #F1A57A",
"S@	c #F1A77C",
"T@	c #F1AB7F",
"U@	c #EFA27B",
"V@	c #E98C70",
"W@	c #E98E73",
"X@	c #EFA982",
"Y@	c #F2B78B",
"Z@	c #F2B88D",
"`@	c #F4BB8F",
" #	c #F6C092",
".#	c #EBB790",
"+#	c #D1A18A",
"@#	c #C49787",
"##	c #C39789",
"$#	c #C39B8C",
"%#	c #C3A192",
"&#	c #BAA397",
"*#	c #A69F9C",
"=#	c #9E9D9E",
"-#	c #4F4847",
";#	c #554340",
">#	c #613028",
",#	c #7E3B2D",
"'#	c #AC654F",
")#	c #B1715C",
"!#	c #8E5F55",
"~#	c #875A54",
"{#	c #9A6258",
"]#	c #B97460",
"^#	c #E2916C",
"/#	c #F5A073",
"(#	c #F2A275",
"_#	c #F0A176",
":#	c #EF9D75",
"<#	c #ED9672",
"[#	c #EB8D6E",
"}#	c #EB9071",
"|#	c #EFA17C",
"1#	c #F1AC83",
"2#	c #F2B287",
"3#	c #F4B689",
"4#	c #F7B88A",
"5#	c #E7AC87",
"6#	c #C3937F",
"7#	c #B48A7F",
"8#	c #B99084",
"9#	c #BE9689",
"0#	c #C19D8C",
"a#	c #B89E90",
"b#	c #A29A96",
"c#	c #989899",
"d#	c #4D4746",
"e#	c #523F3C",
"f#	c #58241C",
"g#	c #752B1C",
"h#	c #A7553D",
"i#	c #B2644D",
"j#	c #96584A",
"k#	c #90574D",
"l#	c #A06155",
"m#	c #B8705C",
"n#	c #D98564",
"o#	c #EB926A",
"p#	c #EE986E",
"q#	c #EF986F",
"r#	c #ED936D",
"s#	c #ED906C",
"t#	c #ED906D",
"u#	c #ED9470",
"v#	c #EE9B76",
"w#	c #F0A27B",
"x#	c #F0A87F",
"y#	c #F0AB81",
"z#	c #EEA981",
"A#	c #DA9D7E",
"B#	c #B48678",
"C#	c #A67F78",
"D#	c #B1887E",
"E#	c #B89083",
"F#	c #BD9786",
"G#	c #B4988A",
"H#	c #9E9490",
"I#	c #939293",
"J#	c #4D4646",
"K#	c #523E3B",
"L#	c #59261E",
"M#	c #742616",
"N#	c #A23F24",
"O#	c #B14C2F",
"P#	c #A24C36",
"Q#	c #A75743",
"R#	c #C06D55",
"S#	c #CC775D",
"T#	c #CC765C",
"U#	c #D57B5E",
"V#	c #E68664",
"W#	c #EE8C67",
"X#	c #ED8D68",
"Y#	c #ED9169",
"Z#	c #EE966D",
"`#	c #EF9970",
" $	c #EE9871",
".$	c #EE9873",
"+$	c #EE9A76",
"@$	c #E99878",
"#$	c #DD9478",
"$$	c #C68A77",
"%$	c #A37B73",
"&$	c #997873",
"*$	c #A98078",
"=$	c #B3887C",
"-$	c #B99181",
";$	c #B09285",
">$	c #998D89",
",$	c #8F8B8B",
"'$	c #4A4343",
")$	c #503C3A",
"!$	c #59271F",
"~$	c #732414",
"{$	c #A03519",
"]$	c #B03F20",
"^$	c #A64128",
"/$	c #B04F35",
"($	c #CF6949",
"_$	c #DA7452",
":$	c #CF6E51",
"<$	c #D27154",
"[$	c #E47D5C",
"}$	c #ED8661",
"|$	c #ED8C65",
"1$	c #EE9269",
"2$	c #F0986D",
"3$	c #F09A6F",
"4$	c #EF976F",
"5$	c #EE9670",
"6$	c #EE9672",
"7$	c #E89373",
"8$	c #D98C73",
"9$	c #C08271",
"0$	c #9A746D",
"a$	c #91726E",
"b$	c #A47B73",
"c$	c #B18377",
"d$	c #B78B7A",
"e$	c #AE8D7F",
"f$	c #958883",
"g$	c #898685",
"h$	c #443F3F",
"i$	c #4B3937",
"j$	c #58261F",
"k$	c #A1381C",
"l$	c #AF3E1F",
"m$	c #A0371E",
"n$	c #AB3F23",
"o$	c #CF562F",
"p$	c #E1653A",
"q$	c #E06C43",
"r$	c #E3744C",
"s$	c #EA7D55",
"t$	c #EE865D",
"u$	c #EF8E65",
"v$	c #F0946A",
"w$	c #F1976C",
"x$	c #F1996D",
"y$	c #EF996F",
"z$	c #EF9A70",
"A$	c #F19C72",
"B$	c #ED9972",
"C$	c #E39270",
"D$	c #C8856C",
"E$	c #9A7168",
"F$	c #8E6D69",
"G$	c #A37970",
"H$	c #B18173",
"I$	c #B88673",
"J$	c #AD8778",
"K$	c #918480",
"L$	c #848283",
"M$	c #413D3D",
"N$	c #493835",
"O$	c #57261F",
"P$	c #752717",
"Q$	c #A23A1E",
"R$	c #AF3E1E",
"S$	c #9D3319",
"T$	c #A4371B",
"U$	c #C54A23",
"V$	c #D7582C",
"W$	c #DC6237",
"X$	c #E16B40",
"Y$	c #E77448",
"Z$	c #EA7B4F",
"`$	c #EA8055",
" %	c #EA8459",
".%	c #EB865C",
"+%	c #EB895E",
"@%	c #EC8C60",
"#%	c #EE8F63",
"$%	c #F19265",
"%%	c #EE9065",
"&%	c #E58862",
"*%	c #C77A5E",
"=%	c #936559",
"-%	c #835F59",
";%	c #98695F",
">%	c #A67061",
",%	c #AE7461",
"'%	c #A17565",
")%	c #80716D",
"!%	c #717071",
"~%	c #403C3C",
"{%	c #483735",
"]%	c #572821",
"^%	c #762919",
"/%	c #A33B1E",
"(%	c #AF3F1F",
"_%	c #9A331B",
":%	c #9B351D",
"<%	c #B04325",
"[%	c #BE4B29",
"}%	c #C24E2B",
"|%	c #CC552F",
"1%	c #DC6034",
"2%	c #E26537",
"3%	c #DD6236",
"4%	c #DB6238",
"5%	c #DC663C",
"6%	c #E06A40",
"7%	c #E56F44",
"8%	c #EA7447",
"9%	c #EE794B",
"0%	c #EB784B",
"a%	c #E0704A",
"b%	c #BD6247",
"c%	c #854E41",
"d%	c #71463F",
"e%	c #834C40",
"f%	c #905141",
"g%	c #995643",
"h%	c #895647",
"i%	c #62514C",
"j%	c #504E4F",
"k%	c #3F3B3B",
"l%	c #582922",
"m%	c #752A1B",
"n%	c #9F3C21",
"o%	c #A63E21",
"p%	c #8A311E",
"q%	c #82301F",
"r%	c #8F3924",
"s%	c #9B3F27",
"t%	c #A53F25",
"u%	c #B34526",
"v%	c #C44F2A",
"w%	c #CE532B",
"x%	c #D15329",
"y%	c #D4552B",
"z%	c #D8592F",
"A%	c #DC5D33",
"B%	c #DE6035",
"C%	c #DD6137",
"D%	c #D86138",
"E%	c #D15E38",
"F%	c #C75837",
"G%	c #A84C34",
"H%	c #733B2F",
"I%	c #62342D",
"J%	c #76392D",
"K%	c #833D2D",
"L%	c #8B412F",
"M%	c #7B4233",
"N%	c #513E39",
"O%	c #3D3C3C",
"P%	c #3E3939",
"Q%	c #473534",
"R%	c #5A2A23",
"S%	c #742C1E",
"T%	c #953D25",
"U%	c #923D26",
"V%	c #6A2D20",
"W%	c #5A271F",
"X%	c #602C23",
"Y%	c #6F3124",
"Z%	c #853624",
"`%	c #953A25",
" &	c #9F3F27",
".&	c #AF472B",
"+&	c #C6532F",
"@&	c #D65B33",
"#&	c #DF6035",
"$&	c #DF6136",
"%&	c #D65E35",
"&&	c #C65632",
"*&	c #AF4A2E",
"=&	c #A1432B",
"-&	c #9C402A",
";&	c #863827",
">&	c #5D2C22",
",&	c #562921",
"'&	c #7F3626",
")&	c #853825",
"!&	c #74392A",
"~&	c #4C3934",
"{&	c #3A3939",
"]&	c #3C3737",
"^&	c #463432",
"/&	c #5B2B23",
"(&	c #752E20",
"_&	c #923E28",
":&	c #873D29",
"<&	c #552B23",
"[&	c #3D2421",
"}&	c #402623",
"|&	c #4E2A24",
"1&	c #673025",
"2&	c #793326",
"3&	c #823527",
"4&	c #9B402B",
"5&	c #C35433",
"6&	c #D55D37",
"7&	c #D35A35",
"8&	c #D25A35",
"9&	c #D25C35",
"0&	c #BE5332",
"a&	c #943E2A",
"b&	c #7C3326",
"c&	c #763225",
"d&	c #652D22",
"e&	c #4A251F",
"f&	c #4C261E",
"g&	c #6D2F22",
"h&	c #7F3423",
"i&	c #833422",
"j&	c #723527",
"k&	c #4A3632",
"l&	c #383637",
"m&	c #3A3535",
"n&	c #453331",
"o&	c #5E2D25",
"p&	c #793122",
"q&	c #96402A",
"r&	c #863E2B",
"s&	c #492D27",
"t&	c #2B2626",
"u&	c #2D2727",
"v&	c #382A27",
"w&	c #4C2E28",
"x&	c #5E3029",
"y&	c #6E3028",
"z&	c #913E2C",
"A&	c #C75836",
"B&	c #D35B37",
"C&	c #B54831",
"D&	c #B44831",
"E&	c #D15C38",
"F&	c #C35837",
"G&	c #883D2D",
"H&	c #632E28",
"I&	c #532D26",
"J&	c #452A26",
"K&	c #382725",
"L&	c #452A25",
"M&	c #6D3225",
"N&	c #823625",
"O&	c #723729",
"P&	c #383536",
"Q&	c #383332",
"R&	c #44322F",
"S&	c #5F2E26",
"T&	c #7B3325",
"U&	c #98422C",
"V&	c #86412D",
"W&	c #452F2A",
"X&	c #262728",
"Y&	c #282929",
"Z&	c #332B2A",
"`&	c #462F2C",
" *	c #5D332C",
".*	c #77372C",
"+*	c #994230",
"@*	c #C15637",
"#*	c #C05436",
"$*	c #973D2F",
"%*	c #973E2F",
"&*	c #C05538",
"**	c #BE5638",
"=*	c #914331",
"-*	c #6B352C",
";*	c #4E2E2A",
">*	c #3A2A28",
",*	c #312928",
"'*	c #422D28",
")*	c #6E3528",
"!*	c #853A28",
"~*	c #883B28",
"{*	c #743A2B",
"]*	c #4A3531",
"^*	c #373334",
"/*	c #373131",
"(*	c #42312F",
"_*	c #5F2F28",
":*	c #7B3628",
"<*	c #98462E",
"[*	c #87442F",
"}*	c #4A312B",
"|*	c #2D2929",
"1*	c #2F2B2B",
"2*	c #3C2E2D",
"3*	c #54332F",
"4*	c #743B31",
"5*	c #9E4733",
"6*	c #B14E35",
"7*	c #AE4E36",
"8*	c #9C4835",
"9*	c #7A3B31",
"0*	c #7B3B31",
"a*	c #9E4834",
"b*	c #AF4F36",
"c*	c #AE5037",
"d*	c #954834",
"e*	c #64372E",
"f*	c #442D2A",
"g*	c #332B29",
"h*	c #422E2A",
"i*	c #6E382C",
"j*	c #873E2C",
"k*	c #8C402B",
"l*	c #773D2C",
"m*	c #493530",
"n*	c #343132",
"o*	c #353030",
"p*	c #5F3029",
"q*	c #7E392A",
"r*	c #9E4A32",
"s*	c #944A33",
"t*	c #5F382E",
"u*	c #46312D",
"v*	c #49332E",
"w*	c #563630",
"x*	c #6B3A32",
"y*	c #894335",
"z*	c #AF5037",
"A*	c #B85338",
"B*	c #A34B36",
"C*	c #8D4535",
"D*	c #763F34",
"E*	c #783F33",
"F*	c #934534",
"G*	c #A84C36",
"H*	c #B75439",
"I*	c #A85037",
"J*	c #7B3F32",
"K*	c #5C352E",
"L*	c #4B322D",
"M*	c #55352D",
"N*	c #7A3E30",
"O*	c #8E4330",
"P*	c #90432E",
"Q*	c #793E2E",
"R*	c #49342F",
"S*	c #323030",
"T*	c #342F30",
"U*	c #60322B",
"V*	c #833C2D",
"W*	c #AB4F36",
"X*	c #AB5238",
"Y*	c #844434",
"Z*	c #723E32",
"`*	c #764033",
" =	c #7F4235",
".=	c #8B4636",
"+=	c #9A4A37",
"@=	c #AB5039",
"#=	c #AD5139",
"$=	c #A04D38",
"%=	c #954937",
"&=	c #8B4738",
"*=	c #8E4838",
"==	c #9D4C38",
"-=	c #A74F38",
";=	c #AC5038",
">=	c #A54D37",
",=	c #914735",
"'=	c #824234",
")=	c #763F32",
"!=	c #7C4132",
"~=	c #924733",
"{=	c #9A4832",
"]=	c #944630",
"^=	c #783F2F",
"/=	c #48342F",
"(=	c #322E30",
"_=	c #342F2F",
":=	c #40312F",
"<=	c #5C322C",
"[=	c #7F3D2F",
"}=	c #A74F37",
"|=	c #AF543A",
"1=	c #974B37",
"2=	c #8D4837",
"3=	c #904A38",
"4=	c #954C39",
"5=	c #9C4E3A",
"6=	c #A14F3B",
"7=	c #A5513B",
"8=	c #A3513B",
"9=	c #9D4F3A",
"0=	c #994E3A",
"a=	c #974D3B",
"b=	c #994E3B",
"c=	c #A0503B",
"d=	c #A34F39",
"e=	c #A04E39",
"f=	c #9C4D39",
"g=	c #964B38",
"h=	c #904937",
"i=	c #924936",
"j=	c #9C4C36",
"k=	c #9B4A34",
"l=	c #8D4531",
"m=	c #703D2F",
"n=	c #453330",
"o=	c #312F30",
"p=	c #332F2E",
"q=	c #3D302D",
"r=	c #54322C",
"s=	c #703A2F",
"t=	c #A05039",
"u=	c #984E39",
"v=	c #964E3B",
"w=	c #97513D",
"x=	c #99523E",
"y=	c #9B523E",
"z=	c #9C533E",
"A=	c #9D533E",
"B=	c #9A523E",
"C=	c #9C523E",
"D=	c #9B523D",
"E=	c #9B513E",
"F=	c #99503D",
"G=	c #974D39",
"H=	c #9A4D38",
"I=	c #914836",
"J=	c #7B4031",
"K=	c #5F3930",
"L=	c #3F3330",
"M=	c #303030",
"N=	c #322F2D",
"O=	c #39302E",
"P=	c #48322E",
"Q=	c #5B3831",
"R=	c #724235",
"S=	c #7F4838",
"T=	c #80493A",
"U=	c #814B3B",
"V=	c #824D3D",
"W=	c #824E3E",
"X=	c #824D3E",
"Y=	c #814D3E",
"Z=	c #804D3E",
"`=	c #814C3D",
" -	c #804738",
".-	c #764336",
"+-	c #613B33",
"@-	c #4E3631",
"#-	c #3A3231",
"$-	c #303130",
"%-	c #31302F",
"&-	c #343130",
"*-	c #393332",
"=-	c #3F3634",
"--	c #483935",
";-	c #4D3B37",
">-	c #4E3C38",
",-	c #4F3D3A",
"'-	c #503E3A",
")-	c #503F3B",
"!-	c #4F3F3B",
"~-	c #4F3E3A",
"{-	c #4E3B37",
"]-	c #493935",
"^-	c #413634",
"/-	c #3A3433",
"(-	c #343231",
"_-	c #303031",
":-	c #303132",
"<-	c #313434",
"[-	c #333535",
"}-	c #353535",
"|-	c #363636",
"1-	c #373738",
"2-	c #383739",
"3-	c #383839",
"4-	c #393839",
"5-	c #393939",
"6-	c #323435",
"7-	c #313334",
"8-	c #303131",
". + @ # $ % & * = - ; > , ' ) ! ~ { { ] ^ / ( _ : : < [ } | 1 2 ",
"3 4 5 6 7 8 9 0 a b c d e f g h i j k k l m n o p q r p s t u v ",
"w x y z A B C D E F G H I J K L M N O P Q R S T U V W X Y Z `  .",
"..+.@.#.$.%.&.*.=.-.;.>.,.'.).!.~.{.].^./.(._.:.<.[.}.|.1.2.3.4.",
"5.6.7.8.9.0.a.b.c.d.e.f.g.h.i.j.k.l.m.n.o.p.q.r.s.t.u.v.w.x.y.~ ",
"z.A.B.C.D.E.F.G.H.I.J.K.L.M.N.O.P.Q.R.S.T.U.V.p.W.X.Y.Z.`. +.+++",
"@+#+$+%+&+*+=+-+;+>+,+'+)+!+~+{+]+^+/+(+_+:+<+[+}+|+1+2+3+4+5+6+",
"7+8+9+0+a+b+c+d+e+f+g+h+i+j+k+l+m+n+o+p+q+r+s+t+u+v+w+x+2+y+z+A+",
"B+C+D+E+F+G+H+I+J+K+L+M+N+O+P+Q+R+S+T+U+V+W+X+Y+Z+`+ @.@+@@@#@$@",
"%@&@*@=@-@;@>@,@'@)@!@~@{@]@^@/@(@_@:@<@[@}@|@1@2@3@4@5@6@7@8@9@",
"0@a@b@c@d@e@f@g@h@i@j@k@l@m@n@o@p@q@r@s@t@u@v@w@x@y@z@A@B@C@D@E@",
"F@G@H@I@J@K@L@M@N@O@P@Q@R@S@T@U@V@W@X@Y@Z@`@ #.#+#@###$#%#&#*#=#",
"-#;#>#,#'#)#!#~#{#]#^#/#(#_#:#<#[#}#|#1#2#3#4#5#6#7#8#9#0#a#b#c#",
"d#e#f#g#h#i#j#k#l#m#n#o#p#q#r#s#t#u#v#w#x#y#z#A#B#C#D#E#F#G#H#I#",
"J#K#L#M#N#O#P#Q#R#S#T#U#V#W#X#Y#Z#`# $.$+$@$#$$$%$&$*$=$-$;$>$,$",
"'$)$!$~${$]$^$/$($_$:$<$[$}$|$1$2$3$4$5$6$7$8$9$0$a$b$c$d$e$f$g$",
"h$i$j$M#k$l$m$n$o$p$q$r$s$t$u$v$w$x$y$z$A$B$C$D$E$F$G$H$I$J$K$L$",
"M$N$O$P$Q$R$S$T$U$V$W$X$Y$Z$`$ %.%+%@%#%$%%%&%*%=%-%;%>%,%'%)%!%",
"~%{%]%^%/%(%_%:%<%[%}%|%1%2%3%4%5%6%7%8%9%0%a%b%c%d%e%f%g%h%i%j%",
"k%{%l%m%n%o%p%q%r%s%t%u%v%w%x%y%z%A%B%C%D%E%F%G%H%I%J%K%L%M%N%O%",
"P%Q%R%S%T%U%V%W%X%Y%Z%`% &.&+&@&#&$&%&&&*&=&-&;&>&,&Y%'&)&!&~&{&",
"]&^&/&(&_&:&<&[&}&|&1&2&3&4&5&6&7&8&9&0&a&b&c&d&e&f&g&h&i&j&k&l&",
"m&n&o&p&q&r&s&t&u&v&w&x&y&z&A&B&C&D&E&F&G&H&I&J&K&L&M&N&)&O&k&P&",
"Q&R&S&T&U&V&W&X&Y&Z&`& *.*+*@*#*$*%*&***=*-*;*>*,*'*)*!*~*{*]*^*",
"/*(*_*:*<*[*}*|*1*2*3*4*5*6*7*8*9*0*a*b*c*d*e*f*g*h*i*j*k*l*m*n*",
"o*(*p*q*r*s*t*u*v*w*x*y*z*A*B*C*D*E*F*G*H*I*J*K*L*M*N*O*P*Q*R*S*",
"T*(*U*V*W*X*Y*Z*`* =.=+=@=#=$=%=&=*===-=;=>=,='=)=!=~={=]=^=/=(=",
"_=:=<=[=}=|=1=2=3=4=5=6=7=8=9=0=a=b=c=8=d=e=f=g=h=i=j=k=l=m=n=o=",
"p=q=r=s=i=t=u=v=w=x=y=z=A=z=y=y=B=B=z=z=C=D=E=F=v=G=H=I=J=K=L=M=",
"N=O=P=Q=R=S=T=U=V=W=X=Y=Z=Z=Y=X=X=X=Y=Z=Z=Z=Y=`=U=T= -.-+-@-#-$-",
"%-&-*-=---;->-,-'-)-)-!-!-!-!-)-)-)-!-!-!-!-)-~-,->-{-]-^-/-(-M=",
"_-:-<-[-}-|-1-2-3-4-5-5-5-5-5-5-5-5-5-5-5-5-4-3-2-1-|-}-6-7-8-M="};
