/* XPM */
static char *camOverlay[] = {
/* columns rows colors chars-per-pixel */
"32 32 256 2",
"   c #2A1816",
".  c #2D1D1B",
"X  c #30201E",
"o  c #2C2B2B",
"O  c #2D2827",
"+  c #332422",
"@  c #392826",
"#  c #332D2B",
"$  c #3B2B29",
"%  c #3B2825",
"&  c #353535",
"*  c #3B3534",
"=  c #3B3B3B",
"-  c #3C302E",
";  c #4B1D16",
":  c #4C1F18",
">  c #4C231C",
",  c #52251D",
"<  c #5B271E",
"1  c #64281E",
"2  c #7A2B1C",
"3  c #432A25",
"4  c #4B2822",
"5  c #422C29",
"6  c #4A2E29",
"7  c #542B25",
"8  c #5C2B23",
"9  c #552E28",
"0  c #44312E",
"q  c #4C322D",
"w  c #53312B",
"e  c #5C322B",
"r  c #433735",
"t  c #453937",
"y  c #473B39",
"u  c #483C3A",
"i  c #493330",
"p  c #533630",
"a  c #5E3A34",
"s  c #5B3630",
"d  c #672E24",
"f  c #62342C",
"g  c #6D362D",
"h  c #6E3026",
"j  c #733126",
"k  c #7A382C",
"l  c #643B34",
"z  c #6C3B33",
"x  c #613F39",
"c  c #743B32",
"v  c #7B3E34",
"b  c #7D4035",
"n  c #444242",
"m  c #4C4A4A",
"M  c #545454",
"N  c #5C5A5A",
"B  c #554745",
"V  c #7D5C56",
"C  c #73534D",
"Z  c #696868",
"A  c #746A68",
"S  c #7B7473",
"D  c #797777",
"F  c #802716",
"G  c #892816",
"H  c #822D1B",
"J  c #8C301E",
"K  c #833324",
"L  c #893827",
"P  c #963C28",
"I  c #823E32",
"U  c #8C3F31",
"Y  c #933E30",
"T  c #9C422A",
"R  c #8D4234",
"E  c #824133",
"W  c #944434",
"Q  c #994636",
"!  c #8D402F",
"~  c #AC462C",
"^  c #A8482D",
"/  c #B54323",
"(  c #BC4E2F",
")  c #B14A2E",
"_  c #A34B32",
"`  c #A44935",
"'  c #B64630",
"]  c #AA533B",
"[  c #AA553C",
"{  c #B55334",
"}  c #B35A3F",
"|  c #BD5B3D",
" . c #B85738",
".. c #D5552A",
"X. c #D6592E",
"o. c #CB5B36",
"O. c #C95A37",
"+. c #D45B35",
"@. c #DB5E33",
"#. c #D05935",
"$. c #C5522D",
"%. c #D7633D",
"&. c #CF613B",
"*. c #E26539",
"=. c #E4683D",
"-. c #8B564C",
";. c #845A53",
":. c #805F5A",
">. c #965A51",
",. c #945348",
"<. c #AE5940",
"1. c #B35B40",
"2. c #BB5E40",
"3. c #A85D50",
"4. c #87625B",
"5. c #94645C",
"6. c #BF6142",
"7. c #B3624E",
"8. c #A66658",
"9. c #BD6652",
"0. c #8C6A64",
"q. c #876A64",
"w. c #926B65",
"e. c #8E726E",
"r. c #90716C",
"t. c #99726C",
"y. c #867876",
"u. c #957D79",
"i. c #997974",
"p. c #AA7265",
"a. c #AC796E",
"s. c #A67F77",
"d. c #B0786D",
"f. c #C26446",
"g. c #CE6140",
"h. c #D46540",
"j. c #DA6640",
"k. c #D37358",
"l. c #C47052",
"z. c #ED754A",
"x. c #EE7D52",
"c. c #C27864",
"v. c #D47E62",
"b. c #E87F63",
"n. c #9B827E",
"m. c #88807E",
"M. c #A3827C",
"N. c #AE857E",
"B. c #B38476",
"V. c #BE846D",
"C. c #EC835A",
"Z. c #DD8A63",
"A. c #C48878",
"S. c #D98975",
"D. c #D99678",
"F. c #D18C6F",
"G. c #EE8D62",
"H. c #EA856C",
"J. c #E28E6D",
"K. c #EF9166",
"L. c #EF946B",
"P. c #F0966B",
"I. c #F0996E",
"U. c #EB8B72",
"Y. c #E88371",
"T. c #E69676",
"R. c #F09D72",
"E. c #F09E78",
"W. c #F1A47A",
"Q. c #F1A47A",
"!. c #E1A27C",
"~. c #8A8685",
"^. c #8C8B8B",
"/. c #858383",
"(. c #938D8C",
"). c #9A8783",
"_. c #9B9492",
"`. c #999796",
"'. c #A78B86",
"]. c #B48C84",
"[. c #BA8C83",
"{. c #A9938F",
"}. c #BC938A",
"|. c #B7948B",
" X c #AA9693",
".X c #A49D9C",
"XX c #AB9B98",
"oX c #BD9B94",
"OX c #B79A95",
"+X c #BDA19C",
"@X c #B3A29F",
"#X c #A7A09F",
"$X c #ABA6A5",
"%X c #ACABAB",
"&X c #A4A2A2",
"*X c #B7A5A2",
"=X c #BBA6A2",
"-X c #BCA8A5",
";X c #B3ADAC",
":X c #BDADAB",
">X c #B5B1B1",
",X c #BCB2B0",
"<X c #BCBBBB",
"1X c #B5B0AF",
"2X c #C28E83",
"3X c #C49689",
"4X c #D39B83",
"5X c #C49E95",
"6X c #D18F81",
"7X c #D6A88B",
"8X c #C5A295",
"9X c #CBA39B",
"0X c #C8A79D",
"qX c #D5AB96",
"wX c #DAB49A",
"eX c #CEA48D",
"rX c #E6A985",
"tX c #F2AD82",
"yX c #E8B38F",
"uX c #F2B186",
"iX c #F2B58A",
"pX c #F3B98E",
"aX c #E0AB90",
"sX c #E6BB95",
"dX c #E6B695",
"fX c #F3BC91",
"gX c #C3AAA5",
"hX c #CBACA1",
"jX c #C3ABA8",
"kX c #CAB3A8",
"lX c #D3B9AD",
"zX c #D7BBA6",
"xX c #C2B2B0",
"cX c #C7BEB9",
"vX c #D3BEB2",
"bX c #E2B9A0",
"nX c #EAC49D",
"mX c #F4C196",
"MX c #F4C59A",
"NX c #F4CA9F",
"BX c #DCC3AA",
"VX c #D7C3B4",
"CX c #EDC4A2",
"ZX c #E9CBA5",
"AX c #F5CDA2",
"SX c #ECD2AB",
"DX c #EFDCB4",
"FX c #E6D6B7",
"GX c #EDD4AF",
"HX c #EEE2BC",
"JX c #C4C4C4",
"KX c #C8C7C7",
"LX c #CCCBCB",
"PX c #DDDDDD",
"IX c #D2D2D2",
"UX c None",
/* pixels */
"KXPXIXKXKXKXKXKXKXLXLXLXLXLXLXLXLXLXLXLXLXLXLXLXLXLXLXLXLXIXPXJX",
"PX^.(.(._._._..X.X.X.X#X&X$X$X$X%X;X;X;X;X1X>X>X>X>X>X>X>X>X%XPX",
"JX/.).'.'.{.{. X XXXXXXXXX@X*X*X=X-X-X:X:X:X:XxXxXxXxXxX,X>X>XLX",
"cXy.n.].}.}.3X5X8X8X8X0X0X0XhXhXkXkXkXlXlXlXlXvXvXvXVXVXvX,X>XLX",
"<Xy.u.[.yXdXsXsXsXnXnXZXZXZXSXSXSXSXGXDXDXDXDXHXHXHXHXHXFXxX>XKX",
"<XS i.B.rXu.n.M.'.].[.}.3X3XoXOXOXOX5X9X9X0XhXgXgXgXjXVXFX:X;XJX",
">XA e.B.rXi.y.u.M.N.[.2X2X2X}.|. X|.oX5X9X9X9X0X=X=X-XBXFX-X;XJX",
"$XA q.d.!.r.y.e.i.d.A.rXyXyX4X].'.|.3XqXCXCXbX9XoX+X+XzXFX*X$X<X",
"`.N q.p.T.0.q.r.a.A.tXiXpXfXfX4X[.[.aXNXAXAXAXCX5XoX+XzXZX@X&X<X",
"(.B :.p.D.0.q.w.p.D.tXtXuXiXiXiXA.6XmXMXMXMXNXAXwXoXoXwXBXXX.X<X",
"^.+ V 8.J.4.4.5.p.T.W.W.tXtXuXuXS.T.pXfXfXmXMXMXdX}.}.qXzX X`.>X",
"~.  e 8.Z.;.V 4.8.J.Q.Q.W.W.W.tXY.U.uXiXpXfXfXmXaX].].qXwX{._.%X",
"/.  ; Q Z.;.;.;.5.v.R.R.R.Q.Q.R.b.H.tXuXuXiXiXpX4XN.].eXwX'.(.$X",
"D   ; 2 j.-.-.>.>.8.v.P.I.R.L.H.E.E.U.W.tXtXtXD.s.s.M.3X7X).~.&X",
"D   ; H ..K ,.7.9.3.3.k.b.b.b.L.R.R.R.H.U.T.S.d.i.i.i.3X7Xu.m.`.",
"S   ; H ..F G $.C.C.k.G.G.K.K.P.P.I.R.R.R.E.W.A.t.r.t.A.4Xu.y.`.",
"Z   ; H ..F G / ..=.x.C.G.G.G.K.K.P.P.I.I.R.R.c.w.0.w.A.D.e.S ^.",
"Z   : H ..F G / ..X.X.@.=.z.C.G.G.K.K.P.P.I.I.c.5.q.w.V.F.q.A ~.",
"Z   : H ..F G / X.$./ X.X.X.X.X.%.=.z.z.x.x.x.9.-.V C 7.l.C u Z ",
"N . > K ..2 2 K L 2 J #.@.@.@.@.@.@.@.@.@.@.@.P 1 , < P ~ > . N ",
"N . > K $.1 1 < 8 d K ~ ( ( +.*.*.*.*.+.( ( ( K < > < P ~ > . M ",
"M . , K O.8 4 % 3 7 d h j K ) #.+.+.o.^ j j h 8 4 4 8 T ) > . M ",
"m X , L O.8 % O O $ 6 e g L ~ #.' ' #.` k f 9 3 @ 3 8 T ) > X m ",
"m + 7 L o.8 $ o o # 0 f k Y %.j.Y Y j.%.Y g w # o 5 8 _ { 4 + m ",
"n + 7 L o.e 5 # # - p c Y o.h.U c v U h.&.I f 0 # 5 f _ { 7 + n ",
"n + 9 U &.f q 0 i p z I Q g.` v z c R ` g.W c s 0 q f _  .7 + n ",
"= @ 9 ! %.g f l z z v R Q Q R E v b R Q Q W I c l f g _  .9 @ = ",
"= $ e R h.] ] [ [ [ } } 2.2.1.1.<.<.1.2.| } } [ [ ] ] |  .w @ = ",
"* $ w E | 2.6.6.6.f.f.f.f.f.f.f.f.f.f.f.f.f.f.6.6.6.2.| ] q # = ",
"& # 0 p s a a a x x x x x x x x x x x x x x x x a a a s p 0 # & ",
"& o & * r r t t y y y u u u u u u u u u u y y y t t r r * & o & ",
"UX& & & & = = = = = = = = = = = = = = = = = = = = = = & & & & UX"
};
