/* XPM */
static char *camPlateToggle[] = {
/* columns rows colors chars-per-pixel */
"32 32 256 2",
"   c #161616",
".  c #1C1716",
"X  c #241816",
"o  c #2D1A16",
"O  c #3B1B16",
"+  c #301E1B",
"@  c #2C2C2C",
"#  c #282525",
"$  c #322E2D",
"%  c #3E2A26",
"&  c #343434",
"*  c #3B3534",
"=  c #3B3B3B",
"-  c #4A1E17",
";  c #451D17",
":  c #48201A",
">  c #53251E",
",  c #5E281F",
"<  c #5A241B",
"1  c #64271B",
"2  c #662A1E",
"3  c #6A2619",
"4  c #7A2F1E",
"5  c #4D2A25",
"6  c #4B2E29",
"7  c #412E2A",
"8  c #522B25",
"9  c #5A2B24",
"0  c #562E28",
"q  c #44312E",
"w  c #4C322E",
"e  c #52312C",
"r  c #5C322B",
"t  c #4A3633",
"y  c #413B3A",
"u  c #493D3B",
"i  c #4D3936",
"p  c #523732",
"a  c #513D39",
"s  c #5D3E39",
"d  c #5B3933",
"f  c #612D25",
"g  c #6A2E22",
"h  c #702D20",
"j  c #67342B",
"k  c #72372A",
"l  c #763527",
"z  c #643C35",
"x  c #6C3C35",
"c  c #633E39",
"v  c #753E33",
"b  c #7B3E31",
"n  c #7A453A",
"m  c #6A443E",
"M  c #4D4C4C",
"N  c #414141",
"B  c #574947",
"V  c #535353",
"C  c #5A5554",
"Z  c #5B5B5B",
"A  c #5D5857",
"S  c #5B514F",
"D  c #674944",
"F  c #68524D",
"G  c #75544E",
"H  c #645C5B",
"J  c #685552",
"K  c #7A5E59",
"L  c #765A56",
"P  c #724A43",
"I  c #78615D",
"U  c #626262",
"Y  c #6D6A6A",
"T  c #6B6665",
"R  c #7B6662",
"E  c #746E6C",
"W  c #796966",
"Q  c #7A706F",
"!  c #747474",
"~  c #7B7B7B",
"^  c #7E7674",
"/  c #813421",
"(  c #853D2B",
")  c #883C28",
"_  c #913B24",
"`  c #9D3D22",
"'  c #A03F24",
"]  c #93412C",
"[  c #8E4432",
"{  c #9B4A35",
"}  c #934C3A",
"|  c #914836",
" . c #9C523E",
".. c #A5452A",
"X. c #A94628",
"o. c #B34B2B",
"O. c #BC4D2B",
"+. c #AC4D32",
"@. c #A34C34",
"#. c #B04E31",
"$. c #AF5136",
"%. c #B35134",
"&. c #B95538",
"*. c #C34F2A",
"=. c #C4522E",
"-. c #CD552E",
";. c #D1572E",
":. c #D5592E",
">. c #C45532",
",. c #CE5730",
"<. c #CC5D39",
"1. c #C85A36",
"2. c #D55B32",
"3. c #DA5E34",
"4. c #D15E39",
"5. c #DD633A",
"6. c #D96239",
"7. c #E1663B",
"8. c #E66A3F",
"9. c #83574F",
"0. c #A65942",
"q. c #B55C42",
"w. c #BC5F43",
"e. c #83625D",
"r. c #926258",
"t. c #AB624D",
"y. c #B8664C",
"u. c #B96D54",
"i. c #856B66",
"p. c #836E6B",
"a. c #876964",
"s. c #8C716D",
"d. c #84716D",
"f. c #9D756B",
"g. c #837471",
"h. c #8D7976",
"j. c #837C7B",
"k. c #8A7D7B",
"l. c #8A7672",
"z. c #977B77",
"x. c #A97564",
"c. c #AD7C6B",
"v. c #A77160",
"b. c #A47D73",
"n. c #D36946",
"m. c #D86641",
"M. c #D77F5C",
"N. c #E46C43",
"B. c #E96D42",
"V. c #ED764B",
"C. c #EA7248",
"Z. c #C27E65",
"A. c #94817D",
"S. c #9E847F",
"D. c #AA8277",
"F. c #B78977",
"G. c #C4846B",
"H. c #C78A71",
"J. c #CA9279",
"K. c #C5917B",
"L. c #DD9875",
"P. c #D98D6C",
"I. c #F0976C",
"U. c #E79A74",
"Y. c #DFA17F",
"T. c #E9A37C",
"R. c #F1A67B",
"E. c #F1A378",
"W. c #8C8483",
"Q. c #8D8D8D",
"!. c #868281",
"~. c #948683",
"^. c #9D8682",
"/. c #9C8A86",
"(. c #958C8A",
"). c #9D8C89",
"_. c #948987",
"`. c #95908F",
"'. c #949494",
"]. c #9B9594",
"[. c #9C9B9B",
"{. c #A48A85",
"}. c #AA8C86",
"|. c #A28C87",
" X c #A4918D",
".X c #AB928D",
"XX c #BB9283",
"oX c #BB988B",
"OX c #A89591",
"+X c #AD9D9A",
"@X c #A69997",
"#X c #B59D99",
"$X c #B09792",
"%X c #B6A29E",
"&X c #BCA19A",
"*X c #A4A3A3",
"=X c #ACA5A4",
"-X c #ACACAC",
";X c #ADA8A7",
":X c #B5A4A1",
">X c #BBA9A6",
",X c #B3ABAA",
"<X c #BEADAA",
"1X c #BAB0AF",
"2X c #B1B0B0",
"3X c #B8B1B0",
"4X c #C89B86",
"5X c #C19F90",
"6X c #C2A395",
"7X c #CAAA9A",
"8X c #CFB09E",
"9X c #D7B097",
"0X c #D0A38A",
"qX c #E2A986",
"wX c #E2AD8B",
"eX c #E9AC86",
"rX c #F2AD82",
"tX c #F2B489",
"yX c #F3BA8F",
"uX c #F2B186",
"iX c #E4B694",
"pX c #E6B998",
"aX c #F3BC91",
"sX c #EEB38B",
"dX c #C4ACA4",
"fX c #C9B4AB",
"gX c #D5BCA9",
"hX c #C3B4B1",
"jX c #C7BBB9",
"kX c #F4C196",
"lX c #F3C59A",
"zX c #F4CA9F",
"xX c #DDC1A9",
"cX c #CBC1BF",
"vX c #DDC8B0",
"bX c #E9C9A7",
"nX c #E8CCAA",
"mX c #F5CDA2",
"MX c #F5D1A6",
"NX c #F4D4AA",
"BX c #F6DAAF",
"VX c #EBD5B3",
"CX c #EDDDBB",
"ZX c #E7D5B9",
"AX c #F6DDB2",
"SX c #EAD1AF",
"DX c #EDE1BF",
"FX c #F7E4BA",
"GX c #F7E3B8",
"HX c #C6C6C6",
"JX c #CBCBCB",
"KX c #CCC4C2",
"LX c #D3C9C8",
"PX c #DDDDDD",
"IX c #D2D2D2",
"UX c None",
/* pixels */
"HXPXIXHXHXHXHXHXHXJXJXJXJXJXJXJXJXJXJXJXJXJXJXJXJXJXJXJXJXIXPXHX",
"PXQ.Q.Q.'.'.'.].[.[.[.[.*X*X*X*X;X-X-X-X-X-X2X2X2X2X2X2X2X2X-XPX",
"HXW.~._.(.(.`.].].].[.[.[.@X*X=X=X=X;X,X,X,X,X3X3X3X3X3X3X3X3XJX",
"cXA.S.{.{./.).|..XOXOX].].@X+X%X%X:X:X>X>X<X<X<XhX1XhXhXhXhXhXLX",
"jXK.qXwXwX0X^.oXpX9X X`.].OX8XbXnXxX%XSXVXVXVXVXCXfXCXCXCXDXZXLX",
"jXJ.uXeXsXyX4XXXkXiX{._.(..XpXMXNXNX#XnXnXAXGXVXVXgXFXFXCXCXZXLX",
"hXH.rXJ.J.tX4XF.aXwX^.W.~.}.lXmXpXMX6X$X#XBXAX%X:XfXGXVXdXdX<XKX",
">XG.R.T.R.rXF.F.tXqXz.k.A.XXkXiX0XmX9XOX$XNXNX#X+XdXAXGXGXFXvXcX",
"+XZ.E.U.L.H.s.D.rXY.z.h.z.4XaXiXiXlXiX|..XmXMX$X@X7XBXNXgXxXfXjX",
"OXy.I.Z.e.a.R c.R.T.J.J.b.qXtXyXaXaXkX}.{.lXzX.X X6XNXbX7X7XdXjX",
" X..I.Z.K H I x.E.E.R.R.F.rXuXb.z.qXyXXXD.kXlX}.).5XmXMXMXNXbXhX",
"/.3 [ r.J A L r.v.x.x.c.f.c.c.s.s.D.F.D.z.XXXX^.~.}.oX5X6X6X&X<X",
"~.O O p F V J J L K K I I R R W W p.d.g.g.h.h.k.k.A.~.^./.).).,X",
"~ . . . @ M M V V C C A Z H H U U T T Y Y E g.l.h.j.j.j.!.!.W.*X",
"! X o X   # N M M M V V V C A Z Z Z U U U Y p.f.b.l.^ ! ~ ~ ~ [.",
"g.O - O X     # N M M M V V V V C Z Z Z U T i.H.L.s.Q ! ! ! ~ '.",
"d.3 X.- o . . X X # = M M S S C V V C H H H e.G.L.a.W E E Q ! Q.",
"i.4 ;.< - O O ; - O o + 6 d D G F J J L L K K Z.P.a.R i.i.p.p._.",
"G.X.:.` ` : 1 ` ` 1 : : 1 _ ' _ 8 8 v 0.y.0.m u.M.G P t.y.t.n s.",
"P.*.:.O.o.4 2.-.-.-.2 2 =.,.=.3.o.2 =.,.=.3.o...O.> =.;.O.;.*.e.",
"K / 2.< > O.=., g 3.] o.>.g 9 >.>.%.>.g 9 >.>...=._ 2.h 2 o.;.e.",
"G / 3., , 5.) 5 9 1.+.5.] 8 f 5.%.5.] 8 f 5.#.+.>.O.>...2.O.h L ",
"F / 3.9 f 5.( 5 9 4.@.8.[ e k B.$.B.[ e k 8.+.+.1.1.3.#.h > > G ",
"F ) 5.f 9 >.1.j { B.b 5.&.j 1.B.$.m.&.j &.B.$.+.<.%.4.( f l o.u.",
"D ) 6.f 5 ( 7.B.B.@.d { N.C.m.m.| { N.C.m.6.[ %.<.k <.7.7.7.>.9.",
"B 8 b 0 7 r j [ b d t d v | x N.} z v | x N.| v b e r k ( l 9 D ",
"y % 6 7 $ q w p p t z x z z } V.n x z z } V.v p p q q w 6 6 % u ",
"= # @ @ @ & & * * i x C.n.n.V.w.x C.n.n.V.w.z t & & & $ $ @ # = ",
"* @ @ @ & & & & & i c } q.q. .c c } q.q. .c a * & & & & @ @ @ = ",
"& @ @ & & & & & * = a s c c s a a s c c s a y * & & & & & @ @ & ",
"& @ & & & & & * = = = y u u y = = y u u y = = = * & & & & & @ & ",
"UX& & & * = = = = = = = = = = = = = = = = = = = = = = * & & & UX"
};
