/* XPM */
static char *camTrak[] = {
/* columns rows colors chars-per-pixel */
"32 32 109 2",
"   c #3A3631",
".  c #3E3A36",
"X  c #403C37",
"o  c #413E39",
"O  c #45423C",
"+  c #494641",
"@  c #4D4945",
"#  c #524E49",
"$  c #53514C",
"%  c #5A5751",
"&  c #5C5854",
"*  c #615E5A",
"=  c #65625E",
"-  c #6A6662",
";  c #6C6965",
":  c #726F6A",
">  c #7A7672",
",  c #7E7B76",
"<  c #7F7D78",
"1  c #AB4C12",
"2  c #AD541D",
"3  c #AF5C28",
"4  c #B26433",
"5  c #B46B3E",
"6  c #B6744A",
"7  c #B97B55",
"8  c #807D7A",
"9  c #1F921E",
"0  c #20931F",
"q  c #2B972A",
"w  c #369A34",
"e  c #409D3D",
"r  c #439F40",
"t  c #43A041",
"y  c #4EA34B",
"u  c #59A756",
"i  c #5AA857",
"p  c #75876A",
"a  c #66AD62",
"s  c #6DAB67",
"d  c #72B16E",
"f  c #77AE71",
"g  c #7CB376",
"h  c #7EB679",
"j  c #84817B",
"k  c #88847F",
"l  c #BB8460",
"z  c #BD8B6B",
"x  c #82B27B",
"c  c #C09376",
"v  c #898682",
"b  c #928E8B",
"n  c #95938E",
"m  c #9D9A96",
"M  c #A29F9A",
"N  c #87B781",
"B  c #87B881",
"V  c #8ABB85",
"C  c #92BB8B",
"Z  c #95BF90",
"A  c #9ABB92",
"S  c #A4BD9A",
"D  c #A7A5A1",
"F  c #A9A6A2",
"G  c #AAA8A4",
"H  c #B1AEAA",
"J  c #B0B7A3",
"K  c #B3B9A6",
"L  c #B3B1AC",
"P  c #BAB6B1",
"I  c #BDBBB7",
"U  c #BFBCB9",
"Y  c #C29B81",
"T  c #C4A38C",
"R  c #C7AB97",
"E  c #C9B3A2",
"W  c #CBBBAE",
"Q  c #C0BDBA",
"!  c #9FC198",
"~  c #ABC2A3",
"^  c #B5C7AD",
"/  c #B7C8AE",
"(  c #BFC7BA",
")  c #C5C4BD",
"_  c #CDC3B9",
"`  c #C3CDBC",
"'  c #C4D0BD",
"]  c #C7C4C0",
"[  c #C9C6C2",
"{  c #CDCAC5",
"}  c #D0CBC4",
"|  c #D3CFC9",
" . c #CED3C5",
".. c #D0D4C7",
"X. c #D6D2CC",
"o. c #D8D4CE",
"O. c #DAD6D1",
"+. c #DDDAD5",
"@. c #E0DCD7",
"#. c #E1DED9",
"$. c #E4E1DD",
"%. c #E6E4E0",
"&. c #E9E6E3",
"*. c #EBEAE6",
"=. c #EEEDEB",
"-. c #F0EFEC",
";. c #EFF1ED",
":. c #F2F1EF",
">. c #F3F3F0",
/* pixels */
"` ;.>.:.:.:.:.:.:.:.:.:.:.:.:.:.:.:.:.:.:.:.:.:.:.:.:.:.:.>.;.( ",
":.+.@.@.@.@.#.#.#.$.#.#.#.$.$.$.$.$.$.$.$.$.$.$.$.$.$.$.$.$.$.:.",
"=.+.+.+.+.#.$.) I | $.$.#.$.I U [ $.$.$.I U [ %.X.U U +.$.$.$.=.",
"-.+.+.+.@.) $ . . . , $.$.] X X @ %.#.$.o o o &.; o o U $.$.$.:.",
"-.+.+.+.#.# . m H $ . H $.v . $ X L $.%.o o o { @ o o Q $.$.$.:.",
"=.+.+.+.P   & $.#.{ $.#.$.$ . F . < $.$.X * o G o * o Q $.$.$.-.",
"=.O.O.+.P   = #.+.{ #.#.) . $ I . + $.$.. - $ ; o 8 o U $.$.$.-.",
"*.O.O.O.X.  O O.$.= O H k . . . . . L $.. - < . @ n X U $.$.$.-.",
"*.O.O.O.+.j   @ %   O O.#   k b : . , $.. - m . - n X I $.#.#.=.",
"&.X.o.O.O.+.M = = > { { = = #.@.) = : $.= v ) - F D - ) #.#.#.=.",
"&.} o.o.o.O.O.+.+.+.O.+.+.+.+.+.+.@.@.@.#.#.@.#.#.#.#.#.@.#.#.*.",
"%.} | o.o.N 9 9 9 9 9 9 9 i t 0 w a ' +.+.q V +.+.a t +.@.@.@.*.",
"%.} } | o.^ g g y 9 g g g ! 9 y d q q C +.0 h +.h 0 a +.+.+.@.*.",
"$.} } } | o.o.o.g 9 o.o.o.O.9 g O. .t q  .0 h Z 0 t ..+.+.+.+.&.",
"$.} } } } } X.X.g 9 o.o.o.o.9 g O.O.! 9 ~ 0 t 0 t ..+.+.+.+.+.&.",
"$.} } } } } } | ~ 9 ^ o.o.o.9 a ~ B q q  .9 9 t  .O.O.+.+.+.+.%.",
"#.} } } } } } } S 9 ~ X.X.o.9 9 9 9 u ` o.9 9 r  .O.O.O.O.O.+.%.",
"@.} } } } } } } S 9 S } | X.9 u a 9 q A o.9 r 9 r / O.O.O.O.O.$.",
"+.} } } } } } } S 9 S } } } 9 f } S w 9 C 9 g C 9 q C X.X.X.X.#.",
"+.} } } } } } } ~ 9 S } } } 9 x } } ) e s 9 f } A q 9 S } } } +.",
"+.} } } } } } } } ~ } } } } ~ ) } } } } } s A } } } S } } } } +.",
"O.} } } } } } } Y 5 4 4 W 5 W } } } } l T l 5 7 Y } } } } } } O.",
"O.} } } } } } 7 1 4 2 1 R 1 R } } } W 1 z 1 3 4 1 4 E } } } } O.",
"o.} } } } } c 1 l } T 7 R 1 R } } } R 1 T 1 z } R 2 3 } } } } o.",
"o.} } } } _ 2 5 } } } } R 1 R } } } R 1 R 1 z } } T 1 R } } } o.",
"X.} } } } c 1 W } } } } R 1 7 6 5 1 1 1 R 1 z } E 4 1 W } } } X.",
"X.} } } } 5 4 } } } } } R 1 1 4 5 l 7 1 R 1 1 1 1 3 T } } } } X.",
"| } } } } 5 5 } } } W _ T 1 R } } } R 1 R 1 4 3 1 5 W } } } } | ",
"{ } } } } z 1 R } c 2 6 z 1 R } } } R 1 R 1 z } z 1 2 E } } } { ",
") } } } } _ 4 1 1 1 4 E z 1 R } } } R 1 R 1 z } } E 2 6 } } } ) ",
"K } } } } } _ Y z T } } W c _ } } } _ z _ c W } } } W _ } } } K ",
"p K } } } } } } } } } } } } } } } } } } } } } } } } } } } } J p "
};
