/* XPM */
static char *counterX[] = {
/* columns rows colors chars-per-pixel */
"32 32 86 1",
"  c #191919",
". c #262423",
"X c #342F2E",
"o c #413B38",
"O c #4E4643",
"+ c #5C514D",
"@ c #695C57",
"# c #695C58",
"$ c #766762",
"% c #766862",
"& c #E31510",
"* c #E61A14",
"= c #E71C18",
"- c #E91D19",
"; c #E5241F",
": c #E62521",
"> c #E72925",
", c #E93834",
"< c #E53C38",
"1 c #83726D",
"2 c #8F7C76",
"3 c #907D77",
"4 c #AC7E76",
"5 c #AA7F78",
"6 c #E74D47",
"7 c #E84E49",
"8 c #EA514E",
"9 c #E65852",
"0 c #EC605D",
"q c #E87470",
"w c #EB7875",
"e c #E87F7B",
"r c #9C8780",
"t c #9C8881",
"y c #A9928B",
"u c #B69E95",
"i c #EC8582",
"p c #EA8D88",
"a c #C3A89F",
"s c #C3A9A1",
"d c #CFB4A9",
"f c #D1B0A7",
"g c #D1B2A9",
"h c #DCBEB4",
"j c #E5ABA7",
"k c #ECAAA6",
"l c #E6ADA8",
"z c #E4B5AF",
"x c #DEC0B6",
"c c #DBC6BE",
"v c #E2C7BE",
"b c #E9C3BD",
"n c #E5C9BF",
"m c #E9C9BE",
"M c #CECCCA",
"N c #D7C7C0",
"B c #D8C7C0",
"V c #D5C9C1",
"C c #DCCBC3",
"Z c #D1CFCD",
"A c #D9CFC9",
"S c #DDD5CF",
"D c #E7C6C1",
"F c #E4CBC2",
"G c #E8CBC0",
"H c #E3CFC9",
"J c #E9CCC9",
"K c #E7D0C7",
"L c #E4D3CD",
"P c #E4D6D1",
"I c #E8D6D1",
"U c #E4DAD5",
"Y c #E9DAD5",
"T c #E5DED9",
"R c #E9DEDA",
"E c #E6E1DD",
"W c #EAE2DE",
"Q c #E7E4E0",
"! c #EAE6E2",
"~ c #ECE9E6",
"^ c #EEECE9",
"/ c #F0E5E2",
"( c #F2E9E5",
") c #F1EEEB",
"_ c #F3F0EE",
"` c #F4F3F1",
/* pixels */
"Z_`````````````````````````````M",
"`Q!!!!!~~~~~~^^^^^^^^^^^^^^^^^^`",
"_QEQQQ!!!!!~~~~~~~~^^^^^^^^^^^^`",
")EEEEQ!!!!~~~!~~~~~~~^^^^^^^^^^_",
")TEEEb8w!Y00R!!!~~~~~~~^^^^^^^^`",
")TTTEW8-ki-i!!!!!!!~~~~~~^^^^^^`",
")TTTTEJ=>-,!QQQQ!!!!!~~~~~~~^^^_",
"^UUTTTEq==kQEWWWQ!!!!!!~~~~~~~^_",
"~UUUUTI:**7WEEEEWWWW!!!!!!~~~~~)",
"!SUUUT9*e6*pETTEEEWWWWW!!!!!!~~)",
"!VPPUj&<ED;:LTTTTRREEWWWW!!!!!!)",
"WVAPPzjKUUDlnUUTTTTTRRWWWWWW!!!(",
"WVVASPPPPPUUUUUUUUYTRRRRRRWWWWW(",
"RVVVALLLLPPPPPPUUUUYYYYRRRRRWWW(",
"RVVVVCLLLLLLPPPPPIUUYYYYYYRRRRR/",
"RNNNBBBCLLLLLLPPPPIIIIYYYYYYRRR/",
"YccccccccCHLLLLLLLLIIIIIIYYYYYYW",
"YcccccccccccCHKLLLLLLLLLIIIIYYYW",
"IcccccccccccccccCCFHHHHLLLHLKKHY",
"IcccvvvvcvccccvcvvvvvvvvvvvccccI",
"LccvnmmnnmnvvnnnnmmmmmmnmmmnvccL",
"LcvnyOo2u$mnvn1dsOOOOOOd+O$dmvcL",
"LvnrXy@2y yGFG+tGsuo2uuh u1.rmvL",
"KndXanmmuXXgGG11GGGOuGGm mmh.dnK",
"Jm@1nnnnuOyoxG11GFG%ymnm mmhXanH",
"Jm.dnvnmuOG1#G11GFG11GGm 1$X$mvF",
"Fm mnmmmuOGG+211GFG11Gnm + @hmvF",
"FmO2muXguOmmxoo1mnm11mnm mg+ohnF",
"vngO oymu+mDGxo3GFGyymnm@mmm2ynv",
"xvmmmmmnmmmnnmmmmvnmmnnmmmvnmmnx",
"gvvvnnnvnnnvvnnnvvvvvvvnnvvvvvvf",
"4fvvvvvvvvvvvvvvvvvvvvvvvvvvvvf5"
};
