/* XPM */
static char *counterY[] = {
/* columns rows colors chars-per-pixel */
"32 32 117 2",
"   c #191919",
".  c #252622",
"X  c #30332B",
"o  c #3B4134",
"O  c #474E3D",
"+  c #484D3F",
"@  c #525B46",
"#  c #535A48",
"$  c #5D684F",
"%  c #5F6751",
"&  c #5E6850",
"*  c #69745A",
"=  c #15B30A",
"-  c #1AB40E",
";  c #1EB613",
":  c #29B91D",
">  c #3FBE36",
",  c #43C038",
"<  c #49C13E",
"1  c #5AB25C",
"2  c #748262",
"3  c #7D8F69",
"4  c #4BC140",
"5  c #54C54A",
"6  c #5EC755",
"7  c #5FC856",
"8  c #7CD174",
"9  c #808D6D",
"0  c #8A9976",
"q  c #96A67F",
"w  c #92A97C",
"e  c #86D37E",
"r  c #9DB685",
"t  c #A0B687",
"y  c #A1B489",
"u  c #94D78D",
"i  c #91DD8F",
"p  c #94DA93",
"a  c #ABC291",
"s  c #B6CD9B",
"d  c #B1D195",
"f  c #B6D09A",
"g  c #BBDF9F",
"h  c #A9DBA3",
"j  c #AFDDA9",
"k  c #BEDDA2",
"l  c #B2DEAB",
"z  c #BFD7B5",
"x  c #B6DDB1",
"c  c #BCDCB3",
"v  c #A6E7A3",
"b  c #A5EBA3",
"n  c #ACEAA5",
"m  c #B3EAA5",
"M  c #BCEBA5",
"N  c #B7E1AF",
"B  c #BDE5AE",
"V  c #B4EAAA",
"C  c #BCEAAA",
"Z  c #BBE2B2",
"A  c #B4EBB1",
"S  c #BBECB5",
"D  c #BFE2B9",
"F  c #BFEDB9",
"G  c #C1DBA4",
"H  c #C0D6B7",
"J  c #C1DFB2",
"K  c #C4D4BA",
"L  c #C9D0BE",
"P  c #C3DABB",
"I  c #C2EBA6",
"U  c #C4E5AE",
"Y  c #CAE3AF",
"T  c #C3EAAB",
"R  c #C9EAAC",
"E  c #C3E2B0",
"W  c #CAE4B0",
"Q  c #C0ECB4",
"!  c #C3E3BD",
"~  c #C1EDBD",
"^  c #CDCCC9",
"/  c #D0CFCC",
"(  c #CCD5C4",
")  c #CADDC2",
"_  c #CFDFC8",
"`  c #D4DECD",
"'  c #DBDED3",
"]  c #C7E5C1",
"[  c #CBE4C5",
"{  c #C6EAC1",
"}  c #CBE9C5",
"|  c #CEE4C9",
" . c #CEEAC9",
".. c #D3E3CC",
"X. c #D2E9CD",
"o. c #D6E4D0",
"O. c #DBE3D4",
"+. c #D5E9D1",
"@. c #DAE9D5",
"#. c #DEE5D8",
"$. c #DEE9D9",
"%. c #D6F1D3",
"&. c #DAF2D7",
"*. c #DEF1D9",
"=. c #E2E4DC",
"-. c #E2EADD",
";. c #E2F0DE",
":. c #E6E6E1",
">. c #E8E7E2",
",. c #E6EAE1",
"<. c #EAEBE5",
"1. c #EDEDE9",
"2. c #E6F0E2",
"3. c #EAF1E6",
"4. c #EEF1EB",
"5. c #F1F2EF",
"6. c #F4F3F1",
/* pixels */
"/ 5.6.6.6.6.6.6.6.6.6.6.6.6.6.6.6.6.6.6.6.6.6.6.6.6.6.6.6.6.5.^ ",
"5.:.:.:.>.>.>.>.>.<.<.<.<.<.<.1.1.1.1.1.1.1.1.1.1.1.1.1.1.1.1.6.",
"5.=.=.:.:.:.:.>.>.>.>.<.<.<.<.<.<.<.<.1.1.1.1.1.1.1.1.1.1.1.1.5.",
"4.=.=.=.=.=.=.:.:.:.:.>.<.<.<.<.<.<.1.1.<.<.1.1.1.1.1.1.1.1.1.5.",
"4.=.=.=.=.=.=.=.=.=.:.:.! 5 5 $.<.u 5 8 <.<.<.<.1.1.1.1.1.1.1.5.",
"4.=.=.=.=.=.=.=.=.=.=.=.>.6 ; 7 ] ; ; ] <.<.<.<.<.<.<.<.1.1.1.5.",
"1.' #.#.#.=.=.=.=.=.=.=.-.@.: ; ; ; e <.,.,.,.,.<.<.<.<.<.<.<.5.",
"<.' ' ' O.O.#.#.#.=.=.=.=.-.h - - , ,.:.-.,.,.,.,.,.,.<.<.<.<.4.",
",.' ' ' O.O.O.O.O.#.#.#.#.#.-.> - h -.-.-.-.-.-.,.,.,.,.,.<.<.4.",
",.` ' ' ' O.O.O.O.O.O.O.O.#.-.4 = l -.-.-.-.-.-.-.-.-.-.,.,.,.4.",
"-.( ` ` ` ` o.o.o.O.O.O.O.O.#.< = j #.#.$.$.$.-.-.-.-.-.-.-.,.3.",
"$.L ( ` ` ` ........o.o.o.o.O.x h | @.@.@.@.@.$.$.$.$.$.-.-.-.3.",
"$.L L ( ` ` ` ................o.o.o.o.o.@.@.@.@.@.@.@.$.$.$.-.2.",
"@.K K K ) _ _ ..........................o.+.+.+.+.@.@.@.@.@.$.;.",
"@.K K K K P ) [ | | | | | | | ......X.X.X.X.X.X.+.+.+.+.@.@.@.;.",
"+.K H H H H H P ) [ [ [ [ [ [ | | | | | | | X.X.X.X.X.X.+.+.+.*.",
"X.H H z z z z z z P ! ] ] [ [ [ [ } } } } }  . . . . .X.X.X.X.&.",
" .z z z c c c c c c c c J ! ! ] ] ] ] } } } } } } } }  . . .X.%.",
"} c c c c c c c c c c c c c c c c D D ! ! ! ! { { { ! ! ! ! ! X.",
"{ c c c c J J c c c c c c c c c c E E E E E E c J J c c c c c } ",
"{ x c E E Y Y Y E W E Z Z E W E W W W W W W W E Y W W E E c x { ",
"~ N U U q + o 9 y * U B B U 2 s a + + + + + + s # + * s Y E Z ~ ",
"F B U 0 X q % 9 q   q U B R # 0 T a y o 9 y y G   y 2 . 0 U B ~ ",
"Q U s X a T T T t X X f T T 2 2 T T R + t T T R   R T k . s U F ",
"Q T & 2 T C C C r O q o k T 2 2 T C T * q T C R   R T k X a T S ",
"Q R . d C V C C r O T 2 & T 2 2 T V T 2 2 T C R   2 * X * T C S ",
"C T   I C M I C r O T T @ 3 2 2 I V I 2 2 I C T   @   $ k T V A ",
"C I O 3 I r X d r O I C g o o 2 C V C 2 2 C C I   I d @ o k C V ",
"m M d O   o w M r @ I V C g o 3 C V C w w M m M $ M M I 3 w C V ",
"v m M M I I M m M M M n m M I M m n m M M m n M M m n m M M C v ",
"p n n m m m n b n n n b b n m n n b b n n b b n n n b n n n n p ",
"1 i b b b b b b b b b b b b b b b b b b b b b b b b b b n n p 1 "
};
