/* XPM */
static char *counterZ[] = {
/* columns rows colors chars-per-pixel */
"32 32 88 1",
"  c #191919",
". c #252525",
"X c #313130",
"o c #3D3E3C",
"O c #494A47",
"+ c #494A48",
"@ c #545654",
"# c #60615F",
"$ c #606260",
"% c #6C6E6B",
"& c #777B77",
"* c #787B77",
"= c #777B78",
"- c #6AA1A9",
"; c #1584EB",
": c #1B8BF2",
"> c #268EEF",
", c #3F99EC",
"< c #278FF0",
"1 c #2790F2",
"2 c #4A9EEA",
"3 c #51A5F1",
"4 c #5EABF2",
"5 c #67ACEA",
"6 c #77B5EE",
"7 c #78B6EF",
"8 c #7AB8F1",
"9 c #828682",
"0 c #8F918C",
"q c #9B9C97",
"w c #979F9A",
"e c #999E99",
"r c #98A09B",
"t c #A4AAA5",
"y c #AFB5AF",
"u c #B2B6AF",
"i c #B1B6B0",
"p c #B7C3BD",
"a c #BBC2BC",
"s c #A1C7C3",
"d c #A0C8C3",
"f c #B2D3CF",
"g c #B1D4D0",
"h c #B7DBD6",
"j c #BCDAD6",
"k c #9EC7EC",
"l c #B4CEE5",
"z c #B6CFE8",
"x c #B7D2EA",
"c c #B9D3EB",
"v c #C5CEC6",
"b c #CECCC6",
"n c #CBCECA",
"m c #D1CCC5",
"M c #D1CFCB",
"N c #C6D0CC",
"B c #C9D0CD",
"V c #D4D1CC",
"C c #C5D4D0",
"Z c #CAD6D1",
"A c #C4DBD5",
"S c #CBDAD4",
"D c #C4DDD9",
"F c #CBDDD9",
"G c #D3D6D3",
"H c #D9D6D0",
"J c #D3D9D3",
"K c #DCDAD5",
"L c #D4DCDA",
"P c #DCDDDA",
"I c #E1DEDA",
"U c #CEE0DB",
"Y c #D4E0DE",
"T c #DCE0DE",
"R c #E4E1DE",
"E c #C7DAEC",
"W c #C8DCEE",
"Q c #D2DEEA",
"! c #DDE2E3",
"~ c #D4E1EC",
"^ c #E6E4E1",
"/ c #E9E6E3",
"( c #E6E9E6",
") c #EBE9E6",
"_ c #EEECEA",
"` c #F0EEEC",
"' c #F1F0EE",
"] c #F4F3F1",
/* pixels */
"M']]]]]]]]]]]]]]]]]]]]]]]]]]]]]n",
"]^/////))))))__________________]",
"'^^^^////)))))))_______________]",
"'RRR^^^/////)))))))___````_____]",
"'RRRRR^^^^////)))))_733338_____]",
"`IRRRRRRR^^^/////)))6331:4_____]",
"_IIIIRRRRRRR^^^////))_W<1~_____]",
"_KIIIIIIRRRRRR^^^///)Q>>E))))__'",
")KKKIIIIIIRRRRRRR^^/!,;k)))))))'",
"/HKKKKKIIIIIIRRRRRR/2;5cxx)))))`",
"/mKKKKKKKIIIIIIRRRR^;;;;;;)///)`",
"^mVKKKKKKKKKIIIIIIRRlllzzl/^///_",
"^mmVHKKKKKKKKKPPIIIIRRRRRRR^^^/_",
"RbbbVHHKKKKKKKKPPPPIIRRRRRRR^R^)",
"RbbbbMHHKKKKKKKKPPPPPPPIRRRRRRR)",
"RbbbnnnVGJJJKKPPPPPPPPPPTTTTRRR(",
"TnnnnnnnnBGLLLLLLLLLPPPPPTTTTTT(",
"TnnnnBBBBBBBZSLLLLLLLLLLYYYTTT!(",
"YBBNCCCCCCCCCCCCZZSSSSSLLLSFLLG!",
"YCCCCZZZCZCCCCZCZZZZZZZCZZZCCCCY",
"UCCZZJJZZJZCCZJZSJJJJJJZJJGZZCCY",
"UCZZqOo9t%SZAS*auOOOOOOa@O%aZZCU",
"FCZ0Xe#9e eSAS@0Sito9ttv t*.0ZZF",
"FZaXyZSStXXaSS**SSS+tSSJ JZv.aZF",
"FS#&SAAAt+eoNS**SAS%eSAJ SSvXyZD",
"FS.pAAAAt+S&$S&&SAS&&SAS &%X%ZAD",
"DS SASSSt+SS@9==SjS==SAS @ #vSAj",
"AS+9StXpt+SANoo=SjS==SAS Sp@ovAj",
"jAp+ owSt@SASNo9SjArwAAS$SAS9wAj",
"gjASSSAAASAjjASSAjAAAAjASAjAAAAf",
"dhjjAjjhjjjhhjAjhhhjjhhjjjhhjjhs",
"-dhhhhhhhhhhhhhhhhhhhhhhhhhhhhs-"
};
