/* XPM */
static char *CT_[] = {
/* columns rows colors chars-per-pixel */
"32 32 74 1",
"  c #312D26",
". c #332E28",
"X c #37332E",
"o c #39352F",
"O c #3A3631",
"+ c #3E3A35",
"@ c #413D36",
"# c #413D39",
"$ c #45413B",
"% c #49443E",
"& c #494641",
"* c #514C46",
"= c #524F4A",
"- c #55514B",
"; c #5B5752",
": c #5E5A55",
"> c #605B55",
", c #66635E",
"< c #68655F",
"1 c #696661",
"2 c #6B6864",
"3 c #726D67",
"4 c #736E68",
"5 c #75716C",
"6 c #7B7773",
"7 c #7F7B76",
"8 c #807B76",
"9 c #85817C",
"0 c #878580",
"q c #898681",
"w c #8E8C86",
"e c #8F8C88",
"r c #908C85",
"t c #918E89",
"y c #94928D",
"u c #98948E",
"i c #969390",
"p c #999690",
"a c #9D9994",
"s c #A19E99",
"d c #A4A29C",
"f c #A8A39D",
"g c #AAA6A2",
"h c #AEABA6",
"j c #B2AEA7",
"k c #B2AEA9",
"l c #B5B2AE",
"z c #B7B5B1",
"x c #BAB6B2",
"c c #BCB9B4",
"v c #BFBCB8",
"b c #C0BCB5",
"n c #C2BEB9",
"m c #C6C2BC",
"M c #C8C4BF",
"N c #CAC6C1",
"B c #CDCAC5",
"V c #D1CCC5",
"C c #D3CFC9",
"Z c #D6D2CC",
"A c #D8D4CE",
"S c #DAD6D1",
"D c #DDDAD5",
"F c #DEDDD8",
"G c #E0DCD7",
"H c #E1DED9",
"J c #E4E1DD",
"K c #E6E4E0",
"L c #E9E6E3",
"P c #EBEAE6",
"I c #EEECEA",
"U c #F0EFEC",
"Y c #F2F1EF",
"T c #F3F2F1",
/* pixels */
"CTTYYYYYYYYYYYYYYYYYYYYYYYYYYTTB",
"TFGGGGHHHHHHHJJJJJJJJJJJJJJJJJJT",
"UDDFFGGGHHHHHHHHJJJJJJJJJJJJJJJY",
"UDDFGHHHHHJJJJJJJJJJKJJJJKJJJJJY",
"UDDAa<<0Sf111111J22222lKg2gJJJJY",
"IDH;O;=O:f<:+&11K++22##Zu#iJJJJU",
"IDdO,JH6tSJc+1JHJ++LF>#vy#uJJJJU",
"PDwOeDDGHDDxO<HDJ+++++:Ky#yJHJJU",
"PSpo9FF9dZDxO,HDJ++q++ZJy+yJJJHI",
"LZNX#hpo$ZDxO,GDHO+Kt+1Jy+1yycJI",
"LVSs#XX#sDSlO,FDHOOHH=+cy++++yJI",
"KVZSCllZSSSClnDSDzzDDBxmBxcccBHP",
"KVVCAAAAAAASSSSSSDDDDDDDDDFFGGGP",
"JVVVCZZAAAAAASSSSSSSSSDDDDDDDDDL",
"JVVVVVZZZZAAAAAASSSSSSSSDDDDDDDL",
"JVVVVVVCZZZSCVAAAASNDSSSSSSDDDDK",
"HVVVVVVVVVZc@aAAAAMXsDSSSSSSSSDK",
"GVVVVVVVVVZ*4AZAZASs@NSASSSSSSSJ",
"FVVVVVVVVCdoBVCbNCZS>8AAAAZZZZZH",
"DVVVVVVVVZ,3ZCZ;9ZCZpoAVVVVVVVVD",
"DVVVVVVVVA$aZnk*4jBZm mCVVVVVVVD",
"DVVVVVCCCS kZ,    rZS kZCCVVVVVD",
"SVVVCCCCCS kZAD:qSZZS kZCCCCVVVS",
"SVCCCCCCZS%aZZA<tZZZM.MZCCCCCCVS",
"SCCCCCZZZA<7SZZAAZZAg+SZZZCCCCCS",
"ACCCCZZZZAa+CAZZZZZS>5AZZZZCCCCA",
"ACCCZZZZZZS:-VZZZZS5+CZZZZZZCCCA",
"ZCCZZZZZZZAV7fAZZZm1MAZZZZZZZCCZ",
"ZCZZZZZZZZZASAAZZZASAZZZZZZZZZCZ",
"CZZZZZZZZZZZZZZZZZZZZZZZZZZZZZZV",
"mZZZZZZZZZZZZZZZZZZZZZZZZZZZZZZm",
"umZZZZZZZZZZZZZZZZZZZZZZZZZZZZmu"
};
