/* XPM */
static char *CT_[] = {
/* columns rows colors chars-per-pixel */
"32 32 70 1",
"  c #312C26",
". c #332F29",
"X c #36322D",
"o c #38352F",
"O c #3A3631",
"+ c #3E3A35",
"@ c #413E39",
"# c #45413B",
"$ c #49443E",
"% c #4A4741",
"& c #504B45",
"* c #524F4A",
"= c #56524C",
"- c #5B5753",
"; c #5E5A55",
": c #605C57",
"> c #66625E",
", c #69655F",
"< c #696661",
"1 c #6B6864",
"2 c #726D67",
"3 c #76736D",
"4 c #7B7773",
"5 c #7F7B76",
"6 c #86827C",
"7 c #88847E",
"8 c #878580",
"9 c #8A8681",
"0 c #8E8C86",
"q c #8F8C88",
"w c #918E8A",
"e c #94928D",
"r c #98948E",
"t c #969390",
"y c #989590",
"u c #9D9A94",
"i c #A29E99",
"p c #A4A19C",
"a c #A8A39D",
"s c #AAA6A2",
"d c #AEABA5",
"f c #B2AEA9",
"g c #B5B2AD",
"h c #B9B6AF",
"j c #B7B5B1",
"k c #B9B6B2",
"l c #BCB9B4",
"z c #BFBCB8",
"x c #C2BEB7",
"c c #C1BEB8",
"v c #C6C2BC",
"b c #CAC7C2",
"n c #CDCBC6",
"m c #D1CCC6",
"M c #D3CFC9",
"N c #D6D2CC",
"B c #D8D4CE",
"V c #DAD6D1",
"C c #DDDAD5",
"Z c #DEDDD8",
"A c #E0DCD7",
"S c #E1DED9",
"D c #E4E1DD",
"F c #E6E4E0",
"G c #E9E6E3",
"H c #EBEAE6",
"J c #EEECEA",
"K c #F0EFEC",
"L c #F2F1EF",
"P c #F3F2F1",
/* pixels */
"MPPLLLLLLLLLLLLLLLLLLLLLLLLLLPPn",
"PZAAAASSSSSSSDDDDDDDDDDDDDDDDDDP",
"KCCZZAAASSSSSSSSDDDDDDDDDDDDDDDL",
"KCCZASSSSSDDDDDDDDDDFDDDDFDDDDDL",
"KCCBu,,8Va<<<<<<D11111gFs1sDDDDL",
"JCS-O-*O;a,;+%<<F++11@@Nr@tDDDDK",
"JCpO>DS4wVDl+<DSD++GZ:@ze@rDDDDK",
"HC0OqCCASCCkO,SCD+++++;Fe@eDSDDK",
"HVyo6ZZ6pNCkO>SCD++9++NDe+eDDDSJ",
"GNbX@dyo#NCkO>ACSO+Fw+<De+<eelDJ",
"GmVi@XX@iCVhO>ZCSOOSS*+le++++eDJ",
"FmNVMggNVVVMgcCVCjjCCnkvnklllnSH",
"FmmMBBBBBBBVVVVVVCCCCCCCCCZZAAAH",
"DmmmMNNBBBBBBVVVVVVVVVCCCCCCCCCG",
"DmmmmmNNNNBBBBBBVVVVVVVVCCCCCCCG",
"DmmmmmmMNNNBVvVBBVMMVVVVVVVCCCCF",
"SmmmmmmmmmNV3%VBBBu@zVVVVVVVVVCF",
"AmmmmmmmmmMpOlBNNBC3=CBBVVVVVVVD",
"ZmmmmmmmmmN&6NmmmMNm+sBBBBNNNNNS",
"CmmmmmmmmMk vMmmmmmN2>NmmmmmmmmC",
"CmmmmmmmmNu#BNNNNNMNu#BmmmmmmmmC",
"CmmmmmMMMN7;Bx666dNNf VMMMmmmmmC",
"VmmmMMMMMN7;Vx677hNNf VMMMMMmmmV",
"VmMMMMMMNNu$VNBBBNNNu$VNMMMMMMmV",
"VMMMMMNNNNl.MNNNNNNV5,BNNNMMMMMV",
"BMMMMNNNNNV$9VNNNNBM+uBNNNNMMMMB",
"BMMMNNNNNNBgXuBNNNm=;VNNNNNNMMMB",
"NMMNNNNNNNNVf<BNNBa5mBNNNNNNNMMN",
"NMNNNNNNNNNNBVBNNBBVBNNNNNNNNNMN",
"MNNNNNNNNNNNNNNNNNNNNNNNNNNNNNNm",
"vNNNNNNNNNNNNNNNNNNNNNNNNNNNNNNv",
"rvNNNNNNNNNNNNNNNNNNNNNNNNNNNNvr"
};
