/* XPM */
static char * dispMaskAnim_xpm[] = {
"32 32 292 2",
"  	c None",
". 	c #606060",
"+ 	c #AEAEAE",
"@ 	c #C6C6C6",
"# 	c #C4C4C4",
"$ 	c #C5C5C5",
"% 	c #C8C8C8",
"& 	c #C9C9C9",
"* 	c #CACACA",
"= 	c #ADADAD",
"- 	c #5D5D5D",
"; 	c #B5B5B5",
"> 	c #A0A0A0",
", 	c #A2A2A2",
"' 	c #A4A4A4",
") 	c #A6A6A6",
"! 	c #A7A7A7",
"~ 	c #A9A9A9",
"{ 	c #ABABAB",
"] 	c #AFAFAF",
"^ 	c #B0B0B0",
"/ 	c #B2B2B2",
"( 	c #B3B3B3",
"_ 	c #B6B6B6",
": 	c #B7B7B7",
"< 	c #B9B9B9",
"[ 	c #BABABA",
"} 	c #BBBBBB",
"| 	c #BDBDBD",
"1 	c #BEBEBE",
"2 	c #BFBFBF",
"3 	c #B1B1B1",
"4 	c #9B9B9B",
"5 	c #9D9D9D",
"6 	c #9E9E9E",
"7 	c #A1A1A1",
"8 	c #A3A3A3",
"9 	c #A8A8A8",
"0 	c #AAAAAA",
"a 	c #ACACAC",
"b 	c #B4B4B4",
"c 	c #B8B8B8",
"d 	c #BCBCBC",
"e 	c #969696",
"f 	c #989898",
"g 	c #9F9F9F",
"h 	c #ADADAC",
"i 	c #B3B3B2",
"j 	c #C1C1C1",
"k 	c #C3C3C3",
"l 	c #909090",
"m 	c #939393",
"n 	c #858585",
"o 	c #2E2E2D",
"p 	c #2E2E2E",
"q 	c #2F2F2F",
"r 	c #727271",
"s 	c #AEAEAD",
"t 	c #333333",
"u 	c #343434",
"v 	c #717171",
"w 	c #3B3B3B",
"x 	c #3D3D3D",
"y 	c #828282",
"z 	c #444444",
"A 	c #454545",
"B 	c #535353",
"C 	c #C0C0C0",
"D 	c #8B8B8B",
"E 	c #8D8D8D",
"F 	c #7D7D7D",
"G 	c #000000",
"H 	c #0B0B0B",
"I 	c #2D2D2D",
"J 	c #5C5C5C",
"K 	c #010101",
"L 	c #565656",
"M 	c #070707",
"N 	c #202020",
"O 	c #212121",
"P 	c #0C0C0C",
"Q 	c #3C3C3C",
"R 	c #6C6C6C",
"S 	c #131313",
"T 	c #2B2B2B",
"U 	c #373737",
"V 	c #171717",
"W 	c #C2C2C2",
"X 	c #868686",
"Y 	c #888888",
"Z 	c #8E8E8E",
"` 	c #7C7C7B",
" .	c #2C2C2C",
"..	c #858584",
"+.	c #020202",
"@.	c #929292",
"#.	c #656564",
"$.	c #666666",
"%.	c #696969",
"&.	c #0F0F0F",
"*.	c #CACAC9",
"=.	c #151515",
"-.	c #818181",
";.	c #838383",
">.	c #898989",
",.	c #797978",
"'.	c #9A9A9A",
").	c #636363",
"!.	c #B8B8B7",
"~.	c #656565",
"{.	c #0A0A0A",
"].	c #232323",
"^.	c #303030",
"/.	c #3F3F3F",
"(.	c #949494",
"_.	c #7C7C7C",
":.	c #7F7F7F",
"<.	c #767675",
"[.	c #2A2A2A",
"}.	c #AFAFAE",
"|.	c #ACACAB",
"1.	c #525252",
"2.	c #979797",
"3.	c #626262",
"4.	c #050505",
"5.	c #1E1E1E",
"6.	c #383838",
"7.	c #515151",
"8.	c #7A7A7A",
"9.	c #727272",
"0.	c #1F1F1F",
"a.	c #363636",
"b.	c #A7A7A6",
"c.	c #AAAAA9",
"d.	c #161616",
"e.	c #949493",
"f.	c #5E5E5E",
"g.	c #4C4C4C",
"h.	c #757575",
"i.	c #7B7B7B",
"j.	c #9A9A99",
"k.	c #737372",
"l.	c #4F4F4F",
"m.	c #5A5A5A",
"n.	c #5B5B5B",
"o.	c #A5A5A5",
"p.	c #434343",
"q.	c #575757",
"r.	c #777777",
"s.	c #6B6B6A",
"t.	c #707070",
"u.	c #787877",
"v.	c #878787",
"w.	c #8A8A8A",
"x.	c #737373",
"y.	c #919190",
"z.	c #9C9C9C",
"A.	c #8F8F8F",
"B.	c #929291",
"C.	c #9FA0A0",
"D.	c #7E7E7E",
"E.	c #848484",
"F.	c #90908F",
"G.	c #919191",
"H.	c #959595",
"I.	c #999999",
"J.	c #787878",
"K.	c #585858",
"L.	c #6E6E6E",
"M.	c #767676",
"N.	c #797979",
"O.	c #808080",
"P.	c #8C8C8C",
"Q.	c #747474",
"R.	c #777878",
"S.	c #7F7F80",
"T.	c #C3C2C2",
"U.	c #464646",
"V.	c #545454",
"W.	c #686868",
"X.	c #CECDCD",
"Y.	c #D5D4D4",
"Z.	c #D9D8D8",
"`.	c #DBDADA",
" +	c #D1D0D0",
".+	c #C6C5C5",
"++	c #A5A4A4",
"@+	c #898A8A",
"#+	c #676767",
"$+	c #474747",
"%+	c #C8C7C7",
"&+	c #D6D5D5",
"*+	c #E1E0E0",
"=+	c #E8E7E7",
"-+	c #EBEAEA",
";+	c #CFCECE",
">+	c #999898",
",+	c #E5E4E4",
"'+	c #CBCBCB",
")+	c #616161",
"!+	c #484848",
"~+	c #494949",
"{+	c #6A6A6A",
"]+	c #D7D6D6",
"^+	c #E5E5E5",
"/+	c #EFEEEE",
"(+	c #F4F3F3",
"_+	c #EEEDED",
":+	c #5F5E5E",
"<+	c #5D5C5C",
"[+	c #F3F2F2",
"}+	c #CBCACA",
"|+	c #4A4A4A",
"1+	c #4B4B4B",
"2+	c #B0AFAF",
"3+	c #D3D2D2",
"4+	c #E3E3E3",
"5+	c #F1F0F0",
"6+	c #F8F7F7",
"7+	c #FCFCFC",
"8+	c #706F6F",
"9+	c #5A5959",
"0+	c #E7E6E6",
"a+	c #C4C3C3",
"b+	c #737474",
"c+	c #4D4D4D",
"d+	c #C7C6C6",
"e+	c #DCDBDB",
"f+	c #ECEBEB",
"g+	c #F7F6F6",
"h+	c #FDFCFC",
"i+	c #D5D5D5",
"j+	c #666565",
"k+	c #F9F8F8",
"l+	c #E0DFDF",
"m+	c #CDCCCC",
"n+	c #7C7B7B",
"o+	c #4E4E4E",
"p+	c #505050",
"q+	c #F0EFEF",
"r+	c #FAF9F9",
"s+	c #FEFDFD",
"t+	c #868585",
"u+	c #FFFEFE",
"v+	c #7B7A7A",
"w+	c #FCFBFB",
"x+	c #D2D1D1",
"y+	c #9A9999",
"z+	c #E3E2E2",
"A+	c #F2F1F1",
"B+	c #FBFAFA",
"C+	c #676666",
"D+	c #908F8F",
"E+	c #A3A2A2",
"F+	c #545555",
"G+	c #B8B7B7",
"H+	c #C2C1C1",
"I+	c #595959",
"J+	c #717070",
"K+	c #DDDCDC",
"L+	c #5B5A5A",
"M+	c #5C5B5B",
"N+	c #858484",
"O+	c #959494",
"P+	c #6D6C6C",
"Q+	c #AFAEAE",
"R+	c #DAD9D9",
"S+	c #6D6D6D",
"T+	c #555555",
"U+	c #C9C8C8",
"V+	c #E9E8E8",
"W+	c #A4A3A3",
"X+	c #5B5C5C",
"Y+	c #CCCBCB",
"Z+	c #DADADA",
"`+	c #CFCFCF",
" @	c #B9B8B8",
".@	c #5F5F5F",
"+@	c #A09F9F",
"@@	c #DEDDDD",
"#@	c #DFDEDE",
"$@	c #646464",
"%@	c #404040",
"&@	c #676868",
"*@	c #B5B4B4",
"=@	c #8F8E8E",
"-@	c #6B6C6C",
";@	c #3A3A3A",
">@	c #686969",
",@	c #6C6D6D",
"'@	c #717272",
")@	c #393939",
". + @ # # $ $ $ @ % % % % % & & & & * * * * * * * * * * * % = - ",
"; > , ' ) ! ~ { = ] ^ / ( ; _ : < [ } | | 1 2 2 2 2 2 2 2 2 1 3 ",
"_ 4 5 6 7 8 ' ! 9 0 a + ] 3 / b ; : c [ [ d | 1 2 2 2 2 2 2 2 c ",
": e f 4 g ) 0 { h 0 9 { / i 3 3 _ [ d } < [ 1 j # # k j 2 2 2 1 ",
": l m e n o p p q r { s t u ( ; v w x . ( [ y z A A B ! C 2 2 $ ",
"_ D E m F G H I H G J / G K : L M N O P Q | R S T U V q W d | # ",
"+ X Y Z ` G  .~ ..G V b G G ; q +.L @.#.$.< %.&.R *.S =.j < [ C ",
"' -.;.>.,.G T '.7 G G / G G ] l P G K &.).!.~.{.].^.&./.d _ : d ",
"(._.:.n <.G [.'.7 G G }.G G |.y >.D 1.P G 2.3.4.5.6.7.4 ( / ( < ",
"Z %.8.-.9.G 0._./.G a.b.G G c.d.G $.Y V G e.f.K . ; ] = h + ] b ",
">.g.h.i.R G G G G =.F j.G G > k.H G G G l.0 m.G n.) ' o.! ~ { ^ ",
";.p.q.h.r.s.t.t.u.Z v.w.r x.l y.z.` F A.6 '.Z :.B.C.6 7 , ' ! { ",
"D.p.p.n.x.r.8.8._._._.:.E.n X X >.E A.A.F.G.H.2.I.f '.4 6 g 7 o.",
"J.p.p.p.K.L.v x.h.M.N.8.F D.O.y ;.n Y >.w.P.Z l G.m H.e I.'.z.6 ",
"v p.p.p.z l.%.t.9.Q.h.R.S.5 / W T.c o.A.X Y >.D E Z l @.m H.2.2.",
"R p.p.z z A U.V.W.t.9.G.W X.Y.Z.`.Z. +.+++n n X Y @+D E E l @.@.",
"#+p.p.z A A U.U.$+V.m %+&+*+=+-+;+>+,+Z.'+^ O.y ;.n X Y w.D E D ",
")+z A A U.$+$+!+~+{+@ ]+^+/+(+_+:+<+[+=+`.}+6 D.O.-.;.;.X X Y ;.",
"J z U.U.$+~+~+|+1+2+3+4+5+6+7+>+8+9+0+[+=+]+a+8.x.b+{+{+%.{+).W.",
"K.U.!+~+~+1+g.c+. d+e+f+g+h+i+<+&+j+i+k+/+l+m+n+c+1+1+~+!+!+U.K.",
"L $+~+1+g.o+l.p+F m+*+q+r+s+t+t+u+v+= w+[+^+x+y+p+o+o+g.|+~+$+L ",
"B ~+1+c+o+p+1.V.t+;+z+A+B+j <+C+<+<+D+7+(+0+Y.E+V.7.p+o+g.1+~+B ",
"p+1+c+p+7.B F+q.v.X.*+5+B+8+v+G+&+H+8+7+(+^+3+E+q.V.B 7.l.c+1+p+",
"o+c+l.7.B L q.I+J+% K+_+ +L+l+u+u+l+M+0+q+*+;+>.K.q.L B 7.l.c+o+",
"g.l.7.B L K.m.n.f.[ Y.=+N+O+h+s+s+s+P+Q+-+R+.+S+n.m.q.L B p+l.g.",
"~+7.1.T+K.m.J f.. D U+e+&+V+g+k+k+g+l+4+l+X.W+. f.X+m.q.T+B 7.~+",
"$+B T+q.m.J f.. )+).++Y+Z+,+-+_+_+f+0+K+`+ @W.)+. f.J I+q.T+B $+",
"U.T+L I+n.f..@3.).~.{++@%+3+Z+@@#@`.Y.}+= Q.$@).)+.@f.n.K.L T+U.",
"%@L I+n.- .@)+).~.~.$.&@E.= # % U+@ *@=@-@$.~.$@).)+.@- n.I+L %@",
";@I+n.- .@)+).$@~.#+#+W.>@>@,@i.i.'@>@W.W.#+$.~.$@3.)+f.- n.I+)@",
"p m.- f.. 3.).~.$.#+#+%.%.%.%.%.%.%.%.%.W.#+#+$.$@).)+. f.- m. .",
"p.I z U.$+$+~+|+|+g.g.c+c+o+o+o+o+o+o+c+g.g.g.|+|+!+$+$+U.z I p."};
