/* XPM */
static char *doubleSided[] = {
/* columns rows colors chars-per-pixel */
"32 32 254 2",
"   c #1B5808",
".  c #215908",
"X  c #2F5A08",
"o  c #355C0A",
"O  c #3B5C09",
"+  c #38600F",
"@  c #276014",
"#  c #2E661C",
"$  c #3C6314",
"%  c #366619",
"&  c #1D4C3D",
"*  c #356A23",
"=  c #396C25",
"-  c #366D2F",
";  c #3A6E29",
":  c #3D712D",
">  c #2E6335",
",  c #306636",
"<  c #356B30",
"1  c #4C5E0A",
"2  c #535F0A",
"3  c #595F09",
"4  c #4A610E",
"5  c #56600D",
"6  c #5F620E",
"7  c #446313",
"8  c #4A681A",
"9  c #536614",
"0  c #5A6412",
"q  c #546A1D",
"w  c #596A1A",
"e  c #67650D",
"r  c #71680E",
"t  c #616614",
"y  c #6E6B16",
"u  c #646A1A",
"i  c #676B1B",
"p  c #766C13",
"a  c #736F1A",
"s  c #7C7118",
"d  c #496D25",
"f  c #476F28",
"g  c #536E23",
"h  c #5F6E21",
"j  c #42712B",
"k  c #4F7129",
"l  c #537129",
"z  c #5C7229",
"x  c #417431",
"c  c #4A7737",
"v  c #4A7A3B",
"b  c #577B39",
"n  c #676F22",
"m  c #637126",
"M  c #6C7227",
"N  c #64742B",
"B  c #757322",
"V  c #7D7726",
"C  c #657831",
"Z  c #777F3B",
"A  c #557F41",
"S  c #887415",
"D  c #83751D",
"F  c #8C7A1E",
"G  c #997A16",
"H  c #947A1C",
"J  c #A57E16",
"K  c #837825",
"L  c #8C7B23",
"P  c #8C7E2B",
"I  c #917D25",
"U  c #987F23",
"Y  c #74813F",
"T  c #558144",
"R  c #598245",
"E  c #568348",
"W  c #5C864C",
"Q  c #5F8A53",
"!  c #638142",
"~  c #6D8344",
"^  c #64864B",
"/  c #6B894D",
"(  c #738445",
")  c #7A8747",
"_  c #728749",
"`  c #74894B",
"'  c #7B8A4D",
"]  c #648C54",
"[  c #6A8B53",
"{  c #668F59",
"}  c #748D52",
"|  c #7C8F54",
" . c #6B915C",
".. c #7D9056",
"X. c #73925B",
"o. c #7D945D",
"O. c #6D9561",
"+. c #729663",
"@. c #749866",
"#. c #759969",
"$. c #7B9D6E",
"%. c #7FA174",
"&. c #A3811D",
"*. c #AB841D",
"=. c #B38619",
"-. c #BC8A1C",
";. c #9C8023",
":. c #94812B",
">. c #9A8328",
",. c #888234",
"<. c #97893A",
"1. c #A78627",
"2. c #B98D26",
"3. c #B79335",
"4. c #C38E1C",
"5. c #CB921E",
"6. c #D1941C",
"7. c #C28F24",
"8. c #C69121",
"9. c #C99324",
"0. c #C2932C",
"q. c #CB962D",
"w. c #D59826",
"e. c #DC9C24",
"r. c #D29929",
"t. c #D89F32",
"y. c #E19F28",
"u. c #DAA135",
"i. c #E4A12C",
"p. c #E8A42F",
"a. c #E5A434",
"s. c #EBA632",
"d. c #EAA938",
"f. c #EDAB3A",
"g. c #868A4B",
"h. c #978F47",
"j. c #868E53",
"k. c #879358",
"l. c #85945B",
"z. c #959558",
"x. c #A4974C",
"c. c #B49841",
"v. c #A59A53",
"b. c #BEA34E",
"n. c #ADA35E",
"m. c #859965",
"M. c #8B9A66",
"N. c #8B9D6B",
"B. c #949961",
"V. c #999D66",
"C. c #9D9F6C",
"Z. c #809F70",
"A. c #97A06F",
"S. c #9DA06D",
"D. c #8CA274",
"F. c #86A57A",
"G. c #94A474",
"H. c #9CA474",
"J. c #97A779",
"K. c #9CA97C",
"L. c #AFA562",
"P. c #A8A56C",
"I. c #B0A766",
"U. c #B4AB6C",
"Y. c #BDAE69",
"T. c #A7AC7D",
"R. c #B5AE72",
"E. c #B7B178",
"W. c #BAB57A",
"Q. c #C29F45",
"!. c #DDAE4A",
"~. c #EFBF58",
"^. c #C8B569",
"/. c #D1B865",
"(. c #CABC77",
"). c #F0C25B",
"_. c #CFC17C",
"`. c #D8C87D",
"'. c #E7C96E",
"]. c #F0C763",
"[. c #F1CC6A",
"{. c #E5CF7B",
"}. c #F2D374",
"|. c #F2D77A",
" X c #F2D97D",
".X c #8DAB83",
"XX c #93AC83",
"oX c #99AE86",
"OX c #95B18C",
"+X c #9CB28C",
"@X c #9BB591",
"#X c #9FB896",
"$X c #A5AE83",
"%X c #A8AE83",
"&X c #A3B189",
"*X c #ACB38C",
"=X c #BDB982",
"-X c #B4B588",
";X c #A8B893",
":X c #A4BC9C",
">X c #ABBC9B",
",X c #B2B791",
"<X c #B4BA95",
"1X c #B4BE9D",
"2X c #BBBD99",
"3X c #96ACA4",
"4X c #A8BFA1",
"5X c #C1BD86",
"6X c #BCC09E",
"7X c #ACC2A4",
"8X c #AFC5A9",
"9X c #B3C1A3",
"0X c #BCC3A4",
"qX c #B2C6AB",
"wX c #BAC7AB",
"eX c #B4C8AE",
"rX c #BBCDB5",
"tX c #BFD0BB",
"yX c #D2C783",
"uX c #D4CC8B",
"iX c #C8C794",
"pX c #D7D398",
"aX c #DBD99E",
"sX c #E3D385",
"dX c #E8D787",
"fX c #E3D68B",
"gX c #F3DD84",
"hX c #F0DE8A",
"jX c #E7DF96",
"kX c #E1DD9E",
"lX c #F3E38C",
"zX c #E9E299",
"xX c #E8E39D",
"cX c #F4E690",
"vX c #F5EA96",
"bX c #F4EC9B",
"nX c #C4C8A6",
"mX c #C2C7A9",
"MX c #D2D2A8",
"NX c #C2D2BD",
"BX c #E8E8A8",
"VX c #F2EDA0",
"CX c #F6F3A3",
"ZX c #F6F7A9",
"AX c #F6F9AD",
"SX c #EDEDB4",
"DX c #F7F9B2",
"FX c #C6D5C2",
"GX c #C9D7C4",
"HX c #CBD9C6",
"JX c #CDDAC9",
"KX c #D1DDCE",
"LX c #D3DFD2",
"PX c #D6E0D7",
/* pixels */
"3XLXKXFXGXGXGXGXHXHXHXHXHXHXJXJXJXJXJXJXJXJXJXJXJXJXJXJXJXLXPX3X",
"PX.X.XXXOXOXOX@X@X#X#X:X:X:X:X4X7X7X7X8X8XqXqXqXqXqXqXqXqXqX8XPX",
"FXF.F.XXoXoXoX+X+X@X;X;X;X>X>X>X:X7X9X9X7X8XqXwXwXwXwXwXeXqXqXHX",
"tX%.D.K.T.T.%X%X&X+X*X*X,X<X<X<X>X1X2X6X9X7X0X0XmXmXmXmXmXwXqXHX",
"rX$.D.H.sXsXfXfX=X$X=XjXzXxXxXiX,XpXBXMX1X>X0XBXSXSXSXSXMXwXqXGX",
"rX@.N.C.gXgXsXlXlXT.5XvXvXzXbXVX,XpXZXaX<X>X2XBXDXSXSXSXMX0XqXFX",
"qXO.m.V. XgXS.`.lX(.W.lXfX%XvXvX*XpXCXpX,X;X<XBXAXMX6XnX0X9X7XNX",
"4X{ o.z.}.|.V.(.gX(.E.lXlXlXcXyX$XuXbXpX*X&X,XBXZXAXAXDX6X1X4XNX",
"@X] ..z.}.}.B.^.|.(.U.gXdX_.hXhXE.yXvXuX$X%X*XxXCXkXaXaX<X>X:XrX",
"OXv } j.[.[.n.'.}.I.I. X{.R.dXgXW.yXlXfXuXuX%XjXbXpXiXiX2X;X#XrX",
".X@ _ g.].].[.[./.k.L.}.|.|. X{.S._.gXlXlXlXT.fXvXbXbXbXiX*X@XeX",
".X  d ) x.v.v.z.j.| z.n.L.L.I.B.M.P.R.R.E.E.H.E.=X=X5X5X-X&XOX8X",
"F.  . k ( ( _ _ / / } | | ..l.o.o.m.M.M.N.N.N.G.G.J.J.K.K.XX.X7X",
"F.      = T R T R E W W ] [ } ..X. .X.+.+.@.#.$.$.Z.D.G.J.J.F.:X",
"$.        @ c ! ~ ! R E E / ' v.j.} { {  . .O.+.@.#.N.A.R.H.D.#X",
"#.          o w <.Y ! T T ~ g.].v.' ] ] ] {  . .O.+.M.U. XS.D.+X",
"O.    . X o O 3 6.D C b A ~ h.).x.` W ^ [ ] ] {  .X.l.Y.|.V.N.OX",
" .. o O 1 3 2 1 3 1 o 7 w N <.~.x._ _ ' ' ` / } | k.k.^.}.B.m..X",
"{ O 1 r G 5.-.2 G e 4 r G J G e.y w :.3.3.,.C ( h.b.c.Q.!.Z b +.",
"[ 1 S e.=.J e.6 e.S s e.w.8.e.e.t *.e.8.w.w.p G e.5.5.e.4.5 o Q ",
"/ 5 4.-.p 0 s t y.S 7.7.t 0 &.i.a i.H t &.i.s e.&.0 0 -.4.5 o W ",
"^ 4 G e.y.9.y t i.F p.F q q F p.1.i.;.t.r.H F i.t 7 9 *.8.0 + E ",
"A 7 9 t D r.2.u p.L s.U q q I s.2.s.0.L u w L p.a 8 9 *.9.0 $ A ",
"b 9 H y u 2.q.i s.I q.t.V B 0.f.>.a.1.n B 1.q.a.0.a s r.9.0 $ v ",
"b 0 r.i.p.s.;.i a.L K u.f.f.d.f.:.3.f.f.f.a.L I a.s.s.i.i.u 7 v ",
"b 9 u D L B h h n m z M :.:.M P m m V :.P M h m B I K i D w $ x ",
"x % 8 q q g d d g d f l z z l z k k l z z l f d g g g 8 q 8 # x ",
": # # * = * * = ; ; ; ; j j : j : : : j : ; ; ; = = = * * # # : ",
"; # * * * = = ; ; ; : : : : : : : : : : : : ; ; ; = = * * * # - ",
"- * * * = = ; ; : : : : : : : : : : : : : : : : ; ; = = * * * < ",
", * * = ; ; ; : : : : : : : : : : : : : : : : : : ; ; ; = * * , ",
"& > = ; : : : : : x x x x x x x x x x x x x x : : : : : ; = > & "
};
