/* XPM */
static char * dwnArrow_xpm[] = {
"24 24 45 1",
" 	c #000000",
".	c #FFFFFF",
"+	c #FEFEFE",
"@	c #FBFBFB",
"#	c #828282",
"$	c #363636",
"%	c #0D0D0D",
"&	c #1A1A1A",
"*	c #676767",
"=	c #AAAAAA",
"-	c #464646",
";	c #090909",
">	c #2E2E2E",
",	c #909090",
"'	c #E3E3E3",
")	c #6B6B6B",
"!	c #010101",
"~	c #020202",
"{	c #0C0C0C",
"]	c #545454",
"^	c #D5D5D5",
"/	c #FDFDFD",
"(	c #E4E4E4",
"_	c #888888",
":	c #131313",
"<	c #7D7D7D",
"[	c #E2E2E2",
"}	c #FAFAFA",
"|	c #E9E9E9",
"1	c #9B9B9B",
"2	c #353535",
"3	c #414141",
"4	c #979797",
"5	c #A9A9A9",
"6	c #444444",
"7	c #171717",
"8	c #565656",
"9	c #B7B7B7",
"0	c #CBCBCB",
"a	c #535353",
"b	c #737373",
"c	c #E8E8E8",
"d	c #F8F8F8",
"e	c #CFCFCF",
"f	c #868686",
"                        ",
"                        ",
"  ....................  ",
"  ....................  ",
"  .+................@.  ",
"  .+..            ....  ",
"  .+..            ....  ",
"  .+..            ....  ",
"  .+..            ....  ",
"  ....            ....  ",
"  ....            ....  ",
"  ....            ....  ",
"  .#$%             &*.  ",
"  .=-%            ;>,.  ",
"  ..');!        ~{]^..  ",
"  ../(_{        :<[}..  ",
"  ....|12      34[....  ",
"  ......56%  789......  ",
"  .......0a;;bc.......  ",
"  .......def=[+.......  ",
"  ....................  ",
"  ....................  ",
"                        ",
"                        "};
