/* XPM */
static char * faceProfile_xpm[] = {
"32 32 990 2",
"  	c None",
". 	c #FFFFFE",
"+ 	c #FFFFFF",
"@ 	c #F6F1EF",
"# 	c #BA8772",
"$ 	c #A25535",
"% 	c #AD6240",
"& 	c #B96C4D",
"* 	c #B36443",
"= 	c #BD643F",
"- 	c #CC6E48",
"; 	c #CA734C",
"> 	c #D37857",
", 	c #D97E60",
"' 	c #E08464",
") 	c #D37957",
"! 	c #BE6A51",
"~ 	c #C1674E",
"{ 	c #B96547",
"] 	c #A85A3C",
"^ 	c #985135",
"/ 	c #99583E",
"( 	c #A38C78",
"_ 	c #B3A78F",
": 	c #BCB196",
"< 	c #C1B69A",
"[ 	c #BFB298",
"} 	c #AEA18B",
"| 	c #A0917C",
"1 	c #8C7A69",
"2 	c #A59385",
"3 	c #F8F6F5",
"4 	c #FFFEFF",
"5 	c #FEFDFD",
"6 	c #D5BBB0",
"7 	c #9A5639",
"8 	c #985031",
"9 	c #A25737",
"0 	c #B15D3B",
"a 	c #B4603E",
"b 	c #BD6843",
"c 	c #CF7452",
"d 	c #D77D55",
"e 	c #D47952",
"f 	c #C76F4D",
"g 	c #BF6A4B",
"h 	c #B05C3E",
"i 	c #AA5739",
"j 	c #AB5D41",
"k 	c #AB5C40",
"l 	c #A85338",
"m 	c #A5583D",
"n 	c #A3563A",
"o 	c #9D664B",
"p 	c #A49986",
"q 	c #ADA08D",
"r 	c #B2A58F",
"s 	c #B3A793",
"t 	c #A99D87",
"u 	c #9E917B",
"v 	c #907F6C",
"w 	c #927D6C",
"x 	c #DED7D1",
"y 	c #FEFFFF",
"z 	c #F6F2F0",
"A 	c #B58C7A",
"B 	c #914B2C",
"C 	c #954B2F",
"D 	c #9B5032",
"E 	c #AD5C37",
"F 	c #B5613E",
"G 	c #CA6E4B",
"H 	c #DB805D",
"I 	c #D88060",
"J 	c #C56E4E",
"K 	c #B26041",
"L 	c #AB5B3C",
"M 	c #AC5D3D",
"N 	c #AE5C3A",
"O 	c #AA603E",
"P 	c #A95F40",
"Q 	c #A8593C",
"R 	c #B46D53",
"S 	c #B56C50",
"T 	c #9D6951",
"U 	c #A59689",
"V 	c #AE9C8F",
"W 	c #B09D90",
"X 	c #B6A494",
"Y 	c #AA9A88",
"Z 	c #9E8F7C",
"` 	c #938370",
" .	c #8B7766",
"..	c #C0B4A9",
"+.	c #EBE0DC",
"@.	c #A06854",
"#.	c #8E492B",
"$.	c #914A2E",
"%.	c #974D30",
"&.	c #A85A38",
"*.	c #B3603E",
"=.	c #D57D5B",
"-.	c #D88062",
";.	c #BF684D",
">.	c #A7583E",
",.	c #A05339",
"'.	c #A3543A",
").	c #A9583B",
"!.	c #AC5A3C",
"~.	c #A1563C",
"{.	c #9B5B46",
"].	c #A15840",
"^.	c #BE8A74",
"/.	c #C08C72",
"(.	c #9E7564",
"_.	c #A6948A",
":.	c #B49A93",
"<.	c #B59A95",
"[.	c #B89E99",
"}.	c #B29C93",
"|.	c #A89786",
"1.	c #988975",
"2.	c #8D7B68",
"3.	c #AC9C8D",
"4.	c #FEFEFD",
"5.	c #D6BEB6",
"6.	c #8C4B31",
"7.	c #8D4929",
"8.	c #8E492C",
"9.	c #A25235",
"0.	c #B55F41",
"a.	c #C56F50",
"b.	c #AF593E",
"c.	c #A24D38",
"d.	c #9F4C39",
"e.	c #9C4D3D",
"f.	c #9A4D3F",
"g.	c #9B4D3F",
"h.	c #A34F39",
"i.	c #A7553C",
"j.	c #9A6D60",
"k.	c #A58779",
"l.	c #C1A692",
"m.	c #D5A98A",
"n.	c #A47D67",
"o.	c #B59B90",
"p.	c #D0A9A6",
"q.	c #C39CA0",
"r.	c #AC8B93",
"s.	c #A2868D",
"t.	c #AB968E",
"u.	c #A39484",
"v.	c #8F7E69",
"w.	c #A69483",
"x.	c #FCF9F9",
"y.	c #B68D7E",
"z.	c #854427",
"A.	c #8B4D2E",
"B.	c #8C472A",
"C.	c #954A2D",
"D.	c #9F4F33",
"E.	c #B55E40",
"F.	c #B45D40",
"G.	c #C57A63",
"H.	c #D0A08E",
"I.	c #B49B8C",
"J.	c #A28678",
"K.	c #9B6C5F",
"L.	c #8E4D42",
"M.	c #8D4337",
"N.	c #A04B36",
"O.	c #A55A42",
"P.	c #B09C88",
"Q.	c #D6C7AC",
"R.	c #EBCAAE",
"S.	c #BB9D86",
"T.	c #C8A396",
"U.	c #DFB0AE",
"V.	c #CCA2A7",
"W.	c #AA8991",
"X.	c #937482",
"Y.	c #927681",
"Z.	c #A68E8F",
"`.	c #9D8A7A",
" +	c #A69382",
".+	c #F8F4F4",
"++	c #98644E",
"@+	c #8A5637",
"#+	c #95694B",
"$+	c #8D4F31",
"%+	c #93492D",
"&+	c #A05036",
"*+	c #B45C3E",
"=+	c #CF8972",
"-+	c #F3DDD5",
";+	c #D1DCD8",
">+	c #859D91",
",+	c #616A61",
"'+	c #858C87",
")+	c #98766C",
"!+	c #914631",
"~+	c #A14D34",
"{+	c #B1583B",
"]+	c #C49B80",
"^+	c #EBDCBD",
"/+	c #EDCFAF",
"(+	c #CCB098",
"_+	c #CDA69C",
":+	c #DBAFAE",
"<+	c #C59EA2",
"[+	c #AC8C96",
"}+	c #A28C95",
"|+	c #9E8893",
"1+	c #977F8A",
"2+	c #A38C89",
"3+	c #B4A093",
"4+	c #E5D6CF",
"5+	c #8B5840",
"6+	c #957459",
"7+	c #A1856C",
"8+	c #986D51",
"9+	c #98563B",
"0+	c #A45337",
"a+	c #BF6647",
"b+	c #DEBFB4",
"c+	c #FCFEFE",
"d+	c #CBD4CE",
"e+	c #768C84",
"f+	c #6F7B73",
"g+	c #6F7C78",
"h+	c #9E9696",
"i+	c #A1634F",
"j+	c #AB593A",
"k+	c #AF5839",
"l+	c #CA9575",
"m+	c #EBD3B0",
"n+	c #EBCCA8",
"o+	c #C7B296",
"p+	c #BE9E94",
"q+	c #D2AAA9",
"r+	c #BB9EA1",
"s+	c #D3C7CC",
"t+	c #DFDEDE",
"u+	c #B8C0BC",
"v+	c #A3A9A5",
"w+	c #A79798",
"x+	c #C3B0A5",
"y+	c #FBF6F4",
"z+	c #AA7B69",
"A+	c #875B43",
"B+	c #9A7F68",
"C+	c #A9947D",
"D+	c #B29175",
"E+	c #A76A45",
"F+	c #B36341",
"G+	c #D07857",
"H+	c #BE7B64",
"I+	c #E1BFBB",
"J+	c #ECE0E6",
"K+	c #B4B2BB",
"L+	c #989BA0",
"M+	c #ACA5AF",
"N+	c #C0AFB9",
"O+	c #AA847D",
"P+	c #AB593C",
"Q+	c #B46141",
"R+	c #CB9676",
"S+	c #D2AC8A",
"T+	c #E6C2A5",
"U+	c #DEBCA1",
"V+	c #927D75",
"W+	c #B59998",
"X+	c #BCB4B4",
"Y+	c #F2F1F2",
"Z+	c #C2CFCA",
"`+	c #6A7D70",
" @	c #555B4D",
".@	c #7F8983",
"+@	c #B8A8A1",
"@@	c #ECDCD7",
"#@	c #90573E",
"$@	c #8A6349",
"%@	c #9A715A",
"&@	c #AE947C",
"*@	c #BEA587",
"=@	c #AC6E51",
"-@	c #B86140",
";@	c #D37956",
">@	c #C56A47",
",@	c #C26A4D",
"'@	c #CB836F",
")@	c #CB928A",
"!@	c #BD877F",
"~@	c #BE897F",
"{@	c #C88A7A",
"]@	c #C07256",
"^@	c #BD623F",
"/@	c #B66744",
"(@	c #AD7154",
"_@	c #BD9D81",
":@	c #E5D1B2",
"<@	c #F7E6C3",
"[@	c #A39183",
"}@	c #8A7A75",
"|@	c #AFA9AC",
"1@	c #E8E4EB",
"2@	c #D4D7D9",
"3@	c #889893",
"4@	c #77857F",
"5@	c #747C79",
"6@	c #AB9B9A",
"7@	c #D5B8AF",
"8@	c #895137",
"9@	c #8E6C53",
"0@	c #95634E",
"a@	c #AC8E77",
"b@	c #C0A38B",
"c@	c #A86346",
"d@	c #B45D3C",
"e@	c #CB7450",
"f@	c #D77C58",
"g@	c #D17450",
"h@	c #C46945",
"i@	c #BB6140",
"j@	c #B9613C",
"k@	c #BA603E",
"l@	c #BF623F",
"m@	c #C86945",
"n@	c #C67A5A",
"o@	c #AB5E3D",
"p@	c #A3755F",
"q@	c #CCC3A6",
"r@	c #EBE2BF",
"s@	c #FBF6D2",
"t@	c #BEB19C",
"u@	c #7E6D64",
"v@	c #A4978E",
"w@	c #D0C7D0",
"x@	c #EADFF2",
"y@	c #CBC7D5",
"z@	c #ABABB6",
"A@	c #B7ABB7",
"B@	c #BFADB0",
"C@	c #C39C8F",
"D@	c #884E34",
"E@	c #90644D",
"F@	c #915E4B",
"G@	c #A78E75",
"H@	c #B49481",
"I@	c #A35B3E",
"J@	c #AC593A",
"K@	c #C26C4D",
"L@	c #DC8966",
"M@	c #DC8764",
"N@	c #CA7454",
"O@	c #BC6846",
"P@	c #B96745",
"Q@	c #BB6744",
"R@	c #BF6D4B",
"S@	c #DBA689",
"T@	c #C58361",
"U@	c #9F5B3F",
"V@	c #BEAD93",
"W@	c #E0D5B3",
"X@	c #EDE3C4",
"Y@	c #FCF9DE",
"Z@	c #B6AD97",
"`@	c #75655C",
" #	c #958373",
".#	c #A3968B",
"+#	c #C4B8BF",
"@#	c #CFC0D9",
"##	c #C5B5CE",
"$#	c #DCC6DC",
"%#	c #DCC3CD",
"&#	c #B5897A",
"*#	c #855136",
"=#	c #8E593D",
"-#	c #9C705B",
";#	c #B09586",
">#	c #B09682",
",#	c #A8674C",
"'#	c #A95737",
")#	c #C56C4B",
"!#	c #E78F6D",
"~#	c #EE9676",
"{#	c #DF8C68",
"]#	c #CA7855",
"^#	c #C3704F",
"/#	c #C4704E",
"(#	c #C47755",
"_#	c #D7A17F",
":#	c #B35F3B",
"<#	c #A4755E",
"[#	c #C0B89E",
"}#	c #D2C7A8",
"|#	c #DACCB6",
"1#	c #E4D3C3",
"2#	c #B29E95",
"3#	c #7C6966",
"4#	c #8A7A6B",
"5#	c #90806F",
"6#	c #9F8D7B",
"7#	c #A8998E",
"8#	c #BFACB2",
"9#	c #E1C6D9",
"0#	c #C2AAA9",
"a#	c #AA7C6C",
"b#	c #885338",
"c#	c #8D5A3F",
"d#	c #A6836F",
"e#	c #AC9584",
"f#	c #BAAC94",
"g#	c #BD9B81",
"h#	c #B47657",
"i#	c #C67F60",
"j#	c #DC8F6D",
"k#	c #DB835E",
"l#	c #D08561",
"m#	c #DA9170",
"n#	c #E18967",
"o#	c #DE825B",
"p#	c #CA6F49",
"q#	c #BF6542",
"r#	c #A66B4E",
"s#	c #B3A18C",
"t#	c #B7AA99",
"u#	c #AE9D93",
"v#	c #AE9698",
"w#	c #AA8E8A",
"x#	c #88756E",
"y#	c #847363",
"z#	c #8F7C6D",
"A#	c #A99084",
"B#	c #AF9C8F",
"C#	c #AD9D8B",
"D#	c #AB968C",
"E#	c #A58D82",
"F#	c #A17261",
"G#	c #89563B",
"H#	c #91634B",
"I#	c #A58672",
"J#	c #AD9883",
"K#	c #C0AE94",
"L#	c #D2BA9F",
"M#	c #DEC8AF",
"N#	c #DDC5AF",
"O#	c #E1BEA0",
"P#	c #CF815A",
"Q#	c #C5754C",
"R#	c #E0A581",
"S#	c #E0916F",
"T#	c #E28963",
"U#	c #C96F49",
"V#	c #D07655",
"W#	c #94553C",
"X#	c #A58A80",
"Y#	c #AEA38E",
"Z#	c #A9A08E",
"`#	c #9F8888",
" $	c #A78B83",
".$	c #917D74",
"+$	c #867364",
"@$	c #887566",
"#$	c #958573",
"$$	c #AD9E8E",
"%$	c #A99886",
"&$	c #978477",
"*$	c #A38E85",
"=$	c #A37969",
"-$	c #834D32",
";$	c #997059",
">$	c #9E8472",
",$	c #A9947E",
"'$	c #AB7151",
")$	c #BD7954",
"!$	c #CFAE96",
"~$	c #CCBAA7",
"{$	c #E0C9B9",
"]$	c #D2A791",
"^$	c #CD7C55",
"/$	c #D18A64",
"($	c #D79777",
"_$	c #C87958",
":$	c #C66F4C",
"<$	c #DB8762",
"[$	c #B97454",
"}$	c #98634E",
"|$	c #A99088",
"1$	c #BAA695",
"2$	c #B58F7F",
"3$	c #A47A6D",
"4$	c #918275",
"5$	c #897D6F",
"6$	c #8A7D6B",
"7$	c #8D7968",
"8$	c #897A68",
"9$	c #928576",
"0$	c #9F8F80",
"a$	c #9D8B7A",
"b$	c #9F8D7C",
"c$	c #A88070",
"d$	c #814B32",
"e$	c #A07F6A",
"f$	c #AA9983",
"g$	c #A38168",
"h$	c #93512F",
"i$	c #9F512E",
"j$	c #A96542",
"k$	c #9A715D",
"l$	c #A18886",
"m$	c #BEA7A2",
"n$	c #C68C72",
"o$	c #D17550",
"p$	c #CD8360",
"q$	c #C39879",
"r$	c #C98365",
"s$	c #E99C7A",
"t$	c #D19C7A",
"u$	c #C0A085",
"v$	c #C9B29A",
"w$	c #C6AF96",
"x$	c #BA7456",
"y$	c #AA7358",
"z$	c #8E8572",
"A$	c #897D6D",
"B$	c #938776",
"C$	c #907E6D",
"D$	c #8A7868",
"E$	c #8D7E6F",
"F$	c #998879",
"G$	c #A08E80",
"H$	c #9F8E7D",
"I$	c #BEA195",
"J$	c #854D3A",
"K$	c #A28673",
"L$	c #B4A18B",
"M$	c #AC9174",
"N$	c #9F7150",
"O$	c #A06344",
"P$	c #9D5134",
"Q$	c #B06140",
"R$	c #B17661",
"S$	c #A78788",
"T$	c #AC7E73",
"U$	c #C4714A",
"V$	c #DFA078",
"W$	c #C6AF8E",
"X$	c #D4B392",
"Y$	c #F6CBAD",
"Z$	c #E3B18D",
"`$	c #DFB692",
" %	c #E1B696",
".%	c #D8A786",
"+%	c #C67854",
"@%	c #BC8565",
"#%	c #A09782",
"$%	c #938675",
"%%	c #968A78",
"&%	c #8F816E",
"*%	c #8A7867",
"=%	c #8C7B6D",
"-%	c #9B8979",
";%	c #A89186",
">%	c #AB958A",
",%	c #EFE9E6",
"'%	c #8F5E50",
")%	c #8A6051",
"!%	c #AC9A85",
"~%	c #B4A07F",
"{%	c #C0A580",
"]%	c #BA8E73",
"^%	c #855B4B",
"/%	c #8D4D34",
"(%	c #B2613F",
"_%	c #C07C63",
":%	c #B4765E",
"<%	c #BA724F",
"[%	c #ECC49F",
"}%	c #E9CAA0",
"|%	c #DFAC87",
"1%	c #EAA483",
"2%	c #EA9B77",
"3%	c #E18764",
"4%	c #D37951",
"5%	c #C76C49",
"6%	c #C06441",
"7%	c #CC8D6F",
"8%	c #B5A99C",
"9%	c #9D8C7D",
"0%	c #958676",
"a%	c #8C7E6D",
"b%	c #8C7968",
"c%	c #9C8578",
"d%	c #BF9D94",
"e%	c #CFAAA4",
"f%	c #DDC9C7",
"g%	c #FEFEFF",
"h%	c #B0968E",
"i%	c #80635A",
"j%	c #A3937D",
"k%	c #B39B7C",
"l%	c #C29D77",
"m%	c #A67158",
"n%	c #675852",
"o%	c #7D6863",
"p%	c #9C5B47",
"q%	c #B36C4B",
"r%	c #DFA57F",
"s%	c #E7B68E",
"t%	c #E4A687",
"u%	c #E08E6A",
"v%	c #E28866",
"w%	c #E48E69",
"x%	c #E68C6A",
"y%	c #E58866",
"z%	c #DB835D",
"A%	c #C36C48",
"B%	c #AF5735",
"C%	c #C07F62",
"D%	c #C7BFB2",
"E%	c #B7A59E",
"F%	c #B5A199",
"G%	c #AC9B91",
"H%	c #9C8374",
"I%	c #BD9B8E",
"J%	c #B8958C",
"K%	c #C8B3AA",
"L%	c #D0C7C2",
"M%	c #88746A",
"N%	c #A29179",
"O%	c #B6A080",
"P%	c #B4845E",
"Q%	c #9B5A42",
"R%	c #634D42",
"S%	c #887874",
"T%	c #AC8589",
"U%	c #B48472",
"V%	c #D1A786",
"W%	c #D39871",
"X%	c #CD7551",
"Y%	c #D57E5D",
"Z%	c #DC8967",
"`%	c #D1815C",
" &	c #CA7753",
".&	c #BF6D4D",
"+&	c #B76549",
"@&	c #AF5D44",
"#&	c #A3513A",
"$&	c #AD6E59",
"%&	c #BFB9AD",
"&&	c #B9B1A3",
"*&	c #B9AEA0",
"=&	c #B8B1A5",
"-&	c #A28C7E",
";&	c #BB9A8F",
">&	c #8C7668",
",&	c #CFC6C0",
"'&	c #F8F8F7",
")&	c #FFFEFD",
"!&	c #F4F2F1",
"~&	c #9E8F83",
"{&	c #A18E73",
"]&	c #B6A07C",
"^&	c #B98662",
"/&	c #A25A3D",
"(&	c #794C37",
"_&	c #927263",
":&	c #B18983",
"<&	c #BD9783",
"[&	c #D1AD8E",
"}&	c #CA8360",
"|&	c #CA7857",
"1&	c #C97657",
"2&	c #C06C4C",
"3&	c #A7573C",
"4&	c #A55E4A",
"5&	c #A56E5E",
"6&	c #B08478",
"7&	c #AF857E",
"8&	c #A97F7D",
"9&	c #B08F8C",
"0&	c #BBAFA9",
"a&	c #B3A79E",
"b&	c #B2A69A",
"c&	c #B7ACA4",
"d&	c #9F8C82",
"e&	c #B0928E",
"f&	c #7F6A61",
"g&	c #D1CCC9",
"h&	c #CFC9C5",
"i&	c #FEFEFE",
"j&	c #FBFCFA",
"k&	c #C8BEB4",
"l&	c #9F876C",
"m&	c #AD9271",
"n&	c #B68867",
"o&	c #B26B4E",
"p&	c #A3684E",
"q&	c #9C583B",
"r&	c #A66144",
"s&	c #BA886E",
"t&	c #CBA282",
"u&	c #E1AF85",
"v&	c #D39170",
"w&	c #B05D41",
"x&	c #A45B46",
"y&	c #B98D81",
"z&	c #BF998D",
"A&	c #CEA18A",
"B&	c #CC967C",
"C&	c #BE8B72",
"D&	c #B58872",
"E&	c #B49C94",
"F&	c #AFA19A",
"G&	c #AEA098",
"H&	c #AB9E99",
"I&	c #B5A3A5",
"J&	c #A6908A",
"K&	c #A78C89",
"L&	c #776660",
"M&	c #A08F8B",
"N&	c #B9A5A4",
"O&	c #ECE2E0",
"P&	c #F8F6F3",
"Q&	c #D6CEC6",
"R&	c #916A4F",
"S&	c #986747",
"T&	c #AA6749",
"U&	c #B66A4C",
"V&	c #9A5F47",
"W&	c #924B35",
"X&	c #8E5845",
"Y&	c #92624B",
"Z&	c #A7684D",
"`&	c #C87D5F",
" *	c #BF6A4A",
".*	c #B4654C",
"+*	c #B27F6A",
"@*	c #C7886A",
"#*	c #C97754",
"$*	c #C7704D",
"%*	c #B9623F",
"&*	c #AD5836",
"**	c #A75232",
"=*	c #B7866F",
"-*	c #ABA498",
";*	c #AEA399",
">*	c #A79B92",
",*	c #A29391",
"'*	c #A99291",
")*	c #908073",
"!*	c #685D52",
"~*	c #B5A5A0",
"{*	c #F4EDEF",
"]*	c #B8998E",
"^*	c #B99A8E",
"/*	c #D6C9C2",
"(*	c #8D5D44",
"_*	c #8B492E",
":*	c #A45838",
"<*	c #BB6C4B",
"[*	c #92513A",
"}*	c #844B39",
"|*	c #93796B",
"1*	c #82513E",
"2*	c #914830",
"3*	c #B66141",
"4*	c #D87D59",
"5*	c #D8805E",
"6*	c #CC7755",
"7*	c #BC6345",
"8*	c #BA6446",
"9*	c #B45F41",
"0*	c #AD593D",
"a*	c #AA573D",
"b*	c #A9573B",
"c*	c #C0937A",
"d*	c #B3A999",
"e*	c #AFA193",
"f*	c #AC9F94",
"g*	c #A49891",
"h*	c #9F8C88",
"i*	c #84756D",
"j*	c #675D51",
"k*	c #D5CCC6",
"l*	c #D4C2BC",
"m*	c #834936",
"n*	c #A58576",
"o*	c #92654E",
"p*	c #8D452A",
"q*	c #A25338",
"r*	c #BC6C4D",
"s*	c #914F35",
"t*	c #7B422E",
"u*	c #8B6B5D",
"v*	c #7A4331",
"w*	c #8F442C",
"x*	c #AF5B3A",
"y*	c #BE6D4D",
"z*	c #BB7053",
"A*	c #CA795B",
"B*	c #C77459",
"C*	c #C16F51",
"D*	c #B96347",
"E*	c #B0593E",
"F*	c #B0583B",
"G*	c #AC593B",
"H*	c #C19881",
"I*	c #B8AB98",
"J*	c #AD9D8C",
"K*	c #A39384",
"L*	c #A09183",
"M*	c #9C8A82",
"N*	c #74655F",
"O*	c #73665A",
"P*	c #E9E3E0",
"Q*	c #BFA096",
"R*	c #88563E",
"S*	c #9B6C54",
"T*	c #8C472D",
"U*	c #9E4F31",
"V*	c #B56341",
"W*	c #9C543B",
"X*	c #83422A",
"Y*	c #977863",
"Z*	c #844E38",
"`*	c #8E4329",
" =	c #A55235",
".=	c #B3795E",
"+=	c #B5987C",
"@=	c #E1A984",
"#=	c #F8C5A5",
"$=	c #F2B995",
"%=	c #CE926D",
"&=	c #B47A62",
"*=	c #C19787",
"==	c #B78C7B",
"-=	c #C0A596",
";=	c #B7A599",
">=	c #B09D91",
",=	c #A59384",
"'=	c #917E6E",
")=	c #8E7B6D",
"!=	c #76685E",
"~=	c #7E7265",
"{=	c #EEEBE7",
"]=	c #F1EAE9",
"^=	c #A37660",
"/=	c #AD7457",
"(=	c #8E4E3A",
"_=	c #94462C",
":=	c #A45035",
"<=	c #A3573C",
"[=	c #89482E",
"}=	c #B9A188",
"|=	c #C9A98D",
"1=	c #96543A",
"2=	c #9E4D32",
"3=	c #B66E50",
"4=	c #B68465",
"5=	c #C58562",
"6=	c #EDAA88",
"7=	c #F5B08C",
"8=	c #C67F5A",
"9=	c #A9674C",
"0=	c #D3BCAB",
"a=	c #D2C2B2",
"b=	c #C3B1A2",
"c=	c #B19D93",
"d=	c #B19E94",
"e=	c #AA968A",
"f=	c #93806F",
"g=	c #937C6B",
"h=	c #837262",
"i=	c #8E8172",
"j=	c #F4F2EE",
"k=	c #FCFBFB",
"l=	c #C5A496",
"m=	c #B06D50",
"n=	c #8D5340",
"o=	c #843D29",
"p=	c #95432E",
"q=	c #9F4F3A",
"r=	c #944C36",
"s=	c #B09983",
"t=	c #E1D2B4",
"u=	c #AB7559",
"v=	c #974A2F",
"w=	c #AE5D3F",
"x=	c #AE6344",
"y=	c #B16444",
"z=	c #DC8A69",
"A=	c #E59774",
"B=	c #B36340",
"C=	c #A05436",
"D=	c #BF9C84",
"E=	c #D7C7B1",
"F=	c #BFAF9C",
"G=	c #AE9C8E",
"H=	c #B1A093",
"I=	c #9B8677",
"J=	c #A08473",
"K=	c #927B6A",
"L=	c #988777",
"M=	c #F5F2EE",
"N=	c #FEFEFC",
"O=	c #D8C4BB",
"P=	c #B2694A",
"Q=	c #914C34",
"R=	c #7B3B27",
"S=	c #803A2B",
"T=	c #974A3D",
"U=	c #984E3F",
"V=	c #AC9A82",
"W=	c #D3C6AB",
"X=	c #B78B71",
"Y=	c #8C452C",
"Z=	c #A55336",
"`=	c #AA593B",
" -	c #A85638",
".-	c #CE7657",
"+-	c #D17E5C",
"@-	c #AE5B3B",
"#-	c #A15337",
"$-	c #A9745A",
"%-	c #D0BFA5",
"&-	c #B5AC94",
"*-	c #A69784",
"=-	c #AD9C8C",
"--	c #AB988A",
";-	c #A38C7E",
">-	c #A48877",
",-	c #967E6B",
"'-	c #9A8574",
")-	c #EBE2DD",
"!-	c #BE8265",
"~-	c #A8593A",
"{-	c #804630",
"]-	c #7C4E3D",
"^-	c #834131",
"/-	c #A77564",
"(-	c #B8AD97",
"_-	c #C2B7A0",
":-	c #C6AE91",
"<-	c #8D4C35",
"[-	c #94472F",
"}-	c #A45237",
"|-	c #A55337",
"1-	c #B86346",
"2-	c #B86544",
"3-	c #AB5C3B",
"4-	c #A45A3F",
"5-	c #9F654C",
"6-	c #C2AA8F",
"7-	c #BEB29A",
"8-	c #A69B85",
"9-	c #A59681",
"0-	c #A39483",
"a-	c #9E897A",
"b-	c #A18776",
"c-	c #967E6A",
"d-	c #9E8675",
"e-	c #F6F3F0",
"f-	c #C09583",
"g-	c #C16F4A",
"h-	c #905139",
"i-	c #917763",
"j-	c #957562",
"k-	c #BCAE98",
"l-	c #CFC3A7",
"m-	c #B38D73",
"n-	c #975743",
"o-	c #9C503C",
"p-	c #A2583F",
"q-	c #A86147",
"r-	c #A55135",
"s-	c #A65437",
"t-	c #A55D46",
"u-	c #A26B56",
"v-	c #B8987F",
"w-	c #CEBEA5",
"x-	c #C5BA9F",
"y-	c #B8A991",
"z-	c #A39580",
"A-	c #968272",
"B-	c #947D6D",
"C-	c #937B67",
"D-	c #9F8775",
"E-	c #F5F3F0",
". + + @ # $ % & * = - ; > , ' ) ! ~ { ] ^ / ( _ : < [ } | 1 2 3 ",
"4 + 5 6 7 8 9 0 a b c d e f g h i j k l m n o p q r s t u v w x ",
"4 y z A B C D E F G H I J K L M N O P Q R S T U V W X Y Z `  ...",
"+ y +.@.#.$.%.&.*.=.-.;.>.,.'.).!.~.{.].^./.(._.:.<.[.}.|.1.2.3.",
". 4.5.6.7.8.C 9.0.a.b.c.d.e.f.g.h.i.j.k.l.m.n.o.p.q.r.s.t.u.v.w.",
"+ x.y.z.A.B.C.D.E.F.G.H.I.J.K.L.M.N.O.P.Q.R.S.T.U.V.W.X.Y.Z.`. +",
"4 .+++@+#+$+%+&+*+=+-+;+>+,+'+)+!+~+{+]+^+/+(+_+:+<+[+}+|+1+2+3+",
"4 4+5+6+7+8+9+0+a+b+c+d+e+f+g+h+i+j+k+l+m+n+o+p+q+r+s+t+u+v+w+x+",
"y+z+A+B+C+D+E+F+G+H+I+J+K+L+M+N+O+P+Q+R+S+T+U+V+W+X+Y+Z+`+ @.@+@",
"@@#@$@%@&@*@=@-@;@>@,@'@)@!@~@{@]@^@/@(@_@:@<@[@}@|@1@2@3@4@5@6@",
"7@8@9@0@a@b@c@d@e@f@g@h@i@j@k@l@m@n@o@p@q@r@s@t@u@v@w@x@y@z@A@B@",
"C@D@E@F@G@H@I@J@K@L@M@N@O@P@Q@R@S@T@U@V@W@X@Y@Z@`@ #.#+#@###$#%#",
"&#*#=#-#;#>#,#'#)#!#~#{#]#^#/#(#_#:#<#[#}#|#1#2#3#4#5#6#7#8#9#0#",
"a#b#c#d#e#f#g#h#i#j#k#l#m#n#o#p#q#*.r#s#t#u#v#w#x#y#z#A#B#C#D#E#",
"F#G#H#I#J#K#L#M#N#O#P#Q#R#S#T#U#V#* W#X#Y#Z#`# $.$+$@$#$$$%$&$*$",
"=$-$;$>$,$'$)$!$~${$]$^$/$($_$:$<$[$}$|$1$2$3$4$5$6$7$8$9$0$a$b$",
"c$d$e$f$g$h$i$j$k$l$m$n$o$p$q$r$s$t$u$v$w$x$y$z$A$B$C$D$E$F$G$H$",
"I$J$K$L$M$N$O$P$Q$R$S$T$U$V$W$X$Y$Z$`$ %.%+%@%#%$%%%&%*%=%-%;%>%",
",%'%)%!%~%{%]%^%/%(%_%:%<%[%}%|%1%2%3%4%5%6%7%8%9%0%a%b%c%d%e%f%",
"g%h%i%j%k%l%m%n%o%p%q%r%s%t%u%v%w%x%y%z%A%B%C%D%E%F%G%H%I%J%K%y ",
"y L%M%N%O%P%Q%R%S%T%U%V%W%X%Y%Z%`% &.&+&@&#&$&%&&&*&=&-&;&>&,&'&",
")&!&~&{&]&^&/&(&_&:&<&[&}&|&1&2&3&4&5&6&7&8&9&0&a&b&c&d&e&f&g&h&",
"i&j&k&l&m&n&o&p&q&r&s&t&u&v&w&x&y&z&A&B&C&D&E&F&G&H&I&J&K&L&M&N&",
"O&P&Q&R&S&T&U&V&W&X&Y&Z&`& *.*+*@*#*$*%*&***=*-*;*>*,*'*)*!*~*{*",
"]*^*/*(*_*:*<*[*}*|*1*2*3*4*5*6*7*8*9*0*a*b*c*d*e*f*g*h*i*j*k*4 ",
"l*m*n*o*p*q*r*s*t*u*v*w*x*y*z*A*B*C*D*E*F*G*H*I*J*K*L*M*N*O*P*+ ",
"4.Q*R*S*T*U*V*W*X*Y*Z*`* =.=+=@=#=$=%=&=*===-=;=>=,='=)=!=~={=+ ",
"y ]=^=/=(=_=:=<=[=}=|=1=2=3=4=5=6=7=8=9=0=a=b=c=d=e=f=g=h=i=j=+ ",
"4 k=l=m=n=o=p=q=r=s=t=u=v=w=x=y=z=A=B=C=D=E=F=G=H=e=I=J=K=L=M=+ ",
"g%N=O=P=Q=R=S=T=U=V=W=X=Y=Z=`= -.-+-@-#-$-%-&-*-=---;->-,-'-@ + ",
"y . )-!-~-{-]-^-/-(-_-:-<-[-}-|-1-2-3-4-5-6-7-8-9-0-a-b-c-d-z + ",
"+ + e-f-g-h-i-j-s#k-k-l-m-n-o-p-q-r-s-t-u-v-w-x-y-z-A-B-C-D-E-. "};
