/* XPM */
static char *fcheck[] = {
/* columns rows colors chars-per-pixel */
"32 32 193 2",
"   c #161616",
".  c gray9",
"X  c #181818",
"o  c #191919",
"O  c gray10",
"+  c #1B1B1B",
"@  c gray11",
"#  c #1D1D1D",
"$  c #1E1E1E",
"%  c gray12",
"&  c #202020",
"*  c gray13",
"=  c #222222",
"-  c #232323",
";  c gray14",
":  c #252525",
">  c gray15",
",  c #272727",
"<  c #282828",
"1  c gray16",
"2  c #2A2A2A",
"3  c gray17",
"4  c #2C2C2C",
"5  c #2D2D2D",
"6  c gray18",
"7  c #2F2F2F",
"8  c gray19",
"9  c #313131",
"0  c #323232",
"q  c gray20",
"w  c #343434",
"e  c #353535",
"r  c gray21",
"t  c #373737",
"y  c gray22",
"u  c #393939",
"i  c #3A3A3A",
"p  c gray23",
"a  c #3C3C3C",
"s  c gray24",
"d  c #3E3E3E",
"f  c gray25",
"g  c gray26",
"h  c #434343",
"j  c #444444",
"k  c gray27",
"l  c #464646",
"z  c gray28",
"x  c #484848",
"c  c #494949",
"v  c gray29",
"b  c #4B4B4B",
"n  c #4C4C4C",
"m  c gray30",
"M  c #4E4E4E",
"N  c gray31",
"B  c #505050",
"V  c #515151",
"C  c gray32",
"Z  c #535353",
"A  c gray33",
"S  c #555555",
"D  c #565656",
"F  c gray34",
"G  c #585858",
"H  c gray35",
"J  c #5A5A5A",
"K  c #5B5B5B",
"L  c gray36",
"P  c #5D5D5D",
"I  c gray37",
"U  c #5F5F5F",
"Y  c #606060",
"T  c gray38",
"R  c #626262",
"E  c gray39",
"W  c #646464",
"Q  c #656565",
"!  c gray40",
"~  c #676767",
"^  c #686868",
"/  c DimGray",
"(  c #6A6A6A",
")  c gray42",
"_  c #6C6C6C",
"`  c #6D6D6D",
"'  c gray43",
"]  c #6F6F6F",
"[  c gray44",
"{  c #717171",
"}  c #727272",
"|  c gray45",
" . c #747474",
".. c gray46",
"X. c #767676",
"o. c #777777",
"O. c gray47",
"+. c #797979",
"@. c gray48",
"#. c #7B7B7B",
"$. c #7C7C7C",
"%. c gray49",
"&. c #7E7E7E",
"*. c #7F7F7F",
"=. c #808080",
"-. c #818181",
";. c gray51",
":. c #838383",
">. c #848484",
",. c gray52",
"<. c #868686",
"1. c gray53",
"2. c #888888",
"3. c #898989",
"4. c gray54",
"5. c #8B8B8B",
"6. c gray55",
"7. c #8D8D8D",
"8. c #8E8E8E",
"9. c gray56",
"0. c #909090",
"q. c gray57",
"w. c #929292",
"e. c #939393",
"r. c gray58",
"t. c #959595",
"y. c gray59",
"u. c #979797",
"i. c #989898",
"p. c #9A9A9A",
"a. c #9B9B9B",
"s. c gray61",
"d. c #9D9D9D",
"f. c gray62",
"g. c #9F9F9F",
"h. c #A0A0A0",
"j. c gray63",
"k. c #A2A2A2",
"l. c gray64",
"z. c #A4A4A4",
"x. c #A5A5A5",
"c. c gray65",
"v. c #A7A7A7",
"b. c gray66",
"n. c #A9A9A9",
"m. c #AAAAAA",
"M. c gray67",
"N. c #ACACAC",
"B. c gray68",
"V. c #AEAEAE",
"C. c #AFAFAF",
"Z. c gray69",
"A. c #B1B1B1",
"S. c #B2B2B2",
"D. c gray70",
"F. c #B4B4B4",
"G. c gray71",
"H. c #B6B6B6",
"J. c #B7B7B7",
"K. c gray72",
"L. c #B9B9B9",
"P. c gray73",
"I. c #BBBBBB",
"U. c #BCBCBC",
"Y. c #C3C3C3",
"T. c #C6C6C6",
"R. c gray78",
"E. c #C8C8C8",
"W. c gray79",
"Q. c #CACACA",
"!. c #CBCBCB",
"~. c gray80",
"^. c #CECECE",
"/. c #D0D0D0",
"(. c gray82",
"). c #D2D2D2",
"_. c LightGray",
"`. c gray84",
"'. c #D8D8D8",
"]. c gray86",
"[. c #DDDDDD",
"{. c #E1E1E1",
"}. c #E4E4E4",
"|. c gray90",
" X c gray91",
".X c #E9E9E9",
"XX c #ECECEC",
"oX c gray93",
"OX c #F1F1F1",
"+X c gray96",
"@X c gray98",
"#X c gray100",
"$X c None",
/* pixels */
"T.].(.T.R.R.E.E.E.W.Q.Q.Q.Q.!.!.!.~.~.~.~.~.~.~.~.~.~.~.~._.[.Y.",
"XXXXXX[.0.w.t.l.{.XXXXXXXX}.P.c.b.m.!. XXXXXXXXX[.Z.Z.Z.H.{.XXXX",
"#X#X#XXX4.7.9.j.OX#X#X#X#X+XU.k.z.x._.@X#X#X#X#XXXZ.Z.Z.K.OX#X#X",
"#X#X#XXX>.<.3.s.OX#X#X#X#X+XL.d.g.j.).@X#X#X#X#XXXV.C.Z.K.OX#X#X",
"#X#X#XXX%.=.:.i.OX#X#X#X#X+XJ.i.p.s.(.@X#X#X#X#XXXm.N.B.H.OX#X#X",
"#X#X#XXXo.@.$.w.OX#X#X#X#X+XF.w.r.u./.@X#X#X#X#XXXc.b.n.F.OX#X#X",
"#X#X#XXX[ | X.8.OX#X#X#X#X+XZ.6.9.0.^.@X#X#X#X#XXXk.z.x.A.OX#X#X",
"+X+X+X}.( ` [ 2..X+X+X+X+XoXM.,.2.5.E.OX+X+X+X+X}.s.f.j.B..X+X+X",
"K.p.s.i.Q ! / X.g.z.x.c.b.v.8.*.;.,.h.C.S.D.F.G.S.u.p.a.j.K.U.W.",
"q.k J L I T E Q ~ ( ` ] {  .X.+.#.&.=.:.,.1.4.7.9.q.e.y.i.p.s.J.",
"7.* A F H K P U R W ! ^ ) ' [ } ..O.@.$.*.;.>.<.3.5.8.0.w.r.u.D.",
"1.  7 V Z D G J K I Y E Q ~ / _ ] { | X.+.#.%.=.:.,.1.4.6.9.q.B.",
":.    w N B C A D H K L U T W Q ^ ) ` [ }  .o.@.$.&.-.>.<.2.5.b.",
"%.      6 b M B V Z S F J K P Y R Q ~ / _ ' [ | X.O.#.%.=.;.,.k.",
"o.        = g b m N B C A D G K L I T E Q ^ ( ` [ {  .o.@.#.&.a.",
"{             , f v n M B V Z S F H K P Y R Q ! / ) ' [ } ..O.t.",
"_                 > a v b m N B C A D G J L I T E Q ~ ( ` ] { 9.",
"! . . . . . . . . . . + < r g m M B V A D G H K I Y E W ~ / _ 2.",
"Y . X X X o o o o O O O O O O O = , 8 y a s d b m N h h j l s ` ",
"L o O O O { T.T.z u s.R.R.-.$ x R.s.$ $ $ # T.T.@ @ + O O O o L ",
"F + + @ # OX#Xd.G OX#XE.OX#Xf.J #XE.- = = = #X#X% % $ # @ + + F ",
"C @ # % d.#X#XE.B.#Xw.> g V.<.P #X`.V.W.N > #X#X9 P.R.c % # @ C ",
"n $ % * f.#X#XW.W.#XU 2 3 3 3 Y #X#X}.#XU.1 #X#XI.#XX.= * % $ n ",
"c & = - : #X#X1 U.#X] 5 p Z.[ E #X!.R #XQ.5 #X#X#X#XL : - = & c ",
"k = ; > , #X#X4 $.#X'.W A.#X!.Q #X!.Q #X!.8 #X#Xk.#XW., > ; = k ",
"f ; > < 1 #X#X6 8 x.#X#X#X|.J ~ #X~.! #X~.0 #X#X6 Z.#X_ < > ; f ",
"s > < 2 4 R E 9 0 q m ^ ^ e e g ^ K g ^ K w ! Q 9 a R A 2 < > s ",
"u < 2 4 6 8 9 q w e r r t t t t t t t t r r e w q 9 8 6 4 2 < u ",
"t 2 4 6 8 0 q e e r t y y y y y y y y y y t r e e q 0 8 6 4 2 y ",
"r 4 6 8 0 w e r t y y u u u u u u u u u u y y t r e w 0 8 6 4 r ",
"r 6 8 0 w e r t y u u i i i i i i i i i i u u y t r e w 0 8 6 e ",
"$Xq w r t y u i p a a a a s s s s s s a a a a p i u y t r w q $X"
};
