/* XPM */
static char *filterZOO[] = {
/* columns rows colors chars-per-pixel */
"32 32 184 2",
"   c #1F0000",
".  c #220000",
"X  c #2D0000",
"o  c #2B0A05",
"O  c #340100",
"+  c #380500",
"@  c #300A06",
"#  c #3B0C00",
"$  c #3E0C09",
"%  c #3D1300",
"&  c #36130A",
"*  c #3B140C",
"=  c #411C00",
"-  c #44150A",
";  c #411C0F",
":  c #491F0A",
">  c #451E11",
",  c #442200",
"<  c #4F2D0B",
"1  c #522C0D",
"2  c #4E2615",
"3  c #502716",
"4  c #522A16",
"5  c #57241B",
"6  c #512818",
"7  c #582A1C",
"8  c #553016",
"9  c #5B311D",
"0  c #64371B",
"q  c #62381D",
"w  c #633320",
"e  c #643B23",
"r  c #673C28",
"t  c #683F29",
"y  c #77461E",
"u  c #6A5115",
"i  c #6E4122",
"p  c #6A422B",
"a  c #6D4B2D",
"s  c #704425",
"d  c #794721",
"f  c #7A4B26",
"g  c #7B4D29",
"h  c #6F522F",
"j  c #734C34",
"k  c #7A4E3A",
"l  c #7D553D",
"z  c #7B5E3C",
"x  c #814B1C",
"c  c #95591F",
"v  c #B16B1B",
"b  c #BC711B",
"n  c #855126",
"m  c #8B5625",
"M  c #8E5B2B",
"N  c #845634",
"B  c #8D5A35",
"V  c #84553C",
"C  c #8B5A3C",
"Z  c #925F34",
"A  c #9A612D",
"S  c #916034",
"D  c #9C693A",
"F  c #A06425",
"G  c #AC6D21",
"H  c #A06528",
"J  c #AD6E2D",
"K  c #B36D20",
"L  c #AE7123",
"P  c #AC702E",
"I  c #B07223",
"U  c #B5752C",
"Y  c #A56D35",
"T  c #AD7232",
"R  c #A6713A",
"E  c #B0773A",
"W  c #C06B06",
"Q  c #C16E0B",
"!  c #C2700F",
"~  c #C47314",
"^  c #C57619",
"/  c #C6791D",
"(  c #C67B22",
")  c #C87E26",
"_  c #C47E2B",
"`  c #C97F28",
"'  c #C17E31",
"]  c #835541",
"[  c #875D45",
"{  c #856746",
"}  c #886047",
"|  c #8C694C",
" . c #936E52",
".. c #937254",
"X. c #A77541",
"o. c #AA7542",
"O. c #AD7C4E",
"+. c #B57F46",
"@. c #A07354",
"#. c #AF7F52",
"$. c #A27659",
"%. c #A3795A",
"&. c #A47D60",
"*. c #C9812B",
"=. c #C28034",
"-. c #CB8532",
";. c #CC8936",
":. c #C4843C",
">. c #CE8B3C",
",. c #BE8546",
"<. c #BF8548",
"1. c #AB805F",
"2. c #B18257",
"3. c #B28258",
"4. c #A18263",
"5. c #AD896A",
"6. c #B48761",
"7. c #B68964",
"8. c #BA916D",
"9. c #AE9373",
"0. c #BA9573",
"q. c #B69878",
"w. c #BD9C7C",
"e. c #BFA07F",
"r. c #C58740",
"t. c #CF8F42",
"y. c #C88D4A",
"u. c #D08F43",
"i. c #CF9044",
"p. c #D09146",
"a. c #D2954C",
"s. c #C18B51",
"d. c #C4925D",
"f. c #CB9658",
"g. c #D39751",
"h. c #D49954",
"j. c #D59D5B",
"k. c #D6A05F",
"l. c #C09469",
"z. c #C2986E",
"x. c #C99C6D",
"c. c #C39D77",
"v. c #D7A161",
"b. c #D8A365",
"n. c #D9A66A",
"m. c #DAA96E",
"M. c #C6A27C",
"N. c #CDA57A",
"B. c #D1A470",
"V. c #DCAC73",
"C. c #D4AA7B",
"Z. c #DDAF79",
"A. c #DEB17C",
"S. c #B0A484",
"D. c #B6AA8C",
"F. c #C1A484",
"G. c #D4AE84",
"H. c #D1AD88",
"J. c #DFB582",
"K. c #D2B08B",
"L. c #DCBD97",
"P. c #D6BA98",
"I. c #DEBE9B",
"U. c #E0B684",
"Y. c #E1B887",
"T. c #E2BB8C",
"R. c #E3BE92",
"E. c #E4C096",
"W. c #E6C49C",
"Q. c #E6C7A1",
"!. c #E8C7A1",
"~. c #E7C8A3",
"^. c #E8C9A5",
"/. c #EACDAA",
"(. c #EBD0AF",
"). c #EDD3B4",
"_. c #EDD6BA",
"`. c #EED9BE",
"'. c #EFDBC3",
"]. c #F0DDC5",
"[. c #F1DFC9",
"{. c #EDE0CF",
"}. c #F2E2CE",
"|. c #EFE2D2",
/* pixels */
"D.{.}.'.].].].].].].].].].].[.[.[.[.[.[.[.[.[.[.[.[.[.[.[.}.|.S.",
"|.J.U.Y.Y.T.T.R.R.E.E.E.W.W.W.!.~.^.^.^./././././././././././.|.",
"`.A.A.A.J.U.Y.T.T.T.R.R.E.E.W.W.W.W.Q.~.^.^.^././././././././.'.",
"_.V.Z.Z.A.J.T.R.R.E.E.R.R.E.W.!.~.!.W.W.Q.^././.(././././././.].",
").m.m.V.Z.z.r r t p p M.R.K.| a a 4.I.W.~.F.{ h z 9./././././.].",
").b.n.n.V.l.e r 9 # % M.H.: % e 8 = e ^.q., , a 1 , ../.^.^./.'.",
"/.k.v.b.n.V.A.T.k # [ T.} %  .E.W.p = 5.e = F.^.Q.< , P.~.~.^.`.",
"Q.j.j.j.v.b.V.] + k U.J.r # 0.U.T. .% ..% = !.R.Q.a = F.W.W.!._.",
"R.g.h.h.j.n.@.O 5 C.V.A.p # 5.J.T.} %  .: % L.R.Q.e = e.W.E.W._.",
"T.;.a.g.j.3.O $ 1.7.6.x.$.+ 7 5.&.- # H.l % j w...% 8 W.R.R.E.).",
"U.~ p.a.h.V O O O O O C Z.V O + + - %.J.G.r # % % 4 M.T.T.T.R./.",
"J.W ( p.a.s.#.2.3.3.2.d.v.n.B.6.7.A.V.m.V.A.N.8.c.T.U.J.U.Y.T./.",
"A.W W ) i.p.a.a.g.h.h.h.h.h.j.v.v.v.v.b.n.n.V.V.Z.V.Z.A.A.J.U.~.",
"V.W W W ( >.t.p.p.p.a.a.a.g.g.h.h.j.j.k.v.b.b.n.m.m.V.V.Z.Z.A.W.",
"m.W W Q ~ *.a.p.t.t.p.g.g.a.a.a.g.h.h.j.j.j.v.v.b.n.n.m.V.V.V.E.",
"n.W W ^ m &   J u.p.g.w B a.a.a.a.a.g.g.h.h.j.j.k.v.b.b.n.n.m.T.",
"v.W Q U   q H ( 1 x a.7 N a.g.B h.a.a.a.a.g.h.h.j.j.j.v.v.b.n.Y.",
"j.W ~ M o >.^ ~ v b ` 2 g >.h.X O.a.p.a.a.g.g.g.h.h.j.j.v.v.v.A.",
"h.~ U q ; R F ( K b *.2 f T R   N Y =.>.,.o.<.g.a.+.a.g.o.y.;.b.",
"g./         o P 2 y ;.2 g & . . . . T i . . . q >.  f o   4 / g.",
"a.~ -.g 2 t.` ;.2 f >.2 g >.a.. X.>.R . D h.s . a.. o D g 2 ( a.",
"p.Q / f 2 *.~ *.2 g >.2 g *.;.. Y -.e 9 X.2 o M t.. S *.G c ^ p.",
"t.! ( f 2 *.~ *.3 g t.6 g *.>.. R >.6 . > M >.-.t.. Y / ^ ^ ~ t.",
">.~ ( f 2 *.^ -.6 g p.6 g *.>.. R >.e 6 f.p.t.M D . Y / ~ ~ ~ >.",
";.~ ) f 3 -./ -.3 f t.3 g -.>.. Y -.E @ @ 6 * o +.. Y / ~ ~ ~ ;.",
"-.~ ( d 0 *./ *.U ' -.A T *.;.n ;.*.-.r.Z g Z :.>.n _ / ^ ^ ~ -.",
"-.^ / *.*.) ( ( ) ` *.*.*.*.*.*.*.` ` *.-.-.*.` ) ` ( / / ^ ^ -.",
"*.^ / / ( ( ( ) ) ` ` ` *.*.*.*.*.*.*.*.` ` ` ) ) ( ( ( / / ^ *.",
"_ / / ( ( ) ) ) ` *.*.*.*.*.*.*.*.*.*.*.*.*.*.` ) ) ) ( ( / / _ ",
"( / ( ( ) ) ` ` *.*.*.*.*.*.*.*.*.*.*.*.*.*.*.*.` ` ) ) ( ( / ( ",
"I ( ( ) ) ` *.*.*.*.*.*.*.*.*.*.*.*.*.*.*.*.*.*.*.*.` ) ) ( ( L ",
"u G ) *.*.*.*.*.*.*.*.*.*.*.*.*.*.*.*.*.*.*.*.*.*.*.*.*.*.) G u "
};
