/* XPM */
static char *filterXYZ[] = {
/* columns rows colors chars-per-pixel */
"32 32 179 2",
"   c #2A0000",
".  c #350000",
"X  c #350B07",
"o  c #3F150E",
"O  c #42160E",
"+  c #4A1F14",
"@  c #4C2015",
"#  c #562A1B",
"$  c #592C1B",
"%  c #602F22",
"&  c #613522",
"*  c #6C3D25",
"=  c #6B3C28",
"-  c #6E402B",
";  c #76492E",
":  c #7F4E2D",
">  c #774A30",
",  c #DD0000",
"<  c #DF0C0A",
"1  c #E20000",
"2  c #E10C0A",
"3  c #E51A16",
"4  c #DF251D",
"5  c #E4332A",
"6  c #E03D31",
"7  c #814F2E",
"8  c #89562F",
"9  c #825335",
"0  c #8B5732",
"q  c #845538",
"w  c #8E603F",
"e  c #9D6635",
"r  c #95643B",
"t  c #9F6A3C",
"y  c #A9723D",
"u  c #B37B3A",
"i  c #BB7E3B",
"p  c #E94238",
"a  c #8A5C43",
"s  c #936345",
"d  c #986741",
"f  c #986944",
"g  c #AA7543",
"h  c #AC7847",
"j  c #A3734A",
"k  c #AD7A4B",
"l  c #B57E46",
"z  c #AE7E52",
"x  c #E65A4A",
"c  c #E2634F",
"v  c #E46F5A",
"b  c #E96858",
"n  c #188600",
"m  c #1B8C00",
"M  c #1E9200",
"N  c #209700",
"B  c #29920B",
"V  c #419621",
"C  c #449C22",
"Z  c #4B9429",
"A  c #4C982A",
"S  c #53A52F",
"D  c #55A930",
"F  c #5EA539",
"G  c #5FA83A",
"H  c #7CB753",
"J  c #BC803E",
"K  c #CA832F",
"L  c #CB8634",
"P  c #CC8837",
"I  c #C6863E",
"U  c #CE8B3C",
"Y  c #BE8345",
"T  c #B5814B",
"R  c #BF874A",
"E  c #B28157",
"W  c #B98857",
"Q  c #BD8C5D",
"!  c #86B55D",
"~  c #B48760",
"^  c #94BB69",
"/  c #B0AE6E",
"(  c #AAB976",
")  c #B2B374",
"_  c #BCB072",
"`  c #B4B97C",
"'  c #C68941",
"]  c #CF8E41",
"[  c #D08F42",
"{  c #CF9044",
"}  c #D09145",
"|  c #D1944B",
" . c #CA9252",
".. c #C5935F",
"X. c #D49954",
"o. c #D59E5B",
"O. c #D6A05F",
"+. c #DF8761",
"@. c #DE8B61",
"#. c #D09D64",
"$. c #DE9D6F",
"%. c #E08B67",
"&. c #E78C75",
"*. c #E88E77",
"=. c #E09F74",
"-. c #E59D7D",
";. c #D7A162",
":. c #D8A466",
">. c #D0A16B",
",. c #D9A66A",
"<. c #DAA96E",
"1. c #DDA675",
"2. c #DBAC73",
"3. c #DDAF79",
"4. c #DEB17C",
"5. c #E2A47D",
"6. c #105B97",
"7. c #125E9C",
"8. c #1362A2",
"9. c #186FB8",
"0. c #236EAC",
"q. c #2470AF",
"w. c #3C78A7",
"e. c #2573B5",
"r. c #2675B8",
"t. c #487BA2",
"y. c #4D88B7",
"u. c #4F8ABC",
"i. c #5D92BE",
"p. c #648CA8",
"a. c #799DB7",
"s. c #7CA1BC",
"d. c #78A1C0",
"f. c #AFA898",
"g. c #B1AB9E",
"h. c #9BABB3",
"j. c #B2AEA2",
"k. c #B5B5AD",
"l. c #B6B7B0",
"z. c #C8B988",
"x. c #D5B682",
"c. c #DFB481",
"v. c #E1AD80",
"b. c #E5AC89",
"n. c #E0B785",
"m. c #E0B887",
"M. c #E3B188",
"N. c #E2BA8B",
"B. c #E3BE92",
"V. c #E8BD9B",
"C. c #CDBCA8",
"Z. c #C7CB96",
"A. c #C7CA98",
"S. c #DCC69C",
"D. c #E4C196",
"F. c #E6C49C",
"G. c #DFCCA6",
"H. c #D1C0AD",
"J. c #DCC5A8",
"K. c #C5C1B6",
"L. c #C6C4BC",
"P. c #D0C4B1",
"I. c #D3C9B9",
"U. c #E7C7A1",
"Y. c #E7C8A3",
"T. c #E8CAA5",
"R. c #EACDAB",
"E. c #ECD2B4",
"W. c #EDD5B9",
"Q. c #EFD9BF",
"!. c #EFDAC1",
"~. c #F0DCC4",
"^. c #F1DEC9",
"/. c #F2E2CE",
"(. c #EFE5D7",
"). c #F4E4D1",
"_. c #F1E6DA",
"`. c #F1E8DC",
"'. c None",
/* pixels */
"H.(.)././././././././.).).).).).).).).).).).).).).).).).)._._.C.",
"_.D.D.F.F.F.U.Y.T.T.T.R.R.R.R.E.E.E.E.E.W.W.W.W.W.W.W.W.W.W.W.`.",
"^.B.B.B.D.D.F.F.F.U.Y.T.T.R.R.R.R.R.E.E.E.E.E.W.W.W.W.W.W.W.W./.",
"~.N.N.N.B.D.F.F.F.F.T.T.R.R.R.R.R.E.E.E.E.W.W.W.Q.W.W.W.W.W.W./.",
"!.n.m.m.N.-.5 x U.V.p p z.S S G.R.^ D H s.u.u.u.u.d.W.E.W.W.W./.",
"!.4.c.c.n.B.5 1 *.b 1 b T.F M G A.M N Z.a.y.y.r.9.i.W.E.E.E.W./.",
"W.3.4.4.c.m.b.1 2 1 3 F.D.S.B M M M ! R.R.E.L.e.e.I.E.R.E.E.E.^.",
"E.2.2.3.4.4.N.x 1 1 &.B.N.D.( m m C T.F.U.P.0.q.K.R.R.R.R.R.E.~.",
"T.<.2.2.2.4.M.2 1 1 5 D.m.N.F.V m ( F.D.J.w.8.h.R.T.T.T.T.R.R.~.",
"F.o.,.<.2.c.6 , c 5 1 v m.c.B.A n ` B.F.t.7.p.l.k.k.Y.U.Y.T.T.Q.",
"F.P :.,.<.+., 4 N.5.< 2 v.4.N.Z n ) N.D.6.6.7.7.8.8.Y.F.F.U.Y.W.",
"B.K } :.,.@.+.1.2.2.=.%.$.3.4._ / x.c.N.f.g.j.j.j.j.F.D.D.F.F.E.",
"B.K K | ;.:.,.,.,.,.<.2.2.2.2.3.4.4.4.c.n.m.N.N.N.N.N.B.B.D.D.E.",
"N.K K K } O.;.;.:.:.:.,.,.<.<.2.2.2.3.3.4.4.c.c.n.n.m.N.N.N.B.R.",
"n.K K L U | ,.:.;.;.:.<.<.,.,.,.<.<.2.2.2.3.4.4.4.c.c.n.m.N.N.T.",
"c.K L U r o   l ;.:.<.= s <.,.<.,.,.<.<.2.2.2.3.3.4.4.c.c.n.n.U.",
"4.K L Y   = g } $ 8 ,.% a ,.,.s 2.:.,.,.,.<.<.2.2.2.3.4.4.4.c.F.",
"3.L U r X o.U U i I | # q o.<.. ~ ,.:.:.,.<.<.<.2.2.2.2.4.4.4.B.",
"2.P R = + k y } J I | # 9 T z   w k  .o...E ..<.,.Q ,.<.E #.X.4.",
"<.U         X l # : X.# 9 o         T ;       * o.  9 X   & ] <.",
":.P X.9 # O.| X.# 9 o.# q o.:.  z o.k   j <.>   :.  X j 9 # } :.",
";.L ] 9 # | L | # 9 o.# 9 } X.  k | - & z # X r O.  f | u e U ;.",
"o.L [ 9 # | P | # 9 o.# 9 } X.  k X.#   @ r X.| o.  h U P U L o.",
"o.L [ 9 # | P | # 9 o.# 9 | X.  k X.- $ >.o.o.r j   k U P L L o.",
"X.L } 9 # | U | # 9 o.# 9 | X.  h | T X X $ O X W   h U P P L X.",
"X.P [ 7 * } U [ Y ' | t l } | 0 | ] }  .d 9 d  .X.0 ' U P P P X.",
"| P U } } U U U U ] ] { { ] ] } ] U U ] } | } ] ] [ U U P P P | ",
"| P P U U U U U U U ] ] ] ] ] ] ] ] ] ] ] ] U U U U U U U P P | ",
"] P U U U U U U U ] ] ] ] ] ] ] ] ] ] ] ] ] ] U U U U U U U P ] ",
"' U U U U U U ] ] ] ] ] ] ] ] ] ] ] ] ] ] ] ] ] ] U U U U U U ' ",
"u U U U U U ] ] ] ] ] ] ] ] ] ] ] ] ] ] ] ] ] ] ] ] U U U U U u ",
"'.u U ] ] { { { { { { { { { { { { { { { { { { { { { { ] ] U u '."
};
