/* XPM */
static char *GBicon[] = {
/* columns rows colors chars-per-pixel */
"32 32 190 2 ",
"   c #000000",
".  c #0D0000",
"X  c #070708",
"o  c #0A0B0B",
"O  c #170304",
"+  c #1B0104",
"@  c #180709",
"#  c #130C0D",
"$  c #1A150F",
"%  c #0F1011",
"&  c #131313",
"*  c #1C1714",
"=  c #1E1917",
"-  c #1C1C1D",
";  c #300C12",
":  c #231211",
">  c #241A16",
",  c #231C1B",
"<  c #351216",
"1  c #3D151B",
"2  c #3A1A1E",
"3  c #25211F",
"4  c #252424",
"5  c #2B2322",
"6  c #262729",
"7  c #2B2B2C",
"8  c #332021",
"9  c #382523",
"0  c #362C27",
"q  c #332B2A",
"w  c #2E2F30",
"e  c #343434",
"r  c #3D3130",
"t  c #3A3B3C",
"y  c #43141C",
"u  c #43181E",
"i  c #441C22",
"p  c #4B1D24",
"a  c #511E26",
"s  c #472026",
"d  c #492328",
"f  c #472F2C",
"g  c #54242B",
"h  c #58282A",
"j  c #4A3A29",
"k  c #412F30",
"l  c #5A2C32",
"z  c #433532",
"x  c #483C3D",
"c  c #513134",
"v  c #5D373D",
"b  c #513D38",
"n  c #653B37",
"m  c #63363D",
"M  c #584128",
"N  c #49403F",
"B  c #534230",
"V  c #50413C",
"C  c #5A4A3A",
"Z  c #624D35",
"A  c #6B553E",
"S  c #463F40",
"D  c #5F3D43",
"F  c #4D4A47",
"G  c #4B4A4B",
"H  c #5D4143",
"J  c #5D4348",
"K  c #544D4A",
"L  c #56514C",
"P  c #4E4E50",
"I  c #545354",
"U  c #5A5555",
"Y  c #5C5855",
"T  c #565658",
"R  c #565959",
"E  c #5A5B5C",
"W  c #78484E",
"Q  c #725B44",
"!  c #70534F",
"~  c #644B50",
"^  c #7B4B50",
"/  c #605C5F",
"(  c #6B5E5C",
")  c #77644D",
"_  c #7C654C",
"`  c #7F6850",
"'  c #5E5E60",
"]  c #615F62",
"[  c #646465",
"{  c #656768",
"}  c #6B6C6D",
"|  c #776466",
" . c #7C666A",
".. c #70686A",
"X. c #7E6C6F",
"o. c #7C7366",
"O. c #7E736D",
"+. c #6F6E70",
"@. c #6F7072",
"#. c #737475",
"$. c #7D7977",
"%. c #76787A",
"&. c #7A7A7C",
"*. c #806950",
"=. c #86615C",
"-. c #8E605F",
";. c #8C6D6E",
":. c #84716F",
">. c #917164",
",. c #827275",
"<. c #8C7379",
"1. c #837C7B",
"2. c #897D7D",
"3. c #8D837C",
"4. c #A68C79",
"5. c #AD967D",
"6. c #7D7E80",
"7. c #7D8080",
"8. c #838486",
"9. c #8A8586",
"0. c #858689",
"q. c #88878C",
"w. c #87898A",
"e. c #8A8B8C",
"r. c #908787",
"t. c #938C8D",
"y. c #998D8B",
"u. c #97928D",
"i. c #8D8E91",
"p. c #8E9094",
"a. c #939394",
"s. c #9A9292",
"d. c #959699",
"f. c #989799",
"g. c #97989B",
"h. c #9B9B9C",
"j. c #A08A8A",
"k. c #AD9483",
"l. c #B99D8D",
"z. c #A39999",
"x. c #B7A18B",
"c. c #9C9EA0",
"v. c #A09FA1",
"b. c #B19DA0",
"n. c #9FA0A2",
"m. c #A2A3A4",
"M. c #A4A5A8",
"N. c #A7A8AB",
"B. c #ABACAD",
"V. c #B6A5A5",
"C. c #B9A7A6",
"Z. c #B6ACA2",
"A. c #B7ACAD",
"S. c #AEAEB1",
"D. c #B6ABB0",
"F. c #AFB1B4",
"G. c #B2B3B5",
"H. c #BCB2B2",
"J. c #B5B6B9",
"K. c #B9B7BB",
"L. c #B6BABC",
"P. c #BBBCBD",
"I. c #C9B4A2",
"U. c #C2B7B7",
"Y. c #C3BCB4",
"T. c #C0BDBF",
"R. c #BFC1BF",
"E. c #BCBDC1",
"W. c #BEC0C3",
"Q. c #C2C3C4",
"!. c #C5C6CA",
"~. c #C9CACC",
"^. c #DBCDCB",
"/. c #CCCDD1",
"(. c #CED0D3",
"). c #D2D2D4",
"_. c #D4D5D9",
"`. c #D7D9DD",
"'. c #DADBDD",
"]. c #DBDFE1",
"[. c #DFE1E5",
"{. c #E0E2E6",
"}. c #EDE5E1",
"|. c #E3E5EA",
" X c #EAEBEE",
".X c #EBEDF2",
"XX c #EFF3F6",
"oX c #ECF4F8",
"OX c #F3F3F4",
"+X c #FFFFFF",
/* pixels */
"                            % o o - &                           ",
"          X         o 7 e +.p.p.q.q.e.] t X               X     ",
"                  w +.p.J.!.D.W./.P.`.XX[.c.7   X               ",
"            X   7 p.S.W.~.~.!.E._.`.`.[. XOXN.7           X     ",
"              4 8.P.P.).`.`.{.P.F.L.E.[.XX X].G.G w 6           ",
"              E h.m.J.~._.(.[.P.0.d.0.!.F.0.N.~.[.F.E %       X ",
"  X         7 n.N.N.F.N.d.0.N.N.6.c.%.i.e.9.#.J./.`.n.7 o       ",
"          4 a.S.m.d.h.#.[ 3.,.&.7.q.q.m.j.y.$.a.J./.|.q.X X     ",
"      X   t F.F.c.M.q.@.[ ( | v.G.m.B.W.G.2.h.a.d.L.{.~.&       ",
"        t i.E.F.M.i.7.i.w.7.a.G.m.B.p.u.R. XQ.m.8.S./.+Xa.X     ",
"      % 7./.E.E.7.%.i.c.N.L.P.R.).B.U F ~ ).{.h.8.8.m.OX+XF.t o ",
"      G F._.S.%.' @.7.q.d.n.G.!.'.i.3 5 3 3.OXa.} 6 X &._.+X+X~.",
"5 q r 0.`.{.p.] ' T T ] 0.0.n.B.(.R.N = * $. Xa.7     @.S.Q.'.+X",
"b d ~ E..X2...} T G G T @.6.e.i.v.R.u.0 > :.R.w.o     7 I 6 * F ",
"i J K.oXe.i c ~ P T ' ' } 7.%.&.u.d.3.V z o.m.r.H N &       & B ",
" .!.+X/.D i < 8 G G ' R ] q.#.E ' Y L L Y 2.N.2.g W V.R   * C ) ",
"_.XXA.D p 1 9 5 G I [ E E #.q.h.%.{ h.h.m.Q.~.X.u y W ^.K j *.*.",
"<.<.l y p z 4 7 G E } ' E #.h.F.m.e.w.3.h.!.P.:.u s y >.I.Q *.Q ",
"; y g p ! o.# * G E } #.} %.d.n.0.%.0.h.G.!.G.x ; s p h l.5.Q *.",
"i i a p b > @ # t ] } %.#.#.d.N.R.~.!.B.Q./.M.S O i i h >.l.A Q ",
"2 i m v @ X 2 5 7 U } %.3.q.c.n.B.R.~.G.N.!.r.E : ; s g =.5.A Q ",
"2 H ;.k     X , 4 , q I { 8.n.N.m.m.G./.Q.e.Y / O O < y n 4.Z j ",
"A.U.H.s.r.s.r.z.F.z.s.z.G.Q.'.'.).'.OX+XOXP.P.P.s.y.z.b.C.}.Y.I.",
"+X+X+X+X+X+X+X+X+X+X+X+X+X+X+X+X+X+X+X+X+X+X+X+X+X+X+X+X+X+X+X+X",
"+X+XOX+XOX+XOX+XOX+XOX+X+XOX+X+X+XOX+X+X+X+XOX+X+X+XOX+XOX+X+XOX",
"+X+X+X+X+X+X+X+X+X+X+X+X+X+XOX+X+X+X+X+X+X+X+X+X+X+X+X+X+X+X+X+X",
"+XOX+X+X+X+X+X+X+X+X+XOX+X+X+X+X+X+X+X+X+X+X+X+X+X+X+X+X+X+X+X+X",
"+X+X+X+X+X+X+X+X+X+X+X+X+X+X+X+X+X+X+XOX+X+X+XOXOX+X+X+X+X+X+X+X",
"+X+XOX+XOX+X+X+X+X+X+X+XOX+X+X+X+XOX+X+X+X+X+X+X+XOX+X+X+X+X+X+X",
"+X+X+X+X+X+X+X+X+X+X+X+X+X+X+X+X+X+X+X+X+X+X+X+X+X+X+X+X+XOX+X+X",
"+X+X+X+X+X+X+X+X+X+X+X+X+X+X+X+X+X+X+X+X+X+X+X+X+X+X+X+XOX+X+X+X",
"+X+X+X+X+X+XOX+XOX+X+X+X+X+X+X+XOX+X+X+X+XOX+X+X+X+X+X+X+X+X+X+X"
};
