/* XPM */
static char *geo[] = {
/* columns rows colors chars-per-pixel */
"32 32 218 2",
"   c #000B36",
".  c #000E38",
"X  c #00133A",
"o  c #001D3E",
"O  c #00213F",
"+  c #001F40",
"@  c #002342",
"#  c #0B2247",
"$  c #062A45",
"%  c #0A2C46",
"&  c #0B2E4C",
"*  c #152C51",
"=  c #163653",
"-  c #173955",
";  c #1D3058",
":  c #213D5E",
">  c #283D64",
",  c #274565",
"<  c #294266",
"1  c #234963",
"2  c #2B4668",
"3  c #2C4C6B",
"4  c #31466D",
"5  c #2F536D",
"6  c #32546E",
"7  c #395973",
"8  c #3F637F",
"9  c #49667D",
"0  c #3F7EAE",
"q  c #415A82",
"w  c #426481",
"e  c #486386",
"r  c #4C6B8A",
"t  c #526F86",
"y  c #4F7693",
"u  c #547593",
"i  c #577A95",
"p  c #5B7B95",
"a  c #407FAE",
"s  c #5A7BA1",
"d  c #4080B0",
"f  c #6B8DAC",
"g  c #6D90AA",
"h  c #6793B7",
"j  c #6C90B0",
"k  c #7797B3",
"l  c #7699B9",
"z  c #6EA1BC",
"x  c #72A4BD",
"c  c #7CA3BD",
"v  c #2D85C6",
"b  c #2D89C7",
"n  c #2D8CC9",
"m  c #3287C7",
"M  c #3488C7",
"N  c #358BC9",
"B  c #3B8DC9",
"V  c #2E93CA",
"C  c #2E9BCD",
"Z  c #3493CB",
"A  c #3C93CC",
"S  c #349ACE",
"D  c #3C9BCE",
"F  c #369FD0",
"G  c #3E9ED0",
"H  c #2EA0CF",
"J  c #2EA5D1",
"K  c #32A3D1",
"L  c #3BA4D2",
"P  c #35ADD6",
"I  c #3DABD4",
"U  c #36B8DB",
"Y  c #3ABADC",
"T  c #468CC3",
"R  c #408FCB",
"E  c #4493CC",
"W  c #4A95CD",
"Q  c #439ACE",
"!  c #4B99CE",
"~  c #5098CE",
"^  c #459ED0",
"/  c #4B9DD0",
"(  c #559CD0",
")  c #5A9ED1",
"_  c #44A4D2",
"`  c #4CA3D2",
"'  c #44ABD5",
"]  c #4BACD5",
"[  c #52A6D3",
"{  c #5EA4D4",
"}  c #50AAD5",
"|  c #5DAAD7",
" . c #5FAFD8",
".. c #46B0D7",
"X. c #4BB0D7",
"o. c #41B3D9",
"O. c #4CB6DA",
"+. c #45BADC",
"@. c #4DBBDC",
"#. c #50B3D9",
"$. c #5CB4D9",
"%. c #5FB9DB",
"&. c #7AA8C5",
"*. c #75B0CE",
"=. c #64A4D4",
"-. c #6BA7D6",
";. c #62AAD6",
":. c #6CA9D7",
">. c #66ACD8",
",. c #6FAED8",
"<. c #70ABD7",
"1. c #78AED3",
"2. c #74ADD9",
"3. c #63B3DA",
"4. c #6BB4DA",
"5. c #64BADD",
"6. c #6BBCDE",
"7. c #7FB7D6",
"8. c #74B3DB",
"9. c #7CB3DB",
"0. c #73BDDE",
"q. c #7CBADE",
"w. c #7CBFE0",
"e. c #34C3E0",
"r. c #3DD0E6",
"t. c #39D5E8",
"y. c #37DCEC",
"u. c #38E6F1",
"i. c #3AE8F1",
"p. c #3EF4F7",
"a. c #3EFDFB",
"s. c #4CC1DF",
"d. c #73C1DF",
"f. c #7BC0DF",
"g. c #44C3E0",
"h. c #4CC4E1",
"j. c #4DCEE6",
"k. c #50C5E2",
"l. c #5AC8E3",
"z. c #43D0E7",
"x. c #4DDAEC",
"c. c #51D4E9",
"v. c #51D8EB",
"b. c #65CCE6",
"n. c #6BCEE6",
"m. c #76C2E0",
"M. c #7CC3E1",
"N. c #77CBE5",
"B. c #6BD2E8",
"V. c #6FD9EC",
"C. c #74D1E7",
"Z. c #71D2E8",
"A. c #75DAEC",
"S. c #7CDAEC",
"D. c #44E0EF",
"F. c #4EE6F2",
"G. c #44ECF4",
"H. c #4AEBF5",
"J. c #53E2F0",
"K. c #50EBF5",
"L. c #45FFFE",
"P. c #4BFFFF",
"I. c #51F0F7",
"U. c #53FFFF",
"Y. c #7AE0EF",
"T. c #69E5F2",
"R. c #7BEFF7",
"E. c #6EF2F8",
"W. c #73F2F9",
"Q. c #7CFFFF",
"!. c #809BB0",
"~. c #81A3BD",
"^. c #86A6C0",
"/. c #84A9C7",
"(. c #8DABC2",
"). c #87AECE",
"_. c #8BADC9",
"`. c #90ADC3",
"'. c #8AB5D1",
"]. c #82B6DD",
"[. c #85B9DE",
"{. c #8ABADF",
"}. c #93B7D3",
"|. c #96BCDB",
" X c #ABBDCB",
".X c #82BFE0",
"XX c #8DBDE0",
"oX c #92BFE1",
"OX c #91C0DB",
"+X c #B0C1CF",
"@X c #A5C2D7",
"#X c #A5C6DE",
"$X c #82C2E1",
"%X c #8AC5E3",
"&X c #95C2E2",
"*X c #9CC5E4",
"=X c #97C8E4",
"-X c #9FCCE6",
";X c #A0C7E5",
":X c #A4CAE6",
">X c #A8CCE7",
",X c #ABCEE8",
"<X c #B2CCE2",
"1X c #AFD0E9",
"2X c #B4D3EA",
"3X c #B9D6EC",
"4X c #BED9ED",
"5X c #80E5F1",
"6X c #C3DCEE",
"7X c #C8DDEE",
"8X c #C9DEF0",
"9X c #CDE0EF",
"0X c #D7E4EE",
"qX c #DBE7EF",
"wX c #CDE2F1",
"eX c #D1E4F2",
"rX c #D8E6F0",
"tX c None",
/* pixels */
"+X0XeXwXwXwXwXwXwXwXwXwXwXwXeXeXeXeXeXeXeXeXeXeXeXeXeXeXeXrXqX X",
"rX&X&X&X*X*X*X;X:X:X>X>X,X,X,X1X2X2X2X2X2X2X3X3X3X3X3X3X3X3X2XqX",
"7XXXoXoX&X&X*X*X*X;X;X:X:X>X>X,X,X,X2X2X2X2X2X2X3X3X3X3X3X3X3X9X",
"6X{.{.XXXXoX&X*X:X:X:X;X:X>X,X1X2X2X2X1X2X2X3X3X3X3X3X3X3X3X3XwX",
"6X].[.[.{.oX|.r 3 3 7 ~.>Xg 5 5 6 6 6 2X2X`.t 7 9 !.4X2X2X3X3XwX",
"4X9.].].{.).# o : : o o ~.p @ - 5 5 5 2X~.$ % 7 = % p 3X2X2X2XwX",
"3X2.9.9.[.e X u *X:Xk k }.i @ p 2X2X1X1X1 @ (.2X<X= % @X2X2X2X8X",
"1X<.2.2.[.> X l oX< 2 2 f i o + @ @ 3 1X@ @ 2X:X1X6 $ (.1X,X1X6X",
":X:.:.<.9.4 . f &X< * X u u o 3 i i f >X& @ #X:X1X1 @ (.>X>X,X6X",
"*X( -.:.2.s   ; f j < X u u o 8 c ~.c -Xw @ 7 ^.p @ - ,X;X:X:X4X",
"&XN =.=.-.9.q   . X X , &.y o o O O @ =XOX3 o + + = _.*X*X*X;X3X",
"oXv E =.=.:.8.1.h h 7.$XM.*.z x x x z %X%X=X'.c /.*X&X&X&X*X*X2X",
"XXv v W { =.;.>.4.4.4.6.0.m.m.M.M.M.$XM.$X.X$XXXXXXXXXXXoX&X&X2X",
"{.v v v E { { ;.3.3.5.6.6.6.A.C.S.N.m.m.f.w.q.[.[.[.[.{.{.XXoX,X",
"].v v v v B [ |  .3.5.5.B.A.Z.6.C.C.5Xd.0.0.q.q.q.q.].].[.{.{.:X",
"9.v v v b b n D } $.%.b.W.5.n.5.n.6.A.Y.0.0.0.8.8.9.9.9.].].[.*X",
"9.v v v b n n V C L #.T.E.%.b.5.n.B.Q.R.6.6.4.8.8.8.8.9.9.9.9.*X",
"2.v v v b n V V C H J i.P.s.l.%.b.B.Q.V.5.4.4.4.4.,.<.2.2.2.9.oX",
"<.v v v b n V Z S K K y.a.a.u.e.r.I ..X.} } [ | | { ( ( ( ( ! 9.",
"-.v v b m N Z Z S F K U a.a.a.a.a.p.t.P K K S Z Z N M m v v v -.",
"=.m m m M N Z Z S F L L Y G.L.L.L.L.L.G.P L F S Z Z N M m m m =.",
"=.m M M N N Z D D L L L I I g.z.H.P.P.P.D.L L D D Z N N M M m =.",
"{ M M N N A A D L L I I g.o.g.' g.o.H.P.P.I L G D A A N N M M { ",
") M N B B A A G L ' ' x.U.F.g.' g.' +.U.U.' _ L D A A B B N M ) ",
"( N N B A A D ^ _ ' ' K.I.j.h.' h.' ..U.F.' _ _ Q A A B B N N ( ",
"( B B B A A Q ^ _ ' ' j.x...h.] h.] s.U.@.' _ _ Q Q A B B B B ( ",
"~ B B B E E Q ^ _ _ ] ] v.c.h.X.h.@.J.h.] ] _ ^ Q E E E B B B ~ ",
"W B B E E E Q ^ ` ` ] ] ] O.c.h.c.@.] ] ] ` ` ^ Q Q E E R B B W ",
"W B R E E E Q / ^ ` ` ] ] X.k.X.k.] ] ] ` ` ` / ! W E E E R B W ",
"T R E E E W W ! / ` ` ` ] ] @.] @.] ] ` ` / / ! ! W W E E E R T ",
"d E E E E W W ! / / ` ` ] ] ] ] ] ] ` ` / / / ! W W W E E E E a ",
"tX0 W W W W ! ! ! / ` ` [ } } } } } ` ` / / ! ! ! ! W W W W 0 tX"
};
