/* XPM */
static char *Gmbl[] = {
/* columns rows colors chars-per-pixel */
"32 32 194 2",
"   c #010000",
".  c #0B0101",
"X  c #0A0806",
"o  c #0C0A09",
"O  c #130200",
"+  c #1A0C00",
"@  c #120E0A",
"#  c #190C0B",
"$  c #1F1204",
"%  c #15120F",
"&  c #161412",
"*  c #1D1612",
"=  c #201715",
"-  c #251C16",
";  c #281E17",
":  c #211D19",
">  c #291E18",
",  c #24211E",
"<  c #2C221B",
"1  c #33261E",
"2  c #34281E",
"3  c #2C2621",
"4  c #2D2925",
"5  c #362722",
"6  c #372822",
"7  c #3B2D23",
"8  c #312C28",
"9  c #3C2F2B",
"0  c #36312A",
"q  c #3E342B",
"w  c #562E07",
"e  c #592D07",
"r  c #542F08",
"t  c #5D2E09",
"y  c #5F300A",
"u  c #5C3A15",
"i  c #612F0B",
"p  c #64310D",
"a  c #68330F",
"s  c #653711",
"d  c #6B3612",
"f  c #643812",
"g  c #6D3915",
"h  c #663D18",
"j  c #6A3E1A",
"k  c #703613",
"l  c #723A16",
"z  c #753D19",
"x  c #7A3E1B",
"c  c #45342B",
"v  c #46382E",
"b  c #4C3A2D",
"n  c #523B2F",
"m  c #413834",
"M  c #4B3F34",
"N  c #6D421B",
"B  c #75421C",
"V  c #7C411D",
"C  c #4B4136",
"Z  c #4F443C",
"A  c #5B4232",
"S  c #504239",
"D  c #674523",
"F  c #6A4221",
"G  c #6B4826",
"H  c #61442E",
"J  c #724524",
"K  c #7C4622",
"L  c #744A27",
"P  c #7C4825",
"I  c #764E2C",
"U  c #7C4D2C",
"Y  c #644636",
"T  c #664A37",
"R  c #634938",
"E  c #6C4D3A",
"W  c #735136",
"Q  c #7C5433",
"!  c #7C563B",
"~  c #765A3A",
"^  c #7D5A3F",
"/  c #514540",
"(  c #554D45",
")  c #5A4D44",
"_  c #5F5044",
"`  c #5B544B",
"'  c #645446",
"]  c #695749",
"[  c #66594B",
"{  c #695C4F",
"}  c #655851",
"|  c #7F6043",
" . c #6D6155",
".. c #776654",
"X. c #7A6654",
"o. c #756A5E",
"O. c #7B6B5B",
"+. c #7A7066",
"@. c #7F756A",
"#. c #80421F",
"$. c #844522",
"%. c #884724",
"&. c #844926",
"*. c #824D2A",
"=. c #894E2C",
"-. c #83502E",
";. c #845434",
":. c #8B5333",
">. c #895837",
",. c #81573D",
"<. c #845C3D",
"1. c #8C5B3D",
"2. c #905B3C",
"3. c #835F40",
"4. c #8B5C40",
"5. c #846244",
"6. c #8B6345",
"7. c #866649",
"8. c #8A6649",
"9. c #84684A",
"0. c #8B694D",
"q. c #936242",
"w. c #906A4D",
"e. c #876E53",
"r. c #8C6D52",
"t. c #916E53",
"y. c #8E7155",
"u. c #8B745C",
"i. c #947256",
"p. c #94755B",
"a. c #98775D",
"s. c #96785E",
"d. c #99785F",
"f. c #837364",
"g. c #8A7764",
"h. c #80766C",
"j. c #877A6D",
"k. c #947661",
"l. c #957C63",
"z. c #9A7C64",
"x. c #947F68",
"c. c #8B7D72",
"v. c #9D8067",
"b. c #9D836C",
"n. c #8D8175",
"m. c #948475",
"M. c #9D8A75",
"N. c #928579",
"B. c #94887D",
"V. c #9B8B7D",
"C. c #A1856E",
"Z. c #A18771",
"A. c #A38A74",
"S. c #A48E79",
"D. c #A4927D",
"F. c #AA917C",
"G. c #978B81",
"H. c #9B8E82",
"J. c #9E9286",
"K. c #A59582",
"L. c #AA9581",
"P. c #AC9986",
"I. c #A2968A",
"U. c #A5998C",
"Y. c #AD9D8B",
"T. c #B29885",
"R. c #B19F8D",
"E. c #AD9F92",
"W. c #B1A18F",
"Q. c #A1A491",
"!. c #ACA194",
"~. c #A7A997",
"^. c #B3A493",
"/. c #BAA494",
"(. c #B6A897",
"). c #B7A999",
"_. c #BAAB9B",
"`. c #BBAFA0",
"'. c #BEB1A3",
"]. c #C1B3A5",
"[. c #C2B6A9",
"{. c #C5B9AB",
"}. c #C8BBAC",
"|. c #CABEB2",
" X c #CDC2B6",
".X c #CFC5BA",
"XX c #D0C5BB",
"oX c #D3C8BE",
"OX c #D5CEC4",
"+X c #D7D0C7",
"@X c #D8D0C7",
"#X c #DAD2CA",
"$X c #DCDAD2",
"%X c #E0DDD5",
/* pixels */
"~.$X#XOXOXOXOXOXOXOX+X@X@X@X@X#X#X#X#X#X#X#X#X#X#X#X#X#X#X#X$XQ.",
"$XK.P.P.Y.Y.^.^.^.(.).)._._.`.'.'.].].[.[.{.{.{.{.{.{.{.{.{.[.%X",
"OXD.D.K.L.P.P.Y.Y.^.^.^.(.).)._._.`.'.'.].].[.[.{.{.{.{.{.{.{.+X",
".XM.M.S.D.P.W.^.^.R.Y.Y.^.^.(.(.)._._.`.].[.{.[.[.[.{.|.|.}.{.OX",
" Xb.M.S.K.( 8 8 m n.R.Y.Y.Y.^.^.^.(.)._.I.v { [.].].{. .C !.{.OX",
"|.x.b.m.o   , ,     j.Y.R.W.^.(.^.)._._.H.O v }.].].{.M $ I.{.OX",
"{.k.b.Z   ` Y.^.@.h.H.o.8 +.m m B./ 9 c.H.O 5 Z S U.{.v + I.[.oX",
"'.u.b.4   f.S.4 4 4 o.`   o *     < . # G.. O ) O 6 }.v + J.].XX",
"^.e.x.0   o.D.4 &   ` `   ` n.  8 '.  . B.. 9 {.O O }.c O H._. X",
"Y.~ u.[   : o.o.4   ` `   ` c.  4 ).    N.. = E.. # ].9 O V._.|.",
"P.u 9.s.C         3 g.(   ) f.  4 R.    n.  ,   . } _.9 . N.^.}.",
"L.r D 9.y.u.....l.l.l.u.X.g.x.O.f.A.f.f.S.f.V.m.m.P.P.m.c.P.R.[.",
"S.r r G | 5.7.0.0.0.r.r.p.p.p.s.l.l.z.v.b.b.Z.A.A.A.S.F.L.L.L.].",
"A.w w w D ^ 3.5.5.5.7.7.0.r.y.p.p.p.p.s.l.z.z.v.b.b.Z.A.A.S.F._.",
"b.w w w w f Q <.3.5.5.7.r.s.u.X.X.x.z.s.p.s.s.z.z.z.v.b.C.Z.A./.",
"z.e e e e e e h Q ,.5.t.' %         3 O.z.p.p.p.a.d.z.z.v.b.C.R.",
"z.e e e e e e e e j 8.q   % ) X.X.M o   _ d.t.t.i.p.p.a.z.z.z.T.",
"p.e e t t t t t t F 2   6 8.3.6.8.t.k.:   ] i.0.t.t.i.i.p.a.d.F.",
"t.t t t t t t t s H   - I p y y s g L 7.X X 7.3.<.<.Q Q Q Q I z.",
"w.t t i i i p p J <   W g p p p p p p N A   b j p p i t t t t 0.",
"6.i p p p p p p I X @ Q s s s s s s s g W   < J p p p p p p i 8.",
"6.p p p p a d d Q   - U g g g g g g g g ;.  - U d d a p p p p 6.",
"1.p a a d d d d ;.  * ;.l l l l l l l z <.  - U d d d d a p p <.",
">.a d d d g g l U ;   <.B z z z z z z P T   b P l g g d d d a ;.",
";.d d g k l l z P A   b ;.V B B B B K 1.;   ! B z l l k g d d ;.",
"*.d k l l l z z V >.*   R >.P V K *.1.7   c -.B z z l l k g d *.",
"*.k l l z x x V V &.,.X   7 ^ q.q.E >   * 1.K V V x z z l l g U ",
"P l l z x x x V V V *.4.1             n 2.&.V V V x x x z l l P ",
"K l z x x x V V #.$.$.&.>.<.Y n n E 1.:.&.$.$.#.V V V x x z l K ",
"B z x x x V #.$.$.$.$.$.$.&.=.:.:.=.&.$.$.$.$.$.$.#.V x x x z B ",
"B x x x #.#.$.$.$.$.$.$.$.$.$.$.$.$.$.$.$.$.$.$.$.$.#.V x x x N ",
"u B #.#.$.$.$.%.%.%.%.%.%.%.%.%.%.%.%.%.%.%.%.%.%.$.$.$.#.V N u "
};
