/* XPM */
static char *hawk[] = {
/* columns rows colors chars-per-pixel */
"32 32 216 2 ",
"   c #0B0300",
".  c #0B0906",
"X  c #0D0C0A",
"o  c #130300",
"O  c #140D04",
"+  c #191702",
"@  c #151412",
"#  c #191612",
"$  c #1C1A15",
"%  c #1C1B19",
"&  c #220D00",
"*  c #20180D",
"=  c #22211D",
"-  c #2D271B",
";  c #252422",
":  c #282725",
">  c #2A2927",
",  c #2F2D2A",
"<  c #302F2D",
"1  c #37342D",
"2  c #3C3429",
"3  c #372B35",
"4  c #343331",
"5  c #383735",
"6  c #3A3835",
"7  c #373239",
"8  c #3E3D3A",
"9  c #443D35",
"0  c #4F482B",
"q  c #4F483E",
"w  c #524232",
"e  c #51493E",
"r  c #5A5336",
"t  c #675733",
"y  c #78632A",
"u  c #7A673A",
"i  c #454442",
"p  c #484745",
"a  c #474843",
"s  c #4D4A46",
"d  c #49454A",
"f  c #4D4C4A",
"g  c #544A40",
"h  c #514F4C",
"j  c #54534E",
"k  c #5E574D",
"l  c #524650",
"z  c #555452",
"x  c #595653",
"c  c #5A5856",
"v  c #5C5B5A",
"b  c #605A4C",
"n  c #645D57",
"m  c #615F5D",
"M  c #7E754E",
"N  c #6B6354",
"B  c #62615D",
"V  c #6F685E",
"C  c #72695C",
"Z  c #656463",
"A  c #686765",
"S  c #6A6965",
"D  c #66656A",
"F  c #6C6B6A",
"G  c #726F60",
"H  c #716E6B",
"J  c #6F706B",
"K  c #7F7667",
"L  c #74726F",
"P  c #79736A",
"I  c #716F70",
"U  c #757473",
"Y  c #7A7674",
"T  c #777870",
"R  c #7C7B77",
"E  c #7C7B7A",
"W  c #817044",
"Q  c #8E7B51",
"!  c #837D67",
"~  c #817A6A",
"^  c #857E74",
"/  c #807F7D",
"(  c #DDAE1F",
")  c #DEB01F",
"_  c #DEB123",
"`  c #DEC712",
"'  c #D7CA13",
"]  c #DCC812",
"[  c #DACC1E",
"{  c #E0C715",
"}  c #E0C816",
"|  c #E1C71B",
" . c #E1C81C",
".. c #DDCF2B",
"X. c #DBD02D",
"o. c #DCCF31",
"O. c #E3C723",
"+. c #E3C924",
"@. c #E3C62A",
"#. c #E4C92B",
"$. c #E5CC35",
"%. c #E6CF3C",
"&. c #E3D037",
"*. c #E5D13D",
"=. c #A08B52",
"-. c #BD8A54",
";. c #8C8165",
":. c #968664",
">. c #9D946D",
",. c #8C8476",
"<. c #84817D",
"1. c #898079",
"2. c #A18E64",
"3. c #A59468",
"4. c #B39F6A",
"5. c #AC9C78",
"6. c #DED543",
"7. c #E5D143",
"8. c #E4D44C",
"9. c #E3D750",
"0. c #E9D653",
"q. c #E2D854",
"w. c #E9D75A",
"e. c #E2DB5B",
"r. c #EAD95E",
"t. c #E3DC62",
"y. c #EBDA64",
"u. c #EBDC6B",
"i. c #EBDE74",
"p. c #EBDF79",
"a. c #E5E075",
"s. c #E7E27D",
"d. c #EBE07C",
"f. c #827880",
"g. c #858582",
"h. c #8A8782",
"j. c #8C8984",
"k. c #8D8C8A",
"l. c #918382",
"z. c #948F8B",
"x. c #9A9883",
"c. c #95918A",
"v. c #98938D",
"b. c #918B95",
"n. c #939290",
"m. c #9E9C95",
"M. c #9C9B99",
"N. c #A29B8B",
"B. c #A49D93",
"V. c #AAA394",
"C. c #A3A09D",
"Z. c #ACAD9F",
"A. c #A5A5A3",
"S. c #AFAEAC",
"D. c #B0A9A1",
"F. c #B2B1AF",
"G. c #BBB5AB",
"H. c #BFB9AD",
"J. c #B6B5B3",
"K. c #B8B7B5",
"L. c #BDBCBA",
"P. c #CAB98B",
"I. c #CDBC9E",
"U. c #D0BE9E",
"Y. c #C0B6AC",
"T. c #C0BAAC",
"R. c #C5BEB3",
"E. c #CCBCBC",
"W. c #EBE383",
"Q. c #ECE58C",
"!. c #F2E38E",
"~. c #ECE793",
"^. c #ECE896",
"/. c #EDE99B",
"(. c #F1E591",
"). c #F1E698",
"_. c #F1E89F",
"`. c #C7C1B3",
"'. c #CCC4B7",
"]. c #C7C3B8",
"[. c #C8C4BB",
"{. c #D4CDBD",
"}. c #DACABA",
"|. c #EFDEA3",
" X c #EEEAA3",
".X c #ECE7AA",
"XX c #EFECAB",
"oX c #F1EBA6",
"OX c #F0ECAD",
"+X c #EEE9B2",
"@X c #F1EEB1",
"#X c #F3EFBB",
"$X c #F9EDBD",
"%X c #F4F0BE",
"&X c #CAC9C4",
"*X c #CCC7CE",
"=X c #CFCECC",
"-X c #D5CFC3",
";X c #D1CEC9",
":X c #D8D2C4",
">X c #DBD5CA",
",X c #D9D7D3",
"<X c #DDD9D4",
"1X c #DCDBD9",
"2X c #E0DACE",
"3X c #E1D9D7",
"4X c #F4F2C5",
"5X c #F5F3CB",
"6X c #EDE4DF",
"7X c #F6F2D3",
"8X c #FFF4D8",
"9X c #FFFEDC",
"0X c #EEE7E1",
"qX c #EFE5EE",
"wX c #F3ECE2",
"eX c #FDF4E3",
/* pixels */
"U.7X7X4X4X4X4X4X5X5X5X5X5X5X4X5X5X5X5X5X5X5X5X5X5X5X5X5X5X7X7XI.",
"7XQ.Q.Q.~.~.^.^.^.^././.XX X X.XXXXXXX@XOX@X@X@X@X@X@X@X@X@X@X7X",
"4XW.W.Q.Q.Q.+X0X~.~. X^././. X X X.XXXXXXXXXOXOX@XOX@XOXXX@X@X5X",
"#Xa.s..Xc.8 q j V P ,X~.^.^.^./.^./. X X X XXXXXOXOXOX@X@X@XOX4X",
"#Xa.wX^ + V.[.`.`.H.P >XQ.~.^.^.^././. X X X XXXXXXXXXXXXXOX@X4X",
"@XT.- ,.V.x.K ,.H.>X].<.=XQ.~.^.^.^.^.^./././. X_. XXXXXOXOXXX4X",
"@X* C ^ K N N {.`.:X>X[./ &XQ.Q.Q.Q.~.^././././._./. X X XXXXX4X",
"oX^ e T.C   V.2X2X-XH.c.Z 8 E A.Q.Q.Q.Q.Q.^.~.^./././. X X X X#X",
").e.t.t.t.g 2 H.R.D.g c v D E U v F.W.Q.Q.Q.Q.Q.~.^./././._._.#X",
"Q.6.e.e.0Xo ^ R.F.S H s v D D / / B g.W.d.Q.Q.Q.Q.Q.~.(.(././.@X",
"Q.[ 9.q.3X  c.C.B.n H s z Z I D U <.Y U s.W.W.W.Q.Q.Q.Q.Q.(.^.@X",
"W.' X.9.0.X ~ z.z.n L h z D D D I Z g.T R p.d.s.d.W.W.Q.Q.Q.(.OX",
"s.' ' o.8.P # B.h.f.j H c d v D c A F L E z.i.i.d.d.d.d.W.Q.Q.oX",
"d.' ' ' ..8.> 6 j./ R z S v f c v v A A S F M.i.i.i.d.d.d.d.d._.",
"i.' ' ` ' [ <X# j z.H T z U v j c v f Z A v A 1Xu.u.i.i.i.i.d.).",
"u.' ` ' ] ] ] ;X* B v.V P p R Z f v f v c A A P y.y.u.u.u.i.i.(.",
"y.] ] ` ` ` ' ` 2X1 s M.T T j B E c j f x m m m K.t.y.y.y.u.u.!.",
"r.] ] ` ` ` ` ` ` { R = J g.Z A v L v h v f m D A w.r.y.y.y.y.W.",
"w.` ` ` ` ` ` ` ` } } *X7 d b.D I Z g.D v f v f x J.*.*.*.*.&.u.",
"0.` ` ` { { { { } } ] ' qX3 l f.A L x T J v z c v m ] ] ` { { 0.",
"0.{ { { } } } { }  . .} |.E.o l.B B U i m / A c 8 c S.{ } } { 0.",
"8.{ { { { |  . . . . . . .$Xo w n v x $ % 5 g.U c h z } } } { 8.",
"7.} { }  .| | | +. .%.8X9XQ & 5.b +.+.C.% @ 4 m U f p A.} } { 7.",
"*.{  .} | |  .| Q.x.r >.W & =.u eX@.+.+.J.@ > 4 f Y Z v } | { *.",
"%.} | | |  . .+.Z.+ 0 M 3.4.y P.+.+.+.+.+.L.X : 5 , p E g.| | %.",
"$.| | | O.O.+.+.B.C ;.;.:.2.u t #.#...#.#.@.M.. i z < ; i =X| $.",
"$.| | | | +.+.+.#.O.+.#.i.(.eX}.#.#.#.+.#.+.+.^ . F x Z 6 Z | $.",
"#.O.| O.O.+.+.O.+.#.#.@.@.#.@.@.#.#.#.#.#.#.@.@.Z % n.Z f B F #.",
"@.| | O.O.+.@.+.#.#.#.@.#.#.$.#.#.#.#.#.#.#.#.@.@.i , A.k.J.,X@.",
"O.O.O.O.@.O.@.+.#.#.#.#.#.#.@.#.#.#.#.#.#.#.#.#.+.@.f 4 k.E O.@.",
"_ O.O.O.+.#.+.@.#.#.#.#.#.#.#.#.#.#.#.#.#.#.#.#.@.@.@.M.U C.O._ ",
"-.) @.+.@.@.#.@.#.#.$.#.#.$.#.#.$.#.$.#.#.$.#.#.#.@.@...@.O.( -."
};
