/* XPM */
static char *icon_TextureManager[] = {
/* columns rows colors chars-per-pixel */
"32 32 121 2",
"   c black",
".  c #030000",
"X  c #050000",
"o  c #090909",
"O  c #120000",
"+  c #190000",
"@  c #1C0000",
"#  c #111111",
"$  c gray10",
"%  c #270000",
"&  c #2A0000",
"*  c #310000",
"=  c #370000",
"-  c #380000",
";  c #3D0000",
":  c #3E0000",
">  c #3F0000",
",  c #222222",
"<  c gray17",
"1  c gray20",
"2  c #3C3C3C",
"3  c #400000",
"4  c #410000",
"5  c #430000",
"6  c #560000",
"7  c #580000",
"8  c #5C0000",
"9  c #5E0000",
"0  c #670000",
"q  c #6D0000",
"w  c #444444",
"e  c gray30",
"r  c #555555",
"t  c gray37",
"y  c gray40",
"u  c #6F6F6F",
"i  c #777777",
"p  c #797C7C",
"a  c #7A7D7D",
"s  c #9C0000",
"d  c #A50000",
"f  c #B00000",
"g  c #BB0000",
"h  c #BF0000",
"j  c #C10000",
"k  c #C20000",
"l  c #C30000",
"z  c #C90000",
"x  c #CD0000",
"c  c #CF0000",
"v  c #C90606",
"b  c #D00000",
"n  c #D30000",
"m  c #D40000",
"M  c #D70000",
"N  c #DB0000",
"B  c #DC0000",
"V  c #CA1212",
"C  c #E20000",
"Z  c #E30000",
"A  c #EF0000",
"S  c #F00000",
"D  c #F10000",
"F  c #F20000",
"G  c #F40000",
"H  c #F50000",
"J  c #F80000",
"K  c #FC0000",
"L  c #FD0000",
"P  c red",
"I  c #F80E0E",
"U  c #FF0C0C",
"Y  c #E11E1E",
"T  c #FF1F1F",
"R  c #CF2E2E",
"E  c #DF2020",
"W  c #DE2121",
"Q  c #DF2121",
"!  c #D02E2E",
"~  c #D22E2E",
"^  c #CF3131",
"/  c #D03030",
"(  c #D13131",
")  c #D53131",
"_  c #D73131",
"`  c #E12121",
"'  c #E72121",
"]  c #EA2121",
"[  c #FF2929",
"{  c #9B5D5D",
"}  c #9B5F5F",
"|  c #A15F5F",
" . c #A35F5F",
".. c #A65F5F",
"X. c #9B6262",
"o. c #9B6565",
"O. c #986767",
"+. c #916F6F",
"@. c #946C6C",
"#. c #A16060",
"$. c #A36060",
"%. c #A26262",
"&. c #A46060",
"*. c #A56060",
"=. c #A46161",
"-. c #A26565",
";. c #A66565",
":. c #FF4C4C",
">. c #FF5050",
",. c #7F8181",
"<. c #7D8383",
"1. c #7E8282",
"2. c #7A8585",
"3. c #7B8585",
"4. c #7A8686",
"5. c #7C8484",
"6. c #808080",
"7. c #FFB7B7",
"8. c #FFC2C2",
"9. c #FFF0F0",
"0. c gray100",
/* pixels */
"6.6.6.6.6.6.6.5.3.3.3.3.3.3.3.3.3.3.3.3.3.3.3.3.,.,.6.6.6.6.6.6.",
"6.6.6.6.6.6.,.@.o.o.o.o.o.o.o.o.o.o.o.o.o.X.{ { +.,.6.6.6.6.6.6.",
"6.6.6.6.6.6.3.E P P P P P P P P P P P P P U [ [ ^ 3.,.6.6.6.6.6.",
"6.6.6.6.6.6.3.E P P P P P P P P P P P P P :.0.8.! 3.,.6.6.6.6.6.",
"6.6.6.6.6.6.3.E P P P P P P P P P P P P P :.9.7.R 3.6.6.6.6.6.6.",
"6.6.6.6.6.6.3.` F z z z z z z z z z z z z v V I ( 3.6.6.6.6.6.6.",
"6.6.6.6.6.6.3.] l                             B ) 3.6.6.6.6.6.6.",
"6.6.6.6.6.,.3.] l                           X B ) 3.6.6.6.6.6.6.",
"6.6.6.6.6.6.3.] l                           X B ) 3.6.6.6.6.6.6.",
"6.6.6.6.6.6.3.] l                           X B _ 4.6.6.6.6.6.6.",
"6.6.6.6.6.6.3.] l                           X B _ 4.6.6.6.6.6.6.",
"6.6.6.6.6.,.3.] l                           X B _ 4.6.6.6.6.6.6.",
"6.6.6.6.6.6.3.] l                             B _ 4.6.6.6.6.6.6.",
"6.6.6.6.6.6.3.' b : 5 5 5 = 5 5 5 : - 5 5 5 : Z ) 4.6.6.6.6.6.6.",
"6.6.6.6.6.6.3.E P c f f g K h f f c G f f f C P ( 4.6.6.6.6.6.6.",
"6.6.6.6.6.6.3.E P 8     + A %     6 m       s P ^ 4.6.6.6.6.6.6.",
"6.6.6.6.6.6.3.E P 8     @ A &     7 b       s P ^ 3.6.6.6.6.6.6.",
"6.6.6.6.6.,.3.E P q O O * A : O O 0 N O O O d P ^ 3.6.6.6.6.6.6.",
"6.6.6.6.6.6.3.E P K F F G P G F F K P F F F P P ! 4.,.6.6.6.6.6.",
"6.6.6.6.6.6.,.o.| #.=.=.-.-.;.#.#.#.#.=.....#.#.@.,.6.6.6.6.6.6.",
"6.6.6.6.6.6.6.5.3.5.,.,.,.a a ,.,.5.5.5.5.3.3.3.5.6.6.6.6.6.6.6.",
"            , 6.,.6.,.,.6.i # u 6.    y 6.6.6.<   w 6.6.6.6.6.6.",
"6.6.w # 6.6.6.6.6.6.,.6.6.u   u 6.    2 6.6.6.o   w 6.6.6.6.6.6.",
"6.6.w # 6.6.6.2 , 6.6.$ w       t   $ $ 6.6.r o # w 6.t o   ,   ",
"6.6.w # 6.6.6.6.# e w , 6.u   u 6.  w   y 6.1 1 # w i o w 6.1   ",
"6.6.w # 6.6.6.6.y o o u 6.u   u 6.  e $ w 6.o r # w e o 6.6.i   ",
"6.6.w # 6.6.6.6.6.$ , 6.6.u   u 6.  e w $ r o 6.# w w # 6.6.6.  ",
"6.6.w # 6.6.6.6.e # $ r 6.u   u 6.  e y   < < 6.# w e o 6.6.i   ",
"6.6.w # 6.6.6.i o y y # i u   y 6.  e 6.$   r 6.# w i o w 6.1   ",
"6.6.w # 6.6.6.< 2 6.6.1 2 6.$   t   e 6.w o i 6.# w 6.t o   $   ",
"6.6.6.6.6.6.6.6.6.6.6.6.6.6.6.6.6.6.6.6.6.6.6.6.6.6.6.6.6.6.w o ",
"6.6.6.6.6.6.6.6.6.6.6.6.6.6.6.6.6.6.6.6.6.6.6.6.6.6.u $     # t "
};
