/* XPM */
static char *icon_renameNodes[] = {
/* columns rows colors chars-per-pixel */
"32 32 53 1",
"  c #000E79",
". c #010F79",
"X c #021079",
"o c #03117A",
"O c #04127A",
"+ c #05127A",
"@ c #05137A",
"# c #07147A",
"$ c #09167B",
"% c #0A177B",
"& c #0D1A7B",
"* c #111E7C",
"= c #131F7C",
"- c #222C7F",
"; c #263180",
": c #283280",
"> c #2A3481",
", c #2C3681",
"< c #2E3881",
"1 c #303A82",
"2 c #323B82",
"3 c #343D82",
"4 c #363F83",
"5 c #384083",
"6 c #3C4484",
"7 c #3E4684",
"8 c #454D86",
"9 c #505688",
"0 c #515888",
"q c #525888",
"w c #585E89",
"e c #595F89",
"r c #5B608A",
"t c #5C618A",
"y c #5C628A",
"u c #5F648A",
"i c #62668B",
"p c #666A8C",
"a c #6A6E8C",
"s c #6F728D",
"d c #6F738D",
"f c #72768E",
"g c #797C8F",
"h c #858691",
"j c #878892",
"k c #888992",
"l c #8A8B92",
"z c #8B8C92",
"x c #8F8F93",
"c c #909093",
"v c #919193",
"b c #939394",
"n c gray58",
/* pixels */
"nnnnnnnnnnnnnnnnnnnnnnnnnnnnnnnn",
"nnnnnnnnnnnnnnnnnnnnnnnnnnnnnnnn",
"nnnnnnnnnnnnnnnnnnnnnnnnnnnnnnnn",
"nnnnnnnnnnnbnnnnnnnnnnnnnnnnnnnn",
"nnnnnnnnnnnbnnnnnnnnnnnnnnnnnnnn",
"nnnnnnnng%%%fnnnnnnnnnnnnnnnnnnn",
"nnnnnnnn8   6nnnnnnnnnnnnnnnnnnn",
"nnnnnnnb=   &bnnnnnnnnnnnnnnnnnn",
"nnnnnnnd  3  annnnnnnnnnnnnnnnnn",
"nnnnnnn6 @k@ 3nnnnnnnnnnnnnnnnnn",
"nnnnnnc% 2n, #cnnnnnnnnnnnnnnnnn",
"nnnnnnp  tne  innnnnnnnnnnnnnnnn",
"nnnnnn2 @znjX <nnnnnnnnnnnnnnnnn",
"nnnnnz@ X===X @knnnnnnnnnnnnnnnn",
"nnnnnt     X   ennnnnnnnnnnnnnnn",
"nnnnn: Xrrtye  ;nnnnnnnnnnnnnnnn",
"nnnnh..,nnnnb- .hnnnnnnnnnnnnnnn",
"nnnnq  ennnnn9 .0nnnnnnnnnnnnnnn",
"nnnnnnnnnnnnnnnnnnnnnnnnnnnnnnnn",
"nnnnnnnnnnnnnnnnn5555554555nnnnn",
"nnnnnnnnnnnnnnnnnddddddasffnnnnn",
"nnnnnnnnnnnnnnnnnbnnnnnnbnnnnnnn",
"nnnnnnnnnnnnnnnnnnnnnnnnbbnnnnnn",
"nnnnnnnnnnnnnnnnnnnnnnnnbbnnnnnn",
"nnnnnnnnnnnnnnnnnnnnnnnnbnnnnnnn",
"nnnnnnnnnnnnnnnnnnnnnnnnnnnnnnnn",
"nnnnnnnnnnnnnnnnnnnnnnnnnnnnnnnn",
"nnnnnnnnnnnnnnnnnnnnnnnnnnnnnnnn",
"nnnnnnnnnnnnnnnnnnnnnnnnnnnnnnnn",
"nnnnnnnnnnnnnnnnnnnnnnnnnnnnnnnn",
"nnnnnnnnnnnnnnnnnnnnnnnnnnnnnnnn",
"nnnnnnnnnnnnnnnnnnnnnnnnnnnnnnnn"
};
