/* XPM */
static char *icon_save__[] = {
/* columns rows colors chars-per-pixel */
"32 32 126 2",
"   c black",
".  c #010101",
"X  c #020202",
"o  c gray1",
"O  c gray2",
"+  c #060606",
"@  c #070707",
"#  c #0B0B0B",
"$  c #101010",
"%  c #111111",
"&  c #151515",
"*  c #161616",
"=  c gray9",
"-  c #181818",
";  c #191919",
":  c gray11",
">  c gray12",
",  c gray17",
"<  c #2D2D2D",
"1  c #2F2F2F",
"2  c #323232",
"3  c #343434",
"4  c gray22",
"5  c gray23",
"6  c gray24",
"7  c #3E3E3E",
"8  c #3F3F3F",
"9  c #444444",
"0  c gray29",
"q  c #4C4C4C",
"w  c #515151",
"e  c gray32",
"r  c gray33",
"t  c #555555",
"y  c gray34",
"u  c #5D5D5D",
"i  c gray37",
"p  c #606060",
"a  c #626262",
"s  c #646464",
"d  c #676767",
"f  c DimGray",
"g  c #6A6A6A",
"h  c gray42",
"j  c #6C6C6C",
"k  c #6F6F6F",
"l  c #717171",
"z  c gray45",
"x  c #767676",
"c  c #777777",
"v  c gray47",
"b  c gray48",
"n  c #7B7B7B",
"m  c #7C7C7C",
"M  c #808080",
"N  c #838383",
"B  c gray52",
"V  c #888888",
"C  c gray54",
"Z  c #8D8D8D",
"A  c #8E8E8E",
"S  c #909090",
"D  c gray57",
"F  c #929292",
"G  c gray58",
"H  c #959595",
"J  c gray59",
"K  c #989898",
"L  c gray61",
"P  c #9D9D9D",
"I  c gray62",
"U  c #9F9F9F",
"Y  c #A0A0A0",
"T  c #A2A2A2",
"R  c gray64",
"E  c #A9A9A9",
"W  c #AAAAAA",
"Q  c gray67",
"!  c #ACACAC",
"~  c gray68",
"^  c #AFAFAF",
"/  c #B1B1B1",
"(  c #B4B4B4",
")  c gray73",
"_  c #BBBBBB",
"`  c gray74",
"'  c #C0C0C0",
"]  c #C1C1C1",
"[  c gray76",
"{  c #C6C6C6",
"}  c #C8C8C8",
"|  c #CDCDCD",
" . c #CECECE",
".. c gray81",
"X. c gray82",
"o. c LightGray",
"O. c gray83",
"+. c gray84",
"@. c #D7D7D7",
"#. c gray85",
"$. c gray87",
"%. c #DFDFDF",
"&. c gray88",
"*. c gray89",
"=. c #E6E6E6",
"-. c #E7E7E7",
";. c gray91",
":. c #E9E9E9",
">. c #EAEAEA",
",. c gray92",
"<. c #EEEEEE",
"1. c #EFEFEF",
"2. c gray94",
"3. c #F1F1F1",
"4. c #F3F3F3",
"5. c #F4F4F4",
"6. c gray96",
"7. c #F6F6F6",
"8. c #F8F8F8",
"9. c #F9F9F9",
"0. c gray98",
"q. c #FBFBFB",
"w. c gray99",
"e. c #FDFDFD",
"r. c #FEFEFE",
"t. c gray100",
/* pixels */
"M M M M M M M M M M M M M M M M M M M M M M M M M M M M M M M M ",
"M M M M M M M M M M M M M M M M M M M M M M M M M M M M M M M M ",
"M M M M M M M M M M M M M M M M M M M M M M M M M M M M M M M M ",
"M M M M M M M M M M M M M M M M M M M M M M M M M M M M M M M M ",
"M H &.t.q.,.Q M M M M M M M M M M M M M M M M M M M M M M M M M ",
"M ,.t.H p D z t M M M M M M M M M M M M M M M M M M M m M M M M ",
"M t.t.6 6 w 4 q M Q 1.t.t.&.H M o.t.T m A t.,.M B } 4.t.1.( M M ",
"M $.t.t.4.o.D M M I I z M q.o.d I t.T u ` t.f = | t.[ x ! t.B M ",
"M C H | t.t.@.k M ! 1.t.t.t.t.; M =.7.3 ,.7.$ q q.t.t.t.t.t.I t ",
"M M v 6 6 t.q.= M 7.t.z 9 1.t.X M ) t.C t.Q O v q.t.f 9 9 9 1 2 ",
"m 4.[ / { t.| X m 7.t.x ! t.t.X M C q.t.t.4 2 m } t.| D I [ ` f ",
"M o.$.q.q.| 1 ; M Q ,.4.Q =.t.X M M o.t.@.X p M B I &.t.7.#.v 2 ",
"M M 2 $ X O > f M M t # O 6 $ X M M M , X = m M M m 6 $ X O > w ",
"M M M M M M M M M M M M M M M M M M M M M M M M M M M M M M M M ",
"M M M M M M M M M M M M M M M M M M M M M M M M M M M M M M M M ",
"M M M M M M M M M M M M M M M M M M M M M M M M M M M M M M M M ",
"M M M M M M M M M M M M M M M M M M M M M M M M M M M M M M M M ",
"M M M M M M M M M M M M M M M M M M M M M M M M M M M M M M M M ",
"M M M M M M M M M M M M M M M M M M M M M M M M M M M M M M M M ",
"M M M M M M M H t.M M M M M M M H t.M M M M M M M M M M M M M M ",
"M M M M M M M H t.X m M M M M M H t.X m M M M M M M M M M M M M ",
"M M M M M C C I t.= C C M M C C I t.= C C M M M M M M M M M M M ",
"M M M M M t.t.t.t.t.t.t.x m t.t.t.t.t.t.t.x M M M M M M M M M M ",
"M M M M M T 9 p t.9 9 9 X M T 9 p t.9 9 9 X M M M M M M M M M M ",
"M M M M M M u m t.X u u p M M u v t.X u u u M M M M M M M M M M ",
"M M M M M M M H t.X m M M M M M H t.X M M M M M M M M M M M M M ",
"M M M M M M M M f X M M M M M M M f X M M M M M M M M M M M M M ",
"M M M M M M M M M M M M M M M M M M M M M M M M M M M M M M M M ",
"M M M M M M M M M M M M M M M M M M M M M M M M M M M M M M M M ",
"M M M M M M M M M M M M M M M M M M M M M M M M M M M M M M M M ",
"M M M M M M M M M M M M M M M M M M M M M M M M M M M M M M M M ",
"M M M M M M M M M M M M M M M M M M M M M M M M M M M M M M M M "
};
