/* XPM */
static char *icon_rivet[] = {
/* columns rows colors chars-per-pixel */
"32 32 184 2",
"   c #1F291E",
".  c #202C1F",
"X  c #243323",
"o  c #273B25",
"O  c #283D25",
"+  c #275C1F",
"@  c #285D1F",
"#  c #27601F",
"$  c #29611F",
"%  c #2A4425",
"&  c #264B25",
"*  c #2A4B24",
"=  c #255124",
"-  c #295422",
";  c #265B20",
":  c #285B20",
">  c #295728",
",  c #2C5C2C",
"<  c #3D5C3C",
"1  c #256422",
"2  c #2A6521",
"3  c #2D6A24",
"4  c #286029",
"5  c #2A6C2C",
"6  c #2C702D",
"7  c #307127",
"8  c #317128",
"9  c #33782A",
"0  c #3D643D",
"q  c #3D6A3E",
"w  c #3F753F",
"e  c #3D793D",
"r  c #6B4A1D",
"t  c #4F634E",
"y  c #586646",
"u  c #517551",
"i  c #547B53",
"p  c #647563",
"a  c #647E64",
"s  c #8A3F00",
"d  c #8C4003",
"f  c #85410E",
"g  c #8C430C",
"h  c #92440A",
"j  c #8E4911",
"k  c #934B13",
"l  c #9A4B16",
"z  c #924B18",
"x  c #9A4E1A",
"c  c #965116",
"v  c #945323",
"b  c #9B5324",
"n  c #975528",
"m  c #93592B",
"M  c #855832",
"N  c #955F36",
"B  c #A15727",
"V  c #A45828",
"C  c #996036",
"Z  c #96643D",
"A  c #8D6B4F",
"S  c #956B49",
"D  c #9A6E4B",
"F  c #9C714F",
"G  c #926D53",
"H  c #996D51",
"J  c #8B715D",
"K  c #92755E",
"L  c #997559",
"P  c #A57045",
"I  c #A5714F",
"U  c #AC7549",
"Y  c #A26E50",
"T  c #A37354",
"R  c #AB7754",
"E  c #A47853",
"W  c #AA7E56",
"Q  c #A37758",
"!  c #AB7C5A",
"~  c #B07955",
"^  c #8F7560",
"/  c #927661",
"(  c #937863",
")  c #9E7F66",
"_  c #917968",
"`  c #9C7F69",
"'  c #A37D61",
"]  c #A37D69",
"[  c #A87F6A",
"{  c #518451",
"}  c #6C846B",
"|  c #6F8B6E",
" . c #70896E",
".. c #669665",
"X. c #6F946F",
"o. c #718E70",
"O. c #739173",
"+. c #AE805E",
"@. c #BC8252",
"#. c #B3825D",
"$. c #9F8069",
"%. c #8A827D",
"&. c #A68061",
"*. c #A2846C",
"=. c #AA826D",
"-. c #B78361",
";. c #BB8562",
":. c #BA8962",
">. c #B78E6C",
",. c #BA8E6C",
"<. c #BF9068",
"1. c #A78572",
"2. c #A88672",
"3. c #A98B74",
"4. c #B08D72",
"5. c #B29176",
"6. c #BA967B",
"7. c #BC997D",
"8. c #C08757",
"9. c #C28758",
"0. c #C59064",
"q. c #C4936A",
"w. c #C09A7B",
"e. c #D19C71",
"r. c #CFA07A",
"t. c gray53",
"y. c #8C8C8C",
"u. c #908882",
"i. c #8A968A",
"p. c #8B9C8B",
"a. c #949494",
"s. c #9A9A9A",
"d. c #B29781",
"f. c #BA9B82",
"g. c #A29791",
"h. c #A79992",
"j. c #86A287",
"k. c #8CA28E",
"l. c #93A593",
"z. c #9FA59E",
"x. c #A3A3A3",
"c. c #A1A8A1",
"v. c #ABABAB",
"b. c #B3A7A0",
"n. c #B7ABA5",
"m. c #A6B1A6",
"M. c #ABB3AB",
"N. c #B3B3B3",
"B. c #B7B9B7",
"V. c #BCBCBC",
"C. c #C19E82",
"Z. c #CBA486",
"A. c #C3A48B",
"S. c #D6AE8D",
"D. c #C9AB93",
"F. c #D6AF91",
"G. c #C9B09C",
"H. c #DBB191",
"J. c #E6B996",
"K. c #E3BB9B",
"L. c #EABE9C",
"P. c #DEBFA5",
"I. c #D0BBAB",
"U. c #D9BEAA",
"Y. c #BFC0BF",
"T. c #EDC19D",
"R. c #DEC3AE",
"E. c #C0C0BF",
"W. c #DAC8BA",
"Q. c #EAC5A7",
"!. c #E3C3AA",
"~. c #E8C7AB",
"^. c #F2C6A3",
"/. c #E6CBB6",
"(. c #E8CBB5",
"). c #E0CBBB",
"_. c #ECD2BD",
"`. c #C1C1C1",
"'. c #D9CDC3",
"]. c #DFD3CA",
"[. c #E1D1C4",
"{. c #E8D5C6",
"}. c #E6D7CC",
"|. c #ECDACC",
/* pixels */
"`.`.`.`.`.`.`.`.`.`.`.k.k.M.`.`.`.`.`.`.`.`.`.`.`.`.`.`.`.`.`.`.",
"`.`.`.`.`.`.`.`.`.`., + : % `.`.`.`.`.`.`.`.`.`.`.`.`.`.`.`.`.`.",
"`.`.`.`.`.`.`.`.`.`.q + : % `.`.`.`.`.`.`.`.`.`.`.`.`.`.`.`.`.`.",
"`.`.`.`.`.`.`.`.`.`.i : @ - `.`.`.`.`.`.`.`.`.`.`.`.`.`.`.`.`.`.",
"`.`.`.`.`.`.`.`.`.`.q + + = `.`.`.`.`.`.`.`.`.`.`.`.`.`.`.`.`.`.",
"`.`.`.`.`.`.`.`.`.`.q $ + % `.`.`.`.`.`.`.`.`.`.`.`.`.`.`.`.`.`.",
"`.`.`.`.`.`.`.`.`.`.i $ + * `.`.`.`.`.`.`.`.`.`.`.`.`.`.`.`.`.`.",
"`.`.`.`.`.`.`.`.`.`.o.: + , `.E.V.O.: l.`.`.`.`.`.`.`.`.`.`.`.`.",
"`.`.m.V.`.`.`.Y.E.`.| # + , `.O.- > % u `.`.`.`.`.`.`.`.`.`.`.`.",
"`...3 $ # e k.M.`.`.i $ + % + - - % . `.`.`.`.`.`.`.`.`.`.`.`.`.",
"Y.{ $ 2 3 3 3 $ 3 1 5 $ + % - * O p `.`.`.`.`.`.`.`.`.`.`.`.`.`.",
"`.V.} , * + 2 3 3 3 # 7 2 8 + % a `.`.`.`.`.`.`.`.`.`.`.`.`.`.`.",
"`.`.`.`.Y.c.} = : + 3 - 3 7 7 9 3 : 8 u o.V.`.`.`.`.`.`.`.`.`.`.",
"`.`.`.`.`.`.V., 2 + + + - + 3 3 3 3 3 $ 3 : 1 5 l.Y.`.`.`.`.`.`.",
"`.`.`.`.`.{ : 3 - * * X % > , O * @ # 3 3 3 3 3 < V.Y.Y.`.`.`.`.",
"`.`.`.| ; - : - - O X - : q `.`.h.y r r s s s f M b.B.V.V.`.`.`.",
"`.`.e - - - * *   i.| : : 0 `.`.3.z b I E <.W Z n x =.B.B.V.V.I.",
"`.`.5 : : * X X B.`.p.: : 0 `.2.k E S S A K L E #.;.l =.N.B.V.`.",
"`.`.X.: : o t `.`.`.p.2 : 0 n.z T S J ( ( K $.5.Z.q.;.x g.v.B.V.",
"`.`.`.k.5 M.`.`.`.`.p.: - i T b D K J *.5.7.w.Z.H.H.e.V L x.N.B.",
"`.`.`.`.`.`.`.`.`.`.p.: : } v R F $.$.7.S.J.^.^.L.K.Z.! b s.v.N.",
"`.`.`.`.`.`.`.`.`.`.p.: : u d ! L ` P k @.J.@.c 0.Q.H.,.h a.x.N.",
"`.`.`.`.`.`.`.`.`.`.`.X.p.B.s ,.) $.j d d d d d x (.U.Z.s y.s.v.",
"`.`.`.`.`.`.`.`.`.`.`.`.`.E.h ;.&.5.U c 8.T.@.c q.).D.3.z t.s.v.",
"`.`.`.`.`.`.`.`.`.`.`.`.V.V.b ~ ! C.Z.J.L.L.Q._.{.W.7.' m t.a.v.",
"`.`.`.`.`.`.`.`.`.`.`.`.`.V.T V :.S.S.K.!.(._.|.}.'.f.N G y.a.v.",
"`.`.`.`.`.`.`.`.`.`.`.`.`.V.b.x ;.q.S.P.R.).).[.].A.3.m u.y.s.v.",
"`.`.`.`.`.`.`.`.`.`.`.`.`.V.B.[ k ! ,.w.D.I.G.f.f.3.m ^ t.a.x.N.",
"`.`.`.`.`.`.`.`.`.`.`.`.`.`.V.N.] z n T ] d.3.) N n _ y.y.s.v.B.",
"`.`.`.`.`.`.`.`.`.`.`.`.`.`.V.B.N.g.H v g s j m G u.y.y.s.x.N.B.",
"`.`.`.`.`.`.`.`.`.`.`.`.`.`.Y.V.B.v.x.s.a.y.t.y.a.y.a.s.x.N.B.V.",
"`.`.`.`.`.`.`.`.`.`.`.`.`.`.`.`.V.B.N.v.x.s.s.a.s.s.x.x.N.N.V.E."
};
