/* XPM */
static char *icon_renameDupes[] = {
/* columns rows colors chars-per-pixel */
"32 32 117 2",
"   c #222222",
".  c gray15",
"X  c #2D2D2D",
"o  c #2F2F2F",
"O  c gray19",
"+  c #353535",
"@  c #393939",
"#  c #3A3A3A",
"$  c #3C3C3C",
"%  c #3E3E3E",
"&  c #3F3F3F",
"*  c #414141",
"=  c gray26",
"-  c #434343",
";  c #444444",
":  c gray27",
">  c #464646",
",  c gray28",
"<  c #484848",
"1  c #494949",
"2  c gray29",
"3  c #4B4B4B",
"4  c #4E4E4E",
"5  c gray31",
"6  c #505050",
"7  c #515151",
"8  c gray32",
"9  c #535353",
"0  c gray33",
"q  c #555555",
"w  c #565656",
"e  c gray34",
"r  c #585858",
"t  c gray35",
"y  c #5A5A5A",
"u  c #5B5B5B",
"i  c gray36",
"p  c #5D5D5D",
"a  c gray37",
"s  c #5F5F5F",
"d  c #606060",
"f  c gray38",
"g  c #626262",
"h  c gray39",
"j  c #646464",
"k  c #656565",
"l  c gray40",
"z  c #676767",
"x  c #686868",
"c  c DimGray",
"v  c #6A6A6A",
"b  c gray42",
"n  c #6C6C6C",
"m  c #6D6D6D",
"M  c gray43",
"N  c #6F6F6F",
"B  c gray44",
"V  c #717171",
"C  c #727272",
"Z  c gray45",
"A  c gray46",
"S  c #767676",
"D  c #777777",
"F  c gray47",
"G  c #797979",
"H  c gray48",
"J  c #7C7C7C",
"K  c gray49",
"L  c #7F7F7F",
"P  c #808080",
"I  c #818181",
"U  c #838383",
"Y  c #848484",
"T  c gray52",
"R  c #868686",
"E  c gray53",
"W  c #888888",
"Q  c #898989",
"!  c gray54",
"~  c #8B8B8B",
"^  c gray55",
"/  c #8D8D8D",
"(  c #8E8E8E",
")  c gray56",
"_  c #909090",
"`  c gray57",
"'  c #929292",
"]  c #939393",
"[  c gray58",
"{  c #959595",
"}  c gray59",
"|  c #979797",
" . c gray60",
".. c #9A9A9A",
"X. c #9B9B9B",
"o. c gray61",
"O. c #9F9F9F",
"+. c gray63",
"@. c #A5A5A5",
"#. c #AAAAAA",
"$. c #B1B1B1",
"%. c gray70",
"&. c #B7B7B7",
"*. c gray72",
"=. c #C8C8C8",
"-. c gray81",
";. c gray89",
":. c #E4E4E4",
">. c gray92",
",. c #ECECEC",
"<. c #EFEFEF",
"1. c gray94",
"2. c gray98",
"3. c #FBFBFB",
"4. c #FDFDFD",
"5. c #FEFEFE",
"6. c gray100",
/* pixels */
"( ( ( ( ` { { { { { [ ( ( ( ( ( ( ( ( ( ( ( ( ( ( ( ( ( ( ( ( ( ",
"( ( ( ' J e e e e e c _ ( ( ( ( ( ( ( ( ( ( ( ( ( ( ( ( ) ( ( ( ",
"( ( ( Y i $.$.$.$.&.& Q ) ) ( ( ) ) ( ( _ E E ) ) ) / { ! Q ) ( ",
"( ( } q *.6.6.6.6.:.r / ~ Y ' ' L R ' ' E s i ..L R | k   Z ' ( ",
"( _ Y i 3.6.6.6.6.I F , $ = Y M % = Y M * X z C : > L _ > B ' ( ",
"( [ y %.6.6.6.6.;.3 O.$ H k j - ( g j - / 7 c * g * u O.5 N ' ( ",
") W r 6.6.6.6.4.K B X.* W a z - ( g j - / 6 x * p s G ..4 N ' ( ",
"[ y =.6.6.6.6.,.: | } ; R f j V % = Y M * o c C : , L  .7 B ' ( ",
"^ @ ^ _ _ _ _ : J ) ( ~ ( ^ ~ ] L R ' ' P ) ^ ] L R ' ( ~ / ( ( ",
"_ D x z z z z C ) ( ( ) ( ( ( ( ) ) ( ( ) ) ( ( ) ) ( ( ( ( ( ( ",
"( ` ' ' ' ' ' ' ( ( ( ( ( ( ( ( ( ( ( ( ( ( ( ( ( ( ( ( ( ( ( ( ",
"( ( ( ( ( ( ( ( ( ( ( ( ( ( ( ( ( ( ( ( ( ( ( ( ( ( ( ( ( ( ( ( ",
"( ( ( ) ( R R R R R ) ( ( ( ( ( ( ( ( ( ( ( ( ( ( ( ( ( ( ( ( ( ",
"( ( ( ) d t t t t u @ ( ( ( ( ( ( ( ( ( ( ` ` ( ( ( ( _ [ ] ) ( ",
"( ( _ M U 6.6.6.6.6.t / [ { ( ) | { ( ) o.m v [ | { _ H @ 2 ^ ( ",
"( ( [ < 1.6.6.6.6.#.s n y 6 ' W * 9 ' W < , s ) * 9 { b _ w s ` ",
"( ' v Q 5.6.6.6.6.5  .+ 0 y v 2 D w v 2 S O v 3 A 8 a +.V 7 ` ( ",
"( { 1 <.6.6.6.6.@.s o.= ~ s z > ~ f k > ~ x z = # # A F 8 } _ ( ",
"[ z ' 6.6.6.6.2.9 ~  .$ T i g 8 x 5 N 7 x . z 9 b h I @ l V R ) ",
"/ 3 -.>.>.>.>.} d [ ' M ~ H H ` 4 d [ ( 8 N J ` 5 a } b 5 4 K ) ",
") 3 3 > > > > $ / ( / ] ) ` ` ( | { / ( | ' ` ( | { / ] | | _ ( ",
"( } } } } } } | ) ( ( ( ( ( ( ( ( ( ( ( ( ( ( ( ( ( ( ( ( ( ( ( ",
"( ( ( ( ( ( ( ( ( ( ( ( ( ( ( ( ( ( ( ( ( ( ( ( ( ( ( ( ( ( ( ( ",
"( ( ( ( ( ( ( ( ( ( ( ( ( ( ( ( ( ( ( ( ( ( ( ( ( ( ( ( ( ( ( ( ",
"( ( ( ( ( ( ( ( ( ( ( ( ( ( ( ( ( ( ( ( ( ( ( ( ( ( ( ( ( ( ( ( ",
"( ( ( ( ( ( ( ( ( ( ( ( ( ( ( ( ( ( ( ( ( ( ( ( ( ( ( ( ( ( ( ( ",
"( ( ( ( ( ( ( ( ( ( ( ( ( ( ( ( ( ( ( ( ( ( ( ( ( ( ( ( ( ( ( ( ",
"( ( ( ( ( ( ( ( ( ( ( ( ( ( ( ( ( ( ( ( ( ( ( ( ( ( ( ( ( ( ( ( ",
"( ( ( ( ( ( ( ( ( ( ( ( ( ( ( ( ( ( ( ( ( ( ( ( ( ( ( ( ( ( ( ( ",
"( ( ( ( ( ( ( ( ( ( ( ( ( ( ( ( ( ( ( ( ( ( ( ( ( ( ( ( ( ( ( ( ",
"( ( ( ( ( ( ( ( ( ( ( ( ( ( ( ( ( ( ( ( ( ( ( ( ( ( ( ( ( ( ( ( ",
"( ( ( ( ( ( ( ( ( ( ( ( ( ( ( ( ( ( ( ( ( ( ( ( ( ( ( ( ( ( ( ( "
};
