/* XPM */
static char *saveNewScene[] = {
/* columns rows colors chars-per-pixel */
"32 32 75 1",
"  c #000000",
". c #080704",
"X c #0B0A07",
"o c #0C0B09",
"O c #100F0C",
"+ c #12110E",
"@ c #161512",
"# c #181714",
"$ c #1A1916",
"% c #1D1C1B",
"& c #201F1D",
"* c #22211E",
"= c #242321",
"- c #2A2927",
"; c #2D2C2C",
": c #343332",
"> c #393835",
", c #3C3B3A",
"< c #403F3E",
"1 c #454443",
"2 c #4A4946",
"3 c #4D4C4A",
"4 c #504F4D",
"5 c #52514F",
"6 c #545352",
"7 c #585654",
"8 c #5A5956",
"9 c #5C5B59",
"0 c #666664",
"q c #686765",
"w c #6E6C67",
"e c #6F6D69",
"r c #716F6A",
"t c #74726D",
"y c #767570",
"u c #797772",
"i c #7B7A75",
"p c #7E7D79",
"a c #807F7A",
"s c #83827D",
"d c #868481",
"f c #898782",
"g c #8B8A86",
"h c #8E8C8A",
"j c #918F8B",
"k c #92918E",
"l c #959491",
"z c #989693",
"x c #9A9996",
"c c #9E9D99",
"v c #A09F9C",
"b c #A2A19E",
"n c #A6A4A1",
"m c #A9A7A3",
"M c #AAA9A6",
"N c #ADACAA",
"B c #B0AFAC",
"V c #B2B1AE",
"C c #B5B4B1",
"Z c #B8B7B5",
"A c #BAB9B6",
"S c #BDBCBA",
"D c #C0BFBD",
"F c #C1C1BE",
"G c #C5C4C2",
"H c #C8C7C5",
"J c #C9C8C6",
"K c #CDCCCA",
"L c #D0CFCD",
"P c #D1D0CE",
"I c #D4D3D2",
"U c #D9D9D7",
"Y c #DEDDDC",
"T c #E2E2E1",
"R c None",
/* pixels */
"ZTTYYYYYYYYYYYYYYYYYYYYYYYYYYTTC",
"TCZZAASSDFFGGGHHJJJKKKKKKKKKKKKT",
"UVCCCZAASSSFFGGGGHJJJKKKKKKKKKKY",
"INNCZSSAAASFGGGGHJJHJKKKPIIIIPKY",
"IMBx5,2gAZSi11cGp3hHJt6M66677lLY",
"Imc+.>oojCS-@@9Gl%6HJ;=K==666lKU",
"Kbd $dp0hCco2%%GG=$Sz%7P*=IIIKKU",
"JcM1   :zC9Xy6OhS8@lq$gK%&*==nJU",
"Sxkfhy; ,Z%.-*o6Ab+8;*GG$%uiiCGI",
"Ahq =g9 ,x  ...@AA=%+7SF#$bnbCGI",
"Zyv;   $k5 6CZ=.aC8oolCS@@@#$tFL",
"CwsckaanbfskbnhdzMnhhVNCklzxxNSK",
"VwwskllllxxxxcvbbbnmMMMNBVCCCCZJ",
"NwwwijjklcvbbbnmmMMMNNNMMMNNBVVG",
"Mwwwwtfhx;;;;;;;;;;;;;;hmmmMNNNF",
"mwwwwwwuz sippppppd1   dnbnnmMMS",
"bwwwwwwws xkkkllzzv9   dvcvbnnmA",
"vwwwweees gisgkzzxb8  0xcxccvbbC",
"ceeeerrrs 333332235-  <gkkggggdn",
"xrrrrrrtd     X11X     qyrrrrrrx",
"lrrtttttf     tsst     euttttrrl",
"ktttttttf     kiik     eittttttk",
"jttttyyug     8hh8     riyyttttj",
"httyyuuuh      %%      tpuuyytth",
"gtyuuuiih      :5      taiuuuytg",
"fyuuiiiij      6i      ysiiiuuyf",
"duuiiippk      6p      yspiiiuud",
"suiiippaj      %:      tsppiiius",
"aiiippaag36666655666664psappiiia",
"iiipaasssfggggggggggggfdssaapiii",
"tipaassssssssssssssssssssssaapir",
"RrssssssddddddddddddddddsssssseR"
};
