/* XPM */
static char *kmh[] = {
/* columns rows colors chars-per-pixel */
"32 32 192 2 ",
"   c #000000",
".  c #030608",
"X  c #04090B",
"o  c #0A161B",
"O  c #0D181E",
"+  c #0E1D25",
"@  c #10252E",
"#  c #132D39",
"$  c #163544",
"%  c #1B3947",
"&  c #14384A",
"*  c #1A3A4A",
"=  c #203F4E",
"-  c #21404F",
";  c #254655",
":  c #274856",
">  c #294957",
",  c #234A5C",
"<  c #1D4C60",
"1  c #264D60",
"2  c #23556E",
"3  c #315A6B",
"4  c #325E76",
"5  c #356881",
"6  c #397795",
"7  c #337A99",
"8  c #2D7BAC",
"9  c #317EAE",
"0  c #3B7CAD",
"q  c #2C7DB1",
"w  c #337EB0",
"e  c #417D9D",
"r  c #3C83A5",
"t  c #3183AB",
"y  c #3689AB",
"u  c #3C8CAE",
"i  c #2D84B6",
"p  c #3282B5",
"a  c #3483B9",
"s  c #358CBA",
"d  c #3C8ABC",
"f  c #3E91B3",
"g  c #3D91BA",
"h  c #49829B",
"j  c #4E86AD",
"k  c #438BAB",
"l  c #5B87A9",
"z  c #4786B3",
"x  c #468CBE",
"c  c #4A8CBD",
"v  c #528AB2",
"b  c #5C8DB3",
"n  c #4394B7",
"m  c #4991B2",
"M  c #4295BA",
"N  c #479ABC",
"B  c #4B9EBF",
"V  c #5294B4",
"C  c #5591BA",
"Z  c #7583A1",
"A  c #6794B5",
"S  c #6A95B6",
"D  c #6095BB",
"F  c #6A9CBF",
"G  c #789FBD",
"H  c #74A0BF",
"J  c #7CA1BD",
"K  c #448EC2",
"L  c #4D8FC0",
"P  c #4494C5",
"I  c #4E92C4",
"U  c #4A9BC2",
"Y  c #4696CA",
"T  c #4A95C9",
"R  c #4A9CCB",
"E  c #5196C8",
"W  c #4D9DD1",
"Q  c #639BC3",
"!  c #6C9EC4",
"~  c #4EA1C3",
"^  c #50A4C5",
"/  c #54A5C9",
"(  c #54A9CC",
")  c #53A4D5",
"_  c #55ABD5",
"`  c #59AED3",
"'  c #55A6D9",
"]  c #5AA5DA",
"[  c #56AADA",
"{  c #5BABDC",
"}  c #5EB3D7",
"|  c #5DB2DC",
" . c #64A0CC",
".. c #70A0C4",
"X. c #7BA4C4",
"o. c #7FA9C7",
"O. c #72A5C8",
"+. c #79A7CA",
"@. c #7CAACB",
"#. c #64A2D4",
"$. c #6AA5D1",
"%. c #66A7D8",
"&. c #64ACDD",
"*. c #69AADA",
"=. c #76ABD1",
"-. c #6BB0D1",
";. c #62B4DE",
":. c #69B5DB",
">. c #65B9DF",
",. c #6AB9DD",
"<. c #7FB1D5",
"1. c #72B3DF",
"2. c #7BB4DF",
"3. c #6DB3E0",
"4. c #66BAE0",
"5. c #6ABDE1",
"6. c #75B5E1",
"7. c #73BCE3",
"8. c #7CBAE2",
"9. c #6DC1E1",
"0. c #75C0E4",
"q. c #7BC1E4",
"w. c #8187A1",
"e. c #9097A9",
"r. c #85A6BE",
"t. c #8FA2BB",
"y. c #92ACBF",
"u. c #83A7C2",
"i. c #86AAC4",
"p. c #8AAAC3",
"a. c #84ADC9",
"s. c #8AAEC9",
"d. c #91A7C1",
"f. c #91AEC3",
"g. c #8FB0C6",
"h. c #96B0C5",
"j. c #92B3CB",
"k. c #99B5CB",
"l. c #82AFD2",
"z. c #83B0D3",
"x. c #8AB4D3",
"c. c #83B6DC",
"v. c #8BB7D9",
"b. c #86B9DE",
"n. c #8ABADE",
"m. c #95B8D2",
"M. c #9ABAD2",
"N. c #93BCDB",
"B. c #98BEDA",
"V. c #A1BACC",
"C. c #A1BED3",
"Z. c #83BBE3",
"A. c #8CBEE2",
"S. c #91BEE0",
"D. c #9CC1DD",
"F. c #A5C1D6",
"G. c #AAC3D5",
"H. c #A4C4DC",
"J. c #ADC6DA",
"K. c #ADCADD",
"L. c #BDCCD7",
"P. c #B3CBDD",
"I. c #83C2E6",
"U. c #8CC1E6",
"Y. c #94C1E3",
"T. c #9BC5E3",
"R. c #9DC8E5",
"E. c #96C8E9",
"W. c #A2C7E2",
"Q. c #A4C9E5",
"!. c #ABCDE6",
"~. c #ADCFE8",
"^. c #B3CDE1",
"/. c #B9CFE1",
"(. c #AED0EA",
"). c #B4D0E5",
"_. c #BCD4E6",
"`. c #B3D3EA",
"'. c #BAD6EC",
"]. c #BED9ED",
"[. c #C4D3DE",
"{. c #C3DCEE",
"}. c #D6DFE6",
"|. c #C7DEF0",
" X c #C9DFF0",
".X c #D8E0E7",
"XX c #D3E2ED",
"oX c #CCE1F1",
"OX c #D3E5F2",
"+X c #D9E7F3",
"@X c #DBEAF5",
"#X c #E2ECF3",
/* pixels */
"}.#X#X+X+X+X+X@X+X@X@X@X@XXX[.L.L.[.+X@X@X@X@X@X@X@X@X@X@X@X#X.X",
"#X~.(.(.`.`.'.'.'.'.M.F.'.'./.)./._.'._.V.P.oXoXoXoX X XoX XoX#X",
"OX!.~.~.(.(.(.`.h.).~.K.P.P.^.^.^.P.P.P.P._.J./.|.oX|.|. X X X+X",
"OXQ.!.!.!.(.M.~.!.H.H.^.M.p.J r.r.r.h.J.P.P.P./.G.|.|.oX X X X+X",
"OXQ.Q.Q.!.u.!.B.B.!.r.i.H.Q.!.W.~.).).K.p.V./.P.P.P._.|. X X X+X",
"oXT.R.W.u.Q.B.T.m.X.Q.W.Q.Q.Q.W.~.!.!.~.`.).r.K.J.J.J.'.{. X{.@X",
" XT.T.N.T.N.D.S x.B.i.W.Q.Q.Q.!.!.!.!.~.~.`.'.g.h.J.G.G.{.{.{.@X",
"{.S.Y.v.x.N.A D.T.B.T.B.W.Q.Q.Q.!.!.!.(.M.).`.'.K.k.G.G.y.{.{.OX",
"'.S.l.v.x.x.+.S.B.T.T.T.W.T.Q.Q.Q.!.!.~.~.`.`.`.`.r.F.C.F.'.{.OX",
"`.c.+.z.v.b S.S.S.S.B.T.T.T.T.Q.Q.Q.!.!.!.~.(.(.`.`.r.M.C.f.'.oX",
"(.#.l.<...c.l.l.S.S.S.T.S.Q.T.W.Q.Q.Q.Q.!.!.!.(.(.p.m.M.k.k.'. X",
"~.0  .l.j n.n.A.S.A.w.N.W.S.S.W.T.T.W.Q.Q.Q.Q.!.!.!.!.u.j.M.K. X",
"~.c E $.! b.b.n.n.A.A.Z d.N.S.S.S.T.T.T.Q.T.Q.Q.Q.Q.!.G j.j.r.{.",
"Q.I E L #.b.b.Z.n.n.b.<.Z t.e.t.S.T.S.T.E.R.R.R.R.W.R.z.s.i.G {.",
"Q.L E 0 #.%.2.c.b.c.Z.b.! Z l ! ! ..E.A.Y.Y.Y.R.R.R.R.N.a.i.J ].",
"R.K E 0 E K E *.2.Z.Z.Z.b.S Q D b b A.A.U.S.S.U.U.+.@.S.a.o.X.'.",
"T.K E w ] ] ] ] ] &.6.Z.Z.Z.j v v Q Z.Z.Z.U.U.U.U.U.U.b.@.+.H `.",
"S.K T K ) ] ] ] ] ] ] ] &.3.1.C  .Z.Z.Z.Z.Z.Z.Z.I.I.U.=.O.F A (.",
"U.K T T K ] ] [ ] ] { { ] { ] ] { { 3.3.3.3.3.6.8.8.3.x z C z E.",
"I.w P Y q ] ] | { { { { ] { { { { ] ] ' ' { ' ' ' ) ] a q d W I.",
"I.] d Y d [ T ) { { { { { { { { { { [ { [ { [ R P [ Y p q d { I.",
"q.{ K Y P i { { { { { ;.{ | { { { { [ [ [ [ _ _ _ P p 9 w 8 { q.",
"0.{ W s   * W 4   4 { .   e | e .   { [ [ o U   - s w   * { &.q.",
"0.| &.s   * 2   3 { |     = | =     | [ 6 # [   * g t   & ;.| 0.",
"0.;.;._   o   & ` ;.|   + X / X +   [ | 1 5 `   * t t   ; ;.&.0.",
"5.;.;.;.      r g ^ U   : O % o :   | | O n g     . .   ; ;.;.5.",
"7.;.4.;.  + . o u n g   > 3   3 >   4.V @ U t   # k m   : ;.;.7.",
"5.;.4.4.  : 6 . + u g   * 7   r =   M , < u y   & ;.4.  : ;.4.5.",
",.>.4.4.  > 5.h   @ u   % f f u $   u o 7 M g   > 5.4.  : 4.>.,.",
",.4.4.5.5.4.5.5.9.9.N u n f u f u f n N y ^ 9.9.5.5.5.4.4.4.4.:.",
"-.4.>.} ` ( / ^ ^ ~ ~ ~ ~ N n n f n B ^ ~ ~ ~ ~ ^ ( ( ` } >.4.-.",
"K.-.4.5.9.9.9.9.9.9.9.9.9.9.9.9.9.9.9.9.9.9.9.9.9.9.9.9.5.4.-.K."
};
