/* XPM */
static char * lightOn_xpm[] = {
"32 32 936 2",
"  	c None",
". 	c #6B6B6B",
"+ 	c #AEAEAE",
"@ 	c #BCBCBC",
"# 	c #B6B6B6",
"$ 	c #B7B7B7",
"% 	c #B8B8B8",
"& 	c #B9B8B8",
"* 	c #BBB9B9",
"= 	c #BFBCBB",
"- 	c #C0BCBB",
"; 	c #C1BCBB",
"> 	c #C2BCBB",
", 	c #C4BDBC",
"' 	c #C4BEBD",
") 	c #C2BEBD",
"! 	c #C1BEBD",
"~ 	c #C0BDBD",
"{ 	c #BFBDBD",
"] 	c #BEBDBD",
"^ 	c #BDBDBD",
"/ 	c #BFBFBF",
"( 	c #696969",
"_ 	c #B5B5B5",
": 	c #898989",
"< 	c #8C8C8C",
"[ 	c #8E8E8E",
"} 	c #909090",
"| 	c #929292",
"1 	c #979595",
"2 	c #9B9897",
"3 	c #A19B9A",
"4 	c #A69C9B",
"5 	c #AA9F9D",
"6 	c #ADA19F",
"7 	c #B1A3A1",
"8 	c #B5A6A4",
"9 	c #B7A8A5",
"0 	c #B8A9A6",
"a 	c #B9AAA8",
"b 	c #B9ACAA",
"c 	c #B9ADAB",
"d 	c #B9AFAD",
"e 	c #B8AFAE",
"f 	c #B6B0AF",
"g 	c #B5B1B0",
"h 	c #B3B0B0",
"i 	c #B1B0B0",
"j 	c #B0B0B0",
"k 	c #B3B3B3",
"l 	c #ABABAB",
"m 	c #838383",
"n 	c #858484",
"o 	c #878686",
"p 	c #8B8989",
"q 	c #918D8C",
"r 	c #968F8E",
"s 	c #9C9290",
"t 	c #A29492",
"u 	c #A99895",
"v 	c #AD9A97",
"w 	c #B19C99",
"x 	c #B49E9B",
"y 	c #B7A19D",
"z 	c #BAA39F",
"A 	c #BCA5A1",
"B 	c #BDA7A3",
"C 	c #BCA7A4",
"D 	c #BCA9A6",
"E 	c #BCABA8",
"F 	c #BAABA9",
"G 	c #BAADAB",
"H 	c #B8AEAC",
"I 	c #B7AFAE",
"J 	c #B4B0AF",
"K 	c #B1AFAF",
"L 	c #B0AFAF",
"M 	c #AAA9A9",
"N 	c #7C7B7B",
"O 	c #7F7E7E",
"P 	c #838181",
"Q 	c #898483",
"R 	c #908685",
"S 	c #998A88",
"T 	c #9F8D8A",
"U 	c #A5908D",
"V 	c #AB938F",
"W 	c #B09591",
"X 	c #B49893",
"Y 	c #B89B96",
"Z 	c #BC9D98",
"` 	c #BE9F9A",
" .	c #C0A19C",
"..	c #C1A39E",
"+.	c #C0A4A0",
"@.	c #C0A6A2",
"#.	c #BFA8A4",
"$.	c #BDA8A5",
"%.	c #BCAAA7",
"&.	c #BBABA9",
"*.	c #B8ACAA",
"=.	c #B6ADAC",
"-.	c #B3AEAD",
";.	c #B1AEAE",
">.	c #B5B4B4",
",.	c #A7A6A6",
"'.	c #767575",
").	c #7A7878",
"!.	c #817B7A",
"~.	c #8B7E7C",
"{.	c #94827F",
"].	c #9C8682",
"^.	c #A38884",
"/.	c #A98B86",
"(.	c #AF8E89",
"_.	c #B5918B",
":.	c #BA948E",
"<.	c #BD9690",
"[.	c #C09892",
"}.	c #C39B95",
"|.	c #C59D97",
"1.	c #C59F99",
"2.	c #C5A19B",
"3.	c #C4A29D",
"4.	c #C3A49F",
"5.	c #C2A5A1",
"6.	c #C1A7A3",
"7.	c #BEA7A4",
"8.	c #BBA9A6",
"9.	c #B5AAA9",
"0.	c #B2ACAB",
"a.	c #AFACAC",
"b.	c #AEADAD",
"c.	c #B8B7B7",
"d.	c #A5A3A3",
"e.	c #726F6F",
"f.	c #787271",
"g.	c #837573",
"h.	c #8D7976",
"i.	c #967D79",
"j.	c #9F807B",
"k.	c #A6837D",
"l.	c #AD8680",
"m.	c #B38A83",
"n.	c #B88C85",
"o.	c #BE8F87",
"p.	c #C3928A",
"q.	c #C6948C",
"r.	c #C9978F",
"s.	c #CA9991",
"t.	c #CA9B93",
"u.	c #CA9D96",
"v.	c #C99F98",
"w.	c #C79F99",
"x.	c #C5A29C",
"y.	c #C3A39E",
"z.	c #C1A4A0",
"A.	c #BEA6A2",
"B.	c #BBA7A4",
"C.	c #B7A7A5",
"D.	c #B3A8A7",
"E.	c #B0A9A8",
"F.	c #ADAAAA",
"G.	c #ADABAB",
"H.	c #B4B3B3",
"I.	c #9D9B9B",
"J.	c #6E6968",
"K.	c #7A6D6B",
"L.	c #84706D",
"M.	c #8F736F",
"N.	c #987772",
"O.	c #A27B75",
"P.	c #AA7E77",
"Q.	c #B1827A",
"R.	c #B8847C",
"S.	c #BE887F",
"T.	c #C48A81",
"U.	c #C88D84",
"V.	c #CC9086",
"W.	c #BD827B",
"X.	c #C0857E",
"Y.	c #BF8780",
"Z.	c #CA948B",
"`.	c #CE9A92",
" +	c #CC9C94",
".+	c #CA9E97",
"++	c #C29F9A",
"@+	c #BFA29D",
"#+	c #BCA39F",
"$+	c #B8A4A1",
"%+	c #B5A5A3",
"&+	c #B0A6A4",
"*+	c #ADA7A6",
"=+	c #AAA7A7",
"-+	c #ABA9A9",
";+	c #908D8D",
">+	c #6E6362",
",+	c #7A6764",
"'+	c #866B67",
")+	c #916E69",
"!+	c #9D736C",
"~+	c #A6766F",
"{+	c #AE7870",
"]+	c #B77C73",
"^+	c #BF8076",
"/+	c #C58479",
"(+	c #B5716A",
"_+	c #AF6664",
":+	c #B16464",
"<+	c #B96B6B",
"[+	c #BC6E6E",
"}+	c #BA6F6F",
"|+	c #B36E6E",
"1+	c #AF706E",
"2+	c #B87F7A",
"3+	c #C9958C",
"4+	c #CA9A93",
"5+	c #C59C95",
"6+	c #C29E98",
"7+	c #BD9E99",
"8+	c #B99F9B",
"9+	c #B4A09D",
"0+	c #B1A2A0",
"a+	c #ADA3A2",
"b+	c #AAA5A4",
"c+	c #A7A5A5",
"d+	c #AEACAC",
"e+	c #807A79",
"f+	c #6E5D5B",
"g+	c #7C635F",
"h+	c #886661",
"i+	c #956B63",
"j+	c #9F6D64",
"k+	c #A97167",
"l+	c #B37469",
"m+	c #BD786C",
"n+	c #BD7469",
"o+	c #AE5D59",
"p+	c #BA605F",
"q+	c #CB6B6A",
"r+	c #D67473",
"s+	c #DC7877",
"t+	c #DE7C7B",
"u+	c #DD7F7D",
"v+	c #D77E7D",
"w+	c #CE7978",
"x+	c #BF7372",
"y+	c #AF6F6C",
"z+	c #BF877F",
"A+	c #C9978E",
"B+	c #C39890",
"C+	c #BF9A93",
"D+	c #BB9B95",
"E+	c #B79D99",
"F+	c #B19D9A",
"G+	c #AD9E9C",
"H+	c #A89F9E",
"I+	c #A4A0A0",
"J+	c #A8A6A6",
"K+	c #7B716F",
"L+	c #5F4743",
"M+	c #7D5E58",
"N+	c #8A615A",
"O+	c #97655C",
"P+	c #A3695F",
"Q+	c #AE6C61",
"R+	c #BA7063",
"S+	c #B9695E",
"T+	c #AE5251",
"U+	c #C75F5E",
"V+	c #DB6A6A",
"W+	c #E87372",
"X+	c #EF7A79",
"Y+	c #F37E7D",
"Z+	c #F58281",
"`+	c #F48483",
" @	c #F08584",
".@	c #E98382",
"+@	c #DE807F",
"@@	c #CC7776",
"#@	c #B36A69",
"$@	c #B87E76",
"%@	c #C8948B",
"&@	c #C1958D",
"*@	c #BD968F",
"=@	c #B79791",
"-@	c #B19994",
";@	c #AC9A96",
">@	c #A69A98",
",@	c #A29C9B",
"'@	c #A4A1A1",
")@	c #7D6D6A",
"!@	c #48241F",
"~@	c #7E5852",
"{@	c #8C5C55",
"]@	c #996057",
"^@	c #A56359",
"/@	c #B2675B",
"(@	c #BB685B",
"_@	c #AC4A4A",
":@	c #CA5858",
"<@	c #E26464",
"[@	c #F16D6D",
"}@	c #F87373",
"|@	c #FD7979",
"1@	c #FE7C7C",
"2@	c #FF7E7E",
"3@	c #FE8181",
"4@	c #FD8484",
"5@	c #FA8484",
"6@	c #F38484",
"7@	c #E67F7F",
"8@	c #D17676",
"9@	c #B36767",
"0@	c #BC7F78",
"a@	c #C48F87",
"b@	c #BD9089",
"c@	c #B7928C",
"d@	c #B1928E",
"e@	c #AB9390",
"f@	c #A59592",
"g@	c #A09795",
"h@	c #A09C9B",
"i@	c #7A6663",
"j@	c #451A14",
"k@	c #68352D",
"l@	c #8E574E",
"m@	c #9B5B50",
"n@	c #A85F53",
"o@	c #B66355",
"p@	c #AB4B45",
"q@	c #C54D4C",
"r@	c #E05B5A",
"s@	c #F26564",
"t@	c #FB6B6A",
"u@	c #FE706F",
"v@	c #FF7271",
"w@	c #FF7473",
"x@	c #FF7876",
"y@	c #FF7B7A",
"z@	c #FF7D7C",
"A@	c #FE7F7E",
"B@	c #FC8180",
"C@	c #F58180",
"D@	c #E67C7A",
"E@	c #CC6F6E",
"F@	c #AE6462",
"G@	c #C2867D",
"H@	c #BE8B82",
"I@	c #B78B84",
"J@	c #B08D88",
"K@	c #A98E8A",
"L@	c #A4908D",
"M@	c #9D908F",
"N@	c #9A9393",
"O@	c #78605C",
"P@	c #4B1B13",
"Q@	c #5C1E13",
"R@	c #813C31",
"S@	c #9E574C",
"T@	c #AC5A4D",
"U@	c #B25649",
"V@	c #B64141",
"W@	c #D74F4F",
"X@	c #EF5B5B",
"Y@	c #FB6161",
"Z@	c #FE6464",
"`@	c #FF6868",
" #	c #FF6A6A",
".#	c #FF6D6D",
"+#	c #FF6F6F",
"@#	c #FF7272",
"##	c #FF7575",
"$#	c #FF7878",
"%#	c #FE7B7B",
"&#	c #FC7C7C",
"*#	c #F37A7A",
"=#	c #DE7272",
"-#	c #BF6464",
";#	c #B26E67",
">#	c #BE847B",
",#	c #B6857E",
"'#	c #B08881",
")#	c #A88883",
"!#	c #A18985",
"~#	c #9A8B88",
"{#	c #978E8C",
"]#	c #765A56",
"^#	c #501B13",
"/#	c #621D13",
"(#	c #732013",
"_#	c #91392B",
":#	c #AE5647",
"<#	c #AA433C",
"[#	c #C54342",
"}#	c #E44F4E",
"|#	c #F75756",
"1#	c #FE5D5B",
"2#	c #FF5F5E",
"3#	c #FF6261",
"4#	c #FF6362",
"5#	c #FF6664",
"6#	c #FF6968",
"7#	c #FF6B6A",
"8#	c #FF6F6D",
"9#	c #FF7170",
"0#	c #FF7372",
"a#	c #FE7675",
"b#	c #FA7776",
"c#	c #E9706F",
"d#	c #CE6665",
"e#	c #AD5D5A",
"f#	c #BF7F75",
"g#	c #B68078",
"h#	c #AE817A",
"i#	c #A6827D",
"j#	c #9F837F",
"k#	c #978482",
"l#	c #908684",
"m#	c #765652",
"n#	c #541B12",
"o#	c #651E12",
"p#	c #772012",
"q#	c #892312",
"r#	c #9F311E",
"s#	c #AD3531",
"t#	c #D04241",
"u#	c #EC4D4C",
"v#	c #FB5554",
"w#	c #FF5756",
"x#	c #FF5958",
"y#	c #FF5B5A",
"z#	c #FF5E5D",
"A#	c #FF605F",
"B#	c #FF6463",
"C#	c #FF6766",
"D#	c #FF6A69",
"E#	c #FF6C6B",
"F#	c #FD7170",
"G#	c #F06D6C",
"H#	c #D76563",
"I#	c #B35656",
"J#	c #BB756A",
"K#	c #B57A70",
"L#	c #AD7B73",
"M#	c #A57D76",
"N#	c #9C7C77",
"O#	c #947E7B",
"P#	c #8B7C7B",
"Q#	c #75534D",
"R#	c #571B12",
"S#	c #681E12",
"T#	c #791F12",
"U#	c #8B2212",
"V#	c #9D2512",
"W#	c #B00E0E",
"X#	c #D62121",
"Y#	c #EF4040",
"Z#	c #FE4F4F",
"`#	c #FF5151",
" $	c #FF5353",
".$	c #FF5656",
"+$	c #FF5757",
"@$	c #FF5959",
"#$	c #FF5B5B",
"$$	c #FF5E5E",
"%$	c #FF6060",
"&$	c #FF6262",
"*$	c #FF6464",
"=$	c #FE6A6A",
"-$	c #F46868",
";$	c #DD6060",
">$	c #BA5353",
",$	c #B2655D",
"'$	c #B4746A",
")$	c #AA746C",
"!$	c #A1756E",
"~$	c #997671",
"{$	c #917874",
"]$	c #867573",
"^$	c #744E49",
"/$	c #571A11",
"($	c #691D11",
"_$	c #7A1F11",
":$	c #8C2211",
"<$	c #9D2511",
"[$	c #B20F0E",
"}$	c #D71211",
"|$	c #F11413",
"1$	c #FE2726",
"2$	c #FF403F",
"3$	c #FF504F",
"4$	c #FF5150",
"5$	c #FF5352",
"6$	c #FF5553",
"7$	c #FF6160",
"8$	c #FE6463",
"9$	c #F56362",
"0$	c #DE5C5B",
"a$	c #BC4F4E",
"b$	c #B16258",
"c$	c #B16D62",
"d$	c #A76E65",
"e$	c #9F6F68",
"f$	c #95706B",
"g$	c #8C706D",
"h$	c #806C6B",
"i$	c #704944",
"j$	c #581B12",
"k$	c #691E12",
"l$	c #7A2011",
"m$	c #8B2211",
"n$	c #9D2411",
"o$	c #AF0E0D",
"p$	c #D51110",
"q$	c #EF1312",
"r$	c #FD1413",
"s$	c #FF1514",
"t$	c #FF1A19",
"u$	c #FF2927",
"v$	c #FF3837",
"w$	c #FF4645",
"x$	c #FF5655",
"y$	c #FF5A59",
"z$	c #FF5D5B",
"A$	c #FE5E5D",
"B$	c #F35B5A",
"C$	c #DC5453",
"D$	c #B94948",
"E$	c #AD5B51",
"F$	c #AE695D",
"G$	c #A3685F",
"H$	c #9A6962",
"I$	c #916A64",
"J$	c #886B67",
"K$	c #796462",
"L$	c #6A433E",
"M$	c #551B12",
"N$	c #661D12",
"O$	c #782012",
"P$	c #892313",
"Q$	c #9A2613",
"R$	c #A8150F",
"S$	c #CE1313",
"T$	c #EA1615",
"U$	c #FB1817",
"V$	c #FE1817",
"W$	c #FF1918",
"X$	c #FF2221",
"Y$	c #FF2726",
"Z$	c #FF3231",
"`$	c #FF3B3A",
" %	c #FF3F3E",
".%	c #FC3E3D",
"+%	c #EF3C3B",
"@%	c #D64342",
"#%	c #B03938",
"$%	c #AD5749",
"%%	c #9A4A3D",
"&%	c #8C493E",
"*%	c #7F473E",
"=%	c #734640",
"-%	c #5C3C37",
";%	c #5F4B49",
">%	c #65413C",
",%	c #531C13",
"'%	c #641E13",
")%	c #752013",
"!%	c #862314",
"~%	c #962715",
"{%	c #A11D13",
"]%	c #C21413",
"^%	c #E21817",
"/%	c #F51A19",
"(%	c #FE1C1B",
"_%	c #FF1C1B",
":%	c #FF1D1C",
"<%	c #F81B1A",
"[%	c #E71818",
"}%	c #CB1515",
"|%	c #A31912",
"1%	c #902716",
"2%	c #7F2315",
"3%	c #6E2014",
"4%	c #5D1D13",
"5%	c #4C1B14",
"6%	c #3C1814",
"7%	c #523E3C",
"8%	c #603C38",
"9%	c #521C15",
"0%	c #621F14",
"a%	c #732215",
"b%	c #812516",
"c%	c #922817",
"d%	c #9F2817",
"e%	c #B11513",
"f%	c #D41B18",
"g%	c #EC1F1C",
"h%	c #F9211F",
"i%	c #FE2321",
"j%	c #FF2321",
"k%	c #FF2422",
"l%	c #FB2220",
"m%	c #F1201E",
"n%	c #DA1C1A",
"o%	c #BA1715",
"p%	c #982216",
"q%	c #8C2818",
"r%	c #7C2517",
"s%	c #6D2216",
"t%	c #5C1F16",
"u%	c #4B1B15",
"v%	c #3B1915",
"w%	c #4E3B38",
"x%	c #593833",
"y%	c #501E16",
"z%	c #5E2017",
"A%	c #6F2318",
"B%	c #7D2619",
"C%	c #8D2A1A",
"D%	c #9C2D1B",
"E%	c #A22419",
"F%	c #BF1A19",
"G%	c #DC201E",
"H%	c #EF2422",
"I%	c #FA2523",
"J%	c #FE2725",
"K%	c #FF2926",
"L%	c #FE2926",
"M%	c #FB2624",
"N%	c #F22422",
"O%	c #E22220",
"P%	c #C61D1B",
"Q%	c #A51E17",
"R%	c #962E1D",
"S%	c #862A1C",
"T%	c #79271B",
"U%	c #692319",
"V%	c #592118",
"W%	c #491D17",
"X%	c #381A16",
"Y%	c #493534",
"Z%	c #523330",
"`%	c #4C1D17",
" &	c #5A2118",
".&	c #69251A",
"+&	c #7A291C",
"@&	c #882B1D",
"#&	c #962F1F",
"$&	c #A33220",
"%&	c #A71E1A",
"&&	c #C31F1E",
"*&	c #DC2423",
"=&	c #EC2827",
"-&	c #F52A29",
";&	c #FB2B2A",
">&	c #FD2C2B",
",&	c #FE2C2B",
"'&	c #F72B2A",
")&	c #EF2928",
"!&	c #E02625",
"~&	c #CA2120",
"{&	c #AC1E1B",
"]&	c #9D2F20",
"^&	c #922F20",
"/&	c #842C1F",
"(&	c #74291D",
"_&	c #65261C",
":&	c #56221A",
"<&	c #451D19",
"[&	c #361A18",
"}&	c #453230",
"|&	c #4B2E2B",
"1&	c #461D19",
"2&	c #57221B",
"3&	c #66261C",
"4&	c #75291E",
"5&	c #822C1F",
"6&	c #8F3021",
"7&	c #9D3423",
"8&	c #A83624",
"9&	c #A6221E",
"0&	c #BF2221",
"a&	c #D42725",
"b&	c #E22B29",
"c&	c #EA2D2A",
"d&	c #EF2F2C",
"e&	c #F02F2C",
"f&	c #EC2E2B",
"g&	c #E42C29",
"h&	c #D72927",
"i&	c #C42423",
"j&	c #AA211E",
"k&	c #A03223",
"l&	c #983525",
"m&	c #8B3123",
"n&	c #7F2E21",
"o&	c #702A1F",
"p&	c #61261F",
"q&	c #52231D",
"r&	c #421F1B",
"s&	c #341C19",
"t&	c #422D2C",
"u&	c #452B2A",
"v&	c #431F1B",
"w&	c #52221C",
"x&	c #61271F",
"y&	c #6F2B20",
"z&	c #7D2F22",
"A&	c #893224",
"B&	c #943525",
"C&	c #9D3827",
"D&	c #A63B28",
"E&	c #A42D23",
"F&	c #B12321",
"G&	c #C22825",
"H&	c #CE2B28",
"I&	c #D52C2A",
"J&	c #D72D2A",
"K&	c #D62C2A",
"L&	c #D02B29",
"M&	c #C52927",
"N&	c #B52523",
"O&	c #A42921",
"P&	c #A43A29",
"Q&	c #9B3A29",
"R&	c #903627",
"S&	c #853325",
"T&	c #793024",
"U&	c #6B2C23",
"V&	c #5E2821",
"W&	c #4F241F",
"X&	c #3F1F1C",
"Y&	c #351D1C",
"Z&	c #422C2A",
"`&	c #432826",
" *	c #3E201C",
".*	c #4D231E",
"+*	c #5C2720",
"@*	c #692B22",
"#*	c #762F25",
"$*	c #823327",
"%*	c #8B3528",
"&*	c #94382A",
"**	c #9D3B2B",
"=*	c #A43D2D",
"-*	c #A73B2C",
";*	c #A53127",
">*	c #AA2B25",
",*	c #AF2624",
"'*	c #B22625",
")*	c #B02625",
"!*	c #AB2925",
"~*	c #A42F26",
"{*	c #A3392B",
"]*	c #A23E2E",
"^*	c #9B3C2D",
"/*	c #89372A",
"(*	c #7D3328",
"_*	c #723027",
":*	c #662D25",
"<*	c #582822",
"[*	c #492420",
"}*	c #3E211F",
"|*	c #381F1D",
"1*	c #402827",
"2*	c #402422",
"3*	c #3E201E",
"4*	c #492421",
"5*	c #562822",
"6*	c #632C24",
"7*	c #6F2F26",
"8*	c #7A3328",
"9*	c #83362A",
"0*	c #8C392C",
"a*	c #933B2D",
"b*	c #993D2E",
"c*	c #A03F2F",
"d*	c #A4402F",
"e*	c #A84130",
"f*	c #AA4230",
"g*	c #A94230",
"h*	c #A64130",
"i*	c #A34130",
"j*	c #9D3F2F",
"k*	c #973E2F",
"l*	c #913C2E",
"m*	c #8A3A2D",
"n*	c #81382C",
"o*	c #77342A",
"p*	c #6B3128",
"q*	c #5F2D26",
"r*	c #532925",
"s*	c #452623",
"t*	c #3F2321",
"u*	c #3B211E",
"v*	c #3E2523",
"w*	c #3D211F",
"x*	c #402320",
"y*	c #452522",
"z*	c #502925",
"A*	c #5B2C27",
"B*	c #683028",
"C*	c #71332A",
"D*	c #7A362C",
"E*	c #82382D",
"F*	c #893A2E",
"G*	c #8F3C2F",
"H*	c #943E30",
"I*	c #983F30",
"J*	c #9C4031",
"K*	c #9E4131",
"L*	c #9B4031",
"M*	c #973F31",
"N*	c #923E30",
"O*	c #8D3D30",
"P*	c #873B2F",
"Q*	c #80392E",
"R*	c #78372D",
"S*	c #6F342C",
"T*	c #65312A",
"U*	c #582D29",
"V*	c #4E2A27",
"W*	c #462825",
"X*	c #422523",
"Y*	c #3C221F",
"Z*	c #3E211E",
"`*	c #432422",
" =	c #472724",
".=	c #4B2926",
"+=	c #552C28",
"@=	c #60302B",
"#=	c #69322C",
"$=	c #71352E",
"%=	c #78372F",
"&=	c #7E3930",
"*=	c #853B31",
"==	c #8A3C31",
"-=	c #8E3E32",
";=	c #903E32",
">=	c #933E32",
",=	c #923E32",
"'=	c #8F3E32",
")=	c #8C3D32",
"!=	c #883D32",
"~=	c #823B31",
"{=	c #7C3A31",
"]=	c #773830",
"^=	c #6F362F",
"/=	c #67342E",
"(=	c #5D302C",
"_=	c #542F2B",
":=	c #4B2B28",
"<=	c #482927",
"[=	c #412320",
"}=	c #4A2926",
"|=	c #4D2B29",
"1=	c #512D2B",
"2=	c #59302C",
"3=	c #60322D",
"4=	c #6F3730",
"5=	c #743830",
"6=	c #7A3A31",
"7=	c #7F3C32",
"8=	c #823C32",
"9=	c #853D32",
"0=	c #883E33",
"a=	c #873E33",
"b=	c #853D33",
"c=	c #813C32",
"d=	c #7D3B32",
"e=	c #793B32",
"f=	c #733931",
"g=	c #6D3730",
"h=	c #673630",
"i=	c #5E332E",
"j=	c #57312E",
"k=	c #512F2D",
"l=	c #4F2D2B",
"m=	c #4C2C29",
"n=	c #452825",
"o=	c #442523",
"p=	c #492926",
"q=	c #502D2A",
"r=	c #532F2C",
"s=	c #55302D",
"t=	c #59332F",
"u=	c #5F3430",
"v=	c #653631",
"w=	c #6B3832",
"x=	c #713A33",
"y=	c #743A33",
"z=	c #773B33",
"A=	c #7A3B33",
"B=	c #7C3C33",
"C=	c #7B3C33",
"D=	c #783B33",
"E=	c #753B33",
"F=	c #733A33",
"G=	c #6F3A33",
"H=	c #6A3933",
"I=	c #633732",
"J=	c #5E3531",
"K=	c #593330",
"L=	c #56322F",
"M=	c #54302D",
"N=	c #522F2D",
"O=	c #482A27",
"P=	c #432624",
"Q=	c #6D4D4B",
"R=	c #452321",
"S=	c #411E1E",
"T=	c #44201F",
"U=	c #441F1F",
"V=	c #472120",
"W=	c #482221",
"X=	c #492221",
"Y=	c #4D2422",
"Z=	c #512523",
"`=	c #552623",
" -	c #582623",
".-	c #5C2723",
"+-	c #5F2823",
"@-	c #612823",
"#-	c #5E2723",
"$-	c #5A2723",
"%-	c #572623",
"&-	c #532623",
"*-	c #502523",
"=-	c #4C2423",
"--	c #492322",
";-	c #462220",
">-	c #43201F",
",-	c #42201F",
"'-	c #3F1F1E",
")-	c #6C4E4B",
". + @ # $ $ % % & * = - ; > , , , ' ) ! ~ { ] ^ ^ ^ ^ ^ ^ / + ( ",
"_ : < [ } | 1 2 3 4 5 6 7 8 9 0 a b c d e f g h i j j j j j + k ",
"l m n o p q r s t u v w x y z A B C D E F G H I J K L L j j j j ",
"M N O P Q R S T U V W X Y Z `  ...+.@.#.$.%.&.*.=.-.;.L L L L >.",
",.'.).!.~.{.].^./.(._.:.<.[.}.|.1.2.3.4.5.6.7.8.a 9.0.a.b.L L c.",
"d.e.f.g.h.i.j.k.l.m.n.o.p.q.r.s.t.u.v.w.x.y.z.A.B.C.D.E.F.G.b.H.",
"I.J.K.L.M.N.O.P.Q.R.S.T.U.V.W.X.Y.Z.`. +.+w.++@+#+$+%+&+*+=+-+K ",
";+>+,+'+)+!+~+{+]+^+/+(+_+:+<+[+}+|+1+2+3+4+5+6+7+8+9+0+a+b+c+d+",
"e+f+g+h+i+j+k+l+m+n+o+p+q+r+s+t+u+v+w+x+y+z+A+B+C+D+E+F+G+H+I+J+",
"K+L+M+N+O+P+Q+R+S+T+U+V+W+X+Y+Z+`+ @.@+@@@#@$@%@&@*@=@-@;@>@,@'@",
")@!@~@{@]@^@/@(@_@:@<@[@}@|@1@2@3@4@5@6@7@8@9@0@a@b@c@d@e@f@g@h@",
"i@j@k@l@m@n@o@p@q@r@s@t@u@v@w@x@y@z@A@B@C@D@E@F@G@H@I@J@K@L@M@N@",
"O@P@Q@R@S@T@U@V@W@X@Y@Z@`@ #.#+#@###$#%#&#*#=#-#;#>#,#'#)#!#~#{#",
"]#^#/#(#_#:#<#[#}#|#1#2#3#4#5#6#7#8#9#0#a#b#c#d#e#f#g#h#i#j#k#l#",
"m#n#o#p#q#r#s#t#u#v#w#x#y#z#A#4#B#C#D#E#8#F#G#H#I#J#K#L#M#N#O#P#",
"Q#R#S#T#U#V#W#X#Y#Z#`# $.$+$@$#$$$%$&$*$`@=$-$;$>$,$'$)$!$~${$]$",
"^$/$($_$:$<$[$}$|$1$2$3$4$5$6$w#x#y#z#A#7$8$9$0$a$b$c$d$e$f$g$h$",
"i$j$k$l$m$n$o$p$q$r$s$t$u$v$w$4$5$x$w#y$z$A$B$C$D$E$F$G$H$I$J$K$",
"L$M$N$O$P$Q$R$S$T$U$V$W$W$W$W$W$X$Y$Z$`$ %.%+%@%#%$%%%&%*%=%-%;%",
">%,%'%)%!%~%{%]%^%/%(%_%:%:%:%:%:%:%:%:%(%<%[%}%|%1%2%3%4%5%6%7%",
"8%9%0%a%b%c%d%e%f%g%h%i%j%k%k%k%k%k%k%i%l%m%n%o%p%q%r%s%t%u%v%w%",
"x%y%z%A%B%C%D%E%F%G%H%I%J%K%K%K%K%K%L%M%N%O%P%Q%R%S%T%U%V%W%X%Y%",
"Z%`% &.&+&@&#&$&%&&&*&=&-&;&>&,&,&;&'&)&!&~&{&]&^&/&(&_&:&<&[&}&",
"|&1&2&3&4&5&6&7&8&9&0&a&b&c&d&e&d&f&g&h&i&j&k&l&m&n&o&p&q&r&s&t&",
"u&v&w&x&y&z&A&B&C&D&E&F&G&H&I&J&K&L&M&N&O&P&Q&R&S&T&U&V&W&X&Y&Z&",
"`& *.*+*@*#*$*%*&***=*-*;*>*,*'*)*!*~*{*]*^*_#/*(*_*:*<*[*}*|*1*",
"2*3*4*5*6*7*8*9*0*a*b*c*d*e*f*f*g*h*i*j*k*l*m*n*o*p*q*r*s*t*u*v*",
"w*x*y*z*A*B*C*D*E*F*G*H*I*J*K*K*K*L*M*N*O*P*Q*R*S*T*U*V*W*X*t*Y*",
"Z*`* =.=+=@=#=$=%=&=*===-=;=>=>=,='=)=!=~={=]=^=/=(=_=:=<=W*X*w*",
"[= =}=|=1=2=3=/=4=5=6=7=8=9=0=0=a=b=c=d=e=f=g=h=i=j=k=l=m=<=n=t*",
"o=p=|=q=r=s=t=u=v=w=x=y=z=A=B=B=C=D=E=F=G=H=I=J=K=L=M=N=l=m=O=P=",
"Q=R=S=T=U=V=W=X=Y=Z=`= -.-+-@-@-@-#-$-%-&-*-=---W=W=;->-,-'-o=)-"};
