/* XPM */
static char * lightOff_xpm[] = {
"32 32 590 2",
"  	c None",
". 	c #6E6E6E",
"+ 	c #B0B0B0",
"@ 	c #BEBEBE",
"# 	c #B4B4B4",
"$ 	c #B6B6B6",
"% 	c #B7B7B7",
"& 	c #B8B7B7",
"* 	c #B9B8B8",
"= 	c #B8B8B8",
"- 	c #AFAFAF",
"; 	c #696969",
"> 	c #757575",
", 	c #777777",
"' 	c #787878",
") 	c #7A7A7A",
"! 	c #7B7B7B",
"~ 	c #7D7D7D",
"{ 	c #7E7E7E",
"] 	c #807F7F",
"^ 	c #818181",
"/ 	c #838282",
"( 	c #848383",
"_ 	c #858484",
": 	c #878686",
"< 	c #888787",
"[ 	c #898888",
"} 	c #8B8A8A",
"| 	c #8C8B8B",
"1 	c #8D8C8C",
"2 	c #8D8D8D",
"3 	c #8C8C8C",
"4 	c #B5B5B5",
"5 	c #ABABAB",
"6 	c #727272",
"7 	c #737373",
"8 	c #747474",
"9 	c #767676",
"0 	c #7A7979",
"a 	c #7C7B7B",
"b 	c #7E7D7D",
"c 	c #807E7E",
"d 	c #818080",
"e 	c #828181",
"f 	c #868484",
"g 	c #888686",
"h 	c #8A8989",
"i 	c #ADADAD",
"j 	c #6D6D6D",
"k 	c #6F6F6F",
"l 	c #717171",
"m 	c #737272",
"n 	c #757474",
"o 	c #767575",
"p 	c #777676",
"q 	c #7A7878",
"r 	c #7B7979",
"s 	c #7D7B7B",
"t 	c #7E7C7C",
"u 	c #817F7F",
"v 	c #838181",
"w 	c #848282",
"x 	c #858383",
"y 	c #878585",
"z 	c #8B8B8B",
"A 	c #B2B2B2",
"B 	c #A7A7A7",
"C 	c #6B6B6B",
"D 	c #6D6C6C",
"E 	c #6F6E6E",
"F 	c #717070",
"G 	c #747272",
"H 	c #767474",
"I 	c #787676",
"J 	c #7A7777",
"K 	c #7C7979",
"L 	c #7E7B7B",
"M 	c #807D7D",
"N 	c #817E7E",
"O 	c #827F7F",
"P 	c #8A8A8A",
"Q 	c #A6A6A6",
"R 	c #656565",
"S 	c #686767",
"T 	c #696868",
"U 	c #6B6A6A",
"V 	c #6D6B6B",
"W 	c #6F6D6D",
"X 	c #706E6E",
"Y 	c #727070",
"Z 	c #757272",
"` 	c #777474",
" .	c #797676",
"..	c #7B7878",
"+.	c #7D7A79",
"@.	c #7F7C7B",
"#.	c #807C7C",
"$.	c #838080",
"%.	c #898989",
"&.	c #9E9E9E",
"*.	c #626262",
"=.	c #646363",
"-.	c #666565",
";.	c #686666",
">.	c #6A6868",
",.	c #6B6969",
"'.	c #6E6B6B",
").	c #6F6C6C",
"!.	c #716E6E",
"~.	c #737070",
"{.	c #757271",
"].	c #767372",
"^.	c #787574",
"/.	c #736A69",
"(.	c #756C6B",
"_.	c #766D6C",
":.	c #7C7877",
"<.	c #817D7D",
"[.	c #888888",
"}.	c #949494",
"|.	c #5F5E5E",
"1.	c #605F5F",
"2.	c #626161",
"3.	c #646262",
"4.	c #666464",
"5.	c #686565",
"6.	c #6A6767",
"7.	c #6C6868",
"8.	c #6E6B6A",
"9.	c #6F6C6B",
"0.	c #6C5E5E",
"a.	c #705655",
"b.	c #785353",
"c.	c #7E5959",
"d.	c #815B5B",
"e.	c #805A5A",
"f.	c #7C5858",
"g.	c #765B5B",
"h.	c #746665",
"i.	c #7D7877",
"j.	c #7F7C7C",
"k.	c #828080",
"l.	c #858585",
"m.	c #868686",
"n.	c #878787",
"o.	c #5A5959",
"p.	c #5D5C5C",
"q.	c #5F5D5D",
"r.	c #615E5E",
"s.	c #636060",
"t.	c #656262",
"u.	c #666362",
"v.	c #696665",
"w.	c #696261",
"x.	c #6C5050",
"y.	c #7B5353",
"z.	c #875C5C",
"A.	c #906262",
"B.	c #946666",
"C.	c #976868",
"D.	c #976969",
"E.	c #936767",
"F.	c #8D6464",
"G.	c #845E5E",
"H.	c #775959",
"I.	c #7E7B7A",
"J.	c #838383",
"K.	c #848484",
"L.	c #A2A2A2",
"M.	c #4C4B4B",
"N.	c #5A5858",
"O.	c #5C5959",
"P.	c #5E5B5B",
"Q.	c #5F5C5C",
"R.	c #625F5E",
"S.	c #63605F",
"T.	c #635A59",
"U.	c #6E4A4A",
"V.	c #825555",
"W.	c #8F5E5E",
"X.	c #996666",
"Y.	c #9E6A6A",
"Z.	c #A16D6D",
"`.	c #A36F6F",
" +	c #A47171",
".+	c #A27070",
"++	c #9E6E6E",
"@+	c #976A6A",
"#+	c #8C6262",
"$+	c #7B5757",
"%+	c #736665",
"&+	c #7C7978",
"*+	c #7F7D7D",
"=+	c #7F7E7E",
"-+	c #808080",
";+	c #7D7C7C",
">+	c #373535",
",+	c #575555",
"'+	c #595656",
")+	c #5A5757",
"!+	c #5C5958",
"~+	c #5F5B5A",
"{+	c #605B5A",
"]+	c #6B4747",
"^+	c #815252",
"/+	c #915D5D",
"(+	c #9C6464",
"_+	c #A06868",
":+	c #A66D6D",
"<+	c #A66E6E",
"[+	c #A87070",
"}+	c #A87272",
"|+	c #A97373",
"1+	c #A77272",
"2+	c #A37070",
"3+	c #9C6B6B",
"4+	c #8F6363",
"5+	c #7A5656",
"6+	c #736968",
"7+	c #787575",
"8+	c #999999",
"9+	c #302E2E",
"0+	c #403E3E",
"a+	c #565353",
"b+	c #575454",
"c+	c #595655",
"d+	c #5C5857",
"e+	c #624645",
"f+	c #7C4C4C",
"g+	c #8D5959",
"h+	c #9A6161",
"i+	c #A06565",
"j+	c #A26767",
"k+	c #A46969",
"l+	c #A56B6B",
"m+	c #A66C6C",
"n+	c #A76E6E",
"o+	c #A87171",
"p+	c #A77171",
"q+	c #9A6A6A",
"r+	c #8A5F5F",
"s+	c #735454",
"t+	c #74706F",
"u+	c #797777",
"v+	c #939393",
"w+	c #706F6F",
"x+	c #312E2E",
"y+	c #454241",
"z+	c #555251",
"A+	c #575352",
"B+	c #584E4D",
"C+	c #714444",
"D+	c #855050",
"E+	c #955B5B",
"F+	c #9D6060",
"G+	c #9F6363",
"H+	c #A26666",
"I+	c #A36767",
"J+	c #A36868",
"K+	c #A56A6A",
"L+	c #A66F6F",
"M+	c #A16C6C",
"N+	c #946464",
"O+	c #7F5757",
"P+	c #6C5C5C",
"Q+	c #322F2E",
"R+	c #423E3D",
"S+	c #534F4E",
"T+	c #5C4241",
"U+	c #794747",
"V+	c #8C5353",
"W+	c #985B5B",
"X+	c #9D5F5F",
"Y+	c #9E6060",
"Z+	c #9F6262",
"`+	c #A06363",
" @	c #A16464",
".@	c #A56C6C",
"+@	c #A46C6C",
"@@	c #996565",
"#@	c #895B5B",
"$@	c #6F5151",
"%@	c #737171",
"&@	c #636262",
"*@	c #332F2E",
"=@	c #3C3736",
"-@	c #603C3B",
";@	c #7E4949",
">@	c #8F5353",
",@	c #995A5A",
"'@	c #9C5C5C",
")@	c #9D5D5D",
"!@	c #9E5F5F",
"~@	c #9F6161",
"{@	c #A16565",
"]@	c #9B6565",
"^@	c #8C5C5C",
"/@	c #754D4D",
"(@	c #6A6564",
"_@	c #6D6A6A",
":@	c #342F2E",
"<@	c #5D2828",
"[@	c #773A3A",
"}@	c #8D4E4E",
"|@	c #995858",
"1@	c #9A5959",
"2@	c #9B5B5B",
"3@	c #9D5E5E",
"4@	c #A16767",
"5@	c #9C6363",
"6@	c #8E5B5B",
"7@	c #784E4E",
"8@	c #635958",
"9@	c #696666",
"0@	c #696767",
"a@	c #6C6B6B",
"b@	c #797878",
"c@	c #595858",
"d@	c #312F2F",
"e@	c #322F2F",
"f@	c #33302F",
"g@	c #34302F",
"h@	c #35302F",
"i@	c #5F2929",
"j@	c #733232",
"k@	c #813838",
"l@	c #8D4545",
"m@	c #955151",
"n@	c #A06464",
"o@	c #9B6161",
"p@	c #8D5A5A",
"q@	c #784D4D",
"r@	c #625757",
"s@	c #656261",
"t@	c #666363",
"u@	c #727171",
"v@	c #565555",
"w@	c #723232",
"x@	c #7F3838",
"y@	c #873C3C",
"z@	c #883C3C",
"A@	c #8A3F3F",
"B@	c #8F4747",
"C@	c #934E4E",
"D@	c #975555",
"E@	c #9E6262",
"F@	c #985E5E",
"G@	c #8B5656",
"H@	c #754949",
"I@	c #5E5453",
"J@	c #625F5F",
"K@	c #636161",
"L@	c #525151",
"M@	c #323030",
"N@	c #333030",
"O@	c #343130",
"P@	c #363231",
"Q@	c #373231",
"R@	c #512B2A",
"S@	c #6F3131",
"T@	c #7E3838",
"U@	c #893E3E",
"V@	c #8A3E3E",
"W@	c #8C4343",
"X@	c #8E4646",
"Y@	c #914A4A",
"Z@	c #955050",
"`@	c #965252",
" #	c #945151",
".#	c #8D4D4D",
"+#	c #824C4C",
"@#	c #6B3F3F",
"##	c #4F4C4B",
"$#	c #4F4B4B",
"%#	c #4F4C4C",
"&#	c #4E4C4C",
"*#	c #484747",
"=#	c #585757",
"-#	c #4F4E4E",
";#	c #333131",
">#	c #343131",
",#	c #363332",
"'#	c #373332",
")#	c #393433",
"!#	c #462D2D",
"~#	c #6A3131",
"{#	c #7B3939",
"]#	c #863D3D",
"^#	c #8A4141",
"/#	c #8B4141",
"(#	c #873F3F",
"_#	c #7E3A3A",
":#	c #6F3333",
"<#	c #4F2D2C",
"[#	c #383433",
"}#	c #373433",
"|#	c #353232",
"1#	c #343232",
"2#	c #323131",
"3#	c #4E4E4E",
"4#	c #4B4A4A",
"5#	c #353333",
"6#	c #373434",
"7#	c #383534",
"8#	c #3A3635",
"9#	c #3E3434",
"0#	c #612E2E",
"a#	c #743838",
"b#	c #823F3F",
"c#	c #8A4242",
"d#	c #8E4545",
"e#	c #8C4444",
"f#	c #854040",
"g#	c #793A3A",
"h#	c #663131",
"i#	c #443130",
"j#	c #3B3736",
"k#	c #393635",
"l#	c #363434",
"m#	c #333232",
"n#	c #4A4A4A",
"o#	c #393636",
"p#	c #3B3837",
"q#	c #3D3938",
"r#	c #4A3232",
"s#	c #6A3434",
"t#	c #7B3D3D",
"u#	c #864343",
"v#	c #8C4646",
"w#	c #8F4848",
"x#	c #904848",
"y#	c #8E4747",
"z#	c #884343",
"A#	c #7F3F3F",
"B#	c #6F3737",
"C#	c #543130",
"D#	c #3E3A39",
"E#	c #3C3938",
"F#	c #3A3737",
"G#	c #383636",
"H#	c #353434",
"I#	c #474747",
"J#	c #454444",
"K#	c #393737",
"L#	c #3B3838",
"M#	c #3C3939",
"N#	c #3E3B3A",
"O#	c #403C3B",
"P#	c #413D3C",
"Q#	c #583131",
"R#	c #6E3838",
"S#	c #7D4040",
"T#	c #874545",
"U#	c #8C4848",
"V#	c #904A4A",
"W#	c #914B4B",
"X#	c #914C4C",
"Y#	c #904B4B",
"Z#	c #8D4949",
"`#	c #894646",
" $	c #804242",
".$	c #733B3B",
"+$	c #5F3232",
"@$	c #433B3A",
"#$	c #3F3C3B",
"$$	c #3D3A3A",
"%$	c #3B3939",
"&$	c #3A3838",
"*$	c #383737",
"=$	c #363535",
"-$	c #444444",
";$	c #414141",
">$	c #3C3A3A",
",$	c #3E3B3B",
"'$	c #403D3C",
")$	c #433F3E",
"!$	c #44403F",
"~$	c #463F3E",
"{$	c #5A3434",
"]$	c #6E3A3A",
"^$	c #7A4040",
"/$	c #824545",
"($	c #874848",
"_$	c #8A4949",
":$	c #884848",
"<$	c #834646",
"[$	c #7C4242",
"}$	c #713B3B",
"|$	c #603434",
"1$	c #483D3D",
"2$	c #444140",
"3$	c #43403F",
"4$	c #413E3E",
"5$	c #3F3C3C",
"6$	c #3D3B3B",
"7$	c #393838",
"8$	c #373737",
"9$	c #3F3F3F",
"0$	c #3A3939",
"a$	c #3E3C3C",
"b$	c #3F3D3D",
"c$	c #464342",
"d$	c #484443",
"e$	c #533939",
"f$	c #673838",
"g$	c #713D3D",
"h$	c #784141",
"i$	c #7C4343",
"j$	c #7E4444",
"k$	c #7D4444",
"l$	c #7A4141",
"m$	c #733E3E",
"n$	c #6A3939",
"o$	c #573838",
"p$	c #494342",
"q$	c #474443",
"r$	c #434040",
"s$	c #3D3C3C",
"t$	c #3B3A3A",
"u$	c #393939",
"v$	c #3C3C3C",
"w$	c #3B3B3B",
"x$	c #413F3F",
"y$	c #444141",
"z$	c #454242",
"A$	c #484544",
"B$	c #494645",
"C$	c #4A4746",
"D$	c #4D4444",
"E$	c #533D3D",
"F$	c #5D3B3B",
"G$	c #673939",
"H$	c #693A3A",
"I$	c #683939",
"J$	c #5F3A3A",
"K$	c #553D3C",
"L$	c #4D4342",
"M$	c #4B4847",
"N$	c #464343",
"O$	c #444242",
"P$	c #424141",
"Q$	c #3F3E3E",
"R$	c #3A3A3A",
"S$	c #414040",
"T$	c #454343",
"U$	c #464444",
"V$	c #484545",
"W$	c #4C4948",
"X$	c #4D4A49",
"Y$	c #4E4A49",
"Z$	c #4A4747",
"`$	c #494646",
" %	c #474545",
".%	c #444343",
"+%	c #404040",
"@%	c #3E3E3E",
"#%	c #464545",
"$%	c #484646",
"%%	c #494747",
"&%	c #4B4848",
"*%	c #4C4949",
"=%	c #4E4B4A",
"-%	c #4D4A4A",
";%	c #4A4848",
">%	c #474646",
",%	c #434343",
"'%	c #353535",
")%	c #494848",
"!%	c #4B4949",
"~%	c #4C4A4A",
"{%	c #4E4B4B",
"]%	c #504C4C",
"^%	c #4D4B4B",
"/%	c #4A4949",
"(%	c #464646",
"_%	c #454545",
":%	c #504D4D",
"<%	c #4F4D4D",
"[%	c #4D4C4C",
"}%	c #494949",
"|%	c #484848",
"1%	c #4E4D4D",
"2%	c #4C4C4C",
"3%	c #4B4B4B",
"4%	c #343434",
"5%	c #585858",
"6%	c #333333",
"7%	c #363636",
"8%	c #383838",
"9%	c #323232",
". + @ # # # $ $ $ % % % % % & * * = = = = = = = = = = = = @ - ; ",
"$ > , ' ) ! ~ { ] ^ / ( _ : : < [ } } | 1 2 2 2 2 2 2 2 2 2 3 4 ",
"5 6 7 8 9 ' 0 a a b c d e / f f g < [ h } } | 2 2 2 2 2 2 2 2 i ",
"5 j k l m n o p q r s t c u v w x f y g < [ } } z 3 2 2 2 2 2 A ",
"B ; C D E F G G H I J K L L M N O v w f f g < [ h } P z 3 2 2 A ",
"Q R S T U V W X Y Z ` `  ...+.@.#.N O $.w x f y : < [ %.P P 3 + ",
"&.*.=.-.;.>.,.'.).!.~.{.].^./.(._.:.@.<.N O v w f _ : < [.[.P i ",
"}.|.1.2.3.4.5.6.7.8.9.0.a.b.c.d.e.f.g.h.i.j.M O k.v / _ l.m.n.B ",
"n.o.p.q.r.s.t.u.v.w.x.y.z.A.B.C.D.E.F.G.H._.I.L M c u e / J.K.L.",
"^ M.N.O.P.Q.R.S.T.U.V.W.X.Y.Z.`. +.+++@+#+$+%+&+K L s *+=+-+^ &.",
";+>+,+'+)+!+~+{+]+^+/+(+_+:+<+[+}+|+1+2+3+4+5+6+7+ ...r s ;+=+8+",
"o 9+0+a+b+c+d+e+f+g+h+i+j+k+l+m+n+[+o+p+`.q+r+s+t+Z ` I u+0 a v+",
"w+9+x+y+z+A+B+C+D+E+F+G+H+H+I+J+K+l+:+<+L+M+N+O+P+!.~.G H n p 3 ",
"U 9+x+Q+R+S+T+U+V+W+X+Y+Z+`+ @H+j+I+k+l+.@+@@@#@$@9.).!.Y %@m n.",
"&@9+x+Q+*@=@-@;@>@,@'@)@!@!@~@Z+`+{@H+I+J+k+]@^@/@(@7._@V W E -+",
"p.9+x+Q+*@:@<@[@}@|@1@2@'@)@3@!@Y+~@`+ @H+4@5@6@7@8@v.9@0@,.a@b@",
"c@d@e@f@g@h@i@j@k@l@m@1@1@2@'@)@3@!@Y+Z+Z+n@o@p@q@r@s@t@4.;.T u@",
"v@d@e@f@g@h@<@w@x@y@z@A@B@C@D@2@)@)@3@!@~@E@F@G@H@I@R.J@K@K@=.a@",
"L@M@N@O@P@Q@R@S@T@y@U@V@V@V@V@V@W@X@Y@Z@`@ #.#+#@#A+##$#%#&#*#=#",
"-#;#>#,#'#)#!#~#{#]#^#/#/#/#/#/#/#/#/#/#^#(#_#:#<#[#}#|#1#;#2#3#",
"4#1#5#6#7#8#9#0#a#b#c#l@d#d#d#d#d#d#d#l@e#f#g#h#i#j#k#6#l#5#m#n#",
"*#l#>+o#p#q#q#r#s#t#u#v#w#x#x#x#x#x#w#y#z#A#B#C#D#E#E#F#G#>+H#I#",
"J#>+K#L#M#N#O#P#Q#R#S#T#U#V#W#X#X#Y#Z#`# $.$+$@$P##$$$%$&$*$=$-$",
";$*$&$>$,$'$)$!$~${$]$^$/$($_$_$_$:$<$[$}$|$1$2$3$4$5$6$>$7$8$;$",
"9$0$>$a$b$4$2$y+c$d$e$f$g$h$i$j$k$l$m$n$o$p$q$c$y+r$0+b$s$t$u$9$",
"v$w$s$0+x$y$z$q$A$B$C$D$E$F$G$H$I$J$K$L$M$C$B$A$N$O$P$x$Q$v$w$v$",
"R$v$Q$S$P$T$U$V$C$M$W$W$X$X$Y$Y$Y$X$X$X$W$W$Z$`$ %J#.%P$+%@%v$R$",
"8$@%+%P$.%#%$%%%&%*%X$=%=%=%######$#=%=%-%*%*%;%*#>%#%,%;$+%@%8$",
"'%+%;$,%#%>%*#)%!%~%{%{%{%%#]%]%]%%#%#{%^%^%~%/%)%*#(%_%,%;$+%'%",
"'%;$,%_%(%)%/%4#M.M.&#&#&#%#:%:%:%<%&#&#&#[%M.M.4#}%|%(%_%,%;$'%",
"'%,%_%(%|%}%n#M.[%[%1%1%1%1%<%<%<%1%1%1%1%1%[%2%3%n#}%|%(%_%,%4%",
"5%6%6%'%'%7%8$8%8%7$7$7$0$%$%$%$%$0$0$0$7$8%8%8%8%8$7%'%'%6%9%5%"};
