/* XPM */
static char *MatchX[] = {
/* columns rows colors chars-per-pixel */
"32 32 179 2",
"   c #000002",
".  c #00000B",
"X  c #05090B",
"o  c #000013",
"O  c #060A11",
"+  c #080B17",
"@  c #00011B",
"#  c #0A1116",
"$  c #0C141A",
"%  c #0A0B20",
"&  c #0F1922",
"*  c #121623",
"=  c #131D24",
"-  c #121E28",
";  c #15242E",
":  c #1A202D",
">  c #1C2234",
",  c #1D2238",
"<  c #1B2D3A",
"1  c #1D303C",
"2  c #232C3C",
"3  c #1D3243",
"4  c #242C40",
"5  c #233444",
"6  c #233A4A",
"7  c #253E51",
"8  c #323A51",
"9  c #2B4557",
"0  c #2A465C",
"q  c #2D4B5E",
"w  c #3C4A5A",
"e  c #00477E",
"r  c #00487F",
"t  c #2A4D68",
"y  c #304F63",
"u  c #325064",
"i  c #3D5162",
"p  c #35586D",
"a  c #2B5576",
"s  c #2A587C",
"d  c #375E76",
"f  c #3D5C73",
"g  c #315D7C",
"h  c #414E62",
"j  c #435465",
"k  c #455668",
"l  c #4A596C",
"z  c #4E5C72",
"x  c #515E75",
"c  c #4E6076",
"v  c #4C657A",
"b  c #4D687C",
"n  c #51647C",
"m  c #014A83",
"M  c #024E89",
"N  c #0C5184",
"B  c #04518D",
"V  c #0F578B",
"C  c #1C5C8C",
"Z  c #065592",
"A  c #095792",
"S  c #095896",
"D  c #0B5C9A",
"F  c #155C92",
"G  c #115E9A",
"H  c #2D5D82",
"J  c #0E619D",
"K  c #12649E",
"L  c #1E669A",
"P  c #13689F",
"I  c #226287",
"U  c #2A638F",
"Y  c #3C6983",
"T  c #376788",
"R  c #396988",
"E  c #3E708E",
"W  c #226C97",
"Q  c #23669A",
"!  c #246B9B",
"~  c #2B6C9C",
"^  c #336891",
"/  c #326D99",
"(  c #3E7595",
")  c #3B749E",
"_  c #1566A0",
"`  c #156AA0",
"'  c #1A6DA2",
"]  c #1D72A4",
"[  c #246DA3",
"{  c #296DA1",
"}  c #2175A6",
"|  c #2B71A2",
" . c #2378A7",
".. c #2577A9",
"X. c #2B75A9",
"o. c #257BA9",
"O. c #2A7DAB",
"+. c #3574A2",
"@. c #3B77A3",
"#. c #3778A6",
"$. c #3C7AA4",
"%. c #337DAD",
"&. c #3C7EA8",
"*. c #377FB0",
"=. c #4C6C84",
"-. c #566F83",
";. c #40708D",
":. c #527089",
">. c #5A768D",
",. c #437495",
"<. c #40779F",
"1. c #44789F",
"2. c #4B7A9E",
"3. c #537792",
"4. c #537A97",
"5. c #5F7990",
"6. c #587E9A",
"7. c #64788C",
"8. c #647D94",
"9. c #447BA2",
"0. c #4B7EA4",
"q. c #2E80AC",
"w. c #3382AE",
"e. c #3780B1",
"r. c #3A83B0",
"t. c #5B809D",
"y. c #6A8296",
"u. c #4C80A6",
"i. c #4385AC",
"p. c #4A83AD",
"a. c #5182A7",
"s. c #5B84A3",
"d. c #5485A9",
"f. c #5987AA",
"g. c #5C8AAC",
"h. c #4486B0",
"j. c #4B87B1",
"k. c #428BB4",
"l. c #4E89B1",
"z. c #548BB1",
"x. c #5B8EB2",
"c. c #5A91B7",
"v. c #668BA7",
"b. c #618DAF",
"n. c #7B92A8",
"m. c #618FB1",
"M. c #6491B3",
"N. c #6B95B4",
"B. c #6E98B7",
"V. c #7199B7",
"C. c #759CB9",
"Z. c #799EBB",
"A. c #7DA1BD",
"S. c #78A3C2",
"D. c #98A5AF",
"F. c #81A4BF",
"G. c #9DABB4",
"H. c #84A6C0",
"J. c #86A8C2",
"K. c #8CACC4",
"L. c #90AFC6",
"P. c #92B0C7",
"I. c #95B3C9",
"U. c #99B6CB",
"Y. c #9EB9CD",
"T. c #A0BACF",
"R. c #A4BDD1",
"E. c #A7C0D2",
"W. c #A8C0D3",
"Q. c #B1C7D7",
"!. c #B5C9D9",
"~. c #BBCEDC",
"^. c #BFD1DF",
"/. c #C1D3DF",
"(. c #C4D5E1",
"). c #C8D7E3",
"_. c #CEDBE5",
"`. c #D3DCE4",
"'. c #D5E0E7",
/* pixels */
"G.`._./.(.(.(.(.(.(.(.(.(.(.(.(.(.).).).).).).).).).).).)._.`.D.",
"`.A.F.H.J.J.K.K.L.P.I.I.U.U.Y.Y.T.R.R.R.R.E.W.W.W.W.W.W.W.W.R.'.",
"~.C.Z.A.A.F.H.J.K.K.K.P.P.I.I.U.U.Y.Y.T.R.R.R.E.W.W.W.W.W.W.W.(.",
"~.V.C.C.A.K.K.K.J.K.I.U.I.L.P.I.I.U.U.Y.Y.T.R.R.R.R.E.W.W.W.W.(.",
"!.N.N.V.8.o @ 8 K.z @ @ n K.K.K.L.P.I.I.U.U.Y.Y.T.R.R.R.R.W.W.(.",
"Q.b.M.N.8.o o % I.8 @ @ x K.H.J.K.K.K.P.I.I.U.U.Y.Y.T.T.R.R.R.^.",
"W.g.g.M.8.. > o n.% , o x H.A.F.H.J.K.K.K.L.P.I.I.U.U.Y.Y.T.R.~.",
"Y.d.f.b.5.. w . h o h o z A.C.Z.A.F.F.H.J.K.K.K.P.P.I.U.U.Y.Y.~.",
"K.0.a.f.>.. k : * . 7.o l Z.V.C.C.Z.A.A.F.H.J.J.K.K.L.P.I.I.U.!.",
"J./ 0.d.>.  j w . : y.. l V.N.N.B.V.C.C.Z.A.A.F.H.J.K.K.K.P.P.Q.",
"F.N 1.0.=.  i -.  w 8.. j N.b.M.M.N.N.V.C.C.Z.A.A.F.H.H.J.K.K.W.",
"A.e C 1.2.=.4.s.=.6.s.:.t.g.g.g.b.M.B.C.A.A.F.F.A.Z.A.A.F.H.J.R.",
"C.e e C <.9.9.9.0.0.0.a.a.a.d.d.f.m.v 2 2 2 2 4 n C.C.Z.A.A.F.T.",
"V.e e e C ) ) ) <.9.9.9.0.0.u.a.d.m.j . . . . c C.N.B.V.C.C.Z.U.",
"N.r r r r N ~ ) ) 0.2.0.9.9.9.0.u.g.j . . . k C.M.M.M.N.N.B.V.P.",
"M.r m m m m m V ) f = 2.@.@.$.9.9.d.i . . . + v.x.x.x.m.M.M.N.K.",
"x.m m m m m m M U X X ,.+.+.@.@.$.p.i   v b . 2 M.z.z.z.x.x.M.H.",
"z.m m m M M M F 6   t F F L ~ #.&.p.q f z.c.5 . 3.z.l.l.z.z.x.S.",
"j.M M M M B B Q X # ~ B B B A Q s ^ / | [ | ,.  5 h.| | | | ! c.",
"h.B B B Z Z A U   3 L A A S ! &     a G A A { # # ! B B B B B i.",
"r.Z Z Z S S G H   0 ' D D K H       ; [ D D [ ;   | S Z Z Z B r.",
"e.S S D D D K H   0 [ K K _ /       7 [ K K X.;   X.D D S S Z *.",
"%.D D D J J _ /   < X._ ` ` X.g ; 7 +.' _ _ %.X # X.J D D D S %.",
"O.D D J J K P %.# X &.' ' ' ' } X.X.] ' ' } R   5 ..K J J D D O.",
"O.J J K K ` ` X.q   q %.] ] ] ] ] ] ] ] } r.;   T ' ` K K J J O.",
"o.J K P ` ` ' ] &.$   d w.} } } } } } ..r.6   1 %.' ` ` P K J ..",
"..K P ` ' ' ] ] O.( O   p k.w.O.O.O.w.i.6   = &.} ] ' ' ` P K ..",
"} P ` ' ' ] ] ] } O.,.O   $ y ;.E Y 9 O   - i.o.] ] ] ' ' ` P } ",
"} ` ' ] ] ] ] }  . .O.i.6             O y k.O. .} ] ] ] ' ' ` } ",
"} ' ] ] ] }  . . . .o.O.r.i.Y y u y E k.w.O. . . . .} ] ] ' ' } ",
"! ] ] ] }  . . .o.o.o.o.o.O.w.w.w.w.q.O.o.o.o.o. . . .} ] ] ' ! ",
"I W ]  . .o.o.o.O.O.O.O.O.O.O.O.O.O.O.O.O.O.O.O.o.o.o. . .] W I "
};
