/* XPM */
static char *MatchX_rotate[] = {
/* columns rows colors chars-per-pixel */
"32 32 174 2",
"   c #000003",
".  c #00000B",
"X  c #05090B",
"o  c #000013",
"O  c #060A11",
"+  c #080B17",
"@  c #00011B",
"#  c #0A1116",
"$  c #0C141A",
"%  c #0A0B20",
"&  c #121623",
"*  c #131D24",
"=  c #121E28",
"-  c #15242E",
";  c #1A202D",
":  c #1C2234",
">  c #1D2238",
",  c #1B2D3A",
"<  c #1D303C",
"1  c #232C3C",
"2  c #1D3243",
"3  c #242C40",
"4  c #233444",
"5  c #233A4A",
"6  c #323A51",
"7  c #2B4557",
"8  c #2A465C",
"9  c #2D4A5E",
"0  c #3C4A5A",
"q  c #00477E",
"w  c #00487F",
"e  c #2A4D68",
"r  c #304F63",
"t  c #325064",
"y  c #3D5162",
"u  c #35586D",
"i  c #375E76",
"p  c #3D5C73",
"a  c #414E62",
"s  c #435465",
"d  c #455668",
"f  c #4A596C",
"g  c #4E5C72",
"h  c #515E75",
"j  c #4E6076",
"k  c #4C657A",
"l  c #4D687C",
"z  c #51647C",
"x  c #014A83",
"c  c #024E89",
"v  c #0C5184",
"b  c #04518D",
"n  c #0F578B",
"m  c #1C5C8C",
"M  c #065592",
"N  c #095793",
"B  c #095895",
"V  c #0C5D9A",
"C  c #155C92",
"Z  c #115E9A",
"A  c #2E5E83",
"S  c #0E619D",
"D  c #12649E",
"F  c #1E669A",
"G  c #13689F",
"H  c #226287",
"J  c #2A638F",
"K  c #3C6983",
"L  c #376788",
"P  c #396988",
"I  c #3E708E",
"U  c #236495",
"Y  c #226C97",
"T  c #24679B",
"R  c #246B9A",
"E  c #2B6C9C",
"W  c #346D99",
"Q  c #3E7595",
"!  c #3B749E",
"~  c #1567A0",
"^  c #1669A1",
"/  c #1A6DA2",
"(  c #1D72A4",
")  c #256DA4",
"_  c #2A6EA2",
"`  c #2175A6",
"'  c #2A71A2",
"]  c #2378A7",
"[  c #2577A9",
"{  c #2B74A9",
"}  c #257BA9",
"|  c #2A7DAB",
" . c #3676A3",
".. c #3B77A3",
"X. c #3779A6",
"o. c #3C7AA4",
"O. c #337DAD",
"+. c #3D7FA8",
"@. c #377FB0",
"#. c #4C6C84",
"$. c #566F83",
"%. c #40708D",
"&. c #527089",
"*. c #5A768D",
"=. c #437495",
"-. c #40779F",
";. c #44789F",
":. c #4B7A9E",
">. c #537792",
",. c #537A97",
"<. c #5F7990",
"1. c #587E9A",
"2. c #64788C",
"3. c #647D94",
"4. c #447BA2",
"5. c #4B7EA4",
"6. c #2E80AC",
"7. c #3382AE",
"8. c #3780B1",
"9. c #3A83B0",
"0. c #5B809D",
"q. c #6A8296",
"w. c #4C80A6",
"e. c #4384AC",
"r. c #4C84AC",
"t. c #5182A7",
"y. c #5B84A3",
"u. c #5485A9",
"i. c #5987AA",
"p. c #5C8AAC",
"a. c #4486B0",
"s. c #4B87B1",
"d. c #428BB4",
"f. c #4E89B1",
"g. c #548BB1",
"h. c #5B8EB2",
"j. c #5A91B7",
"k. c #668BA7",
"l. c #618DAF",
"z. c #7B92A8",
"x. c #618FB1",
"c. c #6491B3",
"v. c #6B95B4",
"b. c #6E98B7",
"n. c #7199B7",
"m. c #759CB9",
"M. c #799EBB",
"N. c #7DA1BD",
"B. c #78A3C2",
"V. c #98A5AF",
"C. c #81A4BF",
"Z. c #9DABB4",
"A. c #84A6C0",
"S. c #86A8C2",
"D. c #8CACC4",
"F. c #90AFC6",
"G. c #92B0C7",
"H. c #95B3C9",
"J. c #99B6CB",
"K. c #9EB9CD",
"L. c #A0BACF",
"P. c #A4BDD1",
"I. c #A7C0D2",
"U. c #A8C0D3",
"Y. c #B1C7D7",
"T. c #B5C9D9",
"R. c #BBCEDC",
"E. c #BFD1DF",
"W. c #C1D3DF",
"Q. c #C4D5E1",
"!. c #C8D7E3",
"~. c #CEDBE5",
"^. c #D3DCE4",
"/. c #D5E0E7",
/* pixels */
"Z.^.~.W.Q.Q.Q.Q.Q.Q.Q.Q.Q.Q.Q.Q.Q.!.!.!.!.!.!.!.!.!.!.!.!.~.^.V.",
"^.N.C.A.S.S.D.D.F.G.H.H.J.J.K.K.L.P.P.P.P.I.U.U.U.U.U.U.U.U.P./.",
"R.m.M.N.N.C.A.S.D.D.D.G.G.H.H.J.J.K.K.L.P.P.P.I.U.U.U.U.U.U.U.Q.",
"R.n.m.m.N.D.D.D.S.D.H.J.H.F.G.H.H.J.J.K.K.L.P.P.P.P.I.U.U.U.U.Q.",
"T.v.v.n.3.o @ 6 D.g @ @ z D.D.D.F.G.H.H.J.J.K.K.L.P.P.P.P.U.U.Q.",
"Y.l.c.v.3.o o % H.6 @ @ h D.A.S.D.D.D.G.H.H.J.J.K.K.L.L.P.P.P.E.",
"U.p.p.c.3.. : o z.% > o h A.N.C.A.S.D.D.D.F.G.H.H.J.J.K.K.L.P.R.",
"K.u.i.l.<.. 0 . a o a o g N.m.M.N.C.C.A.S.D.D.D.G.G.H.J.J.K.K.R.",
"D.5.t.i.*.. d ; & . 2.o f M.n.m.m.M.N.N.C.A.S.S.D.D.F.G.H.H.J.T.",
"S.W 5.u.*.  s 0 . ; q.. f n.v.v.b.n.m.m.M.N.N.C.A.S.D.D.D.G.G.Y.",
"C.v ;.5.#.  y $.  0 3.. s v.l.c.c.v.v.n.m.m.M.N.N.C.A.A.S.D.D.U.",
"N.q m ;.:.#.,.y.#.1.y.&.0.p.p.p.l.c.b.m.N.N.C.C.N.M.N.N.C.A.S.P.",
"m.q q m -.4.4.4.5.5.5.t.t.t.u.u.i.x.k 1 1 1 1 3 z m.m.M.N.N.C.L.",
"n.q q q m ! ! ! -.4.4.4.5.5.w.t.u.x.s . . . . j m.v.b.n.m.m.M.J.",
"v.w w w w v E ! ! 5.:.5.4.4.4.5.w.p.s . . . d m.c.c.c.v.v.b.n.G.",
"c.w x x x x x n ! p * :.....o.4.4.u.y . . . + k.h.h.h.x.c.c.v.D.",
"h.x x x x x x c J X X =. . .....o.r.y   k l . 1 c.g.g.g.h.h.c.A.",
"g.x x x c c c C 5   e C C F E  .X.e.9 p g.j.4 . >.g.f.f.g.g.h.B.",
"s.c c c c b b T X # E b b b b b N C U _ ) ' =.  4 a.' ' ' ' R j.",
"a.b b b M M N J   2 F N N N N N N N N N N N _ # # T b b b b b e.",
"9.M M M B B Z A   8 / V V V V V V V V V V V ) -   ' B N M M b 9.",
"8.B B V V V D A   8 ) D D D D D D D D D D D { -   { V V B B M @.",
"O.V V V S S ~ W   , { ~ ^ ^ ^ ^ ^ ^ ^ ^ ~ ~ O.X # { S V V V B O.",
"| V V S S D G O.# X o./ / / / / / / / / / ` P   4 [ D S S V V | ",
"| S S D G ~ ^ { 9   9 O.( ( ( ( ( ( ( ( ` 9.-   L / ~ D D S S | ",
"} S D G ^ ^ / ( o.$   i 7.` ` ` ` ` ` [ 9.5   < O./ ^ ^ G D S [ ",
"[ D G ^ / / ( ( | Q O   u d.7.| | | 7.e.5   * +.` ( / / ^ G D [ ",
"` G ^ / / ( ( ( ` | =.O   $ r %.I K 7 O   = e.} ( ( ( / / ^ G ` ",
"` ^ / ( ( ( ( ` ] ] | e.5             O r d.| ] ` ( ( ( / / ^ ` ",
"` / ( ( ( ` ] ] ] ] } | 9.e.K r t r I d.7.| ] ] ] ] ` ( ( / / ` ",
"R ( ( ( ` ] ] ] } } } } } | 7.7.7.7.6.| } } } } ] ] ] ` ( ( / R ",
"H Y ( ] ] } } } | | | | | | | | | | | | | | | | } } } ] ] ( Y H "
};
