/* XPM */
static char *MatchX_point[] = {
/* columns rows colors chars-per-pixel */
"32 32 141 2",
"   c #000001",
".  c #00000B",
"X  c #000013",
"o  c #00011B",
"O  c #0A0B20",
"+  c #0F1922",
"@  c #121623",
"#  c #16242F",
"$  c #1A202D",
"%  c #1C2234",
"&  c #1D2238",
"*  c #253E51",
"=  c #323A51",
"-  c #3C4A5A",
";  c #00477E",
":  c #00487F",
">  c #3F5161",
",  c #2A5475",
"<  c #2A587C",
"1  c #315D7C",
"2  c #414E62",
"3  c #435465",
"4  c #4A596C",
"5  c #4E5C72",
"6  c #515E75",
"7  c #516078",
"8  c #014B84",
"9  c #024E89",
"0  c #0C5184",
"q  c #04518D",
"w  c #0F578C",
"e  c #1C5C8C",
"r  c #065592",
"t  c #095792",
"y  c #095996",
"u  c #0C5D9A",
"i  c #135D94",
"p  c #2B5B81",
"a  c #0F619D",
"s  c #12649E",
"d  c #1D6598",
"f  c #13689F",
"g  c #226287",
"h  c #2E658F",
"j  c #226C97",
"k  c #216499",
"l  c #236B9B",
"z  c #2B6C9B",
"x  c #326C98",
"c  c #36739F",
"v  c #3B749E",
"b  c #1566A0",
"n  c #1669A0",
"m  c #1A6DA2",
"M  c #1D72A4",
"N  c #236CA1",
"B  c #286DA0",
"V  c #2175A6",
"C  c #2A71A1",
"Z  c #2378A7",
"A  c #2577A9",
"S  c #2A76A8",
"D  c #257AA9",
"F  c #297DAB",
"G  c #3474A1",
"H  c #3B76A1",
"J  c #3778A6",
"K  c #3D7AA4",
"L  c #327BAB",
"P  c #3D7DA9",
"I  c #377FB0",
"U  c #4C6C84",
"Y  c #566F83",
"T  c #527089",
"R  c #5A768D",
"E  c #40779F",
"W  c #44789F",
"Q  c #4D7A9D",
"!  c #537A97",
"~  c #5F7990",
"^  c #587E9A",
"/  c #64788C",
"(  c #647D94",
")  c #437BA3",
"_  c #4B7EA4",
"`  c #447FA9",
"'  c #3780B1",
"]  c #3A83B1",
"[  c #5B809D",
"{  c #6A8296",
"}  c #4C80A6",
"|  c #4383AD",
" . c #4B84AB",
".. c #5182A7",
"X. c #5B84A3",
"o. c #5485A9",
"O. c #5987AA",
"+. c #5589AF",
"@. c #5C8AAD",
"#. c #4285B0",
"$. c #4B87B1",
"%. c #4E89B1",
"&. c #558AB1",
"*. c #5B8EB2",
"=. c #5A90B7",
"-. c #618DAF",
";. c #7B92A8",
":. c #628FB1",
">. c #6491B2",
",. c #6B95B4",
"<. c #6F98B7",
"1. c #7199B7",
"2. c #759CB9",
"3. c #799EBB",
"4. c #7DA1BD",
"5. c #78A3C2",
"6. c #98A5AF",
"7. c #81A4BF",
"8. c #9DABB4",
"9. c #84A6C0",
"0. c #86A8C2",
"q. c #8CACC4",
"w. c #90AFC6",
"e. c #92B0C7",
"r. c #95B3C9",
"t. c #99B6CB",
"y. c #9EB9CD",
"u. c #A0BACF",
"i. c #A4BDD1",
"p. c #A7C0D2",
"a. c #A8C0D3",
"s. c #B1C7D7",
"d. c #B5C9D9",
"f. c #BBCEDC",
"g. c #BFD1DF",
"h. c #C1D3DF",
"j. c #C4D5E1",
"k. c #C8D7E3",
"l. c #CEDBE5",
"z. c #D3DCE4",
"x. c #D5E0E7",
/* pixels */
"8.z.l.h.j.j.j.j.j.j.j.j.j.j.j.j.j.k.k.k.k.k.k.k.k.k.k.k.k.l.z.6.",
"z.4.7.9.0.0.q.q.w.e.r.r.t.t.y.y.u.i.i.i.i.p.a.a.a.a.a.a.a.a.i.x.",
"f.3.3.4.4.7.9.0.q.q.q.e.e.r.r.t.t.y.y.u.i.i.i.p.a.a.a.a.a.a.a.j.",
"f.1.2.3.4.q.q.q.0.q.r.t.r.w.e.r.r.t.t.y.y.u.i.i.i.i.p.a.a.a.a.j.",
"d.,.,.1.( X o = q.5 o o 7 q.q.q.w.e.r.r.t.t.y.y.u.i.i.i.i.a.a.j.",
"s.-.>.,.( X X O r.= o o 6 q.9.0.q.q.q.e.r.r.t.t.y.y.u.u.i.i.i.g.",
"a.@.@.>.( . % X ;.O & X 6 9.4.7.9.0.q.q.q.w.e.r.r.t.t.y.y.u.i.f.",
"y.o.O.-.~ . - . 2 X 2 X 5 4.3.3.4.7.7.9.0.q.q.q.e.e.r.t.t.y.y.f.",
"q._ ..O.R . 3 $ @ . / X 4 3.1.2.2.3.4.4.7.9.0.0.q.q.w.e.r.r.t.d.",
"0.x _ ..R   3 - . $ { . 4 1.,.,.<.1.2.3.3.4.4.7.9.0.q.q.q.e.e.s.",
"7.0 W _ U   > Y   - ( . 3 ,.-.>.>.,.,.1.2.2.3.4.4.7.9.9.0.q.q.a.",
"4.; e W Q U ! X.U ^ X.T [ @.@.@.-.:.>.,.,.<.1.2.3.3.4.4.7.9.0.i.",
"3.; ; e E ) ) ) _ _ _ ......o.o.O.@.@.-.>.>.,.,.<.1.2.3.4.4.7.u.",
"1.; ; ; e v v v E ) ) ) _ _ } ....o.O.@.@.@.:.>.,.,.<.1.2.2.3.t.",
",.: : : : 0 z c v v H ) ) ) ) _ } } ..o.o.O.@.@.:.>.>.,.,.<.1.e.",
">.: 8 8 8 8 8 w z c c H H K K ) ) ` }  . . .+.+.+.*.*.:.>.>.,.q.",
"*.8 8 8 8 8 8 8 8 w l G G G H K K K ` ` `  . . . .+.&.&.*.*.>.9.",
"&.8 8 8 9 9 9 9 9 9 9 q i d z J P P P P P | | | |  .%.%.&.&.*.5.",
"$.9 9 9 9 q q q q q q q q q t k < h B l N N N L L L C C C C l =.",
"#.q q q r r r r r r t t t y l +     , i t t r r r r q q q q q | ",
"] r r r y y y y u u u u u s p       # N u u u u y y y t r r q ] ",
"' y y y u u u u u a s s s b x       * N s s a u u u u u y y r I ",
"L u u u a a a s s f b b n n S 1 # * G m b b f s s a a u u u y L ",
"F u u a a s f b n n n m m m m A S S M m m n n n b f s a a u u F ",
"F a a s s b n m m m m m M M M M M M M M m m m m m n b s s a a F ",
"D a s f n n m m m M M M M V V V V V V M M M M m m m n n f s a S ",
"A s f n m m M M M M V V V V V V V V V V V V M M M M m m n f s A ",
"V f n m m M M M V V V Z Z Z Z Z Z Z Z Z Z V V V M M M m m n f V ",
"V n m M M M M V V Z Z Z D D D D D D D D Z Z Z V V M M M m m n V ",
"V m M M M V V Z Z Z D D D D D D D D D D D D Z Z Z V V M M m m V ",
"l M M M V V Z Z D D D D D D D D D D D D D D D D Z Z V V M M m l ",
"g j M V Z D D D F F F F F F F F F F F F F F F F D D D Z V M j g "
};
