/* XPM */
static char *matchKeys[] = {
/* columns rows colors chars-per-pixel */
"32 32 178 2 ",
"   c #000000",
".  c #0A0601",
"X  c #0C0804",
"o  c #150E02",
"O  c #110D09",
"+  c #1D1303",
"@  c #13100C",
"#  c #1B150E",
"$  c #191510",
"%  c #201603",
"&  c #2C1D05",
"*  c #301E04",
"=  c #261E13",
"-  c #342306",
";  c #3C2A08",
":  c #352B1E",
">  c #362E24",
",  c #482E07",
"<  c #473109",
"1  c #4B3209",
"2  c #543305",
"3  c #533609",
"4  c #53390B",
"5  c #583908",
"6  c #533C1F",
"7  c #613F0A",
"8  c #473722",
"9  c #543E22",
"0  c #503F2B",
"q  c #64410A",
"w  c #714609",
"e  c #74490A",
"r  c #7F500A",
"t  c #7C5711",
"y  c #544026",
"u  c #55422B",
"i  c #4E4131",
"p  c #554532",
"a  c #584935",
"s  c #5A4D3C",
"d  c #674E2E",
"f  c #684F30",
"g  c #655034",
"h  c #6C573A",
"j  c #5A4F41",
"k  c #6A5A47",
"l  c #715F49",
"z  c #796346",
"x  c #7A6852",
"c  c #83540C",
"v  c #935C0C",
"b  c #815710",
"n  c #8F6012",
"m  c #966612",
"M  c #9E6A12",
"N  c #A4670D",
"B  c #B6720F",
"V  c #A46D12",
"C  c #B17112",
"Z  c #BA7610",
"A  c #B67B16",
"S  c #BD7B14",
"D  c #B97E18",
"F  c #C56F04",
"G  c #C77004",
"H  c #CB7405",
"J  c #CE7807",
"K  c #C6750E",
"L  c #CE7909",
"P  c #D27D0B",
"I  c #C07A12",
"U  c #CF7D12",
"Y  c #CB7E1D",
"T  c #8A704D",
"R  c #8A765B",
"E  c #A07F59",
"W  c #8E823A",
"Q  c #908439",
"!  c #BF8E2F",
"~  c #D3810E",
"^  c #C58517",
"/  c #C0841A",
"(  c #CC8319",
")  c #CC8B1B",
"_  c #D48412",
"`  c #D58B15",
"'  c #D48619",
"]  c #D58D1A",
"[  c #D59017",
"{  c #D7931B",
"}  c #D8961E",
"|  c #D7991E",
" . c #D8981F",
".. c #CD8221",
"X. c #D68D24",
"o. c #D88E24",
"O. c #D58D2C",
"+. c #C1912E",
"@. c #D29323",
"#. c #D99525",
"$. c #D89B21",
"%. c #D8912C",
"&. c #DB992A",
"*. c #CF8B35",
"=. c #C09030",
"-. c #D79337",
";. c #DA9635",
":. c #DC9B34",
">. c #D6943C",
",. c #DB9A3C",
"<. c #DDA03E",
"1. c #B3854B",
"2. c #D59643",
"3. c #D89741",
"4. c #D79846",
"5. c #DB9C43",
"6. c #D6994C",
"7. c #DA9D4B",
"8. c #D79D54",
"9. c #D99E52",
"0. c #D79E59",
"q. c #D89F58",
"w. c #DEA045",
"e. c #DEA24C",
"r. c #DDA354",
"t. c #D7A15E",
"y. c #DCA45B",
"u. c #DFA85D",
"i. c #E0A54E",
"p. c #E0A653",
"a. c #E0A857",
"s. c #E1AA5B",
"d. c #C29E6F",
"f. c #CCA069",
"g. c #DBA662",
"h. c #DEA964",
"j. c #DAA768",
"k. c #DDAB6B",
"l. c #C9A579",
"z. c #DDAE72",
"x. c #DFB075",
"c. c #DEB27B",
"v. c #E1AD64",
"b. c #E1AE6A",
"n. c #E2B16E",
"m. c #E2B374",
"M. c #E8BC76",
"N. c #E2B67C",
"B. c #E4B87E",
"V. c #B8B5AB",
"C. c #BEBAB0",
"Z. c #C6A883",
"A. c #CBAA81",
"S. c #DFB581",
"D. c #E1B683",
"F. c #E4BA84",
"G. c #E4BC8B",
"H. c #E4BF93",
"J. c #E9C287",
"K. c #EBC58F",
"L. c #E6C194",
"P. c #EBC897",
"I. c #E6C59B",
"U. c #E8C69B",
"Y. c #EAC99E",
"T. c #E7C7A0",
"R. c #E9CAA4",
"E. c #EACDA9",
"W. c #EDD0AA",
"Q. c #EED4B3",
"!. c #EDD7B9",
"~. c #EFDABD",
"^. c #EEDBC3",
"/. c #F0DDC5",
"(. c #F1DFC8",
"). c #EEE3D6",
"_. c #EFE6D9",
"`. c #F2E3D0",
/* pixels */
"C.).`.^./.^.^././././.^./.(.(.(.(.(.(.(.(.(.(.(.(.(.(.(.(.`._.V.",
").S.S.S.G.G.G.G.H.H.L.I.I.I.I.I.T.R.R.R.R.E.E.E.E.E.E.E.E.E.E._.",
"^.x.c.S.S.D.G.D.G.G.H.H.H.L.I.I.I.T.T.R.R.E.R.E.E.E.E.E.E.E.E.^.",
"!.z.z.    E S.E     G.            H.k @ X > T.R.  j E.E.  j E.(.",
"Q.j.k.    i c.0     F.l.l.  i A.A.l   R Z.x Y.T.  j R.E.  j E./.",
"Q.j.j.  = X f.X =   c.S.D.  p G.G.$ > L.I.L.L.U.  s T.T.  j R.^.",
"E.t.g.  0 # 8 # u   x.m.N.  p F.G.  i G.G.L.L.L.    X X   s R.~.",
"T.0.q.  9 d   f y   k.z.z.  u N.N.$ : F.G.G.G.L.  i Z.A.  s Y.!.",
"L.6.8.  9 1.  1.y   j.k.k.  u x.x.h   T d.z F.F.  a K.L.  s U.Q.",
"F.*.6.  6 9.8.8.y   y.g.g.  u b.k.z.g O . : D.D.  a F.G.  a K.Q.",
"D.K 2.4.6.6.6.9.8.0.y.y.y.g.g.v.k.k.b.n.n.m.N.N.N.F.F.F.F.G.G.W.",
"N.F Y 2.2.4.4.6.6.7.7.8.8.y.y.y.y.h.j.k.b.k.n.n.N.m.N.B.F.F.F.W.",
"m.F G ..>.>.2.3.4.6.6.7.7.9.9.y.u.y.g.v.v.j.v.b.n.n.m.M.M.B.B.Y.",
"n.F G G Y >.>.>.3.,.5.4.7.7.7.7.9.e.r.y.u.s.v.v.v.b.n.n.m.m.m.P.",
"b.G G G G P O.-.>.-.-.5.,.5.4.7.7.7.e.e.y.y.y.s.s.v.v.v.n.n.n.K.",
"v.G G G G G G U O.-.-.>.>.,.,.5.5.7.7.7.e.e.e.p.y.s.s.v.s.v.v.J.",
"a.G H G H H G J H U X.-.;.;.,.;.,.,.<.5.w.w.w.i.i.p.p.a.s.s.s.F.",
"p.H H H H H J G H H H L U ' %.;.,.,.,.,.5.w.w.w.w.w.i.p.p.a.s.M.",
"i.H J J H J L J J J H L P P L L P U ' o.o.o.o.;.;.;.%.%.%.%.o.s.",
"w.J J J J J P P L L P P P P P P P P P P P P P P P P L L J J P w.",
",.P P P P P P P P P _ P P _ U ~ U ~ U P ~ P P P P P P P P P J <.",
":.P P P P P ~ ~ _ P _ _ _ _ _ _ _ _ _ _ _ _ _ P ~ P P P P P P :.",
"&.~ P ~   2 ~ w   e ' .       3 . , _ I X * _ v % . o 5 P ~ P :.",
"&.~ ~ ~   3 r . q ` _   1 S S ( 7   V 3 . C ` o * B N c ~ ~ P &.",
"&.~ _ _   +   5 ' ' [   3 [ ] ] ( o +   q ` ` X o c Z _ _ _ ~ &.",
"$._ _ `     . S [ [ {   . X X b { n   o ) ] { b .     7 ` _ _ #.",
"#._ _ `   & . % ^ { {   , D D ) { {   4 { { [ { ` M + . ` _ _ } ",
"} ` ` `   4 M . & ) {   < / / ) } #.. 3 } } } 5 V A & o ` ` ` { ",
"} ` [ [   4 { m . - ]         t } }   4 $.} } ; o   + m [ ` ` @.",
"@.[ [ [ { | | { | } $.$.$.$.$.$.$.} #.$.| $.} } } } } [ [ [ ` @.",
"+.[ [ | |  .| | $.$.$.$.$.| $.$.$.$.| | $.$.| | | | } { { [ [ =.",
"Q ! { | |  . . .$.$.$.$.$.$.$.$.$.$.$.$.$.$.$.$.$.| $.} } { =.W "
};
