/* XPM */
static char * image_name[] = {
"32 32 34 1",
" 	c #C1C1C1C1C1C1",
".	c #646464646464",
"X	c #2B2B2B2B2B2B",
"o	c #3D3D3D3D3D3D",
"O	c #414141414141",
"+	c #4E4E4E4E4E4E",
"@	c #000000000000",
"#	c #1A1A1A1A1A1A",
"$	c #151515151515",
"%	c #080808080808",
"&	c #1E1E1E1E1E1E",
"*	c #959595959595",
"=	c #999999999999",
"-	c #A6A6A6A6A6A6",
";	c #BCBCBCBCBCBC",
":	c #B8B8B8B8B8B8",
">	c #838383838383",
",	c #5D5D5D5D5656",
"<	c #8F8F8F8F8484",
"1	c #797979796F6F",
"2	c #1B1B1B1B1919",
"3	c #727272727272",
"4	c #D1D1D1D1C1C1",
"5	c #F2F2F2F2DFDF",
"6	c #373737373232",
"7	c #212121211E1E",
"8	c #E7E7E7E7D5D5",
"9	c #272727272727",
"0	c #606060606060",
"q	c #040404040404",
"w	c #313131312D2D",
"e	c #4D4D4D4D4747",
"r	c #050505050505",
"t	c #ABABABABABAB",
"                                ",
" .XoXXXXXXoooXXXXXXXoXXXO       ",
" +@@@@@@@@@@@@@@@@@@@@@@#       ",
" +$##%###%#%%####%###%##&       ",
" +*    =*-**-*---*---***#*-----;",
" +*    #@@@@@@@@@@@@@@@@@@@@@@@-",
" +*    X@@@@@@@@@@@@@@@@@@@@@@@:",
" +>    #,<<11<<<111<<1111<111<2-",
" +3    #45555555555555555555556-",
" +>    X45555555555555555555556:",
" +*    X45555555555555555555557:",
" +*    #45555555555555555555557-",
" +3    X45555555555555555555556-",
" +>    #45555555555555555555557:",
" +>    X85555555555555555555556-",
" +90++0q45555555555555555555557-",
" =33333$45555555555555555555557:",
"       X45555555555555555555557-",
"       X45555555555555555555557:",
"       Xw6e66e6e66666e6666e66er-",
"       t**>*******>****>>***>>>;",
"                                ",
"                                ",
"                                ",
"                                ",
"                                ",
"                                ",
"                                ",
"                                ",
"                                ",
"                                ",
"                                "};
