/* XPM */
static char * image_name[] = {
"32 32 22 1",
" 	c #C1C1C1C1C1C1",
".	c #767676767676",
"X	c #646464646464",
"o	c #2B2B2B2B2B2B",
"O	c #BCBCBCBCBCBC",
"+	c #838383838383",
"@	c #4E4E4E4E4E4E",
"#	c #040404040404",
"$	c #151515151515",
"%	c #878787878787",
"&	c #272727272727",
"*	c #606060606060",
"=	c #080808080808",
"-	c #3D3D3D3D3D3D",
";	c #999999999999",
":	c #ABABABABABAB",
">	c #959595959595",
",	c #393939393939",
"<	c #A6A6A6A6A6A6",
"1	c #727272727272",
"2	c #000000000000",
"3	c #4A4A4A4A4A4A",
"                                ",
"               .X               ",
"               oo               ",
"            O+@#$@+O            ",
"           %&&*&$*#&%           ",
"          .=*O o- O*=%          ",
"         ;=. ;-##o: %=%         ",
"        O&* %=*&&@=% *&O        ",
"        >#:O=.O&,O%=;:#<        ",
"        1o *@ @22@ -* o1        ",
"      .=##=##=#22#=##=##=.      ",
"      ;1,&*&,1&22&1&&1&31;      ",
"        1$O1$O:&$.O&1O$+        ",
"        O#>O&3:ooO3&O>#O        ",
"         @&OO,##$$&OO&*         ",
"         O&3:O<$$<O:,&O         ",
"          O&&*:--:*&,:          ",
"           O*#####$1O           ",
"             O>$&>O             ",
"               -o               ",
"               ;;               ",
"                                ",
"                                ",
"                                ",
"                                ",
"                                ",
"                                ",
"                                ",
"                                ",
"                                ",
"                                ",
"                                "};
