/* XPM */
static char * xRay_xpm[] = {
"32 32 747 2",
"  	c None",
". 	c #5F7279",
"+ 	c #A1B5BC",
"@ 	c #AFC3CB",
"# 	c #A9BEC5",
"$ 	c #A9BFC7",
"% 	c #AAC0C8",
"& 	c #ABC1C9",
"* 	c #ADC3CB",
"= 	c #AEC4CC",
"- 	c #AFC5CD",
"; 	c #B0C5CC",
"> 	c #B0C4CC",
", 	c #B0C4CB",
"' 	c #B3C6CD",
") 	c #A2B5BB",
"! 	c #5E6F76",
"~ 	c #A7BDC5",
"{ 	c #7B9199",
"] 	c #7D959D",
"^ 	c #7F97A0",
"/ 	c #8099A2",
"( 	c #829BA5",
"_ 	c #859EA8",
": 	c #87A0AA",
"< 	c #8BA4AE",
"[ 	c #8CA5AF",
"} 	c #8EA7B1",
"| 	c #90A9B3",
"1 	c #92ABB5",
"2 	c #94ADB7",
"3 	c #95AEB8",
"4 	c #96AFB9",
"5 	c #98B1BB",
"6 	c #9AB3BD",
"7 	c #9BB4BE",
"8 	c #9EB7C1",
"9 	c #9FB8C2",
"0 	c #A0B9C3",
"a 	c #A1BAC4",
"b 	c #A1BAC3",
"c 	c #A0B9C2",
"d 	c #A1B9C2",
"e 	c #A1B8C1",
"f 	c #A2B8C0",
"g 	c #A0B6BE",
"h 	c #A6BBC2",
"i 	c #9BB4BD",
"j 	c #738C96",
"k 	c #748F99",
"l 	c #75919B",
"m 	c #78949F",
"n 	c #7B98A2",
"o 	c #7D9AA4",
"p 	c #84A0AA",
"q 	c #96AEB7",
"r 	c #9DB5BD",
"s 	c #9FB7BF",
"t 	c #A1B8C0",
"u 	c #9DB6BE",
"v 	c #92AEB7",
"w 	c #8EABB5",
"x 	c #90ADB7",
"y 	c #92AFB9",
"z 	c #95B1BB",
"A 	c #A0BAC3",
"B 	c #ADC4CC",
"C 	c #ADC5CD",
"D 	c #AFC6CE",
"E 	c #AFC7CF",
"F 	c #AAC3CC",
"G 	c #A0BDC7",
"H 	c #9EBAC5",
"I 	c #9EBAC4",
"J 	c #9FBAC4",
"K 	c #9FB9C3",
"L 	c #98B4BF",
"M 	c #698791",
"N 	c #6C8A95",
"O 	c #6F8D99",
"P 	c #708F9B",
"Q 	c #71929E",
"R 	c #7595A1",
"S 	c #85A3AD",
"T 	c #BCC8CD",
"U 	c #D3D9DC",
"V 	c #D8DEE1",
"W 	c #D4DBDE",
"X 	c #B5C5CB",
"Y 	c #8BABB6",
"Z 	c #88A9B5",
"` 	c #8AABB7",
" .	c #98B6C0",
"..	c #BACED5",
"+.	c #DAE0E3",
"@.	c #D7DEE0",
"#.	c #C6D0D4",
"$.	c #9ABAC5",
"%.	c #9BBAC5",
"&.	c #9DBBC6",
"*.	c #A4BFC9",
"=.	c #93B3BE",
"-.	c #61828E",
";.	c #648592",
">.	c #658894",
",.	c #678A97",
"'.	c #698D9A",
").	c #6C909D",
"!.	c #7396A2",
"~.	c #A2B8C1",
"{.	c #E6E8E9",
"].	c #F7F8F8",
"^.	c #FAFAFB",
"/.	c #E2E5E7",
"(.	c #97B4BF",
"_.	c #82A6B3",
":.	c #87AAB6",
"<.	c #A6C1CB",
"[.	c #D7DDE0",
"}.	c #F4F5F6",
"|.	c #F9F9F9",
"1.	c #EDEEEF",
"2.	c #B5C8CF",
"3.	c #93B7C1",
"4.	c #94B7C2",
"5.	c #96B9C3",
"6.	c #98B9C4",
"7.	c #99BAC5",
"8.	c #9CBCC6",
"9.	c #9CBBC6",
"0.	c #A5C3CC",
"a.	c #8EB1BD",
"b.	c #597D8A",
"c.	c #5B7F8D",
"d.	c #5C8290",
"e.	c #5F8593",
"f.	c #618897",
"g.	c #638A99",
"h.	c #668C9B",
"i.	c #7599A7",
"j.	c #BDCBD1",
"k.	c #F3F4F4",
"l.	c #FEFEFE",
"m.	c #F5F6F7",
"n.	c #C7D2D7",
"o.	c #85A9B7",
"p.	c #8DAFBC",
"q.	c #BDCFD6",
"r.	c #EFF0F1",
"s.	c #FFFFFF",
"t.	c #8EB4BF",
"u.	c #8CB3BE",
"v.	c #8DB4BF",
"w.	c #90B6C0",
"x.	c #92B7C1",
"y.	c #94B8C2",
"z.	c #98BBC5",
"A.	c #9FC0C9",
"B.	c #84AAB8",
"C.	c #507786",
"D.	c #537A89",
"E.	c #547D8C",
"F.	c #567F8E",
"G.	c #598292",
"H.	c #5C8595",
"I.	c #5E8797",
"J.	c #638B9B",
"K.	c #7EA0AE",
"L.	c #D8DEE0",
"M.	c #FDFDFD",
"N.	c #EDEFEF",
"O.	c #AAC0CA",
"P.	c #A1BEC9",
"Q.	c #DEE3E5",
"R.	c #FCFDFD",
"S.	c #EBEDEE",
"T.	c #99B8C2",
"U.	c #84ADB9",
"V.	c #86AFBA",
"W.	c #88B1BC",
"X.	c #8AB3BD",
"Y.	c #8CB4BE",
"Z.	c #8EB5C0",
"`.	c #8FB6C0",
" +	c #92B8C2",
".+	c #99BEC6",
"++	c #749DAD",
"@+	c #487382",
"#+	c #4A7585",
"$+	c #4C7888",
"%+	c #4E7A8B",
"&+	c #517D8E",
"*+	c #548091",
"=+	c #558192",
"-+	c #598495",
";+	c #628C9D",
">+	c #99B3BE",
",+	c #E2E7E9",
"'+	c #CAD8DD",
")+	c #F4F4F5",
"!+	c #B3C7CD",
"~+	c #7BA7B4",
"{+	c #7DA9B5",
"]+	c #7EAAB6",
"^+	c #80ACB8",
"/+	c #82AEB9",
"(+	c #85B1BB",
"_+	c #88B3BD",
":+	c #8BB4BE",
"<+	c #8CB5BF",
"[+	c #93BCC4",
"}+	c #5E8A9B",
"|+	c #426D7D",
"1+	c #457182",
"2+	c #477385",
"3+	c #497688",
"4+	c #4A7889",
"5+	c #4C7B8C",
"6+	c #4D7D8E",
"7+	c #508091",
"8+	c #538293",
"9+	c #638F9F",
"0+	c #B7C8CE",
"a+	c #FBFBFB",
"b+	c #FCFCFC",
"c+	c #D9E0E2",
"d+	c #76A4B0",
"e+	c #72A2AF",
"f+	c #74A4B0",
"g+	c #77A7B3",
"h+	c #79A9B4",
"i+	c #7CABB6",
"j+	c #7EACB7",
"k+	c #80AEB8",
"l+	c #83AFBA",
"m+	c #8BB7C0",
"n+	c #538394",
"o+	c #325769",
"p+	c #416C7E",
"q+	c #426E81",
"r+	c #447083",
"s+	c #467486",
"t+	c #477688",
"u+	c #49788A",
"v+	c #4A7A8C",
"w+	c #4C7D8F",
"x+	c #518193",
"y+	c #6F99A8",
"z+	c #D6DDE0",
"A+	c #F9FAFA",
"B+	c #8CAFBA",
"C+	c #689BA9",
"D+	c #6A9DAB",
"E+	c #6DA0AD",
"F+	c #6FA2AE",
"G+	c #71A3B0",
"H+	c #74A5B1",
"I+	c #77A8B3",
"J+	c #79AAB5",
"K+	c #7CACB6",
"L+	c #7EADB8",
"M+	c #85B3BC",
"N+	c #4E7E91",
"O+	c #183447",
"P+	c #3D677A",
"Q+	c #3F6A7D",
"R+	c #406C80",
"S+	c #426E82",
"T+	c #437084",
"U+	c #457286",
"V+	c #477589",
"W+	c #48778B",
"X+	c #4B7A8D",
"Y+	c #5C889A",
"Z+	c #A6BEC7",
"`+	c #BBCCD3",
" @	c #6295A5",
".@	c #6195A5",
"+@	c #6397A6",
"@@	c #6599A8",
"#@	c #689CAA",
"$@	c #6A9EAB",
"%@	c #6DA1AD",
"&@	c #6FA3AF",
"*@	c #72A5B0",
"=@	c #74A7B2",
"-@	c #77A9B4",
";@	c #7EAFB8",
">@	c #49788C",
",@	c #102A3E",
"'@	c #224357",
")@	c #3A6579",
"!@	c #3C677C",
"~@	c #3E6A7F",
"{@	c #3F6C81",
"]@	c #416E83",
"^@	c #426F84",
"/@	c #447287",
"(@	c #49778C",
"_@	c #6F95A6",
":@	c #BFCDD4",
"<@	c #F6F7F7",
"[@	c #D1DADE",
"}@	c #6698A7",
"|@	c #5A8FA0",
"1@	c #5A91A1",
"2@	c #5D94A3",
"3@	c #6097A6",
"4@	c #6299A7",
"5@	c #649BA8",
"6@	c #689EAB",
"7@	c #6AA0AC",
"8@	c #6EA2AE",
"9@	c #70A4B0",
"0@	c #74A8B3",
"a@	c #457388",
"b@	c #102B3F",
"c@	c #26495E",
"d@	c #396479",
"e@	c #3A657B",
"f@	c #3B677D",
"g@	c #3D697F",
"h@	c #3E6B81",
"i@	c #416F85",
"j@	c #598295",
"k@	c #9EB5C1",
"l@	c #F1F2F3",
"m@	c #A7BEC6",
"n@	c #5B8EA0",
"o@	c #578C9D",
"p@	c #588F9F",
"q@	c #5991A0",
"r@	c #5B93A2",
"s@	c #5D96A4",
"t@	c #6099A6",
"u@	c #639BA8",
"v@	c #659CA9",
"w@	c #689FAB",
"x@	c #6DA3AE",
"y@	c #406E84",
"z@	c #102B41",
"A@	c #102C42",
"B@	c #21445A",
"C@	c #366177",
"D@	c #38647A",
"E@	c #3A667C",
"F@	c #3B687D",
"G@	c #457085",
"H@	c #7A9BAA",
"I@	c #D6DCDF",
"J@	c #FBFBFC",
"K@	c #E4E7E9",
"L@	c #7DA3B0",
"M@	c #54889A",
"N@	c #53899A",
"O@	c #558C9C",
"P@	c #578E9E",
"Q@	c #5A92A1",
"R@	c #5C95A3",
"S@	c #5E97A5",
"T@	c #619AA7",
"U@	c #639CA8",
"V@	c #3D6B81",
"W@	c #102C43",
"X@	c #102D43",
"Y@	c #19394F",
"Z@	c #30596F",
"`@	c #366278",
" #	c #3C677D",
".#	c #648899",
"+#	c #B9C7CE",
"@#	c #CED7DC",
"##	c #B7C8CF",
"$#	c #CBD5D9",
"%#	c #5C8D9D",
"&#	c #508496",
"*#	c #518798",
"=#	c #528899",
"-#	c #548B9B",
";#	c #568D9D",
">#	c #58909F",
",#	c #5B94A2",
"'#	c #3A687E",
")#	c #102D44",
"!#	c #102D45",
"~#	c #1E3F57",
"{#	c #476C81",
"]#	c #97AEBA",
"^#	c #63889B",
"/#	c #60889C",
"(#	c #A4BAC3",
"_#	c #528396",
":#	c #4D8093",
"<#	c #4D8294",
"[#	c #4F8596",
"}#	c #528999",
"|#	c #548C9B",
"1#	c #578F9E",
"2#	c #38647B",
"3#	c #102E45",
"4#	c #102E46",
"5#	c #123048",
"6#	c #1C3950",
"7#	c #5C7283",
"8#	c #D3D8DC",
"9#	c #8EA5B2",
"0#	c #3D6B83",
"a#	c #457289",
"b#	c #85A3B1",
"c#	c #E3E7E9",
"d#	c #779CAA",
"e#	c #4A7D90",
"f#	c #4A7E91",
"g#	c #4A7F91",
"h#	c #4C8293",
"i#	c #4F8496",
"j#	c #508697",
"k#	c #356179",
"l#	c #112F47",
"m#	c #112F48",
"n#	c #113149",
"o#	c #15354C",
"p#	c #425D71",
"q#	c #A2B7BF",
"r#	c #DAF4F4",
"s#	c #E3FEFE",
"t#	c #BFC8CE",
"u#	c #356078",
"v#	c #38667E",
"w#	c #3A6980",
"x#	c #4B778D",
"y#	c #AEC0C8",
"z#	c #C9D3D7",
"A#	c #558497",
"B#	c #46798C",
"C#	c #477B8E",
"D#	c #487C8F",
"E#	c #4C8193",
"F#	c #4E8495",
"G#	c #325D76",
"H#	c #12324A",
"I#	c #12324B",
"J#	c #13334C",
"K#	c #1B3A52",
"L#	c #647A8A",
"M#	c #D8DBDC",
"N#	c #E7E9EA",
"O#	c #EAECED",
"P#	c #E9EBEC",
"Q#	c #D7DADD",
"R#	c #3B576B",
"S#	c #15364F",
"T#	c #14354E",
"U#	c #1A3D56",
"V#	c #20445D",
"W#	c #45677D",
"X#	c #C8CFD3",
"Y#	c #E8EAEB",
"Z#	c #E9EAEC",
"`#	c #DDDFE1",
" $	c #859EAA",
".$	c #3A6981",
"+$	c #315D76",
"@$	c #315D75",
"#$	c #325E76",
"$$	c #336078",
"%$	c #2C556E",
"&$	c #305B74",
"*$	c #13344D",
"=$	c #153650",
"-$	c #173852",
";$	c #1F4059",
">$	c #2A4961",
",$	c #2B4A62",
"'$	c #2B4A63",
")$	c #24455D",
"!$	c #1C3D57",
"~$	c #193B55",
"{$	c #1A3C56",
"]$	c #1D3F58",
"^$	c #26475F",
"/$	c #2B4B63",
"($	c #25455D",
"_$	c #193A54",
":$	c #163751",
"<$	c #163750",
"[$	c #305B73",
"}$	c #2D5872",
"|$	c #163952",
"1$	c #173A54",
"2$	c #183B55",
"3$	c #193D57",
"4$	c #1A3E58",
"5$	c #1B3F59",
"6$	c #1B405A",
"7$	c #1C415B",
"8$	c #1D425C",
"9$	c #1E435D",
"0$	c #1F445E",
"a$	c #1C405A",
"b$	c #1A3F59",
"c$	c #193D56",
"d$	c #183B54",
"e$	c #163852",
"f$	c #2D5871",
"g$	c #2B5670",
"h$	c #193E58",
"i$	c #1F455F",
"j$	c #224963",
"k$	c #1E445E",
"l$	c #234A64",
"m$	c #214862",
"n$	c #204660",
"o$	c #204761",
"p$	c #234B65",
"q$	c #325B75",
"r$	c #325B74",
"s$	c #2A526C",
"t$	c #264D67",
"u$	c #2F5872",
"v$	c #29516B",
"w$	c #214761",
"x$	c #244C66",
"y$	c #2D556F",
"z$	c #2B546E",
"A$	c #2A536D",
"B$	c #264E68",
"C$	c #173A53",
"D$	c #2B556F",
"E$	c #29536D",
"F$	c #193C56",
"G$	c #1A3E59",
"H$	c #1E445F",
"I$	c #7FB1BA",
"J$	c #2B536D",
"K$	c #658E9F",
"L$	c #668B9B",
"M$	c #244D68",
"N$	c #264E69",
"O$	c #335C77",
"P$	c #85A4B0",
"Q$	c #BBD1D5",
"R$	c #C3D8DA",
"S$	c #94B0BA",
"T$	c #3B637D",
"U$	c #36617B",
"V$	c #B9CED2",
"W$	c #8EABB6",
"X$	c #567A8F",
"Y$	c #29526D",
"Z$	c #A5D1D4",
"`$	c #ABDDDF",
" %	c #9FD9DB",
".%	c #98D3D5",
"+%	c #487788",
"@%	c #264F6A",
"#%	c #1B3F5A",
"$%	c #1C415C",
"%%	c #254C66",
"&%	c #6595A3",
"*%	c #B1DFE1",
"=%	c #335D77",
"-%	c #94B7C0",
";%	c #98B4BE",
">%	c #335F78",
",%	c #829FAD",
"'%	c #B3C1C8",
")%	c #3A637C",
"!%	c #346079",
"~%	c #91A6B3",
"{%	c #8DA3AF",
"]%	c #3B6881",
"^%	c #DBDDDF",
"/%	c #5F8295",
"(%	c #A4B8C0",
"_%	c #90A8B3",
":%	c #305B75",
"<%	c #37627C",
"[%	c #BFDEE0",
"}%	c #2E5872",
"|%	c #2C5670",
"1%	c #1F445F",
"2%	c #264F69",
"3%	c #1D435D",
"4%	c #1F4661",
"5%	c #90BAC3",
"6%	c #C8E8E9",
"7%	c #567C92",
"8%	c #CCDFE2",
"9%	c #B9CBD1",
"0%	c #335E79",
"a%	c #47728A",
"b%	c #D4D8DA",
"c%	c #3B657E",
"d%	c #2E5A75",
"e%	c #315D78",
"f%	c #63879A",
"g%	c #ACBAC3",
"h%	c #3F6C86",
"i%	c #D7DADC",
"j%	c #34607B",
"k%	c #9AADB8",
"l%	c #8EA4B0",
"m%	c #396680",
"n%	c #CEDFE0",
"o%	c #5C8196",
"p%	c #557C91",
"q%	c #4C7488",
"r%	c #224A64",
"s%	c #1E455F",
"t%	c #1D425D",
"u%	c #234C67",
"v%	c #234B66",
"w%	c #345E79",
"x%	c #BEDBDD",
"y%	c #AEC9D1",
"z%	c #97B2BE",
"A%	c #BFCCD3",
"B%	c #D6DBDE",
"C%	c #3A6781",
"D%	c #63869A",
"E%	c #AFBCC5",
"F%	c #325F79",
"G%	c #305D77",
"H%	c #37657E",
"I%	c #7997A7",
"J%	c #A3B4BD",
"K%	c #426F88",
"L%	c #D6D9DB",
"M%	c #35627C",
"N%	c #315E78",
"O%	c #49748C",
"P%	c #D5D8DA",
"Q%	c #3D6A84",
"R%	c #DFE1E3",
"S%	c #ADC1C9",
"T%	c #9DB8C0",
"U%	c #95B1BA",
"V%	c #365D75",
"W%	c #214964",
"X%	c #1F4660",
"Y%	c #234C66",
"Z%	c #27516D",
"`%	c #597F94",
" &	c #B1C7CE",
".&	c #7A99AB",
"+&	c #E4E6E7",
"@&	c #91A8B6",
"#&	c #AABBC4",
"$&	c #6B8B9E",
"%&	c #5B8095",
"&&	c #C2CBD0",
"*&	c #3A6881",
"=&	c #427089",
"-&	c #AEBDC5",
";&	c #7190A0",
">&	c #437189",
",&	c #3B6981",
"'&	c #396780",
")&	c #577F95",
"!&	c #CCD2D5",
"~&	c #3E6C85",
"{&	c #DADDDF",
"]&	c #36617D",
"^&	c #2C5672",
"/&	c #234C68",
"(&	c #2B5571",
"_&	c #7D99A7",
":&	c #8AA2AF",
"<&	c #4E768C",
"[&	c #567D91",
"}&	c #809BAA",
"|&	c #8DA4B0",
"1&	c #396880",
"2&	c #9AAEB8",
"3&	c #B0BEC5",
"4&	c #8CA6B2",
"5&	c #97ABB5",
"6&	c #36667D",
"7&	c #427288",
"8&	c #7495A6",
"9&	c #7295A4",
"0&	c #BAC5CB",
"a&	c #839DAA",
"b&	c #3D6B84",
"c&	c #CBD1D4",
"d&	c #65889C",
"e&	c #618598",
"f&	c #587B91",
"g&	c #2A5470",
"h&	c #264F6B",
"i&	c #214965",
"j&	c #26506B",
"k&	c #29556F",
"l&	c #4C7087",
"m&	c #4B7086",
"n&	c #315F78",
"o&	c #6A8999",
"p&	c #33627A",
"q&	c #4A748A",
"r&	c #7E98A5",
"s&	c #34647B",
"t&	c #37677E",
"u&	c #6A8C9C",
"v&	c #86A0AC",
"w&	c #70909F",
"x&	c #35657C",
"y&	c #38687F",
"z&	c #7595A3",
"A&	c #AFBEC5",
"B&	c #AEBDC4",
"C&	c #7A96A4",
"D&	c #34637B",
"E&	c #698A9B",
"F&	c #ADBAC3",
"G&	c #ADBBC2",
"H&	c #A6B4BD",
"I&	c #3F667F",
"J&	c #28526E",
"K&	c #234B67",
"L&	c #28536E",
"M&	c #2A5671",
"N&	c #2C5973",
"O&	c #2E5C75",
"P&	c #305E77",
"Q&	c #316078",
"R&	c #326179",
"S&	c #33637A",
"T&	c #35667C",
"U&	c #36677D",
"V&	c #37687E",
"W&	c #326079",
"X&	c #2F5E76",
"Y&	c #244E69",
"Z&	c #295570",
"`&	c #295470",
" *	c #3E7387",
".*	c #214A66",
"+*	c #244E6A",
"@*	c #254F6B",
"#*	c #26506C",
"$*	c #26516D",
"%*	c #27526E",
"&*	c #28536F",
"**	c #28546F",
"=*	c #214A65",
"-*	c #234D68",
". + @ # $ $ % % % & * * * * = = = - - - - - - - - - ; > , ' ) ! ",
"~ { ] ^ / ( _ : < [ } | 1 2 3 4 5 6 7 8 9 0 a b 0 0 c d e f g h ",
"i j k l m n o p q r s t u v w x y z A B C D E F G H I J K 0 c d ",
"L M N O P Q R S T U V V W X Y Z `  ...W +.+.@.#.G $.%.&.&.H H *.",
"=.-.;.>.,.'.).!.~.{.].^.]./.(._.:.<.[.}.^.|.1.2.3.4.5.6.7.8.9.0.",
"a.b.c.d.e.f.g.h.i.j.k.l.l.m.n.o.p.q.r.l.s.|.@.t.u.v.w.x.y.5.z.A.",
"B.C.D.E.F.G.H.I.J.K.L.|.s.M.N.O.P.Q.^.s.R.S.T.U.V.W.X.Y.Z.`. +.+",
"++@+#+$+%+&+*+=+-+;+>+S.R.s.^.,+'+k.l.l.)+!+~+{+]+^+/+(+_+:+<+[+",
"}+|+1+2+3+4+5+6+7+8+9+0+k.l.l.a+|.b+s.^.c+d+e+f+g+h+i+j+k+l+(+m+",
"n+o+p+q+r+s+t+u+v+w+x+y+z+A+s.s.s.s.R.1.B+C+D+E+F+G+H+I+J+K+L+M+",
"N+O+P+Q+R+S+T+U+V+W+X+Y+Z+)+s.s.s.s.A+`+ @.@+@@@#@$@%@&@*@=@-@;@",
">@,@'@)@!@~@{@]@^@/@(@_@:@<@s.s.s.s.^.[@}@|@1@2@3@4@5@6@7@8@9@0@",
"a@b@b@c@d@e@f@g@h@i@j@k@S.R.s.s.s.s.l.l@m@n@o@p@q@r@s@t@u@v@w@x@",
"y@z@z@A@B@C@D@E@F@G@H@I@|.s.l.^.|.R.s.J@K@L@M@N@O@P@q@Q@R@S@T@U@",
"V@A@W@X@X@Y@Z@`@ #.#+#k.l.l.].@###k.l.l.].$#%#&#*#=#-#;#>#q@,#,#",
"'#)#)#)#)#!#!#~#{#]#S.R.s.J@/.^#/#W |.s.l.l@(#_#:#<#[#*#}#|#1#;#",
"2#!#3#3#4#4#5#6#7#8#|.s.l.l@9#0#a#b#S.R.s.J@c#d#e#f#g#h#i#j#=#j#",
"k#l#l#l#m#n#o#p#q#r#s#l.].t#u#v#w#x#y#k.l.l.].z#A#B#C#D#g#E#F#g#",
"G#n#H#H#I#J#K#L#M#N#O#P#Q#R#S#T#U#V#W#X#Y#O#Z#`# $.$+$@$#$$$%$v#",
"&$J#*$*$T#=$-$;$>$>$,$'$)$!$~$~$~${$]$^$/$,$>$($_$:$<$T#*$*$J#[$",
"}$=$:$|$1$2$3$4$5$6$7$8$9$0$0$9$9$0$0$8$8$7$6$a$5$b$c$d$e$:$S#f$",
"g$1$2$h$i$j$k$l$m$n$o$p$%$q$r$s$t$s$u$v$l$o$w$x$y$z$A$B$7$2$C$D$",
"E$F$G$H$]@I$J$K$L$M$N$O$P$Q$R$S$T$U$V$W$X$Y$N$O$Z$`$ %.%+%4$F$E$",
"@%#%$%%%&%*%=%-%;%g$>%,%'%)%!%~%{%]%^%/%(%_%:%<%[%}%|%B$1%$%#%2%",
"2%3%4%g$5%6%7%8%9%0%a%b%c%d%e%f%g%h%i%j%j%k%l%m%n%o%p%q%r%s%t%N$",
"u%4%v%w%x%y%z%A%B%C%D%E%F%G%H%I%J%K%L%M%N%O%P%Q%R%S%T%U%V%W%X%Y%",
"v%W%Z%`% &.&+&@&#&$&%&&&0#*&=&-&;&>&i%,&'&)&!&~&{&]&e%^&@%u%W%p$",
"W%/&(&_&:&<&i%[&}&|&1&2&3&4&3&5&6&7&L%8&9&0&a&b&c&d&e&f&g&h&u%W%",
"i&j&k&l&m&n&o&p&q&r&s&t&u&v&w&x&s&y&z&A&B&C&D&D&E&F&G&H&I&J&@%W%",
"K&L&M&N&O&P&Q&R&S&s&s&T&U&U&T&T&T&T&U&V&V&s&S&S&p&p&W&X&N&M&J&W%",
"Y&Z&N&O&P&Q&p&S&s&T&T&U&U&U&U&U&U&U&U&U&U&T&T&s&S&p&Q&P&O&N&`&u%",
" *u%.*/&+*@*#*$*%*&*&*&*****************&*&*&*%*$*#*@*+*u%=*-* *"};
