/* XPM */
static char * wireOnShaded_xpm[] = {
"32 32 690 2",
"  	c None",
". 	c #5F7279",
"+ 	c #A1B5BC",
"@ 	c #AFC3CB",
"# 	c #A9BEC5",
"$ 	c #A9BFC7",
"% 	c #AAC0C8",
"& 	c #ABC1C9",
"* 	c #ADC3CB",
"= 	c #AEC4CC",
"- 	c #AFC5CD",
"; 	c #B0C5CC",
"> 	c #B0C4CC",
", 	c #B0C4CB",
"' 	c #B3C6CD",
") 	c #A2B5BB",
"! 	c #5E6F76",
"~ 	c #A7BDC5",
"{ 	c #7B9199",
"] 	c #7D959D",
"^ 	c #7F97A0",
"/ 	c #8099A2",
"( 	c #839CA6",
"_ 	c #869FA9",
": 	c #88A1AB",
"< 	c #8BA4AE",
"[ 	c #8CA5AF",
"} 	c #8DA6B0",
"| 	c #8FA8B2",
"1 	c #91AAB4",
"2 	c #94ADB7",
"3 	c #96AFB9",
"4 	c #97B0BA",
"5 	c #99B2BC",
"6 	c #9BB4BE",
"7 	c #9CB5BE",
"8 	c #9DB6C0",
"9 	c #9EB7C1",
"0 	c #9FB8C2",
"a 	c #A0B9C3",
"b 	c #A1BAC4",
"c 	c #A1BAC2",
"d 	c #A1B9C2",
"e 	c #A1B8C1",
"f 	c #A2B8C0",
"g 	c #A0B6BE",
"h 	c #A6BBC2",
"i 	c #9BB4BD",
"j 	c #738C96",
"k 	c #748F99",
"l 	c #76919B",
"m 	c #7C98A2",
"n 	c #8FA8B0",
"o 	c #98B0B8",
"p 	c #9AB1B9",
"q 	c #9BB3BB",
"r 	c #95AEB7",
"s 	c #88A4AE",
"t 	c #88A5AF",
"u 	c #8BA8B2",
"v 	c #98B2BB",
"w 	c #A5BDC5",
"x 	c #A7BEC7",
"y 	c #A9C0C8",
"z 	c #A9C1C9",
"A 	c #A4BDC6",
"B 	c #99B5BF",
"C 	c #98B5BF",
"D 	c #9BB8C2",
"E 	c #A6C0C9",
"F 	c #B1C9D1",
"G 	c #B2CAD2",
"H 	c #B2C9D2",
"I 	c #AEC5CE",
"J 	c #A3BDC6",
"K 	c #9FB9C3",
"L 	c #A0B9C2",
"M 	c #98B4BF",
"N 	c #698791",
"O 	c #6C8A95",
"P 	c #708D99",
"Q 	c #829DA8",
"R 	c #BBC7CC",
"S 	c #D3D9DC",
"T 	c #D7DDE0",
"U 	c #C9D1D5",
"V 	c #84A3AF",
"W 	c #7FA0AC",
"X 	c #8BAAB5",
"Y 	c #B5C8CF",
"Z 	c #D9DFE2",
"` 	c #DADFE2",
" .	c #CDD6D9",
"..	c #98B7C2",
"+.	c #91B2BE",
"@.	c #99B9C4",
"#.	c #BCCFD5",
"$.	c #D3DADD",
"%.	c #DBE1E4",
"&.	c #D4DADD",
"*.	c #B4C6CE",
"=.	c #9DBBC6",
"-.	c #9EBAC5",
";.	c #A4BFC9",
">.	c #93B3BE",
",.	c #61828E",
"'.	c #648592",
").	c #668894",
"!.	c #7696A2",
"~.	c #BECBD0",
"{.	c #F0F1F2",
"].	c #FAFAFB",
"^.	c #E8EAEB",
"/.	c #89A7B3",
"(.	c #799DAA",
"_.	c #8EADB8",
":.	c #C7D3D7",
"<.	c #EBEDEE",
"[.	c #A9C1CA",
"}.	c #8DB0BD",
"|.	c #97B8C3",
"1.	c #C3D3D9",
"2.	c #EDEFEF",
"3.	c #EBECED",
"4.	c #AEC5CD",
"5.	c #99BAC5",
"6.	c #9CBCC6",
"7.	c #9CBBC6",
"8.	c #A5C3CC",
"9.	c #8EB1BD",
"0.	c #597D8A",
"a.	c #5B7F8D",
"b.	c #5C8290",
"c.	c #678B98",
"d.	c #A7BBC3",
"e.	c #FFFFFF",
"f.	c #98B2BC",
"g.	c #749AA8",
"h.	c #95B3BF",
"i.	c #D8DFE1",
"j.	c #F5F6F6",
"k.	c #BDCDD3",
"l.	c #8AAFBC",
"m.	c #98BAC5",
"n.	c #CBD8DC",
"o.	c #FEFEFE",
"p.	c #E9EAEC",
"q.	c #99BCC5",
"r.	c #94B8C2",
"s.	c #96B9C3",
"t.	c #98BBC5",
"u.	c #9FC0C9",
"v.	c #84AAB8",
"w.	c #507786",
"x.	c #537A89",
"y.	c #547D8C",
"z.	c #598190",
"A.	c #87A6B2",
"B.	c #E9EBEC",
"C.	c #F4F5F6",
"D.	c #B1C2C9",
"E.	c #769BAA",
"F.	c #A2BCC6",
"G.	c #EAECED",
"H.	c #FBFBFB",
"I.	c #8EB2BE",
"J.	c #9DBDC8",
"K.	c #D8DFE2",
"L.	c #F9FAFA",
"M.	c #D4DDE0",
"N.	c #90B7C0",
"O.	c #8EB5C0",
"P.	c #8FB6C0",
"Q.	c #92B8C2",
"R.	c #99BEC6",
"S.	c #749DAD",
"T.	c #487382",
"U.	c #4A7585",
"V.	c #4C7888",
"W.	c #507B8C",
"X.	c #7498A6",
"Y.	c #D8DEE0",
"Z.	c #F9F9F9",
"`.	c #C6D2D6",
" +	c #799FAD",
".+	c #F1F2F3",
"++	c #96B7C3",
"@+	c #A1C0CA",
"#+	c #E5E8E9",
"$+	c #FDFDFD",
"%+	c #F5F6F7",
"&+	c #BFD0D4",
"*+	c #87B2BC",
"=+	c #88B3BD",
"-+	c #8BB4BE",
";+	c #8CB5BF",
">+	c #93BCC4",
",+	c #5E8A9B",
"'+	c #426D7D",
")+	c #457182",
"!+	c #477385",
"~+	c #4A7788",
"{+	c #608998",
"]+	c #C0CDD3",
"^+	c #F6F7F7",
"/+	c #FCFCFC",
"(+	c #DBE1E3",
"_+	c #81A6B3",
":+	c #C9D5D9",
"<+	c #F7F7F8",
"[+	c #FCFDFD",
"}+	c #F2F3F3",
"|+	c #B1C7CE",
"1+	c #AAC6CE",
"2+	c #EDEEEF",
"3+	c #A4C0C8",
"4+	c #7EACB7",
"5+	c #80AEB8",
"6+	c #83AFBA",
"7+	c #85B1BB",
"8+	c #8BB7C0",
"9+	c #538394",
"0+	c #325769",
"a+	c #416C7E",
"b+	c #426E81",
"c+	c #457183",
"d+	c #537E8F",
"e+	c #A9BDC5",
"f+	c #ECEDEE",
"g+	c #94B3BE",
"h+	c #E0E5E7",
"i+	c #F7F8F8",
"j+	c #DFE7EA",
"k+	c #F8F9F9",
"l+	c #B8CED4",
"m+	c #8AB2BC",
"n+	c #77A8B3",
"o+	c #79AAB5",
"p+	c #7CACB6",
"q+	c #7EADB8",
"r+	c #85B3BC",
"s+	c #4E7E91",
"t+	c #183447",
"u+	c #3D677A",
"v+	c #3F6A7D",
"w+	c #406C80",
"x+	c #487386",
"y+	c #88A5B1",
"z+	c #C1D1D7",
"A+	c #F3F4F4",
"B+	c #E6EAEB",
"C+	c #9EBBC6",
"D+	c #ECEFF0",
"E+	c #CBDADF",
"F+	c #DCE2E4",
"G+	c #74A6B1",
"H+	c #6FA3AF",
"I+	c #72A5B0",
"J+	c #74A7B2",
"K+	c #77A9B4",
"L+	c #7EAFB8",
"M+	c #49788C",
"N+	c #102A3E",
"O+	c #224357",
"P+	c #3A6579",
"Q+	c #3C677C",
"R+	c #416C81",
"S+	c #6B8F9F",
"T+	c #DDE2E4",
"U+	c #FBFBFC",
"V+	c #F3F6F6",
"W+	c #C3CFD6",
"X+	c #7BA3B2",
"Y+	c #E3E7E8",
"Z+	c #EFF2F4",
"`+	c #C4D2D7",
" @	c #689EAA",
".@	c #689EAB",
"+@	c #6AA0AC",
"@@	c #6EA2AE",
"#@	c #70A4B0",
"$@	c #74A8B3",
"%@	c #457388",
"&@	c #102B3F",
"*@	c #26495E",
"=@	c #396479",
"-@	c #3B667C",
";@	c #5A7F92",
">@	c #C9D2D7",
",@	c #9BB2BD",
"'@	c #6791A3",
")@	c #CAD5DA",
"!@	c #F4F4F5",
"~@	c #A2BDC5",
"{@	c #5F97A5",
"]@	c #6099A6",
"^@	c #639BA8",
"/@	c #659CA9",
"(@	c #689FAB",
"_@	c #6DA3AE",
":@	c #406E84",
"<@	c #102B41",
"[@	c #102C42",
"}@	c #21445A",
"|@	c #376278",
"1@	c #4A7387",
"2@	c #ADBEC6",
"3@	c #678EA0",
"4@	c #548297",
"5@	c #AABFC8",
"6@	c #F2F3F4",
"7@	c #EFF0F1",
"8@	c #84AAB5",
"9@	c #5A91A0",
"0@	c #5A92A1",
"a@	c #5C95A3",
"b@	c #5E97A5",
"c@	c #619AA7",
"d@	c #639CA8",
"e@	c #3D6B81",
"f@	c #102C43",
"g@	c #102D43",
"h@	c #19394F",
"i@	c #3A6176",
"j@	c #92A9B5",
"k@	c #D8DDE0",
"l@	c #4B798E",
"m@	c #48778D",
"n@	c #87A6B5",
"o@	c #5D90A0",
"p@	c #548B9B",
"q@	c #568D9D",
"r@	c #58909F",
"s@	c #5991A0",
"t@	c #5B94A2",
"u@	c #3A687E",
"v@	c #102D44",
"w@	c #102D45",
"x@	c #143149",
"y@	c #597486",
"z@	c #A8BAC3",
"A@	c #406E86",
"B@	c #417087",
"C@	c #668EA0",
"D@	c #D6DDE1",
"E@	c #CAD4D8",
"F@	c #538698",
"G@	c #4F8596",
"H@	c #518798",
"I@	c #528999",
"J@	c #548C9B",
"K@	c #578F9E",
"L@	c #38647B",
"M@	c #102E45",
"N@	c #102E46",
"O@	c #3D576B",
"P@	c #BAD1D5",
"Q@	c #7A97A6",
"R@	c #3B6A81",
"S@	c #3D6C83",
"T@	c #537E93",
"U@	c #BBC9CF",
"V@	c #ABBFC6",
"W@	c #4D8093",
"X@	c #4A7F91",
"Y@	c #4C8293",
"Z@	c #4F8496",
"`@	c #508697",
" #	c #528899",
".#	c #356179",
"+#	c #112F47",
"@#	c #112F48",
"##	c #113149",
"$#	c #12324A",
"%#	c #2D4A5F",
"&#	c #A4BAC1",
"*#	c #DCF6F7",
"=#	c #E4FFFF",
"-#	c #3E677E",
";#	c #38667E",
">#	c #396880",
",#	c #437187",
"'#	c #94ADB9",
")#	c #46798C",
"!#	c #477B8E",
"~#	c #487C8F",
"{#	c #4C8193",
"]#	c #4E8495",
"^#	c #325D76",
"/#	c #12324B",
"(#	c #13334C",
"_#	c #14344D",
":#	c #1E3D55",
"<#	c #788B99",
"[#	c #E1E3E5",
"}#	c #E7E9EA",
"|#	c #B3BCC2",
"1#	c #1A3A53",
"2#	c #14354E",
"3#	c #1A3D56",
"4#	c #21455D",
"5#	c #4F6F84",
"6#	c #D5D9DC",
"7#	c #DDE0E1",
"8#	c #567E91",
"9#	c #315D76",
"0#	c #315D75",
"a#	c #325E76",
"b#	c #336078",
"c#	c #2C556E",
"d#	c #305B74",
"e#	c #13344D",
"f#	c #153650",
"g#	c #163751",
"h#	c #173953",
"i#	c #20415A",
"j#	c #2A4961",
"k#	c #2B4A62",
"l#	c #2B4B63",
"m#	c #284861",
"n#	c #1F405A",
"o#	c #1A3C56",
"p#	c #193B55",
"q#	c #21425B",
"r#	c #2A4A62",
"s#	c #25455D",
"t#	c #193A54",
"u#	c #163750",
"v#	c #305B73",
"w#	c #2D5872",
"x#	c #163952",
"y#	c #173A54",
"z#	c #183B55",
"A#	c #193D57",
"B#	c #1A3E58",
"C#	c #1B3F59",
"D#	c #1B405A",
"E#	c #1C415B",
"F#	c #1D425C",
"G#	c #1E435D",
"H#	c #1F445E",
"I#	c #1C405A",
"J#	c #1A3F59",
"K#	c #193D56",
"L#	c #183B54",
"M#	c #163852",
"N#	c #15364F",
"O#	c #2D5871",
"P#	c #2B5670",
"Q#	c #193E58",
"R#	c #1F455F",
"S#	c #224963",
"T#	c #1E445E",
"U#	c #234A64",
"V#	c #214862",
"W#	c #204660",
"X#	c #204761",
"Y#	c #234B65",
"Z#	c #325B75",
"`#	c #325B74",
" $	c #2A526C",
".$	c #264D67",
"+$	c #2F5872",
"@$	c #29516B",
"#$	c #214761",
"$$	c #244C66",
"%$	c #2D556F",
"&$	c #2B546E",
"*$	c #2A536D",
"=$	c #264E68",
"-$	c #173A53",
";$	c #2B556F",
">$	c #29536D",
",$	c #193C56",
"'$	c #1A3E59",
")$	c #1E445F",
"!$	c #416E83",
"~$	c #7FB1BA",
"{$	c #2B536D",
"]$	c #658E9F",
"^$	c #668B9B",
"/$	c #244D68",
"($	c #264E69",
"_$	c #335C77",
":$	c #85A4B0",
"<$	c #BBD1D5",
"[$	c #C3D8DA",
"}$	c #94B0BA",
"|$	c #3B637D",
"1$	c #36617B",
"2$	c #B9CED2",
"3$	c #8EABB6",
"4$	c #567A8F",
"5$	c #29526D",
"6$	c #A5D1D4",
"7$	c #ABDDDF",
"8$	c #9FD9DB",
"9$	c #98D3D5",
"0$	c #487788",
"a$	c #264F6A",
"b$	c #1B3F5A",
"c$	c #1C415C",
"d$	c #254C66",
"e$	c #6595A3",
"f$	c #B1DFE1",
"g$	c #335D77",
"h$	c #94B7C0",
"i$	c #98B4BE",
"j$	c #335F78",
"k$	c #829FAD",
"l$	c #B3C1C8",
"m$	c #3A637C",
"n$	c #346079",
"o$	c #91A6B3",
"p$	c #8DA3AF",
"q$	c #3B6881",
"r$	c #DBDDDF",
"s$	c #5F8295",
"t$	c #A4B8C0",
"u$	c #90A8B3",
"v$	c #305B75",
"w$	c #37627C",
"x$	c #BFDEE0",
"y$	c #2E5872",
"z$	c #2C5670",
"A$	c #1F445F",
"B$	c #264F69",
"C$	c #1D435D",
"D$	c #1F4661",
"E$	c #90BAC3",
"F$	c #C8E8E9",
"G$	c #567C92",
"H$	c #CCDFE2",
"I$	c #B9CBD1",
"J$	c #335E79",
"K$	c #47728A",
"L$	c #D4D8DA",
"M$	c #3B657E",
"N$	c #2E5A75",
"O$	c #315D78",
"P$	c #63879A",
"Q$	c #ACBAC3",
"R$	c #3F6C86",
"S$	c #D7DADC",
"T$	c #34607B",
"U$	c #9AADB8",
"V$	c #8EA4B0",
"W$	c #396680",
"X$	c #CEDFE0",
"Y$	c #5C8196",
"Z$	c #557C91",
"`$	c #4C7488",
" %	c #224A64",
".%	c #1E455F",
"+%	c #1D425D",
"@%	c #234C67",
"#%	c #234B66",
"$%	c #345E79",
"%%	c #BEDBDD",
"&%	c #AEC9D1",
"*%	c #97B2BE",
"=%	c #BFCCD3",
"-%	c #D6DBDE",
";%	c #3A6781",
">%	c #63869A",
",%	c #AFBCC5",
"'%	c #325F79",
")%	c #305D77",
"!%	c #37657E",
"~%	c #7997A7",
"{%	c #A3B4BD",
"]%	c #426F88",
"^%	c #D6D9DB",
"/%	c #35627C",
"(%	c #315E78",
"_%	c #49748C",
":%	c #D5D8DA",
"<%	c #3D6A84",
"[%	c #DFE1E3",
"}%	c #ADC1C9",
"|%	c #9DB8C0",
"1%	c #95B1BA",
"2%	c #365D75",
"3%	c #214964",
"4%	c #1F4660",
"5%	c #234C66",
"6%	c #27516D",
"7%	c #597F94",
"8%	c #7A99AB",
"9%	c #E4E6E7",
"0%	c #91A8B6",
"a%	c #AABBC4",
"b%	c #6B8B9E",
"c%	c #5B8095",
"d%	c #C2CBD0",
"e%	c #3D6B83",
"f%	c #3A6881",
"g%	c #427089",
"h%	c #AEBDC5",
"i%	c #7190A0",
"j%	c #437189",
"k%	c #3B6981",
"l%	c #396780",
"m%	c #577F95",
"n%	c #CCD2D5",
"o%	c #3E6C85",
"p%	c #DADDDF",
"q%	c #36617D",
"r%	c #2C5672",
"s%	c #234C68",
"t%	c #2B5571",
"u%	c #7D99A7",
"v%	c #8AA2AF",
"w%	c #4E768C",
"x%	c #567D91",
"y%	c #809BAA",
"z%	c #8DA4B0",
"A%	c #9AAEB8",
"B%	c #B0BEC5",
"C%	c #8CA6B2",
"D%	c #97ABB5",
"E%	c #36667D",
"F%	c #427288",
"G%	c #7495A6",
"H%	c #7295A4",
"I%	c #BAC5CB",
"J%	c #839DAA",
"K%	c #3D6B84",
"L%	c #CBD1D4",
"M%	c #65889C",
"N%	c #618598",
"O%	c #587B91",
"P%	c #2A5470",
"Q%	c #264F6B",
"R%	c #214965",
"S%	c #26506B",
"T%	c #29556F",
"U%	c #4C7087",
"V%	c #4B7086",
"W%	c #315F78",
"X%	c #6A8999",
"Y%	c #33627A",
"Z%	c #4A748A",
"`%	c #7E98A5",
" &	c #34647B",
".&	c #37677E",
"+&	c #6A8C9C",
"@&	c #86A0AC",
"#&	c #70909F",
"$&	c #35657C",
"%&	c #38687F",
"&&	c #7595A3",
"*&	c #AFBEC5",
"=&	c #AEBDC4",
"-&	c #7A96A4",
";&	c #34637B",
">&	c #698A9B",
",&	c #ADBAC3",
"'&	c #ADBBC2",
")&	c #A6B4BD",
"!&	c #3F667F",
"~&	c #28526E",
"{&	c #234B67",
"]&	c #28536E",
"^&	c #2A5671",
"/&	c #2C5973",
"(&	c #2E5C75",
"_&	c #305E77",
":&	c #316078",
"<&	c #326179",
"[&	c #33637A",
"}&	c #35667C",
"|&	c #36677D",
"1&	c #37687E",
"2&	c #326079",
"3&	c #2F5E76",
"4&	c #244E69",
"5&	c #295570",
"6&	c #295470",
"7&	c #3E7387",
"8&	c #214A66",
"9&	c #244E6A",
"0&	c #254F6B",
"a&	c #26506C",
"b&	c #26516D",
"c&	c #27526E",
"d&	c #28536F",
"e&	c #28546F",
"f&	c #214A65",
"g&	c #234D68",
". + @ # $ $ % % % & * * * * = = = - - - - - - - - - ; > , ' ) ! ",
"~ { ] ^ / ( _ : < [ } | 1 2 3 4 5 6 7 8 9 0 a b b b c d e f g h ",
"i j k l m n o p q r s t u v w x y z A B C D E F G H I J K a L d ",
"M N O P Q R S T T U V W X Y S Z ` `  ...+.@.#.$.%.%.&.*.=.-.-.;.",
">.,.'.).!.~.{.].].^./.(._.:.{.].].].<.[.}.|.1.2.].].3.4.5.6.7.8.",
"9.0.a.b.c.d.{.e.e.{.f.g.h.i.].e.e.e.j.k.l.m.n.j.e.o.p.q.r.s.t.u.",
"v.w.x.y.z.A.B.o.e.C.D.E.F.G.o.e.e.e.H.i.I.J.K.L.e.].M.N.O.P.Q.R.",
"S.T.U.V.W.X.Y.H.e.Z.`. +*..+e.e.e.e.o.3.++@+#+$+e.%+&+*+=+-+;+>+",
",+'+)+!+~+{+]+^+e./+(+_+:+<+e.o.[+o.e.}+|+1+2+o.e..+3+4+5+6+7+8+",
"9+0+a+b+c+d+e+}+e.o.f+g+h+/+o.i+j+k+e.i+n.l+.+e.o.f+m+n+o+p+q+r+",
"s+t+u+v+w+x+y+f+o.e.C.z+A+o.[+B+C+{.o.[+D+E+%+e./+F+G+H+I+J+K+L+",
"M+N+O+P+Q+R+S+T+/+e.U+V+U+e.Z.W+X+Y+[+o.H.Z+U+e.k+`+ @.@+@@@#@$@",
"%@&@&@*@=@-@;@>@k+e.o.o.o.e.A+,@'@)@k+e.o.o.o.e.!@~@{@]@^@/@(@_@",
":@<@<@[@}@|@1@2@!@e.e.e.e.o.2+3@4@5@6@e.e.e.e.e.7@8@9@0@a@b@c@d@",
"e@[@f@g@g@h@i@j@7@e.e.e.e.U+k@l@m@n@<.o.e.e.e.o.p.o@p@q@r@s@t@t@",
"u@v@v@v@v@w@x@y@p.o.e.e.e.^+z@A@B@C@D@H.e.e.e.].E@F@G@H@I@J@K@q@",
"L@w@M@M@N@N@x@O@P@].e.e.e.{.Q@R@S@T@U@%+e.e.e.%+V@W@X@Y@Z@`@ #`@",
".#+#+#+#@###$#%#&#*#=#e.o.B.-#;#>#,#'#7@o.e.e..+V )#!#~#X@{#]#X@",
"^###$#$#/#(#_#:#<#[#G.G.}#|#1#2#3#4#5#6#B.G.G.7#8#>#9#0#a#b#c#;#",
"d#(#e#e#2#f#g#h#i#j#k#l#m#n#o#p#p#o#q#r#l#k#j#s#t#g#u#2#e#e#(#v#",
"w#f#g#x#y#z#A#B#C#D#E#F#G#H#H#G#G#H#H#F#F#E#D#I#C#J#K#L#M#g#N#O#",
"P#y#z#Q#R#S#T#U#V#W#X#Y#c#Z#`# $.$ $+$@$U#X##$$$%$&$*$=$E#z#-$;$",
">$,$'$)$!$~${$]$^$/$($_$:$<$[$}$|$1$2$3$4$5$($_$6$7$8$9$0$B#,$>$",
"a$b$c$d$e$f$g$h$i$P#j$k$l$m$n$o$p$q$r$s$t$u$v$w$x$y$z$=$A$c$b$B$",
"B$C$D$P#E$F$G$H$I$J$K$L$M$N$O$P$Q$R$S$T$T$U$V$W$X$Y$Z$`$ %.%+%($",
"@%D$#%$%%%&%*%=%-%;%>%,%'%)%!%~%{%]%^%/%(%_%:%<%[%}%|%1%2%3%4%5%",
"#%3%6%7%|+8%9%0%a%b%c%d%e%f%g%h%i%j%S$k%l%m%n%o%p%q%O$r%a$@%3%Y#",
"3%s%t%u%v%w%S$x%y%z%>#A%B%C%B%D%E%F%^%G%H%I%J%K%L%M%N%O%P%Q%@%3%",
"R%S%T%U%V%W%X%Y%Z%`% &.&+&@&#&$& &%&&&*&=&-&;&;&>&,&'&)&!&~&a$3%",
"{&]&^&/&(&_&:&<&[& & &}&|&|&}&}&}&}&|&1&1& &[&[&Y%Y%2&3&/&^&~&3%",
"4&5&/&(&_&:&Y%[& &}&}&|&|&|&|&|&|&|&|&|&|&}&}& &[&Y%:&_&(&/&6&@%",
"7&@%8&s%9&0&a&b&c&d&d&d&e&e&e&e&e&e&e&e&d&d&d&c&b&a&0&9&@%f&g&7&"};
