/* XPM */
static char *mplay___[] = {
/* columns rows colors chars-per-pixel */
"32 32 174 2",
"   c #0B0B0B",
".  c gray5",
"X  c #0E0E0E",
"o  c gray6",
"O  c #101010",
"+  c #111111",
"@  c gray7",
"#  c #131313",
"$  c gray8",
"%  c #151515",
"&  c #161616",
"*  c gray9",
"=  c #181818",
"-  c #191919",
";  c gray10",
":  c #1B1B1B",
">  c gray11",
",  c #1D1D1D",
"<  c #1E1E1E",
"1  c gray12",
"2  c #202020",
"3  c gray13",
"4  c #222222",
"5  c #232323",
"6  c #252525",
"7  c gray15",
"8  c #272727",
"9  c #282828",
"0  c gray16",
"q  c #2A2A2A",
"w  c gray17",
"e  c #2C2C2C",
"r  c #2D2D2D",
"t  c gray18",
"y  c #2F2F2F",
"u  c gray19",
"i  c #313131",
"p  c #323232",
"a  c gray20",
"s  c #343434",
"d  c #353535",
"f  c gray21",
"g  c #373737",
"h  c gray22",
"j  c #393939",
"k  c #3A3A3A",
"l  c gray23",
"z  c #3C3C3C",
"x  c gray24",
"c  c #3E3E3E",
"v  c #3F3F3F",
"b  c gray25",
"n  c #414141",
"m  c gray26",
"M  c #434343",
"N  c #444444",
"B  c gray27",
"V  c #464646",
"C  c gray28",
"Z  c #484848",
"A  c #494949",
"S  c gray29",
"D  c #4B4B4B",
"F  c #4C4C4C",
"G  c gray30",
"H  c #4E4E4E",
"J  c gray31",
"K  c #505050",
"L  c #515151",
"P  c gray32",
"I  c #535353",
"U  c gray33",
"Y  c #555555",
"T  c #565656",
"R  c gray34",
"E  c #585858",
"W  c gray35",
"Q  c #5A5A5A",
"!  c #5B5B5B",
"~  c gray36",
"^  c #5D5D5D",
"/  c gray37",
"(  c #5F5F5F",
")  c #606060",
"_  c gray38",
"`  c #626262",
"'  c gray39",
"]  c #646464",
"[  c #656565",
"{  c gray40",
"}  c #676767",
"|  c #686868",
" . c DimGray",
".. c #6A6A6A",
"X. c gray42",
"o. c #6C6C6C",
"O. c #6D6D6D",
"+. c gray43",
"@. c #6F6F6F",
"#. c gray44",
"$. c #717171",
"%. c #727272",
"&. c gray45",
"*. c #747474",
"=. c gray46",
"-. c #767676",
";. c #777777",
":. c gray47",
">. c #797979",
",. c gray48",
"<. c #7C7C7C",
"1. c gray49",
"2. c #7E7E7E",
"3. c #818181",
"4. c #838383",
"5. c #848484",
"6. c gray52",
"7. c #868686",
"8. c gray53",
"9. c #888888",
"0. c #898989",
"q. c #8B8B8B",
"w. c #8D8D8D",
"e. c #8E8E8E",
"r. c #909090",
"t. c gray57",
"y. c #929292",
"u. c gray58",
"i. c #959595",
"p. c #979797",
"a. c #989898",
"s. c #9B9B9B",
"d. c gray62",
"f. c #A0A0A0",
"g. c #A2A2A2",
"h. c gray64",
"j. c #A4A4A4",
"k. c gray65",
"l. c gray66",
"z. c #AAAAAA",
"x. c gray67",
"c. c #AEAEAE",
"v. c gray69",
"b. c #B2B2B2",
"n. c gray70",
"m. c gray71",
"M. c #B6B6B6",
"N. c gray72",
"B. c #BCBCBC",
"V. c gray74",
"C. c gray",
"Z. c gray75",
"A. c #C0C0C0",
"S. c #C1C1C1",
"D. c gray76",
"F. c #C3C3C3",
"G. c gray77",
"H. c #C5C5C5",
"J. c #C6C6C6",
"K. c gray80",
"L. c #CDCDCD",
"P. c gray82",
"I. c #D2D2D2",
"U. c LightGray",
"Y. c gray83",
"T. c gray85",
"R. c gray86",
"E. c #DDDDDD",
"W. c gray88",
"Q. c #E1E1E1",
"!. c gray94",
"~. c #F1F1F1",
"^. c gray100",
"/. c None",
/* pixels */
"J.T.K.V.V.V.C.C.C.Z.Z.Z.Z.Z.A.A.A.A.A.A.A.A.A.A.A.A.A.A.A.L.R.F.",
"T._ ' ] [ }  ...o.O.+.@.#.%.&.*.=.-.;.:.>.,.,.,.,.,.,.,.,.,.>.E.",
"Z.^ / ) ` ' [ { }  .X.o.O.@.#.$.%.&.*.-.-.:.:.,.,.,.,.,.,.,.,.G.",
"N.E Q ~ / ( _ ` ] [ } | ..X.O.+.@.#.%.&.*.=.-.;.:.>.,.,.,.,.,.A.",
"n.U T E W ! ^ / ) ` _ ( ^ ( [ X.o. .} | O.%.&.*.-.-.:.:.>.,.,.B.",
"v.L P I Y R E Q ~ Q L B v m G W Q L C Z U ` O.%.&.*.=.-.;.:.>.N.",
"x.F H J L I U T Y A f :.r.t.V h h C y.y.A B ) +.#.$.%.&.*.=.-.m.",
"g.Z A D G J L L G l d.^.Y.^.~.j T ^.~.~.^.Y H { o.O.@.#.%.&.*.b.",
"p.N V C A S F G D x ^ w.; U.^.N l.^.@.@.^.d.v ^  ...o.O.+.@.#.c.",
"t.d m N B C Z A S N s 4 H.^.M.; H.^.L L ^.J.f T [ { }  .X.o.O.z.",
"w., c b m M N V B c t 1 m G.^.+.H.^.K K ^.J.a P _ ` ] [ } | ..k.",
"8.& 7 z c b n m v u 3.H.4 p.^.0.a.^.O.O.^.z.f L ^ / ) ` ' [ { f.",
"4.& & q l z x c l e s.^.Q.!.!.s M !.!.!.^.Q c I E Q ~ / ( ) ` s.",
"1.& & & 7 j k z k a 7 ' q.2.l 9 9 x w.w.v p C P U T E W ! ~ / i.",
";.& & & & < a j k j s e 9 w p k l d y u h m D J L L I Y R E Q e.",
"$.& & & & & & 3 i h h g g h z v b b c v N C A S F G J L P U T 9.",
"o.& & & & & & & & 2 y h j k l z x c b n m N B C Z A D G J K L 4.",
"] % $ $ % % $ $ % & * ; 4 w a j g f j c b n m M B C Z A D F H <.",
"Y O X X O O X X O % - ; ; ; ; * & $ > 0 y i i k l z s s d f u | ",
"M } S.S.T 0 S.S.u.@ = : : : ; %  .D. .% ; - - - ; ; = = - = & T ",
"h 5.^.^.y.Y ^.^.D.o # $ % % % # 6.^.6.# & # @ # % $ @ $ & # O c ",
"a 5.^.!.S.4.!.^.D.. i.D.W D.8.o 6.^.7.+ Q D.D.j.> S D.| O } S./ ",
"u 5.^.S.!.b.S.^.D.X D.^.D.W.^.A 6.^.7.r P.!.h.^.b.  !.W.  b.^.i ",
"t 6.^.5.^.W.5.^.D.o D.^.A 6.^.6.6.^.7.o | h.W.^.D.. 6.^.C ^.h.q ",
"w 6.^.C ^.^.E ^.D.O F.^.} j.^.;.6.^.7.:.^.n.} ^.D.o e ^.W.^.W u ",
"q 7.^.C P.^.> ^.F.+ F.^.!.^.!.< 7.^.7.Q ^.^.P.^.F.# + j.^.W.@ s ",
"u i F 2 v J * K b $ F.^.Q H 8 : d K d : M K * K K & @ ;.^.i.* g ",
"d 2 1 3 4 6 8 8 5 : F.^.J 4 e t w 0 w r q 0 q 8 4 ; I.!.^.u < g ",
"g 0 w r t u p a u 7 V L r t g h g f g g f d d a y 4 <.9.J > 6 h ",
"f e t u p s d f f a e q y f j j j j j j j h h g d t 6 3 5 9 w f ",
"f t u p s d f g h j g h j k k k k k k k k j j h g d p u u y t d ",
"/.a s f g h j k l z z z z x x x x x x z z z z l k j h g f s a /."
};
