/* XPM */
static char *MplayNO[] = {
/* columns rows colors chars-per-pixel */
"32 32 188 2",
"   c #161616",
".  c gray9",
"X  c #181818",
"o  c #191919",
"O  c gray10",
"+  c #1B1B1B",
"@  c gray11",
"#  c #1D1D1D",
"$  c #1E1E1E",
"%  c gray12",
"&  c #202020",
"*  c gray13",
"=  c #222222",
"-  c #232323",
";  c gray14",
":  c #252525",
">  c gray15",
",  c #272727",
"<  c #282828",
"1  c #2A2A2A",
"2  c gray17",
"3  c #2C2C2C",
"4  c #2D2D2D",
"5  c gray18",
"6  c #2F2F2F",
"7  c gray19",
"8  c #313131",
"9  c #323232",
"0  c gray20",
"q  c #343434",
"w  c #353535",
"e  c gray21",
"r  c #373737",
"t  c gray22",
"y  c #393939",
"u  c #3A3A3A",
"i  c gray23",
"p  c #3C3C3C",
"a  c gray24",
"s  c #3E3E3E",
"d  c #3F3F3F",
"f  c gray25",
"g  c #414141",
"h  c gray26",
"j  c #434343",
"k  c #444444",
"l  c gray27",
"z  c #464646",
"x  c gray28",
"c  c #494949",
"v  c gray29",
"b  c #4B4B4B",
"n  c #4C4C4C",
"m  c gray30",
"M  c #4E4E4E",
"N  c gray31",
"B  c #505050",
"V  c #515151",
"C  c gray32",
"Z  c #535353",
"A  c gray33",
"S  c #555555",
"D  c #565656",
"F  c gray34",
"G  c #585858",
"H  c gray35",
"J  c #5A5A5A",
"K  c #5B5B5B",
"L  c gray36",
"P  c #5D5D5D",
"I  c gray37",
"U  c #5F5F5F",
"Y  c #606060",
"T  c gray38",
"R  c #626262",
"E  c gray39",
"W  c #646464",
"Q  c #656565",
"!  c gray40",
"~  c #676767",
"^  c #686868",
"/  c DimGray",
"(  c #6A6A6A",
")  c gray42",
"_  c #6C6C6C",
"`  c #6D6D6D",
"'  c gray43",
"]  c #6F6F6F",
"[  c gray44",
"{  c #717171",
"}  c #727272",
"|  c gray45",
" . c #747474",
".. c gray46",
"X. c #767676",
"o. c #777777",
"O. c gray47",
"+. c #797979",
"@. c gray48",
"#. c #7B7B7B",
"$. c #7C7C7C",
"%. c gray49",
"&. c #7E7E7E",
"*. c #7F7F7F",
"=. c #808080",
"-. c #818181",
";. c gray51",
":. c #838383",
">. c #848484",
",. c gray52",
"<. c #868686",
"1. c gray53",
"2. c #888888",
"3. c #898989",
"4. c gray54",
"5. c #8B8B8B",
"6. c gray55",
"7. c #8D8D8D",
"8. c #8E8E8E",
"9. c gray56",
"0. c #909090",
"q. c gray57",
"w. c #929292",
"e. c #939393",
"r. c gray58",
"t. c #959595",
"y. c gray59",
"u. c #979797",
"i. c #989898",
"p. c gray60",
"a. c #9A9A9A",
"s. c #9B9B9B",
"d. c gray61",
"f. c #9D9D9D",
"g. c gray62",
"h. c #9F9F9F",
"j. c #A0A0A0",
"k. c gray63",
"l. c #A2A2A2",
"z. c gray64",
"x. c #A4A4A4",
"c. c #A5A5A5",
"v. c gray65",
"b. c #A7A7A7",
"n. c gray66",
"m. c #A9A9A9",
"M. c #AAAAAA",
"N. c gray67",
"B. c #ACACAC",
"V. c gray68",
"C. c #AEAEAE",
"Z. c #AFAFAF",
"A. c gray69",
"S. c #B1B1B1",
"D. c #B2B2B2",
"F. c gray70",
"G. c #B7B7B7",
"H. c gray72",
"J. c #B9B9B9",
"K. c gray73",
"L. c #BBBBBB",
"P. c gray",
"I. c gray75",
"U. c gray76",
"Y. c #C3C3C3",
"T. c #C5C5C5",
"R. c #C6C6C6",
"E. c gray78",
"W. c #C8C8C8",
"Q. c gray79",
"!. c #CACACA",
"~. c #CBCBCB",
"^. c gray80",
"/. c #CDCDCD",
"(. c gray82",
"). c LightGray",
"_. c #D7D7D7",
"`. c #D8D8D8",
"'. c gray86",
"]. c #DDDDDD",
"[. c #DFDFDF",
"{. c gray89",
"}. c #E4E4E4",
"|. c gray90",
" X c #F1F1F1",
".X c gray95",
"XX c gray100",
"oX c None",
/* pixels */
"R.'.(.R.E.E.W.W.W.Q.!.!.!.!.~.~.~.^.^.^.^.^.^.^.^.^.^.^.^.).].Y.",
"'.3.6.8.0.w.t.u.a.s.f.h.k.x.c.v.n.M.N.V.C.Z.A.A.A.A.A.A.A.A.C.[.",
"T.:.,.1.4.7.9.q.e.y.i.a.d.g.j.l.x.c.b.m.M.B.V.Z.A.A.A.A.A.A.A.^.",
"I.$.*.;.>.<.3.5.8.0.w.r.u.p.s.f.h.k.z.c.v.n.M.N.V.C.Z.A.A.A.A.!.",
"L.X.+.#.%.=.:.,.1.4.6.9.q.e.y.i.a.d.g.j.l.x.c.b.m.M.B.V.C.A.A.W.",
"H.[ }  .o.@.$.&.-.>.<.2.5.7.0.w.r.u.p.a.f.h.k.z.c.v.n.m.N.B.C.T.",
"D./ _ ' [ | X.O.#.%.=.;.,.1.3.6.9.0.e.t.i.a.s.g.j.l.x.c.b.n.M.U.",
"b.E Q ^ ( ` [ {  .o.@.#.&.-.:.,.2.5.7.0.q.r.y.p.a.d.g.k.z.c.v.I.",
"i.L Y R Q ! / ) ' [ } ..O.#.$.*.;.,.<.3.6.8.0.w.t.u.a.s.f.h.k.L.",
"q.l J L I T E Q ~ ( ` ] {  .X.+.#.&.=.:.,.1.4.7.9.q.e.y.i.a.d.G.",
"7.* A F H K P U R W ! ^ ) ' [ } ..O.@.$.*.;.>.<.3.5.8.0.w.r.u.F.",
"1.  6 V Z D G J K I Y E Q ~ / _ ] { | X.+.#.%.=.:.,.1.4.6.9.q.V.",
":.    q N B C A D H K L U T W Q ^ ) ` [ }  .o.@.$.&.-.>.<.2.5.n.",
"%.      5 b M B V Z S F J K P Y R Q ~ / _ ' [ | X.O.#.%.=.;.,.l.",
"o.        = h b m N B C A D G K L I T E Q ^ ( ` [ {  .o.@.#.&.s.",
"{             , f v n M B V Z S F H K P Y R Q ! / ) ' [ } ..O.t.",
"_                 > p v b m N B C A D G J L I T E Q ~ ( ` ] { 9.",
"! . . . . . . . . . . + < e h m M B V A D G H K I Y E W ~ / _ 2.",
"Y . X X X o o o o O O O O O O O = , 7 t p a s b m N j j k z a ` ",
"L [ R.R.R t R.R.s.# # $ $ $ $ $ | E.| $ $ # # @ @ @ + O O O o L ",
"F 7.XXXXd.Q XXXXE.* = = = - - - q.XXq.= = = * & % % $ # @ + + F ",
"C 7.XX XE.0. XXXW.: j.Q.O.Q.e., e.XXe., ( Q.W.V.d H E.| % } R.%.",
"n 8.XXE. XK.W.XXQ.< Q.XX!.}.XXY t.XXt.z _..XC.XXL.:  X{.* J.XXF ",
"c 9.XXq.XX}.e.XX!.3 !.XXR y.XXu.u.XXy.5 $.A.|.XXQ.< w.XXJ XXN.c ",
"l 0.XXL XXXX` XX!.5 ~.XX*.S.XX5.i.XXi.5.XXP.%.XX!.1 k XX}.XX~ l ",
"f q.XXI _.XXx XX~.8 ^.XX.XXX.Xm p.XXp.| XXXX`.XX~.4 2 C.XX}.; f ",
"a g I r A R 6 Q H 0 ^.XX .^ h w M ^ M w K ~ 0 Q Q 6 5 3.XXk.> a ",
"y < 1 3 5 7 8 0 q w /.XX/ r r r r r r r e e w q 0 8 `..XXXl < y ",
"r 1 3 5 7 9 0 w w e P ( k t t t t t t t t r e w w 0 6.u.R 3 1 t ",
"e 3 5 7 9 q w e r t t y y y y y y y y y y t t r e w q 9 7 5 3 e ",
"e 5 7 9 q w e r t y y u u u u u u u u u u y y t r e w q 9 7 5 w ",
"oX0 q e r t y u i p p p p a a a a a a p p p p i u y t r e q 0 oX"
};
