/* XPM */
static char *mplay___[] = {
/* columns rows colors chars-per-pixel */
"32 32 173 2",
"   c #0B0B0B",
".  c gray5",
"X  c #0E0E0E",
"o  c gray6",
"O  c #101010",
"+  c #111111",
"@  c gray7",
"#  c #131313",
"$  c gray8",
"%  c #151515",
"&  c #161616",
"*  c gray9",
"=  c #181818",
"-  c #191919",
";  c gray10",
":  c #1B1B1B",
">  c gray11",
",  c #1D1D1D",
"<  c #1E1E1E",
"1  c gray12",
"2  c #202020",
"3  c gray13",
"4  c #222222",
"5  c #232323",
"6  c #252525",
"7  c gray15",
"8  c #272727",
"9  c #282828",
"0  c gray16",
"q  c #2A2A2A",
"w  c gray17",
"e  c #2C2C2C",
"r  c #2D2D2D",
"t  c gray18",
"y  c #2F2F2F",
"u  c gray19",
"i  c #313131",
"p  c #323232",
"a  c gray20",
"s  c #343434",
"d  c #353535",
"f  c gray21",
"g  c #373737",
"h  c gray22",
"j  c #393939",
"k  c #3A3A3A",
"l  c gray23",
"z  c #3C3C3C",
"x  c gray24",
"c  c #3E3E3E",
"v  c #3F3F3F",
"b  c gray25",
"n  c #414141",
"m  c gray26",
"M  c #434343",
"N  c #444444",
"B  c gray27",
"V  c #464646",
"C  c gray28",
"Z  c #484848",
"A  c #494949",
"S  c gray29",
"D  c #4B4B4B",
"F  c #4C4C4C",
"G  c gray30",
"H  c #4E4E4E",
"J  c gray31",
"K  c #505050",
"L  c #515151",
"P  c gray32",
"I  c #535353",
"U  c gray33",
"Y  c #555555",
"T  c #565656",
"R  c gray34",
"E  c #585858",
"W  c gray35",
"Q  c #5A5A5A",
"!  c #5B5B5B",
"~  c gray36",
"^  c #5D5D5D",
"/  c gray37",
"(  c #5F5F5F",
")  c #606060",
"_  c gray38",
"`  c #626262",
"'  c gray39",
"]  c #646464",
"[  c #656565",
"{  c gray40",
"}  c #676767",
"|  c #686868",
" . c DimGray",
".. c #6A6A6A",
"X. c gray42",
"o. c #6C6C6C",
"O. c #6D6D6D",
"+. c gray43",
"@. c #6F6F6F",
"#. c gray44",
"$. c #717171",
"%. c #727272",
"&. c gray45",
"*. c #747474",
"=. c gray46",
"-. c #767676",
";. c #777777",
":. c gray47",
">. c #797979",
",. c gray48",
"<. c #7C7C7C",
"1. c gray49",
"2. c #838383",
"3. c #848484",
"4. c gray52",
"5. c #868686",
"6. c gray53",
"7. c #888888",
"8. c gray54",
"9. c #8B8B8B",
"0. c #8D8D8D",
"q. c #8E8E8E",
"w. c gray56",
"e. c #909090",
"r. c gray57",
"t. c #929292",
"y. c #939393",
"u. c gray58",
"i. c #959595",
"p. c #979797",
"a. c #9A9A9A",
"s. c #9B9B9B",
"d. c #A0A0A0",
"f. c #A2A2A2",
"g. c gray64",
"h. c #A4A4A4",
"j. c gray65",
"k. c #A7A7A7",
"l. c gray66",
"z. c #AAAAAA",
"x. c gray67",
"c. c #AEAEAE",
"v. c gray69",
"b. c #B2B2B2",
"n. c gray70",
"m. c gray71",
"M. c #B6B6B6",
"N. c gray72",
"B. c #BCBCBC",
"V. c gray74",
"C. c gray",
"Z. c gray75",
"A. c #C0C0C0",
"S. c #C1C1C1",
"D. c gray76",
"F. c #C3C3C3",
"G. c gray77",
"H. c #C5C5C5",
"J. c #C6C6C6",
"K. c gray80",
"L. c #CDCDCD",
"P. c gray82",
"I. c #D2D2D2",
"U. c gray83",
"Y. c gray85",
"T. c gray86",
"R. c #DDDDDD",
"E. c gray88",
"W. c #E2E2E2",
"Q. c gray94",
"!. c #F1F1F1",
"~. c gray100",
"^. c None",
/* pixels */
"J.Y.K.V.V.V.C.C.C.Z.Z.Z.Z.Z.A.A.A.A.A.A.A.A.A.A.A.A.A.A.A.L.T.F.",
"Y._ ' ] [ }  ...o.O.+.@.#.%.&.*.=.-.;.:.>.,.,.,.,.,.,.,.,.,.>.R.",
"Z.^ / ) ` ' [ { }  .X.o.O.@.#.$.%.&.*.-.-.:.:.,.,.,.,.,.,.,.,.G.",
"N.E Q ~ / ( _ ` ] [ } | ..X.O.+.@.#.%.&.*.=.-.;.:.>.,.,.,.,.,.A.",
"n.U T E W ! ^ / ) ` ` ) / ( [ ..o.O.O... .O.%.*.-.-.:.:.>.,.,.B.",
"v.L P I Y R E Q ~ ! I C b n F Q [ } ^ H A U [ $.&.*.=.-.;.:.>.N.",
"x.F H J L I U T R G j / e.r.P v T Y v +.y.| P ..#.$.%.&.*.=.-.m.",
"f.Z A D G J L L H x ;.~.W.Q.~.( c k ..~.~.t.N ` o.O.@.#.%.&.*.b.",
"p.N V C A S F G S j r.H.L 8.~.q.9 v !.W.~.r.v ^  ...o.O.+.@.#.c.",
"r.d m N B C Z A A v r , 6 W.~.U q U.M.9.~.w.h R [ { }  .X.o.O.z.",
"0., c b m M N V V c q B W.~.@., a.Q.( k.~.l.j F ( ` ] [ } | ..j.",
"6.& 7 z c b n m v p Z Q.Q.H & ; H.~.~.~.~.~.! B Q / ) ` ' [ { d.",
"2.& & q l z x c k 9 M.~.~.~.~.9.C T Y l.~.l.g C R Q ~ / ( ) ` s.",
"1.& & & 7 j k z g q 0.8.9.9.9.E r s u Q q.~ j G U T E W ! ~ / i.",
";.& & & & < a j h p 0 7 8 9 q p x m v f i h V H L L I Y R E Q q.",
"$.& & & & & & 3 i f d d f f j z v m m n n N Z S F G J L P U T 7.",
"o.& & & & & & & & 2 y h j k l z x c b n m N B C Z A D G J K L 2.",
"] % $ $ % % $ $ % & * ; 4 w a j g f j c b n m M B C Z A D F H <.",
"Y O X X O O X X O % - ; ; ; ; * & $ > 0 y i i k l z s s d f u | ",
"M } S.S.T 0 S.S.u.@ = : : : ; %  .D. .% ; - - - ; ; = = - = & T ",
"h 3.~.~.t.Y ~.~.D.o # $ % % % # 4.~.4.# & # @ # % $ @ $ & # O c ",
"a 3.~.Q.S.2.Q.~.D.. i.D.W D.6.o 4.~.5.+ Q D.D.h.> S D.| O } S./ ",
"u 3.~.S.Q.b.S.~.D.X D.~.D.E.~.A 4.~.5.r P.Q.g.~.b.  Q.E.  b.~.i ",
"t 4.~.3.~.E.3.~.D.o D.~.A 4.~.4.4.~.5.o | g.E.~.D.. 4.~.C ~.g.q ",
"w 4.~.C ~.~.E ~.D.O F.~.} h.~.;.4.~.5.:.~.n.} ~.D.o e ~.E.~.W u ",
"q 5.~.C P.~.> ~.F.+ F.~.Q.~.Q.< 5.~.5.Q ~.~.P.~.F.# + h.~.E.@ s ",
"u i F 2 v J * K b $ F.~.Q H 8 : d K d : M K * K K & @ ;.~.i.* g ",
"d 2 1 3 4 6 8 8 5 : F.~.J 4 e t w 0 w r q 0 q 8 4 ; I.Q.~.u < g ",
"g 0 w r t u p a u 7 V L r t g h g f g g f d d a y 4 <.7.J > 6 h ",
"f e t u p s d f f a e q y f j j j j j j j h h g d t 6 3 5 9 w f ",
"f t u p s d f g h j g h j k k k k k k k k j j h g d p u u y t d ",
"^.a s f g h j k l z z z z x x x x x x z z z z l k j h g f s a ^."
};
