/* XPM */
static char *Mplay_[] = {
/* columns rows colors chars-per-pixel */
"32 32 132 2",
"   c #171D1B",
".  c #1B1C1C",
"X  c #162622",
"o  c #172E28",
"O  c #173930",
"+  c #232323",
"@  c #272B2A",
"#  c #2C2C2C",
"$  c #273632",
"%  c #233933",
"&  c #343434",
"*  c #363A39",
"=  c #3A3A3A",
"-  c #174338",
";  c #174D40",
":  c #2F4D46",
">  c #3C4442",
",  c #355B51",
"<  c #306055",
"1  c #444444",
"2  c #404D4A",
"3  c #4C4C4C",
"4  c #4A514F",
"5  c #435651",
"6  c #4D5351",
"7  c #4D5956",
"8  c #4D5F5A",
"9  c #545555",
"0  c #525957",
"q  c #535C5A",
"w  c #5B5C5C",
"e  c #4E645E",
"r  c #52625E",
"t  c #5A605F",
"y  c #4F6862",
"u  c #546460",
"i  c #5C6362",
"p  c #536B65",
"a  c #5A6965",
"s  c #566E68",
"d  c #5C6D69",
"f  c #53736B",
"g  c #5B736D",
"h  c #547C72",
"j  c #5C7A73",
"k  c #636464",
"l  c #646B6A",
"z  c #6A6B6B",
"x  c #63716E",
"c  c #6A706E",
"v  c #657571",
"b  c #6C7472",
"n  c #627B75",
"m  c #6B7875",
"M  c #627F78",
"N  c #6A7E79",
"B  c #727373",
"V  c #707A77",
"C  c #727D7A",
"Z  c #7C7C7C",
"A  c #598076",
"S  c #5D8279",
"D  c #64837B",
"F  c #6C847E",
"G  c #64887F",
"H  c #72817E",
"J  c #78817F",
"K  c #6C8781",
"L  c #668981",
"P  c #6B8C83",
"I  c #758581",
"U  c #748B85",
"Y  c #7A8A85",
"T  c #758F88",
"R  c #7D8D89",
"E  c #73938C",
"W  c #7C928D",
"Q  c #7F9791",
"!  c #7C9A93",
"~  c #8C8C8C",
"^  c #80938E",
"/  c #839692",
"(  c #8F9392",
")  c #829C95",
"_  c #869D98",
"`  c #889F99",
"'  c #939393",
"]  c #959C9B",
"[  c #9A9A9A",
"{  c #85A49C",
"}  c #8AA49D",
"|  c #8DA7A1",
" . c #8CAAA2",
".. c #9BA5A3",
"X. c #91ACA6",
"o. c #96AFA9",
"O. c #94B1AA",
"+. c #9BB4AE",
"@. c #9EB9B2",
"#. c #A1A1A1",
"$. c gray68",
"%. c #A2B0AC",
"&. c #A0B6B1",
"*. c #A4BBB5",
"=. c #A8B9B5",
"-. c #A6BEB8",
";. c #AABEB9",
":. c #B1B1B1",
">. c #BBBBBB",
",. c #ADC2BD",
"<. c #B1C3BF",
"1. c #B1C6C1",
"2. c #B5C9C4",
"3. c #B9CCC7",
"4. c #BCCECA",
"5. c #A0D0C4",
"6. c #A8D1C8",
"7. c #BFD0CC",
"8. c #C7C7C7",
"9. c #CACACA",
"0. c #C3D2CE",
"q. c #C6D4D1",
"w. c #CBD5D3",
"e. c #CAD9D5",
"r. c #D7D7D7",
"t. c #D2DBD9",
"y. c #D8D8D8",
"u. c #D9E4E1",
"i. c #E4E4E4",
"p. c #F2F2F2",
"a. c gray100",
"s. c None",
/* pixels */
"6.u.t.0.q.q.q.q.q.w.w.w.w.w.w.w.w.w.w.w.w.w.w.w.w.w.w.w.w.t.u.5.",
"u.} |  .X.X.o.O.+.+.+.&.&.*.*.-.;.;.,.,.,.<.<.<.<.<.<.<.<.<.,.u.",
"q.{ { |  . .X.O.O.O.+.+.@.@.*.*.-.-.,.,.,.,.,.1.1.1.1.1.1.1.1.e.",
"a.a.a.a.a.a.a.a.a.a.a.a.a.a.a.a.a.a.a.a.a.a.a.a.a.a.a.a.a.a.a.a.",
"a.a.a.a.a.a.a.a.a.a.a.a.a.a.a.a.a.a.a.a.a.a.a.a.a.a.a.a.a.a.a.a.",
"a.a.a.a.a.a.a.a.a.a.a.a.a.a.a.a.a.a.a.a.a.a.a.a.a.a.a.a.a.a.a.a.",
"a.a.a.a.a.a.a.a.a.a.a.a.a.a.a.a.a.a.a.a.a.a.a.a.a.a.a.a.a.a.a.a.",
"a.a.a.a.a.a.a.a.a.a.a.a.a.a.a.a.a.a.a.a.a.a.a.a.a.a.a.a.a.a.a.a.",
"a.a.a.a.a.a.a.a.a.a.a.a.a.a.a.a.a.a.a.a.a.a.a.a.a.a.a.a.a.a.a.a.",
"a.a.a.a.a.a.a.a.a.a.a.a.a.a.a.a.a.a.a.a.a.a.a.a.a.a.a.a.a.a.a.a.",
"q.X.,.,.,.,.,.,.1.1.1.2.2.2.3.3.3.4.4.4.7.0.0.0.q.q.q.w.w.e.e.u.",
"} ; < h h h A S S S G G L L P P E E E E ! ! ! ) { { } } | X.X.,.",
") - - , f f f f g j j j M M D D F K K U U T W W W Q ) ) _ ` } =.",
"W O O O : e y p p s s g g g g n n n N N F F I U Y Y R W ^ / / %.",
"I o o o o % 5 8 8 e r u u p a d d d x x v m m N C H H I Y Y R ..",
"V X X X X X X $ 2 6 7 7 q q q r u i i a l l l x b b m V C C J ] ",
"b                 @ > 4 6 6 7 0 0 q q w t i i k l l l c b b V ( ",
"l                     . @ * 1 6 6 9 9 9 0 w w w i k k k l z z ~ ",
"k                 . . . . . . . + @ & * = = = 3 3 6 1 1 1 1 = z ",
"w B 8.8.k * 8.8.[ . . . . . . . B 8.B . . . . . . . . . . .   w ",
"9 ~ a.a.[ k a.a.8.+ + + + + + + ' a.' + + + + + . . . . . . . 9 ",
"9 ~ a.p.8.' p.a.8.+ #.9.Z 9.' @ ' a.' @ z 9.8.$.= w 8.B . B 8.Z ",
"3 ~ a.8.p.>.8.a.9.@ 9.a.9.i.a.k ' a.' 1 r.p.$.a.>.+ p.i.+ >.a.9 ",
"3 ~ a.' a.i.' a.9.# 9.a.k ' a.[ [ a.' # Z :.i.a.9.@ ' a.w a.$.3 ",
"1 ' a.w a.a.z a.9.# 9.a.Z :.a.~ [ a.[ ~ a.>.Z a.9.# 1 a.i.a.k 1 ",
"1 ' a.w r.a.1 a.9.& 9.a.p.a.p.3 [ a.[ B a.a.y.a.9.# # $.a.i.+ 1 ",
"= 1 w * 9 k # k w & 9.a.B z 1 & 3 z 3 & w k & k k # # ~ a.#.+ = ",
"= @ # # # & & & & & 9.a.z * * * * * * * & & & & & & y.p.a.1 @ = ",
"* # # # & & & & & & w z 1 * * * * * * * * * & & & & ~ [ k # # * ",
"& # # & & & & & * * * = = = = = = = = = = * * * & & & & & # # & ",
"& # & & & & & * * = = = = = = = = = = = = = = * * & & & & & # & ",
"s.& & & * * = = = = = = = = = = = = = = = = = = = = * * & & & s."
};
