/* XPM */
static char * Mute_xpm[] = {
"32 32 796 2",
"  	c None",
". 	c #685768",
"+ 	c #BAA2BB",
"@ 	c #D5B5D7",
"# 	c #D8AFDB",
"$ 	c #D8B0DC",
"% 	c #DAB0DC",
"& 	c #DAB2DC",
"* 	c #DBB2DC",
"= 	c #DBB3DC",
"- 	c #DBB4DD",
"; 	c #DBB4DF",
"> 	c #DCB6DF",
", 	c #DCB7DF",
"' 	c #DCB8DF",
") 	c #D6B8D9",
"! 	c #B8A2B8",
"~ 	c #645765",
"{ 	c #C0A8C3",
"] 	c #C17EC5",
"^ 	c #C381C7",
"/ 	c #C483C8",
"( 	c #C586C9",
"_ 	c #C688CA",
": 	c #C88BCB",
"< 	c #C88DCC",
"[ 	c #CA90CD",
"} 	c #CB92CE",
"| 	c #CC94CF",
"1 	c #CD96D0",
"2 	c #CE98D1",
"3 	c #CF9BD2",
"4 	c #D09CD3",
"5 	c #D19ED4",
"6 	c #D2A0D5",
"7 	c #D3A2D5",
"8 	c #D3A3D6",
"9 	c #D4A5D7",
"0 	c #D4A6D7",
"a 	c #D5A7D8",
"b 	c #D5A8D8",
"c 	c #BCA7BD",
"d 	c #CAA2CD",
"e 	c #BE77C2",
"f 	c #BF7AC4",
"g 	c #C07CC4",
"h 	c #C27FC6",
"i 	c #C382C7",
"j 	c #C484C8",
"k 	c #C687C9",
"l 	c #C789CA",
"m 	c #C88CCC",
"n 	c #C98ECC",
"o 	c #CA91CE",
"p 	c #CB93CF",
"q 	c #CC95D0",
"r 	c #CD97D1",
"s 	c #CE99D1",
"t 	c #D09DD3",
"u 	c #D19FD4",
"v 	c #D2A1D5",
"w 	c #D3A4D6",
"x 	c #CAA6CC",
"y 	c #D0A1D2",
"z 	c #BE76C2",
"A 	c #C27FC5",
"B 	c #C383C8",
"C 	c #C280C7",
"D 	c #C380C6",
"E 	c #C688C9",
"F 	c #C98DCC",
"G 	c #CC95CF",
"H 	c #D6A8D8",
"I 	c #D7AAD9",
"J 	c #D8ACD9",
"K 	c #D7ABD9",
"L 	c #D7ADDA",
"M 	c #D9B0DC",
"N 	c #D9B1DC",
"O 	c #D8AEDB",
"P 	c #D3AFD5",
"Q 	c #A065A5",
"R 	c #452648",
"S 	c #452649",
"T 	c #724876",
"U 	c #C689CA",
"V 	c #543058",
"W 	c #4A284E",
"X 	c #4B284E",
"Y 	c #AB77AE",
"Z 	c #4E2952",
"` 	c #714773",
" .	c #CB91CD",
"..	c #532B56",
"+.	c #542C57",
"@.	c #B58AB9",
"#.	c #562C5A",
"$.	c #572D5B",
"%.	c #582E5B",
"&.	c #592E5C",
"*.	c #5A2E5D",
"=.	c #5B2E5D",
"-.	c #BA91BD",
";.	c #7D517F",
">.	c #5D315F",
",.	c #5E3260",
"'.	c #5E3360",
").	c #5F3561",
"!.	c #7E5581",
"~.	c #DCB5DE",
"{.	c #D19ED3",
"].	c #97619B",
"^.	c #130018",
"/.	c #140019",
"(.	c #381C3C",
"_.	c #C18CC4",
":.	c #19001D",
"<.	c #1A001E",
"[.	c #1B001F",
"}.	c #C98ECD",
"|.	c #A170A4",
"1.	c #1F0023",
"2.	c #4D2951",
"3.	c #C98FCD",
"4.	c #CD95CF",
"5.	c #240028",
"6.	c #250029",
"7.	c #B589B8",
"8.	c #532B57",
"9.	c #542C58",
"0.	c #2A002D",
"a.	c #2B002E",
"b.	c #582D5B",
"c.	c #592D5C",
"d.	c #BA90BD",
"e.	c #5B2F5E",
"f.	c #300033",
"g.	c #512354",
"h.	c #5D305F",
"i.	c #7D5380",
"j.	c #DAB2DD",
"k.	c #955E99",
"l.	c #100015",
"m.	c #1D0921",
"n.	c #120017",
"o.	c #9D6DA1",
"p.	c #15001A",
"q.	c #210926",
"r.	c #18001C",
"s.	c #C78ACB",
"t.	c #9E6DA2",
"u.	c #1B0020",
"v.	c #C78ACA",
"w.	c #210025",
"x.	c #220026",
"y.	c #CC93CF",
"z.	c #27002A",
"A.	c #28002B",
"B.	c #D7AAD8",
"C.	c #D09ED4",
"D.	c #D4A6D8",
"E.	c #2D0030",
"F.	c #B18BB4",
"G.	c #DDB9DF",
"H.	c #D9AFDB",
"I.	c #D8ADD9",
"J.	c #C687CB",
"K.	c #915A96",
"L.	c #0D0012",
"M.	c #3C2241",
"N.	c #0F0014",
"O.	c #55355A",
"P.	c #412445",
"Q.	c #C585C8",
"R.	c #9C699F",
"S.	c #18001D",
"T.	c #47274B",
"U.	c #C483C7",
"V.	c #1E0022",
"W.	c #240027",
"X.	c #552D59",
"Y.	c #2A002E",
"Z.	c #2C002F",
"`.	c #2E0031",
" +	c #845887",
".+	c #D5A9D9",
"++	c #BD74BF",
"@+	c #8F5694",
"#+	c #0A000F",
"$+	c #68426C",
"%+	c #0C0011",
"&+	c #241129",
"*+	c #3D2242",
"=+	c #3D2343",
"-+	c #110016",
";+	c #98639C",
">+	c #160019",
",+	c #452548",
"'+	c #C685C8",
")+	c #CA8BCB",
"!+	c #1E001E",
"~+	c #1E0020",
"{+	c #CA8CCB",
"]+	c #C17BC4",
"^+	c #CB90CD",
"/+	c #CD97D0",
"(+	c #CE97D1",
"_+	c #6C436E",
":+	c #825A85",
"<+	c #835A86",
"[+	c #AB7FAE",
"}+	c #B76BBD",
"|+	c #85478A",
"1+	c #06000C",
"2+	c #654069",
"3+	c #38203C",
"4+	c #0A0010",
"5+	c #5C3A62",
"6+	c #3B2240",
"7+	c #0E0013",
"8+	c #BE75C1",
"9+	c #B570B6",
"0+	c #160016",
"a+	c #250923",
"b+	c #996695",
"c+	c #845480",
"d+	c #21001B",
"e+	c #441D3F",
"f+	c #CA83C6",
"g+	c #C376C1",
"h+	c #CC8BCB",
"i+	c #200022",
"j+	c #1F0022",
"k+	c #CB91CE",
"l+	c #512A53",
"m+	c #250028",
"n+	c #8A618D",
"o+	c #AC82AE",
"p+	c #B486B7",
"q+	c #B564B9",
"r+	c #77297C",
"s+	c #030009",
"t+	c #633E68",
"u+	c #58375D",
"v+	c #07000D",
"w+	c #7C5081",
"x+	c #39213D",
"y+	c #0E0010",
"z+	c #BD6BBC",
"A+	c #BD66B9",
"B+	c #885283",
"C+	c #1E0015",
"D+	c #210016",
"E+	c #240017",
"F+	c #300923",
"G+	c #B26EA7",
"H+	c #CA76C0",
"I+	c #C771BE",
"J+	c #CD83C6",
"K+	c #23001E",
"L+	c #210020",
"M+	c #C888CA",
"N+	c #230026",
"O+	c #522A55",
"P+	c #CF9BD1",
"Q+	c #B05AB5",
"R+	c #86148D",
"S+	c #792D7E",
"T+	c #9A509F",
"U+	c #9B51A1",
"V+	c #88498D",
"W+	c #A85AAC",
"X+	c #985399",
"Y+	c #924F8F",
"Z+	c #BC5CB4",
"`+	c #BE58B2",
" @	c #C565B8",
".@	c #C26EB3",
"+@	c #A86098",
"@@	c #AA6198",
"#@	c #D279C0",
"$@	c #CF6FBB",
"%@	c #CD6CBA",
"&@	c #CB6CBB",
"*@	c #CC76C0",
"=@	c #A6669C",
"-@	c #A4669D",
";@	c #C67AC3",
">@	c #C075C1",
",@	c #C27DC4",
"'@	c #A771AB",
")@	c #A373A6",
"!@	c #A475A7",
"~@	c #A476A8",
"{@	c #AE7BB0",
"]@	c #AB55B0",
"^@	c #87038F",
"/@	c #880690",
"(@	c #97259E",
"_@	c #A542AB",
":@	c #A745AC",
"<@	c #AC47AD",
"[@	c #B34BAD",
"}@	c #B84FAE",
"|@	c #BE51AF",
"1@	c #C252AF",
"2@	c #C655AF",
"3@	c #CB5BB2",
"4@	c #CF61B4",
"5@	c #D163B5",
"6@	c #D262B5",
"7@	c #D264B5",
"8@	c #D166B7",
"9@	c #CF68B7",
"0@	c #CE6BBA",
"a@	c #CC70BC",
"b@	c #C970BD",
"c@	c #C76FBD",
"d@	c #C370BE",
"e@	c #C072BF",
"f@	c #BF79C3",
"g@	c #C07DC5",
"h@	c #C280C6",
"i@	c #C383C7",
"j@	c #C486C8",
"k@	c #A751AD",
"l@	c #85008D",
"m@	c #921B99",
"n@	c #A43BA7",
"o@	c #AC40A8",
"p@	c #B444A9",
"q@	c #BC48AA",
"r@	c #C24CAB",
"s@	c #C74FAC",
"t@	c #CC52AD",
"u@	c #D056AE",
"v@	c #D358AF",
"w@	c #D65BB0",
"x@	c #D85EB1",
"y@	c #D860B2",
"z@	c #D762B3",
"A@	c #D564B5",
"B@	c #D365B6",
"C@	c #D067B7",
"D@	c #CC67B8",
"E@	c #C969B9",
"F@	c #C56ABB",
"G@	c #C16CBC",
"H@	c #BC6CBD",
"I@	c #BB6EBE",
"J@	c #BB71C0",
"K@	c #BC74C1",
"L@	c #BD76C2",
"M@	c #C07DC4",
"N@	c #A44CAA",
"O@	c #87018D",
"P@	c #951093",
"Q@	c #AC35A2",
"R@	c #B841A7",
"S@	c #C045A8",
"T@	c #C749A9",
"U@	c #CD4CAA",
"V@	c #D24FAB",
"W@	c #D652AB",
"X@	c #DA55AC",
"Y@	c #DD58AD",
"Z@	c #DF5BAF",
"`@	c #DF5DAF",
" #	c #DD5EB0",
".#	c #DA5FB2",
"+#	c #D760B3",
"@#	c #D462B4",
"##	c #D063B5",
"$#	c #CC64B6",
"%#	c #C765B7",
"&#	c #C266B9",
"*#	c #BD67BA",
"=#	c #B968BB",
"-#	c #B86ABC",
";#	c #B96DBE",
">#	c #BA6FBF",
",#	c #BC72C0",
"'#	c #A047A6",
")#	c #8A018D",
"!#	c #94058D",
"~#	c #9F088D",
"{#	c #B01D95",
"]#	c #C139A2",
"^#	c #CB46A6",
"/#	c #D24AA7",
"(#	c #D84DA8",
"_#	c #DD50A9",
":#	c #E253AA",
"<#	c #E756AE",
"[#	c #EC58B9",
"}#	c #EC5BBA",
"|#	c #E65BB1",
"1#	c #E15CAF",
"2#	c #DD5DB0",
"3#	c #D95FB1",
"4#	c #D45EB2",
"5#	c #CE60B3",
"6#	c #C960B4",
"7#	c #C461B6",
"8#	c #BE61B7",
"9#	c #B861B8",
"0#	c #B563B9",
"a#	c #B565BA",
"b#	c #B768BB",
"c#	c #B86BBD",
"d#	c #B86ABD",
"e#	c #9C44A2",
"f#	c #8E038D",
"g#	c #99068D",
"h#	c #A40A8D",
"i#	c #AF0D8D",
"j#	c #BA118D",
"k#	c #C72395",
"l#	c #D53CA0",
"m#	c #DF4DA6",
"n#	c #E74FAA",
"o#	c #F750C7",
"p#	c #FF52DB",
"q#	c #FF54DC",
"r#	c #FF57DD",
"s#	c #FF59DD",
"t#	c #F65BCC",
"u#	c #E55BB0",
"v#	c #DE5AAE",
"w#	c #D75BAF",
"x#	c #D15BB0",
"y#	c #CB5CB2",
"z#	c #C45CB3",
"A#	c #BF5DB4",
"B#	c #B85BB5",
"C#	c #B35DB6",
"D#	c #B25FB7",
"E#	c #B361B8",
"F#	c #B564BA",
"G#	c #B362B8",
"H#	c #983FA0",
"I#	c #85018D",
"J#	c #89028E",
"K#	c #93058E",
"L#	c #9E098E",
"M#	c #A90C8E",
"N#	c #B4108E",
"O#	c #BE138E",
"P#	c #C9168E",
"Q#	c #D41A8E",
"R#	c #E31E95",
"S#	c #FE1DBF",
"T#	c #FF30CB",
"U#	c #FF3FD3",
"V#	c #FF4FD9",
"W#	c #FF55DC",
"X#	c #FC59D9",
"Y#	c #E759B3",
"Z#	c #DB58AD",
"`#	c #D357AE",
" $	c #CD56AF",
".$	c #C657B1",
"+$	c #BF57B1",
"@$	c #B957B3",
"#$	c #B257B4",
"$$	c #B059B5",
"%$	c #B05BB5",
"&$	c #B15EB7",
"*$	c #AF59B4",
"=$	c #943B9C",
"-$	c #86038E",
";$	c #8B048E",
">$	c #97098F",
",$	c #A30C8F",
"'$	c #AE108F",
")$	c #B9138F",
"!$	c #C31790",
"~$	c #CE1B90",
"{$	c #DA1E90",
"]$	c #F80FAF",
"^$	c #FF09BA",
"/$	c #FF15C0",
"($	c #FF1BC2",
"_$	c #FF27C7",
":$	c #FF32CE",
"<$	c #F83BC3",
"[$	c #D93FA1",
"}$	c #D03DA1",
"|$	c #CB48A8",
"1$	c #C448A9",
"2$	c #BB46A9",
"3$	c #AE37A3",
"4$	c #A435A4",
"5$	c #9D33A4",
"6$	c #9E35A4",
"7$	c #992BA0",
"8$	c #9D45A4",
"9$	c #923899",
"0$	c #88058F",
"a$	c #890690",
"b$	c #8F0890",
"c$	c #9C0D90",
"d$	c #A71191",
"e$	c #B21591",
"f$	c #BE1A92",
"g$	c #C91D92",
"h$	c #D42192",
"i$	c #E5229B",
"j$	c #FF11BE",
"k$	c #FF12BE",
"l$	c #DF209B",
"m$	c #CD1F92",
"n$	c #C21B92",
"o$	c #B71792",
"p$	c #AB1391",
"q$	c #A01091",
"r$	c #950A90",
"s$	c #8B0790",
"t$	c #8E3397",
"u$	c #890891",
"v$	c #8B0A91",
"w$	c #930D92",
"x$	c #9F1292",
"y$	c #AA1693",
"z$	c #B61A93",
"A$	c #C12094",
"B$	c #CC2495",
"C$	c #D82895",
"D$	c #F024AC",
"E$	c #FF1CC3",
"F$	c #ED23AC",
"G$	c #D02695",
"H$	c #C52295",
"I$	c #BA1D94",
"J$	c #AF1893",
"K$	c #A31493",
"L$	c #981092",
"M$	c #8E0B92",
"N$	c #890991",
"O$	c #8F3397",
"P$	c #8C3093",
"Q$	c #8A0B92",
"R$	c #8D0E93",
"S$	c #951193",
"T$	c #A01694",
"U$	c #AC1B95",
"V$	c #B72096",
"W$	c #C22597",
"X$	c #CD2997",
"Y$	c #D82E98",
"Z$	c #F12BAF",
"`$	c #FF24C6",
" %	c #FF26C7",
".%	c #ED2AAF",
"+%	c #D12C98",
"@%	c #C62797",
"#%	c #BB2397",
"$%	c #B01E96",
"%%	c #A51995",
"&%	c #991494",
"*%	c #8F0F93",
"=%	c #8B0D93",
"-%	c #8A2E92",
";%	c #8C0E93",
">%	c #8E1094",
",%	c #951495",
"'%	c #A11A96",
")%	c #AC1F97",
"!%	c #B72498",
"~%	c #C22999",
"{%	c #CD2F9A",
"]%	c #D8339B",
"^%	c #EC32AD",
"/%	c #FF2CCA",
"(%	c #FF2DCB",
"_%	c #FF2FCB",
":%	c #E632AA",
"<%	c #D0319B",
"[%	c #C52D9A",
"}%	c #BB2799",
"|%	c #B02298",
"1%	c #A41D97",
"2%	c #991896",
"3%	c #901395",
"4%	c #8D1094",
"5%	c #872B8E",
"6%	c #8D1195",
"7%	c #8E1496",
"8%	c #941797",
"9%	c #A01D98",
"0%	c #AB2299",
"a%	c #B6289B",
"b%	c #C12D9B",
"c%	c #CB339D",
"d%	c #D5379E",
"e%	c #E03BA1",
"f%	c #FD35CB",
"g%	c #FF35CE",
"h%	c #FF36CF",
"i%	c #DA39A1",
"j%	c #CE369E",
"k%	c #C5319D",
"l%	c #BA2B9B",
"m%	c #AF269B",
"n%	c #A42099",
"o%	c #981B98",
"p%	c #901697",
"q%	c #85288C",
"r%	c #8F1596",
"s%	c #901797",
"t%	c #951B99",
"u%	c #9F219A",
"v%	c #AA269B",
"w%	c #B42C9D",
"x%	c #BF319E",
"y%	c #C8369F",
"z%	c #D1399F",
"A%	c #DA3FA0",
"B%	c #EE3EB6",
"C%	c #FF3CD2",
"D%	c #FF3DD2",
"E%	c #E73FB0",
"F%	c #D33DA0",
"G%	c #CB39A0",
"H%	c #C2349F",
"I%	c #B82F9E",
"J%	c #AE2A9D",
"K%	c #A4249B",
"L%	c #981F9A",
"M%	c #921A99",
"N%	c #82268A",
"O%	c #911898",
"P%	c #951F9B",
"Q%	c #9D239C",
"R%	c #A7299D",
"S%	c #B22F9E",
"T%	c #BB339F",
"U%	c #C439A0",
"V%	c #CD3DA2",
"W%	c #D440A2",
"X%	c #DB43A3",
"Y%	c #F044BB",
"Z%	c #FF41D3",
"`%	c #FF42D4",
" &	c #FD41D0",
".&	c #EA43B5",
"+&	c #D542A3",
"@&	c #CE3FA2",
"#&	c #C73BA2",
"$&	c #BE37A0",
"%&	c #B5319F",
"&&	c #AC2D9E",
"*&	c #A1279D",
"=&	c #98229C",
"-&	c #931E9B",
";&	c #82248A",
">&	c #941F9B",
",&	c #95229C",
"'&	c #9B269E",
")&	c #A52C9F",
"!&	c #AF31A0",
"~&	c #B836A1",
"{&	c #C03BA2",
"]&	c #C83EA3",
"^&	c #CE42A4",
"/&	c #D544A4",
"(&	c #DA47A5",
"_&	c #E348AB",
":&	c #F247C0",
"<&	c #F847CA",
"[&	c #F147C0",
"}&	c #E047AB",
"|&	c #D545A5",
"1&	c #CF43A4",
"2&	c #C840A4",
"3&	c #C23CA3",
"4&	c #BA39A2",
"5&	c #B234A1",
"6&	c #A92FA0",
"7&	c #9F2A9F",
"8&	c #98259E",
"9&	c #802189",
"0&	c #97269E",
"a&	c #9B299F",
"b&	c #A22EA1",
"c&	c #AB34A2",
"d&	c #B338A3",
"e&	c #BB3CA4",
"f&	c #C240A4",
"g&	c #C942A5",
"h&	c #CD45A6",
"i&	c #D247A6",
"j&	c #D648A6",
"k&	c #D949A6",
"l&	c #DA49A6",
"m&	c #D748A6",
"n&	c #D347A6",
"o&	c #CF46A6",
"p&	c #C943A6",
"q&	c #C340A5",
"r&	c #BC3EA4",
"s&	c #B43AA4",
"t&	c #AD36A3",
"u&	c #A432A2",
"v&	c #9D2DA1",
"w&	c #99299F",
"x&	c #751E7D",
"y&	c #9A2DA1",
"z&	c #9F31A2",
"A&	c #A735A3",
"B&	c #AE39A4",
"C&	c #B63DA5",
"D&	c #BC3FA6",
"E&	c #C243A6",
"F&	c #C644A7",
"G&	c #CA46A7",
"H&	c #CE47A7",
"I&	c #D148A7",
"J&	c #D248A7",
"K&	c #CF48A7",
"L&	c #CB47A7",
"M&	c #C846A7",
"N&	c #C243A7",
"O&	c #BD42A6",
"P&	c #B63EA6",
"Q&	c #B03BA5",
"R&	c #A837A4",
"S&	c #A133A3",
"T&	c #9C30A2",
"U&	c #751F7D",
"V&	c #6B1E74",
"W&	c #9B2DA1",
"X&	c #9E33A4",
"Y&	c #A236A5",
"Z&	c #A939A6",
"`&	c #B03DA6",
" *	c #B53FA7",
".*	c #BA41A7",
"+*	c #BF45A8",
"@*	c #C346A8",
"#*	c #C647A8",
"$*	c #C847A8",
"%*	c #C948A8",
"&*	c #C747A8",
"**	c #C446A8",
"=*	c #BC44A8",
"-*	c #B740A7",
";*	c #B03EA7",
">*	c #AA3BA6",
",*	c #A337A6",
"'*	c #9E35A5",
")*	c #681C71",
"!*	c #4E1954",
"~*	c #A037A6",
"{*	c #A43AA7",
"]*	c #A93DA7",
"^*	c #AF40A8",
"/*	c #B341A8",
"(*	c #B743A8",
"_*	c #BA44A8",
":*	c #BD45A8",
"<*	c #C046A8",
"[*	c #C147A8",
"}*	c #BF46A8",
"|*	c #B843A8",
"1*	c #B542A8",
"2*	c #B040A8",
"3*	c #AB3FA8",
"4*	c #A53BA7",
"5*	c #A039A7",
"6*	c #9F37A6",
"7*	c #4C1953",
"8*	c #4E384F",
"9*	c #4D1A54",
"0*	c #822387",
"a*	c #83268A",
"b*	c #85278B",
"c*	c #85298C",
"d*	c #852A8E",
"e*	c #862B8E",
"f*	c #8A2D8F",
"g*	c #8E2F8F",
"h*	c #93308F",
"i*	c #9A328F",
"j*	c #9E3390",
"k*	c #A03490",
"l*	c #A33590",
"m*	c #A43590",
"n*	c #A13490",
"o*	c #9F3490",
"p*	c #9B3390",
"q*	c #96318F",
"r*	c #8F2F8F",
"s*	c #8A2E8F",
"t*	c #872C8F",
"u*	c #4C1952",
". + @ # $ % % & * = - - - ; > > > , , ' ' ' ' ' ' ' ' ' ' ) ! ~ ",
"{ ] ^ / ( _ : < [ } | 1 2 3 4 5 6 7 8 9 0 a b b b b b b b b 0 c ",
"d e f g h i j k l m n o p q r s 3 t u v 7 w 9 a b b b b b b b x ",
"y z A B C D E < F l < p | o G t u u 8 a H I J K I L M N N N O P ",
"6 Q R S T U V W X F Y Z `  .1 ..+.@.#.$.%.&.*.=.-.;.>.,.'.).!.~.",
"{.].^./.(._.:.<.[.}.|.1.2.3.4.5.6.7.8.9.0.a.b.c.d.e.f.g.h.>.i.j.",
"1 k.l.m.n.o.p.q.r.s.t.u.W v.[ w.x.4 y.9 z.A.B.C.D.%.E.F.G.~.H.I.",
"J.K.L.M.N.O.n.P./.Q.R.S.T.U.s.V.1.} i 1 W.6.4 3.t X.Y.Z.E.`. +.+",
"++@+#+$+%+&+*+=+-+] ;+>+,+'+)+!+~+{+]+^+w.x./+_ (+..A._+:+<+[+w ",
"}+|+1+2+3+4+5+6+7+8+9+0+a+b+c+d+e+f+g+h+i+j+k+i o l+m+n+o+o+p+C.",
"q+r+s+t+u+v+w+x+y+z+A+B+C+D+E+F+G+H+I+J+K+L+M+]+U 2.x.N+5.6.O+P+",
"Q+R+S+T+U+V+W+X+Y+Z+`+ @.@+@@@#@$@%@&@*@=@-@;@>@,@'@|.)@!@~@{@[ ",
"]@^@/@(@_@:@<@[@}@|@1@2@3@4@5@6@7@8@9@0@a@b@c@d@e@8+f@g@h@^ i@j@",
"k@l@l@l@m@n@o@p@q@r@s@t@u@v@w@x@y@z@A@B@C@D@E@F@G@H@I@J@K@L@f@M@",
"N@l@l@l@O@P@Q@R@S@T@U@V@W@X@Y@Z@`@ #.#+#@###$#%#&#*#=#-#;#>#,#K@",
"'#l@l@l@)#!#~#{#]#^#/#(#_#:#<#[#}#|#1#2#3#4#5#6#7#8#9#0#a#b#c#d#",
"e#l@l@O@f#g#h#i#j#k#l#m#n#o#p#q#r#s#t#u#v#w#x#y#z#A#B#C#D#E#F#G#",
"H#I#I#J#K#L#M#N#O#P#Q#R#S#T#U#V#p#q#W#X#Y#Z#`# $.$+$@$#$$$%$&$*$",
"=$-$-$;$>$,$'$)$!$~${$]$^$^$^$^$/$($_$:$<$[$}$|$1$2$3$4$5$6$7$8$",
"9$0$a$b$c$d$e$f$g$h$i$j$k$k$k$k$k$k$k$k$j$l$m$n$o$p$q$r$s$/@0$9$",
"t$u$v$w$x$y$z$A$B$C$D$($($E$E$E$E$E$E$($($F$G$H$I$J$K$L$M$N$u$O$",
"P$Q$R$S$T$U$V$W$X$Y$Z$`$ % %_$_$_$_$ % %`$.%+%@%#%$%%%&%*%=%Q$P$",
"-%;%>%,%'%)%!%~%{%]%^%/%(%_%_%_%_%_%_%(%/%:%<%[%}%|%1%2%3%4%;%-%",
"5%6%7%8%9%0%a%b%c%d%e%f%g%g%h%h%h%h%g%g%f%i%j%k%l%m%n%o%p%7%6%5%",
"q%r%s%t%u%v%w%x%y%z%A%B%C%C%C%D%D%C%C%C%E%F%G%H%I%J%K%L%M%s%r%q%",
"N%O%m@P%Q%R%S%T%U%V%W%X%Y%Z%`%`%`%`% &.&+&@&#&$&%&&&*&=&-&m@O%N%",
";&m@>&,&'&)&!&~&{&]&^&/&(&_&:&<&<&[&}&|&1&2&3&4&5&6&7&8&,&>&m@;&",
"9&>&,&0&a&b&c&d&e&f&g&h&i&j&k&l&l&m&n&o&p&q&r&s&t&u&v&w&0&,&>&9&",
"x&,&0&w&y&z&A&B&C&D&E&F&G&H&I&J&I&K&L&M&N&O&P&Q&R&S&T&y&w&0&,&U&",
"V&0&w&W&T&X&Y&Z&`& *.*+*@*#*$*%*%*&***S@=*-*;*>*,*'*5$T&W&w&0&)*",
"!*w&W&T&5$'*~*{*]*^*/*(*_*:*<*[*[*}*=*|*1*2*3*4*5*6*'*5$T&W&w&7*",
"8*9*0*a*b*c*d*e*f*g*h*i*j*k*l*m*l*n*o*p*q*r*s*t*e*d*c*b*a*0*u*8*"};
