/* XPM */
static char *ParentX_rotate[] = {
/* columns rows colors chars-per-pixel */
"32 32 195 2",
"   c black",
".  c gray3",
"X  c #090909",
"o  c gray4",
"O  c gray6",
"+  c #101010",
"@  c #111111",
"#  c gray7",
"$  c #131313",
"%  c #1B1B1B",
"&  c gray11",
"*  c #202020",
"=  c gray13",
"-  c #232323",
";  c gray16",
":  c #2B2B2A",
">  c gray17",
",  c #2C2C2C",
"<  c #2D2D2C",
"1  c #2D2D2D",
"2  c #2F2F2F",
"3  c gray19",
"4  c #323232",
"5  c #343433",
"6  c #353535",
"7  c gray21",
"8  c #373737",
"9  c gray22",
"0  c #414141",
"q  c #434343",
"w  c #444444",
"e  c gray27",
"r  c #464645",
"t  c #464646",
"y  c gray28",
"u  c #484847",
"i  c #484848",
"p  c #494949",
"a  c gray29",
"s  c #4B4B4A",
"d  c #4B4B4B",
"f  c #4C4C4B",
"g  c #4C4C4C",
"h  c gray30",
"j  c #4E4E4D",
"k  c #4E4E4E",
"l  c gray31",
"z  c #505050",
"x  c #515151",
"c  c gray32",
"v  c #535353",
"b  c gray33",
"n  c #555554",
"m  c #555555",
"M  c #565656",
"N  c gray34",
"B  c #585857",
"V  c #585858",
"C  c gray35",
"Z  c #5A5A5A",
"A  c #5B5B5B",
"S  c gray36",
"D  c #5D5D5C",
"F  c #5D5D5D",
"G  c gray37",
"H  c #5F5F5F",
"J  c #60605F",
"K  c #606060",
"L  c gray38",
"P  c #626262",
"I  c gray39",
"U  c #646463",
"Y  c #646464",
"T  c #656565",
"R  c #666665",
"E  c gray40",
"W  c #676767",
"Q  c #686867",
"!  c #686868",
"~  c DimGray",
"^  c #6A6A6A",
"/  c #6B6B6A",
"(  c gray42",
")  c #6C6C6C",
"_  c #6D6D6D",
"`  c gray43",
"'  c #6F6F6E",
"]  c #6F6F6F",
"[  c gray44",
"{  c #717170",
"}  c #717171",
"|  c #727272",
" . c gray45",
".. c #747473",
"X. c #747474",
"o. c gray46",
"O. c #767675",
"+. c #767676",
"@. c #777777",
"#. c gray47",
"$. c #797978",
"%. c #797979",
"&. c gray48",
"*. c #7B7B7B",
"=. c #7C7C7B",
"-. c #7C7C7C",
";. c gray49",
":. c #7E7E7E",
">. c #7F7F7E",
",. c #7F7F7F",
"<. c #808080",
"1. c #818181",
"2. c gray51",
"3. c #838383",
"4. c #848484",
"5. c gray52",
"6. c #868686",
"7. c gray53",
"8. c #888888",
"9. c #898989",
"0. c gray54",
"q. c #8B8B8A",
"w. c #8B8B8B",
"e. c gray55",
"r. c #8D8D8D",
"t. c #8E8E8E",
"y. c gray56",
"u. c #909090",
"i. c gray57",
"p. c #929292",
"a. c #939393",
"s. c gray58",
"d. c #959595",
"f. c gray59",
"g. c #979797",
"h. c #989898",
"j. c gray60",
"k. c #9A9A9A",
"l. c #9B9B9B",
"z. c gray61",
"x. c #9D9D9D",
"c. c gray62",
"v. c #9F9F9F",
"b. c #A0A0A0",
"n. c gray63",
"m. c #A2A2A2",
"M. c gray64",
"N. c #A4A4A4",
"B. c #A5A5A5",
"V. c gray65",
"C. c #A7A7A7",
"Z. c gray66",
"A. c #A9A9A9",
"S. c #AAAAAA",
"D. c gray67",
"F. c #ACACAC",
"G. c gray68",
"H. c #AEAEAE",
"J. c #AFAFAF",
"K. c gray69",
"L. c #B1B1B1",
"P. c #B2B2B2",
"I. c gray70",
"U. c #B4B4B4",
"Y. c gray71",
"T. c #B6B6B6",
"R. c #B7B7B7",
"E. c gray72",
"W. c #B9B9B9",
"Q. c gray73",
"!. c #BBBBBB",
"~. c #BCBCBC",
"^. c gray74",
"/. c gray",
"(. c gray75",
"). c #C0C0C0",
"_. c gray76",
"`. c #C5C5C5",
"'. c #C6C6C6",
"]. c gray78",
"[. c gray79",
"{. c #CACACA",
"}. c #CBCBCB",
"|. c #CECECE",
" X c gray82",
".X c #D2D2D2",
"XX c LightGray",
"oX c gray83",
"OX c #D5D5D5",
"+X c gray84",
"@X c gray85",
"#X c #DADADA",
"$X c #DDDDDD",
"%X c #DFDFDF",
"&X c None",
/* pixels */
"U.#X@X X X.X.X.XXXoXoXoXoXoXOXOXOXOX+X+X+X+X+X+X+X+X+X+X+X#X$XJ.",
"$Xb.m.N.V.C.A.D.G.J.K.P.I.Y.T.R.W.Q.!.^.^./.(.(.(.(.(.(.(.(./.%X",
"|.l.x.c.n.M.N.C.Z.S.F.H.J.L.P.U.Y.R.E.Q.Q.~.^./.(.(.(.(.(.(.(.XX",
"{.f.h.l.b.A.G.H.K.G.A.A.D.F.J.K.P.I.Y.T.R.W.Q.!.^.^./.(.(.(.(..X",
"].u.a.g.;.        2 G.B.C.Z.S.F.G.J.L.P.U.Y.R.E.Q.Q.~.^.^.(.(..X",
"'.w.r.a.>.    1     [ M.n.M.B.C.A.D.F.H.K.P.I.Y.T.R.W.Q.!.~.^. X",
").6.8.t.=.    L.1   Z b.z.c.b.m.N.V.Z.A.F.G.J.L.P.U.Y.R.E.W.Q.|.",
"E.1.3.9.$.    >     ^ k.g.j.l.x.v.n.M.B.C.A.S.F.H.J.L.I.Y.T.R.}.",
"F.-.,.5.O.        d h.i.p.s.f.h.k.z.c.b.m.N.V.C.A.D.G.J.K.P.I.[.",
"C.~ &.1.|     m.s.u.w.w.r.y.u.a.d.g.j.l.x.c.n.M.N.C.Z.S.F.H.J.`.",
"M.g o.*.)     r.<.2.4.5.8.0.w.r.u.p.a.f.h.k.l.c.b.n.N.B.C.A.D._.",
"v.q N o.@./ ^ 1.*.;.,.1.2.5.6.8.w.y.s.k.c.v.n.m.b.x.c.n.m.N.C./.",
"l.q q A  .+.#.+.@.%.&.-.:.,.2.3.5.r.I > > , , , E k.j.l.c.v.n.W.",
"f.q q q N _ [ }  .X.@.@.&.*.;.,.<.0.v         H j.a.s.f.j.k.z.U.",
"i.q q q q h W ` } %.O.%.o.@.#.&.-.6.c       m k.r.r.y.i.a.d.g.H.",
"r.q q q q q q x ] B & #.|  .X.+.@.2.z       o 8.0.8.0.e.r.u.p.S.",
"9.q q q q q q u S . X [ [ ] } | X.,.j   U Y   ; y.4.5.7.9.w.r.B.",
"4.w w w w w w c 6   p n b G ! [ } *.t Z 5.q.4    .4.1.2.5.6.8.v.",
"<.e e e t t y G . O P a i i i i l M D ! T ~ )   3 ;.! ! ! ^ I 0.",
"-.t y y i p g D   2 D g h h h h h h k h g h Y + + H p i y y t -.",
"#.i p a d g v m   0 G c c c c c c c c c c x I *   R g d a p i #.",
"o.d g h k z M V   q I M N N N N N N N N M M ! =   ~ z k h g d o.",
"| h k z c v V T   : ( A S S S S S S S S A A } . @ ~ v c z k h | ",
"] l x v b M C ' @ X | I K K K K K K K K H T L   5 E M b v x l ] ",
"_ c v m N Z A ! r   y | T I I I I I I I R @.-   J P Z N m v c _ ",
"^ b M V Z S G Y { #   V X.! E E E E E ^ $.7   < [ H S Z V M b ^ ",
"W M V A F H L I ) / X   c :. .[ ' [ o.&.8   % ..W L H F A V M W ",
"T V A F K P I T W } ` X   $ s ~ Q L 0 X   & #.) T I P K F A V T ",
"L A G K P Y E W ~ ( | *.9             X a :.] ~ W E Y P K G A P ",
"H G K P Y E ! ~ ^ ( ) } &.-.L s f a ~ 1.@.] ( ^ ~ ! E Y P K G G ",
"C K P Y E ! ^ ( ) _ _ ` ` [ X.@.#.@. .] ` _ _ ) ( ^ ! E Y P K M ",
"&XC E ! ^ ) _ ` ] ] [ [ [ } } } } } } [ [ [ ] ] ` _ ) ^ ! E V &X"
};
