/* XPM */
static char *ParentX[] = {
/* columns rows colors chars-per-pixel */
"32 32 201 2",
"   c black",
".  c gray3",
"X  c #090909",
"o  c gray4",
"O  c gray6",
"+  c #101010",
"@  c #111111",
"#  c gray7",
"$  c #131313",
"%  c #181818",
"&  c #1B1B1B",
"*  c gray11",
"=  c #202020",
"-  c gray13",
";  c #232323",
":  c gray16",
">  c #2B2B2A",
",  c gray17",
"<  c #2C2C2C",
"1  c #2D2D2C",
"2  c #2D2D2D",
"3  c #2F2F2F",
"4  c gray19",
"5  c #323232",
"6  c #343433",
"7  c #353535",
"8  c gray21",
"9  c #373737",
"0  c gray22",
"q  c #3A3A3A",
"w  c gray23",
"e  c #414141",
"r  c #434343",
"t  c #444444",
"y  c gray27",
"u  c #464645",
"i  c #464646",
"p  c gray28",
"a  c #484847",
"s  c #484848",
"d  c #494949",
"f  c gray29",
"g  c #4B4B4A",
"h  c #4B4B4B",
"j  c #4C4C4B",
"k  c #4C4C4C",
"l  c gray30",
"z  c #4E4E4D",
"x  c #4E4E4E",
"c  c gray31",
"v  c #505050",
"b  c #515151",
"n  c gray32",
"m  c #535352",
"M  c #535353",
"N  c gray33",
"B  c #555554",
"V  c #555555",
"C  c #565656",
"Z  c gray34",
"A  c #585857",
"S  c #585858",
"D  c gray35",
"F  c #5A5A5A",
"G  c #5B5B5B",
"H  c gray36",
"J  c #5D5D5C",
"K  c #5D5D5D",
"L  c gray37",
"P  c #5F5F5F",
"I  c #60605F",
"U  c #606060",
"Y  c #616160",
"T  c gray38",
"R  c #626262",
"E  c #636362",
"W  c gray39",
"Q  c #646463",
"!  c #646464",
"~  c #656565",
"^  c #666665",
"/  c gray40",
"(  c #676767",
")  c #686867",
"_  c #686868",
"`  c DimGray",
"'  c #6A6A6A",
"]  c #6B6B6A",
"[  c gray42",
"{  c #6C6C6C",
"}  c #6D6D6D",
"|  c gray43",
" . c #6F6F6E",
".. c #6F6F6F",
"X. c gray44",
"o. c #717170",
"O. c #717171",
"+. c #727272",
"@. c gray45",
"#. c #747473",
"$. c #747474",
"%. c gray46",
"&. c #767675",
"*. c #767676",
"=. c #777777",
"-. c gray47",
";. c #797978",
":. c #797979",
">. c gray48",
",. c #7B7B7B",
"<. c #7C7C7B",
"1. c #7C7C7C",
"2. c gray49",
"3. c #7E7E7E",
"4. c #7F7F7E",
"5. c #7F7F7F",
"6. c #808080",
"7. c #818181",
"8. c gray51",
"9. c #838383",
"0. c #848484",
"q. c gray52",
"w. c #868686",
"e. c gray53",
"r. c #888888",
"t. c #898989",
"y. c gray54",
"u. c #8B8B8A",
"i. c #8B8B8B",
"p. c gray55",
"a. c #8D8D8D",
"s. c #8E8E8E",
"d. c gray56",
"f. c #909090",
"g. c gray57",
"h. c #929292",
"j. c #939393",
"k. c gray58",
"l. c #959595",
"z. c gray59",
"x. c #979797",
"c. c #989898",
"v. c gray60",
"b. c #9A9A9A",
"n. c #9B9B9B",
"m. c gray61",
"M. c #9D9D9D",
"N. c gray62",
"B. c #9F9F9F",
"V. c #A0A0A0",
"C. c gray63",
"Z. c #A2A2A2",
"A. c gray64",
"S. c #A4A4A4",
"D. c #A5A5A5",
"F. c gray65",
"G. c #A7A7A7",
"H. c gray66",
"J. c #A9A9A9",
"K. c #AAAAAA",
"L. c gray67",
"P. c #ACACAC",
"I. c gray68",
"U. c #AEAEAE",
"Y. c #AFAFAF",
"T. c gray69",
"R. c #B1B1B1",
"E. c #B2B2B2",
"W. c gray70",
"Q. c #B4B4B4",
"!. c gray71",
"~. c #B6B6B6",
"^. c #B7B7B7",
"/. c gray72",
"(. c #B9B9B9",
"). c gray73",
"_. c #BBBBBB",
"`. c #BCBCBC",
"'. c gray74",
"]. c gray",
"[. c gray75",
"{. c #C0C0C0",
"}. c gray76",
"|. c #C5C5C5",
" X c #C6C6C6",
".X c gray78",
"XX c gray79",
"oX c #CACACA",
"OX c #CBCBCB",
"+X c #CECECE",
"@X c gray82",
"#X c #D2D2D2",
"$X c LightGray",
"%X c gray83",
"&X c #D5D5D5",
"*X c gray84",
"=X c gray85",
"-X c #DADADA",
";X c #DDDDDD",
":X c #DFDFDF",
">X c None",
/* pixels */
"Q.-X=X@X@X#X#X#X$X%X%X%X%X%X&X&X&X&X*X*X*X*X*X*X*X*X*X*X*X-X;XY.",
";XV.Z.S.F.G.J.L.I.Y.T.E.W.!.~.^.(.)._.'.'.].[.[.[.[.[.[.[.[.].:X",
"+Xn.M.N.C.A.S.G.H.K.P.U.Y.R.E.Q.!.^./.).).`.'.].[.[.[.[.[.[.[.$X",
"oXz.c.n.V.J.I.U.T.I.J.J.L.P.Y.T.E.W.!.~.^.(.)._.'.'.].[.[.[.[.#X",
".Xf.j.x.2.        3 I.D.G.H.K.P.I.Y.R.E.Q.!.^./.).).`.'.'.[.[.#X",
" Xi.a.j.4.    2     X.A.C.A.D.G.J.L.P.U.T.E.W.!.~.^.(.)._.`.'.@X",
"{.w.r.s.<.    R.2   F V.m.N.V.Z.S.F.H.J.P.I.Y.R.E.Q.!.^./.(.).+X",
"/.7.9.t.;.    ,     ' b.x.v.n.M.B.C.A.D.G.J.K.P.U.Y.R.W.!.~.^.OX",
"P.1.5.q.&.        h c.g.h.k.z.c.b.m.N.V.Z.S.F.G.J.L.I.Y.T.E.W.XX",
"G.` >.7.+.    Z.k.f.i.i.a.d.f.j.l.x.v.n.M.N.C.A.S.G.H.K.P.U.Y.|.",
"A.k %.,.{     a.6.8.0.q.r.y.i.a.f.h.j.z.c.b.n.N.V.C.S.D.G.J.L.}.",
"B.r Z %.=.] ' 7.,.2.5.7.8.q.w.r.i.d.k.b.N.B.C.Z.V.M.N.C.Z.S.G.].",
"n.r r G @.*.-.*.=.:.>.1.3.5.8.9.q.a.W , , < < < / b.v.n.N.B.C.(.",
"z.r r r Z } X.O.@.$.=.=.>.,.2.5.6.y.M         P v.j.k.z.v.b.m.Q.",
"g.r r r r l ( | O.:.&.:.%.=.-.>.1.w.n       V b.a.a.d.g.j.l.x.U.",
"a.r r r r r r b ..A * -.+.@.$.*.=.8.v       o r.y.r.y.p.a.f.h.K.",
"t.r r r r r r a H . X X.X...O.+.$.5.z   Q !   : d.0.q.e.t.i.a.D.",
"0.t t t t t t n 7   d B N L _ O.$.2.p F q.u.5   @.0.7.8.q.w.r.B.",
"6.y y y i i p L . O R f s s l H m E / ' ~ ` {   4 2._ _ _ ' W y.",
"1.i p p s d k J   3 J k l c Y %     c C k l ! + + P d s p p i 1.",
"-.s d f h k M V   e L n n C V       - U n b W =   ^ k h f d s -.",
"%.h k l x v C S   r W C Z F E       q E C C _ -   ` v x l k h %.",
"+.l x v n M S ~   > [ G H K ( C ; w ` U G G O.. @ ` M n v x l +.",
"..c b M N C D  .@ X +.W U U R _ } [ ! U P ~ T   6 / C N M b c ..",
"} n M V Z F G _ u   p +.~ W W W W W W W ^ =.;   I R F Z V M n } ",
"' N C S F H L ! o.#   S $._ / / / / / ' ;.8   1 X.P H F S C N ' ",
"( C S G K P T W { ] X   n 3.@.X. .X.%.>.9   & #.( T P K G S C ( ",
"~ S G K U R W ~ ( O.| X   $ g ` ) T e X   * -.{ ~ W R U K G S ~ ",
"T G L U R ! / ( ` [ +.,.0             X f 3...` ( / ! R U L G R ",
"P L U R ! / _ ` ' [ { O.>.1.T g j f ` 7.=...[ ' ` _ / ! R U L L ",
"D U R ! / _ ' [ { } } | | X.$.=.-.=.@...| } } { [ ' _ / ! R U C ",
">XD / _ ' { } | ....X.X.X.O.O.O.O.O.O.X.X.X.....| } { ' _ / S >X"
};
