/* XPM */
static char *ParentX_point[] = {
/* columns rows colors chars-per-pixel */
"32 32 163 2",
"   c black",
".  c #181818",
"X  c gray13",
"o  c #232323",
"O  c gray17",
"+  c #2D2D2D",
"@  c #2F2F2F",
"#  c #3A3A3A",
"$  c gray23",
"%  c #434343",
"&  c #444444",
"*  c gray27",
"=  c #464646",
"-  c gray28",
";  c #484848",
":  c #494949",
">  c gray29",
",  c #4B4B4B",
"<  c #4C4C4C",
"1  c gray30",
"2  c #4E4E4E",
"3  c gray31",
"4  c #505050",
"5  c #515151",
"6  c gray32",
"7  c #535352",
"8  c #535353",
"9  c gray33",
"0  c #555555",
"q  c #565656",
"w  c gray34",
"e  c #585858",
"r  c gray35",
"t  c #5A5A5A",
"y  c #5B5B5B",
"u  c gray36",
"i  c #5D5D5D",
"p  c gray37",
"a  c #5F5F5E",
"s  c #5F5F5F",
"d  c #606060",
"f  c #616160",
"g  c gray38",
"h  c #626262",
"j  c #636362",
"k  c gray39",
"l  c #646464",
"z  c #656565",
"x  c gray40",
"c  c #676767",
"v  c #686868",
"b  c DimGray",
"n  c #6A6A6A",
"m  c #6B6B6A",
"M  c gray42",
"N  c #6C6C6C",
"B  c #6D6D6D",
"V  c gray43",
"C  c #6F6F6F",
"Z  c gray44",
"A  c #717171",
"S  c #727272",
"D  c gray45",
"F  c #747474",
"G  c gray46",
"H  c #767675",
"J  c #767676",
"K  c #777777",
"L  c gray47",
"P  c #797978",
"I  c #797979",
"U  c gray48",
"Y  c #7B7B7B",
"T  c #7C7C7B",
"R  c #7C7C7C",
"E  c gray49",
"W  c #7E7E7E",
"Q  c #7F7F7E",
"!  c #7F7F7F",
"~  c #808080",
"^  c #818181",
"/  c gray51",
"(  c #838383",
")  c #848484",
"_  c gray52",
"`  c #868686",
"'  c gray53",
"]  c #888888",
"[  c #898989",
"{  c gray54",
"}  c #8B8B8B",
"|  c gray55",
" . c #8D8D8D",
".. c #8E8E8E",
"X. c gray56",
"o. c #909090",
"O. c gray57",
"+. c #929292",
"@. c #939393",
"#. c gray58",
"$. c #959595",
"%. c gray59",
"&. c #979797",
"*. c #989898",
"=. c gray60",
"-. c #9A9A9A",
";. c #9B9B9B",
":. c gray61",
">. c #9D9D9D",
",. c gray62",
"<. c #9F9F9F",
"1. c #A0A0A0",
"2. c gray63",
"3. c #A2A2A2",
"4. c gray64",
"5. c #A4A4A4",
"6. c #A5A5A5",
"7. c gray65",
"8. c #A7A7A7",
"9. c gray66",
"0. c #A9A9A9",
"q. c #AAAAAA",
"w. c gray67",
"e. c #ACACAC",
"r. c gray68",
"t. c #AEAEAE",
"y. c #AFAFAF",
"u. c gray69",
"i. c #B1B1B1",
"p. c #B2B2B2",
"a. c gray70",
"s. c #B4B4B4",
"d. c gray71",
"f. c #B6B6B6",
"g. c #B7B7B7",
"h. c gray72",
"j. c #B9B9B9",
"k. c gray73",
"l. c #BBBBBB",
"z. c #BCBCBC",
"x. c gray74",
"c. c gray",
"v. c gray75",
"b. c #C0C0C0",
"n. c gray76",
"m. c #C5C5C5",
"M. c #C6C6C6",
"N. c gray78",
"B. c gray79",
"V. c #CACACA",
"C. c #CBCBCB",
"Z. c #CECECE",
"A. c gray82",
"S. c #D2D2D2",
"D. c LightGray",
"F. c gray83",
"G. c #D5D5D5",
"H. c gray84",
"J. c gray85",
"K. c #DADADA",
"L. c #DDDDDD",
"P. c #DFDFDF",
"I. c None",
/* pixels */
"s.K.J.A.A.S.S.S.D.F.F.F.F.F.G.G.G.G.H.H.H.H.H.H.H.H.H.H.H.K.L.y.",
"L.1.3.5.7.8.0.w.r.y.u.p.a.d.f.g.j.k.l.x.x.c.v.v.v.v.v.v.v.v.c.P.",
"Z.;.>.,.2.4.5.8.9.q.e.t.y.i.p.s.d.g.h.k.k.z.x.c.v.v.v.v.v.v.v.D.",
"V.%.*.;.1.0.r.t.u.r.0.0.w.e.y.u.p.a.d.f.g.j.k.l.x.x.c.v.v.v.v.S.",
"N.o.@.&.E         @ r.6.8.9.q.e.r.y.i.p.s.d.g.h.k.k.z.x.x.v.v.S.",
"M.}  .@.Q     +     Z 4.2.4.6.8.0.w.e.t.u.p.a.d.f.g.j.k.l.z.x.A.",
"b.` ] ..T     i.+   t 1.:.,.1.3.5.7.9.0.e.r.y.i.p.s.d.g.h.j.k.Z.",
"h.^ ( [ P     O     n -.&.=.;.>.<.2.4.6.8.0.q.e.t.y.i.a.d.f.g.C.",
"e.R ! _ H         , *.O.+.#.%.*.-.:.,.1.3.5.7.8.0.w.r.y.u.p.a.B.",
"8.b U ^ S     3.#.o.} }  .X.o.@.$.&.=.;.>.,.2.4.5.8.9.q.e.t.y.m.",
"4.< G Y N      .~ / ) _ ] { }  .o.+.@.%.*.-.;.,.1.2.5.6.8.0.w.n.",
"<.% w G K m n ^ Y E ! ^ / _ ` ] }  ...o.@.#.%.=.;.:.,.2.3.5.8.c.",
";.% % y D J L J K I U R W ! / ( _ ] [ }  .X.O.@.%.&.=.;.,.<.2.j.",
"%.% % % w B Z A D F J K U Y E ! ~ / _ ` ] { | ..o.+.#.%.=.-.:.s.",
"O.% % % % 1 c V C A S F G K L U R E ! ^ ( _ ' [ }  .X.O.@.$.&.t.",
" .% % % % % % 5 z B V Z A D F J K I Y E ! ~ / ) ` ] { |  .o.+.q.",
"[ % % % % % % % % 4 h B V C A S F G K L U R E ! ^ ( _ ' [ }  .6.",
") & & & & & & & & & * ; 8 p v A F G G J K I U Y E ! ^ / _ ` ] <.",
"~ * * * = = = = - - - ; ; ; 1 u 7 a l h k k l Z A A v v v n k { ",
"R = - - ; : : > , , < < 1 3 f .     2 q < < , , > : : ; - - = R ",
"L ; : > , < 1 2 3 4 5 6 6 q 0       X d 6 5 4 3 2 1 < , > : ; L ",
"G , < 1 2 4 5 6 8 0 q q w t j       # j q q 0 8 6 5 4 2 1 < , G ",
"S 1 2 4 6 8 0 q w r t y u i c q o $ b d y t r w q 0 8 6 4 2 1 S ",
"C 3 5 8 9 q e t y i p s d d h v B M l d s p i y t e q 9 8 5 3 C ",
"B 6 8 0 w t y i s d g h k k k k k k k k h g d s i y t w 0 8 6 B ",
"n 9 q e t u p d g k l z x x x x x x x x z l k g d p u t e q 9 n ",
"c q e y i s g k l z x c v v v b b v v v c x z l k g s i y e q c ",
"z e y i d h k z x v b b n n n n n n n n b b v x z k h d i y e z ",
"g y p d h l x c b n M M N N N N N N N N M M n b c x l h d p y h ",
"s p d h l x v b n M N B B B B B B B B B B N M n b v x l h d p p ",
"r d h l x v n M N B B V V V V V V V V V V B B N M n v x l h d q ",
"I.r x v n N B V C C Z Z Z A A A A A A Z Z Z C C V B N n v x e I."
};
