/* XPM */
static char * pax_xpm[] = {
"32 32 505 2",
"  	c None",
". 	c #6B6B6B",
"+ 	c #AEAEAE",
"@ 	c #BCBCBC",
"# 	c #B6B6B6",
"$ 	c #B7B7B7",
"% 	c #B8B8B8",
"& 	c #B9B9B9",
"* 	c #BBBBBB",
"= 	c #BDBDBD",
"- 	c #BFBFBF",
"; 	c #696969",
"> 	c #B5B5B5",
", 	c #898989",
"' 	c #8E8E8E",
") 	c #919191",
"! 	c #939393",
"~ 	c #959595",
"{ 	c #989898",
"] 	c #9A9A9A",
"^ 	c #9C9C9C",
"/ 	c #9D9D9D",
"( 	c #9F9F9F",
"_ 	c #A2A2A2",
": 	c #A6A6A6",
"< 	c #A7A7A7",
"[ 	c #A8A8A8",
"} 	c #AAAAAA",
"| 	c #ABABAB",
"1 	c #ADADAD",
"2 	c #AFAFAF",
"3 	c #B1B1B1",
"4 	c #B2B2B2",
"5 	c #B1B1B2",
"6 	c #B0B0B0",
"7 	c #B3B3B3",
"8 	c #848484",
"9 	c #939494",
"0 	c #B0B2B3",
"a 	c #B6B7B8",
"b 	c #B7B9BA",
"c 	c #B8B9BB",
"d 	c #B9BABB",
"e 	c #A1A2A2",
"f 	c #A1A1A1",
"g 	c #B9BBBD",
"h 	c #BFC1C2",
"i 	c #C0C2C3",
"j 	c #BDBFC0",
"k 	c #A9AAAA",
"l 	c #A9A9A9",
"m 	c #BDBFC1",
"n 	c #C4C5C7",
"o 	c #C2C4C5",
"p 	c #B4B4B4",
"q 	c #BCBEBF",
"r 	c #C5C7C8",
"s 	c #C2C4C6",
"t 	c #B6B8B9",
"u 	c #7E7E7E",
"v 	c #9A9B9B",
"w 	c #E7E9EA",
"x 	c #F4F5F6",
"y 	c #F3F4F4",
"z 	c #F1F2F3",
"A 	c #F2F3F4",
"B 	c #E6E8E9",
"C 	c #A8AAAA",
"D 	c #979797",
"E 	c #A8A8AA",
"F 	c #F5F6F6",
"G 	c #EBEDEE",
"H 	c #B9BBBC",
"I 	c #A3A3A3",
"J 	c #A5A5A5",
"K 	c #EBECED",
"L 	c #EDEFEF",
"M 	c #C7C8C9",
"N 	c #B8B9B9",
"O 	c #E6E7E9",
"P 	c #F0F1F2",
"Q 	c #DCDEE0",
"R 	c #B3B4B4",
"S 	c #787878",
"T 	c #969898",
"U 	c #FDFDFD",
"V 	c #EDEDEE",
"W 	c #D0D2D3",
"X 	c #E0E1E2",
"Y 	c #F9F9F9",
"Z 	c #FAFAFB",
"` 	c #D8D9DA",
" .	c #BEC0C0",
"..	c #F5F6F7",
"+.	c #FCFDFD",
"@.	c #FBFBFC",
"#.	c #D6D7D9",
"$.	c #A0A0A0",
"%.	c #E3E3E5",
"&.	c #D7D8D9",
"*.	c #F7F7F8",
"=.	c #C1C2C4",
"-.	c #A4A4A4",
";.	c #727272",
">.	c #929293",
",.	c #CED0D1",
"'.	c #818181",
").	c #8D8E8E",
"!.	c #F2F3F3",
"~.	c #FEFEFE",
"{.	c #E9EBEC",
"].	c #909090",
"^.	c #DBDCDE",
"/.	c #F9FAFA",
"(.	c #EEEFF0",
"_.	c #D6D7D8",
":.	c #F7F8F8",
"<.	c #ECEDEE",
"[.	c #B5B5B6",
"}.	c #EFF0F1",
"|.	c #E5E6E7",
"1.	c #F6F7F7",
"2.	c #D3D5D6",
"3.	c #8D8F8F",
"4.	c #FCFCFC",
"5.	c #D7D9DA",
"6.	c #989899",
"7.	c #ADAEAF",
"8.	c #E3E4E6",
"9.	c #9B9C9C",
"0.	c #F8F9F9",
"a.	c #CBCDCD",
"b.	c #B1B2B3",
"c.	c #F4F4F5",
"d.	c #B3B4B6",
"e.	c #CFD1D1",
"f.	c #B0B0B1",
"g.	c #656565",
"h.	c #89898B",
"i.	c #B5B7B8",
"j.	c #AFB0B1",
"k.	c #949494",
"l.	c #D4D6D6",
"m.	c #929292",
"n.	c #C0C1C2",
"o.	c #FFFFFF",
"p.	c #E3E5E5",
"q.	c #7A7A7A",
"r.	c #5E5E5E",
"s.	c #858687",
"t.	c #DDDFE1",
"u.	c #ABADAF",
"v.	c #7A7A7B",
"w.	c #D2D4D6",
"x.	c #DBDCDD",
"y.	c #D3D4D5",
"z.	c #F0F1F1",
"A.	c #98999A",
"B.	c #8C8C8C",
"C.	c #909191",
"D.	c #9FA0A1",
"E.	c #E4E5E7",
"F.	c #BDBEBF",
"G.	c #717171",
"H.	c #484848",
"I.	c #818283",
"J.	c #C8CACB",
"K.	c #676767",
"L.	c #686868",
"M.	c #6D6D6D",
"N.	c #838484",
"O.	c #878787",
"P.	c #8E8F8F",
"Q.	c #CBCECF",
"R.	c #BFC0C1",
"S.	c #E8EAEA",
"T.	c #A7A8A8",
"U.	c #6C6C6C",
"V.	c #242424",
"W.	c #7D7E7F",
"X.	c #C2C3C5",
"Y.	c #5F5F5F",
"Z.	c #626262",
"`.	c #9FA1A1",
" +	c #FBFBFB",
".+	c #E0E0E1",
"++	c #C9CACB",
"@+	c #C7C9CA",
"#+	c #CECFD0",
"$+	c #D8DADC",
"%+	c #868686",
"&+	c #CBCDCE",
"*+	c #B2B4B4",
"=+	c #D4D6D7",
"-+	c #999999",
";+	c #191919",
">+	c #606263",
",+	c #E3E5E6",
"'+	c #B8BBBC",
")+	c #595959",
"!+	c #5A5A5A",
"~+	c #5C5C5C",
"{+	c #646464",
"]+	c #959697",
"^+	c #707070",
"/+	c #767677",
"(+	c #DBDDDE",
"_+	c #E1E3E5",
":+	c #979898",
"<+	c #D6D8DA",
"[+	c #E4E6E7",
"}+	c #929394",
"|+	c #858585",
"1+	c #8B8B8B",
"2+	c #C9CACC",
"3+	c #AFB1B3",
"4+	c #171717",
"5+	c #262626",
"6+	c #5E5F60",
"7+	c #727374",
"8+	c #686869",
"9+	c #525252",
"0+	c #545454",
"a+	c #565656",
"b+	c #797B7C",
"c+	c #7D7F80",
"d+	c #818484",
"e+	c #747576",
"f+	c #6F7070",
"g+	c #707071",
"h+	c #808182",
"i+	c #898A8B",
"j+	c #8B8C8D",
"k+	c #8C8D8E",
"l+	c #8D8F90",
"m+	c #909192",
"n+	c #898A8C",
"o+	c #7C7C7C",
"p+	c #828282",
"q+	c #8A8B8B",
"r+	c #9B9C9D",
"s+	c #9A9B9C",
"t+	c #8F8F8F",
"u+	c #161616",
"v+	c #2E2E2E",
"w+	c #4B4B4B",
"x+	c #4E4E4E",
"y+	c #505050",
"z+	c #515151",
"A+	c #555555",
"B+	c #5A5B5B",
"C+	c #626263",
"D+	c #6E6F70",
"E+	c #77797A",
"F+	c #7C7E7F",
"G+	c #7A7C7D",
"H+	c #6D6E6E",
"I+	c #737475",
"J+	c #797A7A",
"K+	c #79797A",
"L+	c #767676",
"M+	c #747474",
"N+	c #7B7B7B",
"O+	c #7D7D7D",
"P+	c #808080",
"Q+	c #222222",
"R+	c #424242",
"S+	c #4F4F4F",
"T+	c #565757",
"U+	c #616263",
"V+	c #6C6E6F",
"W+	c #767879",
"X+	c #989A9C",
"Y+	c #C3C5C7",
"Z+	c #A8ABAD",
"`+	c #7F8183",
" @	c #717273",
".@	c #717272",
"+@	c #828586",
"@@	c #818485",
"#@	c #787979",
"$@	c #777777",
"%@	c #282828",
"&@	c #474747",
"*@	c #5B5C5D",
"=@	c #6A6C6D",
"-@	c #848788",
";@	c #9EA1A2",
">@	c #E9EAEC",
",@	c #C6C9CB",
"'@	c #A3A6A8",
")@	c #78797A",
"!@	c #87898A",
"~@	c #B2B6B7",
"{@	c #A6ABAC",
"]@	c #777879",
"^@	c #6F7071",
"/@	c #6D6D6E",
"(@	c #6E6E6E",
"_@	c #757575",
":@	c #4D4D4D",
"<@	c #181818",
"[@	c #1C1D1D",
"}@	c #232324",
"|@	c #414344",
"1@	c #787A7B",
"2@	c #BEC0C2",
"3@	c #97999B",
"4@	c #6A6B6C",
"5@	c #656667",
"6@	c #7A7B7D",
"7@	c #C1C4C6",
"8@	c #CACCCE",
"9@	c #757777",
"0@	c #797B7B",
"a@	c #6A6A6A",
"b@	c #6F6F6F",
"c@	c #494949",
"d@	c #1C1C1C",
"e@	c #252626",
"f@	c #2D2F2F",
"g@	c #333536",
"h@	c #838687",
"i@	c #E4E5E6",
"j@	c #6C6E70",
"k@	c #636465",
"l@	c #5E5F5F",
"m@	c #696A6B",
"n@	c #797B7D",
"o@	c #E5E7E8",
"p@	c #7B7D7E",
"q@	c #95989A",
"r@	c #636363",
"s@	c #444444",
"t@	c #1B1B1B",
"u@	c #232424",
"v@	c #323334",
"w@	c #535657",
"x@	c #E1E2E3",
"y@	c #E3E4E5",
"z@	c #B9BABC",
"A@	c #E2E3E4",
"B@	c #B8BABC",
"C@	c #3F4143",
"D@	c #3C3E3F",
"E@	c #474A4A",
"F@	c #8A8C8E",
"G@	c #B3B6B7",
"H@	c #ACAFB1",
"I@	c #A6AAAC",
"J@	c #606162",
"K@	c #434343",
"L@	c #464646",
"M@	c #3D3D3D",
"N@	c #1A1A1A",
"O@	c #1E1F1F",
"P@	c #292A2B",
"Q@	c #37393A",
"R@	c #A7AAAC",
"S@	c #E8E9EA",
"T@	c #818385",
"U@	c #787B7C",
"V@	c #EAEBEB",
"W@	c #BDC0C1",
"X@	c #4A4C4D",
"Y@	c #5E6062",
"Z@	c #DADCDD",
"`@	c #3B3E3F",
" #	c #262727",
".#	c #1F1F1F",
"+#	c #3F3F3F",
"@#	c #1D1D1D",
"##	c #1E1E1E",
"$#	c #202020",
"%#	c #282829",
"&#	c #343636",
"*#	c #494B4C",
"=#	c #BCBEC0",
"-#	c #D0D3D4",
";#	c #595B5C",
">#	c #3D3F40",
",#	c #7D7F81",
"'#	c #E8EAEB",
")#	c #CCCDCE",
"!#	c #E1E3E3",
"~#	c #D9DADC",
"{#	c #5B5E60",
"]#	c #3C3D3E",
"^#	c #363738",
"/#	c #2E2E2F",
"(#	c #252525",
"_#	c #212121",
":#	c #3B3B3B",
"<#	c #232323",
"[#	c #262627",
"}#	c #2F3030",
"|#	c #3A3C3C",
"1#	c #4B4E4E",
"2#	c #5A5D5E",
"3#	c #3A3B3C",
"4#	c #3B3B3C",
"5#	c #484A4B",
"6#	c #858889",
"7#	c #626466",
"8#	c #343435",
"9#	c #292929",
"0#	c #272727",
"a#	c #383838",
"b#	c #2C2C2C",
"c#	c #333333",
"d#	c #393A3B",
"e#	c #3E3F3F",
"f#	c #3D3E3F",
"g#	c #444546",
"h#	c #4F5152",
"i#	c #707274",
"j#	c #E9EAEA",
"k#	c #373738",
"l#	c #2F2F2F",
"m#	c #343434",
"n#	c #2B2B2B",
"o#	c #3B3C3C",
"p#	c #48494A",
"q#	c #515354",
"r#	c #57595A",
"s#	c #727577",
"t#	c #DFE1E2",
"u#	c #C8CACC",
"v#	c #5B5D5E",
"w#	c #474849",
"x#	c #3A3B3B",
"y#	c #323232",
"z#	c #2D2D2D",
"A#	c #313131",
"B#	c #4A4B4C",
"C#	c #96999B",
"D#	c #BEC1C2",
"E#	c #727475",
"F#	c #AEB1B2",
"G#	c #C9CBCC",
"H#	c #5E6061",
"I#	c #3C3D3D",
"J#	c #303030",
"K#	c #353535",
"L#	c #424243",
"M#	c #555758",
"N#	c #94979A",
"O#	c #C2C5C6",
"P#	c #CCCED0",
"Q#	c #525354",
"R#	c #B6B9BA",
"S#	c #C9CBCD",
"T#	c #444545",
"U#	c #66686A",
"V#	c #DEDFE1",
"W#	c #565859",
"X#	c #4B4C4C",
"Y#	c #515353",
"Z#	c #656769",
"`#	c #C6C8CA",
" $	c #5D5E5F",
".$	c #363636",
"+$	c #2A2A2A",
"@$	c #373737",
"#$	c #3A3A3A",
"$$	c #404141",
"%$	c #505252",
"&$	c #616365",
"*$	c #B1B3B5",
"=$	c #CACDCF",
"-$	c #555757",
";$	c #484849",
">$	c #484949",
",$	c #545656",
"'$	c #393939",
")$	c #414242",
"!$	c #A2A5A8",
"~$	c #C4C7C9",
"{$	c #6F7273",
"]$	c #4E4F4F",
"^$	c #494A4A",
"/$	c #555657",
"($	c #66676A",
"_$	c #B6B9BB",
":$	c #6E7072",
"<$	c #4C4D4E",
"[$	c #3C3C3C",
"}$	c #3E3E3E",
"|$	c #464747",
"1$	c #505152",
"2$	c #565858",
"3$	c #575959",
"4$	c #505151",
"5$	c #414141",
"6$	c #535454",
"7$	c #545556",
"8$	c #4B4C4D",
"9$	c #434444",
"0$	c #404040",
"a$	c #454545",
"b$	c #474848",
"c$	c #464647",
"d$	c #474748",
"e$	c #434344",
"f$	c #575757",
". + @ # $ $ % % % & * * * * @ @ @ = = = = = = = = = = = = - + ; ",
"> , ' ) ! ~ { ] ^ ^ / ( _ : < [ } } | 1 2 3 4 5 6 6 6 5 4 4 2 7 ",
"| 8 9 0 a b c d b e ] ] f g h i j k < l 2 m n o p 3 7 q r s t 6 ",
"} u v w x y z A A B C D E w F F G H I J [ o K L M 3 N O P Q R > ",
"< S T P U V W X Y Z ` ~  ...+.@.Y #.( $._ | %.Y G # &.*.z =.6 % ",
"-.;.>.P @.,.'.).!.~.{.].^./.(._.:.<.e ] / $.[.}.*.|.1.*.2.1 + p ",
"^ . 3.P 4.5.6.7.x 4.8.9.L 0.a.b.A c.d.~ { ] ( e.0.U U }.f.[ } 6 ",
"' g.h.P ~./.c.F /.P i.j.x *.b.k.P Z l.m.) k.] n.0.o.~.p.J J : 1 ",
"q.r.s.P ~.:.(.{.t.u.v.w.Z Z x.y.z.U L A.B.C.D.E././.@.y F.$.f < ",
"G.H.I.P @.J.K.L.; M.N.<.U @.:.1./.U ..t O.P.Q.1.!.R.S.Y G T.^ _ ",
"U.V.W.P Z X.r.Y.Z.; `.c. +.+++@+#+*.@.$+%+C P *.&+' *+z :.=+-+/ ",
"g.;+>+,+G '+)+!+~+{+s K w ]+M.^+/+(+(._+:+<+G [+}+|+1+2+K ,+3+~ ",
"Y.4+5+6+7+8+9+0+a+!+b+c+d+e+7+f+g+h+i+j+k+l+m+n+o+u p+q+v r+s+t+",
")+u+u+u+v+w+x+y+z+A+B+C+D+E+F+G+e+H+U.I+J+K+L+M+L+S N+O+P+p+|+O.",
"A+u+u+u+u+Q+R+w+S+T+U+V+W+X+Y+Z+`+ @.@F++@@@#@G.G.G.M+$@q.N+u u ",
"z+u+u+u+u+u+u+%@&@*@=@-@;@w >@,@'@)@W+!@~@{@]@^@/@U.(@^+;._@S $@",
":@u+u+u+u+u+<@[@}@|@1@2@P L 3@4@5@4@6@7@8@c+9@0@D+L.K.a@M.b@G.b@",
"c@4+4+4+4+<@d@e@f@g@h@i@1.h j@k@l@m@n@o@m E+p@q@f+{+r@{+K.; U.K.",
"s@<@<@<@;+t@u@v@w@b x@y@z@A@B@C@D@E@F@z A G@H@I@J@0+K@s@s@L@M@x+",
"R+N@N@N@t@O@P@Q@R@i@S@T@U@A@V@W@X@Y@5.V |.Z@R@`@ #.#d@t@N@N@N@R+",
"+#d@d@@###$#%#&#*#=#-#;#>#,#'#}.)#!#P ~#{#]#^#/#(#_#.###@#d@d@+#",
":###.#$#_#<#[#}#|#1#2#3#4#5#6#y +.4.i@7#]#8#/#9#0#V.<#_#$#.###:#",
"a#$#_#<#(#5+%@b#c#d#e#f#g#h#i#j#~.+.W ;#g#k#l#b#9#%@5+(#<#_#$#a#",
"m#Q+V.5+%@9#n#v+c#o#p#q#r#s#t#..x 1.x u#v#w#x#y#z#n#9#%@5+V.Q+m#",
"c#(#5+9#n#z#l#A#o#B#r#C#D#i@1.K E#F#!.F G#H#B#I#c#l#z#n#9#5+(#c#",
"J#0#9#n#z#J#y#K#L#M#N#O#P#x !.n+Q#;#R#x ..S#>+B#:#c#J#z#n#9#0#J#",
"z#9#b#v+J#y#m#a#T#M#C#U+U#,.V#W#X#Y#Z#S#..F `# $L#.$y#J#v+b#9#z#",
"+$b#v+A#c#K#@$#$$$B#%$W#&$*$=$-$;$>$,$U#8@P $+=@T#'$K#c#A#v+b#+$",
"+$v+A#c#K#a#'$:#M@)$X#v#!$~${$]$s@R+^$/$($_$:$<$$$#$a#K#c#A#v++$",
"b#A#c#.$a##$:#[$}$+#|$1$2$3$4$&@R+5$K@^$6$7$8$9$M@:##$a#.$c#A#b#",
"l#c#.$a##$:#M@}$+#0$K@a$b$>$a$R+5$5$5$K@c$d$e$0$}$M@:##$a#.$c#l#",
"f$v+9#n#n#z#v+v+l#J#J#J#A#A#J#J#J#J#J#J#J#A#J#l#v+v+z#n#n#9#l#f$"};
