/* XPM */
static char *placeCam[] = {
/* columns rows colors chars-per-pixel */
"32 32 154 2",
"   c #18140E",
".  c #1B1711",
"X  c #1E1B15",
"o  c #201C17",
"O  c #211E19",
"+  c #25221D",
"@  c #272420",
"#  c #292622",
"$  c #2D2A25",
"%  c #36342E",
"&  c #3C3935",
"*  c #3F3C38",
"=  c #006600",
"-  c #006C00",
";  c #007400",
":  c #007A00",
">  c #0A7B0A",
",  c #45423D",
"<  c #494641",
"1  c #4D4A46",
"2  c #514E49",
"3  c #55534E",
"4  c #5A5753",
"5  c #5B5954",
"6  c #62605B",
"7  c #696662",
"8  c #706D67",
"9  c #726F69",
"0  c #76736E",
"q  c #787670",
"w  c #7C7975",
"e  c #807D79",
"r  c #018301",
"t  c #018B01",
"y  c #0A870A",
"u  c #0C8A0C",
"i  c #019102",
"p  c #04940A",
"a  c #168D16",
"s  c #149215",
"d  c #1A921A",
"f  c #1C9522",
"g  c #179A20",
"h  c #1D9E32",
"j  c #249B2A",
"k  c #2C9930",
"l  c #18B037",
"z  c #25A237",
"x  c #32A53B",
"c  c #27AF41",
"v  c #2BA840",
"b  c #32A845",
"n  c #38AC4B",
"m  c #27B444",
"M  c #31B34A",
"N  c #39B14D",
"B  c #43AE54",
"V  c #48AC59",
"C  c #51AE5E",
"Z  c #46B257",
"A  c #49B256",
"S  c #45B658",
"D  c #4ABA5C",
"F  c #56AD62",
"G  c #54B462",
"H  c #53B966",
"J  c #5BB768",
"K  c #71A676",
"L  c #67B571",
"P  c #66B971",
"I  c #6BBC76",
"U  c #72B779",
"Y  c #61C472",
"T  c #65C976",
"R  c #6EC37C",
"E  c #72C47F",
"W  c #84827E",
"Q  c #7FBC86",
"!  c #75C380",
"~  c #7BC386",
"^  c #73C882",
"/  c #8F8D87",
"(  c #918F8B",
")  c #95938C",
"_  c #98948F",
"`  c #9D988F",
"'  c #9E9A91",
"]  c #A29D95",
"[  c #82BF89",
"{  c #8DB88D",
"}  c #9EA198",
"|  c #9FAE98",
" . c #A4A097",
".. c #A6A29A",
"X. c #A9A59D",
"o. c #AAA89F",
"O. c #A0B49B",
"+. c #A5A3A0",
"@. c #ABA7A0",
"#. c #ADAAA2",
"$. c #B1AEA6",
"%. c #B1AEAA",
"&. c #ACB4A4",
"*. c #A6B9A2",
"=. c #ACBFA9",
"-. c #B1B0A7",
";. c #B4B3AA",
":. c #B8B4AE",
">. c #B3BCAC",
",. c #B6B4B1",
"<. c #BAB7B1",
"1. c #B7BFB1",
"2. c #BDBAB3",
"3. c #BDBDB8",
"4. c #C0BCB7",
"5. c #C1BFB9",
"6. c #83C68C",
"7. c #8EC994",
"8. c #93C298",
"9. c #9BC69E",
"0. c #93CF9B",
"q. c #86D192",
"w. c #99D09F",
"e. c #9EC7A0",
"r. c #A4C6A5",
"t. c #A5CEA8",
"y. c #B0C5AD",
"u. c #B1C8AE",
"i. c #A6D5AC",
"p. c #B4C2B1",
"a. c #BFC0B7",
"s. c #B6CDB4",
"d. c #BEC5B9",
"f. c #BCCCB9",
"g. c #BAD3BA",
"h. c #C4C3BC",
"j. c #C3CABD",
"k. c #C7C7C0",
"l. c #C9C6C1",
"z. c #C6CAC0",
"x. c #CCCAC5",
"c. c #CFCDC8",
"v. c #D1CECA",
"b. c #D4D2CD",
"n. c #D6D4D1",
"m. c #D9D6D3",
"M. c #DBD9D6",
"N. c #DEDCD9",
"B. c #E1DFDC",
"V. c #E2E1DE",
"C. c #E6E4E3",
"Z. c #E8E7E5",
"A. c #EAE8E7",
"S. c #EAE9E8",
/* pixels */
"3.Z.S.Z.Z.Z.Z.Z.Z.Z.Z.Z.A.A.A.A.A.A.A.A.A.A.A.A.A.A.A.A.A.S.A.,.",
"S.x.c.c.v.v.b.b.b.b.n.n.n.m.m.M.M.M.M.M.N.N.N.N.N.N.N.N.N.N.N.S.",
"C.x.x.x.c.c.v.v.v.b.b.b.n.n.n.m.m.m.M.M.M.M.M.N.N.N.N.N.N.N.N.C.",
"C.l.l.x.c.v.b.b.b.b.b.n.n.b.b.n.n.n.m.m.M.M.M.M.M.N.N.N.N.N.N.Z.",
"V.h.h.l.( 3 3 3 6 ,.b.4 5 n.b.b.b.n.n.n.m.m.m.M.M.M.M.M.N.N.N.Z.",
"V.h.h.l.w + & < @ * m.$ $ b.v.b.n.n.n.b.n.n.n.m.m.M.M.M.M.M.N.C.",
"N.4.5.h.w O w n.+ + m.# # b.l.W 4 5 +.n.b.b.b.n.n.m.m.m.M.M.M.C.",
"M.2.2.h.q o % , + 2 b.+ + n.3 # 6 1 $ #.b.b.b.b.b.n.n.n.m.m.M.C.",
"b.<.2.5.0 X % 1 6 #.c.+ + n.+ @ m.5.5.b.v.c.v.v.b.b.b.b.n.n.n.V.",
"v.$.<.4.0 . 0 l.h.5.x.o O b.$ + ,.e 7 %.x.x.c.c.v.v.v.b.b.b.n.B.",
"c.] :.2.8   9 4.2.2.h.X X x./ O + + , h.x.x.x.x.x.c.c.v.v.b.b.N.",
"x.` ..:.@._ #.<.<.2.h.' } j.h.3.....x.k.k.z.z.x.x.x.x.c.c.v.v.N.",
"x.` ` X.;.:.:.:.:.<.3.s.R Y t.h.h.h.h.j.0.T q.z.z.l.l.x.x.x.c.M.",
"l.` ` ` ..;.;.;.:.2.7.p r r t E d.d.f.M i t t m g.k.k.l.l.x.x.m.",
"h.` ` ` ` ] $.-.:.u.t r r t r r w.d.Y r t i i t l i.h.h.h.l.l.n.",
"h.` ` ` ` ` ` ..;.! : r r r r r D f.p t t t t i i H h.h.h.h.h.b.",
"5.` ` ` ` ` ` ' ..F ; r r r r r M s.t t t t t t i A h.5.5.5.h.v.",
"2.` ` ' ' ' ' ' ..{ - - ; : r : ^ g.c r t t t t i ~ a.3.3.4.5.x.",
"2.' ' ' ' ' '  ...&.f = - - = a B y H r : : : r ! p.-.$.$.$.#.h.",
"<.' ' ' ' ]  .| O.&.>.I s a n b ; - > Z z a f P &...] ' ' ' ' <.",
":.' ] ] ] ] X.C r k [ J d j u - ; ; ; ; d j d u &...] ] ] ] ' :.",
":.] ] ] ]  .#.C : - ; ; ; ; ; ; ; ; ; ; ; ; - y &...] ] ] ] ] :.",
";.] ] ] ] ..#.G : ; ; ; ; ; ; ; ; ; ; ; ; ; ; y &.X. .] ] ] ] ;.",
"$.] ] ]  ...#.C : ; r r : : : : : : : : : : ; y &.o... .] ] ] $.",
"$.] ]  .....#.U b Q y.G ; : : : : : : : : : ; y &.o..... .] ] $.",
"$. . .....X.o.#.&.-.;.~ r y r : : : : : r y r h &.o....... . .$.",
"#. .....X.X.X.@.#.#.#.-.*.=.6.r y r y y 9.=.*.&.#.o.X.X..... .#.",
"#.....X.X.X.X.@.@.#.#.#.$.;.1.R n 8.x 6.1.;.$.#.#.o.X.X.X.....#.",
"X...X.X.X.o.@.@.#.#.#.#.#.;.e.; G >.S : r.;.#.#.@.@.o.X.X.X...X.",
"..X.X.X.o.@.#.#.#.#.#.#.$.>.s B >.;.>.v g ;.$.#.#.#.@.o.X.X.X...",
") X.X.o.@.#.#.#.#.#.#.#.-.L V ;.;.-.;.>.N K $.#.#.#.#.@.o.X.X.) ",
"7 ) @.@.#.#.#.#.#.#.#.#.$.-.-.-.$.#.$.-.-.-.$.#.#.#.#.#.@.@.) 7 "
};
