/* XPM */
static char *placeLoc[] = {
/* columns rows colors chars-per-pixel */
"32 32 86 1 ",
"  c #010101",
". c #0A0A0A",
"X c #121212",
"o c #181717",
"O c #1C1C1C",
"+ c #201F1F",
"@ c #262625",
"# c #2C2C2B",
"$ c #31302F",
"% c #333231",
"& c #3C3B3A",
"* c #006E00",
"= c #007400",
"- c #007C00",
"; c #454443",
": c #4C4B4A",
"> c #51514F",
", c #555453",
"< c #5A5957",
"1 c #5F5E5C",
"2 c #666563",
"3 c #686562",
"4 c #696866",
"5 c #706F6D",
"6 c #747371",
"7 c #7A7977",
"8 c #7F7E7D",
"9 c #807F7D",
"0 c #018601",
"q c #018901",
"w c #088B08",
"e c #159215",
"r c #579252",
"t c #589655",
"y c #5A9A57",
"u c #5B9D59",
"i c #70AE6D",
"p c #78B173",
"a c #8F8E8B",
"s c #95938C",
"d c #9D988F",
"f c #9E9A91",
"g c #9F9E9B",
"h c #A29D94",
"j c #A5A097",
"k c #A6A29A",
"l c #AAA59D",
"z c #A7A89D",
"x c #A9A99E",
"c c #ABA7A0",
"v c #ADAAA2",
"b c #AFADAA",
"n c #B0ADA5",
"m c #B2AFA8",
"M c #AEB1A5",
"N c #AFB5A8",
"B c #B1B0A7",
"V c #B4B3AB",
"C c #B9B4AE",
"Z c #B3BAAC",
"A c #B6B4B1",
"S c #BAB7B2",
"D c #B6BDB0",
"F c #BDBBB5",
"G c #BCBBB8",
"H c #C0BDB7",
"J c #C1BEB9",
"K c #BCC1B6",
"L c #BFC4B9",
"P c #C4C2BC",
"I c #C8C6BF",
"U c #C6C3C0",
"Y c #C9C6C1",
"T c #CCCAC5",
"R c #CFCDC8",
"E c #D1CFCA",
"W c #D4D2CE",
"Q c #D6D4D1",
"! c #D8D6D3",
"~ c #DBD9D6",
"^ c #DEDCD9",
"/ c #E1DFDC",
"( c #E2E1DE",
") c #E5E4E2",
"_ c #E8E7E5",
"` c #EAE9E8",
/* pixels */
"G_`))()))_)))______`_``_``_````A",
"`TREEEWWWWQQQQQQ~~~^^^^^^^^^^^^`",
")YTREEEEEWWQQWQQWQQQQQ~^^^^^^^^_",
")   +kW >WWWWQ% <WQE2X $!~    8_",
"( ;bo@W >WWWWG  XWW4 9V5!! :PUW_",
"( :E: W >WWWW7 : gQo$WQWW! ,~~~_",
"^ >R@OW >WWWW$.A ,W :WQQQW  ..9)",
"~   .aW >WWWG ;W+XEo$WWWQW ;AST)",
"W ;VYWW &ffA6     f2 9C5WW :GGT)",
"E :REWW    2#Xcvf >R1X $EE    7/",
"RhAYTREWWWWWEWWEEERWWWEEEEEEEWW^",
"TdkFJRWWWWEEEEEEEEEWWEEERRTERRE^",
"YddlSUREEEERRTYYTTRRRERERRTTTTR~",
"YdddkCJYTYTYYIPipUYYTRRYYYYYYYTQ",
"PddddhnHJUPPJPFqeUUUYYTYYUYIIUYQ",
"PddddddlSGJGHFKqwLLPUJIJIIPJJPPW",
"PddddddfhvVDCCD0qKGKJPHPHFHHJJJE",
"FddddfffdfhhknD00GDSFFFFFFSFHHHR",
"FddfdfffhhhhhkM==NvxnBmVVVvvnnvJ",
"SdffffhjkzzzzMN*=NMxzxxkhhhhdhdS",
"Cdhhhhhkrtttyyu==uyttttrlhhhhdhC",
"Chdhhhkx================xjhhhhdC",
"Bhhjjjkxrtyyyuu-=uuuyytrxkjhhhhC",
"BhhjjjklvMMMBND--DNMMMMvlkjjjhhn",
"njjjjjlllvcccnZ--Vnvcccllkjkjjjn",
"njkkklllllccvnS--Cnlcclclllkkjjn",
"vjkkllllccvccnZ--Snvvlccllllkkjv",
"vjkllllllcvvvnZ-0Znvvvcvlclllkkv",
"lllllcvcvvvvvnZ--VBvvvvvvllllkkl",
"jllllccvvvvnvBBuuBnnvvvvvvvllllk",
"sllllvvvvnvvnMnBBnnvnvvvvvcvclls",
"3svlvvvvvvmvvvnnnvnvvnnvvvvccls3"
};
