/* XPM */
static char *planeRedLight[] = {
/* columns rows colors chars-per-pixel */
"32 32 116 2",
"   c #E60D05",
".  c #E80F05",
"X  c #EA1306",
"o  c #EA1807",
"O  c #E5170F",
"+  c #EB1C09",
"@  c #EB230C",
"#  c #EB2A0E",
"$  c #EB2511",
"%  c #EB2C11",
"&  c #E7271E",
"*  c #EA291A",
"=  c #EC3414",
"-  c #EC3B16",
";  c #ED371D",
":  c #ED3D19",
">  c #EA2D20",
",  c #ED3D22",
"<  c #EE3E2B",
"1  c #E83C37",
"2  c #A36534",
"3  c #ED4017",
"4  c #ED441B",
"5  c #ED4B1D",
"6  c #ED501F",
"7  c #D34F2B",
"8  c #D5512A",
"9  c #EE4721",
"0  c #E54822",
"q  c #EE4B23",
"w  c #EE452A",
"e  c #ED5120",
"r  c #EF522B",
"t  c #EF4C34",
"y  c #EF4738",
"u  c #EF4C3C",
"i  c #EF5336",
"p  c #EF5835",
"a  c #EF523B",
"s  c #F0563E",
"d  c #F05A3D",
"f  c #ED4D42",
"g  c #EF5144",
"h  c #EE544A",
"j  c #EF594F",
"k  c #F05442",
"l  c #F05B44",
"z  c #F05748",
"x  c #F15C4B",
"c  c #EC5550",
"v  c #ED5A53",
"b  c #ED5E59",
"n  c #F05E51",
"m  c #F06045",
"M  c #F1634B",
"N  c #EE625C",
"B  c #F16453",
"V  c #F26A55",
"C  c #F06559",
"Z  c #F26C5B",
"A  c #F3715C",
"S  c #EE6661",
"D  c #EE6A65",
"F  c #EE6D6A",
"G  c #F16C62",
"H  c #F06F68",
"J  c #EE716D",
"K  c #F37363",
"L  c #F37867",
"P  c #F2746A",
"I  c #F37A6D",
"U  c #EE7573",
"Y  c #EF7A77",
"T  c #EF7D7B",
"R  c #F07671",
"E  c #F27C74",
"W  c #F17D79",
"Q  c #EF807E",
"!  c #F48176",
"~  c #F58B75",
"^  c #F3837C",
"/  c #F5897F",
"(  c #F5917E",
")  c #BEA3AB",
"_  c #EF8584",
"`  c #F18583",
"'  c #F38B85",
"]  c #F18D8A",
"[  c #F59686",
"{  c #F3928D",
"}  c #F69C8E",
"|  c #F29592",
" . c #F49995",
".. c #F39D9B",
"X. c #F7A296",
"o. c #F4A19E",
"O. c #F7A89D",
"+. c #C4A7B0",
"@. c #F4A4A3",
"#. c #F5A8A7",
"$. c #F8ABA3",
"%. c #F4ABAA",
"&. c #F7B1AA",
"*. c #F6B6B4",
"=. c #F8B5B0",
"-. c #F7B9B4",
";. c #F6BDBC",
":. c #F8BCB9",
">. c #F5C3C3",
",. c #F8C5C4",
"<. c #F8C8C7",
"1. c #F6CBCB",
"2. c #F8C9C8",
"3. c #F4D3D4",
"4. c #F2D7D8",
"5. c #F3D9DA",
/* pixels */
"+.3.1.,.,.,.,.,.,.,.,.,.<.<.<.<.<.2.2.2.2.2.2.2.2.2.2.2.2.3.4.) ",
"4._ _ _ ] ] ] | | |  . .......@.@.@.@.#.#.%.%.%.%.%.%.%.%.%.#.5.",
">.T T Q _ _ ' ] ] { | | |  .......o.@.@.@.#.#.%.%.%.%.%.%.%.%.<.",
";.U Y Y T T ` ` ` ' ] ] | | |  . .......@.@.@.#.#.#.%.%.%.%.%.<.",
"*.F U U U Y T T ^ ` ` ' ] ] { | |  . .......o.@.@.@.#.#.#.%.%.,.",
"*.D D F J U U U Y T Q ^ ` ` ' ] ] { | |  . .....o.o.@.@.#.#.#.>.",
"%.N S S D F F J U U E W W ^ ` ` ' ] ] { | | |  .......o.@.@.@.;.",
"@.v b N N S D D F J P R R E W ^ ^ ` ` ' ] { { | |  . .....o.o.:.",
"{ c v v b b N N S D D F J R R E W W ^ ^ ` ' ' ] { { | |  . ...-.",
"] 1 h j v v v b N N S S G H P P R E E W ^ ^ / ' ' ' { { { |  .=.",
"' O f g h h j v v v N N C G G H P P P I E E ! ^ / / ' ' ] { { &.",
"^   & f f g h h h j v n B C C Z G G K P P I I E ! ! ^ / ' ' ' $.",
"!     > u u f g g h h x x n B B C C Z G K K P I I I E ! ^ ^ / O.",
"I       * y u u u g k k z z x x n B B C Z Z G K L L I I E ! ! X.",
"L . . X X + < y y u u a k k k z x x x M B V V Z Z K K L L I I } ",
"K X X X X X X $ < t t u u a a k k l l x x M B B V V Z A K K L [ ",
"Z X X X X X X X X $ , t t t t a a s s l l l m M M B V V Z Z A ( ",
"B X X X X X X X X X o + $ ; w t i a a a s l l l m M M M V V V ~ ",
"M o o o o o o o o o o o o o o o @ $ = ; , , , t t i w w w w , A ",
"m o o o + + + + + + + + @ @ @ @ @ @ @ @ + + + + + + + + o o o m ",
"d + + + + @ @ @ @ @ @ @ @ @ @ @ @ @ @ @ @ @ @ @ @ @ @ + + + + d ",
"p @ @ @ @ @ @ # # % % % % % % % % % % % % % % # # @ @ @ @ @ + p ",
"r @ @ @ # # % % % % = = = = = = = = = = = = % % % % # # @ @ @ r ",
"r # # # % % = = = = = = = - - - - - - = = = = = = = % % # # @ r ",
"q # # % = = = = = - - - - - - - - - - - - - - = = = = = % # # q ",
"q # = = = = - - - - : : : : : : : : : : : : - - - - = = = % # q ",
"9 = = = - - - : : 3 4 4 4 4 4 4 4 4 4 4 4 4 3 : : - - = = = % 9 ",
"4 = = - - : 3 4 4 4 4 4 4 4 4 4 4 4 4 4 4 4 4 4 4 3 : - - = = 4 ",
"4 = - - 3 4 4 4 4 4 4 5 5 5 5 5 5 5 5 5 5 4 4 4 4 4 3 : - - = 4 ",
"0 - - 3 4 4 4 4 5 5 5 5 5 5 5 5 5 5 5 5 5 5 5 5 4 4 4 4 : - - 0 ",
"8 - 3 4 4 5 5 5 5 5 5 5 5 5 5 5 5 5 5 5 5 5 5 5 5 5 4 4 4 : - 7 ",
"2 8 4 4 5 5 5 5 5 6 6 6 e e e e e e e e 6 6 6 5 5 5 5 5 4 4 8 2 "
};
