/* XPM */
static char * plane_xpm[] = {
"32 32 183 2",
"  	c None",
". 	c #C6C6C4",
"+ 	c #E7E6E6",
"@ 	c #E8E7E5",
"# 	c #E4E3E0",
"$ 	c #E5E3E0",
"% 	c #E5E3E1",
"& 	c #E5E4E1",
"* 	c #E5E4E2",
"= 	c #E6E4E2",
"- 	c #E9E8E5",
"; 	c #E8E7E7",
"> 	c #C3C1BF",
", 	c #E9E8E6",
"' 	c #BFBCB6",
") 	c #C0BDB7",
"! 	c #C0BEB8",
"~ 	c #C1BEB9",
"{ 	c #C2BFBA",
"] 	c #C3C0BA",
"^ 	c #C3C0BB",
"/ 	c #C4C1BC",
"( 	c #C5C2BC",
"_ 	c #C5C3BD",
": 	c #C6C3BE",
"< 	c #C6C3BF",
"[ 	c #C8C5BF",
"} 	c #C8C5C0",
"| 	c #C8C6C1",
"1 	c #C9C6C1",
"2 	c #CAC7C2",
"3 	c #CAC8C2",
"4 	c #CAC8C3",
"5 	c #CBC8C4",
"6 	c #E9E9E8",
"7 	c #E2E0DD",
"8 	c #BEBAB4",
"9 	c #BEBBB5",
"0 	c #BFBBB5",
"a 	c #C0BCB7",
"b 	c #C0BEB7",
"c 	c #C1BEB8",
"d 	c #C2BFB9",
"e 	c #C3BFBA",
"f 	c #C4C0BB",
"g 	c #C5C2BD",
"h 	c #C7C4BF",
"i 	c #C8C5C1",
"j 	c #E3E2E0",
"k 	c #E0DEDD",
"l 	c #BCB8B2",
"m 	c #BCB9B3",
"n 	c #BDBAB4",
"o 	c #BEBAB5",
"p 	c #DFDEDB",
"q 	c #B9B6B0",
"r 	c #BBB7B0",
"s 	c #BBB7B1",
"t 	c #BCB9B2",
"u 	c #BDB9B3",
"v 	c #E4E2DF",
"w 	c #DFDDDA",
"x 	c #B8B4AE",
"y 	c #B9B5AE",
"z 	c #B9B6AF",
"A 	c #BAB7B0",
"B 	c #BFBBB6",
"C 	c #E3E1DE",
"D 	c #DCDAD7",
"E 	c #B6B2AB",
"F 	c #B7B3AC",
"G 	c #B7B4AD",
"H 	c #B9B5AF",
"I 	c #E1DFDE",
"J 	c #D8D6D3",
"K 	c #B4B0A9",
"L 	c #B4B1AA",
"M 	c #B7B3AD",
"N 	c #DFDDDB",
"O 	c #D4D2CE",
"P 	c #B2AFA7",
"Q 	c #B3AFA9",
"R 	c #B5B2AB",
"S 	c #DEDCDA",
"T 	c #D1CFCA",
"U 	c #ABA79F",
"V 	c #B1ADA6",
"W 	c #B2AEA7",
"X 	c #B2AFA8",
"Y 	c #B4AFA9",
"Z 	c #B7B4AE",
"` 	c #CFCDC8",
" .	c #A19C93",
"..	c #AFABA4",
"+.	c #B0ADA5",
"@.	c #B2ADA6",
"#.	c #B3AFA8",
"$.	c #DAD8D5",
"%.	c #CDCAC6",
"&.	c #9D988F",
"*.	c #A4A098",
"=.	c #AFAAA4",
"-.	c #B0ACA5",
";.	c #B2AEA6",
">.	c #D8D5D3",
",.	c #A6A199",
"'.	c #AEAAA2",
").	c #AFAAA3",
"!.	c #D5D3D0",
"~.	c #C9C5C0",
"{.	c #A4A097",
"].	c #ADA9A1",
"^.	c #ADAAA2",
"/.	c #AEAAA3",
"(.	c #B0ACA4",
"_.	c #D4D0CD",
":.	c #AAA59E",
"<.	c #ADA8A1",
"[.	c #D1CECB",
"}.	c #C4C1BB",
"|.	c #A29E95",
"1.	c #CFCCC7",
"2.	c #A29D95",
"3.	c #A8A49C",
"4.	c #CCC9C4",
"5.	c #BFBCB5",
"6.	c #9D9890",
"7.	c #9E9990",
"8.	c #9F9A91",
"9.	c #A39F96",
"0.	c #A7A29B",
"a.	c #ABA69F",
"b.	c #AFABA3",
"c.	c #B1ADA7",
"d.	c #B2ADA7",
"e.	c #C9C7C0",
"f.	c #9E9991",
"g.	c #A19D94",
"h.	c #A39E95",
"i.	c #A5A198",
"j.	c #A8A39B",
"k.	c #A9A59C",
"l.	c #A9A59D",
"m.	c #AAA59D",
"n.	c #AEA9A2",
"o.	c #AEA9A3",
"p.	c #ABA69E",
"q.	c #ABA7A0",
"r.	c #A9A49C",
"s.	c #BAB7B1",
"t.	c #9F9B92",
"u.	c #A09B92",
"v.	c #A09B93",
"w.	c #A09C93",
"x.	c #9F9A92",
"y.	c #B9B4AE",
"z.	c #A19C94",
"A.	c #A29D94",
"B.	c #B6B3AC",
"C.	c #A39E96",
"D.	c #A39F97",
"E.	c #A49F97",
"F.	c #A5A098",
"G.	c #A6A29A",
"H.	c #A7A29A",
"I.	c #A7A39B",
"J.	c #A6A299",
"K.	c #A8A49B",
"L.	c #ADA9A2",
"M.	c #AAA69E",
"N.	c #ACA8A1",
"O.	c #AAA69F",
"P.	c #A6A19B",
"Q.	c #A39E97",
"R.	c #ACA8A0",
"S.	c #928F87",
"T.	c #918D86",
"U.	c #928E87",
"V.	c #A9A49E",
"W.	c #A9A59F",
"X.	c #AAA6A0",
"Y.	c #ABA6A0",
"Z.	c #908C86",
". + @ # # $ % % % % % & * * * * = = = = = = = = = = = = = - ; > ",
", ' ) ! ~ { ] ^ / ( _ : < [ } } | 1 2 3 4 4 5 5 5 5 5 5 5 5 4 6 ",
"7 8 9 0 a b c d e ] f ( g _ : h [ } i 1 1 2 3 4 5 5 5 5 5 5 5 j ",
"k l m n o 9 ' ) ! c { ] ^ / ( _ : < h } } | 1 2 3 4 4 5 5 5 5 j ",
"p q r s t u 8 9 0 a ) c d e ] f / g _ : h [ } i 1 1 2 3 4 5 5 v ",
"w x y z A s l t u o 9 B ) b c { ] ^ / ( _ : < h } } | 1 2 2 4 C ",
"D E F G x H q A s t u n 9 0 ' ) c ~ e ] f / ( _ : h [ } i | 1 I ",
"J K L E E M x x z A s l t u 8 9 B ) b c d ] ] / ( g _ < h } } N ",
"O P Q K L R E F G x y q A s l m n 9 9 ' ) ! ~ { ] ^ / ( _ : < S ",
"T U V W X Y K L R E M Z x z q r l t u 8 9 0 a b c d e ] f ( g D ",
"`  ...+.V @.P #.K K R E F G x y q A s l m n o 9 ' ) ! c { ] ^ $.",
"%.&.*.=...-.V V ;.X Q K L R E F Z x H q r s t u 8 9 0 a ) c d >.",
"4 &.&.,.'.).....-.V @.W #.Y K L E F M x y z A s l t u o 9 B ) !.",
"~.&.&.&.{.].^./.=...(.+.V ;.P Q K L R E F G x H q A s t u n 9 _.",
": &.&.&.&. .:.<.].'.).....-.V @.W X Y K L E E M x x z A s l t [.",
"}.&.&.&.&.&.&.|.:.<.].^./.=...(.+.V ;.P Q K L R E F G x y q A 1.",
"~ &.&.&.&.&.&.&.&.2.3.<.<.].'.).....-.V V W X Y K L R E M Z x 4.",
"5.&.&.&.&.&.&.6.6.6.7.8.9.0.a.'./.b...-.+.V c.d.X #.K K R E F e.",
"m 7.7.7.7.7.7.7.f.8.8.8.8.8.8.8.g.h.i.j.k.l.m.n.o.'.p.p.a.q.r.) ",
"s.7.8.8.8.8.t.u.u.u.u.v.v.w.w.w.w.w.w.v.v.u.u.u.u.t.x.8.8.8.7.s.",
"y.8.x.u.u.v.w. .z.A.2.2.|.|.|.|.|.|.|.|.2.2.A.z. .w.v.u.u.x.8.y.",
"B.u.u.w.z.g.2.|.C.C.D.E.E.{.{.{.{.{.{.E.E.D.C.C.|.2.g.z.w.u.u.B.",
"K w.z.A.2.h.C.E.{.F.i.,.,.,.,.,.,.,.,.,.,.i.F.{.E.C.h.2.A.z.w.K ",
";.z.2.h.C.E.*.F.,.,.G.H.I.I.I.I.I.I.I.I.H.G.,.,.F.*.E.C.h.2.z.;.",
"-.2.C.9.{.F.,.J.H.I.j.K.3.3.3.r.r.3.3.3.K.j.I.H.J.,.F.{.9.C.2.-.",
"b.C.E.*.i.,.H.I.j.3.r.l.l.l.l.l.l.l.l.l.l.r.3.j.I.H.,.i.*.E.C.b.",
"L.E.F.,.J.H.j.3.r.l.l.:.M.M.M.M.M.M.M.M.:.l.l.r.3.j.H.J.,.F.E.L.",
"N.F.,.G.I.j.r.l.l.M.M.O.a.U U U U U U a.O.M.M.l.l.r.j.I.G.,.F.N.",
"P.,.G.I.K.r.l.:.M.a.U U U U U U U U U U U U a.M.:.l.r.K.I.G.,.P.",
"Q.G.I.3.r.l.M.M.U U U R.R.R.R.R.R.R.R.R.R.U U U M.M.l.r.3.I.G.2.",
"S.I.3.r.l.M.a.U U R.R.R.R.R.R.R.R.R.R.R.R.R.R.U U a.M.l.r.3.I.T.",
"  U.V.W.X.Y.q.q.R.R.R.R.N.N.N.N.N.N.N.N.R.R.R.R.q.q.Y.X.W.V.Z.  "};
