/* XPM */
static char * planeGreen_xpm[] = {
"32 32 67 1",
" 	c None",
".	c #95B98C",
"+	c #CBDEC7",
"@	c #CEE0C9",
"#	c #C5DAC0",
"$	c #C7DCC2",
"%	c #8CB382",
"&	c #85AE7B",
"*	c #87AF7D",
"=	c #89B17F",
"-	c #8AB281",
";	c #8EB484",
">	c #90B686",
",	c #91B788",
"'	c #93B88A",
")	c #97BB8E",
"!	c #99BC90",
"~	c #BFD6B9",
"{	c #82AC77",
"]	c #83AD79",
"^	c #C3D9BE",
"/	c #BBD3B5",
"(	c #7EA974",
"_	c #80AB76",
":	c #7DA872",
"<	c #79A66F",
"[	c #7BA770",
"}	c #C1D7BC",
"|	c #B3CEAC",
"1	c #76A36B",
"2	c #78A46D",
"3	c #AFCBA8",
"4	c #75A269",
"5	c #A7C6A0",
"6	c #73A168",
"7	c #B9D2B3",
"8	c #A4C49C",
"9	c #68995C",
"0	c #6E9D63",
"a	c #71A066",
"b	c #A0C198",
"c	c #598D4D",
"d	c #6D9C61",
"e	c #B1CDAA",
"f	c #9ABD92",
"g	c #558A48",
"h	c #5E9051",
"i	c #6B9B5F",
"j	c #709E64",
"k	c #ADCAA6",
"l	c #619354",
"m	c #6A9A5E",
"n	c #A9C8A2",
"o	c #67975B",
"p	c #A2C29A",
"q	c #5C8F50",
"r	c #9EC096",
"s	c #5B8E4E",
"t	c #649557",
"u	c #578B4A",
"v	c #5F9253",
"w	c #629456",
"x	c #659659",
"y	c #588C4B",
"z	c #4A813D",
"A	c #477D39",
"B	c #49803C",
".+@########$$$$$$$$$$$$$$$$$$@@%",
"@&**=---%%;>>,,,''))))!!!!!!!!)@",
"~{]]&*=----%%;>,,,,'')))!!!!!!!^",
"/(_{]]&**=---%%;>>,,,''))))!!!!^",
"/:::__{]]&*=----%%;>,,,,'')))!!^",
"/<[:::(__]]]**=---%%;>>,,,'')))}",
"|122<[:::__{]]&*==---%%;>,,,,''~",
"344112<<:::(__{]]**=---%%%;>,,,/",
"564441122<[:::(_{]]&**=---%%;>>7",
"890a64441122<:::(__{]]&*=----%%|",
"bcd00064441122<[:::(_{]]&**=---e",
"fghid000j64441122<[:::__{]]&*=-k",
")gglmidd000a4444122<[:::(__]]]*n",
",ggghmmmid000j64441122<[:::__{]8",
">ggggcommmidd000a6444112<<:::(_p",
"%ggggggqommmmid000j64441122<[::r",
"=ggggggggstmmmmidd000a64441122<!",
"&gggggggggguqlommdd000jj6444112.",
"_gggggggguuuuuuusqvwxxommmooo9t*",
":guuuuuyyyyyyccccccyyyyyyuuuuug:",
"<uuyyycccsssqqqqqqqqssscccyyyuu<",
"2yyccssqqqqqqhhhhhhqqqqqqssccyy2",
"4ccssqqqhvvllllllllllvvhqqqsscc4",
"jcsqqqhvllllwwwwwwwwllllvhqqqscj",
"0sqqhvlllwwttttttttttwwlllvhqqs0",
"dqqhvllwwttxxxxxxxxxxttwwllvhqqd",
"mqvlllwttxxooooooooooxxttwlllvqm",
"mvllwwtxxoooo999999ooooxxtwwllvm",
"lllwttxooo999999999999oooxttwlll",
"qlwttxoo999mmmmmmmmmm999ooxttwls",
"zwttxoo99mmmmmmmmmmmmmm99ooxttwA",
" Btxoo99mmmmmmmmmmmmmmmm99ooxtA "};
