/* XPM */
static char *planeRedDark[] = {
/* columns rows colors chars-per-pixel */
"32 32 105 2",
"   c #69432B",
".  c #930500",
"X  c #960901",
"o  c #9A0D03",
"O  c #960F0A",
"+  c #9D1206",
"@  c #9E1509",
"#  c #9D180E",
"$  c #9F1E13",
"%  c #9C1E18",
"&  c #A01609",
"*  c #A31B0C",
"=  c #A7200F",
"-  c #A8210F",
";  c #A62211",
":  c #A92512",
">  c #AD2B16",
",  c #A0241C",
"<  c #A62C1C",
"1  c #AE2F19",
"2  c #B02F17",
"3  c #A7351F",
"4  c #AD321C",
"5  c #B2341B",
"6  c #B4391E",
"7  c #903625",
"8  c #933926",
"9  c #A53520",
"0  c #AA3222",
"q  c #AD3927",
"w  c #A8352A",
"e  c #AD3A29",
"r  c #B43D21",
"t  c #A63632",
"y  c #AD3F34",
"u  c #B4432B",
"i  c #AF4134",
"p  c #AE443B",
"a  c #B24433",
"s  c #B74C37",
"d  c #B1463B",
"f  c #B44B3C",
"g  c #B94F3C",
"h  c #B6503F",
"j  c #AE4540",
"k  c #B24C43",
"l  c #B24E49",
"z  c #B65245",
"x  c #B95544",
"c  c #B5534C",
"v  c #B8574B",
"b  c #BB5B4C",
"n  c #B55651",
"m  c #B65955",
"M  c #BA5D53",
"N  c #B75C59",
"B  c #B95E5A",
"V  c #BE6255",
"C  c #BC645C",
"Z  c #BC6562",
"A  c #BE6965",
"S  c #BE6D6A",
"D  c #BF706F",
"F  c #C16758",
"G  c #C0695E",
"H  c #C16D64",
"J  c #C16E69",
"K  c #C37065",
"L  c #C3736C",
"P  c #C6786F",
"I  c #C27572",
"U  c #C57A75",
"Y  c #C87E77",
"T  c #C57D7B",
"R  c #C87F79",
"E  c #CD8376",
"W  c #C7807E",
"Q  c #C9827D",
"!  c #CF8A7F",
"~  c #AB9BA3",
"^  c #C78281",
"/  c #C98582",
"(  c #CC8986",
")  c #CC8C8B",
"_  c #CE908E",
"`  c #D29086",
"'  c #D1948F",
"]  c #CE9291",
"[  c #D19593",
"{  c #D29996",
"}  c #D39C9B",
"|  c #D6A09E",
" . c #D8A39C",
".. c #D6A4A3",
"X. c #D9A7A5",
"o. c #D8A8A7",
"O. c #D8A9A8",
"+. c #DEB2AE",
"@. c #DEB3B2",
"#. c #DFB9B8",
"$. c #E0B6B3",
"%. c #E2BDBC",
"&. c #E5C4C4",
"*. c #E6C9C9",
"=. c #E5D3D5",
/* pixels */
"~ =.*.&.&.&.&.&.&.&.&.&.&.&.&.&.&.*.*.*.*.*.*.*.*.*.*.*.*.*.=.~ ",
"=.T ^ / / ( ) ) ] ] ] [ { } } } ......X.X.o.O.O.O.O.O.O.O.O.X.=.",
"%.I T T T ^ / ( ( ) ) ] ] [ { { } } } ........X.o.o.o.o.O.O.O.&.",
"#.D I I U T T W ^ / ( ) ) ) ] ] [ { { } } | ......X.X.o.o.o.o.&.",
"@.A S S I I U U T T ^ / ( ( ) ) _ [ [ { { } } } ........X.o.o.&.",
"@.Z Z A S S L I I U T T W ^ / ( ) ) _ ] [ [ { } } } | ......X.%.",
"O.N B C Z Z A S S L I I U T T Q / / ( ) ) _ ] [ { { } } | | ..%.",
"| n m N B C Z Z A S J L I I U T T W ^ / ( ) ) _ ' [ [ { { } } %.",
"_ l c n m m N B C Z Z A S L L I U U T W Q / ( ( ) ) _ [ [ [ { $.",
"( t l l c c n m m B C C Z A A S L L I U Y R Q Q / ( ( ) _ ' [ +.",
"/ O j k k l c c n n m N B C C Z A J J L I U U Y Q Q / / ( ( ) O.",
"R . % p p k k l l c c n m M B C C Z A H J L L I U U R Q Q / ( X.",
"U . . , p p d k k k l c c v m M M C C C A H H L L P U U Y Q Q  .",
"L . . . % y i p p d k k k z c c v m M M C C C H H H L L P U Y { ",
"H . . . . + w y i p d d f k k z z c v b M M V C C G H H K L P ' ",
"G . . . . . . # w y i i d d f f k k z x v b b M V V C G G H K ` ",
"C . . . . X X X X # 0 i a a a d f f f k z x x b b b M V C C G ! ",
"M X X X X X X X X X X o $ < q a a f f f g h z x x v b b V V V E ",
"b X X X X o o o o o o o o o o o @ * ; < 0 0 0 a a a q e e e 0 F ",
"x o o o o o o o + + + + + + + + + + + + + + + + o o o o o o X x ",
"g o + + + + + @ @ @ & & & & & & & & & & & & @ @ @ + + + + o o g ",
"s + + @ & & & * * * * * * * * * * * * * * * * * * & & & @ + + s ",
"u @ & & & * * * * ; ; ; ; ; ; ; ; ; ; ; ; ; ; * * * * & & & @ a ",
"u & * * * * = ; ; : : : : > > > > > > : : : : ; ; = * * * & & u ",
"u * * * = ; : : : > > > > > > > > > > > > > > : : : ; = * * * u ",
"r * * - : : > > > > 1 1 1 1 1 1 1 1 1 1 1 1 > > > > : ; - = * r ",
"r - : : > > > 1 1 4 5 5 5 5 5 5 5 5 5 5 5 5 4 1 1 > > : : ; = r ",
"5 : : > > > 1 5 5 5 5 5 5 5 5 5 5 5 5 5 5 5 5 5 5 1 > > > : ; 5 ",
"4 : > > 2 5 5 5 5 5 5 6 6 6 6 6 6 6 6 6 6 5 5 5 5 5 5 1 > > : 4 ",
"3 > > 2 5 5 5 5 5 6 6 6 6 6 6 6 6 6 6 6 6 6 6 5 5 5 5 5 1 > > 9 ",
"8 > 2 5 5 5 5 6 6 6 6 6 6 6 6 6 6 6 6 6 6 6 6 6 6 5 5 5 5 1 > 8 ",
"  8 5 5 6 6 6 6 6 r r r r r r r r r r r r r r 6 6 6 6 6 5 5 7   "
};
