/* XPM */
static char *planeZ[] = {
/* columns rows colors chars-per-pixel */
"32 32 62 1",
"  c #6AA1A9",
". c #1584EB",
"X c #1B8BF2",
"o c #268EEF",
"O c #3F99EC",
"+ c #278FF0",
"@ c #2790F2",
"# c #4A9EEA",
"$ c #51A5F1",
"% c #5EABF2",
"& c #67ACEA",
"* c #77B5EE",
"= c #78B6EF",
"- c #7AB8F1",
"; c #A1C7C3",
": c #A0C8C3",
"> c #B1D3CF",
", c #B1D4D0",
"< c #BDD7D2",
"1 c #B7DAD6",
"2 c #BAD9D5",
"3 c #9EC7EC",
"4 c #B4CEE5",
"5 c #B6CFE8",
"6 c #B7D2EA",
"7 c #B9D3EB",
"8 c #CECCC6",
"9 c #CBCECA",
"0 c #D1CCC5",
"q c #D1CFCB",
"w c #C7D0CF",
"e c #C9D0CD",
"r c #D4D1CC",
"t c #C3D5D1",
"y c #CAD5D3",
"u c #CDDAD7",
"i c #C3DDD9",
"p c #CBDDD9",
"a c #D3D6D3",
"s c #D9D6D0",
"d c #D6D9D6",
"f c #DCDAD5",
"g c #D4DCDA",
"h c #DCDDDA",
"j c #E1DEDA",
"k c #CEE0DB",
"l c #D4E0DE",
"z c #DCE0DE",
"x c #E4E1DE",
"c c #C7DAEC",
"v c #C8DCEE",
"b c #D2DEEA",
"n c #DDE2E3",
"m c #D4E1EC",
"M c #E6E4E1",
"N c #E9E6E3",
"B c #E6E9E6",
"V c #EBE9E6",
"C c #EEECEA",
"Z c #F0EEEC",
"A c #F1F0EE",
"S c #F4F3F1",
/* pixels */
"qASSSSSSSSSSSSSSSSSSSSSSSSSSSSS9",
"SMNNNNNVVVVVVCCCCCCCCCCCCCCCCCCS",
"AMMMMNNNNVVVVVVVCCCCCCCCCCCCCCCS",
"AxxxMMMNNNNNVVVVVVVCCCZZZZCCCCCS",
"AxxxxxMMMMNNNNVVVVVC=$$$$-CCCCCS",
"ZjxxxxxxxMMMNNNNNVVV*$$@X%CCCCCS",
"CjjjjxxxxxxxMMMNNNNVVCv+@mCCCCCS",
"CfjjjjjjxxxxxxMMMNNNVboocVVVVCCA",
"VfffjjjjjjxxxxxxxMMNnO.3VVVVVVVA",
"NsfffffjjjjjjxxxxxxN#.&766VVVVVZ",
"N0fffffffjjjjjjxxxxM......VNNNVZ",
"M0rfffffffffjjjjjjxx444554NMNNNC",
"M00rsfffffffffhhjjjjxxxxxxxMMMNC",
"x888rssffffffffhhhhjjxxxxxxxMxMV",
"x8888qssddffffffhhhhhhhjxxxxxxxV",
"x888999raddddddddhhhhhhhzzzzxxxB",
"z99999999eaddddggggghhhhhzzzzzzB",
"z9999eeeeeeeyugggggggggglllzzznB",
"lwwwttttttttttttyyyuuuuggguuggan",
"lttttttttttttttttttttttttttttttl",
"kttttttttttttttttttttttttttttttl",
"kt<<<<<<<<<<<<<<<<<<<<<<<<<ttttk",
"p<<<<<<<<<<<<<<<<<<<<<<<<<<<<<tp",
"i<<<<<<<2222222222222222<<<<<<<p",
"i<<<222222222222222222222222<<<i",
"i<222222222222222222222222222<<i",
"222222112222222222222222112222<2",
"22111111111112222221111111122222",
"21111111112211111111221111112222",
",111111111111111111111111111122>",
":111111111111111111111111111112;",
" :1111111111111111111111111111; "
};
