/* XPM */
static char * planeRed_xpm[] = {
"32 32 76 1",
" 	c None",
".	c #B17373",
"+	c #D8B5B5",
"@	c #D9B7B7",
"#	c #D4AEAE",
"$	c #D5B0B0",
"%	c #AB6969",
"&	c #A56161",
"*	c #A66262",
"=	c #A76464",
"-	c #A86666",
";	c #AA6868",
">	c #AC6B6B",
",	c #AD6D6D",
"'	c #AE6F6F",
")	c #AF7171",
"!	c #B27474",
"~	c #B37676",
"{	c #B47878",
"]	c #DAB9B9",
"^	c #D0A7A7",
"/	c #A35D5D",
"(	c #A45F5F",
"_	c #D3ACAC",
":	c #CCA1A1",
"<	c #A05A5A",
"[	c #A25C5C",
"}	c #9F5858",
"|	c #9D5555",
"1	c #9E5757",
"2	c #D1A9A9",
"3	c #C79898",
"4	c #9B5252",
"5	c #9C5353",
"6	c #CFA5A5",
"7	c #C49292",
"8	c #994E4E",
"9	c #9A5050",
"0	c #BF8A8A",
"a	c #974D4D",
"b	c #CB9E9E",
"c	c #BB8484",
"d	c #8F4141",
"e	c #944848",
"f	c #964B4B",
"g	c #B98080",
"h	c #833232",
"i	c #934747",
"j	c #C69696",
"k	c #B57A7A",
"l	c #7E2C2C",
"m	c #863636",
"n	c #924545",
"o	c #954A4A",
"p	c #C39090",
"q	c #893A3A",
"r	c #914444",
"s	c #C08C8C",
"t	c #904242",
"u	c #BC8686",
"v	c #8D3F3F",
"w	c #BA8282",
"x	c #853434",
"y	c #B87E7E",
"z	c #843333",
"A	c #8B3C3C",
"B	c #802E2E",
"C	c #812F2F",
"D	c #883838",
"E	c #8A3B3B",
"F	c #8C3E3E",
"G	c #823030",
"H	c #873737",
"I	c #752121",
"J	c #721E1E",
"K	c #742020",
".+@########$$$$$$$$$$$$$$$$$$@@%",
"@&**=-;;%%>,,'''))!~~~{{{{{{{{~]",
"^/((&*=--;;%%>,''''))!~~{{{{{{{_",
":<[/((&**=-;;%%>,,'''))!~~~{{{{_",
":}}}[[/((&*=--;;%%>,''''))!~~{{_",
":|1}}}<[[(((**=-;;%%>,,'''))!!~2",
"3455|1}}}[[/((&*==-;;%%>,''''))6",
"789445||}}}<[[/((**=-;;%%%>,''':",
"0a8894455|1}}}<[/((&**=-;;%%>,,b",
"cdefa8894455|}}}<[[/((&*=--;;%%3",
"ghieeea8884455|1}}}<[/((&**=-;;j",
"klmnieeeoa8894455|1}}}[[/((&*=-p",
"~llqrniieeef8889455|1}}}<[[(((*s",
"'lllmtrrnieeeoa8894455|1}}}[[/(u",
",llllhvttrniieeefa889445||}}}<[w",
"%llllllxvttrrnieeeoa8894455|1}}y",
"=llllllllzAtttrniieeefa8894455|{",
"&lllllllllBCxqvrriieeeooa888445.",
"[BBBBBBBBCCCCCCCzxDEFFvttrvvvdA*",
"}BCCCCCGGGGGGhhhhhhGGGGGGCCCCCB}",
"|CCGGGhhhzzzxxxxxxxxzzzhhhGGGCC|",
"5GGhhzzxxxxxxmmmmmmxxxxxxzzhhGG5",
"8hhzzxxxmHDqqqqqqqqqqDHmxxxzzhh8",
"ohzxxxmHqqqqEEEEEEEEqqqqHmxxxzho",
"ezxxmHqqqEEAAAAAAAAAAEEqqqHmxxze",
"ixxmDqqEEAAFFFFFFFFFFAAEEqqDmxxi",
"txHqqqEAAFFvvvvvvvvvvFFAAEqqqHxt",
"tHqqEEAFFvvvvddddddvvvvFFAEEqqHt",
"qqqEAAFvvvddddddddddddvvvFAAEqqq",
"xqEAAFvvdddttttttttttdddvvFAAEqz",
"IEAAFvvddttttttttttttttddvvFAAEJ",
" KAFvvddttttttttttttttttddvvFAJ "};
