/* XPM */
static char *planeYellow[] = {
/* columns rows colors chars-per-pixel */
"32 32 67 1",
"  c #A7641D",
". c #A9641D",
"X c #DDAE1F",
"o c #DEB01F",
"O c #DEB123",
"+ c #DEC712",
"@ c #D7CA13",
"# c #DCC812",
"$ c #DACC1E",
"% c #E0C715",
"& c #E1C816",
"* c #E1C71C",
"= c #E1C81C",
"- c #DFCC22",
"; c #DDCF2B",
": c #DBD02D",
"> c #DCCF31",
", c #E3C724",
"< c #E3C924",
"1 c #E3C62A",
"2 c #E4C92A",
"3 c #E4CD34",
"4 c #E6CF3C",
"5 c #E4D037",
"6 c #E4D13C",
"7 c #DED543",
"8 c #E6D345",
"9 c #E5D54B",
"0 c #E8D54F",
"q c #E5D752",
"w c #E8D654",
"e c #E4D856",
"r c #E9D759",
"t c #E5DA5B",
"y c #E9D95C",
"u c #E5DC63",
"i c #EADA63",
"p c #E6DE6C",
"a c #EADC6B",
"s c #E6DF71",
"d c #EADE74",
"f c #EBDF79",
"g c #E6E075",
"h c #E9E075",
"j c #E7E17B",
"k c #EAE17C",
"l c #C2AD87",
"z c #C8B48E",
"x c #E7E381",
"c c #EAE383",
"v c #EBE58C",
"b c #ECE793",
"n c #ECE896",
"m c #EDE99B",
"M c #F1E591",
"N c #F1E698",
"B c #F1E89F",
"V c #EEEAA3",
"C c #EFECAA",
"Z c #F1EBA6",
"A c #F0ECAD",
"S c #F1EEB1",
"D c #F3EFBB",
"F c #F4F0BE",
"G c #F4F2C5",
"H c #F5F3CB",
"J c #F6F2D3",
/* pixels */
"zJJGGGHHHHHHHHHHHHHHHHHHHHHHHJJl",
"JvvvbbnnmmmmVVVVCCCCAASSSSSSSSAJ",
"GcccvvvbbnnnmmmVVVVCCCCAAAAASSSG",
"DjjxccvvvvbbnnmmmVVVVCCCCAAAAAAG",
"DgjjjkcccvvvbbnnmmmmVVVVZZCCAAAG",
"DpsggjjkxcccvvvbbnnmmmVVVVZZAAAG",
"SppppsggjjkxccvvvvbbnmmmmVVVVZZG",
"VuuupppsggjjkxcccvvvbbnnmmmVVVVF",
"nttuuuupppsggjjkxcccvvvbbnmmmmVD",
"v7etttuuupppphhhkkkcccvvvvbbnnmD",
"v$qeetttuuuupppsddhkkxcccvvvbbnS",
"c@:9qeeeettuuuupapsdhhkkcccvvvvA",
"c@@>999qqeettyuuiaaaaddffkkcccvZ",
"f@@@;89990qqeetyyiiiaaaaddfkkkcB",
"d@@@@$689999qqqrrryyiiiaaadddfkN",
"a######-6899990qwwrryyiiiiaaaddM",
"a########-58899900wwwrryyiiiaaav",
"i###+++++++#<3688990qwwwrryyiiic",
"r+++++++++++++++=<2335588966685a",
"w++%%%%%%&&&&&&&&&&&&&&%%%%++++w",
"w%%%%&&&&&============&&&&&%%%%q",
"9%%&&&&*================***&&%%9",
"8%%&&***==<<<<<<<<<<<<==***&&&%8",
"8&****==<<<<<<<<<<<<<<<<==***&&8",
"4***===<<<<<<<<<<<<<<<<<<===***4",
"3****<<<<<<2222222222<<<<<<****3",
"3***<<<<<22222222222222<<<<<=**3",
"2**,,<<<1222222222222221<<<,<=*2",
"1*,,,,,112222222222222211,<<,<=1",
"1,,,,,112222222222222222111,<,<1",
"O,,,,11222222222222222222111,<<O",
".o1111112222222222222222112211X "
};
