/* XPM */
static char * planePink_xpm[] = {
"32 32 58 1",
" 	c None",
".	c #C4A2A2",
"+	c #E3D1D1",
"@	c #E4D3D3",
"#	c #E0CDCD",
"$	c #E1CFCF",
"%	c #C09C9C",
"&	c #BB9494",
"*	c #BC9696",
"=	c #BE9898",
"-	c #BF9A9A",
";	c #C29E9E",
">	c #C3A0A0",
",	c #C6A4A4",
"'	c #C7A6A6",
")	c #E6D6D6",
"!	c #DDC8C8",
"~	c #BA9292",
"{	c #DECACA",
"]	c #DAC4C4",
"^	c #B78E8E",
"/	c #B89090",
"(	c #B68C8C",
"_	c #B58B8B",
":	c #D6BDBD",
"<	c #B28787",
"[	c #B38989",
"}	c #DCC6C6",
"|	c #D3B9B9",
"1	c #B18585",
"2	c #CFB2B2",
"3	c #AF8383",
"4	c #D9C1C1",
"5	c #CCAEAE",
"6	c #A97A7A",
"7	c #AD7F7F",
"8	c #CBACAC",
"9	c #9F6C6C",
"0	c #C8A8A8",
"a	c #9B6767",
"b	c #A27070",
"c	c #AC7E7E",
"d	c #AE8181",
"e	c #D2B7B7",
"f	c #A47373",
"g	c #AA7C7C",
"h	c #D1B5B5",
"i	c #CEB0B0",
"j	c #A87878",
"k	c #CAAAAA",
"l	c #A06E6E",
"m	c #A77777",
"n	c #9D6969",
"o	c #9E6B6B",
"p	c #A57575",
"q	c #A37171",
"r	c #945E5E",
"s	c #925B5B",
".+@########$$$$$$$$$$$$$$$$$$@@%",
"@&**==--%%%;;>>>>>,'''''''''''')",
"!~&&&*===--%%%;>>>>>>,'''''''''{",
"]^/~&&&**==--%%%;;>>>>>,'''''''{",
"](((//~&&&*===--%%%;>>>>>>,''''{",
"]__(((^//&&&**==--%%%;;>>>>>,,'{",
":<[[__(((//~&&&*===--%%%;>>>>>>}",
"|1<<<[__(((^//~&&**==--%%%%;>>>]",
"2311<<<[[__(((^/~&&&**==--%%%;;4",
"5673311<<<[[_(((^//~&&&*===--%%:",
"8977773111<<[[__(((^/~&&&**==--:",
"0abc7777d311<<<[[__(((//~&&&*==e",
"'aafgc777773111<<[[__(((^//&&&*h",
">aaab6ggc7777d311<<<[[__(((//~&i",
";aaaa9j66gc777773311<<<[__(((^/5",
"%aaaaaabj66ggc7777d311<<<[[__((k",
"=aaaaaaaalm666gc777773311<<<[[_'",
"&aaaaaaaaanobfjgg77777dd3111<<[.",
"/nnnnnnnnooooooolbfpmmj66gjjj6m*",
"(nooooo999999999999999999ooooon(",
"_oo999999lllbbbbbbbblll999999oo_",
"[9999llbbbbbbbbbbbbbbbbbbll9999[",
"199llbbbbqffffffffffffqbbbbll991",
"d9lbbbbqffffppppppppffffqbbbbl9d",
"7lbbbqfffppmmmmmmmmmmppfffqbbbl7",
"7bbbfffppmmmmmmmmmmmmmmppfffbbb7",
"6bqfffpmmmmjjjjjjjjjjmmmmpfffqb6",
"6qffppmmmjjjj666666jjjjmmmppffq6",
"fffpmmmjjj666666666666jjjmmmpfff",
"bfpmmmjj6666666666666666jjmmmpfl",
"rpmmmjj666666666666666666jjmmmps",
" rmmjj66666666666666666666jjmms "};
