/* XPM */
static char * planeBlue_xpm[] = {
"32 32 63 1",
" 	c None",
".	c #899EC3",
"+	c #C6D0E3",
"@	c #C8D2E4",
"#	c #BECAE0",
"$	c #C1CCE1",
"%	c #8197BE",
"&	c #7990BA",
"*	c #7B92BB",
"=	c #7D93BC",
"-	c #7F95BD",
";	c #8399C0",
">	c #859AC1",
",	c #879CC2",
"'	c #8BA0C4",
")	c #8DA1C5",
"!	c #8FA3C7",
"~	c #BAC6DD",
"{	c #758DB8",
"]	c #778EB9",
"^	c #BCC8DE",
"/	c #B3C1DA",
"(	c #718AB5",
"_	c #738BB6",
":	c #6F88B4",
"<	c #6B85B2",
"[	c #6D86B3",
"}	c #ACBBD6",
"|	c #6983B1",
"1	c #B7C4DC",
"2	c #A5B5D2",
"3	c #6680AF",
"4	c #6782B0",
"5	c #9EB0CF",
"6	c #647EAD",
"7	c #B0BFD8",
"8	c #9AACCC",
"9	c #5874A6",
"0	c #607BAB",
"a	c #627DAC",
"b	c #95A8CA",
"c	c #49679C",
"d	c #5E7AAA",
"e	c #A9B9D5",
"f	c #446298",
"g	c #4D6B9F",
"h	c #5D78A9",
"i	c #516EA1",
"j	c #5B77A8",
"k	c #A0B2D0",
"l	c #5975A7",
"m	c #98AACB",
"n	c #4C699E",
"o	c #93A7C9",
"p	c #4A689D",
"q	c #5471A3",
"r	c #45649A",
"s	c #47659B",
"t	c #4F6CA0",
"u	c #526FA2",
"v	c #5672A5",
"w	c #385890",
"x	c #35558E",
".+@########$$$$$$$$$$$$$$$$$$@@%",
"@&***=--%%;>>>>>,,')))!!!!!!!!)@",
"~{]]&**==--%%;>>>>>,,'))!!!!!!!^",
"/(_{]]&***=--%%;>>>>>,,')))!!!!^",
"/:::__{]]&**==--%%;>>>>>,,'))!!^",
"/<[:::(__]]]***=--%%;>>>>>,,'')^",
"}|||<[:::__{]]&***=--%%;>>>>>,,1",
"234|||<<:::(__{]]***=--%%%;>>>>/",
"56334||||<[:::(_{]]&***=--%%;>>7",
"890a6334||||<:::(__{]]&**==--%%}",
"bcd0006333||||<[:::(_{]]&***=--e",
"!fghd00006334||||<[:::__{]]&**=2",
")ffijhdd000a3334|||<[:::(__]]]*k",
">fffgljjhd00006334||||<[:::__{]8",
">ffffc9lljhdd000a6334|||<<:::(_m",
"%ffffffn9lljjhd00006334||||<[::o",
"*ffffffffpqllljhdd000a6334||||<!",
"&fffffffffrsni9jjdd000006333|||.",
"_rrrrrrrrssssssspntuvv9llj9999q*",
":rsssssssssssccccccsssssssssssr:",
"<ssssscccpppnnnnnnnnpppcccsssss<",
"|ssccppnnnnnnggggggnnnnnnppccss|",
"3ccppnnngttiiiiiiiiiittgnnnppcc3",
"0cpnnngtiiiiuuuuuuuuiiiitgnnnpc0",
"0pnngtiiiuuqqqqqqqqqquuiiitgnnp0",
"dnngtiiuuqqvvvvvvvvvvqquuiitgnnd",
"lntiiiuqqvv9999999999vvqquiiitnl",
"ltiiuuqvv99999999999999vvquuiitl",
"iiiuqqv999999999999999999vqquiii",
"niuqqv99999llllllllll99999vqquip",
"wuqqv9999llllllllllllll9999vqqux",
" wqv9999llllllllllllllll9999vqx "};
