/* XPM */
static char *planeY[] = {
/* columns rows colors chars-per-pixel */
"32 32 79 1",
"  c #15B30A",
". c #1AB40E",
"X c #1EB613",
"o c #29B91D",
"O c #3FBE36",
"+ c #43C038",
"@ c #49C13E",
"# c #5AB25C",
"$ c #4BC140",
"% c #54C54A",
"& c #5EC755",
"* c #5FC856",
"= c #7CD174",
"- c #86D37E",
"; c #94D78D",
": c #91DD8F",
"> c #94DA93",
", c #A9DBA3",
"< c #AFDDA9",
"1 c #B2DEAB",
"2 c #BFD7B5",
"3 c #B7DEB1",
"4 c #BBDDB2",
"5 c #A6E7A3",
"6 c #A5EBA3",
"7 c #A9EAA6",
"8 c #ADEAA9",
"9 c #B5E5AE",
"0 c #B2E9AC",
"q c #B7E2B0",
"w c #B8E3B1",
"e c #B5EBB1",
"r c #BAECB5",
"t c #BFE2B9",
"y c #BEEDB9",
"u c #C0D6B7",
"i c #C0DEB7",
"p c #C4D4BA",
"a c #C9D0BE",
"s c #C3DABB",
"d c #C3E3BD",
"f c #C1EDBD",
"g c #CDCCC9",
"h c #D0CFCC",
"j c #CCD5C4",
"k c #CADDC2",
"l c #CFDFC8",
"z c #D4DECD",
"x c #DBDED3",
"c c #C7E5C1",
"v c #CBE4C5",
"b c #C6EAC1",
"n c #CBE9C5",
"m c #CEE4C9",
"M c #CEEAC9",
"N c #D3E3CC",
"B c #D2E9CD",
"V c #D6E4D0",
"C c #DBE3D4",
"Z c #D5E9D1",
"A c #DAE9D5",
"S c #DEE5D8",
"D c #DEE9D9",
"F c #D6F1D3",
"G c #DAF2D7",
"H c #DEF1D9",
"J c #E2E4DC",
"K c #E2EADD",
"L c #E2F0DE",
"P c #E6E6E1",
"I c #E8E7E2",
"U c #E6EAE1",
"Y c #EAEBE5",
"T c #EDEDE9",
"R c #E6F0E2",
"E c #EAF1E6",
"W c #EEF1EB",
"Q c #F1F2EF",
"! c #F4F3F1",
/* pixels */
"hQ!!!!!!!!!!!!!!!!!!!!!!!!!!!!Qg",
"QPPPIIIIIYYYYYYTTTTTTTTTTTTTTTT!",
"QJJPPPPIIIIYYYYYYYYTTTTTTTTTTTTQ",
"WJJJJJJPPPPIYYYYYYTTYYTTTTTTTTTQ",
"WJJJJJJJJJPPd%%DY;%=YYYYTTTTTTTQ",
"WJJJJJJJJJJJI&X*cXXcYYYYYYYYTTTQ",
"TxSSSJJJJJJJKAoXXX-YUUUUYYYYYYYQ",
"YxxxCCSSSJJJJK,..+UPKUUUUUUYYYYW",
"UxxxCCCCCSSSSSKO.,KKKKKKUUUUUYYW",
"UzxxxCCCCCCCCSK$ 1KKKKKKKKKKUUUW",
"KjzzzzVVVCCCCCS@ <SSDDDKKKKKKKUE",
"DajzzzNNNNVVVVC3,mAAAAADDDDDKKKE",
"DaajzzzNNNNNNNNVVVVVAAAAAAADDDKR",
"ApppkllNNNNNNNNNNNNNVZZZZAAAAADL",
"AppppskvmmmmmmmNNNBBBBBBZZZZAAAL",
"ZpuuuuuskvvvvvvmmmmmmmBBBBBBZZZH",
"Buu222222idccvvvvnnnnnMMMMMBBBBG",
"M22224444444iddccccnnnnnnnnMMMBF",
"n4444444444444444ttddddbbbdddddB",
"b444433343344444444443343444444n",
"b333q999qqqwwwwwwwwwwqqq9qqq334b",
"f9999999999999999999999999999qqf",
"y999999999999999999999999999999f",
"r900000000000000000000000000999y",
"r000800000000000000000000000009r",
"e888888888000000000000888888800r",
"0888888888888888888888888888888e",
"08777777888888888888888877778880",
"87777777777777777777777777777888",
"57776666777777777777777766777785",
">776666666666666666666666666778>",
"#:6666666666666666666666666677>#"
};
