/* XPM */
static char *planeBlueLight[] = {
/* columns rows colors chars-per-pixel */
"32 32 82 1",
"  c #287FAC",
". c #2881AC",
"X c #3290BF",
"o c #2B83C6",
"O c #2686CC",
"+ c #2885C9",
"@ c #2488CF",
"# c #358ACA",
"$ c #388ECE",
"% c #3293C0",
"& c #369DCF",
"* c #258CD2",
"= c #288BD1",
"- c #348ED0",
"; c #2790D3",
": c #2A94D4",
"> c #2E9AD4",
", c #3293D4",
"< c #319DD5",
"1 c #3898D6",
"2 c #3F9CD8",
"3 c #2FA0D5",
"4 c #35A3D6",
"5 c #38A5D7",
"6 c #39A9D7",
"7 c #3AA7D8",
"8 c #3CAAD8",
"9 c #4391CC",
"0 c #4C9BD6",
"q c #439DD8",
"w c #4B9FDA",
"e c #549CD2",
"r c #4BA2DA",
"t c #44AADB",
"y c #4BACDC",
"u c #57A1D7",
"i c #5CA2D5",
"p c #54A5DB",
"a c #5BA5DA",
"s c #53ACDD",
"d c #5BAADE",
"f c #63A5D5",
"g c #69A7D6",
"h c #6CA9D7",
"j c #63A7D9",
"k c #64ABDD",
"l c #6CACDB",
"z c #74ADD9",
"x c #67B0DF",
"c c #74B1DE",
"v c #7CB3DC",
"b c #6DB0E0",
"n c #73B4E0",
"m c #7BB6E0",
"M c #82B6DD",
"N c #86B8DE",
"B c #8ABADF",
"V c #ABBDCB",
"C c #8DBCE0",
"Z c #92BFE1",
"A c #B0C1CF",
"S c #8FC2E7",
"D c #95C1E2",
"F c #9BC4E4",
"G c #9DC8E7",
"H c #A0C7E5",
"J c #A4CAE6",
"K c #A8CCE7",
"L c #ACCEE8",
"P c #AFD0E9",
"I c #B4D3EA",
"U c #B9D6EC",
"Y c #BFD9EE",
"T c #C3DCEE",
"R c #C8DDEE",
"E c #C9DEF0",
"W c #CDE0EF",
"Q c #D7E4EE",
"! c #DBE7EF",
"~ c #CDE2F1",
"^ c #D1E4F2",
"/ c #D8E6F0",
/* pixels */
"AQ^~~~~~~~~~~~^^^^^^^^^^^^^^^/!V",
"/DDDFFGHJJKKLLLPIIIIIIUUUUUUUUI!",
"RCZZDDFFFHHJJKKLLLIIIIIIUUUUUUUW",
"TBBCCZDDDFFFHJJKKLLLPIIIIIIUUUU~",
"TMNNBBCZZDDFFFHHJJKKLLLIIIIIIUU~",
"YvMMMNBBCCZDDDFFFHJJKKLLLPIIIII~",
"UzvvvMMNNBBCZZDDFFFGHJJKKLLLIIIE",
"PzzzvvvvMMNBBCCZDDDFFFHJJJKLLLPT",
"JhhzzzzvvvMMNNBBCZZDDDFFGHJJKKLT",
"FeghhzzzzvvvvMMNBBBCZZDDFFFHHJJY",
"D#fggghhzzzzvvvMMNNBBCCZDDDFFFHU",
"Zo9fffgghhhzzzzvvvMMNNBBCZZDDFFI",
"Coo9iffffgghhhzzzvvvvMMNBBCCZDDI",
"Booo9iiifffgghhhzzzcvvvvMNNCCCCL",
"Moooo#euiiiffjjghlllzcccvvvMNNCJ",
"v++++++$0uuaaaajjjkllllccccvvmNG",
"c+OOOOOOO-0uuuaaaajkkkkllbcnnmmF",
"bOO@@******=,qwppaddddkkkkbbbnnS",
"x***************:,12qqqppsrrrrqn",
"k********;;;;;;;;;;;;;;********k",
"s*;;;;::::::::::::::::::::;;;**d",
"s;:::::>>>>>>>>>>>>>>>>>>::::;;s",
"y::::>>>><<<<<<<<<<<<<<>>>>::::y",
"t:>>>>><<<<<44444444<<<<<>>>>::t",
"t>>>><<444444444444444444<<>>>>t",
"t>>><4444445555555555444444<>>>t",
"8>>44444555777777777755544444>>8",
"834444555777777777777775554444>7",
"54445567676888888888867676554445",
"4445566688888888888888886665544&",
"%455666888888888888888888666544%",
".%6888888888888888888888888866X "
};
