/* XPM */
static char *planeOrange[] = {
/* columns rows colors chars-per-pixel */
"32 32 106 2",
"   c #C56F04",
".  c #C77004",
"X  c #CB7405",
"o  c #CE7807",
"O  c #C6750E",
"+  c #CE7909",
"@  c #D27D0B",
"#  c #CF7D12",
"$  c #CB7E1D",
"%  c #8E823A",
"&  c #908439",
"*  c #BF8E2F",
"=  c #D3810E",
"-  c #CC801A",
";  c #D48512",
":  c #D58B15",
">  c #D48619",
",  c #D68D1A",
"<  c #D59017",
"1  c #D7931B",
"2  c #D8951E",
"3  c #D7991E",
"4  c #D8981F",
"5  c #CD8221",
"6  c #D68D24",
"7  c #D88E24",
"8  c #D58D2C",
"9  c #C1912E",
"0  c #D29323",
"q  c #D99525",
"w  c #D89B21",
"e  c #D8912C",
"r  c #DB992A",
"t  c #CF8B35",
"y  c #C09030",
"u  c #D79337",
"i  c #DA9635",
"p  c #DC9B34",
"a  c #D6943C",
"s  c #D8963B",
"d  c #DB9A3C",
"f  c #DDA03E",
"g  c #D59643",
"h  c #D89741",
"j  c #D79846",
"k  c #DB9C43",
"l  c #D6994C",
"z  c #DA9D4B",
"x  c #D79D54",
"c  c #D99E52",
"v  c #D79E59",
"b  c #D89F58",
"n  c #DEA045",
"m  c #DEA24C",
"M  c #DDA354",
"N  c #D7A15E",
"B  c #DBA35B",
"V  c #DFA85D",
"C  c #E0A54E",
"Z  c #E0A653",
"A  c #E0A857",
"S  c #E1AA5B",
"D  c #DAA562",
"F  c #DEA964",
"G  c #DBA768",
"H  c #DDAB6C",
"J  c #DDAE73",
"K  c #DEAF78",
"L  c #DFB076",
"P  c #DFB27B",
"I  c #E1AD64",
"U  c #E1AE6A",
"Y  c #E2B16E",
"T  c #E2B374",
"R  c #E8BC76",
"E  c #E1B57C",
"W  c #E4B87E",
"Q  c #E8BE7F",
"!  c #B8B5AB",
"~  c #BEBAB0",
"^  c #DFB581",
"/  c #E1B683",
"(  c #E3BA85",
")  c #E4BC8C",
"_  c #E4BE91",
"`  c #E9C287",
"'  c #EBC58F",
"]  c #E6C194",
"[  c #EBC897",
"{  c #E7C59B",
"}  c #E8C69C",
"|  c #E9C99F",
" . c #E7C7A0",
".. c #E9CAA4",
"X. c #EACDA9",
"o. c #EDD0AA",
"O. c #EED4B3",
"+. c #EDD7B9",
"@. c #EFDABD",
"#. c #EEDBC3",
"$. c #F0DDC5",
"%. c #F1DFC8",
"&. c #F1E2CE",
"*. c #EEE3D6",
"=. c #EFE6D9",
"-. c #F2E3D0",
/* pixels */
"~ *.&.#.$.$.$.$.$.$.$.$.$.$.%.%.%.%.%.%.%.%.%.%.%.%.%.%.%.-.=.! ",
"*.^ / / ( ) ) ) _ ] ] ] { { } |  .......X.X.X.X.X.X.X.X.X.X.X.=.",
"#.P P P ^ / ( ) ) ) _ _ ] ] { { { }  . .......X.X.X.X.X.X.X.X.#.",
"+.J J K P P / / / ( ) ) ) _ ] ] ] { { } |  .......X.X.X.X.X.X.$.",
"O.H H J J K P P E / / ( ) ) ) _ ] ] ] { { } |  .........X.X.X.$.",
"O.D G G H H J J L P P E / / ( ) ) ) _ ] ] ] { { } | ........X.$.",
"X.N D D D G H H H J J L E E E / ( ( ) ) ) ] ] ] { { } }  .....@.",
"| x v N N D D G G H H J J L L E E / / ( ( ) ) ] ] ] ] { { } | +.",
"] l x x b B N N D D G G H H J L L E E E / ( ( ) ) ) ] ] ] ] { O.",
"( t l l c x x b B B D D F G H H H J T T E E W / ( ( ) ) ) ] ] O.",
"/ O g j l l l c c c B B B D D F H H H U T T T E W W ( ( ( ) ) o.",
"E   $ g g j j l l z c M M B B B D F F H U U Y T T T E W ( ( ( ..",
"T     5 a a g g j j z z z c M M B B V F F F U U Y T T T E W W | ",
"Y . . . - u a a a h h j z z z z M M M B V V F I I U Y Y T T T [ ",
"U . . . . + 8 u u s s s h k k z z z m M M M V V S I I U U Y Y ' ",
"I . . . . . . # 8 u u s s s d k k k z z m m M M V A S S I I U ` ",
"S . X X X X X X X # 6 i i i s d d d k k k n m m C M Z A S S I Q ",
"Z X X X X X X X X X X + ; > e i i d d d k k k n m m C Z Z Z A R ",
"m X X X o o o o o o o o + + + + @ ; > , 7 7 7 i p p e e e e 6 S ",
"n o o o + @ @ @ @ @ @ @ @ @ @ @ @ @ @ @ @ @ @ @ @ + + + o o o n ",
"f @ @ @ @ @ @ @ @ @ @ = = = = = = = = = = @ @ @ @ @ @ @ @ @ + n ",
"p @ @ @ @ = = = = ; ; ; ; ; ; ; ; ; ; ; ; ; ; = = = = @ @ @ @ p ",
"p @ @ = = = ; ; ; ; ; ; ; ; ; ; ; ; ; ; ; ; ; ; ; ; = = = @ @ p ",
"r = = = ; ; ; ; : : : : : : : : : : : : : : : : ; ; ; ; = = @ r ",
"r = = ; ; ; : : : : , , , , , , , , , , , , : : : : ; ; ; = = r ",
"q = ; ; : : : , , , 1 1 1 1 1 1 1 1 1 1 1 1 , , , : : : ; ; = q ",
"q ; : : : , , < 1 1 1 1 1 1 1 1 1 1 1 1 1 1 1 1 < , : : : ; ; q ",
"2 : : : , < 1 1 1 1 2 2 2 2 2 2 2 2 2 2 2 2 1 1 1 1 , , : : : 2 ",
"0 : : < 1 1 1 1 2 2 2 2 4 4 4 4 4 4 4 4 2 2 2 2 1 1 1 < , : : 0 ",
"0 : < 1 1 2 2 2 2 4 4 4 4 4 w w w w 4 4 4 4 4 2 2 2 1 1 < , : 0 ",
"9 , 1 1 2 3 3 4 4 4 w w w w w w w w w w w w 4 4 4 3 2 1 1 < , y ",
"& 9 1 3 3 4 w w w w w w w w w w w w w w w w w w w w 4 3 2 1 * % "
};
