/* XPM */
static char *planePurple[] = {
/* columns rows colors chars-per-pixel */
"32 32 101 2",
"   c #795A6A",
".  c #8D0686",
"X  c #8F0884",
"o  c #8A0488",
"O  c #930C83",
"+  c #8E108F",
"@  c #971282",
"#  c #991583",
"$  c #9D1B83",
"%  c #93138B",
"&  c #971A8D",
"*  c #9A1C8A",
"=  c #961E95",
"-  c #A01E82",
";  c #9F278D",
":  c #992295",
">  c #A32484",
",  c #A72A84",
"<  c #A92D83",
"1  c #AD3484",
"2  c #A53C8B",
"3  c #AC3A8A",
"4  c #B13683",
"5  c #B23B84",
"6  c #B03E8E",
"7  c #A32E92",
"8  c #A63395",
"9  c #AC3C93",
"0  c #A4369A",
"q  c #A93C99",
"w  c #9F36A1",
"e  c #A83FA1",
"r  c #974486",
"t  c #9A4686",
"y  c #984689",
"u  c #B54284",
"i  c #AC449D",
"p  c #AF489E",
"a  c #B24593",
"s  c #B24B9C",
"d  c #AA45A3",
"f  c #AD4AA4",
"g  c #AD4DAA",
"h  c #B14DA2",
"j  c #AE52AD",
"k  c #B453A4",
"l  c #B75AA6",
"z  c #B85DA7",
"x  c #B154AB",
"c  c #B55AAC",
"v  c #B95EAA",
"b  c #AF55B1",
"n  c #B056B0",
"m  c #B35CB2",
"M  c #BA63AD",
"N  c #BE69AE",
"B  c #B663B5",
"V  c #B964B3",
"C  c #BC6BB4",
"Z  c #B665B8",
"A  c #B867B9",
"S  c #B768BA",
"D  c #BA6CBA",
"F  c #BF70B6",
"G  c #BD72BD",
"H  c #BF78BF",
"J  c #C175BA",
"K  c #C37BBD",
"L  c #BE76C0",
"P  c #BF79C2",
"I  c #C27DC2",
"U  c #CB85BC",
"Y  c #ADA1C4",
"T  c #B3A6C9",
"R  c #C583C5",
"E  c #C887C4",
"W  c #C789C7",
"Q  c #C98AC5",
"!  c #C687C8",
"~  c #C788C9",
"^  c #C98DCA",
"/  c #CF91C5",
"(  c #CC93CD",
")  c #CF98CF",
"_  c #D19ACD",
"`  c #CD97D0",
"'  c #CF99D0",
"]  c #D19DD2",
"[  c #D4A3D5",
"{  c #D5A8D7",
"}  c #DAAED6",
"|  c #D8ABD8",
" . c #DCB3DC",
".. c #DEBADF",
"X. c #DEBFE2",
"o. c #E1BFE1",
"O. c #E3C4E4",
"+. c #E4C8E5",
"@. c #E6CEE8",
"#. c #E5D5EA",
"$. c #E7D8EC",
/* pixels */
"T #.@.O.O.O.O.O.O.O.O.O.O.O.+.+.+.+.+.+.+.+.+.+.+.+.+.+.+.@.#.Y ",
"#.I R R ! ~ ^ ^ ( ( ( ) ` ' ] ] [ [ [ [ { { { { { { { { { { { $.",
"X.L P I I R R ! ~ ^ ^ ( ( ( ` ' ' ] ] [ [ [ [ { { { { { { { { O.",
"..G G L P I I R R ! ~ ~ ^ ^ ( ( ) ' ] ] ] [ [ [ [ { { { { { { O.",
" .S D D G L P I I R R ! ~ ~ ^ ^ ( ( ) ` ' ] ] [ [ [ [ [ { { { O.",
" .Z Z S D D G G L P I I R R ! ~ ^ ^ ( ( ( ) ' ] ] ] [ [ [ [ { o.",
"| m m B Z A D D D G H L I I I R ! W Q ^ ^ ( ( ) ) _ ] ] [ [ [ o.",
"[ b n m m B Z Z S D D G G H I I I R R W W ^ ^ ( ( ( ) _ ] ] ] ..",
"( g j b n m m m B Z A A D G G G H I I R R R W W ^ ^ ( ( ) ) _  .",
"W w g g j j n m m m B B A A D D G G H K I I R R E Q Q ^ ( ( (  .",
"E + d g g g j j x c m m B B V A C D G G J K K I R R E E Q ^ ^ } ",
"I o = d d f g g j x x c c m m B V C C C F F J K K K R R R E Q { ",
"K o o : d d d f f g g x x x c c m B V V C C C F J J K K K R R [ ",
"J . . . : e d d d f f f g x x x c c v V V V C C C F J J K K K _ ",
"F . . . . % 0 i d d d f f f f k k x c c v M M M C C C F J J J _ ",
"C . . . X X X & 0 i i d d f f f h k k x l c v v M M V C C C F / ",
"M X X X X O O O O & 8 i i i p f h h h k k k l l z v M M N C C Q ",
"M O O O O O O O O O O O * 7 q p p s s h h k k k l l z v M M M U ",
"l O O O O O O O O O O O O O O O # * ; 7 8 8 8 i p p q q q q 8 N ",
"k O O O @ @ @ @ @ # # # # # # # # # # # # # # @ @ @ @ @ O O O k ",
"k @ @ @ # # # # # $ $ $ $ $ $ $ $ $ $ $ $ $ $ # # # # # @ @ @ k ",
"s # # # $ $ $ $ $ $ $ > > > > > > > > > > $ $ $ $ $ $ $ # # @ s ",
"s # $ $ $ $ - > > > > > > > > > > > > > > > > > > - $ $ $ $ # s ",
"a $ $ - > > > > > , , , , , , , , , , , , , , > > > > > $ $ $ a ",
"a - > > > > , , , < < < < < < < < < < < < < < , , , > > > - $ a ",
"6 > > > , , < < < 1 1 1 1 1 1 1 1 1 1 1 1 1 1 < < < , , > > > 9 ",
"6 > , , < < 1 1 1 1 1 1 1 1 1 1 1 1 1 1 1 1 1 1 1 < < , , > > 3 ",
"3 , , < < 1 1 1 1 1 4 4 4 4 4 4 4 4 4 4 4 4 1 1 1 1 1 < < , > 3 ",
"3 , < 1 1 1 1 4 4 5 5 5 5 5 5 5 5 5 5 5 5 5 5 4 4 1 1 1 < < , 3 ",
"2 < 1 1 4 4 4 5 5 5 5 5 5 5 5 5 5 5 5 5 5 5 5 5 5 4 4 1 1 < < 2 ",
"t < 1 4 4 5 5 5 5 5 5 5 5 5 u u u u 5 5 5 5 5 5 5 5 4 4 1 1 < y ",
"  t 4 5 5 5 u u u u u u u u u u u u u u u u u u u 5 5 5 4 4 r   "
};
