/* XPM */
static char *playBlastMan_[] = {
/* columns rows colors chars-per-pixel */
"32 32 118 2",
"   c #171D1B",
".  c #1C1D1D",
"X  c #162622",
"o  c #172E28",
"O  c #173930",
"+  c #242424",
"@  c #272B2A",
"#  c #2C2C2C",
"$  c #273632",
"%  c #343434",
"&  c #363A39",
"*  c #3A3A3A",
"=  c #174338",
"-  c #174D40",
";  c #3C4442",
":  c #355B51",
">  c #306055",
",  c #434444",
"<  c #404D4A",
"1  c #4B4B4B",
"2  c #4A514F",
"3  c #4D5351",
"4  c #4D5956",
"5  c #535555",
"6  c #525957",
"7  c #535C5A",
"8  c #5B5C5C",
"9  c #53625E",
"0  c #5A605F",
"q  c #576260",
"w  c #5C6362",
"e  c #5D6865",
"r  c #547C72",
"t  c #5B7A71",
"y  c #626363",
"u  c #646B6A",
"i  c #6B6E6D",
"p  c #66706E",
"a  c #6C7472",
"s  c #637A74",
"d  c #6E7875",
"f  c #717775",
"g  c #737C7A",
"h  c #598076",
"j  c #5D8279",
"k  c #61867D",
"l  c #64887F",
"z  c #78817F",
"x  c #668981",
"c  c #6A8D84",
"v  c #778582",
"b  c #7B8985",
"n  c #7E8B88",
"m  c #73938C",
"M  c #7E928D",
"N  c #7E9690",
"B  c #7C9A93",
"V  c #8C8D8D",
"C  c #81938E",
"Z  c #849692",
"A  c #8F9392",
"S  c #839B95",
"D  c #869D98",
"F  c #8A9F9A",
"G  c #949494",
"H  c #959C9B",
"J  c #9B9B9B",
"K  c #85A49C",
"L  c #8BA39D",
"P  c #93A29E",
"I  c #8DA7A1",
"U  c #8CAAA2",
"Y  c #94A6A1",
"T  c #9BA5A3",
"R  c #92ABA5",
"E  c #9BAAA6",
"W  c #96AFA9",
"Q  c #9BAEA9",
"!  c #94B1AA",
"~  c #9CB3AD",
"^  c #9EB9B2",
"/  c gray63",
"(  c #A6AFAD",
")  c #A4B1AE",
"_  c #A8B1AF",
"`  c #A0B6B1",
"'  c #ABB3B1",
"]  c #A4BBB5",
"[  c #A8B9B5",
"{  c #A6BEB8",
"}  c #AABEB9",
"|  c #B3B4B4",
" . c #B1B9B7",
".. c #B4BCBA",
"X. c #ADC2BD",
"o. c #B1C3BF",
"O. c #B9C0BF",
"+. c #B1C6C1",
"@. c #BDC5C3",
"#. c #B5C9C4",
"$. c #B9CCC7",
"%. c #BCCECA",
"&. c #A0D0C4",
"*. c #A8D1C8",
"=. c #BFD0CC",
"-. c #C3D2CE",
";. c #C6D4D1",
":. c #CBD5D3",
">. c #CAD9D5",
",. c #D0D5D3",
"<. c #D2DBD9",
"1. c #DBDFDE",
"2. c #DAE4E2",
"3. c #E0E5E4",
"4. c #E6E9E8",
"5. c #EBEDEC",
"6. c gray100",
"7. c None",
/* pixels */
"*.2.<.-.;.;.;.;.;.:.:.:.:.:.:.:.:.:.:.:.:.:.:.:.:.:.:.:.:.<.2.&.",
"2.L I U R R W ! ~ ~ ~ ` ` ] ] { } } X.X.X.o.o.o.o.o.o.o.o.o.X.2.",
";.K K I U U R ! ! ! ~ ~ ^ ^ ] ] { { X.X.X.X.X.+.+.+.+.+.+.+.+.>.",
"6.6.6.6.6.6.6.6.6.6.6.6.6.6.6.6.6.6.6.6.6.6.6.6.6.6.6.6.6.6.6.6.",
"6.6.6.6.6.6.6.6.6.6.6.6.6.6.6.6.6.6.6.6.6.6.6.6.6.6.6.6.6.6.6.6.",
"6.6.6.6.6.6.6.6.6.6.6.6.6.6.6.6.6.6.6.6.6.6.6.6.6.6.6.6.6.6.6.6.",
"6.6.6.6.6.6.6.6.6.6.6.6.6.6.6.6.6.6.6.6.6.6.6.6.6.6.6.6.6.6.6.6.",
"6.6.6.6.6.6.6.6.6.6.6.6.6.6.6.6.6.6.6.6.6.6.6.6.6.6.6.6.6.6.6.6.",
"6.6.6.6.6.6.6.6.6.6.6.6.6.6.6.6.6.6.6.6.6.6.6.6.6.6.6.6.6.6.6.6.",
"6.6.6.6.6.6.6.6.6.6.6.6.6.6.6.6.6.6.6.6.6.6.6.6.6.6.6.6.6.6.6.6.",
";.R X.X.X.X.X.X.+.+.+.#.#.#.$.$.$.%.%.%.=.-.-.-.;.;.;.:.:.>.>.2.",
"L - > r r r h j j j k l x x c c m m m m B B B S K K L L I R R X.",
"S = = : t M N Z Z S S D D F L L L Y Y Y R E Q Q ~ ~ ) Y D F L [ ",
"M O O O s E @.2.M M C C Z 3.6.6.6.6.6.F P P Y Y :.4.E @.C Z Z ) ",
"v o o o 9 ' ,.5.( _ _ _ ' 5.6.6.6.6.6. . .......1.5.O.@.b b n T ",
"g X X X 7 7 X $ < 3 4 4 7 7 7 9 q w w e u u u p a a d ..g g z H ",
"a       6 6       @ ; 2 3 3 4 6 6 7 7 8 0 w w y u u u  .a a f A ",
"u       5 5           . @ & , 3 3 5 5 6 6 8 8 8 w y y | u i i V ",
"y       5 5       . . . . . . . + @ % & * * * 1 1 3 , / , , * i ",
"8   . . 5 5 . . . . . . . . . . . . . . . . . . . . . V . .   8 ",
"5 . . . 5 5 . . + + + + + + + + + + + + + + + + . . . V . . . 5 ",
"5 . . . 5 8 + + + + + + @ @ @ @ @ @ @ @ + + + + + + + V . . . 5 ",
"1 . . + 8 8 + + @ @ @ # # # # # # # # # # @ @ @ + + + G + . . 1 ",
"1 + + + 8 8 @ @ # # # # # # # # # # # # # # # # @ @ + G + + + 1 ",
", + + + 8 8 # # # # % % % % % % % % % % % % # # # # @ G + + + , ",
", + + @ 8 y # # % % % % % % % % % % % % % % % % # # # G @ + + , ",
"* + @ # y y # % % % % % % % % % % % % % % % % % % # # G # @ + * ",
"* @ # # y y % % % % % % & & & & & & & & % % % % % % % G # # @ * ",
"& # # # y y % % % % & & & & & & & & & & & & % % % % % G # # # & ",
"% # # % y | J J J J J J J J J J J J J J J J J J J J J J % # # % ",
"% # % % % % % & & * * * * * * * * * * * * * * & & % % % % % # % ",
"7.% % % & & * * * * * * * * * * * * * * * * * * * * & & % % % 7."
};
