/* XPM */
static char *PrjtSet[] = {
/* columns rows colors chars-per-pixel */
"32 32 215 2",
"   c #341E00",
".  c #362400",
"X  c #392600",
"o  c #372800",
"O  c #3B2B00",
"+  c #3E3000",
"@  c #443208",
"#  c #4A390D",
"$  c #4E3C10",
"%  c #513D11",
"&  c #574617",
"*  c #574818",
"=  c #594B1A",
"-  c #5E511C",
";  c #614F1E",
":  c #61511E",
">  c #645522",
",  c #675924",
"<  c #695C25",
"1  c #6E602A",
"2  c #76662D",
"3  c #7A662E",
"4  c #78682F",
"5  c #7A6C33",
"6  c #8A7632",
"7  c #847638",
"8  c #8C7C3C",
"9  c #B29E3E",
"0  c #C6971C",
"q  c #C6981E",
"w  c #C8991F",
"e  c #D6AF0C",
"r  c #D9AF0E",
"t  c #CDB109",
"y  c #D5B10B",
"u  c #DCB20B",
"i  c #D9AF11",
"p  c #CDB512",
"a  c #DCB114",
"s  c #DDB21C",
"d  c #DBB818",
"f  c #E4B40C",
"g  c #EAB60E",
"h  c #EBBD0D",
"j  c #E4B413",
"k  c #E9B614",
"l  c #E4B814",
"z  c #ECB912",
"x  c #E3B51C",
"c  c #EAB71B",
"v  c #E6B91D",
"b  c #EBB91E",
"n  c #F0BF1D",
"m  c #DDA127",
"M  c #D5AA21",
"N  c #DDAA24",
"B  c #DEA329",
"V  c #DDB322",
"C  c #D3B921",
"Z  c #DDB921",
"A  c #D2BD2B",
"S  c #DFBA2C",
"D  c #C4B03E",
"F  c #DCBF34",
"G  c #E2B622",
"H  c #E3BA24",
"J  c #E9B923",
"K  c #E5BE2E",
"L  c #EBBD2B",
"P  c #E3BE31",
"I  c #EEBF32",
"U  c #E1BE3B",
"Y  c #EEC30E",
"T  c #EEC314",
"R  c #EEC41B",
"E  c #F0C515",
"W  c #F2CC14",
"Q  c #F2C61D",
"!  c #F3CD1C",
"~  c #F3D315",
"^  c #F6DA17",
"/  c #F4D41C",
"(  c #F6DC1A",
")  c #F7E01B",
"_  c #F8E31C",
"`  c #FAEA1C",
"'  c #FBF01E",
"]  c #D7C037",
"[  c #DAC035",
"{  c #D6C23C",
"}  c #DBC23C",
"|  c #EEC222",
" . c #E4C02E",
".. c #E9C12D",
"X. c #EECB2F",
"o. c #F2C720",
"O. c #F4CF24",
"+. c #F3CF29",
"@. c #F4D523",
"#. c #F6DB22",
"$. c #F0D02A",
"%. c #F6DF2E",
"&. c #E5C134",
"*. c #EAC233",
"=. c #EECB37",
"-. c #E2C33D",
";. c #E9C43C",
":. c #EDC83D",
">. c #F5DC35",
",. c #F2D43C",
"<. c #F7E423",
"1. c #F9E424",
"2. c #FAEC23",
"3. c #F7E02D",
"4. c #F8E42B",
"5. c #FAED2D",
"6. c #FCF125",
"7. c #FCF12C",
"8. c #F7E230",
"9. c #F8E530",
"0. c #FAEB31",
"q. c #F7E83C",
"w. c #F9EB3A",
"e. c #FCF331",
"r. c #8F8142",
"t. c #908344",
"y. c #998843",
"u. c #A09145",
"i. c #A5934C",
"p. c #A49652",
"a. c #A59953",
"s. c #B6A145",
"d. c #B9A346",
"f. c #BEAA45",
"g. c #B6A44C",
"h. c #BAA44A",
"j. c #BBA754",
"k. c #B7A855",
"l. c #BEAE50",
"z. c #B9A95C",
"x. c #BBAE64",
"c. c #BDB170",
"v. c #C6B241",
"b. c #D3BE48",
"n. c #C4B056",
"m. c #CDBB57",
"M. c #C1B35F",
"N. c #CDBC5A",
"B. c #CDBF66",
"V. c #D6C544",
"C. c #D9C544",
"Z. c #D7C74A",
"A. c #DAC64A",
"S. c #DAC84F",
"D. c #D7C051",
"F. c #DBC954",
"G. c #D9C45F",
"H. c #DCCC5C",
"J. c #E5C543",
"K. c #EBC744",
"L. c #E8C847",
"P. c #E3C64B",
"I. c #EBC74E",
"U. c #E2C84B",
"Y. c #EBC94B",
"T. c #F2D242",
"R. c #F4DE42",
"E. c #F4DD4A",
"W. c #E4CA54",
"Q. c #EACA52",
"!. c #E2CC5A",
"~. c #EACC5A",
"^. c #F7E846",
"/. c #F5E04B",
"(. c #F9ED49",
"). c #FBF542",
"_. c #FCF945",
"`. c #FCF94B",
"'. c #F5E154",
"]. c #F8ED55",
"[. c #FCF954",
"{. c #FCFA5B",
"}. c #DDCE63",
"|. c #DDD067",
" X c #DED16B",
".X c #D9C971",
"XX c #DFD373",
"oX c #E1CF65",
"OX c #EACD61",
"+X c #E7CE68",
"@X c #E1D16C",
"#X c #E1D374",
"$X c #EDD271",
"%X c #E2D67A",
"&X c #EFD578",
"*X c #E4D780",
"=X c #E4D983",
"-X c #E6DA8A",
";X c #EFDB8E",
":X c #F0DA83",
">X c #EBDD93",
",X c #ECDE99",
"<X c #ECE29E",
"1X c #CCC7A3",
"2X c #D0CCA9",
"3X c #EDE2A6",
"4X c #EEE5AC",
"5X c #EEE6B3",
"6X c #EFE8B6",
"7X c #EDE7B9",
"8X c #EEE8BD",
"9X c #F0EBBD",
"0X c #F1EDC9",
"qX c #EEECD3",
"wX c None",
/* pixels */
"2XqX0X9X9X9X9X9X9X9X9X9X9X9X9X9X9X9X9X9X9X9X9X9X9X9X9X9X9X0XqX1X",
"qXH.H.H.H.}.}.}.}.}.|.|.|. X X X X XXXXXXXXXXXXXXXXXXXXXXXXXXXqX",
"7XF.F.F.H.H.H.H.}.}.}.}.}.|.|. X X X X X XXXXXXXXXXXXXXXXXXXXX8X",
"5XF.F.H.}.|. X|.}.}. XXX#X#XXXXX X|. XXX%X%X#X%X*X*X=X=X*X%XXX7X",
"4XZ.F.u.> > > 1 M. X7 > > , , t.#X|.|.#X, < =X< < < < < < a.%X6X",
"4XZ.F.8 . $ * o $ #X> o = > @ O p. X}.%XO O -X, < # + - < a.%X6X",
"3XV.F.8 . 8 %X. X %X> o x.-X5 O r.}.}.#XO O %X#X=X, O c.*X#X#X5X",
"<X{ S.8 . # & . > #X> X o o o @ B.}.}.#XO O %X}.#X, O x.XX X X4X",
">X{ Z.8 . # : 2 l.}.: . 4 @ X p.@Xk.y.%XO O #XH.#X, O x.@X|. X4X",
"-XA C.8   8 H.S.Z.H.; . z.z.X @ .X$ X p.X % @XH.@X, O x.@X}.}.3X",
"-Xp { 6   6 C.{ { S.; . g.H.3 X 8 i.X X X i.H.F.oX> O z.}.}.}.<X",
"*Xt C D 9 v.{ ] ] C.f.s.b.A.D.h.d.!.m.j.N.!.F.F.!.n.j.G.!.H.H.,X",
"%Xt t C [ F F F [ [ } } } -.J.J.J.J.P.U.U.P.U.U.W.W.W.W.W.W.!.>X",
"#Xt y y d K  . .P &.&.&.&.&.;.;.;.;.;.J.J.K.L.L.L.Y.Y.I.Q.Q.W.;X",
"@Xy y u u l H .. . .&.*.*.=.,.R.R.R.T.:.:.T.K.K.K.K.Y.Y.Y.Y.I.:X",
"+Xu u f f Y ~ / $.....q.)._._._.`.`.`.^.R.`.[.[.[.[.[.{.{.].'.:X",
"OXu f Y _ ' ' ' ' 2.b w.w.X.......*.=.=.*.,.R.R.(.[.E././.].E.&X",
"~.f h ` ( h f f h h f ~ <.v H K K K K P P &.*.*.R.`.;.;.;.;.J.$X",
"Q.f ^ ` f f f f f f f ~ ) f f f j l l v G G H L >._.J H H H Z ~.",
"I.f ( 2.W h g g g f g / _ g g g z E T f f u f g W 6.f f u y y P.",
"L.f T 2.2.6.6.2./ z k <.2.<.6.6.6.6.6.T j a j k E 6.g f u y e P.",
"J.f f z W / / 2.6.1.z 1.5.1.#.@.@.R R l j a j k E 6.T j u r y J.",
";.f j j j j k k @.7.! 1.4.c c c x x x x s a j k Q 7.R j a a u U ",
"*.k k j j j j k c 7.@.4.4.c v x x x x x s s x c Q 7.R j a a i U ",
"I / / k k k c c Q e.O.4.4.b v v v v v x x x x c Q 7.R j a a a P ",
"L #.7./ c c n @.0.5.b 3.0.b b b b b b v x x x c o.7.R j a a a S ",
"L z 1.7.7.e.e.e.3.b b +.e.0.9.9.9.9.9.| G x x v | 5.b x s a a S ",
"H j c R @.@.@.J v G G J +.8.9.9.9.9.%.J G G G v v c x x s s a V ",
"V x x x c v v G G G G G J J J J J J J G G V V G G x x x s s s V ",
"M s x x x x G G V V V G G G G G G G G G V V V V G V s s s s s M ",
"w s s s s V V V V V V V G G G G G G G V V V V V V V V s s s s q ",
"wX0 s V N m m m m B B B B B B B B B B B B B B m m m N V V s 0 wX"
};
