/* XPM */
static char *PrntSel[] = {
/* columns rows colors chars-per-pixel */
"32 32 232 2",
"   c #2F0000",
".  c #340000",
"X  c #390200",
"o  c #3D0B08",
"O  c #420B08",
"+  c #4C160F",
"@  c #4B1710",
"#  c #552117",
"$  c #57231A",
"%  c #5D2C1E",
"&  c #602D1F",
"*  c #622E22",
"=  c #633124",
"-  c #6C392A",
";  c #74422E",
":  c #754330",
">  c #7E4E37",
",  c #BC431B",
"<  c #864F2D",
"1  c #804F3A",
"2  c #875537",
"3  c #8A5234",
"4  c #875639",
"5  c #89573B",
"6  c #8A593E",
"7  c #D25712",
"8  c #D25914",
"9  c #CB6603",
"0  c #C86A07",
"q  c #D66404",
"w  c #DC6405",
"e  c #D36803",
"r  c #DC6B04",
"t  c #DF6408",
"y  c #DD6414",
"u  c #CD7216",
"i  c #D47210",
"p  c #DB7215",
"a  c #DE751B",
"s  c #E16606",
"d  c #E56B05",
"f  c #EA6C06",
"g  c #E4660A",
"h  c #E5690A",
"j  c #EA6C0C",
"k  c #F06F0C",
"l  c #ED7205",
"z  c #ED7D06",
"x  c #E6720A",
"c  c #ED710D",
"v  c #EF7B0C",
"b  c #F0720D",
"n  c #F27E0F",
"m  c #E26612",
"M  c #E46B15",
"N  c #EA6E13",
"B  c #E4631B",
"V  c #E57117",
"C  c #EB7214",
"Z  c #EC7914",
"A  c #E6741C",
"S  c #E9761B",
"D  c #E47A1B",
"F  c #EB7B1F",
"G  c #F07411",
"H  c #F17E14",
"J  c #D17B22",
"K  c #DD7F24",
"L  c #D57D28",
"P  c #E77F23",
"I  c #E97D23",
"U  c #EA7E2A",
"Y  c #8D5C43",
"T  c #8F614A",
"R  c #906047",
"E  c #9B6840",
"W  c #93654B",
"Q  c #9E6C4B",
"!  c #A26E4C",
"~  c #AD754E",
"^  c #B5794B",
"/  c #EF8109",
"(  c #F18D07",
")  c #F2840C",
"_  c #F2890C",
"`  c #F4940B",
"'  c #F59C0F",
"]  c #F28314",
"[  c #F48C14",
"{  c #F28A19",
"}  c #F69314",
"|  c #F79B15",
" . c #F89E15",
".. c #F39019",
"X. c #F69918",
"o. c #F7A00C",
"O. c #F7AF0B",
"+. c #F8AB0F",
"@. c #FAB30F",
"#. c #FBBE0E",
"$. c #F8A315",
"%. c #F6AC10",
"&. c #F9AE12",
"*. c #F7A719",
"=. c #F5AF1C",
"-. c #F9AD1A",
";. c #FAB214",
":. c #FCBE13",
">. c #FAB419",
",. c #FBBC19",
"<. c #D6832F",
"1. c #DB822C",
"2. c #D48532",
"3. c #DC8631",
"4. c #DF8739",
"5. c #D58A3B",
"6. c #DC8B3D",
"7. c #E58226",
"8. c #EA8324",
"9. c #ED8B24",
"0. c #E4842B",
"q. c #EA852A",
"w. c #E6892F",
"e. c #EF982C",
"r. c #F19423",
"t. c #F39E24",
"y. c #F29D2E",
"u. c #E38534",
"i. c #E88131",
"p. c #E38934",
"a. c #EA8C34",
"s. c #E18739",
"d. c #E58B3C",
"f. c #EC8F38",
"g. c #EB923C",
"h. c #F39F30",
"j. c #F5AF2D",
"k. c #F8BE26",
"l. c #F6B62A",
"z. c #F3A135",
"x. c #F4AE31",
"c. c #F0A23A",
"v. c #F4B233",
"b. c #F5B833",
"n. c #F5BD3C",
"m. c #FCC115",
"M. c #FCC51C",
"N. c #FACB23",
"B. c #FACA2C",
"V. c #FCD023",
"C. c #FCD32B",
"Z. c #F7C437",
"A. c #F8C330",
"S. c #F8C836",
"D. c #F8C439",
"F. c #FCD731",
"G. c #FCDA35",
"H. c #F9D13D",
"J. c #FCDE3C",
"K. c #B5855D",
"L. c #B8845B",
"P. c #B68962",
"I. c #B88B67",
"U. c #B88C69",
"Y. c #CE8F4F",
"T. c #D68D41",
"R. c #DE8D42",
"E. c #D39147",
"W. c #DC9045",
"Q. c #D5954C",
"!. c #DD934C",
"~. c #DF994F",
"^. c #CB925C",
"/. c #D39750",
"(. c #DB9751",
"). c #D49A55",
"_. c #DB9954",
"`. c #D69D5B",
"'. c #DC9C5A",
"]. c #E58D42",
"[. c #E39244",
"{. c #EA9140",
"}. c #E09248",
"|. c #E8914A",
" X c #E1984E",
".X c #E99652",
"XX c #E19A51",
"oX c #E49D59",
"OX c #DBA05E",
"+X c #F5BA40",
"@X c #C08F63",
"#X c #C09066",
"$X c #CC9B6C",
"%X c #C39772",
"&X c #E79F60",
"*X c #D7A161",
"=X c #DAA264",
"-X c #DAA66A",
";X c #DBA96F",
":X c #CFA37A",
">X c #D4A471",
",X c #DCAB73",
"<X c #DEAE79",
"1X c #DFB27F",
"2X c #E2A263",
"3X c #E3A66C",
"4X c #ECA468",
"5X c #E0A96E",
"6X c #ECA771",
"7X c #E2AB73",
"8X c #E3AF7A",
"9X c #ECAE79",
"0X c #E0B17D",
"qX c #EEB27F",
"wX c #E1B483",
"eX c #E6B886",
"rX c #EDB688",
"tX c #EABC8F",
"yX c #ECBF96",
"uX c #CCBAA5",
"iX c #EBC39B",
"pX c #E9C7A3",
"aX c #EECAA3",
"sX c #ECCDAB",
"dX c #EACFB1",
"fX c #EDD2B6",
"gX c #EDD6BB",
"hX c #EED8BD",
"jX c #EFDDC7",
"kX c #F0DDC9",
"lX c #ECDFD0",
"zX c #EEE2D3",
/* pixels */
"uXlXjXgXgXgXgXgXgXgXgXgXgXgXhXhXhXhXhXhXhXhXhXhXhXhXhXhXhXkXzXuX",
"zX).`.`.`.`.`.`.*X*X=X=X=X-X-X-X-X-X;X;X;X;X,X,X,X,X,X,X,X,X;XzX",
"fX/./.).).).).`.`.`.`.*X*X*X=X=X=X-X-X-X-X-X;X;X;X;X;X;X;X;X,XgX",
"dXQ.`.=X-X-X-X`.`.=X;X,X,X,X,X-X-X,X,X-X-X<X<X<X1XwXwXwXwX1X<XfX",
"sX/.2 . . . o Q =X6 . . . . @ #XK.. $ <X,X= X U.X X X X X X P.fX",
"sXQ.5 . % > . o ;XY . * Y - . - I.X X Y 0X* X :XY T X X W R $XfX",
"pXQ.4 . 5 >X. . ;X6 . : P.1 . - P.. . . %X* X 0X;XwXX X wX,X;XsX",
"iXE.4   . . . ; =X6 . . . . @ @XK.. - O $ * X ,X*X<XX X 0X=X-XsX",
"tXT.2 . % 4 E Y.(.5 . ; ; . & ;XL.. Y W X X X ,X'.7XX X 8X=X=XaX",
"eX2.2 . 2 (.T.5.Q.5 . 5 -X# . ! L.. 6 7X* X X 5X_.5XX X 7XOX*XaX",
"wXu < . < 5.2.2.T.3 . 3 !.^ . + ~ X 3 '.^.O X 2X(.=XX X 3X'.'.iX",
"8X0 J T.5.2.<.<.2.R.!.W.6.W.~.XX XXX X}. XoXoXXX!._.2X2X'._.'.yX",
"7X9 9 u L L 1.1.1.1.3.3.3.p.p.p.d.d.d.d.[.[.[.[.}.}.!.!.!.~.(.tX",
"3X9 9 9 i K 7.7.0.0.0.0.0.w.a.a.a.f.f.g.g.g.g.{.{.[.}.W.!.!.!.rX",
"4X9 9 e r r D 8.8.8.8.q.q.e.x.b.S.J.J.J.H.n.g.+Xg.d.].R.R.R.W.qX",
"&X9 e r r d z %.N.C.B.l.9.j.F.A.j.x.v.v.Z.D.z.J.c.d.d.s.6.R.R.9X",
"oXq w d d ( #.O.` ' =.k.9.t.C.8.7.7.7.q.q.q.h.J.z.a.p.s.4.s.s.6X",
".Xq w d z #.` d d d d d x [ V.8.P P 7.7.q.q.y.G.y.q.i.u.u.u.s.4X",
"|.w s d ` #.l f d d d d d ) :.f j x c Z Z Z ..C.r.I D a a a p .X",
"].w s d ) :.@.o.` ` z f f ` :.) ` ` ` +.+._ ) :./ d t w w q q ].",
"d.w s d f _ &.:.:.m.m.' c ' m.m.m.m.m.;.&._ _ :.) h s w w w w d.",
"u.s s g h j j j j _ &.m.}  .m.] v c c j j j _ m.) h g s t s t u.",
"0.g h j j j j j j j b ,.;. .M.c j j j j j c [ m.v j h h h h g i.",
"U g j b n j j j j c G >.>. .M.C C C C N C C | m.j j j j j j g U ",
"I h j } m.] c c C G X.M.}  .M.G C C C C C G  .M.b j j k c ) j I ",
"A h j n ,.,.$.| $.,.M.*.C ..M.X.[ [ [ [ [ H  .M.[ [ | &.:.:.) F ",
"A g h j H $.,.M.M.-.[ C C Z >.M.M.M.M.M.M.X.} M.M.M.M.,.$.[ j S ",
"M g h N N N C C C C C V C C C H { { { { ] C C ] { ] N N N j h V ",
"M g m m N N N N N N M M N V C C C C C C C V C N N N N N M m g M ",
"y m m m m M M M M M M M M M M M M M M M M M M M M M M M m m m y ",
"8 m m m m m M M M M M M M M M M M M M M M M M M M M M m m m m 8 ",
", 7 m M B B B B B B B B B B B B B B B B B B B B B B B M M m 7 , "
};
