/* XPM */
static char * templated_xpm[] = {
"20 20 2 1",					 
" 	s bg c #FFFF00000000",
".	c #E7E765651A1A",
"                    ",
"                    ",
"                    ",
"                    ",
"                    ",
"         ...        ",
"       .......      ",
"       .     .      ",
"      . ..... .     ",
"      .   .   .     ",
"      .   .   .     ",
"       .     .      ",
"       .......      ",
"         ...        ",
"                    ",
"                    ",
"                    ",
"                    ",
"                    ",
"                    "};
