/* XPM */
static char * image_name[] = {
"32 32 90 1",
" 	c #C1C1C1C1C1C1",
".	c #8C8C8C8C8C8C",
"X	c #AFAFAFAFAFAF",
"o	c #000000000000",
"O	c #111111111111",
"+	c #575757575757",
"@	c #7A7A7A7A7A7A",
"#	c #9D9D9D9D9D9D",
"$	c #757575757575",
"%	c #4E4E4E4E4E4E",
"&	c #272727272727",
"*	c #696969696969",
"=	c #D8D8D8D8D8D8",
"-	c #232323232323",
";	c #606060606060",
":	c #626262626262",
">	c #3B3B3B3B3B3B",
",	c #5E5E5E5E5E5E",
"<	c #D9D9D9D9D9D9",
"1	c #8A8A8A8A8A8A",
"2	c #C4C4C4C4C4C4",
"3	c #131313131313",
"4	c #B0B0B3B3AFAF",
"5	c #8F8F98988C8C",
"6	c #A2A2B0B09D9D",
"7	c #5C5C5C5C5C5C",
"8	c #767676767676",
"9	c #B0B0B0B0B0B0",
"0	c #6D6D7D7D6969",
"q	c #0A0A2B2B0000",
"w	c #1D1D80800000",
"e	c #4F4FA9A93434",
"r	c #8888B5B57A7A",
"t	c #B2B2BEBEAFAF",
"y	c #1C1C79790000",
"u	c #2525A0A00000",
"i	c #B1B1B1B1B1B1",
"p	c #9E9E9E9E9E9E",
"a	c #9F9FA5A59D9D",
"s	c #19196C6C0000",
"d	c #B0B0B2B2AFAF",
"f	c #6C6C78786969",
"g	c #29293F3F2323",
"h	c #181869690000",
"j	c #222291910000",
"k	c #9696B8B88C8C",
"l	c #4F4F4F4F4F4F",
"z	c #898989898989",
"x	c #161627271111",
"c	c #15155B5B0000",
"v	c #1E1E84840000",
"b	c #DADADADADADA",
"n	c #B2B2B2B2B2B2",
"m	c #5D5DACAC4646",
"M	c #C5C5C5C5C5C5",
"N	c #3333A3A31111",
"B	c #7A7AB2B26969",
"V	c #30305B5B2323",
"C	c #222293930000",
"Z	c #C6C6C6C6C6C6",
"A	c #49498C8C3434",
"S	c #5D5D6F6F5757",
"D	c #20208B8B0000",
"F	c #747474747474",
"G	c #464646464646",
"H	c #636363636363",
"J	c #0A0A2C2C0000",
"K	c #11114A4A0000",
"L	c #03030D0D0000",
"P	c #17172C2C1111",
"I	c #222295950000",
"U	c #1F1F87870000",
"Y	c #0A0A2D2D0000",
"T	c #14141F1F1111",
"R	c #1B1B77770000",
"E	c #232396960000",
"W	c #15155A5A0000",
"Q	c #0D0D3B3B0000",
"!	c #232397970000",
"~	c #0E0E3C3C0000",
"^	c #343434343434",
"/	c #1C1C78780000",
"(	c #11114B4B0000",
")	c #181868680000",
"_	c #29293E3E2323",
"`	c #484848484848",
"'	c #141459590000",
"]	c #252525252525",
"[	c #1B1B76760000",
"{	c #0F0F41410000",
"                                ",
"   .X                           ",
"  .oO+@.                        ",
"  #$#%&oo+*#                    ",
"  X$===%oooo-+@#                ",
"   ;===:oooo&>oo-+.X            ",
"   ,==<1oooo:=2$&3o.  456       ",
"   7=<<8oooo8<===9o.  0qwert    ",
"   7=<<8oooo8<===9o.  0qyuuuert ",
"   +8i<poooo8<<==#o@  aqsuuuuue ",
"   *oo&:3ooo8<<==io@dfghjuuuuuk ",
"   @ooo&<8>ol<<<=zoxcvuuuuuuur  ",
"   @ooo3bbbn1n<<=#owuuuuuuuum   ",
"   @ooo3bbbb1olMMzowuuuuyuue    ",
"   #ooo3bbbb1ooo&%owuNBVqCNt    ",
"   X>3ooZbbb1ooooooAr  SqDk     ",
"    F<13nbbbpooooooX   5Sk      ",
" .  ,=<<pZbbpooooooX            ",
".oGX,=<<>oHnnooooooX            ",
"#JKL&2=<looo>&ooooo             ",
" PIUY&8=%ooo&<:&ooo             ",
" TREEWL&%ooo&<<<13o             ",
"  -QEE!~oooo&<<<=zO             ",
"   ^UEE/oOoo&<<==8O             ",
"   ^R(~/o.-oo====zo             ",
"   *)KO_o# .`z2==zo             ",
"   @')-#^X  #*]#=z-             ",
"   .KR^       #G:%O             ",
"   #K[-         @O-             ",
"    -{O          X@             ",
"     +O                         ",
"                                "};
