/* XPM */
static char *qube_[] = {
/* columns rows colors chars-per-pixel */
"32 32 176 2",
"   c #BF2300",
".  c #BB3902",
"X  c #BD3619",
"o  c #B32423",
"O  c #BD3F28",
"+  c #C32700",
"@  c #C72F00",
"#  c #C93500",
"$  c #CB3C00",
"%  c #BC420E",
"&  c #BA4512",
"*  c #C04006",
"=  c #CB4200",
"-  c #CF4B00",
";  c #C9440D",
":  c #D04400",
">  c #D14B00",
",  c #D45300",
"<  c #D55C00",
"1  c #D25B08",
"2  c #D66100",
"3  c #D96400",
"4  c #D76900",
"5  c #DB6B00",
"6  c #D1670F",
"7  c #DC7200",
"8  c #DD7B00",
"9  c #E07D00",
"0  c #C75928",
"q  c #C44D32",
"w  c #C65332",
"e  c #D37B24",
"r  c #CB6530",
"t  c #CB6B35",
"y  c #BA6949",
"u  c #BA7673",
"i  c #C36345",
"p  c #C87049",
"a  c #C97C63",
"s  c #4F8D00",
"d  c #549100",
"f  c #5D9700",
"g  c #569008",
"h  c #649C00",
"j  c #689E00",
"k  c #6B9D16",
"l  c #6A991F",
"z  c #6BA200",
"x  c #6DA20B",
"c  c #71A500",
"v  c #75A900",
"b  c #7BAD00",
"n  c #79AA0D",
"m  c #7EB000",
"M  c #70A015",
"N  c #7DAA1B",
"B  c #6B962F",
"V  c #7CA72D",
"C  c #82B100",
"Z  c #8AB600",
"A  c #8DB801",
"S  c #94BC00",
"D  c #99BE01",
"F  c #90B808",
"G  c #9BBE09",
"H  c #95B91B",
"J  c #86AC24",
"K  c #96B925",
"L  c #82A63E",
"P  c #9DBB3C",
"I  c #DE8300",
"U  c #DF8900",
"Y  c #D8800A",
"T  c #E18400",
"R  c #E28A00",
"E  c #D7852A",
"W  c #9DC300",
"Q  c #9EC30E",
"!  c #A3C600",
"~  c #A8C700",
"^  c #A7C800",
"/  c #AACA00",
"(  c #A1C315",
")  c #A4C224",
"_  c #ACC73D",
"`  c #8BAB46",
"'  c #8AAB48",
"]  c #8DB048",
"[  c #86A350",
"{  c #8BA651",
"}  c #90AE52",
"|  c #A5BE44",
" . c #A0BB5C",
".. c #83817D",
"X. c #BF8D78",
"o. c #BE927E",
"O. c #8CA460",
"+. c #9BB361",
"@. c #99AC76",
"#. c #9FB472",
"$. c #A9BE67",
"%. c #ADBC6E",
"&. c #A3B675",
"*. c #A4B37D",
"=. c #D4964F",
"-. c #D69C4F",
";. c #D18C54",
":. c #D59750",
">. c #D69E51",
",. c #D7A150",
"<. c #CF976A",
"1. c #C68B73",
"2. c #CD987C",
"3. c #D7AC7A",
"4. c #ACC35F",
"5. c #B0C652",
"6. c #B8CB61",
"7. c #B6C673",
"8. c #A4B182",
"9. c #AAB985",
"0. c #AFBC8C",
"q. c #ACB492",
"w. c #B5BE97",
"e. c #B1B49E",
"r. c #B7BC9C",
"t. c #BEBCB5",
"y. c #BFBEBC",
"u. c #C49D90",
"i. c #DCBE95",
"p. c #CFAFA1",
"a. c #C7B2A7",
"s. c #D7BEA7",
"d. c #D0BDAD",
"f. c #C1BEB4",
"g. c #C8BDB5",
"h. c #CABFB8",
"j. c #B4C483",
"k. c #BDCA85",
"l. c #BCC790",
"z. c #BFC6A3",
"x. c #C0CC87",
"c. c #C7CEA1",
"v. c #C1C2AE",
"b. c #C6CBAB",
"n. c #D9C2AB",
"m. c #D0D8A8",
"M. c #C4C5B5",
"N. c #CCC0B6",
"B. c #C8C9B3",
"V. c #C5C1BA",
"C. c #CAC4BC",
"Z. c #D7C9BF",
"A. c #CFD4B2",
"S. c #CED1B9",
"D. c #C5C4C3",
"F. c #CAC6C0",
"G. c #CECAC4",
"H. c #D1CDC6",
"J. c #D3CFC9",
"K. c #D4D5C7",
"L. c #DCD0C2",
"P. c #D6D2CC",
"I. c #D9D4CF",
"U. c #D7D5D0",
"Y. c #D9D6D1",
"T. c #DDDAD5",
"R. c #DFDCD9",
"E. c #E1DEDA",
"W. c #E4E1DE",
"Q. c #E6E4E1",
"!. c #E9E6E3",
"~. c #EBE9E6",
"^. c #EEECEA",
"/. c #F1EFED",
"(. c #F1F0EE",
"). c #F4F3F2",
/* pixels */
"D.(.).).).).).).).).).).).).).).).).).).).).).).).).).).).).).y.",
").Q.!.!.!.!.!.~.~.~.~.~.~.^.^.^.^.^.^.^.^.^.^.^.^.^.^.^.^.^.^.).",
"(.Q.Q.Q.Q.!.!.!.!.Q.W.W.W.W.W.W.W.W.Q.Q.!.^.^.^.^.^.^.^.^.^.^.).",
"(.W.W.W.Q.Q.Q.!.W.n.:.=.-.-.-.-.,.,.>.>.i.~.~.^.^.^.^.^.^.^.^.).",
"(.W.W.W.W.W.Q.W.Y.e 5 7 8 T R R R U I Y L.Q.m.Q.~.^.^.^.^.^.^.).",
"/.E.W.W.W.W.W.T.<.2 5 7 9 T T T I I 8 3.W.K.Q x.Q.^.^.^.^.^.^.).",
"^.E.E.E.E.W.R.d.1 3 7 7 8 8 8 8 8 8 E T.W.6.W Q K.!.^.^.^.^.^.).",
"^.R.E.E.E.E.U.t < 5 5 5 5 7 7 7 7 7 s.W.A.! ^ ! 5.E.~.~.~.^.^.(.",
"~.T.R.R.E.Y.2.> < < 3 3 5 5 5 4 4 ;.R.R._ ^ / / ! c.Q.~.~.~.~.(.",
"!.Y.T.T.T.N.; , , , , < < 2 < 2 6 Z.R.k.! ~ / / ^ ) T.!.~.~.~./.",
"!.H.T.T.P.i $ : > > , , , < , < 2.R.K.( ! / / / / W 7.E.!.!.~./.",
"Q.H.P.I.u.+ $ $ $ = - - - - - r Y.T.4.W ! ~ / / / ! G S.W.!.!.^.",
"Q.H.G.V.X   @ # # $ $ = $ = = p.T.b.D W ! ^ / / / ^ D | T.Q.!.^.",
"W.H.G.u o O q q q w w w w w a Y.U.P S W ! ^ ^ / ^ ^ D S l.E.Q.~.",
"W.H.G.C.V.F.P.P.P.P.I.I.I.U.T.T.j.A S D W ! ^ ~ ^ ! D S H Y.W.~.",
"W.H.G.C.V.V.F.G.J.P.P.P.P.P.Y.T.b.A S D W W ! ! ^ ! S S P Y.W.~.",
"E.H.G.@.s d h h h z b C C C  .U.U.$.S S W W ! ! W W S F B.R.E.!.",
"E.H.G.V.B d h j z z z z v b C z.Y.H.K S D D W W W D A %.Y.E.E.Q.",
"R.H.H.F.e.g h z z z c c c c z V G.J.w.C Z Z Z S S Z J F.P.I.I.E.",
"T.H.H.H.C.O.f z z c v v v v v v #.H.G.} v v v v c h q.F.H.H.H.T.",
"T.H.H.H.G.V.l z c v v b b b b b n v.J.M.N v v v z { C.H.H.H.H.T.",
"T.H.H.H.H.G.q.h c v v b b b b b b ] G.J.9.v v v M t.H.H.H.H.H.T.",
"Y.H.H.H.J.H.F.[ h v b b m m m m b b 0.P.G.` v z *.G.J.J.H.H.H.Y.",
"Y.H.H.J.J.J.H.f.k z v b b C C C C m J C.P.v.x L F.H.J.J.J.H.H.Y.",
"Y.J.J.J.J.J.P.G.8.h z v b C C C C C b +.G.G.*.v.J.P.J.J.J.J.J.Y.",
"I.J.J.J.J.P.P.J.F.L j z c v v b b v c z r.H.H.H.H.P.P.J.J.J.J.I.",
"I.J.J.J.P.P.P.P.J.v.' ' ` ` ` ` ` ` ` ` &.G.N.1.g.J.P.P.J.J.J.I.",
"P.J.J.P.P.P.P.P.P.P.G.G.G.G.G.G.G.G.G.G.H.a.p 0 y G.P.P.P.J.J.P.",
"P.J.P.P.P.P.P.P.P.P.P.P.P.P.P.P.P.P.P.P.P.h.& * . a.P.P.P.P.J.P.",
"G.P.P.P.P.P.P.P.P.P.P.P.P.P.P.P.P.P.P.P.P.H.X.% o.G.P.P.P.P.P.G.",
"t.P.P.P.P.P.P.P.P.P.P.P.P.P.P.P.P.P.P.P.P.P.H.N.H.P.P.P.P.P.P.t.",
"..f.P.P.P.P.P.P.P.P.P.P.P.P.P.P.P.P.P.P.P.P.P.P.P.P.P.P.P.P.t..."
};
