/* XPM */
static char * render1_xpm[] = {
"32 32 641 2",
"  	c None",
". 	c #505D57",
"+ 	c #AAB9AB",
"@ 	c #C5D5C1",
"# 	c #C3D7BE",
"$ 	c #C3D7BF",
"% 	c #C4D8BF",
"& 	c #C4D8C0",
"* 	c #C5D8C0",
"= 	c #C7D8C0",
"- 	c #C7DAC1",
"; 	c #C7DAC3",
"> 	c #C8DAC3",
", 	c #C8DBC4",
"' 	c #C9DBC4",
") 	c #C7D6C2",
"! 	c #AAB8AB",
"~ 	c #4C5955",
"{ 	c #B2C0B3",
"] 	c #9FBF95",
"^ 	c #A1C198",
"/ 	c #A3C299",
"( 	c #A5C39C",
"_ 	c #A6C49D",
": 	c #A8C6A0",
"< 	c #AAC7A1",
"[ 	c #ACC8A4",
"} 	c #AEC9A6",
"| 	c #AFCAA7",
"1 	c #B1CBA9",
"2 	c #B2CCAA",
"3 	c #B4CEAD",
"4 	c #B5CEAE",
"5 	c #B6CFAF",
"6 	c #B8D0B1",
"7 	c #B9D1B3",
"8 	c #BAD2B3",
"9 	c #BCD3B5",
"0 	c #BCD3B6",
"a 	c #BDD4B7",
"b 	c #BED4B7",
"c 	c #BDD3B5",
"d 	c #AEBAAF",
"e 	c #B5C9B1",
"f 	c #9ABC90",
"g 	c #9BBD92",
"h 	c #9CBE94",
"i 	c #9FC096",
"j 	c #A1C199",
"k 	c #A2C29A",
"l 	c #A5C49D",
"m 	c #A6C59E",
"n 	c #A8C6A1",
"o 	c #AAC7A2",
"p 	c #ACC9A5",
"q 	c #ADCAA6",
"r 	c #AFCBA8",
"s 	c #B0CCAA",
"t 	c #B2CDAB",
"u 	c #B3CEAD",
"v 	c #B5CFAE",
"w 	c #B6D0B0",
"x 	c #B8D1B2",
"y 	c #B8D1B3",
"z 	c #BAD2B4",
"A 	c #BBD3B5",
"B 	c #BCD4B7",
"C 	c #B6CAB4",
"D 	c #B5CEB1",
"E 	c #94B88A",
"F 	c #96BB8B",
"G 	c #98BC8E",
"H 	c #99BD8F",
"I 	c #9CBF92",
"J 	c #9EC094",
"K 	c #9FC196",
"L 	c #A2C398",
"M 	c #A3C49A",
"N 	c #A5C59C",
"O 	c #A7C69E",
"P 	c #A9C8A0",
"Q 	c #AAC9A2",
"R 	c #ADCAA5",
"S 	c #AECBA6",
"T 	c #B0CCA8",
"U 	c #B1CDA9",
"V 	c #B3CEAB",
"W 	c #B4CFAD",
"X 	c #B5D0AE",
"Y 	c #B7D1B0",
"Z 	c #B8D2B2",
"` 	c #B9D3B2",
" .	c #BBD4B4",
"..	c #BBD4B5",
"+.	c #BCD5B6",
"@.	c #BDD5B6",
"#.	c #BCD2BB",
"$.	c #8EB683",
"%.	c #91B786",
"&.	c #92B887",
"*.	c #94BA8A",
"=.	c #97BB8C",
"-.	c #9CBF93",
";.	c #A8C7A1",
">.	c #ABC9A3",
",.	c #ACCAA4",
"'.	c #ADCBA6",
").	c #B0CCA9",
"!.	c #B1CDAA",
"~.	c #B3CEAC",
"{.	c #B5CFAD",
"].	c #B5D0AF",
"^.	c #B7D2B1",
"/.	c #B8D2B3",
"(.	c #B6D1AF",
"_.	c #B6D1AE",
":.	c #B8D2B1",
"<.	c #BAD3B3",
"[.	c #C3DBBE",
"}.	c #B4CEAC",
"|.	c #89B27E",
"1.	c #8AB480",
"2.	c #8CB582",
"3.	c #8EB684",
"4.	c #91B987",
"5.	c #C7D4C9",
"6.	c #CEDBCF",
"7.	c #CFDBD0",
"8.	c #CFDBD1",
"9.	c #D0DCD1",
"0.	c #D0DCD2",
"a.	c #D1DCD2",
"b.	c #D1DDD3",
"c.	c #D2DDD3",
"d.	c #D2DDD4",
"e.	c #D3DED4",
"f.	c #D3DED5",
"g.	c #CEDCCE",
"h.	c #C9DAC8",
"i.	c #C0D7BB",
"j.	c #B6D1B0",
"k.	c #B3CFAD",
"l.	c #B4D0AE",
"m.	c #C2D7BB",
"n.	c #ABCAA4",
"o.	c #83AF78",
"p.	c #85B179",
"q.	c #87B27B",
"r.	c #89B47D",
"s.	c #8EB783",
"t.	c #B0CDAA",
"u.	c #E2E5E6",
"v.	c #F5F6F6",
"w.	c #F4F4F5",
"x.	c #F1F2F3",
"y.	c #EDEEEF",
"z.	c #E0E4E3",
"A.	c #CADAC9",
"B.	c #B5D2AF",
"C.	c #B1CFA9",
"D.	c #B2D0AB",
"E.	c #B4D1AC",
"F.	c #B5D1AF",
"G.	c #B7D2B2",
"H.	c #BDD5B7",
"I.	c #A1C398",
"J.	c #7EAD71",
"K.	c #80AE74",
"L.	c #81AF76",
"M.	c #83B078",
"N.	c #88B47D",
"O.	c #ABCBA5",
"P.	c #EAECED",
"Q.	c #FFFFFF",
"R.	c #FEFEFE",
"S.	c #FAFAFB",
"T.	c #CCD9CC",
"U.	c #AFCEA8",
"V.	c #ADCDA6",
"W.	c #B0CEA8",
"X.	c #B2CFAA",
"Y.	c #B3D0AC",
"Z.	c #B4D1AD",
"`.	c #B9D4B3",
" +	c #90BA87",
".+	c #78AA6A",
"++	c #7BAB6E",
"@+	c #7BAD6F",
"#+	c #7DAE72",
"$+	c #82B177",
"%+	c #A7C9A1",
"&+	c #FCFDFD",
"*+	c #FBFBFB",
"=+	c #FCFCFC",
"-+	c #E9EBEC",
";+	c #B6D2B2",
">+	c #A8CBA1",
",+	c #ABCBA3",
"'+	c #ACCCA4",
")+	c #AECDA6",
"!+	c #B5D3B0",
"~+	c #89B67E",
"{+	c #649E56",
"]+	c #75A967",
"^+	c #77AA6A",
"/+	c #77AC6B",
"(+	c #7CB072",
"_+	c #A3C89D",
":+	c #FBFBFC",
"<+	c #E9EEEA",
"[+	c #D7E1D8",
"}+	c #D5DED7",
"|+	c #D6DFD7",
"1+	c #DDE4DF",
"2+	c #F0F1F2",
"3+	c #CBD9CC",
"4+	c #A4CA9D",
"5+	c #A5C99D",
"6+	c #A7CA9F",
"7+	c #A9CCA2",
"8+	c #AACDA3",
"9+	c #AFD0AA",
"0+	c #83B378",
"a+	c #468B35",
"b+	c #6FA662",
"c+	c #71A864",
"d+	c #72AA65",
"e+	c #77AD6B",
"f+	c #9FC699",
"g+	c #F7F7F8",
"h+	c #C0D4BF",
"i+	c #8ABA81",
"j+	c #8BBB81",
"k+	c #8EBC84",
"l+	c #95C18C",
"m+	c #B7D3B4",
"n+	c #EFF0F1",
"o+	c #F9F9F9",
"p+	c #A2C898",
"q+	c #9FC797",
"r+	c #A1C899",
"s+	c #A3C99B",
"t+	c #A5CB9D",
"u+	c #ABCDA4",
"v+	c #7CB271",
"w+	c #3C862A",
"x+	c #4F9340",
"y+	c #6BA65E",
"z+	c #6CA75F",
"A+	c #72AC66",
"B+	c #9BC594",
"C+	c #B9CFB8",
"D+	c #7FB576",
"E+	c #82B779",
"F+	c #87BA7E",
"G+	c #A2CA9C",
"H+	c #DDE5DF",
"I+	c #F9FAFA",
"J+	c #99C592",
"K+	c #99C591",
"L+	c #9BC693",
"M+	c #9DC795",
"N+	c #A1C898",
"O+	c #A5CA9D",
"P+	c #75AF6A",
"Q+	c #3A8728",
"R+	c #519743",
"S+	c #67A65A",
"T+	c #6CAA5F",
"U+	c #97C490",
"V+	c #F5F6F7",
"W+	c #BAD1B9",
"X+	c #83B878",
"Y+	c #81B877",
"Z+	c #86BA7C",
"`+	c #95C38C",
" @	c #B2D3AE",
".@	c #E6EBE8",
"+@	c #C8D7C9",
"@@	c #91C289",
"#@	c #92C289",
"$@	c #95C48C",
"%@	c #96C58E",
"&@	c #6EAB62",
"*@	c #398927",
"=@	c #388927",
"-@	c #4C963C",
";@	c #65A85A",
">@	c #93C28D",
",@	c #D1E0D3",
"'@	c #B3D1B1",
")@	c #B3D0B1",
"!@	c #B6D3B5",
"~@	c #C7D9C9",
"{@	c #E0E6E2",
"]@	c #ADCBAA",
"^@	c #89BF7F",
"/@	c #8CC183",
"(@	c #8FC285",
"_@	c #90C287",
":@	c #92C38A",
"<@	c #95C58C",
"[@	c #66A959",
"}@	c #378A26",
"|@	c #368A25",
"1@	c #358B25",
"2@	c #449436",
"3@	c #8BC085",
"4@	c #FDFDFD",
"5@	c #F7F8F8",
"6@	c #F2F3F3",
"7@	c #F6F7F7",
"8@	c #83BE7B",
"9@	c #82BD79",
"0@	c #85BE7B",
"a@	c #87C07E",
"b@	c #89C080",
"c@	c #8CC185",
"d@	c #5EA752",
"e@	c #358B24",
"f@	c #348C24",
"g@	c #338C23",
"h@	c #388F29",
"i@	c #71B069",
"j@	c #D1DCD4",
"k@	c #83BF7D",
"l@	c #78BA6F",
"m@	c #7BBB72",
"n@	c #7DBD74",
"o@	c #7FBD77",
"p@	c #82BE79",
"q@	c #85BF7C",
"r@	c #86BF7B",
"s@	c #57A44C",
"t@	c #338C22",
"u@	c #338D22",
"v@	c #328D21",
"w@	c #328E21",
"x@	c #369227",
"y@	c #6FB268",
"z@	c #E1EAE2",
"A@	c #AECFAD",
"B@	c #74BB6C",
"C@	c #70B967",
"D@	c #72B968",
"E@	c #74B969",
"F@	c #77BA6D",
"G@	c #79BC6F",
"H@	c #7BBC72",
"I@	c #7EBD75",
"J@	c #7CBD74",
"K@	c #50A147",
"L@	c #328F22",
"M@	c #319021",
"N@	c #319121",
"O@	c #359426",
"P@	c #6EB367",
"Q@	c #E5ECE6",
"R@	c #D2E1D4",
"S@	c #EEF0F1",
"T@	c #D7E5D7",
"U@	c #99CA95",
"V@	c #6EBA65",
"W@	c #6AB760",
"X@	c #6CB862",
"Y@	c #6EB964",
"Z@	c #70BA67",
"`@	c #73BB69",
" #	c #74BB6B",
".#	c #77BB6D",
"+#	c #72B76A",
"@#	c #49A142",
"##	c #309121",
"$#	c #309221",
"%#	c #309220",
"&#	c #2F9221",
"*#	c #359727",
"=#	c #6EB567",
"-#	c #A2C9A0",
";#	c #449F37",
">#	c #7BB875",
",#	c #E4E9E7",
"'#	c #E0E5E3",
")#	c #85C180",
"!#	c #5DB152",
"~#	c #5BB150",
"{#	c #52AA46",
"]#	c #53A948",
"^#	c #56AA4A",
"/#	c #50A442",
"(#	c #56A94C",
"_#	c #429F3C",
":#	c #2F9420",
"<#	c #309421",
"[#	c #2F9620",
"}#	c #359926",
"|#	c #6EB867",
"1#	c #9DC59B",
"2#	c #389B2A",
"3#	c #42A035",
"4#	c #9FC89E",
"5#	c #F8F9F9",
"6#	c #CEDCD1",
"7#	c #44A136",
"8#	c #319723",
"9#	c #309621",
"0#	c #309521",
"a#	c #319422",
"b#	c #309321",
"c#	c #439E3D",
"d#	c #3E9C38",
"e#	c #2E9720",
"f#	c #2F9721",
"g#	c #2F9821",
"h#	c #2F9922",
"i#	c #359E27",
"j#	c #6EBB68",
"k#	c #9EC79C",
"l#	c #389F2A",
"m#	c #379F29",
"n#	c #5CB153",
"o#	c #D9E1DB",
"p#	c #90C38D",
"q#	c #379E2B",
"r#	c #319A22",
"s#	c #309822",
"t#	c #2F9621",
"u#	c #3F9B39",
"v#	c #389D33",
"w#	c #2D9A20",
"x#	c #2E9B21",
"y#	c #2F9D21",
"z#	c #2F9D22",
"A#	c #34A228",
"B#	c #6EBE69",
"C#	c #9EC99D",
"D#	c #39A42D",
"E#	c #37A32B",
"F#	c #41A836",
"G#	c #8EC68C",
"H#	c #D9E3DC",
"I#	c #55AF4D",
"J#	c #319E24",
"K#	c #309D22",
"L#	c #2F9C22",
"M#	c #2F9A22",
"N#	c #2F9921",
"O#	c #3A9C34",
"P#	c #339B2E",
"Q#	c #2D9D20",
"R#	c #2E9E21",
"S#	c #2F9F21",
"T#	c #30A123",
"U#	c #36A429",
"V#	c #70C06A",
"W#	c #9FCB9D",
"X#	c #3CA82F",
"Y#	c #39A72C",
"Z#	c #3AA82E",
"`#	c #58B54F",
" $	c #CDDDCF",
".$	c #A2CCA2",
"+$	c #39A62D",
"@$	c #31A024",
"#$	c #309F22",
"$$	c #2F9C21",
"%$	c #359A2F",
"&$	c #2F9929",
"*$	c #2DA020",
"=$	c #2DA221",
"-$	c #2FA322",
";$	c #2FA424",
">$	c #36A82A",
",$	c #70C26B",
"'$	c #9FCC9E",
")$	c #3CAC30",
"!$	c #39AB2D",
"~$	c #3AAB2E",
"{$	c #42AF37",
"]$	c #8EC98C",
"^$	c #EDEFEF",
"/$	c #E2E7E4",
"($	c #57B34E",
"_$	c #31A325",
":$	c #30A223",
"<$	c #2FA123",
"[$	c #2F9F22",
"}$	c #31972B",
"|$	c #2B9724",
"1$	c #2DA320",
"2$	c #2DA522",
"3$	c #2FA622",
"4$	c #30A824",
"5$	c #36AB2C",
"6$	c #71C46C",
"7$	c #9FCE9F",
"8$	c #3CB032",
"9$	c #39AF2F",
"0$	c #3AB031",
"a$	c #54BA4C",
"b$	c #C5DCC8",
"c$	c #F4F5F6",
"d$	c #A5CFA5",
"e$	c #3BAB2F",
"f$	c #2FA623",
"g$	c #2EA423",
"h$	c #2FA122",
"i$	c #2D9526",
"j$	c #269721",
"k$	c #2DA621",
"l$	c #2DA722",
"m$	c #2EAA23",
"n$	c #30AB25",
"o$	c #36AF2B",
"p$	c #63C25E",
"q$	c #DFE1E3",
"r$	c #E7E9EA",
"s$	c #97CA97",
"t$	c #3CB332",
"u$	c #3AB230",
"v$	c #3FB536",
"w$	c #78C875",
"x$	c #E3E5E6",
"y$	c #DBDEE0",
"z$	c #57B751",
"A$	c #30A925",
"B$	c #30A723",
"C$	c #2FA422",
"D$	c #299524",
"E$	c #22961E",
"F$	c #2DA921",
"G$	c #2DAB22",
"H$	c #2EAD23",
"I$	c #2FAE25",
"J$	c #32B027",
"K$	c #3EB534",
"L$	c #6FC16B",
"M$	c #72C36E",
"N$	c #73C46F",
"O$	c #74C470",
"P$	c #74C570",
"Q$	c #71C36D",
"R$	c #53BA4C",
"S$	c #38B52E",
"T$	c #39B62F",
"U$	c #39B52F",
"V$	c #42B939",
"W$	c #69C264",
"X$	c #73C470",
"Y$	c #71C26D",
"Z$	c #6CBE68",
"`$	c #4CB345",
" %	c #30AC25",
".%	c #30AA24",
"+%	c #2FA823",
"@%	c #249520",
"#%	c #20961B",
"$%	c #2DAC21",
"%%	c #2DAE22",
"&%	c #2EAF25",
"*%	c #30B126",
"=%	c #31B428",
"-%	c #32B529",
";%	c #35B62C",
">%	c #36B62D",
",%	c #37B72E",
"'%	c #38B82F",
")%	c #39B830",
"!%	c #33B42A",
"~%	c #33B229",
"{%	c #30B127",
"]%	c #2FAE26",
"^%	c #2FAC25",
"/%	c #2FAA23",
"(%	c #22941C",
"_%	c #1D8C19",
":%	c #2CAE22",
"<%	c #2EB124",
"[%	c #2FB325",
"}%	c #2FB527",
"|%	c #31B629",
"1%	c #32B72A",
"2%	c #34B82C",
"3%	c #35B92D",
"4%	c #35B92E",
"5%	c #36BA2E",
"6%	c #37BA2F",
"7%	c #37BA30",
"8%	c #31B127",
"9%	c #30AE26",
"0%	c #1D8919",
"a%	c #1A8618",
"b%	c #30B526",
"c%	c #2FB727",
"d%	c #31B828",
"e%	c #32B929",
"f%	c #33BA2A",
"g%	c #34BA2B",
"h%	c #35BB2C",
"i%	c #35BB2D",
"j%	c #36BC2D",
"k%	c #36BC2E",
"l%	c #32B92A",
"m%	c #32B82A",
"n%	c #31B628",
"o%	c #31B126",
"p%	c #31AE26",
"q%	c #198017",
"r%	c #136514",
"s%	c #2EB325",
"t%	c #2FB826",
"u%	c #30B927",
"v%	c #30BB28",
"w%	c #31BC2A",
"x%	c #32BD2B",
"y%	c #33BD2C",
"z%	c #34BE2C",
"A%	c #34BE2D",
"B%	c #35BE2D",
"C%	c #35BE2E",
"D%	c #31BA28",
"E%	c #31B829",
"F%	c #32B428",
"G%	c #116113",
"H%	c #135E19",
"I%	c #136814",
"J%	c #1F9B1A",
"K%	c #209D1B",
"L%	c #219F1B",
"M%	c #21A21C",
"N%	c #21A41C",
"O%	c #21A51C",
"P%	c #22A51D",
"Q%	c #22A61D",
"R%	c #21A31C",
"S%	c #21A01C",
"T%	c #219E1B",
"U%	c #209B1B",
"V%	c #1F991A",
"W%	c #116313",
"X%	c #135C19",
". + @ # $ % % & * = - - ; ; > > , , ' ' ' ' ' ' ' ' ' ' ' ) ! ~ ",
"{ ] ^ / ( _ : < [ } | 1 2 3 4 5 6 7 8 9 0 a b b b b b b b b c d ",
"e f g h i j k l m n o p q r s t u v w x y z A B a a a a b b b C ",
"D E F G H I J K L M N O P Q R S T U V W X Y Z `  ...+.@.a a a #.",
"X $.%.&.*.=.-.O ;.>.,.'.).!.~.{.].^.` /.Y (._.(.:.Z <. ...@.@.[.",
"}.|.1.2.3.4.;.5.6.7.8.9.0.a.b.c.d.e.f.d.g.h.i.j.k.l.j.^.` <...m.",
"n.o.p.q.r.s.t.u.v.v.v.v.v.v.v.v.v.v.v.w.x.y.z.A.B.C.D.E.F.j.G.H.",
"I.J.K.L.M.N.O.P.Q.Q.Q.Q.Q.Q.Q.Q.Q.Q.Q.Q.Q.R.S.y.T.U.V.W.X.Y.Z.`.",
" +.+++@+#+$+%+P.Q.Q.Q.Q.R.&+*+S.S.=+R.Q.Q.Q.Q.&+-+;+>+,+'+)+U.!+",
"~+{+]+^+/+(+_+P.Q.Q.Q.Q.:+<+[+}+|+1+2+*+Q.Q.Q.Q.v.3+4+5+6+7+8+9+",
"0+a+b+c+d+e+f+P.Q.Q.Q.Q.g+h+i+j+k+l+m+n+R.Q.Q.Q.o+}+p+q+r+s+t+u+",
"v+w+x+y+z+A+B+P.Q.Q.Q.Q.v.C+D+D+E+F+G+H+=+Q.Q.Q.I+}+J+K+L+M+N+O+",
"P+Q+Q+R+S+T+U+P.Q.Q.Q.Q.V+W+X+Y+Z+`+ @.@&+Q.Q.Q.g++@@@#@$@%@K+M+",
"&@*@*@=@-@;@>@P.Q.Q.Q.Q.o+,@'@)@!@~@{@g+R.Q.Q.R.2+]@^@/@(@_@:@<@",
"[@}@}@|@1@2@3@P.Q.Q.Q.Q.4@5@6@2+x.v.*+R.Q.Q.R.7@d.8@9@0@a@b@/@c@",
"d@1@e@f@g@h@i@P.Q.Q.Q.Q.Q.Q.Q.Q.Q.Q.Q.Q.R.S.x.j@k@l@m@n@o@p@q@r@",
"s@t@u@v@w@x@y@P.Q.Q.Q.Q.R.&+=+R.Q.Q.Q.Q.:+z@A@B@C@D@E@F@G@H@I@J@",
"K@L@L@M@N@O@P@P.Q.Q.Q.Q.:+Q@R@S@S.R.Q.Q.*+T@U@V@W@X@Y@Z@`@ #.#+#",
"@###$#%#&#*#=#P.Q.Q.Q.Q.g+-#;#>#,#:+Q.Q.4@g+'#)#!#~#{#]#]#^#/#(#",
"_#:#<#[#[#}#|#P.Q.Q.Q.Q.v.1#2#3#4#6@R.Q.Q.R.5#6#7#8#9#0#0#a#b#c#",
"d#e#f#g#h#i#j#P.Q.Q.Q.Q.v.k#l#m#n#o#S.Q.Q.Q.R.x.p#q#r#s#s#9#t#u#",
"v#w#x#y#z#A#B#P.Q.Q.Q.Q.v.C#D#E#F#G#n+R.Q.Q.Q.*+H#I#J#K#L#M#N#O#",
"P#Q#R#S#T#U#V#P.Q.Q.Q.Q.v.W#X#Y#Z#`# $o+Q.Q.Q.R.w..$+$@$#$z#$$%$",
"&$*$=$-$;$>$,$P.Q.Q.Q.Q.v.'$)$!$~${$]$^$4@Q.Q.Q.=+/$($_$:$<$[$}$",
"|$1$2$3$4$5$6$P.Q.Q.Q.Q.v.7$8$9$9$0$a$b$5@Q.Q.Q.R.c$d$e$f$g$h$i$",
"j$k$l$m$n$o$p$q$2+2+2+2+r$s$t$u$u$u$v$w$x$n+2+2+2+y.y$z$A$B$C$D$",
"E$F$G$H$I$J$K$L$M$N$O$P$Q$R$S$T$T$S$U$V$W$X$N$M$Y$Y$Z$`$ %.%+%@%",
"#%$%%%&%*%=%-%;%>%,%'%'%)%'%'%'%'%'%'%'%'%'%,%>%;%!%~%{%]%^%/%(%",
"_%:%<%[%}%|%1%2%3%4%5%6%6%7%7%7%7%7%7%6%6%5%4%3%2%1%-%=%8%9%^%0%",
"a%<%[%b%c%d%e%f%g%h%i%j%k%k%k%k%k%k%k%k%j%i%h%g%f%l%m%n%=%o%p%q%",
"r%s%b%t%u%v%w%x%y%z%A%B%B%B%C%C%C%C%B%B%B%A%z%y%x%w%D%E%|%F%8%G%",
"H%I%J%K%L%M%N%N%O%P%P%P%Q%Q%Q%Q%Q%Q%Q%Q%P%P%P%O%N%R%S%T%U%V%W%X%"};
