/* XPM */
static char * render2008_icon_xpm[] = {
"31 32 132 2",
"  	c #FFFFFF",
". 	c #95C990",
"+ 	c #66AD5E",
"@ 	c #519F48",
"# 	c #4F9E46",
"$ 	c #4E9D45",
"% 	c #52A04A",
"& 	c #6BB064",
"* 	c #97CA92",
"= 	c #87C181",
"- 	c #429439",
"; 	c #4A9B42",
"> 	c #47993F",
", 	c #44963C",
"' 	c #8BC385",
") 	c #8FC689",
"! 	c #368C2D",
"~ 	c #398E30",
"{ 	c #388D2F",
"] 	c #1D7613",
"^ 	c #0B3406",
"/ 	c #092B05",
"( 	c #0A3306",
"_ 	c #092E05",
": 	c #0D3E07",
"< 	c #237B19",
"[ 	c #104E09",
"} 	c #0D3D07",
"| 	c #338929",
"1 	c #5CA754",
"2 	c #64AC5D",
"3 	c #63AB5B",
"4 	c #61AA59",
"5 	c #5FA957",
"6 	c #5EA855",
"7 	c #358B2C",
"8 	c #12580B",
"9 	c #59A450",
"0 	c #18710E",
"a 	c #15670D",
"b 	c #104F0A",
"c 	c #17700E",
"d 	c #5AA552",
"e 	c #57A34F",
"f 	c #6DB266",
"g 	c #16690D",
"h 	c #135A0B",
"i 	c #1E7715",
"j 	c #0E4508",
"k 	c #0F4809",
"l 	c #4C9C43",
"m 	c #11520A",
"n 	c #0F4909",
"o 	c #0F4B09",
"p 	c #092C05",
"q 	c #0A3106",
"r 	c #166B0D",
"s 	c #68AE60",
"t 	c #227A18",
"u 	c #0A3206",
"v 	c #051B03",
"w 	c #061D03",
"x 	c #2B8221",
"y 	c #318828",
"z 	c #061C03",
"A 	c #072104",
"B 	c #020E01",
"C 	c #031102",
"D 	c #2D8524",
"E 	c #000000",
"F 	c #2F8625",
"G 	c #030F01",
"H 	c #041302",
"I 	c #051803",
"J 	c #051A03",
"K 	c #0A2F06",
"L 	c #14600C",
"M 	c #15650C",
"N 	c #145F0C",
"O 	c #1F7816",
"P 	c #277F1E",
"Q 	c #1C7512",
"R 	c #348A2A",
"S 	c #3C9033",
"T 	c #2C8423",
"U 	c #3B8F31",
"V 	c #54A14B",
"W 	c #3D9134",
"X 	c #6AAF62",
"Y 	c #72B56B",
"Z 	c #81BE7B",
"` 	c #74B66D",
" .	c #308727",
"..	c #409337",
"+.	c #83BF7D",
"@.	c #55A24D",
"#.	c #499A40",
"$.	c #247C1A",
"%.	c #267E1D",
"&.	c #176C0D",
"*.	c #11540A",
"=.	c #12550A",
"-.	c #0B3807",
";.	c #0C3C07",
">.	c #082704",
",.	c #082805",
"'.	c #257D1B",
").	c #061E03",
"!.	c #46973D",
"~.	c #29801F",
"{.	c #2A8120",
"].	c #072504",
"^.	c #020B01",
"/.	c #43953A",
"(.	c #020C01",
"_.	c #010600",
":.	c #000400",
"<.	c #030E01",
"[.	c #020901",
"}.	c #76B76F",
"|.	c #000100",
"1.	c #092D05",
"2.	c #0E4208",
"3.	c #0D4108",
"4.	c #082905",
"5.	c #020D01",
"6.	c #000200",
"7.	c #80BD79",
"8.	c #000300",
"9.	c #072204",
"0.	c #85C07F",
"a.	c #031002",
"    . + @ # # # # # # # # # # # # # # # # # # # # $ % & *     ",
"  = - ; # # $ $ $ $ $ $ $ $ $ $ $ $ $ $ $ $ $ $ $ $ # > , '   ",
") ! ~ { ] ^ / ( ( ( ( ( ( ( ( ( ( ( ( ( ( ( ( ( _ : < { { { * ",
"; < < [ } | 1 2 2 3 4 4 4 4 5 5 5 4 4 4 4 3 2 + 6 7 : 8 < < 9 ",
"0 a b c 2 & + 3 4 6 1 d 9 e e e e e e d 1 6 4 3 + f 4 g h a i ",
"j k } e & 2 5 1 e % @ $ $ l l ; l l l $ @ % e d 6 2 & 9 m n o ",
"p q r s 3 3 3 3 3 3 3 3 3 3 3 3 3 3 3 3 3 3 3 3 3 3 3 3 t q u ",
"v w x 3 3 3 3 3 3 3 3 3 3 3 3 3 3 3 3 3 3 3 3 3 3 3 3 3 y z A ",
"B C D 5 E E 3 3 3 3 3 3 3 3 3 3 3 3 E 3 3 3 3 3 3 3 3 3 F G H ",
"I v F 1 E 3 E 3 3 E 3 3 E E 3 3 3 E E 3 3 E 3 3 E 3 E 3 F J w ",
"p q F 9 E E 3 3 E 3 E 3 E 3 E 3 E 3 E 3 E 3 E 3 E E 3 3 y K K ",
"j n F e E 3 E 3 E E 3 3 E 3 E 3 E 3 E 3 E E 3 3 E 3 3 3 | o j ",
"L M F % E 3 E 3 3 E E 3 E 3 E 3 3 E E 3 3 E E 3 E 3 3 3 ! g N ",
"O < F $ 3 3 3 3 3 3 3 3 3 3 3 3 3 3 3 3 3 3 3 3 3 3 3 3 ! P Q ",
"R 7 F 3 3 3 3 3 3 3 3 3 3 3 3 3 3 3 3 3 3 3 3 3 3 3 3 3 { S T ",
"> ; F 3 3 3 3 3 3 3 3 3 3 3 3 3 3 3 3 3 3 3 3 3 3 3 3 3 U V W ",
"1 5 F 3 3 3 3 3 3 3 3 3 3 3 3 3 3 3 3 3 3 3 3 3 3 3 3 3 S & # ",
"X Y F 3 3 3 3 E E 3 3 3 E E 3 3 3 E E 3 3 3 E E E 3 3 3 W Z 5 ",
"f `  .; 3 3 3 3 3 E 3 E 3 3 E 3 E 3 3 E 3 E 3 3 E 3 3 3 ..+.5 ",
"V @.F #.3 3 3 3 3 E 3 E 3 3 E 3 E 3 3 E 3 3 E E 3 3 3 3 ..5 #.",
"~ S F ; 3 3 3 3 E 3 3 E 3 3 E 3 E 3 3 E 3 3 E 3 E 3 3 3 .., | ",
"$.%.F ; 3 3 3 E 3 3 3 E 3 3 E 3 E 3 3 E 3 E 3 3 E 3 3 3 W T O ",
"a &.F ; 3 3 E E E E 3 3 E E E 3 3 E E E 3 3 E 3 E 3 3 3 S c a ",
"[ *. .$ 3 3 3 3 3 3 3 3 3 3 3 3 3 3 3 3 3 3 3 E 3 3 3 3 { =.b ",
"-.;. .# 3 3 3 3 3 3 3 3 3 3 3 3 3 3 3 3 3 3 3 3 3 3 3 3 R } ;.",
">.,.$.V 3 3 3 3 3 3 3 3 3 3 3 3 3 3 3 3 3 3 3 3 3 3 3 3 '.,./ ",
").I [ @.@ !...U ! R F D T x ~.~.~.{.T D F R ! U ..!.@ @.j I ].",
"_ ^.H D @.# l !./...W S U U ~ { ~ ~ U S W ../.!.l @ @.< G (.} ",
"] _.:.<.Q V @.V V % # # $ $ $ $ $ $ $ $ # % V @.@.@ g ^.:.[.~.",
"}.].|.E |.G 1.2.2.2.2.2.2.2.3.3.3.2.2.2.2.2.2.2.4.5.|.E 6.].7.",
"  d 4.8.E E E E E E E E E E E E E E E E E E E E E E E 8.9.V   ",
"    0.i 4.a.^.^.^.^.^.^.^.^.^.^.^.^.^.^.^.^.^.^.^.a._ < 7.    "};
