/* XPM */
static char *distancebetween[] = {
/* width height num_colors chars_per_pixel */
"    32    32      256            2",
/* colors */
"`` c #c1c1c1",
"`. c #8ca48c",
"`# c #578857",
"`a c #005900",
"`b c #afb7af",
"`c c #236c23",
"`d c #7a9b7a",
"`e c #699169",
"`f c #116211",
"`g c #347534",
"`h c #467e46",
"`i c #9dae9d",
"`j c #989aa6",
"`k c #6969a4",
"`l c #585899",
"`m c #676798",
"`n c #23239a",
"`o c #3e3e5b",
"`p c #16473a",
"`q c #242497",
"`r c #676794",
"`s c #01410e",
"`t c #1c2458",
"`u c #365746",
"`v c #212183",
"`w c #3d4657",
"`x c #aaacb8",
"`y c #203176",
"`z c #515170",
"`A c #7b7dad",
"`B c #4b4b8a",
"`C c #8a8cbf",
"`D c #0f1b77",
"`E c #7b7bac",
"`F c #7b7bad",
"`G c #7b7bae",
"`H c #7c7caf",
"`I c #7c7cb0",
"`J c #7c7cb1",
"`K c #30306e",
"`L c #b4b4c8",
"`M c #0a144e",
"`N c #101060",
"`O c #47614c",
"`P c #58685e",
"`Q c #61616b",
"`R c #62626c",
"`S c #616169",
"`T c #61616c",
"`U c #87878c",
"`V c #000000",
"`W c #000000",
"`X c #000000",
"`Y c #000000",
"`Z c #000000",
"`0 c #000000",
"`1 c #000000",
"`2 c #000000",
"`3 c #000000",
"`4 c #000000",
"`5 c #000000",
"`6 c #000000",
"`7 c #000000",
"`8 c #000000",
".` c #000000",
".. c #000000",
".# c #000000",
".a c #000000",
".b c #000000",
".c c #000000",
".d c #000000",
".e c #000000",
".f c #000000",
".g c #000000",
".h c #000000",
".i c #000000",
".j c #000000",
".k c #000000",
".l c #000000",
".m c #000000",
".n c #000000",
".o c #000000",
".p c #000000",
".q c #000000",
".r c #000000",
".s c #000000",
".t c #000000",
".u c #000000",
".v c #000000",
".w c #000000",
".x c #000000",
".y c #000000",
".z c #000000",
".A c #000000",
".B c #000000",
".C c #000000",
".D c #000000",
".E c #000000",
".F c #000000",
".G c #000000",
".H c #000000",
".I c #000000",
".J c #000000",
".K c #000000",
".L c #000000",
".M c #000000",
".N c #000000",
".O c #000000",
".P c #000000",
".Q c #000000",
".R c #000000",
".S c #000000",
".T c #000000",
".U c #000000",
".V c #000000",
".W c #000000",
".X c #000000",
".Y c #000000",
".Z c #000000",
".0 c #000000",
".1 c #000000",
".2 c #000000",
".3 c #000000",
".4 c #000000",
".5 c #000000",
".6 c #000000",
".7 c #000000",
".8 c #000000",
"#` c #000000",
"#. c #000000",
"## c #000000",
"#a c #000000",
"#b c #000000",
"#c c #000000",
"#d c #000000",
"#e c #000000",
"#f c #000000",
"#g c #000000",
"#h c #000000",
"#i c #000000",
"#j c #000000",
"#k c #000000",
"#l c #000000",
"#m c #000000",
"#n c #000000",
"#o c #000000",
"#p c #000000",
"#q c #000000",
"#r c #000000",
"#s c #000000",
"#t c #000000",
"#u c #000000",
"#v c #000000",
"#w c #000000",
"#x c #000000",
"#y c #000000",
"#z c #000000",
"#A c #000000",
"#B c #000000",
"#C c #000000",
"#D c #000000",
"#E c #000000",
"#F c #000000",
"#G c #000000",
"#H c #000000",
"#I c #000000",
"#J c #000000",
"#K c #000000",
"#L c #000000",
"#M c #000000",
"#N c #000000",
"#O c #000000",
"#P c #000000",
"#Q c #000000",
"#R c #000000",
"#S c #000000",
"#T c #000000",
"#U c #000000",
"#V c #000000",
"#W c #000000",
"#X c #000000",
"#Y c #000000",
"#Z c #000000",
"#0 c #000000",
"#1 c #000000",
"#2 c #000000",
"#3 c #000000",
"#4 c #000000",
"#5 c #000000",
"#6 c #000000",
"#7 c #000000",
"#8 c #000000",
"a` c #000000",
"a. c #000000",
"a# c #000000",
"aa c #000000",
"ab c #000000",
"ac c #000000",
"ad c #000000",
"ae c #000000",
"af c #000000",
"ag c #000000",
"ah c #000000",
"ai c #000000",
"aj c #000000",
"ak c #000000",
"al c #000000",
"am c #000000",
"an c #000000",
"ao c #000000",
"ap c #000000",
"aq c #000000",
"ar c #000000",
"as c #000000",
"at c #000000",
"au c #000000",
"av c #000000",
"aw c #000000",
"ax c #000000",
"ay c #000000",
"az c #000000",
"aA c #000000",
"aB c #000000",
"aC c #000000",
"aD c #000000",
"aE c #000000",
"aF c #000000",
"aG c #000000",
"aH c #000000",
"aI c #000000",
"aJ c #000000",
"aK c #000000",
"aL c #000000",
"aM c #000000",
"aN c #000000",
"aO c #000000",
"aP c #000000",
"aQ c #000000",
"aR c #000000",
"aS c #000000",
"aT c #000000",
"aU c #000000",
"aV c #000000",
"aW c #000000",
"aX c #000000",
"aY c #000000",
"aZ c #000000",
"a0 c #000000",
"a1 c #000000",
"a2 c #000000",
"a3 c #000000",
"a4 c #000000",
"a5 c #000000",
"a6 c #000000",
"a7 c #000000",
"a8 c #000000",
/* pixels */
"````````````````````````````````````````````````````````````````",
"`````````````````````````.`#`#`#`#`#`#`.````````````````````````",
"`````````````````````````.`a`a`a`a`a`a`.````````````````````````",
"```````````````````````````b`b`c`c`b`b``````````````````````````",
"```````````````````````````````c`c``````````````````````````````",
"```````````````````````````````c`c``````````````````````````````",
"```````````````````````````````c`c``````````````````````````````",
"```````````````````````````````c`c`````````b````````````````````",
"```````````````````````````````c`c```````b`c`d`b````````````````",
"```````````````````e```````````c`c```````b`a`a`f`#`b````````````",
"`````````````````g`a`b```````b`.`.`#`h`g`c`a`a`a`a`a`d``````````",
"```````````````f`a`a`h`h`c`a`a`a`a`g`h`#`e`c`a`c`d`a`d``````````",
"```````````d`a`a`a`a`a`g`#`d`.`b```````````g`f```d`a`d``````````",
"`````````d`a`h`g`f`a`#`````````````````````.`````d`a`d``````````",
"`````````d`a`#```i`h`#```````````````````````````d`a`d``````````",
"`````````d`a`#```````````````````````````````````d`a`d``````````",
"`````````d`a`#```````````````````````````````````d`a`d``````````",
"`````````d`a`#```````````````````````````````````d`a`d``````````",
"`````````d`a`#```````````````````````````````````d`a`d``````````",
"`````````d`a`#```````````````````````````````````d`a`d``````````",
"`````````d`a`#```````````````````````````````````d`a`d``````````",
"`````````d`a`#`j`k`l`l`l`l`l`l`l`l`l`l`l`l`l`l`l`l`a`d`d`b``````",
"`````````d`a`#`m`n`o`o`o`o`o`o`o`o`o`o`o`o`o`o`o`o`a`p`e````````",
"`````````d`a`#`q`r`````````````````````````````````s`t`j````````",
"`````````d`a`u`v`````````````````````````````````b`g`w`l`x``````",
"`````````d`a`y`z`````````````````````````````````````A`B`C``````",
"`````````d`a`D`E`E`E`E`A`F`G`G`H`I`J`A`A`A`A`A`A`A`A`A`K`l`L````",
"```b`f`a`f`a`M`M`M`M`M`M`M`M`M`M`M`M`M`M`M`M`M`M`M`M`M`M`N`l````",
"`````i`i`i`a`O`P`Q`Q`Q`Q`Q`Q`Q`Q`Q`R`S`R`S`Q`T`T`T`Q`T`S`T`U````",
"```````````a`i``````````````````````````````````````````````````",
"```````````a`b``````````````````````````````````````````````````",
"```````````i````````````````````````````````````````````````````"
};
