/* XPM */
static char * render_xpm[] = {
"32 32 615 2",
"  	c None",
". 	c #5C666D",
"+ 	c #AABAC3",
"@ 	c #BFD5E5",
"# 	c #BCD8EC",
"$ 	c #BEDAEC",
"% 	c #BEDBEC",
"& 	c #BFDBED",
"* 	c #C0DBED",
"= 	c #C1DCED",
"- 	c #C3DCED",
"; 	c #C1D6E5",
"> 	c #A8B8C2",
", 	c #5A646A",
"' 	c #AFC0CA",
") 	c #93C0E1",
"! 	c #96C2E1",
"~ 	c #97C3E2",
"{ 	c #9AC4E2",
"] 	c #9CC5E3",
"^ 	c #9EC7E4",
"/ 	c #A0C8E4",
"( 	c #A2C9E5",
"_ 	c #A4CAE5",
": 	c #A5CBE6",
"< 	c #A7CCE6",
"[ 	c #A9CDE7",
"} 	c #ABCEE7",
"| 	c #ACCFE7",
"1 	c #AED0E8",
"2 	c #AFD1E8",
"3 	c #B1D2E9",
"4 	c #B2D2E9",
"5 	c #B4D3EA",
"6 	c #B4D4EA",
"7 	c #B5D4EA",
"8 	c #B6D5EA",
"9 	c #ACBCC4",
"0 	c #ADC9DD",
"a 	c #8DBDDF",
"b 	c #8FBEE0",
"c 	c #91BFE0",
"d 	c #93C1E1",
"e 	c #96C2E2",
"f 	c #9AC5E3",
"g 	c #9BC6E3",
"h 	c #9FC8E4",
"i 	c #A2CAE5",
"j 	c #AACEE7",
"k 	c #ACCFE8",
"l 	c #AFD1E9",
"m 	c #B0D2E9",
"n 	c #B2D3E9",
"o 	c #B3D3EA",
"p 	c #B5D5EA",
"q 	c #B1CADA",
"r 	c #ADCEE3",
"s 	c #87B9DD",
"t 	c #89BCDD",
"u 	c #8CBDDE",
"v 	c #8DBEDE",
"w 	c #90C0DF",
"x 	c #92C1E0",
"y 	c #94C2E0",
"z 	c #96C4E1",
"A 	c #98C5E1",
"B 	c #9BC6E2",
"C 	c #9CC7E2",
"D 	c #9FC9E3",
"E 	c #A0CAE4",
"F 	c #A3CBE4",
"G 	c #A4CCE5",
"H 	c #A6CDE5",
"I 	c #A8CEE6",
"J 	c #A9CFE6",
"K 	c #ABD0E6",
"L 	c #ADD1E7",
"M 	c #AED2E7",
"N 	c #B0D3E8",
"O 	c #B1D3E8",
"P 	c #B3D4E9",
"Q 	c #B3D5E9",
"R 	c #B4D5E9",
"S 	c #B5D6E9",
"T 	c #B7D2E3",
"U 	c #ADD0E7",
"V 	c #81B7DB",
"W 	c #83B9DC",
"X 	c #85B9DC",
"Y 	c #88BBDD",
"Z 	c #8ABCDD",
"` 	c #9CC7E3",
" .	c #9FC8E3",
"..	c #A2CBE4",
"+.	c #A4CBE5",
"@.	c #A7CDE6",
"#.	c #A7CEE6",
"$.	c #AACFE7",
"%.	c #ABD0E7",
"&.	c #AFD2E7",
"*.	c #B0D2E8",
"=.	c #AED1E7",
"-.	c #AFD2E8",
";.	c #B2D4E8",
">.	c #BDDBEB",
",.	c #ABCFE7",
"'.	c #7BB4D9",
").	c #7DB5DA",
"!.	c #7EB6DA",
"~.	c #81B8DB",
"{.	c #84BADC",
"].	c #9DC8E3",
"^.	c #C3D5DF",
"/.	c #CBDBE5",
"(.	c #CCDCE5",
"_.	c #CDDCE5",
":.	c #CEDCE5",
"<.	c #CEDDE5",
"[.	c #CFDDE6",
"}.	c #CFDEE6",
"|.	c #D0DEE6",
"1.	c #CFDDE5",
"2.	c #CADCE8",
"3.	c #C4DBE8",
"4.	c #B9D8EB",
"5.	c #ADD2E7",
"6.	c #AAD0E6",
"7.	c #ACD1E7",
"8.	c #AED2E8",
"9.	c #BAD8EB",
"0.	c #74B0D8",
"a.	c #77B3D7",
"b.	c #78B4D8",
"c.	c #7BB5D9",
"d.	c #80B9DA",
"e.	c #A6CEE6",
"f.	c #E2E5E6",
"g.	c #F5F6F6",
"h.	c #F4F4F5",
"i.	c #F1F2F3",
"j.	c #EDEEEF",
"k.	c #E0E4E7",
"l.	c #C5DAE5",
"m.	c #ADD2E6",
"n.	c #A8CFE5",
"o.	c #A9D0E5",
"p.	c #ABD1E6",
"q.	c #AFD3E8",
"r.	c #B6D5E9",
"s.	c #95C4DF",
"t.	c #6FAED5",
"u.	c #71AFD6",
"v.	c #72B1D6",
"w.	c #74B2D7",
"x.	c #7AB5D8",
"y.	c #A2CCE4",
"z.	c #EAECED",
"A.	c #FFFFFF",
"B.	c #FEFEFE",
"C.	c #FAFAFB",
"D.	c #C9DAE2",
"E.	c #A6CEE3",
"F.	c #A3CDE4",
"G.	c #A7CFE5",
"H.	c #A8D0E5",
"I.	c #AAD1E5",
"J.	c #ACD2E6",
"K.	c #B1D5E7",
"L.	c #85BBDB",
"M.	c #68ABD3",
"N.	c #6BACD3",
"O.	c #6CAED4",
"P.	c #6EB0D5",
"Q.	c #74B3D6",
"R.	c #9DCAE3",
"S.	c #FCFDFD",
"T.	c #FBFBFB",
"U.	c #FCFCFC",
"V.	c #E9EBEC",
"W.	c #AFD3E3",
"X.	c #9ECCE2",
"Y.	c #A1CCE2",
"Z.	c #A2CDE3",
"`.	c #A4CEE3",
" +	c #A6CFE5",
".+	c #ACD3E6",
"++	c #7BB7D8",
"@+	c #529FCC",
"#+	c #64AAD1",
"$+	c #67ABD2",
"%+	c #67ADD2",
"&+	c #6EB1D4",
"*+	c #99C9E1",
"=+	c #FBFBFC",
"-+	c #E8EEF1",
";+	c #D5E1E7",
">+	c #D2DEE5",
",+	c #D4DFE5",
"'+	c #DCE4E8",
")+	c #F0F1F2",
"!+	c #C7D9E1",
"~+	c #9ACBE0",
"{+	c #9BCAE0",
"]+	c #9CCBE1",
"^+	c #9FCDE2",
"/+	c #A1CDE2",
"(+	c #A6D1E4",
"_+	c #73B4D5",
":+	c #308DC3",
"<+	c #5EA8D0",
"[+	c #61AACF",
"}+	c #61ABD0",
"|+	c #67AED1",
"1+	c #94C7E0",
"2+	c #F7F7F8",
"3+	c #BAD5E1",
"4+	c #7DBCD7",
"5+	c #7EBCD8",
"6+	c #81BED9",
"7+	c #89C2DB",
"8+	c #B0D3E3",
"9+	c #EFF0F1",
"0+	c #F9F9F9",
"a+	c #D4DEE4",
"b+	c #96C9DE",
"c+	c #94C8DE",
"d+	c #97C9DF",
"e+	c #98CADF",
"f+	c #9BCCE0",
"g+	c #A0CDE0",
"h+	c #6DB2D2",
"i+	c #2588BF",
"j+	c #3B95C5",
"k+	c #5AA8CD",
"l+	c #5BA9CD",
"m+	c #61ADCF",
"n+	c #8FC6DE",
"o+	c #B3D0DC",
"p+	c #71B6D4",
"q+	c #72B7D3",
"r+	c #74B8D4",
"s+	c #79BCD6",
"t+	c #97CCDF",
"u+	c #DCE5E9",
"v+	c #F9FAFA",
"w+	c #D3DEE4",
"x+	c #8FC6DB",
"y+	c #8DC6DC",
"z+	c #90C7DC",
"A+	c #92C8DD",
"B+	c #9ACADF",
"C+	c #66B0D1",
"D+	c #2389BD",
"E+	c #3D99C5",
"F+	c #55A7CB",
"G+	c #5BABCC",
"H+	c #8BC4DC",
"I+	c #F5F6F7",
"J+	c #B4D2DD",
"K+	c #74B9D3",
"L+	c #73B9D3",
"M+	c #78BCD4",
"N+	c #88C4D9",
"O+	c #A9D4E3",
"P+	c #E5EBED",
"Q+	c #C4D7E0",
"R+	c #85C3D9",
"S+	c #86C3D8",
"T+	c #89C5D9",
"U+	c #8AC6DA",
"V+	c #8EC6DB",
"W+	c #93C9DD",
"X+	c #5EABCE",
"Y+	c #228BBC",
"Z+	c #218BBC",
"`+	c #3798C1",
" @	c #54AAC9",
".@	c #86C4DA",
"+@	c #CEE1E7",
"@@	c #ACD1DF",
"#@	c #ABD0DE",
"$@	c #AFD3DF",
"%@	c #C3DAE2",
"&@	c #DEE6E9",
"*@	c #A5CCD7",
"=@	c #7CC0D4",
"-@	c #80C2D6",
";@	c #82C3D6",
">@	c #84C3D7",
",@	c #86C4D9",
"'@	c #8BC5D9",
")@	c #56AAC9",
"!@	c #208CBB",
"~@	c #1F8CBA",
"{@	c #1E8DBA",
"]@	c #2E96BF",
"^@	c #7EC1D7",
"/@	c #FDFDFD",
"(@	c #F7F8F8",
"_@	c #F2F3F3",
":@	c #F6F7F7",
"<@	c #D0DDE0",
"[@	c #76C0D3",
"}@	c #74BED1",
"|@	c #78C0D2",
"1@	c #7AC1D4",
"2@	c #7CC1D4",
"3@	c #7FC2D5",
"4@	c #80C3D6",
"5@	c #4DA8C7",
"6@	c #1E8DB9",
"7@	c #1D8EB9",
"8@	c #1C8EB8",
"9@	c #2291BA",
"0@	c #61B1CE",
"a@	c #CFDCE1",
"b@	c #77C0D1",
"c@	c #6ABBCD",
"d@	c #6CBDCF",
"e@	c #6FBED0",
"f@	c #72BED1",
"g@	c #74C0D2",
"h@	c #77C0D2",
"i@	c #48A6C2",
"j@	c #1C8EB7",
"k@	c #1C8FB7",
"l@	c #1B8FB6",
"m@	c #1B90B6",
"n@	c #2094B8",
"o@	c #60B3CD",
"p@	c #DFEAED",
"q@	c #A7D0D8",
"r@	c #67BCCC",
"s@	c #61BAC9",
"t@	c #64BACA",
"u@	c #65BACA",
"v@	c #68BCCC",
"w@	c #6BBDCD",
"x@	c #6CBDCE",
"y@	c #70BFD0",
"z@	c #6EBECF",
"A@	c #43A2BF",
"B@	c #1B91B6",
"C@	c #1A92B5",
"D@	c #1A93B5",
"E@	c #1F96B6",
"F@	c #5FB5CC",
"G@	c #E3ECEF",
"H@	c #D0E1E6",
"I@	c #EEF0F1",
"J@	c #D4E6E9",
"K@	c #8FCBD4",
"L@	c #5FBBC8",
"M@	c #5AB9C6",
"N@	c #5CBAC7",
"O@	c #5EBAC8",
"P@	c #61BBC9",
"Q@	c #63BCCA",
"R@	c #65BDCA",
"S@	c #69BCCB",
"T@	c #66B9CA",
"U@	c #3DA2BB",
"V@	c #1994B5",
"W@	c #1994B4",
"X@	c #1F99B6",
"Y@	c #5FB7CC",
"Z@	c #9AC9D5",
"`@	c #30A1BB",
" #	c #6EB9CB",
".#	c #E4E9EB",
"+#	c #DFE5E7",
"@#	c #79C2CE",
"##	c #4BB2C2",
"$#	c #49B2C2",
"%#	c #3FABBE",
"&#	c #40ABC0",
"*#	c #41AAC0",
"=#	c #43ACC0",
"-#	c #3CA5BF",
";#	c #46AAC0",
">#	c #37A0B8",
",#	c #1896B3",
"'#	c #1996B3",
")#	c #1898B2",
"!#	c #1998B2",
"~#	c #1F9BB3",
"{#	c #5FB9CA",
"]#	c #94C6D0",
"^#	c #239DB5",
"/#	c #2DA2B9",
"(#	c #97C9D4",
"_#	c #F8F9F9",
":#	c #CCDDE0",
"<#	c #2FA3B9",
"[#	c #1B99B3",
"}#	c #1A98B2",
"|#	c #1A97B3",
"1#	c #1997B3",
"2#	c #1A96B4",
"3#	c #1995B4",
"4#	c #389FB9",
"5#	c #319EB5",
"6#	c #1899B1",
"7#	c #1999B2",
"8#	c #199AB1",
"9#	c #199BB1",
"0#	c #1FA0B2",
"a#	c #5FBCCA",
"b#	c #95C8D0",
"c#	c #22A1B3",
"d#	c #21A1B3",
"e#	c #4AB3C2",
"f#	c #D7E1E4",
"g#	c #86C4CD",
"h#	c #229FB5",
"i#	c #1A9CB1",
"j#	c #1A9AB1",
"k#	c #1A9AB2",
"l#	c #329DB6",
"m#	c #2C9EB2",
"n#	c #179CB0",
"o#	c #189DB0",
"p#	c #199EB0",
"q#	c #199FB0",
"r#	c #1FA3B1",
"s#	c #60BFC9",
"t#	c #96CAD0",
"u#	c #24A6B2",
"v#	c #22A5B1",
"w#	c #2DAAB5",
"x#	c #84C8CE",
"y#	c #D8E3E6",
"z#	c #44B1BE",
"A#	c #1BA0B0",
"B#	c #1A9FB0",
"C#	c #199DB1",
"D#	c #199CB1",
"E#	c #2E9DB3",
"F#	c #279CAE",
"G#	c #189FAF",
"H#	c #19A0AF",
"I#	c #1AA1AE",
"J#	c #1AA3AF",
"K#	c #22A6B0",
"L#	c #61C0C8",
"M#	c #97CBCF",
"N#	c #27AAB1",
"O#	c #24A9B0",
"P#	c #26AAB1",
"Q#	c #46B7BD",
"R#	c #CADDE0",
"S#	c #9BCCD1",
"T#	c #25A8B2",
"U#	c #1BA2B0",
"V#	c #1AA1AF",
"W#	c #299BAF",
"X#	c #229BAB",
"Y#	c #19A1AD",
"Z#	c #1AA4AD",
"`#	c #1BA4AD",
" $	c #1CA6AD",
".$	c #22A9AF",
"+$	c #61C3C7",
"@$	c #97CDCF",
"#$	c #28AEB0",
"$$	c #25ADAF",
"%$	c #26ADAF",
"&$	c #2FB1B3",
"*$	c #83CACC",
"=$	c #EDEFEF",
"-$	c #E1E7E9",
";$	c #46B4BB",
">$	c #1DA5AD",
",$	c #1BA3AE",
"'$	c #2499AD",
")$	c #1D9AA8",
"!$	c #1AA5AC",
"~$	c #1BA7AC",
"{$	c #1CA8AC",
"]$	c #1DAAAC",
"^$	c #24ADAF",
"/$	c #62C6C7",
"($	c #98CECF",
"_$	c #29B1B0",
":$	c #26B1AF",
"<$	c #28B1B0",
"[$	c #43BBBA",
"}$	c #C2DCDD",
"|$	c #F4F5F6",
"1$	c #9ED0D2",
"2$	c #28ADB0",
"3$	c #1CA8AD",
"4$	c #1BA6AD",
"5$	c #1AA3AE",
"6$	c #1F98AA",
"7$	c #1C99A6",
"8$	c #1BA8AB",
"9$	c #1CA9AB",
"0$	c #1DABAA",
"a$	c #1EADAB",
"b$	c #23B1AD",
"c$	c #55C3C1",
"d$	c #DFE1E3",
"e$	c #E7E9EA",
"f$	c #8FCAC9",
"g$	c #28B5AF",
"h$	c #26B4AE",
"i$	c #2DB7B1",
"j$	c #6CC8C5",
"k$	c #E3E5E6",
"l$	c #DBDEE0",
"m$	c #48B8B8",
"n$	c #1EAAAB",
"o$	c #1BA6AC",
"p$	c #1C97A9",
"q$	c #1B98A2",
"r$	c #1CAAAA",
"s$	c #1DACA9",
"t$	c #1EAFA9",
"u$	c #1FB0A9",
"v$	c #21B2A9",
"w$	c #2DB7AF",
"x$	c #63C2BD",
"y$	c #66C5BF",
"z$	c #68C5BF",
"A$	c #64C4BD",
"B$	c #43BCB3",
"C$	c #25B7AB",
"D$	c #26B7AB",
"E$	c #30BBB0",
"F$	c #5AC2BB",
"G$	c #67C5BF",
"H$	c #65C4BF",
"I$	c #65C2BF",
"J$	c #61C0BC",
"K$	c #3EB5B1",
"L$	c #1EAEAB",
"M$	c #1DABAB",
"N$	c #1CA9AC",
"O$	c #1B97A4",
"P$	c #1A97A0",
"Q$	c #1DAEA9",
"R$	c #1EB0A8",
"S$	c #1FB1A9",
"T$	c #20B2A8",
"U$	c #21B5A9",
"V$	c #22B7A9",
"W$	c #23B7AA",
"X$	c #24B8AA",
"Y$	c #25B9AA",
"Z$	c #25BAAB",
"`$	c #24BAAB",
" %	c #23B6A9",
".%	c #22B3A9",
"+%	c #20B2A9",
"@%	c #1FB0AA",
"#%	c #1DACAB",
"$%	c #1A95A2",
"%%	c #178C91",
"&%	c #20B3A8",
"*%	c #20B5A7",
"=%	c #21B7A8",
"-%	c #22B8A8",
";%	c #23B9A9",
">%	c #24BAA9",
",%	c #24BBAA",
"'%	c #25BBAA",
")%	c #25BCAA",
"!%	c #22B7A8",
"~%	c #21B6A9",
"{%	c #20B3A9",
"]%	c #20B0AA",
"^%	c #178994",
"/%	c #168586",
"(%	c #21B7A7",
"_%	c #22B9A6",
":%	c #23BAA6",
"<%	c #24BBA6",
"[%	c #25BCA7",
"}%	c #25BDA7",
"|%	c #26BDA8",
"1%	c #26BEA8",
"2%	c #24BBA7",
"3%	c #23BAA8",
"4%	c #22B8A7",
"5%	c #158084",
"6%	c #11675D",
"7%	c #20B4A7",
"8%	c #22BAA5",
"9%	c #23BBA5",
"0%	c #24BDA5",
"a%	c #24BEA6",
"b%	c #25BEA6",
"c%	c #25BFA6",
"d%	c #26BFA7",
"e%	c #26C0A7",
"f%	c #24BCA5",
"g%	c #23BAA7",
"h%	c #11645D",
"i%	c #1D6E35",
"j%	c #116A59",
"k%	c #199D98",
"l%	c #1A9F97",
"m%	c #1AA296",
"n%	c #1BA597",
"o%	c #1BA697",
"p%	c #1CA698",
"q%	c #1CA898",
"r%	c #1BA497",
"s%	c #1BA398",
"t%	c #1AA198",
"u%	c #1A9D9A",
"v%	c #199B9A",
"w%	c #116659",
"x%	c #1D6C38",
". + @ # # $ $ $ % & * * * * = = = = - - - - - - - - - - - ; > , ",
"' ) ! ~ { ] ^ / ( _ : < [ } | 1 2 3 4 5 6 7 8 8 8 8 8 8 8 8 6 9 ",
"0 a b c d e ~ f g ^ h i _ : < [ j k 1 l m n o 6 p p p p 8 8 8 q ",
"r s t u v w x y z A B C D E F G H I J K L M N O P Q R S p p p T ",
"U V W X Y Z w `  .E ..+.@.#.$.%.L &.N *.2 L L =.-.N ;.P Q S S >.",
",.'.).!.~.{.].^././.(.(._.:.<.[.}.|.|.1.2.3.4.5.6.7.5.8.O ;.Q 9.",
"..0.a.b.c.d.e.f.g.g.g.g.g.g.g.g.g.g.g.h.i.j.k.l.m.n.o.p.L 5.q.r.",
"s.t.u.v.w.x.y.z.A.A.A.A.A.A.A.A.A.A.A.A.A.B.C.j.D.E.F.G.H.I.J.K.",
"L.M.N.O.P.Q.R.z.A.A.A.A.B.S.T.C.C.U.B.A.A.A.A.S.V.W.X.Y.Z.`. +.+",
"++@+#+$+%+&+*+z.A.A.A.A.=+-+;+>+,+'+)+T.A.A.A.A.g.!+~+{+]+^+/+(+",
"_+:+<+[+}+|+1+z.A.A.A.A.2+3+4+5+6+7+8+9+B.A.A.A.0+a+b+c+d+e+f+g+",
"h+i+j+k+l+m+n+z.A.A.A.A.g.o+p+q+r+s+t+u+U.A.A.A.v+w+x+y+z+A+b+B+",
"C+D+D+E+F+G+H+z.A.A.A.A.I+J+K+L+M+N+O+P+S.A.A.A.2+Q+R+S+T+U+V+W+",
"X+Y+Y+Z+`+ @.@z.A.A.A.A.0++@@@#@$@%@&@2+B.A.A.B.)+*@=@-@;@>@,@'@",
")@!@!@~@{@]@^@z.A.A.A.A./@(@_@)+i.g.T.B.A.A.B.:@<@[@}@|@1@2@3@4@",
"5@{@6@7@8@9@0@z.A.A.A.A.A.A.A.A.A.A.A.A.B.C.i.a@b@c@d@e@f@g@|@h@",
"i@j@k@l@m@n@o@z.A.A.A.A.B.S.U.B.A.A.A.A.=+p@q@r@s@t@u@v@w@x@y@z@",
"A@B@B@C@D@E@F@z.A.A.A.A.=+G@H@I@C.B.A.A.T.J@K@L@M@N@O@P@Q@R@S@T@",
"U@D@V@W@W@X@Y@z.A.A.A.A.2+Z@`@ #.#=+A.A./@2++#@###$#%#&#*#=#-#;#",
">#,#'#)#!#~#{#z.A.A.A.A.g.]#^#/#(#_@B.A.A.B._#:#<#[#}#|#1#2#3#4#",
"5#6#7#8#9#0#a#z.A.A.A.A.g.b#c#d#e#f#C.A.A.A.B.i.g#h#i#j#k#}#!#l#",
"m#n#o#p#q#r#s#z.A.A.A.A.g.t#u#v#w#x#9+B.A.A.A.T.y#z#A#B#C#D#9#E#",
"F#G#H#I#J#K#L#z.A.A.A.A.g.M#N#O#P#Q#R#0+A.A.A.B.h.S#T#U#V#q#p#W#",
"X#Y#Z#`# $.$+$z.A.A.A.A.g.@$#$$$%$&$*$=$/@A.A.A.U.-$;$>$,$J#H#'$",
")$!$~${$]$^$/$z.A.A.A.A.g.($_$:$:$<$[$}$(@A.A.A.B.|$1$2$3$4$5$6$",
"7$8$9$0$a$b$c$d$)+)+)+)+e$f$g$h$h$h$i$j$k$9+)+)+)+j.l$m$n${$o$p$",
"q$r$s$t$u$v$w$x$y$y$z$z$A$B$C$C$C$C$D$E$F$G$y$y$H$I$J$K$L$M$N$O$",
"P$Q$R$S$T$U$V$W$X$Y$Y$Z$Z$Z$Z$Z$Z$Z$Z$`$Z$Y$Y$X$W$ %.%+%@%L$#%$%",
"%%R$&%*%=%-%;%;%>%,%'%'%)%)%)%)%)%)%)%)%'%'%,%>%;%;%!%~%{%]%L$^%",
"/%&%*%(%_%:%<%<%[%[%}%|%1%1%1%1%1%1%1%1%|%}%[%[%<%2%3%4%~%&%]%5%",
"6%7%(%8%9%0%a%b%c%d%e%e%e%e%e%e%e%e%e%e%e%e%d%c%b%a%f%g%-%~%+%h%",
"i%j%k%l%m%n%n%o%p%q%q%q%q%q%q%q%q%q%q%q%q%q%q%p%o%r%s%t%u%v%w%x%"};
