/* XPM */
static char * RENDER_BUTTON_xpm[] = {
"32 32 257 2",
"  	c None",
". 	c #000000",
"+ 	c #FFFFFF",
"@ 	c #BFBFBF",
"# 	c #BEBDBD",
"$ 	c #8B797A",
"% 	c #BCB4B5",
"& 	c #372225",
"* 	c #B5AAAC",
"= 	c #BDB8B9",
"- 	c #674950",
"; 	c #A69398",
"> 	c #25030E",
", 	c #462933",
"' 	c #7F7C7D",
") 	c #ACA9AA",
"! 	c #A3A0A1",
"~ 	c #421F2C",
"{ 	c #66535B",
"] 	c #705A65",
"^ 	c #B8B2B5",
"/ 	c #BEBCBD",
"( 	c #ADABAC",
"_ 	c #1F0B16",
": 	c #AC9DA6",
"< 	c #786B73",
"[ 	c #B3A3AE",
"} 	c #BDB5BB",
"| 	c #BEB9BD",
"1 	c #8D828C",
"2 	c #767576",
"3 	c #BFBEBF",
"4 	c #919091",
"5 	c #5A445B",
"6 	c #88728B",
"7 	c #B5A7B7",
"8 	c #7F7481",
"9 	c #9B969C",
"0 	c #795E81",
"a 	c #2D1736",
"b 	c #A9A5AB",
"c 	c #3D3047",
"d 	c #473259",
"e 	c #85808A",
"f 	c #37244F",
"g 	c #1D0E3A",
"h 	c #38275A",
"i 	c #2A203F",
"j 	c #271C49",
"k 	c #2C215A",
"l 	c #4E4B6C",
"m 	c #1A174C",
"n 	c #373663",
"o 	c #9191A5",
"p 	c #4D4E89",
"q 	c #77788F",
"r 	c #3C3F59",
"s 	c #232C69",
"t 	c #333B77",
"u 	c #3D4685",
"v 	c #19286E",
"w 	c #404E94",
"x 	c #B4B5BA",
"y 	c #A8A9AE",
"z 	c #04196E",
"A 	c #26336C",
"B 	c #242F5F",
"C 	c #84889A",
"D 	c #162B78",
"E 	c #1B2859",
"F 	c #2C408A",
"G 	c #2C3C75",
"H 	c #1C327C",
"I 	c #1D306B",
"J 	c #2B3F81",
"K 	c #324891",
"L 	c #344477",
"M 	c #0C245E",
"N 	c #18264B",
"O 	c #7D8593",
"P 	c #F3F7F3",
"Q 	c #E9EBE7",
"R 	c #F2F2EC",
"S 	c #4C350C",
"T 	c #70501E",
"U 	c #5F4823",
"V 	c #A47E42",
"W 	c #91784D",
"X 	c #CEC7BC",
"Y 	c #6B460D",
"Z 	c #A8824B",
"` 	c #7E6643",
" .	c #694516",
"..	c #835A22",
"+.	c #7A5423",
"@.	c #503817",
"#.	c #855E29",
"$.	c #8D6531",
"%.	c #77582E",
"&.	c #8F6C3B",
"*.	c #7F6037",
"=.	c #947143",
"-.	c #977549",
";.	c #9B7A4F",
">.	c #A38256",
",.	c #61523D",
"'.	c #938A7E",
").	c #82551F",
"!.	c #754F21",
"~.	c #7F592C",
"{.	c #866337",
"].	c #8B6B44",
"^.	c #917048",
"/.	c #9D8A72",
"(.	c #E5E1DC",
"_.	c #462B0D",
":.	c #563A1C",
"<.	c #6C4B26",
"[.	c #7C5A33",
"}.	c #5B4226",
"|.	c #634F38",
"1.	c #796651",
"2.	c #A09487",
"3.	c #59340E",
"4.	c #673E15",
"5.	c #6E461F",
"6.	c #483018",
"7.	c #7B542C",
"8.	c #825C36",
"9.	c #674B2F",
"0.	c #886541",
"a.	c #806B56",
"b.	c #E1DEDB",
"c.	c #6E3B0B",
"d.	c #5B3D21",
"e.	c #553B24",
"f.	c #805E3E",
"g.	c #856445",
"h.	c #8F7258",
"i.	c #887768",
"j.	c #5D3514",
"k.	c #804D24",
"l.	c #6E4A2D",
"m.	c #775233",
"n.	c #6D4D33",
"o.	c #644932",
"p.	c #8B6D53",
"q.	c #98806C",
"r.	c #9F8B7A",
"s.	c #B1A59B",
"t.	c #552807",
"u.	c #502708",
"v.	c #602F0B",
"w.	c #542C0C",
"x.	c #784319",
"y.	c #553115",
"z.	c #24160B",
"A.	c #55341B",
"B.	c #704525",
"C.	c #694327",
"D.	c #62442C",
"E.	c #8E694D",
"F.	c #83634A",
"G.	c #6B513D",
"H.	c #B89982",
"I.	c #9A8372",
"J.	c #382010",
"K.	c #76553D",
"L.	c #A07C63",
"M.	c #5F5046",
"N.	c #B4ABA5",
"O.	c #6B462E",
"P.	c #7F5438",
"Q.	c #754E36",
"R.	c #7A553D",
"S.	c #553B2B",
"T.	c #4E382A",
"U.	c #795B49",
"V.	c #5B4537",
"W.	c #6C574A",
"X.	c #6C615A",
"Y.	c #5C341D",
"Z.	c #5E3E2B",
"`.	c #937767",
" +	c #977E70",
".+	c #703C20",
"++	c #653A23",
"@+	c #996A52",
"#+	c #816354",
"$+	c #846A5C",
"%+	c #BEB0A9",
"&+	c #BCB8B6",
"*+	c #D0CECD",
"=+	c #634537",
"-+	c #32231C",
";+	c #8F6B5A",
">+	c #52220F",
",+	c #935A43",
"'+	c #7E7774",
")+	c #5F230E",
"!+	c #37160A",
"~+	c #944325",
"{+	c #422318",
"]+	c #5A3324",
"^+	c #634A41",
"/+	c #AC8373",
"(+	c #874630",
"_+	c #261712",
":+	c #51342A",
"<+	c #190702",
"[+	c #7C2A11",
"}+	c #8C3C24",
"|+	c #744F45",
"1+	c #493732",
"2+	c #5A1302",
"3+	c #661A06",
"4+	c #72230F",
"5+	c #85331E",
"6+	c #5B3D35",
"7+	c #796864",
"8+	c #9A8782",
"9+	c #93837F",
"0+	c #85230D",
"a+	c #442B26",
"b+	c #896B65",
"c+	c #574440",
"d+	c #A02B17",
"e+	c #892614",
"f+	c #7D1608",
"g+	c #871C0D",
"h+	c #952513",
"i+	c #C19C96",
"j+	c #9A9392",
"k+	c #790E00",
"l+	c #755E5C",
"m+	c #6B0400",
"n+	c #BEBBBB",
"o+	c #B5B2B2",
"p+	c #BEBCBC",
"q+	c #BDBBBB",
"r+	c #B7B5B5",
"s+	c #767575",
"t+	c #6E6D6D",
"u+	c #BFBEBE",
"v+	c #9A9999",
"w+	c #888787",
"x+	c #B6B6B6",
"y+	c #ADADAD",
"z+	c #A4A4A4",
"A+	c #9B9B9B",
"B+	c #898989",
"C+	c #808080",
"D+	c #777777",
"E+	c #6F6F6F",
"F+	c #666666",
"G+	c #5D5D5D",
"H+	c #FFFFFF",
"n+# # # # # # # # # # # # / / p+p+# # # # # # # # # # # # p+p+= ",
"+ + + z+x++ + + z++ y+x++ y+x+@ + + + z+x++ + + z++ + + z+x++ ) ",
"+ D++ D+z++ D+E+B++ + 4 + B+z+@ + D+E++ A++ D+E+B++ D++ D+z++ w+",
"+ E++ E+A++ + + B++ + + + E+A+u++ E+C++ C++ + + B++ E++ E+A++ 2 ",
"+ + E+C+z++ F+F+B++ G++ + G+v+# + D+A++ D++ F+F+B++ + E+C+z+z+w+",
"+ F++ B+y++ + + B++ E+E++ G+A+@ + + + B+C++ + + B++ F++ B+y++ v+",
"! C+C+4 y+z+D+E+B+4 w+j+4 ' ! n+! s+t+C+A+A+D+E+B+4 C+C+4 y+y+v+",
"o+y+( ( r+o+z+A+j+9+K.l.<.C.l.Q.l.D.Z.D.$+; ! A+z+y+y+y+y+x+x+( ",
"q+@ u+u+/ n+= b+G.n.].;.-.;.>.>.;.;.;.-.*.U.i.8+3 @ u+@ @ @ @ # ",
"q+@ @ # p+: W.!+6.:.y.w.j.4.4.5.5.t.t.3.j.j.{+{+$ * @ @ @ @ @ # ",
"q+@ @ u+# - 1+$+a.|.p.p.g.j.u.w.u.n.p.h.g.#+i.W.{+9+@ @ @ @ @ # ",
"q+@ 3 # @ * {+i.V.z.Z.{.].3.0.;.[.*.;.^.J.-+a.U.S.u+@ 3 @ @ @ # ",
"p+@ # u+/ #+:.a.-+J.!+0.&.4.{.&.#. .=.m.<+z.c+K.d.8+@ u+@ @ @ # ",
"p+@ u+@ % O.C.n.T.<+a+E.~.~.&.#.$.!.8.g._+<+V.5.B.`.@ 3 @ @ @ / ",
"q+@ @ @ %+++f.<.U V.F.R.P.g.8.8.[.g.Q.f.1.|.<.!.7.`.@ @ @ @ @ / ",
"q+@ @ 3 %+C.8.{.~.0.D.e.e.A.:.U :.d.d.e.Z.` ~...k. +@ @ @ @ @ # ",
"q+@ @ @ %+.+~.#.$.4.y./.q.r./.`.q.i.r.I._.%.#...).;+/ @ @ @ @ # ",
"q+@ @ @ % +++...$.x.)+/+@+L.H.{.H.P./+@+t.+.....c.b+u+@ @ @ @ # ",
"q+@ @ @ * ]+<.+...x.f+e+0+0+5+4+~+e+0+0+3+!.)...v.b+u+@ @ @ @ p+",
"q+@ @ | ; 1+o.7.+.c.f+d+g+h+g+g+h+g+h+h+3+5.+.!.Y.- 7 | @ @ @ q+",
"p+@ | 1 d & :+9.m..+k+k+e+k+f+f+m+e+k+g+4+B.m.++=+_ d o } @ @ q+",
"# | 6 g f i 1+=+n.++2+}+4+.+(+3+,+4+5+[+2+O.O.]+c+i l j 5 ^ @ p+",
"# [ d n E n c l+6+Y.]+i+/+s.%+ +%+`.i+H.>+Z.S.{ l n s m k 0 } # ",
"q+: m L J M N 8 l+6+A.#+ +'.2.'.'.i.r.#+w.Z.M.C A A v u p k : q+",
"&+< B J K H B i B+s.1.}.J.a+V.X.,.6._.@.` /.) r A H H w u E o ^ ",
"r+r A w K D M A N o (.X s.w+5 8 ] 7+s.s.R @ r E w z F F I M l * ",
"x l A w w u v t L E O *+*+] , - , c+&+Q x L A u u D w J I M r ; ",
"q+l h f f d j m s H E q b 8+:+S.^+s.y C G D G A k m d h n m a - ",
"^ 5 , l+#+U.|+~ g w u E q < 6+a.^+e o G H w A j _ 6+|+b+|+, > - ",
": :+_.W V V Z g.& i G t k a a+$+6+a j G J I m _ d.>.Z Z >.0.]+7+",
"2.7+}.S  .Y  .U W.e C o 9 X.:+|.S.M.e o o O 4 X.U 4.T 4.[.5.G.9 ",
"*+o+9 '+'+9+2.2.*+P Q R Q X.& a+a+1+*+Q Q R Q b.2.'+i.'.H.s.N.*+"};
