/* XPM */
static char * render_icon_xpm[] = {
"31 32 133 2",
"  	c None",
". 	c #FFFFFF",
"+ 	c #95C990",
"@ 	c #66AD5E",
"# 	c #519F48",
"$ 	c #4F9E46",
"% 	c #4E9D45",
"& 	c #52A04A",
"* 	c #6BB064",
"= 	c #97CA92",
"- 	c #87C181",
"; 	c #429439",
"> 	c #4A9B42",
", 	c #47993F",
"' 	c #44963C",
") 	c #8BC385",
"! 	c #8FC689",
"~ 	c #368C2D",
"{ 	c #398E30",
"] 	c #388D2F",
"^ 	c #1D7613",
"/ 	c #0B3406",
"( 	c #092B05",
"_ 	c #0A3306",
": 	c #092E05",
"< 	c #0D3E07",
"[ 	c #237B19",
"} 	c #104E09",
"| 	c #0D3D07",
"1 	c #338929",
"2 	c #5CA754",
"3 	c #64AC5D",
"4 	c #63AB5B",
"5 	c #61AA59",
"6 	c #5FA957",
"7 	c #5EA855",
"8 	c #358B2C",
"9 	c #12580B",
"0 	c #59A450",
"a 	c #18710E",
"b 	c #15670D",
"c 	c #104F0A",
"d 	c #17700E",
"e 	c #5AA552",
"f 	c #57A34F",
"g 	c #6DB266",
"h 	c #16690D",
"i 	c #135A0B",
"j 	c #1E7715",
"k 	c #0E4508",
"l 	c #0F4809",
"m 	c #4C9C43",
"n 	c #11520A",
"o 	c #0F4909",
"p 	c #0F4B09",
"q 	c #092C05",
"r 	c #0A3106",
"s 	c #166B0D",
"t 	c #68AE60",
"u 	c #227A18",
"v 	c #0A3206",
"w 	c #051B03",
"x 	c #061D03",
"y 	c #2B8221",
"z 	c #318828",
"A 	c #061C03",
"B 	c #072104",
"C 	c #020E01",
"D 	c #031102",
"E 	c #2D8524",
"F 	c #2F8625",
"G 	c #030F01",
"H 	c #041302",
"I 	c #051803",
"J 	c #051A03",
"K 	c #0A2F06",
"L 	c #14600C",
"M 	c #15650C",
"N 	c #145F0C",
"O 	c #1F7816",
"P 	c #000000",
"Q 	c #277F1E",
"R 	c #1C7512",
"S 	c #348A2A",
"T 	c #3C9033",
"U 	c #2C8423",
"V 	c #3B8F31",
"W 	c #54A14B",
"X 	c #3D9134",
"Y 	c #6AAF62",
"Z 	c #72B56B",
"` 	c #81BE7B",
" .	c #74B66D",
"..	c #308727",
"+.	c #409337",
"@.	c #83BF7D",
"#.	c #55A24D",
"$.	c #499A40",
"%.	c #247C1A",
"&.	c #267E1D",
"*.	c #176C0D",
"=.	c #11540A",
"-.	c #12550A",
";.	c #0B3807",
">.	c #0C3C07",
",.	c #082704",
"'.	c #082805",
").	c #257D1B",
"!.	c #061E03",
"~.	c #46973D",
"{.	c #29801F",
"].	c #2A8120",
"^.	c #072504",
"/.	c #020B01",
"(.	c #43953A",
"_.	c #020C01",
":.	c #010600",
"<.	c #000400",
"[.	c #030E01",
"}.	c #020901",
"|.	c #76B76F",
"1.	c #000100",
"2.	c #092D05",
"3.	c #0E4208",
"4.	c #0D4108",
"5.	c #082905",
"6.	c #020D01",
"7.	c #000200",
"8.	c #80BD79",
"9.	c #000300",
"0.	c #072204",
"a.	c #85C07F",
"b.	c #031002",
". . + @ # $ $ $ $ $ $ $ $ $ $ $ $ $ $ $ $ $ $ $ $ % & * = . . ",
". - ; > $ $ % % % % % % % % % % % % % % % % % % % % $ , ' ) . ",
"! ~ { ] ^ / ( _ _ _ _ _ _ _ _ _ _ _ _ _ _ _ _ _ : < [ ] ] ] = ",
"> [ [ } | 1 2 3 3 4 5 5 5 5 6 6 6 5 5 5 5 4 3 @ 7 8 < 9 [ [ 0 ",
"a b c d 3 * @ 4 5 7 2 e 0 f f f f f f e 2 7 5 4 @ g 5 h i b j ",
"k l | f * 3 6 2 f & # % % m m > m m m % # & f e 7 3 * 0 n o p ",
"q r s t 4 4 4 4 4 4 4 4 4 4 4 4 4 4 4 4 4 4 4 4 4 4 4 4 u r v ",
"w x y 4 4 4 4 4 4 4 4 4 4 4 4 4 4 4 4 4 4 4 4 4 4 4 4 4 z A B ",
"C D E 6 4 4 4 4 4 4 4 4 4 4 4 4 4 4 4 4 4 4 4 4 4 4 4 4 F G H ",
"I w F 2 4 4 4 4 4 4 4 4 4 4 4 4 4 4 4 4 4 4 4 4 4 4 4 4 F J x ",
"q r F 0 4 4 4 4 4 4 4 4 4 4 4 4 4 4 4 4 4 4 4 4 4 4 4 4 z K K ",
"k o F f 4 4 4 4 4 4 4 4 4 4 4 4 4 4 4 4 4 4 4 4 4 4 4 4 1 p k ",
"L M F & 4 4 4 4 4 4 4 4 4 4 4 4 4 4 4 4 4 4 4 4 4 4 4 4 ~ h N ",
"O [ F % P P 4 4 4 4 4 4 4 4 4 4 4 4 P 4 4 4 4 4 4 4 4 4 ~ Q R ",
"S 8 F % P 4 P 4 4 P 4 4 P P 4 4 4 P P 4 4 P 4 4 P 4 P 4 ] T U ",
", > F % P P 4 4 P 4 P 4 P 4 P 4 P 4 P 4 P 4 P 4 P P 4 4 V W X ",
"2 6 F m P 4 P 4 P P 4 4 P 4 P 4 P 4 P 4 P P 4 4 P 4 4 4 T * $ ",
"Y Z F > P 4 P 4 4 P P 4 P 4 P 4 4 P P 4 4 P P 4 P 4 4 4 X ` 6 ",
"g  ...> 4 4 4 4 4 4 4 4 4 4 4 4 4 4 4 4 4 4 4 4 4 4 4 4 +.@.6 ",
"W #.F $.4 4 4 4 4 4 4 4 4 4 4 4 4 4 4 4 4 4 4 4 4 4 4 4 +.6 $.",
"{ T F > 4 4 4 4 4 4 4 4 4 4 4 4 4 4 4 4 4 4 4 4 4 4 4 4 +.' 1 ",
"%.&.F > 4 4 4 4 4 4 4 4 4 4 4 4 4 4 4 4 4 4 4 4 4 4 4 4 X U O ",
"b *.F > 4 4 4 4 4 4 4 4 4 4 4 4 4 4 4 4 4 4 4 4 4 4 4 4 T d b ",
"} =...% 4 4 4 4 4 4 4 4 4 4 4 4 4 4 4 4 4 4 4 4 4 4 4 4 ] -.c ",
";.>...$ 4 4 4 4 4 4 4 4 4 4 4 4 4 4 4 4 4 4 4 4 4 4 4 4 S | >.",
",.'.%.W 4 4 4 4 4 4 4 4 4 4 4 4 4 4 4 4 4 4 4 4 4 4 4 4 ).'.( ",
"!.I } #.# ~.+.V ~ S F E U y {.{.{.].U E F S ~ V +.~.# #.k I ^.",
": /.H E #.$ m ~.(.+.X T V V { ] { { V T X +.(.~.m # #.[ G _.| ",
"^ :.<.[.R W #.W W & $ $ % % % % % % % % $ & W #.#.# h /.<.}.{.",
"|.^.1.P 1.G 2.3.3.3.3.3.3.3.4.4.4.3.3.3.3.3.3.3.5.6.1.P 7.^.8.",
". e 5.9.P P P P P P P P P P P P P P P P P P P P P P P 9.0.W . ",
". . a.j 5.b./././././././././././././././././././.b.: [ 8.. . "};
