/* XPM */
static char * reParent_xpm[] = {
"32 32 605 2",
"  	c None",
". 	c #6B6B6B",
"+ 	c #AEAEAE",
"@ 	c #BCBCBC",
"# 	c #B6B6B6",
"$ 	c #B7B7B7",
"% 	c #B8B8B8",
"& 	c #B9B9B9",
"* 	c #BBBBBB",
"= 	c #BDBDBD",
"- 	c #BFBFBF",
"; 	c #696969",
"> 	c #B5B5B5",
", 	c #898989",
"' 	c #8C8C8C",
") 	c #8E8E8E",
"! 	c #909090",
"~ 	c #929292",
"{ 	c #959595",
"] 	c #979797",
"^ 	c #9A9A9A",
"/ 	c #9B9B9B",
"( 	c #9D9D9D",
"_ 	c #9F9F9F",
": 	c #A1A1A1",
"< 	c #A4A4A4",
"[ 	c #A5A5A5",
"} 	c #A6A6A6",
"| 	c #A8A8A8",
"1 	c #AAAAAA",
"2 	c #ABABAB",
"3 	c #ADADAD",
"4 	c #AFAFAF",
"5 	c #B0B0B0",
"6 	c #B3B3B3",
"7 	c #838383",
"8 	c #858585",
"9 	c #878787",
"0 	c #8A8A8A",
"a 	c #8D8D8D",
"b 	c #8F8F8F",
"c 	c #919191",
"d 	c #939393",
"e 	c #969696",
"f 	c #989898",
"g 	c #9C9C9C",
"h 	c #9E9E9E",
"i 	c #A0A0A0",
"j 	c #A2A2A2",
"k 	c #A7A7A7",
"l 	c #A9A9A9",
"m 	c #ACACAC",
"n 	c #7C7C7C",
"o 	c #7F7F7F",
"p 	c #828282",
"q 	c #848484",
"r 	c #868686",
"s 	c #8B8B8B",
"t 	c #949494",
"u 	c #999999",
"v 	c #B1B1B1",
"w 	c #767676",
"x 	c #797979",
"y 	c #7B7B7B",
"z 	c #7D7D7D",
"A 	c #808080",
"B 	c #A3A3A3",
"C 	c #000000",
"D 	c #181818",
"E 	c #9D9D9C",
"F 	c #707070",
"G 	c #727272",
"H 	c #818180",
"I 	c #8B8B8A",
"J 	c #222222",
"K 	c #0B0B0B",
"L 	c #464646",
"M 	c #B4B4B4",
"N 	c #6C6C6C",
"O 	c #474747",
"P 	c #3B3B3B",
"Q 	c #666666",
"R 	c #1F1F1F",
"S 	c #3F3F3F",
"T 	c #5A5A5A",
"U 	c #2E2E2E",
"V 	c #636363",
"W 	c #656565",
"X 	c #737373",
"Y 	c #4A4A4A",
"Z 	c #0A0A0A",
"` 	c #434343",
" .	c #6E6E6E",
"..	c #3D3D3D",
"+.	c #525252",
"@.	c #212121",
"#.	c #7A7A7A",
"$.	c #5C5C5C",
"%.	c #606060",
"&.	c #6D6D6D",
"*.	c #494948",
"=.	c #414141",
"-.	c #292828",
";.	c #9E9B9B",
">.	c #2B2B2B",
",.	c #717171",
"'.	c #454545",
").	c #676767",
"!.	c #484848",
"~.	c #6F6F6F",
"{.	c #131313",
"].	c #928E8E",
"^.	c #767373",
"/.	c #5B5757",
"(.	c #7D7776",
"_.	c #9E9492",
":.	c #7F7C7B",
"<.	c #9C9897",
"[.	c #949190",
"}.	c #8D8B8B",
"|.	c #545454",
"1.	c #616160",
"2.	c #40403F",
"3.	c #6A6969",
"4.	c #706E6E",
"5.	c #484645",
"6.	c #0A0A09",
"7.	c #7A6B69",
"8.	c #9B8985",
"9.	c #796E6D",
"0.	c #8F8280",
"a.	c #8C817F",
"b.	c #8A8382",
"c.	c #888584",
"d.	c #878686",
"e.	c #161616",
"f.	c #2F2F2F",
"g.	c #565656",
"h.	c #585858",
"i.	c #555555",
"j.	c #5E5D5D",
"k.	c #625F5E",
"l.	c #685F5E",
"m.	c #796C6B",
"n.	c #7A6C6A",
"o.	c #726462",
"p.	c #756462",
"q.	c #987F7A",
"r.	c #927570",
"s.	c #987975",
"t.	c #7B6764",
"u.	c #7C6A67",
"v.	c #917A76",
"w.	c #927C78",
"x.	c #907C79",
"y.	c #8D7E7B",
"z.	c #8A7F7D",
"A.	c #878180",
"B.	c #858383",
"C.	c #5F5F5F",
"D.	c #353535",
"E.	c #565555",
"F.	c #5A5655",
"G.	c #625755",
"H.	c #6B5956",
"I.	c #755E5A",
"J.	c #7E635E",
"K.	c #876761",
"L.	c #8D6963",
"M.	c #916962",
"N.	c #966B64",
"O.	c #996D66",
"P.	c #9D736C",
"Q.	c #9D766F",
"R.	c #9A756F",
"S.	c #977570",
"T.	c #947772",
"U.	c #907874",
"V.	c #8D7A77",
"W.	c #8A7C7A",
"X.	c #847D7C",
"Y.	c #807E7E",
"Z.	c #818181",
"`.	c #888888",
" +	c #595959",
".+	c #4F4B4B",
"++	c #5A504E",
"@+	c #665350",
"#+	c #715651",
"$+	c #7B5953",
"%+	c #825B55",
"&+	c #8A5E57",
"*+	c #93625A",
"=+	c #98645B",
"-+	c #9D665D",
";+	c #A16960",
">+	c #A26B62",
",+	c #A16E65",
"'+	c #A06F67",
")+	c #9C7069",
"!+	c #9A736C",
"~+	c #95736E",
"{+	c #907470",
"]+	c #8B7673",
"^+	c #867876",
"/+	c #807978",
"(+	c #7D7B7B",
"_+	c #181616",
":+	c #2D2422",
"<+	c #574542",
"[+	c #6B4F4B",
"}+	c #77534D",
"|+	c #82564F",
"1+	c #8B5850",
"2+	c #925B52",
"3+	c #9A5E54",
"4+	c #A16156",
"5+	c #A76358",
"6+	c #AB665B",
"7+	c #AB675C",
"8+	c #AA695E",
"9+	c #A76B61",
"0+	c #A36C63",
"a+	c #9F6D65",
"b+	c #9A6F68",
"c+	c #93706A",
"d+	c #8E726D",
"e+	c #887370",
"f+	c #807371",
"g+	c #7A7574",
"h+	c #787777",
"i+	c #7E7E7E",
"j+	c #515151",
"k+	c #171616",
"l+	c #1C1716",
"m+	c #2B1916",
"n+	c #3B1B16",
"o+	c #562E27",
"p+	c #774840",
"q+	c #88534A",
"r+	c #93564C",
"s+	c #9B594E",
"t+	c #A35C50",
"u+	c #AC5E51",
"v+	c #B16053",
"w+	c #B56355",
"x+	c #B56457",
"y+	c #B36659",
"z+	c #B0675B",
"A+	c #AB685D",
"B+	c #A56A60",
"C+	c #9F6B62",
"D+	c #986C65",
"E+	c #916C66",
"F+	c #896D69",
"G+	c #806E6B",
"H+	c #79706E",
"I+	c #737070",
"J+	c #757575",
"K+	c #787878",
"L+	c #777777",
"M+	c #4D4D4D",
"N+	c #191616",
"O+	c #221816",
"P+	c #321A16",
"Q+	c #441D17",
"R+	c #532017",
"S+	c #632217",
"T+	c #7B3327",
"U+	c #93493D",
"V+	c #A5584B",
"W+	c #AE5A4C",
"X+	c #CE5B51",
"Y+	c #EA5B56",
"Z+	c #FF5B5B",
"`+	c #FF5E5E",
" @	c #F7615F",
".@	c #E1635D",
"+@	c #BA665A",
"@@	c #AD665A",
"#@	c #A4675D",
"$@	c #9C685F",
"%@	c #946962",
"&@	c #8A6963",
"*@	c #826A66",
"=@	c #786967",
"-@	c #706B6A",
";@	c #6E6D6D",
">@	c #494949",
",@	c #171717",
"'@	c #1C1918",
")@	c #2A1B18",
"!@	c #3B1D18",
"~@	c #4C1F18",
"{@	c #5C2218",
"]@	c #6C2418",
"^@	c #7C2618",
"/@	c #8B2818",
"(@	c #9A2E1C",
"_@	c #E0332C",
":@	c #FF3E3E",
"<@	c #FF4C4C",
"[@	c #FF5757",
"}@	c #FF5959",
"|@	c #FF5D5D",
"1@	c #FB605F",
"2@	c #C36459",
"3@	c #AB6458",
"4@	c #9F645A",
"5@	c #96645C",
"6@	c #8D665F",
"7@	c #826560",
"8@	c #796663",
"9@	c #6F6665",
"0@	c #6A6868",
"a@	c #191919",
"b@	c #1F1A19",
"c@	c #311D1A",
"d@	c #42201A",
"e@	c #54231B",
"f@	c #65251B",
"g@	c #76291C",
"h@	c #862B1C",
"i@	c #972D1C",
"j@	c #D2281E",
"k@	c #FF2121",
"l@	c #FF2A2A",
"m@	c #FF2F2F",
"n@	c #FF3838",
"o@	c #FF4141",
"p@	c #FA4745",
"q@	c #AB4D40",
"r@	c #984C40",
"s@	c #92584E",
"t@	c #86564E",
"u@	c #7A5650",
"v@	c #634844",
"w@	c #564745",
"x@	c #494645",
"y@	c #3E3E3E",
"z@	c #4E4E4E",
"A@	c #424242",
"B@	c #1B1B1B",
"C@	c #1D1C1C",
"D@	c #261D1C",
"E@	c #38211D",
"F@	c #4A241E",
"G@	c #5C281F",
"H@	c #6E2B20",
"I@	c #7F2E21",
"J@	c #903021",
"K@	c #A73322",
"L@	c #FF2727",
"M@	c #FF2929",
"N@	c #D52C24",
"O@	c #8D3021",
"P@	c #7C2E21",
"Q@	c #6B2A20",
"R@	c #59271F",
"S@	c #47241E",
"T@	c #35201D",
"U@	c #241D1C",
"V@	c #1C1C1C",
"W@	c #1E1E1E",
"X@	c #221F1F",
"Y@	c #2D2220",
"Z@	c #3F2521",
"`@	c #522A23",
" #	c #632D24",
".#	c #753025",
"+#	c #873427",
"@#	c #973828",
"##	c #C9362B",
"$#	c #FF3131",
"%#	c #F4302D",
"&#	c #953728",
"*#	c #833427",
"=#	c #723025",
"-#	c #602D24",
";#	c #4F2923",
">#	c #3C2521",
",#	c #2A2120",
"'#	c #252222",
")#	c #322624",
"!#	c #452A26",
"~#	c #562D27",
"{#	c #683229",
"]#	c #7A362B",
"^#	c #8A392C",
"/#	c #9C3E2E",
"(#	c #D53C33",
"_#	c #FF3737",
":#	c #FF3A3A",
"<#	c #FF3636",
"[#	c #993D2E",
"}#	c #88392C",
"|#	c #77362B",
"1#	c #653129",
"2#	c #532D27",
"3#	c #422A26",
"4#	c #2F2624",
"5#	c #3A3A3A",
"6#	c #242424",
"7#	c #292626",
"8#	c #352A28",
"9#	c #462E2A",
"0#	c #59322C",
"a#	c #6A372E",
"b#	c #7B3B30",
"c#	c #8D4033",
"d#	c #9D4334",
"e#	c #D64239",
"f#	c #FF3F3F",
"g#	c #FF4040",
"h#	c #FF3D3D",
"i#	c #9B4334",
"j#	c #8A3F33",
"k#	c #793A30",
"l#	c #67362E",
"m#	c #56322C",
"n#	c #442E2A",
"o#	c #322928",
"p#	c #262626",
"q#	c #373737",
"r#	c #272727",
"s#	c #2A2929",
"t#	c #342D2C",
"u#	c #47322E",
"v#	c #583630",
"w#	c #693B33",
"x#	c #7A3F35",
"y#	c #8A4337",
"z#	c #9A4739",
"A#	c #BA493D",
"B#	c #FF4444",
"C#	c #FF4646",
"D#	c #E44640",
"E#	c #984639",
"F#	c #884237",
"G#	c #783F35",
"H#	c #673A33",
"I#	c #553530",
"J#	c #44312E",
"K#	c #332D2C",
"L#	c #292929",
"M#	c #343434",
"N#	c #2A2A2A",
"O#	c #2C2C2C",
"P#	c #34302F",
"Q#	c #463532",
"R#	c #583A35",
"S#	c #683E37",
"T#	c #79433A",
"U#	c #88473C",
"V#	c #974A3E",
"W#	c #A74F40",
"X#	c #F14B47",
"Y#	c #FF4A4A",
"Z#	c #FF4949",
"`#	c #C04C43",
" $	c #944A3E",
".$	c #85473C",
"+$	c #76433A",
"@$	c #653D37",
"#$	c #553A35",
"$$	c #443532",
"%$	c #333333",
"&$	c #2D2D2D",
"*$	c #303030",
"=$	c #363333",
"-$	c #443836",
";$	c #563D39",
">$	c #66423C",
",$	c #76463E",
"'$	c #854A40",
")$	c #934E42",
"!$	c #A05144",
"~$	c #BD5347",
"{$	c #FA4F4E",
"]$	c #FF4F4F",
"^$	c #FF5050",
"/$	c #DF504B",
"($	c #9D5044",
"_$	c #8E4D42",
":$	c #814940",
"<$	c #73453E",
"[$	c #64423C",
"}$	c #543D39",
"|$	c #433836",
"1$	c #353333",
"2$	c #323232",
"3$	c #393737",
"4$	c #423B3A",
"5$	c #54403D",
"6$	c #64443F",
"7$	c #724942",
"8$	c #814C44",
"9$	c #8D5046",
"0$	c #975247",
"a$	c #A35548",
"b$	c #BD564B",
"c$	c #F15350",
"d$	c #FF5252",
"e$	c #FF5353",
"f$	c #D4554D",
"g$	c #A05548",
"h$	c #965247",
"i$	c #8A5046",
"j$	c #7C4C44",
"k$	c #6E4842",
"l$	c #5F443F",
"m$	c #51403D",
"n$	c #413B3A",
"o$	c #433F3E",
"p$	c #504240",
"q$	c #604743",
"r$	c #6D4B45",
"s$	c #7A4E47",
"t$	c #865249",
"u$	c #90544A",
"v$	c #99564B",
"w$	c #A2584C",
"x$	c #A7594C",
"y$	c #BB584E",
"z$	c #D65851",
"A$	c #CB5850",
"B$	c #AD594D",
"C$	c #A0584C",
"D$	c #98564B",
"E$	c #8D544A",
"F$	c #855249",
"G$	c #784E47",
"H$	c #694A45",
"I$	c #5B4643",
"J$	c #4C4240",
"K$	c #413E3E",
"L$	c #424141",
"M$	c #4D4544",
"N$	c #5A4946",
"O$	c #674C48",
"P$	c #72504A",
"Q$	c #7D524B",
"R$	c #87544C",
"S$	c #8F564D",
"T$	c #95584E",
"U$	c #9A594E",
"V$	c #9F594E",
"W$	c #A25A4E",
"X$	c #A15A4E",
"Y$	c #8E564D",
"Z$	c #86544C",
"`$	c #7C524B",
" %	c #654C48",
".%	c #574846",
"+%	c #4A4544",
"@%	c #313131",
"#%	c #444444",
"$%	c #494747",
"%%	c #544B49",
"&%	c #5F4D4A",
"*%	c #6A504C",
"=%	c #74524D",
"-%	c #7D554E",
";%	c #85574F",
">%	c #8A5850",
",%	c #8E5950",
"'%	c #935A50",
")%	c #955A50",
"!%	c #83564F",
"~%	c #7C544E",
"{%	c #73524D",
"]%	c #69504C",
"^%	c #5E4D4A",
"/%	c #534A49",
"(%	c #4E4B4B",
"_%	c #584F4D",
":%	c #61514E",
"<%	c #6B534F",
"[%	c #735550",
"}%	c #795751",
"|%	c #7E5751",
"1%	c #835851",
"2%	c #875951",
"3%	c #895951",
"4%	c #885951",
"5%	c #865951",
"6%	c #725550",
"7%	c #6A534F",
"8%	c #574E4D",
"9%	c #575757",
"0%	c #383838",
"a%	c #3B3939",
"b%	c #443B3A",
"c%	c #4D3E3B",
"d%	c #553F3B",
"e%	c #5B403B",
"f%	c #60413C",
"g%	c #65423C",
"h%	c #69423C",
"i%	c #6B433C",
"j%	c #68423C",
"k%	c #543F3B",
"l%	c #4C3D3B",
"m%	c #433B3A",
"n%	c #3C3939",
". + @ # $ $ % % % & * * * * @ @ @ = = = = = = = = = = = = - + ; ",
"> , ' ) ! ~ { ] ^ / ( _ : < [ } | 1 2 3 + 4 5 5 5 5 5 5 5 5 + 6 ",
"2 7 8 9 0 a b c d e f ^ g h i j < [ k l 1 m 3 4 5 5 5 5 5 5 5 5 ",
"1 n o p q r , s ) ! ~ t ] u / i l + 5 v 4 2 1 2 3 + 4 5 5 5 5 > ",
"k w x y z A 7 8 9 0 ' b c d e B C C C C D E | k l 1 m 3 + 5 5 % ",
"< F G w H , s s , I ~ f ^ e d j C C J K C L | B [ } | l 2 m + M ",
"g ; N w O C P C Q y R C C S ) _ C C 8 T C U [ h i j < [ k | 1 5 ",
") V W X Y C Z ` s Z Z  ...C +.h C C @.K C ` h u ^ g h : B [ } 3 ",
"#.$.%.&.*.C =.p ; C C C C C -.;.C C C C >.t d ~ { ] ^ / ( _ : k ",
",.'.T ).L C !.X ~.C {.].^./.(._.C C :.<.[.}.0 a b c d e f ^ g j ",
"N @.|.1.2.C =.3.4.5.C C C 6.7.8.C C 9.0.a.b.c.d., s ) ! ~ t ] ( ",
"W e.f.g.h.i.j.k.l.m.n.o.p.q.r.s.t.u.v.w.x.y.z.A.B.8 9 0 ' b c { ",
"C.e.e.D.+.E.F.G.H.I.J.K.L.M.N.O.P.Q.R.S.T.U.V.W.X.Y.Z.q r `.s b ",
" +e.e.e.U .+++@+#+$+%+&+*+=+-+;+>+,+'+)+!+~+{+]+^+/+(+z A p 8 9 ",
"i.e.e.e._+:+<+[+}+|+1+2+3+4+5+6+7+8+9+0+a+b+c+d+e+f+g+h+#.y i+i+",
"j+e.e.k+l+m+n+o+p+q+r+s+t+u+v+w+x+y+z+A+B+C+D+E+F+G+H+I+G J+K+L+",
"M+e.e.N+O+P+Q+R+S+T+U+V+W+X+Y+Z+`+ @.@+@@@#@$@%@&@*@=@-@;@~.,.~.",
">@,@,@'@)@!@~@{@]@^@/@(@_@:@<@[@}@Z+|@1@2@3@4@5@6@7@8@9@0@; N ).",
"'.D a@b@c@d@e@f@g@h@i@j@k@k@k@k@l@m@n@o@p@q@r@s@t@u@v@w@x@O y@z@",
"A@B@C@D@E@F@G@H@I@J@K@L@L@M@M@M@M@M@M@L@L@N@O@P@Q@R@S@T@U@V@B@A@",
"S W@X@Y@Z@`@ #.#+#@###m@$#$#$#$#$#$#$#$#m@%#&#*#=#-#;#>#,#R W@S ",
"..@.'#)#!#~#{#]#^#/#(#_#n@n@:#:#:#:#n@n@_#<#[#}#|#1#2#3#4#J @...",
"5#6#7#8#9#0#a#b#c#d#e#:@f#f#g#g#g#g#f#f#:@h#i#j#k#l#m#n#o#p#6#5#",
"q#r#s#t#u#v#w#x#y#z#A#B#C#C#C#C#C#C#C#C#B#D#E#F#G#H#I#J#K#L#r#q#",
"M#N#O#P#Q#R#S#T#U#V#W#X#Y#<@<@<@<@<@<@Y#Z#`# $.$+$@$#$$$P#O#N#M#",
"%$&$*$=$-$;$>$,$'$)$!$~${$]$^$^$^$^$]$]$/$($_$:$<$[$}$|$1$*$&$%$",
"2$*$M#3$4$5$6$7$8$9$0$a$b$c$d$e$e$d$d$f$g$h$i$j$k$l$m$n$q#M#*$2$",
"f.M#q#P o$p$q$r$s$t$u$v$w$x$y$z$z$A$B$C$D$E$F$G$H$I$J$K$P q#M#f.",
"*$q#P y@L$M$N$O$P$Q$R$S$T$U$V$W$X$V$U$T$Y$Z$`$P$ %.%+%=.y@P q#*$",
"@%P y@=.#%$%%%&%*%=%-%;%>%,%'%)%)%'%,%>%!%~%{%]%^%/%$%#%=.y@P @%",
"%$y@=.#%O >@(%_%:%<%[%}%|%1%2%3%4%5%1%|%}%6%7%:%8%.+>@O #%=.y@2$",
"9%@%2$M#D.q#0%a%b%c%d%e%f%g%h%i%i%j%g%f%e%k%l%m%n%0%q#D.M#2$2$9%"};
