/* XPM */
static char *saveNewScene[] = {
/* columns rows colors chars-per-pixel */
"32 32 256 2",
"   c #000D00",
".  c #001300",
"X  c #001B00",
"o  c #0B1E0A",
"O  c #012400",
"+  c #012800",
"@  c #0C2B04",
"#  c #0B240A",
"$  c #0C2B0B",
"%  c #112D0A",
"&  c #152B14",
"*  c #1E2E1C",
"=  c #163516",
"-  c #173816",
";  c #1C3818",
":  c #21391F",
">  c #283B26",
",  c #2C432A",
"<  c #33512E",
"1  c #344B32",
"2  c #395535",
"3  c #3E523B",
"4  c #435C3D",
"5  c #44613D",
"6  c #445E40",
"7  c #456343",
"8  c #486546",
"9  c #4C6A49",
"0  c #506B4D",
"q  c #567450",
"w  c #597855",
"e  c #627C5C",
"r  c #1D8E1D",
"t  c #1E901D",
"y  c #338E25",
"u  c #368D29",
"i  c #3A892B",
"p  c #2F9624",
"a  c #269B20",
"s  c #2D9C23",
"d  c #2F9D2B",
"f  c #319522",
"g  c #319C24",
"h  c #32952C",
"j  c #32992C",
"k  c #3A9B2E",
"l  c #3A8E32",
"z  c #2F9D30",
"x  c #369532",
"c  c #3E9D35",
"v  c #359D3C",
"b  c #25A020",
"n  c #2BA321",
"m  c #2CAC23",
"M  c #2EA32B",
"N  c #2CAC2A",
"B  c #32A326",
"V  c #34A428",
"C  c #33AB29",
"Z  c #2BB325",
"A  c #2CB32A",
"S  c #2DBC2C",
"D  c #33B22C",
"F  c #30B82A",
"G  c #2FA631",
"H  c #2FAD33",
"J  c #2FA639",
"K  c #2EAD38",
"L  c #30A234",
"P  c #30AA31",
"I  c #32A13A",
"U  c #30AB3D",
"Y  c #2EB434",
"T  c #2EBB35",
"R  c #2DB43B",
"E  c #2EBA3C",
"W  c #30B333",
"Q  c #3CB233",
"!  c #32BB36",
"~  c #30B13E",
"^  c #35BC3C",
"/  c #488E39",
"(  c #42A035",
")  c #4AA53E",
"_  c #45B33A",
"`  c #49B23D",
"'  c #2EC12E",
"]  c #30C22F",
"[  c #2DC137",
"{  c #2FC239",
"}  c #2FCF3E",
"|  c #31C33A",
" . c #31CB3C",
".. c #2ED13E",
"X. c #35D637",
"o. c #34DC37",
"O. c #33DC38",
"+. c #33E935",
"@. c #35E23C",
"#. c #399B40",
"$. c #39BB42",
"%. c #549B4C",
"&. c #65825F",
"*. c #4EA641",
"=. c #48A645",
"-. c #50A749",
";. c #53AA49",
":. c #4EB443",
">. c #53B549",
",. c #59B04F",
"<. c #56AE50",
"1. c #56AB57",
"2. c #5CB354",
"3. c #53B55A",
"4. c #5DB55C",
"5. c #69A15B",
"6. c #60B557",
"7. c #64B55C",
"8. c #668262",
"9. c #6C8766",
"0. c #6C9369",
"q. c #699A6C",
"w. c #75936D",
"e. c #7A9F6F",
"r. c #779271",
"t. c #799674",
"y. c #779872",
"u. c #7B9A75",
"i. c #5EB361",
"p. c #7BAC6D",
"a. c #62B663",
"s. c #68B763",
"d. c #65B863",
"f. c #6BB964",
"g. c #65BA6D",
"h. c #6DBD6C",
"j. c #74BC6C",
"k. c #6DA371",
"l. c #70A073",
"z. c #76A579",
"x. c #7DA37A",
"c. c #77A97A",
"v. c #76AC79",
"b. c #6CBC72",
"n. c #71BE75",
"m. c #7BBE74",
"M. c #79B778",
"N. c #2FC142",
"B. c #32C244",
"V. c #49DF46",
"C. c #51C258",
"Z. c #5DDC5F",
"A. c #6DDC6F",
"S. c #6FCD76",
"D. c #6FC478",
"F. c #73C175",
"G. c #76C47D",
"H. c #79C47D",
"J. c #73CE7A",
"K. c #79CF7E",
"L. c #6EDB70",
"P. c #72DE74",
"I. c #75D07D",
"U. c #69ED63",
"Y. c #74F66C",
"T. c #73E673",
"R. c #79F372",
"E. c #7FF778",
"W. c #839C7C",
"Q. c #80AE73",
"!. c #85A47E",
"~. c #80B277",
"^. c #86B87C",
"/. c #83C17E",
"(. c #84FF7A",
"). c #88FF7F",
"_. c #7FAC82",
"`. c #7CB380",
"'. c #7EBF83",
"]. c #7EC683",
"[. c #7CCF81",
"{. c #7DD183",
"}. c #7EE380",
"|. c #869C80",
" X c #86A780",
".X c #8BA584",
"XX c #82AB83",
"oX c #8AAA84",
"OX c #8EAD8A",
"+X c #92AC8C",
"@X c #8DB583",
"#X c #8CBF83",
"$X c #88BE8E",
"%X c #95BA8C",
"&X c #99B093",
"*X c #9CBE93",
"=X c #9FBE98",
"-X c #A2BE9B",
";X c #AEBDAA",
":X c #83C187",
">X c #8BC384",
",X c #87C789",
"<X c #8CC88B",
"1X c #91C48B",
"2X c #98C48F",
"3X c #85D58C",
"4X c #88D78F",
"5X c #8FC992",
"6X c #97C694",
"7X c #9BC393",
"8X c #96CE90",
"9X c #9ACC95",
"0X c #94CC9A",
"qX c #9DC899",
"wX c #8DD793",
"eX c #90D795",
"rX c #96D99B",
"tX c #A0C397",
"yX c #A3C49B",
"uX c #A4CA9C",
"iX c #A8C99F",
"pX c #A3D19E",
"aX c #83E284",
"sX c #85E288",
"dX c #8AE38C",
"fX c #84F480",
"gX c #8CFF82",
"hX c #90FF85",
"jX c #94FF8B",
"kX c #93E595",
"lX c #9AE99C",
"zX c #97F593",
"xX c #A1F69D",
"cX c #9BDBA1",
"vX c #A9C7A1",
"bX c #A3CDA0",
"nX c #ACCBA5",
"mX c #AFCDA8",
"MX c #B3C1AF",
"NX c #B2CDAB",
"BX c #ABD3A4",
"VX c #B4D1AD",
"CX c #B7D1B0",
"ZX c #BCD3B5",
"AX c #BDD9B7",
"SX c #BED6B8",
"DX c #C1D7BA",
"FX c #C3D9BD",
"GX c #C6DCC0",
"HX c #C9DDC4",
"JX c #CDDCC8",
"KX c #CFE0CA",
"LX c #D1E1CE",
"PX c #D5E3D1",
"IX c #D9E5D6",
"UX c #DDE6DA",
/* pixels */
"MXIXIXLXLXLXLXLXLXLXLXLXPXPXPXPXPXPXPXPXPXPXPXPXPXPXPXPXPXIXUX;X",
"UX=XtXyXyXyXvXvXnXnXmXNXNXNXNXNXCXCXZXZXZXZXSXSXSXSXSXSXSXSXZXUX",
"JX*X*X*X7XtXyXyXyXvXvXnXnXmXNXNXNXNXCXCXCXZXZXZXZXZXZXZXSXSXSXLX",
"HX%X%X*XtXyXyXyXyXyXyXnXNXNXNXNXNXCXCXVXCXZXSXSXDXFXFXFXFXDXSXLX",
"GX@X%X!.6 , 2 t.yXtXyX8.< < .XNX9.2 t.VXCXe 4 &X4 4 4 6 6 |.DXLX",
"FX@X Xo . , X X u.*XvX= X O 8 mXW.O 4 VXZX= @ ZX% % 4 4 4 W.SXKX",
"SX^.w.. & r.9.q u.7XoXX 2 $ $ mXNX$ O nXW.@ 5 FX@ @ HXGXFXSXZXJX",
"VXQ.@X3   . . , !.7X9 X e 6 X t.iX7 O W.q O r.ZX@ @ @ @ % +XVXHX",
"vXp.e.w.t.8.> . 1 tX& . : & X 6 yXOXX 7 - $ mXVX+ + &.&.&.-XNXGX",
"yX5.q   * y.0 . 1  X. . . X X # tXyX= $ O 7 uXnXO + OXOXOX=XmXFX",
"7X/ ~.>     . & x.7 . 8 6XqX; X 0.6X9 O O x.6XbX+ + + + + w nXAX",
"2Xi %.M.v.q.q.:X'.k.q.v.'.:Xc.l.`.<X$Xz.z.0X5X0Xc._.XXXXXX%XuXZX",
"1Xi l 1.b.J.J.J.J.K.[.{.{.{.3X3X3X4XwXwXwXwXeXrXrXcXcXrX9X6X7XVX",
"#Xi l #.C.L.T.R.S.S.J.J.I.fXgXgXhXjXjX3X3X3X4XwXlXxXeXlX5X1X1XBX",
"^.u x v $.V.U.Y.A.L.P.P.P.E.(.(.).gXgXaXaXsXdXdXzXzXkXkX,X>X>XpX",
"m.u h v ^ ^ v =.1.i.i.a.a.g.g.g.b.b.b.b.b.n.n.F.G.H.].dX]././.9X",
"m.y h v ^ ^ z h h c -.2.2.4.4.7.a.a.d.d.s.f.f.h.h.F.G.sXH.m.m.8X",
"j.f j I ^ ^ j f f f f f c ) ;.2.2.2.2.6.7.7.7.7.f.h.D.}.F.j.j.<X",
"f.f j I ^ ! z p f f f f f f f f j k ( ) ) *.*.,.2.4.3.Z.3.<.*.m.",
"7.p d J | ! M g f f f f f f f f f f f f f f f f g d U X.L j p 7.",
"2.p d J | | M s g g g g g g g g g g g g g g g g s M U X.L d p 6.",
"2.s M K | | G M B B B B B B B B B B B B B B B B M G U X.G d p 2.",
">.s M K  .| P V B B B V V V V V V V V V V B B B V P ~ X.H M s >.",
":.n N K  .| H C B V V C C C C C C C C C C V V B C H ~ o.H M s :.",
"` n N R  . .Y C C C C C C C C C C C C C C C C C C H R o.H M n ` ",
"_ n N R  . .W C C C C D D D D D D D D D D C C C C W E O.Y N n _ ",
"Q m N E }  .Y D D D D D D D D D D D D D D D D D D Y E O.Y N n Q ",
"Q m A E }  .T T ! ! ! ! ! ! ! ! ! ! ! ! ! ! ! ! T T E O.Y N m Q ",
"C m A E ....N.B.B.B.B.B.B.B.B.B.B.B.B.B.B.B.B.B.B.N.N.@.Y A m C ",
"N Z A T ..+.@.@.@.@.@.@.@.@.@.@.@.@.@.@.@.@.@.@.@.@.@.o.T A m C ",
"b Z A S T [ [ { { { { | | | | | | | | | | { { { { [ T T S Z m a ",
"t b Z S S ' ' ' ' ' ' ' ' ] ] ] ] ] ] ' ' ' ' ' ' S S S F A a r "
};
