/* XPM */
static char * save++_icon_xpm[] = {
"32 32 768 2",
"  	c #FFFFFF",
". 	c #FDFDFD",
"+ 	c #E5E4E4",
"@ 	c #D2CFCC",
"# 	c #D0CDC8",
"$ 	c #D2CDC9",
"% 	c #D1CDC9",
"& 	c #D2D0CE",
"* 	c #ECECEB",
"= 	c #FEFEFE",
"- 	c #F9F9F9",
"; 	c #CAC7C5",
"> 	c #CAC6BF",
", 	c #D1CDC7",
"' 	c #D0CDC6",
") 	c #D0CCC5",
"! 	c #D0CBC4",
"~ 	c #D0CBC5",
"{ 	c #D2CEC7",
"] 	c #C6C2BC",
"^ 	c #D0CFCD",
"/ 	c #FCFCFC",
"( 	c #C0BFBC",
"_ 	c #BDBAB4",
": 	c #BEBBB4",
"< 	c #ADAAA5",
"[ 	c #676670",
"} 	c #373959",
"| 	c #2F3362",
"1 	c #303463",
"2 	c #303462",
"3 	c #3C3E5E",
"4 	c #78777E",
"5 	c #B5B3AD",
"6 	c #BAB7B1",
"7 	c #CCCCCA",
"8 	c #D7D7D6",
"9 	c #A6A49F",
"0 	c #AAA8A2",
"a 	c #858589",
"b 	c #1A2365",
"c 	c #1330A1",
"d 	c #4465CE",
"e 	c #5F7DD9",
"f 	c #627FD9",
"g 	c #637FD8",
"h 	c #637FD7",
"i 	c #637FD6",
"j 	c #637FD5",
"k 	c #637ED5",
"l 	c #627FD6",
"m 	c #5E7CD9",
"n 	c #4060CC",
"o 	c #122C9B",
"p 	c #2C3267",
"q 	c #979695",
"r 	c #A2A19C",
"s 	c #EBEBEB",
"t 	c #A6A5A3",
"u 	c #93938E",
"v 	c #878885",
"w 	c #162A84",
"x 	c #2754D3",
"y 	c #6287E1",
"z 	c #6487DE",
"A 	c #6586DB",
"B 	c #6586D9",
"C 	c #6585D7",
"D 	c #6585D6",
"E 	c #6585D5",
"F 	c #6585D4",
"G 	c #6585D3",
"H 	c #6586DA",
"I 	c #6486DC",
"J 	c #6587DE",
"K 	c #6186E1",
"L 	c #1F4DCD",
"M 	c #2E3B7F",
"N 	c #90908C",
"O 	c #B8B8B7",
"P 	c #7F7F7D",
"Q 	c #7C7D78",
"R 	c #474E6B",
"S 	c #1549C7",
"T 	c #5A89E2",
"U 	c #5D88DE",
"V 	c #5E86DA",
"W 	c #5E86D7",
"X 	c #5D85D4",
"Y 	c #5E84D2",
"Z 	c #5D84D0",
"` 	c #5D84CF",
" .	c #5E83CD",
"..	c #5E83CC",
"+.	c #5E83CE",
"@.	c #5D85D5",
"#.	c #5E86D8",
"$.	c #5E87DB",
"%.	c #5D88DF",
"&.	c #5B88E3",
"*.	c #1444C3",
"=.	c #606879",
"-.	c #7B7D78",
";.	c #919290",
">.	c #666966",
",.	c #636662",
"'.	c #1E3885",
").	c #3A76E0",
"!.	c #5489E0",
"~.	c #5587DB",
"{.	c #5586D7",
"].	c #5585D3",
"^.	c #5584D0",
"/.	c #5683CD",
"(.	c #5682CA",
"_.	c #5682C8",
":.	c #5782C7",
"<.	c #5781C6",
"[.	c #5881C5",
"}.	c #5682C9",
"|.	c #5683CB",
"1.	c #5585D4",
"2.	c #5586D8",
"3.	c #5588DC",
"4.	c #5389E2",
"5.	c #3A7AE3",
"6.	c #344C89",
"7.	c #636562",
"8.	c #797B79",
"9.	c #525653",
"0.	c #494E4B",
"a.	c #1842A0",
"b.	c #377DE2",
"c.	c #4A89DE",
"d.	c #4B87D9",
"e.	c #4B85D4",
"f.	c #4C84CF",
"g.	c #4D83CB",
"h.	c #4E81C8",
"i.	c #4E81C5",
"j.	c #4F80C3",
"k.	c #4F80C1",
"l.	c #4F7FBF",
"m.	c #507FBF",
"n.	c #507EBE",
"o.	c #4D82C8",
"p.	c #4C83CC",
"q.	c #4B84D0",
"r.	c #4B86D5",
"s.	c #4B88DA",
"t.	c #498AE0",
"u.	c #3B83E5",
"v.	c #294B96",
"w.	c #484D4A",
"x.	c #686B69",
"y.	c #3F4543",
"z.	c #313836",
"A.	c #1648A7",
"B.	c #2F80E3",
"C.	c #3F8ADE",
"D.	c #2B588D",
"E.	c #050B11",
"F.	c #112134",
"G.	c #000000",
"H.	c #4680C3",
"I.	c #477FC0",
"J.	c #477EBD",
"K.	c #487DBB",
"L.	c #497DB9",
"M.	c #497CB7",
"N.	c #4A7CB7",
"O.	c #487EBE",
"P.	c #477FC1",
"Q.	c #4681C4",
"R.	c #4482C8",
"S.	c #4384CD",
"T.	c #4186D3",
"U.	c #4188D9",
"V.	c #3E8ADF",
"W.	c #277DE5",
"X.	c #214B95",
"Y.	c #2F3734",
"Z.	c #595E5D",
"`.	c #4E5251",
" +	c #454A49",
".+	c #174FAA",
"++	c #2682E3",
"@+	c #348ADC",
"#+	c #03080D",
"$+	c #3071B0",
"%+	c #2F69A2",
"&+	c #3E7FBF",
"*+	c #2B5680",
"=+	c #0C1723",
"-+	c #030507",
";+	c #060B10",
">+	c #2A4C6E",
",+	c #437AB2",
"'+	c #04070A",
")+	c #020406",
"!+	c #386999",
"~+	c #386A9B",
"{+	c #04080C",
"]+	c #3E7FC0",
"^+	c #3471AC",
"/+	c #0F2133",
"(+	c #03060A",
"_+	c #0A1927",
":+	c #2A70B2",
"<+	c #0D6DE2",
"[+	c #26549B",
"}+	c #444947",
"|+	c #656968",
"1+	c #646867",
"2+	c #5F6564",
"3+	c #1956AF",
"4+	c #1885E4",
"5+	c #238BDC",
"6+	c #071825",
"7+	c #133A59",
"8+	c #205886",
"9+	c #1F5078",
"0+	c #357EBC",
"a+	c #2C6494",
"b+	c #2B5F8A",
"c+	c #3878AF",
"d+	c #306491",
"e+	c #04080B",
"f+	c #3A78AC",
"g+	c #346C9B",
"h+	c #09131C",
"i+	c #3976AB",
"j+	c #3877AC",
"k+	c #0A1620",
"l+	c #3273AA",
"m+	c #347EBD",
"n+	c #0C2131",
"o+	c #1B4C74",
"p+	c #2985CC",
"q+	c #1B68A2",
"r+	c #051725",
"s+	c #015FE0",
"t+	c #2E5FA5",
"u+	c #606563",
"v+	c #757878",
"w+	c #7A7D7C",
"x+	c #7A7E7D",
"y+	c #1C5DB3",
"z+	c #0488E5",
"A+	c #088CDC",
"B+	c #0A659C",
"C+	c #10537F",
"D+	c #0D334E",
"E+	c #071824",
"F+	c #2A7CB7",
"G+	c #1D5277",
"H+	c #071219",
"I+	c #000101",
"J+	c #020507",
"K+	c #3375A7",
"L+	c #102535",
"M+	c #1E4A69",
"N+	c #1C4664",
"O+	c #123046",
"P+	c #2C7BB4",
"Q+	c #297DB8",
"R+	c #010203",
"S+	c #000001",
"T+	c #0063E2",
"U+	c #356AAE",
"V+	c #7B7F7E",
"W+	c #848786",
"X+	c #8D8F8F",
"Y+	c #929594",
"Z+	c #1E65B8",
"`+	c #008CE7",
" @	c #008EDC",
".@	c #000202",
"+@	c #0372AD",
"@@	c #096FA6",
"#@	c #01070B",
"$@	c #1A7CB5",
"%@	c #010608",
"&@	c #1A5980",
"*@	c #2472A4",
"=@	c #1A4F71",
"-@	c #2974A4",
";@	c #1D5376",
">@	c #050F15",
",@	c #030B0F",
"'@	c #1D638E",
")@	c #1E7AB1",
"!@	c #197CB6",
"~@	c #031621",
"{@	c #065783",
"]@	c #0386CB",
"^@	c #026FC0",
"/@	c #003C81",
"(@	c #006BE5",
"_@	c #3C75B6",
":@	c #949795",
"<@	c #939595",
"[@	c #A0A1A1",
"}@	c #A9ABAB",
"|@	c #216CBC",
"1@	c #008FE9",
"2@	c #0090DD",
"3@	c #001B29",
"4@	c #00090E",
"5@	c #004F74",
"6@	c #057BB3",
"7@	c #063E59",
"8@	c #01080B",
"9@	c #02080B",
"0@	c #0B2D40",
"a@	c #061923",
"b@	c #1D72A1",
"c@	c #1D719F",
"d@	c #030E13",
"e@	c #061D2A",
"f@	c #1276A9",
"g@	c #0B79AE",
"h@	c #047BB4",
"i@	c #00699A",
"j@	c #001C2A",
"k@	c #000508",
"l@	c #000B16",
"m@	c #003163",
"n@	c #0073E8",
"o@	c #4280BE",
"p@	c #ABAEAD",
"q@	c #A1A2A2",
"r@	c #B1B1B1",
"s@	c #BEBFBF",
"t@	c #2374C1",
"u@	c #0093EB",
"v@	c #0092DE",
"w@	c #008CD3",
"x@	c #0087C9",
"y@	c #0082C0",
"z@	c #007EB8",
"A@	c #007BB1",
"B@	c #0078AC",
"C@	c #0176A7",
"D@	c #0673A3",
"E@	c #0A72A0",
"F@	c #0A719F",
"G@	c #0D709E",
"H@	c #0A72A1",
"I@	c #0773A3",
"J@	c #007BB2",
"K@	c #007AB7",
"L@	c #0067B4",
"M@	c #005FBA",
"N@	c #0066C8",
"O@	c #0070DA",
"P@	c #007BEC",
"Q@	c #4889C6",
"R@	c #C1C3C2",
"S@	c #AEAEAE",
"T@	c #C0C1C1",
"U@	c #D2D3D3",
"V@	c #257BC5",
"W@	c #0097ED",
"X@	c #0095E0",
"Y@	c #008ED4",
"Z@	c #0088C9",
"`@	c #0083BF",
" #	c #007FB8",
".#	c #0078AB",
"+#	c #0075A6",
"@#	c #0073A2",
"##	c #00719F",
"$#	c #00709E",
"%#	c #006F9D",
"&#	c #00729F",
"*#	c #0074A6",
"=#	c #0070A6",
"-#	c #0064A4",
";#	c #0059A5",
">#	c #005DAE",
",#	c #0065BD",
"'#	c #006DCA",
")#	c #0078DD",
"!#	c #0082F1",
"~#	c #4D92CD",
"{#	c #D6D7D5",
"]#	c #B9BABA",
"^#	c #CFCFCF",
"/#	c #E3E4E4",
"(#	c #2781C8",
"_#	c #009CEF",
":#	c #0097E1",
"<#	c #0090D4",
"[#	c #008AC9",
"}#	c #0084BF",
"|#	c #0080B7",
"1#	c #007CB0",
"2#	c #0078AA",
"3#	c #0076A5",
"4#	c #00709F",
"5#	c #006C9A",
"6#	c #006695",
"7#	c #006594",
"8#	c #006292",
"9#	c #006192",
"0#	c #005F92",
"a#	c #005890",
"b#	c #005490",
"c#	c #005292",
"d#	c #00569A",
"e#	c #005DA5",
"f#	c #0063B0",
"g#	c #006BBE",
"h#	c #0074CD",
"i#	c #007FDF",
"j#	c #008AF3",
"k#	c #529BD3",
"l#	c #E8E8E8",
"m#	c #C4C4C4",
"n#	c #DBDADA",
"o#	c #F2F2F2",
"p#	c #2988CA",
"q#	c #00A0EF",
"r#	c #009AE0",
"s#	c #0092D3",
"t#	c #008CC8",
"u#	c #0086BF",
"v#	c #0081B6",
"w#	c #007BAE",
"x#	c #006AA0",
"y#	c #005B92",
"z#	c #005289",
"A#	c #004C83",
"B#	c #004B81",
"C#	c #004A80",
"D#	c #00497F",
"E#	c #004F87",
"F#	c #00528C",
"G#	c #005693",
"H#	c #005B9A",
"I#	c #0062A5",
"J#	c #0068B1",
"K#	c #0071BF",
"L#	c #007ACD",
"M#	c #0085DF",
"N#	c #0091F2",
"O#	c #59A3D7",
"P#	c #F7F6F6",
"Q#	c #CACACA",
"R#	c #DBDBDB",
"S#	c #F3F3F3",
"T#	c #298DCA",
"U#	c #00A4EF",
"V#	c #009EE0",
"W#	c #0095D3",
"X#	c #008EC8",
"Y#	c #0088BE",
"Z#	c #0079B0",
"`#	c #00649E",
" $	c #005C95",
".$	c #00598F",
"+$	c #00568A",
"@$	c #005286",
"#$	c #005083",
"$$	c #005082",
"%$	c #005D95",
"&$	c #00629D",
"*$	c #0068A7",
"=$	c #006FB3",
"-$	c #0078C0",
";$	c #0081CE",
">$	c #008DE0",
",$	c #0099F2",
"'$	c #5CA6D7",
")$	c #F8F7F7",
"!$	c #C9C9C9",
"~$	c #DDDDDD",
"{$	c #278FC8",
"]$	c #00AAEF",
"^$	c #00A2E0",
"/$	c #0099D4",
"($	c #0092C9",
"_$	c #0080B9",
":$	c #006EA8",
"<$	c #0068A0",
"[$	c #006498",
"}$	c #005D8D",
"|$	c #004A72",
"1$	c #005787",
"2$	c #005686",
"3$	c #00598A",
"4$	c #004D75",
"5$	c #006092",
"6$	c #0069A0",
"7$	c #006FA9",
"8$	c #0076B5",
"9$	c #007FC2",
"0$	c #0088D0",
"a$	c #0094E0",
"b$	c #00A1F3",
"c$	c #58A4D1",
"d$	c #E1E1E1",
"e$	c #C0C0C0",
"f$	c #B7B7B7",
"g$	c #C6C6C6",
"h$	c #2593C6",
"i$	c #09AFF0",
"j$	c #0FA7E2",
"k$	c #149ED5",
"l$	c #0890C7",
"m$	c #007DB6",
"n$	c #0077AC",
"o$	c #0071A4",
"p$	c #006C9D",
"q$	c #006798",
"r$	c #006493",
"s$	c #00608E",
"t$	c #00608D",
"u$	c #005F8D",
"v$	c #006190",
"w$	c #006797",
"x$	c #0078AD",
"y$	c #0087C4",
"z$	c #0090D1",
"A$	c #009BE2",
"B$	c #00A9F4",
"C$	c #54A2CA",
"D$	c #CAC9C9",
"E$	c #B3B3B3",
"F$	c #A5A5A5",
"G$	c #B0B0B0",
"H$	c #2496C3",
"I$	c #23B5F1",
"J$	c #2FADE3",
"K$	c #2AA3D6",
"L$	c #028EC6",
"M$	c #0086BB",
"N$	c #007FB1",
"O$	c #007AAA",
"P$	c #0075A3",
"Q$	c #00719E",
"R$	c #006E9A",
"S$	c #006994",
"T$	c #006892",
"U$	c #006B96",
"V$	c #0080B2",
"W$	c #0087BC",
"X$	c #008FC7",
"Y$	c #0098D4",
"Z$	c #00A4E4",
"`$	c #00B1F5",
" %	c #50A1C5",
".%	c #B3B2B2",
"+%	c #949394",
"@%	c #9A9A9A",
"#%	c #2F99C2",
"$%	c #41BBF2",
"%%	c #48B3E5",
"&%	c #33A5D8",
"*%	c #1497CA",
"=%	c #1390C0",
"-%	c #1189B8",
";%	c #1183B1",
">%	c #107DA8",
",%	c #0D7097",
"'%	c #1082AE",
")%	c #128AB9",
"!%	c #1391C1",
"~%	c #1598CC",
"{%	c #17A2D9",
"]%	c #18ADE7",
"^%	c #19B9F7",
"/%	c #4E9EBF",
"(%	c #9C9C9C",
"_%	c #989898",
":%	c #838383",
"<%	c #858586",
"[%	c #4B9CC0",
"}%	c #5AC3F4",
"|%	c #5BBAE7",
"1%	c #45ACDB",
"2%	c #3CA1CF",
"3%	c #399AC7",
"4%	c #3794BF",
"5%	c #348FB9",
"6%	c #328BB4",
"7%	c #3087AF",
"8%	c #3084AC",
"9%	c #2E81A7",
"0%	c #2D80A6",
"a%	c #2E80A5",
"b%	c #2F82A8",
"c%	c #3187AF",
"d%	c #338BB4",
"e%	c #358FB9",
"f%	c #3795C0",
"g%	c #3A9BC8",
"h%	c #3DA3D2",
"i%	c #3FADDD",
"j%	c #45B6EA",
"k%	c #48C2F8",
"l%	c #5B9CB9",
"m%	c #868686",
"n%	c #8C8C8C",
"o%	c #727272",
"p%	c #707171",
"q%	c #5E9FBF",
"r%	c #71CBF7",
"s%	c #6FC2EB",
"t%	c #5DB6E0",
"u%	c #59AED7",
"v%	c #55A7CF",
"w%	c #52A2C9",
"x%	c #4F9CC3",
"y%	c #4D99BE",
"z%	c #4B95BA",
"A%	c #4993B7",
"B%	c #4890B3",
"C%	c #488FB2",
"D%	c #4790B3",
"E%	c #4991B4",
"F%	c #4D98BE",
"G%	c #4F9DC3",
"H%	c #52A3CA",
"I%	c #56A8D0",
"J%	c #59B0D9",
"K%	c #5DB7E2",
"L%	c #62C0EE",
"M%	c #68CBFA",
"N%	c #679BB3",
"O%	c #717171",
"P%	c #807F80",
"Q%	c #626162",
"R%	c #5C5C5C",
"S%	c #6A95AB",
"T%	c #86D4FA",
"U%	c #83CDF1",
"V%	c #77C2E7",
"W%	c #72BADE",
"X%	c #6EB5D8",
"Y%	c #6BB0D2",
"Z%	c #68ACCD",
"`%	c #66A8C9",
" &	c #64A5C5",
".&	c #63A3C3",
"+&	c #5185A0",
"@&	c #61A0C0",
"#&	c #619FBF",
"$&	c #62A1C1",
"%&	c #5287A1",
"&&	c #65A5C6",
"*&	c #67A8C9",
"=&	c #6AACCE",
"-&	c #6CB1D3",
";&	c #70B6D9",
">&	c #74BCE0",
",&	c #78C3E9",
"'&	c #7ECCF3",
")&	c #82D5FC",
"!&	c #6B8A9A",
"~&	c #747474",
"{&	c #484848",
"]&	c #5F6D75",
"^&	c #99D9F8",
"/&	c #99D9F7",
"(&	c #91D0EF",
"_&	c #8CCAE9",
":&	c #88C4E3",
"<&	c #85C0DE",
"[&	c #83BDDA",
"}&	c #81BAD7",
"|&	c #80B7D3",
"1&	c #7EB6D1",
"2&	c #7DB5D0",
"3&	c #7CB4CF",
"4&	c #7CB4CE",
"5&	c #80B8D4",
"6&	c #81BAD6",
"7&	c #86C1DF",
"8&	c #8AC6E4",
"9&	c #8ECCEB",
"0&	c #92D2F1",
"a&	c #98D9F9",
"b&	c #96D5EF",
"c&	c #565D60",
"d&	c #474747",
"e&	c #757575",
"f&	c #777677",
"g&	c #333333",
"h&	c #383838",
"i&	c #86A5B4",
"j&	c #B0E4FC",
"k&	c #ACDFF8",
"l&	c #A7DAF2",
"m&	c #A4D6EE",
"n&	c #A2D2EA",
"o&	c #A0D0E8",
"p&	c #9FCEE5",
"q&	c #9DCCE3",
"r&	c #9CCBE2",
"s&	c #9CCAE1",
"t&	c #9BC9E0",
"u&	c #9DCBE2",
"v&	c #A3D3EB",
"w&	c #A5D7EF",
"x&	c #A9DBF4",
"y&	c #ADE1F9",
"z&	c #B0E4FA",
"A&	c #728790",
"B&	c #353535",
"C&	c #979697",
"D&	c #B6B5B6",
"E&	c #2E2E2E",
"F&	c #212121",
"G&	c #2D2D2E",
"H&	c #81969F",
"I&	c #BFE4F3",
"J&	c #C5ECFC",
"K&	c #C3E9FA",
"L&	c #C2E7F9",
"M&	c #C1E6F8",
"N&	c #C0E5F6",
"O&	c #BFE5F6",
"P&	c #BFE4F5",
"Q&	c #BFE3F4",
"R&	c #BEE3F4",
"S&	c #C0E5F7",
"T&	c #C3E8FA",
"U&	c #C3EAFB",
"V&	c #C6EDFD",
"W&	c #B9DBE8",
"X&	c #6D7B81",
"Y&	c #262626",
"Z&	c #202020",
"`&	c #3B3B3B",
" *	c #D2D2D2",
".*	c #6E6D6E",
"+*	c #191919",
"@*	c #0F0F0F",
"#*	c #111111",
"$*	c #303334",
"%*	c #5A6265",
"&*	c #768287",
"**	c #778489",
"=*	c #737F83",
"-*	c #52585B",
";*	c #272829",
">*	c #0E0E0E",
",*	c #808080",
"'*	c #FAFAFA",
")*	c #E3E3E3",
"!*	c #707070",
"~*	c #222222",
"{*	c #080808",
"]*	c #030303",
"^*	c #0C0C0C",
"/*	c #282828",
"(*	c #6F6E6F",
"_*	c #E9E9E9",
":*	c #F7F7F7",
"<*	c #686868",
"[*	c #424242",
"}*	c #323232",
"|*	c #313131",
"1*	c #454445",
"2*	c #BDBDBD",
"3*	c #F8F8F8",
"    . + @ # $ $ $ $ $ $ $ $ $ $ $ $ $ $ $ $ $ $ $ % % & * =     ",
"  - ; > , ' ) ! ! ! ! ! ! ! ! ! ! ! ! ! ! ! ! ! ~ ) ' { ] ^ /   ",
". ( _ : < [ } | 1 1 1 2 2 2 2 2 2 2 2 2 2 1 1 1 1 3 4 5 : 6 7   ",
"8 9 0 a b c d e f g h i j k k k k k k l i h g f m n o p q 0 r s ",
"t u v w x y z A B C D E F G G G G G G F E D C H I J K L M N u O ",
"P Q R S T U V W X Y Z `  ........... .+.` Z Y @.#.$.%.&.*.=.-.;.",
">.,.'.).!.~.{.].^./.(._.:.<.[.[.[.[.<.:.}.|./.^.1.2.3.4.5.6.7.8.",
"9.0.a.b.c.d.e.f.g.h.i.j.k.l.m.n.n.m.l.k.j.i.o.p.q.r.s.t.u.v.w.x.",
"y.z.A.B.C.D.E.F.G.H.I.J.K.L.M.N.N.M.L.K.O.P.Q.R.S.T.U.V.W.X.Y.Z.",
"`. +.+++@+#+$+%+G.&+*+=+-+;+>+,+'+)+!+~+)+{+]+^+/+(+_+:+<+[+}+|+",
"1+2+3+4+5+6+7+8+9+0+a+b+c+d+e+f+g+h+i+j+k+l+m+n+o+p+q+r+s+t+u+v+",
"w+x+y+z+A+B+C+D+E+F+G+H+I+J+G.K+K+L+M+N+O+P+Q+R+G.G.G.S+T+U+V+W+",
"X+Y+Z+`+ @.@+@@@#@$@%@&@*@=@G.-@-@;@>@,@'@)@!@~@{@]@^@/@(@_@:@<@",
"[@}@|@1@2@.@3@4@5@6@7@8@9@0@G.a@b@c@d@e@f@g@h@i@j@k@l@m@n@o@p@q@",
"r@s@t@u@v@w@x@y@z@A@B@C@D@E@F@G@G@F@H@I@C@B@J@K@L@M@N@O@P@Q@R@S@",
"T@U@V@W@X@Y@Z@`@ #A@.#+#@###$#%#%#$#&#@#*#=#-#;#>#,#'#)#!#~#{#]#",
"^#/#(#_#:#<#[#}#|#1#2#3#4#5#6#7#8#9#0#a#b#c#d#e#f#g#h#i#j#k#l#m#",
"n#o#p#q#r#s#t#u#v#w#x#y#z#A#B#C#D#C#A#E#F#G#H#I#J#K#L#M#N#O#P#Q#",
"R#S#T#U#V#W#X#Y#Z#`# $.$+$@$#$$$$$#$@$+$.$%$&$*$=$-$;$>$,$'$)$Q#",
"!$~${$]$^$/$($_$:$<$[$0#}$|$1$2$2$1$3$4$5$[$6$7$8$9$0$a$b$c$d$e$",
"f$g$h$i$j$k$l$m$n$o$p$q$r$G.s$t$u$t$v$G.w$p$o$x$z@y$z$A$B$C$D$E$",
"F$G$H$I$J$K$L$M$N$O$P$Q$R$G.S$T$T$S$U$G.Q$P$O$V$W$X$Y$Z$`$ %.%F$",
"+%@%#%$%%%&%*%=%-%;%>%G.G.G.G.G.,%G.G.G.G.G.'%)%!%~%{%]%^%/%(%_%",
":%<%[%}%|%1%2%3%4%5%6%7%8%G.9%0%a%9%b%G.c%d%e%f%g%h%i%j%k%l%m%n%",
"o%p%q%r%s%t%u%v%w%x%y%z%A%G.B%C%C%D%E%G.z%F%G%H%I%J%K%L%M%N%O%P%",
"Q%R%S%T%U%V%W%X%Y%Z%`% &.&+&@&#&#&@&$&%&&&*&=&-&;&>&,&'&)&!&R%~&",
"R%{&]&^&/&(&_&:&<&[&}&|&1&2&3&4&4&3&2&1&5&6&[&7&8&9&0&a&b&c&d&e&",
"f&g&h&i&j&k&l&m&n&o&p&q&r&s&t&t&t&t&s&u&q&p&o&v&w&x&y&z&A&B&B&C&",
"D&E&F&G&H&I&J&K&L&M&N&O&P&Q&R&R&R&R&Q&P&O&S&M&T&U&V&W&X&Y&Z&`& *",
"S#.*+*@*#*$*%*&*********************************=*-*;*@*>*Z&,*'*",
"  )*!*~*{*]*]*]*]*]*]*]*]*]*]*]*]*]*]*]*]*]*]*]*]*]*]*^*/*(*_*  ",
"    :*E$<*[*}*|*|*|*|*|*|*|*|*|*|*|*|*|*|*|*|*|*|*}*1*o%2*3*    "};
