/* XPM */
static char *saveSelToScene[] = {
/* columns rows colors chars-per-pixel */
"32 32 78 1",
"  c #010100",
". c #080705",
"X c #0A0807",
"o c #0C0B0A",
"O c #100E0D",
"+ c #12100F",
"@ c #161513",
"# c #181715",
"$ c #1A1817",
"% c #1D1C1B",
"& c #201F1D",
"* c #22201E",
"= c #252423",
"- c #282725",
"; c #292827",
": c #2C2B2B",
"> c #32302F",
", c #373533",
"< c #3D3B3A",
"1 c #413F3D",
"2 c #494746",
"3 c #494846",
"4 c #4E4D4B",
"5 c #504F4E",
"6 c #50504F",
"7 c #555453",
"8 c #585755",
"9 c #5A5957",
"0 c #5D5C5A",
"q c #696765",
"w c #6A6967",
"e c #6D6B69",
"r c #716E6D",
"t c #74716E",
"y c #767471",
"u c #797673",
"i c #7B7976",
"p c #7E7C79",
"a c #817F7C",
"s c #83817E",
"d c #858381",
"f c #898784",
"g c #8A8985",
"h c #8D8C8A",
"j c #908F8D",
"k c #93918E",
"l c #969492",
"z c #999794",
"x c #9B9896",
"c c #9D9C9A",
"v c #A19F9D",
"b c #A2A19E",
"n c #A5A4A2",
"m c #A8A6A5",
"M c #AAA9A6",
"N c #ADABAA",
"B c #B0AFAD",
"V c #B2B0AF",
"C c #B6B4B3",
"Z c #B8B7B5",
"A c #BAB9B7",
"S c #BDBCBA",
"D c #C0BFBD",
"F c #C2C0BF",
"G c #C5C4C3",
"H c #C8C7C6",
"J c #CAC8C7",
"K c #CDCCCB",
"L c #D0CFCE",
"P c #D1D0CF",
"I c #D4D3D2",
"U c #D8D7D6",
"Y c #D8D8D7",
"T c #DDDCDC",
"R c #E1DFDF",
"E c #E5E5E4",
"W c gray91",
"Q c None",
/* pixels */
"JEETTTTTTTTRRRRRRRRRRRRRRRRRREWH",
"EZAASSSDFGGGGHHJJKKKKKKKKKKKKKKW",
"YCCZZASSSDFGGGGHHJJJKKKKKKKKKKKT",
"UBVCASSSSSSGGHGGHJJJJKLLIIIIIILT",
"INCc7<4hSASp23vGs4hJJy7M77888zPT",
"IMb@X<oOlZD:@#0Gl%8JK:=K--777lLT",
"Pmg.%fpqjCv+4&*GG=%Fz&9I==UUIPKY",
"JbN2  .,xC0oy7+hD0#lw%hK&*===nJY",
"Fclghy> 1S%X:=o7Sn@9:=GH%%iiiZHU",
"Ske =h0 <c ..XX#SS-%@9SG$$nnnCGI",
"Ain:   #l7 7CA;.dC0oOzZS@@#$%yGP",
"ZtdvlssmngdlnmjgxNmjjCVClzxcxNSK",
"CttdlzxzxccccvnnnmmMNNNBVCCZZZAJ",
"BtttaklllzzxxcccvbnnmMnNNNNBVCCH",
"Nttttuhkklllzzxxccvvbm0yBMNNNBVG",
"Mttttttphkklllzzxxcccm0 yNmMMNND",
"mtttttttydzbbbnnnmmmMB0  yNmmmMS",
"nttttttti3                rnbnnZ",
"ctttttttp4 %----;;;:::@  osjhhfm",
"ctttttttp4 yfssssssssg4 Xyittttc",
"ztttttyya4 eiyyyyyyyya4oypyttttz",
"lttyyyyya4 rpuuuuuuuup4rpuyyyttl",
"kyyyyyuus5 rpuuuuuuuuippuuyyyyyk",
"hyyyuuuus5 taiiiiiiiiiiuuuuuyyyh",
"hyuuuuuis6 taiiiiiiiiiiiiuuuuuyh",
"fuuuuiiis4 rapppppppiiiiiiiuuuuf",
"duuuiiiiaw3iappppppppppiiiiiuuud",
"suuiiiiipsssppppppppppppiiiiiuus",
"auiiiippppppppppppppppppppiiiiua",
"iiiiippppppppppppppppppppppiiiip",
"uiiippppppppppppppppppppppppiiiy",
"QyppaaaaaaaaaaaaaaaaaaaaaaaappyQ"
};
