/* XPM */
static char *savePlus[] = {
/* columns rows colors chars-per-pixel */
"32 32 74 1",
"  c #010100",
". c #080704",
"X c #0B0A07",
"o c #0D0C09",
"O c #100F0C",
"+ c #12110E",
"@ c #151512",
"# c #181714",
"$ c #1A1916",
"% c #1D1C1A",
"& c #201F1D",
"* c #22211E",
"= c #252422",
"- c #292827",
"; c #2C2C2A",
": c #343330",
"> c #393835",
", c #3C3B3A",
"< c #474644",
"1 c #484745",
"2 c #4A4947",
"3 c #4E4D4B",
"4 c #51514F",
"5 c #555452",
"6 c #585654",
"7 c #5A5956",
"8 c #5C5C59",
"9 c #666562",
"0 c #686765",
"q c #6E6C67",
"w c #6E6D69",
"e c #706F6A",
"r c #73726D",
"t c #767471",
"y c #787772",
"u c #7B7A75",
"i c #7F7D79",
"p c #807F7A",
"a c #83817D",
"s c #868581",
"d c #898783",
"f c #8A8985",
"g c #8D8C89",
"h c #908F8B",
"j c #93918E",
"k c #969491",
"l c #989694",
"z c #9A9996",
"x c #9E9D9A",
"c c #A09F9C",
"v c #A2A19E",
"b c #A5A4A1",
"n c #A9A7A4",
"m c #AAA9A6",
"M c #AEADAA",
"N c #B0AFAC",
"B c #B2B1AE",
"V c #B5B4B1",
"C c #B8B7B5",
"Z c #BAB9B6",
"A c #BDBCBA",
"S c #C0BFBD",
"D c #C1C1BE",
"F c #C5C4C2",
"G c #C8C7C5",
"H c #C9C8C6",
"J c #CDCCCA",
"K c #D0CFCD",
"L c #D1D0CE",
"P c #D4D3D2",
"I c #D9D9D7",
"U c #DEDDDC",
"Y c #E2E2E1",
"T c None",
/* pixels */
"CYYUUUUUUUUUUUUUUUUUUUUUUUUUUYYV",
"YVCCZZAASDDFFFGGHHHJJJJJJJJJJJJY",
"IBVVVCZZAAADDFFFFGHHHJJJJJJJJJJU",
"PMMVCAAZZZADFFFFGHHGHJJJLPPPPLJU",
"PmNz4,2fZCAu<<xFi3gGHr5m55556kKU",
"Pnx+.>oohVA-@@8Fk%5GH;=J==555kJI",
"Jvs $si9gVxo2%%FF=$Al%6L*=PPPJJI",
"Hxm<   :lV8Xt5OgA7@k0$fJ%&*==bHI",
"Azjfgt; ,C%.;*o5Zv+7;*FF$%yuuVFP",
"Zg0 =f8 ,z  ...@ZZ=%+6AD#$vbvVFP",
"Ctc;   $j4 5VC=.pV7ookVA@@@#$rDK",
"VqaxjppbvdajvbgslmbggBMVjklzzMAJ",
"BqqajkkkkzzzzxcvvvbnmmmMNBVVVVCH",
"MqqquhhjjjkkllzzxxcvvbbnmmMMNBBF",
"mqqqqrfghjjjkkllzzxxxvvbbnnmMMMD",
"nqqqqqqyfjkjjjjkkllzxvvvvvbbnmmA",
"vqqqqqqqr73kghjjjkklg6icxxcvbbnZ",
"cqqqqwwwu= ayafhjjjli 7xzzxxcvvV",
"xwwwweeei= aeeeeryidy 5lhjffffsb",
"zeeertuud- guuurtuupr 3auyrreeez",
"keeru6333@ 3332ar233, -3329treek",
"jrrri=         d0         1urrrj",
"hrrruwwey% yrrqaiwrr7 ,teqryrrrh",
"grrtyuiig- jaaaiiaast 4diuyytrrg",
"frtyyyuuf- hiiiiiiiat 4suuyyytrf",
"dtyyuuuud- gpppppppae 3suuuuyytd",
"syyuuuiiatwdaaaaaaaaawuaiiuuuyys",
"ayuuuiipaaaaaaaaaaaaaaaapiiuuuya",
"puuuiippaaaaaaaaaaaaaaaappiiuuup",
"uuuippaaaaaaaaaaaaaaaaaaaappiuuu",
"ruippaaaaaaaaaaaaaaaaaaaaaappiue",
"TeaaaaaassssssssssssssssaaaaaawT"
};
