/* XPM */
static char *sel[] = {
/* columns rows colors chars-per-pixel */
"32 32 115 2",
"   c #1C1912",
".  c #201E18",
"X  c #24231C",
"o  c #292722",
"O  c #2B2924",
"+  c #312E29",
"@  c #34322E",
"#  c #3E3B36",
"$  c #3F3C38",
"%  c #45433F",
"&  c #504D48",
"*  c #54534D",
"=  c #575450",
"-  c #585652",
";  c #5D5B56",
":  c #5F5D59",
">  c #605E5A",
",  c #62605D",
"<  c #686760",
"1  c #6D6B64",
"2  c #6E6C68",
"3  c #706D67",
"4  c #73716C",
"5  c #7A7774",
"6  c #7C7A74",
"7  c #7F7C78",
"8  c #817F7B",
"9  c #01940E",
"0  c #01990F",
"q  c #01A510",
"w  c #0CA018",
"e  c #0DAA1A",
"r  c #29962F",
"t  c #219D29",
"y  c #2A9B30",
"u  c #349B38",
"i  c #21A02A",
"p  c #2CA233",
"a  c #30AF38",
"s  c #5B9E58",
"d  c #41A243",
"f  c #4BA44C",
"g  c #46AE4A",
"h  c #53A153",
"j  c #57A857",
"k  c #5CA05A",
"l  c #69A765",
"z  c #6CAB68",
"x  c #83817D",
"c  c #84A479",
"v  c #8C8985",
"b  c #918E87",
"n  c #928F89",
"m  c #95948F",
"M  c #9D998F",
"N  c #9A9794",
"B  c #9E9B91",
"V  c #A29D94",
"C  c #A19E99",
"Z  c #9BA38D",
"A  c #93AD88",
"S  c #8CBC86",
"D  c #9FA290",
"F  c #97BE90",
"G  c #98BE91",
"H  c #A3A494",
"J  c #A5AA96",
"K  c #A6A39A",
"L  c #A9A59D",
"P  c #A7AA98",
"I  c #AAAC9D",
"U  c #A1B295",
"Y  c #A4B699",
"T  c #ACB29E",
"R  c #AABB9E",
"E  c #ABA7A0",
"W  c #ACABA1",
"Q  c #B1ADA5",
"!  c #B0AFAA",
"~  c #AEB1A0",
"^  c #B0B3A3",
"/  c #B5B3AB",
"(  c #B9B5AE",
")  c #B6BAAA",
"_  c #B9BDAD",
"`  c #B4B2B0",
"'  c #BAB7B1",
"]  c #BDBBB3",
"[  c #BFBDBA",
"{  c #C0BDB7",
"}  c #C1BFB9",
"|  c #AFC1A5",
" . c #BAC1AE",
".. c #BDC3B2",
"X. c #C1C4B6",
"o. c #C4C3BC",
"O. c #C5C8BB",
"+. c #C8C9BE",
"@. c #C6C6C4",
"#. c #C9C6C1",
"$. c #CCCAC4",
"%. c #CFCDC8",
"&. c #D1CECA",
"*. c #D4D2CE",
"=. c #D6D4D1",
"-. c #D9D7D3",
";. c #DBD9D6",
":. c #DEDCD9",
">. c #E1DFDC",
",. c #E2E1DE",
"<. c #E6E4E2",
"1. c #E8E7E5",
"2. c #EAE8E7",
"3. c #EAE9E8",
"4. c None",
/* pixels */
"@.1.2.1.1.1.1.1.1.1.1.1.2.2.2.2.2.2.2.2.2.2.2.2.2.2.2.2.2.3.2.o.",
"2.$.%.%.&.&.*.*.*.*.=.=.=.-.-.-.;.;.;.;.:.:.:.:.:.:.:.:.:.:.:.3.",
"<.$.$.$.%.%.&.&.&.*.*.*.=.=.=.-.-.-.;.;.;.;.;.:.:.:.:.:.:.:.:.<.",
"<.#.#.$.$.$.%.&.*.*.*.*.*.=.-.;.;.;.;.;.;.:.;.;.;.:.:.:.:.:.:.1.",
",.o.o.o.#.$.&.v = - 5 $.*.N ; ; : : : :.8 , [ ;.;.;.;.;.:.:.:.1.",
",.o.o.o.o.$.4 X # $ o = *.x O % ; ; ; :.> @ ` -.-.-.;.;.;.;.:.<.",
":.{ } } o.#.& X 4 W 8 8 *.x O x :.;.-.-.; @ / -.=.-.-.-.;.;.;.<.",
";.] ] { { o.W O X X + 7 *.8 o o O O - -.; + / =.*.=.=.=.-.-.-.<.",
"*.' ] ] ] o.C L L 3 O X / 7 X * x x m *.- O ! =.*.*.*.*.=.=.=.,.",
"&.Q ' ' ' } +   x K @ . ! 6 X < W W E *.= O 2 x x } *.*.*.*.=.>.",
"%.V / ( ( ] n X       1 $.5 X X X X X *.* o o o O W &.&.&.*.*.:.",
"$.M K / / ( ] o.N B / o.X./ H K K L K $.~ E E E E o.%.%.%.&.&.:.",
"$.M M L / / / ( ' ] ] ] ] ..X.X.O.O.O.O.O.+.#.#.$.#.#.$.$.$.%.;.",
"#.M M M K / / / ( ) _ _ ] ........X.X.X.X.O.O.O.o.o.o.#.#.$.$.-.",
"o.M M M M V Q / / ) ) _ _ _  ...........X.X.X.o.o.o.o.o.o.#.#.=.",
"o.M M M M M M K ^ ) ) ) _ _  .S S | ..........X.X.X.o.o.o.o.o.*.",
"} M M M M M M M Z J ~ ) R g q q q q a G ............{ { } } o.&.",
"] M M M M M M B D D H Z t 0 q q q q q e F  ...] ..] ] ] ] { } $.",
"] B B B B B B D H H H r 9 9 9 9 9 9 0 0 w Y ^ ) ) ) ^ Q Q Q W } ",
"' B B B B V H H H H c 9 9 9 9 9 9 9 9 9 9 s H H H H V V B B B ' ",
"( B B V V H H H H J k 9 9 9 9 9 9 9 9 9 9 u J H H H H V V B B ( ",
"/ V V V V H H J J J h 9 9 9 9 9 9 9 9 9 9 y J J J H H H V V V / ",
"/ V V V H H H J P P l 9 9 9 9 9 9 9 9 9 9 d P P J H H H V V V / ",
"Q V V V H K K P P P A 0 0 0 0 0 0 0 0 0 0 l P P P P K H V V V Q ",
"Q V V V K K K P I I T f 0 0 0 0 0 0 0 0 t T I I P P K K V V V Q ",
"W V C K K K L P I I T T d 0 0 0 0 0 0 t U T I I P L K K K C V W ",
"W C K K K K L I I I T T T z p 0 0 i j U T T I I I L L K K K C W ",
"E K K K K L L I I I I T T T T T T T T T T T I I I L L K K K K E ",
"K K K K L L L I I I I T T T T T T T T T T I I I I L L L K K K K ",
"C K K L L L L L I I I W ~ ~ ~ ~ ~ ~ ~ ~ ~ I I I I L L L L K K V ",
"b K L L L L L I I W W W W W ~ ~ ~ ~ W W W W W I I L L L L L K b ",
"4.b L L E E E E W W W W W W W W W W W W W W W W E E E E L L b 4."
};
