/* XPM */
static char *selMask[] = {
/* columns rows colors chars-per-pixel */
"32 32 228 2",
"   c black",
".  c #020202",
"X  c gray1",
"o  c #070707",
"O  c gray4",
"+  c #0B0B0B",
"@  c #101010",
"#  c #151514",
"$  c #151515",
"%  c gray9",
"&  c gray11",
"*  c #2C2C2C",
"=  c #2D2D2D",
"-  c #2E2E2D",
";  c gray18",
":  c #2F2F2F",
">  c #343434",
",  c gray21",
"<  c #373737",
"1  c #383837",
"2  c gray22",
"3  c #393938",
"4  c #393939",
"5  c gray23",
"6  c #3C3C3C",
"7  c #414141",
"8  c #434343",
"9  c #444444",
"0  c gray27",
"q  c #464646",
"w  c #474746",
"e  c gray28",
"r  c #484848",
"t  c #494949",
"y  c gray29",
"u  c #4B4B4B",
"i  c #4C4C4C",
"p  c gray30",
"a  c #4E4E4E",
"s  c #4F4F4E",
"d  c gray31",
"f  c #505050",
"g  c #505151",
"h  c #515151",
"j  c gray32",
"k  c #535353",
"l  c #535354",
"z  c gray33",
"x  c #545555",
"c  c #555555",
"v  c #565656",
"b  c #565657",
"n  c gray34",
"m  c #585858",
"M  c gray35",
"N  c #5A5A59",
"B  c #5A5A5A",
"V  c #5B5B5B",
"C  c #5B5C5C",
"Z  c gray36",
"A  c #5C5D5D",
"S  c #5D5D5D",
"D  c gray37",
"F  c #5F5F5F",
"G  c #606060",
"H  c #616160",
"J  c gray38",
"K  c #626262",
"L  c gray39",
"P  c #646464",
"I  c #656564",
"U  c #656565",
"Y  c gray40",
"T  c #676767",
"R  c #686868",
"E  c DimGray",
"W  c #6A6A6A",
"Q  c #6C6C6C",
"!  c #6D6D6D",
"~  c #6F6F6F",
"^  c gray44",
"/  c #717171",
"(  c #727272",
")  c gray45",
"_  c #747373",
"`  c #747474",
"'  c #747475",
"]  c gray46",
"[  c #767676",
"{  c #767777",
"}  c #777777",
"|  c gray47",
" . c #797979",
".. c #797A7A",
"X. c gray48",
"o. c #7B7A7A",
"O. c #7A7B7B",
"+. c #7B7B7B",
"@. c #7C7C7B",
"#. c #7C7C7C",
"$. c gray49",
"%. c #7E7E7E",
"&. c #7F7F7F",
"*. c #808080",
"=. c #818180",
"-. c #818181",
";. c gray51",
":. c #838382",
">. c #838383",
",. c #848484",
"<. c gray52",
"1. c #868686",
"2. c gray53",
"3. c #888888",
"4. c #898989",
"5. c #8A8A89",
"6. c gray54",
"7. c #8B8B8B",
"8. c #8C8C8B",
"9. c gray55",
"0. c #8D8D8C",
"q. c #8D8D8D",
"w. c #8E8E8E",
"e. c gray56",
"r. c #909090",
"t. c gray57",
"y. c #929292",
"u. c #939393",
"i. c gray58",
"p. c #959595",
"a. c gray59",
"s. c #979797",
"d. c #989797",
"f. c #989898",
"g. c gray60",
"h. c #9A9999",
"j. c #9A9A9A",
"k. c #9B9B9B",
"l. c gray61",
"z. c #9D9D9D",
"x. c gray62",
"c. c #9F9F9F",
"v. c #A0A0A0",
"b. c #A1A0A0",
"n. c gray63",
"m. c #A2A2A2",
"M. c gray64",
"N. c #A4A4A4",
"B. c #A5A4A4",
"V. c #A5A5A5",
"C. c #A6A6A5",
"Z. c gray65",
"A. c #A7A7A6",
"S. c #A7A7A7",
"D. c gray66",
"F. c #A9A9A9",
"G. c #AAAAA9",
"H. c #AAAAAA",
"J. c gray67",
"K. c #ACACAC",
"L. c gray68",
"P. c #AEADAD",
"I. c #AEAEAE",
"U. c #AFAFAF",
"Y. c #B0AFAF",
"T. c gray69",
"R. c #B1B0B0",
"E. c #B1B1B0",
"W. c #B1B1B1",
"Q. c #B2B2B2",
"!. c gray70",
"~. c #B4B4B4",
"^. c gray71",
"/. c #B6B6B6",
"(. c #B7B7B6",
"). c #B7B7B7",
"_. c #B8B7B7",
"`. c gray72",
"'. c #B9B9B9",
"]. c #BAB9B9",
"[. c gray73",
"{. c #BBBBBB",
"}. c #BCBCBC",
"|. c #BDBDBC",
" X c gray74",
".X c #BEBEBD",
"XX c gray",
"oX c #BFBFBE",
"OX c gray75",
"+X c #C0C0C0",
"@X c #C1C0C0",
"#X c gray76",
"$X c #C5C5C5",
"%X c #C6C6C6",
"&X c gray78",
"*X c #C8C7C7",
"=X c gray79",
"-X c #CACACA",
";X c #CBCBCB",
":X c #CCCBCB",
">X c #CECDCD",
",X c #CECECE",
"<X c gray81",
"1X c gray82",
"2X c #D2D1D1",
"3X c #D2D2D2",
"4X c LightGray",
"5X c gray83",
"6X c #D5D5D5",
"7X c gray84",
"8X c gray85",
"9X c #DADADA",
"0X c #DBDADA",
"qX c #DDDCDC",
"wX c #DDDDDD",
"eX c #DFDFDF",
"rX c #E3E2E2",
"tX c #E5E4E4",
"yX c #E8E7E7",
"uX c #EAE9E9",
"iX c #ECEBEB",
"pX c #F1F0F0",
"aX c #F3F2F2",
"sX c #F7F6F6",
"dX c #FAF9F9",
"fX c #FCFBFB",
"gX c #FEFDFD",
"hX c None",
/* pixels */
"~.9X8X1X1X3X3X3X4X5X5X5X5X5X6X6X6X6X7X7X7X7X7X7X7X7X7X7X7X9XwXU.",
"wXv.m.N.Z.S.F.J.L.U.T.Q.!.^./.).'.[.{. X XXXOXOXOXOXOXOXOXOXXXeX",
",Xk.z.x.n.M.N.S.D.H.K.I.U.W.Q.~.^.).`.[.[.}. XXXOXOXOXOXOXOXOX4X",
"-Xa.f.j.k.x.n.A.L.I.L.J.K.E./.`.[.{.{.'.}.oX X{. X XXXOXOXOXOX3X",
"&Xr.u.i.a.k.Z.I : : j C.L.` < 3 4 5 6  XH 7 v.[.[.[.}. X XOXOX3X",
"%X7.q.e.t.j.a   % %   ; I.D X & , 2 1 |.6 @ a.)./.).'.[.{.}. X1X",
"+X1.3.6.9.s.*   s 2.V B J.S   D .X{.).(.3 + u.~.Q.~.^.).`.'.[.,X",
"`.-.>.<.2.e.,.+     + B F.V         : ~.> o e.U.I.U.W.!.^./.).;X",
"K.#.&.*.;.7.[ &.=.i +   7.N   = V Z ~ T.: . e.T.I.L.L.U.T.Q.!.=X",
"S.E X.#.$.5.#   D &.$   3.m   8 2.3.;.K.;   w F D k.H.H.K.I.U.$X",
"M.i ] }  .-.R O       t j.k           G.-         :.Z.V.S.F.J.#X",
"c.8 n ) ` | &.8.^ ( ;.0.4.-.[ ..@.#. .k.,.&.;.:.-.j.c.n.m.N.S.XX",
"k.8 8 V / ( ` } #.%.$.&.-.>.3.4.7.w.w.w.t.i.a.f.g.f.g.k.x.c.n.'.",
"a.8 8 8 n ! / ( ` [ |  .#.$.*.;.>.,.2.3.6.7.q.e.t.y.i.a.g.j.l.~.",
"t.8 8 8 8 p R ~ / ) ' [ | X.+.$.&.*.;.,.<.2.4.6.9.w.e.t.u.p.s.I.",
"q.8 8 8 8 9 9 k T ^ / ) ` { O.2.2.&.%.*.;.;.,.1.2.4.6.9.q.r.y.H.",
"4.8 8 8 8 9 0 0 q z Y /  .m.@X%X%X@XB.-.$.&.&.-.;.,.1.2.4.7.q.V.",
",.8 8 9 0 0 q e e r t D _.:X7X0X0X7X:X].,.+.$.$.&.*.;.;.<.<.3.c.",
"*.9 0 0 q e e r y y h P.>XqXyXiXiXyXqX>XR.W Y ( ( / R R R W K 6.",
"+.0 q q e t t u i p _ *X9XuXaXsXsXaXuX9X*X_ p u u t r e q q 0 +.",
"} e e r y u p p d g d.<XrXpXdXgXgXdXpXrX<Xs.f a p i y y r e e } ",
"` r t y i a d f j l b.2XtXaXfXgXgXfXaXtX2Xv.k h f a p i y t r ` ",
"~ y u i a f h k x v h.<XrXpXdXgXgXdXpXrX<Xh.v z k h d a i u y ~ ",
"Q u i a f j k c b m o.*X9XuXaXsXsXaXuX9X*Xo.n v c k h d a i u Q ",
"E p a d j k c m M V J Y.>XqXyXiXiXyXqX>XY.J B M n c k h d a p E ",
"Y a f h z c m B V Z S ! _.:X7X0X0X7X:X_.! Z Z V M n c k h f a Y ",
"K f j k c n M V C S D G E l.@X%X%X@Xl.E F D A V V m n c k j f K ",
"F j k c v M B Z S D G G G J Y ] ] Y J G G F D S V B m v c k j F ",
"V k c n m M Z S D F G J K K K K K K K K G G F S S V M m n c k V ",
"n c n m B V Z D F G J J J J K K K J J J J J F F S Z V B m n c n ",
"j v m B V Z S D G G G K K K K K K K K K K G G F D S Z V B m v d ",
"hXf V S D F G J J L L L L U U U U U P L L L K J J G F D S V d hX"
};
