/* XPM */
static char *selStore[] = {
/* columns rows colors chars-per-pixel */
"32 32 91 1",
"  c #030100",
". c #080400",
"X c #0B0800",
"o c #0C0C0B",
"O c #110D06",
"+ c #17130D",
"@ c #19150F",
"# c #1A1610",
"$ c #1C1912",
"% c #211E18",
"& c #24211C",
"* c #292622",
"= c #2C2924",
"- c #312E29",
"; c #34322E",
": c #38342F",
"> c #3E3B36",
", c #3F3C38",
"< c #413D37",
"1 c #423E39",
"2 c #45423C",
"3 c #48443F",
"4 c #494641",
"5 c #4B4843",
"6 c #524E47",
"7 c #504D48",
"8 c #52514D",
"9 c #575450",
"0 c #585652",
"q c #5D5A56",
"w c #5E5C59",
"e c #625F5A",
"r c #65625D",
"t c #686560",
"y c #6D6965",
"u c #6E6C68",
"i c #706D67",
"p c #716F69",
"a c #73716C",
"s c #797772",
"d c #7D7A76",
"f c #7F7C78",
"g c #817F7B",
"h c #84827D",
"j c #88857F",
"k c #8A8782",
"l c #8C8984",
"z c #918E87",
"x c #938F8A",
"c c #95938D",
"v c #99968F",
"b c #9D988F",
"n c #9A9792",
"m c #9E9A91",
"M c #A29D95",
"N c #A09D98",
"B c #A4A097",
"V c #A6A29A",
"C c #A9A59D",
"Z c #ABA89F",
"A c #A7A4A0",
"S c #AAA7A1",
"D c #ACA9A1",
"F c #B1ADA6",
"G c #B1AFA9",
"H c #B5B2AB",
"J c #B9B5AE",
"K c #B4B2B0",
"L c #BAB7B1",
"P c #BDBAB4",
"I c #BFBDBA",
"U c #C0BDB7",
"Y c #C1BEB9",
"T c #C5C2BC",
"R c #C6C6C4",
"E c #C9C6C1",
"W c #CCC9C5",
"Q c #CFCDC8",
"! c #D1CECA",
"~ c #D4D2CE",
"^ c #D6D4D1",
"/ c #D9D7D3",
"( c #DBD9D6",
") c #DEDCD9",
"_ c #E1DFDC",
"` c #E2E1DE",
"' c #E6E4E2",
"] c #E8E7E5",
"[ c #EAE8E7",
"{ c #EAE9E8",
"} c None",
/* pixels */
"R][]]]]]]]]][[[[[[[[[[[[[[[[[{[T",
"[WQQ!!~~~~^^^///(((())))))))))){",
"'WWWQQ!!!~~~^^^///((((())))))))'",
"'EEWWWQ!~~~~~^/(((((()((())))))]",
"`TTTEW!l90sW~nqqwww)grI((((()))]",
"`TTTTWa&>,=9~h=3qqq)e;K///(((()'",
")UYYTE7&aDgg~h=h)(//q;H/^///((('",
"(PPUUTD=&&-f~g**==0/q-H^~^^^///'",
"~LPPPTNCCi=&Hf&8ghc~0=G^~~~~^^^`",
"!FLLLY-$hV;%Gd&tDDS~9=uhhY~~~~^_",
"QMHJJPx&$$$yEs%%&&&!8**==D!!!~~)",
"WbVHHJPTnmGTYGNVVVVWDASSSTWQQ!!)",
"WbbCHHHJLLLLLPUUYTTTTTEEEEEWWWQ(",
"EbbbVHHHJPUUYYTTTTTTEEETTTTEEWW/",
"TbbbbMFGL<<111222234455STTTTTEE^",
"TbbbbbbBLOncccvvnnmq#$$NYYYTTTT~",
"YbbbbbbbZ LHHHJJJLPp+@#mPPPUYYT!",
"PbbbbbbmS FVZFHLLLUp++dJPLPPPUYW",
"PmmmmmmmD wwwwqqqwr:XX6CHHFFFFDY",
"LmmmmmmMD     o88o     hMmmmmmmL",
"JmmMMMMMD     lDDl     jBMMMMmmJ",
"HMMMMMMMF     HVVH     kVMMMMMMH",
"HMMMMMMMF     yHHy     kVMMMMMMH",
"FMMMMMBBF      **      lCBMMMMMF",
"FMMMBBVVG      1r      lCVBBMMMF",
"DMMBBVVVH .....rx..... lZVVBBMMD",
"DMBVVVVCH......rc......lZVVVVBMD",
"DBVVVVCCH......=2......lDCVVVVBD",
"VVVVCCCCFerrrrrrrrrrrrrmSCCCVVVV",
"MVVCCCCCDDFFFFFFFFFFFFFDCCCCCVVM",
"zVCCCCZZZDDDDDDDDDDDDDDZZZCCCCVz",
"}zCCSSSSDDDDDDDDDDDDDDDDSSSSCCz}"
};
