/* XPM */
static char *shotbrowser[] = {
/* columns rows colors chars-per-pixel */
"32 32 119 2",
"   c #000000",
".  c #050D06",
"X  c #070F08",
"o  c #071008",
"O  c #09150B",
"+  c #0B1B0D",
"@  c #0E1F10",
"#  c #0C220D",
"$  c #0B330C",
"%  c #0E380F",
"&  c #0E2111",
"*  c #102313",
"=  c #122B14",
"-  c #142B18",
";  c #0F3A10",
":  c #113C13",
">  c #17301B",
",  c #18371D",
"<  c #18391E",
"1  c #1C3E21",
"2  c #014701",
"3  c #044B05",
"4  c #064F08",
"5  c #0A4E0A",
"6  c #065007",
"7  c #075108",
"8  c #0B540C",
"9  c #0C590F",
"0  c #144116",
"q  c #154318",
"w  c #19451C",
"e  c #1A481E",
"r  c #0F5610",
"t  c #0E5C12",
"y  c #125513",
"u  c #125C15",
"i  c #165519",
"p  c #1A511E",
"a  c #165F19",
"s  c #19591B",
"d  c #126216",
"f  c #156519",
"g  c #19641D",
"h  c #16691B",
"j  c #196C1E",
"k  c #1E4625",
"l  c #1E4B22",
"z  c #215C26",
"x  c #23542A",
"c  c #1C6D21",
"v  c #1D7324",
"b  c #206D25",
"n  c #276E2E",
"m  c #207327",
"M  c #207B26",
"N  c #23732A",
"B  c #237B2B",
"V  c #28792F",
"C  c #2C6434",
"Z  c #2D6836",
"A  c #326E3C",
"S  c #2A7531",
"D  c #277F30",
"F  c #2B7C32",
"G  c #33723E",
"H  c #367641",
"J  c #377843",
"K  c #3A7B46",
"L  c #25822E",
"P  c #278331",
"I  c #2A8433",
"U  c #2B8A35",
"Y  c #2E8C39",
"T  c #31843B",
"R  c #328C3B",
"E  c #2D9036",
"W  c #32923D",
"Q  c #349B3D",
"!  c #378140",
"~  c #398545",
"^  c #368D41",
"/  c #398D43",
"(  c #349641",
")  c #399344",
"_  c #369A43",
"`  c #399D46",
"'  c #3D954A",
"]  c #3C9D49",
"[  c #3DA44B",
"{  c #3FA94D",
"}  c #3FA950",
"|  c #409B4E",
" . c #439D51",
".. c #41A44E",
"X. c #41AB4E",
"o. c #44A453",
"O. c #43AC53",
"+. c #49AB58",
"@. c #45B256",
"#. c #49B856",
"$. c #46B359",
"%. c #4AB55B",
"&. c #4BBA5E",
"*. c #50B25F",
"=. c #4DBD61",
"-. c #52BC64",
";. c #50C65F",
":. c #4FC163",
">. c #51C465",
",. c #54CB66",
"<. c #54C669",
"1. c #59C56D",
"2. c #55CA6B",
"3. c #58CB6D",
"4. c #56D06A",
"5. c #59D46D",
"6. c #5CCC71",
"7. c #5DDB71",
"8. c #66E079",
/* pixels */
"A A A A A Z H H H H H H J J K J K K K K K K K K K K ~ K K K K K ",
"*.%.%.%.=.-.-.-.=.:.-.<.-.<.<.2.1.1.3.6.3.3.6.6.6.6.6.6.6.6.6.6.",
"+.O.O.O.@.$.o.$.&.%.&.&.-.=.:.:.>.<.<.<.2.2.2.2.2.2.2.2.2.2.6.6.",
"o.o.{ } } O.O.$.$.$.$.&.=.=.=.=.:.:.:.>.<.>.<.,.2.2.2.2.2.6.6.6.",
"[ [ [ [ { } } } @.@.@.$.$.&.&.&.=.=.:.:.<.:.<.<.<.2.2.4.2.2.3.6.",
"] [ ` [ [ [ } } } O.O.$.$.$.$.&.&.=.:.2.<.:.:.<.<.<.<.2.2.2.6.6.",
"' ] _ _ _ [ [ } O.&.;.,.,.:.%.$.} =.<.3.2.=.=.:.:.:.<.>.<.<.3.6.",
"' _ ( _ _ ` ] } &.' Z C G | ,.>.>.$.o   1 2.:.:.:.:.:.>.>.<.6.6.",
"( ^ Y ( ( ( } O.=           o ~ 3.+.    + 3.-.=.:.:.:.:.:.:.2.3.",
"^ ^ Y U Y [ O.o               < 7.o.    * <.&.%.$.&.&.=.:.:.<.3.",
"Y ^ U U Y { l       , x <     k 5.o.    * 1.5.5.5.:.&.&.=.=.-.1.",
"I P P P Y ] O     Z >.&.&...o = ,. .    - 8.~ k Z <.:.&.&.&.<.-.",
"I F B P Y ( .     ! >.[ ` X.[ T $.|     > x       & 2.:.$.$.=.-.",
"F B B D L ^ X       x T X.X.[ [ X.'                 Z 6.$.$.=.-.",
"V B v v v ( $   .       . x { [ [ )       1 H @     @ -.$.$.$.-.",
"n v v v B U n               O ] ../     @ 2.5.o.      } $.} +.*.",
"m c j c v m E z               < #./     # O...#.O     | $.{ o.%.",
"b j j j j c m E F w +           [ R     + ..] @.*     / $.{ o.+.",
"c g f f h j M M B E W T >       / /     # ..] ..@     / O.[ [ o.",
"g f d d j g + N P B N Q (       R R     + ] ] ...     ' [ _ [ o.",
"g u t d h j     p N I E l     X ` F     @ O.$.z     O { Q ( _ [ ",
"s u 9 9 f g       . O X       e Q S       > =       x { Y ( ) | ",
"a t 9 9 d g                 # P I N               o ` W Y Y ( ) ",
"y 8 6 8 8 d s #           : L v m b .   = =     + T W I I U R ) ",
"y 8 6 7 8 8 f j h a i s m M h h h c B B I Y n v E U B P P U U ^ ",
"y 7 3 5 6 7 7 9 t d f f d u d d f h j v v v B L B m P v v I P ^ ",
"8 5 2 3 3 6 6 7 8 8 8 9 9 9 t d d d d f f h c c v v v v v B D T ",
"r 3 2 2 3 3 6 6 6 7 7 8 8 9 9 t t t d d d h h h h j v v v v B T ",
"5 3 2 2 2 2 3 3 3 5 4 7 8 7 8 9 t t t t d d f f h h h c v v v I ",
"y 5 2 2 2 3 3 2 3 3 4 4 6 8 8 8 8 9 t t t u t f f h h g v c v F ",
"i 5 3 5 5 3 4 5 3 5 5 8 8 8 8 y t y y u f a f g g h c c c c N S ",
"$ = $ $ $ $ $ $ $ $ $ $ $ % $ % % % % ; ; ; ; ; 0 : : q w q q l "
};
