/* XPM */
static char * srv_win_xpm[] = {
"31 32 783 2",
"  	c #FFFFFF",
". 	c #FDFDFD",
"+ 	c #E2E2E1",
"@ 	c #D1CFCC",
"# 	c #D1CDC8",
"$ 	c #D2CDC9",
"% 	c #D1CCC8",
"& 	c #D1CECB",
"* 	c #DFDDDD",
"= 	c #FBFBFB",
"- 	c #F8F8F8",
"; 	c #C8C6C3",
"> 	c #CBC7C0",
", 	c #D1CDC7",
"' 	c #D1CDC6",
") 	c #D0CCC5",
"! 	c #D0CBC4",
"~ 	c #CDC8C2",
"{ 	c #C3C1BD",
"] 	c #F2F2F2",
"^ 	c #FCFCFC",
"/ 	c #BFBEBB",
"( 	c #BDBAB4",
"_ 	c #BEBBB4",
": 	c #A7A5A1",
"< 	c #5F5E6A",
"[ 	c #35375A",
"} 	c #2F3363",
"| 	c #303463",
"1 	c #303462",
"2 	c #303364",
"3 	c #33365F",
"4 	c #57576A",
"5 	c #A19F9C",
"6 	c #BDBBB4",
"7 	c #BEBBB5",
"8 	c #B7B5B2",
"9 	c #F9F9F9",
"0 	c #D6D5D5",
"a 	c #A6A49F",
"b 	c #A9A8A2",
"c 	c #7C7D84",
"d 	c #151F69",
"e 	c #1837A9",
"f 	c #4A6AD1",
"g 	c #617EDA",
"h 	c #627FD8",
"i 	c #637FD7",
"j 	c #637FD6",
"k 	c #637FD5",
"l 	c #637ED5",
"m 	c #637FD8",
"n 	c #6380DA",
"o 	c #506FD5",
"p 	c #2745B9",
"q 	c #111F72",
"r 	c #70717E",
"s 	c #A9A7A1",
"t 	c #A7A6A0",
"u 	c #CAC9C8",
"v 	c #A5A5A3",
"w 	c #93938E",
"x 	c #828382",
"y 	c #11288C",
"z 	c #2F5CD6",
"A 	c #6387E0",
"B 	c #6487DD",
"C 	c #6586DB",
"D 	c #6586D9",
"E 	c #6585D7",
"F 	c #6585D6",
"G 	c #6585D5",
"H 	c #6585D4",
"I 	c #6585D3",
"J 	c #6586D8",
"K 	c #6586DA",
"L 	c #6689E0",
"M 	c #426EDD",
"N 	c #0E2A9B",
"O 	c #797C83",
"P 	c #999997",
"Q 	c #7F7F7C",
"R 	c #7C7D78",
"S 	c #40496D",
"T 	c #1C50CC",
"U 	c #5B89E2",
"V 	c #5D87DE",
"W 	c #5E86DA",
"X 	c #5E86D6",
"Y 	c #364E7C",
"Z 	c #030507",
"` 	c #030407",
" .	c #030406",
"..	c #222F4A",
"+.	c #5E83CC",
"@.	c #5E83CD",
"#.	c #5E84CE",
"$.	c #5D84D0",
"%.	c #5E84D1",
"&.	c #5D85D3",
"*.	c #5E86D9",
"=.	c #5D87DD",
"-.	c #5D89E1",
";.	c #356BDC",
">.	c #33488A",
",.	c #7B7C78",
"'.	c #787976",
").	c #666966",
"!.	c #636662",
"~.	c #19378B",
"{.	c #407BE1",
"].	c #5488E0",
"^.	c #5587DA",
"/.	c #5586D6",
"(.	c #5585D2",
"_.	c #020305",
":.	c #324C77",
"<.	c #4568A2",
"[.	c #42649A",
"}.	c #344C76",
"|.	c #4B70AC",
"1.	c #5881C5",
"2.	c #5880C5",
"3.	c #567EC0",
"4.	c #5781C6",
"5.	c #5782C7",
"6.	c #5782C9",
"7.	c #5683CC",
"8.	c #5684CE",
"9.	c #5488DF",
"0.	c #518AE5",
"a.	c #194BB5",
"b.	c #616564",
"c.	c #606360",
"d.	c #525653",
"e.	c #494E4C",
"f.	c #1442A6",
"g.	c #3C80E3",
"h.	c #4A89DE",
"i.	c #4B87D8",
"j.	c #4A85D3",
"k.	c #4C84CE",
"l.	c #010102",
"m.	c #31527F",
"n.	c #4876B6",
"o.	c #4F80C2",
"p.	c #4E7EBE",
"q.	c #4B78B5",
"r.	c #000000",
"s.	c #121C2A",
"t.	c #030508",
"u.	c #1B2B41",
"v.	c #4F80C4",
"w.	c #132031",
"x.	c #17273C",
"y.	c #4C83CE",
"z.	c #4B85D2",
"A.	c #4A89DD",
"B.	c #4B8DE4",
"C.	c #1857C9",
"D.	c #494F51",
"E.	c #484D4A",
"F.	c #3E4443",
"G.	c #323A38",
"H.	c #1248AD",
"I.	c #3383E3",
"J.	c #3F89DD",
"K.	c #4187D6",
"L.	c #4185D1",
"M.	c #4383CA",
"N.	c #112031",
"O.	c #000101",
"P.	c #080C13",
"Q.	c #1B3048",
"R.	c #4679B4",
"S.	c #497DB9",
"T.	c #18283B",
"U.	c #3E689A",
"V.	c #264160",
"W.	c #030609",
"X.	c #3E6DA2",
"Y.	c #477FBF",
"Z.	c #020405",
"`.	c #2E5583",
" +	c #3A70AD",
".+	c #4185D0",
"++	c #3F89DC",
"@+	c #3B8BE4",
"#+	c #1057CB",
"$+	c #343D3F",
"%+	c #323937",
"&+	c #4E5251",
"*+	c #454B4A",
"=+	c #134FB0",
"-+	c #2985E3",
";+	c #348ADC",
">+	c #3687D4",
",+	c #3884CE",
"'+	c #3B82C8",
")+	c #3D80C3",
"!+	c #254B71",
"~+	c #112030",
"{+	c #020407",
"]+	c #080F16",
"^+	c #417AB2",
"/+	c #325A84",
"(+	c #3B6B9C",
"_+	c #427AB2",
":+	c #020304",
"<+	c #2B5076",
"[+	c #2B537B",
"}+	c #03070A",
"|+	c #31669A",
"1+	c #387CBF",
"2+	c #3884CD",
"3+	c #348ADB",
"4+	c #2382E2",
"5+	c #0C56CC",
"6+	c #454D4F",
"7+	c #444948",
"8+	c #646867",
"9+	c #5F6564",
"0+	c #1557B5",
"a+	c #1A88E4",
"b+	c #238BDB",
"c+	c #2687D3",
"d+	c #2C84CC",
"e+	c #2F82C5",
"f+	c #337FBF",
"g+	c #357DBB",
"h+	c #3473AB",
"i+	c #2B5E89",
"j+	c #000001",
"k+	c #30628F",
"l+	c #2E5F88",
"m+	c #3977AB",
"n+	c #3A78AE",
"o+	c #0E1D2A",
"p+	c #0E1F2D",
"q+	c #0C1A26",
"r+	c #11273A",
"s+	c #29669A",
"t+	c #3081C4",
"u+	c #2C84CB",
"v+	c #096DDE",
"w+	c #0D5CD0",
"x+	c #5D6668",
"y+	c #5D6261",
"z+	c #7A7D7C",
"A+	c #797D7D",
"B+	c #175EB8",
"C+	c #048AE5",
"D+	c #088CDB",
"E+	c #1088D2",
"F+	c #1B84CA",
"G+	c #2381C3",
"H+	c #154465",
"I+	c #2A7BB5",
"J+	c #2D7AB2",
"K+	c #1C4868",
"L+	c #010305",
"M+	c #275E86",
"N+	c #285D84",
"O+	c #3276A8",
"P+	c #3176A9",
"Q+	c #225276",
"R+	c #020508",
"S+	c #010203",
"T+	c #1E567F",
"U+	c #226DA1",
"V+	c #2381C2",
"W+	c #1B84C9",
"X+	c #0F88D1",
"Y+	c #0D80D8",
"Z+	c #0060DB",
"`+	c #0D64D4",
" @	c #757C7F",
".@	c #757978",
"+@	c #8D908F",
"@@	c #909493",
"#@	c #1965BD",
"$@	c #008EE6",
"%@	c #008EDC",
"&@	c #0089D1",
"*@	c #0585C9",
"=@	c #0C81C1",
"-@	c #020F16",
";@	c #010304",
">@	c #010405",
",@	c #010507",
"'@	c #14405D",
")@	c #205D83",
"!@	c #205B82",
"~@	c #2974A4",
"{@	c #2874A5",
"]@	c #2676A8",
"^@	c #02070A",
"/@	c #16628F",
"(@	c #147AB2",
"_@	c #0C81C0",
":@	c #0584C8",
"<@	c #0284CF",
"[@	c #0065CF",
"}@	c #0066DD",
"|@	c #0E6CD8",
"1@	c #8B9294",
"2@	c #8B8E8E",
"3@	c #A0A2A2",
"4@	c #A6A9AA",
"5@	c #1B6DC2",
"6@	c #0090E8",
"7@	c #008FDC",
"8@	c #008AD2",
"9@	c #0085C8",
"0@	c #0081BF",
"a@	c #017DB8",
"b@	c #056491",
"c@	c #0A6089",
"d@	c #105E86",
"e@	c #135D84",
"f@	c #1A6995",
"g@	c #1D72A0",
"h@	c #175A80",
"i@	c #1D72A1",
"j@	c #1974A4",
"k@	c #1575A7",
"l@	c #0B6089",
"m@	c #06638F",
"n@	c #017DB7",
"o@	c #0081BE",
"p@	c #007FC4",
"q@	c #0065C3",
"r@	c #006EE0",
"s@	c #0E73DC",
"t@	c #9FA6A9",
"u@	c #B1B2B1",
"v@	c #BBBDBD",
"w@	c #1D74C6",
"x@	c #0094EA",
"y@	c #0091DD",
"z@	c #008BD2",
"A@	c #0086C8",
"B@	c #007DB7",
"C@	c #007AB0",
"D@	c #0077AB",
"E@	c #0175A6",
"F@	c #0873A2",
"G@	c #0A72A0",
"H@	c #0A719F",
"I@	c #0E709E",
"J@	c #0B719E",
"K@	c #0A71A0",
"L@	c #0A72A2",
"M@	c #0474A5",
"N@	c #0077A9",
"O@	c #0079AF",
"P@	c #007CB5",
"Q@	c #0072B6",
"R@	c #005FB5",
"S@	c #0063C2",
"T@	c #006CD2",
"U@	c #0076E4",
"V@	c #0F7ADF",
"W@	c #B2B9BB",
"X@	c #B4B5B4",
"Y@	c #C1C1C1",
"Z@	c #CED0D0",
"`@	c #1E7BCA",
" #	c #0098EC",
".#	c #0094DE",
"+#	c #008DD3",
"@#	c #0088C8",
"##	c #0082BE",
"$#	c #007EB6",
"%#	c #007AAF",
"&#	c #0074A5",
"*#	c #0072A1",
"=#	c #00719E",
"-#	c #00709D",
";#	c #006F9D",
">#	c #0072A0",
",#	c #0074A4",
"'#	c #0073A6",
")#	c #006CA5",
"!#	c #005DA3",
"~#	c #005AA9",
"{#	c #0061B6",
"]#	c #0069C4",
"^#	c #0073D5",
"/#	c #007EE8",
"(#	c #0F81E4",
"_#	c #C4CACC",
":#	c #C5C7C6",
"<#	c #CFD0D0",
"[#	c #DFE1E1",
"}#	c #2082CD",
"|#	c #009CEE",
"1#	c #0097E0",
"2#	c #008FD3",
"3#	c #0089C8",
"4#	c #0084BE",
"5#	c #007FB6",
"6#	c #007BAE",
"7#	c #0078A9",
"8#	c #006A99",
"9#	c #006695",
"0#	c #006594",
"a#	c #006292",
"b#	c #006092",
"c#	c #005D91",
"d#	c #005790",
"e#	c #005290",
"f#	c #005395",
"g#	c #005A9F",
"h#	c #0060AB",
"i#	c #0067B7",
"j#	c #0070C6",
"k#	c #007AD7",
"l#	c #0085EA",
"m#	c #1089E6",
"n#	c #D4DADD",
"o#	c #D5D6D6",
"p#	c #DBDBDB",
"q#	c #EEEEEE",
"r#	c #2288CE",
"s#	c #00A0ED",
"t#	c #0099DF",
"u#	c #0092D2",
"v#	c #008BC7",
"w#	c #0085BD",
"x#	c #0080B5",
"y#	c #0078AB",
"z#	c #00669C",
"A#	c #00598F",
"B#	c #005087",
"C#	c #004B82",
"D#	c #004A80",
"E#	c #004980",
"F#	c #004B81",
"G#	c #004D84",
"H#	c #005089",
"I#	c #00548F",
"J#	c #005896",
"K#	c #005E9F",
"L#	c #0065AB",
"M#	c #006DB8",
"N#	c #0076C7",
"O#	c #0081D7",
"P#	c #008CEA",
"Q#	c #138FE6",
"R#	c #E2E6E9",
"S#	c #E1E1E0",
"T#	c #EEEFEF",
"U#	c #228DCE",
"V#	c #00A4EE",
"W#	c #009DDF",
"X#	c #001C28",
"Y#	c #002C3E",
"Z#	c #0087BD",
"`#	c #0075AD",
" $	c #00070C",
".$	c #000E16",
"+$	c #00588E",
"@$	c #005589",
"#$	c #00101B",
"$$	c #001828",
"%$	c #005082",
"&$	c #000407",
"*$	c #005184",
"=$	c #005387",
"-$	c #00578C",
";$	c #005A91",
">$	c #005F99",
",$	c #0065A2",
"'$	c #006CAD",
")$	c #0074BA",
"!$	c #007DC8",
"~$	c #0088D8",
"{$	c #0093EA",
"]$	c #1595E5",
"^$	c #E3E7EA",
"/$	c #E1E1E1",
"($	c #CAC9CA",
"_$	c #D9D9DA",
":$	c #2091CD",
"<$	c #00A9EE",
"[$	c #00A1DF",
"}$	c #00455F",
"|$	c #000D12",
"1$	c #006A9B",
"2$	c #006BA3",
"3$	c #000406",
"4$	c #004D77",
"5$	c #005C8C",
"6$	c #002C44",
"7$	c #004A73",
"8$	c #005686",
"9$	c #00476D",
"0$	c #005B8B",
"a$	c #005E8F",
"b$	c #006195",
"c$	c #006CA4",
"d$	c #0072AF",
"e$	c #007BBC",
"f$	c #0084CA",
"g$	c #008FD9",
"h$	c #009BEA",
"i$	c #169CE5",
"j$	c #D0D4D6",
"k$	c #D0D0D0",
"l$	c #B8B7B7",
"m$	c #C3C3C4",
"n$	c #1F95CB",
"o$	c #0AAFEF",
"p$	c #10A6E1",
"q$	c #117FAB",
"r$	c #000202",
"s$	c #006593",
"t$	c #005074",
"u$	c #000F16",
"v$	c #00060A",
"w$	c #004769",
"x$	c #005F8A",
"y$	c #00496B",
"z$	c #005781",
"A$	c #00618E",
"B$	c #006291",
"C$	c #001D2B",
"D$	c #000507",
"E$	c #000203",
"F$	c #003D59",
"G$	c #0083BE",
"H$	c #008CCB",
"I$	c #0097DB",
"J$	c #00A3EC",
"K$	c #17A2E5",
"L$	c #BDBFC1",
"M$	c #BBBBBB",
"N$	c #A5A5A5",
"O$	c #AEAEAE",
"P$	c #1D99C9",
"Q$	c #26B4EF",
"R$	c #2FACE2",
"S$	c #25A1D5",
"T$	c #005373",
"U$	c #002D3F",
"V$	c #002737",
"W$	c #00161F",
"X$	c #002D40",
"Y$	c #003F59",
"Z$	c #000608",
"`$	c #005374",
" %	c #006791",
".%	c #005475",
"+%	c #006C97",
"@%	c #002533",
"#%	c #00658D",
"$%	c #003E56",
"%%	c #000304",
"&%	c #007CAD",
"*%	c #0094CE",
"=%	c #009FDD",
"-%	c #00ABEE",
";%	c #18A9E5",
">%	c #A9ACAE",
",%	c #A7A7A7",
"'%	c #949494",
")%	c #999999",
"!%	c #2B9CC8",
"~%	c #43BBF1",
"{%	c #47B2E4",
"]%	c #2DA3D6",
"^%	c #031319",
"/%	c #063141",
"(%	c #021218",
"_%	c #0A4B65",
":%	c #073649",
"<%	c #031820",
"[%	c #041F2A",
"}%	c #0A5E7E",
"|%	c #0D749C",
"1%	c #0A5D7D",
"2%	c #0E77A0",
"3%	c #0C5F80",
"4%	c #0E7299",
"5%	c #1087B5",
"6%	c #10779E",
"7%	c #179DD3",
"8%	c #17A9E1",
"9%	c #18B4F0",
"0%	c #24AFE5",
"a%	c #95989A",
"b%	c #939393",
"c%	c #838383",
"d%	c #848585",
"e%	c #4AA0C7",
"f%	c #5BC2F3",
"g%	c #5BB9E6",
"h%	c #43AAD9",
"i%	c #143746",
"j%	c #08171E",
"k%	c #020406",
"l%	c #297294",
"m%	c #286F8F",
"n%	c #03080B",
"o%	c #040B0E",
"p%	c #143545",
"q%	c #266C8B",
"r%	c #2E80A5",
"s%	c #256684",
"t%	c #2F83A9",
"u%	c #286D8C",
"v%	c #348CB5",
"w%	c #3692BD",
"x%	c #307EA2",
"y%	c #3FA8D8",
"z%	c #42B2E4",
"A%	c #46BCF2",
"B%	c #48B5E4",
"C%	c #838687",
"D%	c #808080",
"E%	c #727272",
"F%	c #707171",
"G%	c #5EA4C6",
"H%	c #72CBF6",
"I%	c #6EC1EA",
"J%	c #5CB5DF",
"K%	c #3A728D",
"L%	c #010303",
"M%	c #05090C",
"N%	c #3F7D9B",
"O%	c #4C97BC",
"P%	c #030607",
"Q%	c #010101",
"R%	c #32647C",
"S%	c #4080A0",
"T%	c #488FB2",
"U%	c #39728F",
"V%	c #4991B5",
"W%	c #3C7895",
"X%	c #4E9AC0",
"Y%	c #519FC6",
"Z%	c #4588A9",
"`%	c #5BB4DE",
" &	c #60BCE9",
".&	c #65C6F5",
"+&	c #65BCE4",
"@&	c #717374",
"#&	c #6D6D6D",
"$&	c #626161",
"%&	c #5D5C5C",
"&&	c #6C9BB4",
"*&	c #86D3FA",
"=&	c #82CCF0",
"-&	c #76C0E6",
";&	c #6EB5D8",
">&	c #142026",
",&	c #538AA5",
"'&	c #65A7C9",
")&	c #0E171B",
"!&	c #4E8099",
"~&	c #5E9BB9",
"{&	c #619FBF",
"]&	c #4D7F98",
"^&	c #62A1C2",
"/&	c #51849E",
"(&	c #69AACB",
"_&	c #6BAED0",
":&	c #5A93AE",
"<&	c #76C0E5",
"[&	c #7BC8EE",
"}&	c #80D1F9",
"|&	c #79B7D4",
"1&	c #5D5E5F",
"2&	c #5A5A5A",
"3&	c #5C5B5C",
"4&	c #484848",
"5&	c #63757E",
"6&	c #99DAF9",
"7&	c #99D8F6",
"8&	c #90CFEE",
"9&	c #8CC9E8",
"0&	c #87C2E1",
"a&	c #6997AF",
"b&	c #6D9EB6",
"c&	c #81BAD6",
"d&	c #7FB7D3",
"e&	c #6795AB",
"f&	c #6490A6",
"g&	c #7CB4CF",
"h&	c #7BB3CE",
"i&	c #7CB4CE",
"j&	c #638FA4",
"k&	c #7DB5D0",
"l&	c #7FB7D2",
"m&	c #6593A9",
"n&	c #82BCD8",
"o&	c #85BFDC",
"p&	c #88C3E1",
"q&	c #6F9FB8",
"r&	c #95D6F6",
"s&	c #9ADDFB",
"t&	c #718C98",
"u&	c #504F50",
"v&	c #757575",
"w&	c #343434",
"x&	c #3A3A3B",
"y&	c #8DAFBF",
"z&	c #AFE4FC",
"A&	c #ABDEF7",
"B&	c #A7D9F2",
"C&	c #A4D5ED",
"D&	c #A2D2EA",
"E&	c #A0CFE7",
"F&	c #9ECDE5",
"G&	c #9DCBE3",
"H&	c #9CCBE1",
"I&	c #9CCAE1",
"J&	c #9BC9E0",
"K&	c #9CCAE0",
"L&	c #9DCBE2",
"M&	c #9ECDE4",
"N&	c #A0CFE6",
"O&	c #ACDFF7",
"P&	c #B0E4FC",
"Q&	c #98BFCF",
"R&	c #3F4142",
"S&	c #333333",
"T&	c #5F5E5F",
"U&	c #B3B3B3",
"V&	c #2D2D2D",
"W&	c #212121",
"X&	c #313233",
"Y&	c #8AA1AB",
"Z&	c #C1E6F6",
"`&	c #C5EBFC",
" *	c #C3E9FA",
".*	c #C2E7F9",
"+*	c #C0E6F7",
"@*	c #C0E5F6",
"#*	c #BFE4F6",
"$*	c #BFE4F5",
"%*	c #BFE3F4",
"&*	c #BEE3F4",
"**	c #C4E9F8",
"=*	c #95AEB8",
"-*	c #383A3B",
";*	c #282828",
">*	c #F1F1F1",
",*	c #696969",
"'*	c #181818",
")*	c #0F0F0F",
"!*	c #121212",
"~*	c #36393A",
"{*	c #5F686C",
"]*	c #778489",
"^*	c #788589",
"/*	c #636C71",
"(*	c #3C3F41",
"_*	c #141414",
":*	c #151515",
"<*	c #4A494A",
"[*	c #E7E7E7",
"}*	c #DFDFDF",
"|*	c #6A6A6A",
"1*	c #1F1F1F",
"2*	c #060606",
"3*	c #030303",
"4*	c #050505",
"5*	c #1A1A1A",
"6*	c #4B4B4B",
"7*	c #C3C3C3",
"8*	c #FEFEFE",
"9*	c #F6F6F6",
"0*	c #ACACAC",
"a*	c #636363",
"b*	c #3F3F3F",
"c*	c #323132",
"d*	c #313131",
"e*	c #393838",
"f*	c #5D5D5D",
"g*	c #9B9B9B",
"h*	c #E9E9E9",
"    . + @ # $ $ $ $ $ $ $ $ $ $ $ $ $ $ $ $ $ $ $ % & * =     ",
"  - ; > , ' ) ! ! ! ! ! ! ! ! ! ! ! ! ! ! ! ! ! ) ' , ~ { ]   ",
"^ / ( _ : < [ } | | | 1 1 1 1 1 1 1 1 1 | | | 2 3 4 5 6 7 8 9 ",
"0 a b c d e f g h i i j k l l l l l k j j i m n o p q r s t u ",
"v w x y z A B C D E F G H I I I I I H H F E J K B L M N O w P ",
"Q R S T U V W X Y Z `  ...+.+.+.+.+.@.#.$.%.&.X *.=.-.;.>.,.'.",
").!.~.{.].^./.(._.:.<.[.}.|.1.2.1.3.4.5.6.7.8.(./.^.9.0.a.b.c.",
"d.e.f.g.h.i.j.k.l.m.n.o.p.q.r.s.Z t.u.o.v.w.x.y.z.i.A.B.C.D.E.",
"F.G.H.I.J.K.L.M.N.O.P.Q.R.S.r.T.U.V.W.X.Y.Z.`. +.+K.++@+#+$+%+",
"&+*+=+-+;+>+,+'+)+!+~+{+]+^+r./+(+_+:+<+[+}+|+1+2+>+3+4+5+6+7+",
"8+9+0+a+b+c+d+e+f+g+h+i+j+k+r.l+m+n+o+p+q+r+s+t+u+c+b+v+w+x+y+",
"z+A+B+C+D+E+F+G+H+I+J+K+L+M+r.N+O+P+Q+R+S+T+U+V+W+X+Y+Z+`+ @.@",
"+@@@#@$@%@&@*@=@-@;@>@,@'@)@r.!@~@{@]@>@^@/@(@_@:@<@[@}@|@1@2@",
"3@4@5@6@7@8@9@0@a@b@c@d@e@f@g@h@g@i@j@k@l@m@n@o@p@q@[@r@s@t@3@",
"u@v@w@x@y@z@A@o@B@C@D@E@F@G@H@I@J@K@L@M@N@O@P@Q@R@S@T@U@V@W@X@",
"Y@Z@`@ #.#+#@###$#%#N@&#*#=#-#;#-#=#>#,#'#)#!#~#{#]#^#/#(#_#:#",
"<#[#}#|#1#2#3#4#5#6#7#,#;#8#9#0#a#b#c#d#e#f#g#h#i#j#k#l#m#n#o#",
"p#q#r#s#t#u#v#w#x#y#z#A#B#C#D#E#D#F#G#H#I#J#K#L#M#N#O#P#Q#R#S#",
"p#T#U#V#W#X#Y#Z#`# $.$+$@$#$$$%$&$*$=$-$;$>$,$'$)$!$~${$]$^$/$",
"($_$:$<$[$}$|$1$2$3$3$4$5$3$6$7$8$9$0$a$b$z#c$d$e$f$g$h$i$j$k$",
"l$m$n$o$p$q$r$s$t$u$v$w$x$j+y$z$r.A$B$r.C$D$E$F$G$H$I$J$K$L$M$",
"N$O$P$Q$R$S$E$T$U$V$W$X$Y$Z$`$ %r..%+%r.@%#%$%%%&%*%=%-%;%>%,%",
"'%)%!%~%{%]%^%/%(%_%:%<%[%<%}%|%r.1%2%r.3%4%5%O.6%7%8%9%0%a%b%",
"c%d%e%f%g%h%i%j%k%l%m%n%o%p%q%r%r.s%t%r.u%v%w%O.x%y%z%A%B%C%D%",
"E%F%G%H%I%J%K%L%M%N%O%P%Q%R%S%T%r.U%V%r.W%X%Y%O.Z%`% &.&+&@&#&",
"$&%&&&*&=&-&;&O.>&,&'&)&:+!&~&{&r.]&^&r./&(&_&O.:&<&[&}&|&1&2&",
"3&4&5&6&7&8&9&0&a&b&c&d&e&f&g&h&i&j&k&l&m&n&o&p&q&8&r&s&t&4&u&",
"v&w&x&y&z&A&B&C&D&E&F&G&H&I&J&J&J&K&H&L&M&N&D&C&B&O&P&Q&R&S&T&",
"U&V&W&X&Y&Z&`& *.*+*@*#*$*%*&*&*&*%*%*$*@*+*.* *`&**=*-*W&;*)%",
">*,*'*)*!*~*{*]*]*]*]*]*]*]*]*]*]*]*]*]*]*]*]*^*/*(*_*)*:*<*[*",
"  }*|*1*2*3*3*3*3*3*3*3*3*3*3*3*3*3*3*3*3*3*3*3*3*3*4*5*6*7*8*",
"    9*0*a*b*c*d*d*d*d*d*d*d*d*d*d*d*d*d*d*d*d*d*d*e*f*g*h*    "};
