/* XPM */
static char *green_lightOn[] = {
/* columns rows colors chars-per-pixel */
"32 32 245 2",
"   c #1D221D",
".  c #1B2B1C",
"X  c #1C331D",
"o  c #1B3B1E",
"O  c #1E2A20",
"+  c #1F3221",
"@  c #1E3A20",
"#  c #242524",
"$  c #222B23",
"%  c #272D28",
"&  c #2B2C2B",
"*  c #233324",
"=  c #223B24",
"-  c #263728",
";  c #2B342C",
":  c #273E29",
">  c #2C3D2D",
",  c #2F3730",
"<  c #343434",
"1  c #343B35",
"2  c #3A3C3A",
"3  c #1D4221",
"4  c #1D4922",
"5  c #234326",
"6  c #214A25",
"7  c #264329",
"8  c #2B442D",
"9  c #254929",
"0  c #2A4E2D",
"q  c #27522B",
"w  c #295D2D",
"e  c #2F4230",
"r  c #2E4C31",
"t  c #334334",
"y  c #334B35",
"u  c #374539",
"i  c #3C443D",
"p  c #374F39",
"a  c #3B4B3D",
"s  c #2E5331",
"d  c #335236",
"f  c #325D36",
"g  c #365439",
"h  c #3B533D",
"j  c #365A39",
"k  c #3B5B3E",
"l  c #29652E",
"z  c #2E6A34",
"x  c #39633D",
"c  c #2C7232",
"v  c #39753E",
"b  c #347C3B",
"n  c #3E5A40",
"m  c #3B7540",
"M  c #3C7A41",
"N  c #424342",
"B  c #4A4B4A",
"V  c #4B534C",
"C  c #475C48",
"Z  c #4C5A4D",
"A  c #4E5E50",
"S  c #535553",
"D  c #535A54",
"F  c #5B5E5B",
"G  c #446747",
"H  c #466148",
"J  c #4B634D",
"K  c #47684A",
"L  c #4C694E",
"P  c #49744D",
"I  c #4F6A51",
"U  c #546355",
"Y  c #556B56",
"T  c #576359",
"R  c #5B645C",
"E  c #576A59",
"W  c #5B6B5D",
"Q  c #4E7051",
"!  c #527455",
"~  c #527855",
"^  c #567359",
"/  c #5C745E",
"(  c #557B58",
")  c #597E5C",
"_  c #5F6460",
"`  c #5F7361",
"'  c #5F7D61",
"]  c #646464",
"[  c #636C64",
"{  c #6B6B6B",
"}  c #647465",
"|  c #647A65",
" . c #677468",
".. c #6B746C",
"X. c #677B68",
"o. c #6B7C6D",
"O. c #6F7770",
"+. c #6F7C70",
"@. c #727372",
"#. c #747B74",
"$. c #777D78",
"%. c #7A7D7A",
"&. c #2F8536",
"*. c #368B3D",
"=. c #38953F",
"-. c #3D8442",
";. c #3B8C42",
":. c #3A9442",
">. c #3A9C42",
",. c #3FAA48",
"<. c #3FB149",
"1. c #418B47",
"2. c #47854D",
"3. c #438E49",
"4. c #419748",
"5. c #439C4B",
"6. c #4F8B55",
"7. c #559B5D",
"8. c #42A34B",
"9. c #42AC4B",
"0. c #43BE4E",
"q. c #4AA452",
"w. c #4BAE53",
"e. c #52A459",
"r. c #47B751",
"t. c #4CB354",
"y. c #46BD50",
"u. c #4CBB55",
"i. c #4FBE59",
"p. c #56B05E",
"a. c #56B85E",
"s. c #5E8261",
"d. c #5D9463",
"f. c #5A9C61",
"g. c #658067",
"h. c #628B67",
"j. c #678369",
"k. c #6C826D",
"l. c #6C896E",
"z. c #609865",
"x. c #64976A",
"c. c #659B6C",
"v. c #6F8370",
"b. c #6D8D70",
"n. c #738475",
"m. c #748B75",
"M. c #768378",
"N. c #7B847C",
"B. c #778C79",
"V. c #7B8C7D",
"C. c #6F9274",
"Z. c #6C9D74",
"A. c #709074",
"S. c #779179",
"D. c #7C917D",
"F. c #59A761",
"G. c #5DAB64",
"H. c #59BC61",
"J. c #60A568",
"K. c #68A36F",
"L. c #66AA6D",
"P. c #64B36D",
"I. c #60BE68",
"U. c #6DA674",
"Y. c #6DAC75",
"T. c #72AD7A",
"R. c #6DB875",
"E. c #6FB778",
"W. c #75B97E",
"Q. c #46C551",
"!. c #4BC655",
"~. c #4ACA55",
"^. c #4EC458",
"/. c #4ECD59",
"(. c #53C45D",
"). c #52CB5C",
"_. c #53D25E",
"`. c #56CF60",
"'. c #5BCD65",
"]. c #56D361",
"[. c #5BDB66",
"{. c #5FDF6A",
"}. c #65C36E",
"|. c #62CC6C",
" X c #60DA6A",
".X c #6CC474",
"XX c #74C27D",
"oX c #6DD576",
"OX c #6CDC76",
"+X c #72D77C",
"@X c #73DA7D",
"#X c #62E16D",
"$X c #6AE175",
"%X c #68E873",
"&X c #6EEB79",
"*X c #74E57E",
"=X c #72EC7D",
"-X c #7F8680",
";X c #7E8C80",
":X c #7F9181",
">X c #79B981",
",X c #77C680",
"<X c #7CC485",
"1X c #7BCE84",
"2X c #7FC788",
"3X c #76D580",
"4X c #79D382",
"5X c #76D880",
"6X c #7FD689",
"7X c #7FDF89",
"8X c #77E682",
"9X c #7BE486",
"0X c #76ED81",
"qX c #7AED85",
"wX c #7EE489",
"eX c #7EED89",
"rX c #838583",
"tX c #848C85",
"yX c #878E88",
"uX c #8A8C8A",
"iX c #839184",
"pX c #879088",
"aX c #8A908B",
"sX c #929593",
"dX c #979897",
"fX c #999B99",
"gX c #9FA19F",
"hX c #A4A5A4",
"jX c #ACACAC",
"kX c #B4B4B4",
"lX c #BABABA",
"zX c #80CD89",
"xX c #85D48F",
"cX c #83DB8D",
"vX c #86DA90",
"bX c #82E28C",
"nX c #82ED8D",
"mX c #86E791",
"MX c #8AE494",
"NX c #87EE92",
"BX c #89EB94",
"VX c #C3C4C3",
"CX c #CECECE",
"ZX c #DCDCDC",
"AX c None",
/* pixels */
"VXZXCXVXVXVXVXVXVXVXVXVXVXVXVXVXVXVXVXVXVXVXVXVXVXVXVXVXVXCXZXVX",
"ZX{ @.@.@.@.$.$.%.N.N.-XrXtXtXyXyXyXyXuXuXuXuXuXuXuXuXuXuXuXuXZX",
"VX{ { { { @.@.#.$.M.N.N.V.;XtXtXiXiXyXpXpXaXuXuXuXuXuXuXuXuXuXVX",
"lX] ] { { ....#.#.M.M.N.V.V.;XtXiXiXiXiXpXpXaXyXuXuXuXuXuXuXuXVX",
"kXF ] ] [  ...o.+.n.n.n.B.B.V.D.D.:XiXiXiXiXiXyXyXyXuXuXuXuXuXVX",
"kXF F _ [ [  . .o.k.v.n.m.B.B.S.D.D.D.D.iXiXiXtXyXtXtXtXtXuXuXlX",
"jXD F R W [ } | X.X.k.l.b.m.b.C.A.S.D.D.D.D.;XtXtXtXtXrXrXrXrXlX",
"hXS D T E W / ` | g.j.h.x.K.Y.Y.T.U.Z.C.S.D.V.V.V.;X;XrXrXrXrXkX",
"dXV D U E E / / ' s.d.L.E.XX<X2X2X<X>XT.Z.A.B.B.V.V.V.N.N.N.rXkX",
"sXi Z A U Y ^ ^ ) f.P.XX1X6XcXcXvXxXxX2XW.U.b.B.m.B.M.N.N.%.%.jX",
"aX$ V Z J I ! ~ 7.P..X3X7XbXmXBXBXMXMXvXzXW.U.l.m.n.n.M.$.$.%.jX",
"yX. > C J L Q 6.G..X+X9XeXnXnXNXBXBXBXMXcX1XW.c.l.v.v.#.#.#.#.hX",
"tX. X y H K P e.I.oX*X8XeXeXnXnXnXNXNXBXmXcX,XY.h.k.o.o.o.O.@.gX",
"N.. X o r G 2.p.|.OX*X0XqXqXeXeXnXnXnXnXnXbX4XR.z.j.X.X.......fX",
"M.. X o 3 q 3.a.|.$X=X=X0X0XqXqXqXeXeXnXnXwX3X.XJ.' | | } } [ sX",
"#.. X o 3 4 &.9.'.$X&X=X=X=X=X0X0XqXqXeXeX9X5X.XG.) / / ` [ [ aX",
"... X o 3 4 &.>.<./.#X&X&X=X=X=X=X0X0XqXqX8X@X.XG.( ^ W W W R yX",
" .. X o 3 4 &.>.<.0.Q.~._.{.%X=X=X=X=X0X0X*XoX}.F.~ ^ Y E T T rX",
"[ . X @ 3 6 c >.9.y.!.~.~.~.~.~._._.[.#X#X X'.H.q.K n h a a 1 { ",
"R . X @ 3 6 l =.,.y.!./././././././././.~.y.9.>.c 6 = @ X .   F ",
"F . + = 5 9 q *.8.r.^.)._._._._._._._.).^.u.9.:.w 9 = = + .   D ",
"D O * = 5 9 0 z :.9.u.)._.].].].].]._.).^.r.>.b 0 7 7 * * O   S ",
"V $ * - 7 7 0 s b 5.t.i.(.`.].].].`.).(.t.8.;.s 0 8 : - * $   B ",
"B $ * - : 8 r s f -.5.w.u.(.(.(.(.(.i.t.8.;.f s r 8 > - % # # B ",
"N # % ; > 8 r d d j v 4.q.w.t.t.t.w.q.5.M j d y y 8 > ; % # # N ",
"N # % ; > e y y d g j x m -.5.5.5.1.M x k g g y t t > ; % # # N ",
"2 # % ; > t t y p g h k k k k k k k k k h g p y t 1 1 ; & % # 2 ",
"2 % & ; , 1 t u p p h h h k k k k h h h h a p u t 1 < ; & & % 2 ",
"1 & & & < 1 1 u u a a h h h h h h h h a a a u u 1 1 < < & & & 2 ",
"< & & < < < 1 2 u i a a a a a a a a a a a i i 2 1 < < < < & & < ",
"< & < < < < 1 2 2 i i i a a a a a a i i i i 2 2 1 < < < < < & < ",
"AX< < < 1 2 2 2 2 2 i i i i i i i i i i i 2 2 2 2 2 2 1 < < < AX"
};
