/* XPM */
static char * green_lightOff_xpm[] = {
"32 32 670 2",
"  	c None",
". 	c #C6C6C6",
"+ 	c #D9D9D9",
"@ 	c #CDCDCD",
"# 	c #BEBEBE",
"$ 	c #BFBFBF",
"% 	c #C0C0C0",
"& 	c #C1C1C1",
"* 	c #C2C2C2",
"= 	c #CECECE",
"- 	c #DCDCDC",
"; 	c #C3C3C3",
"> 	c #DADADA",
", 	c #686868",
"' 	c #6A6A6A",
") 	c #6B6B6B",
"! 	c #6D6D6D",
"~ 	c #6E6E6E",
"{ 	c #707070",
"] 	c #727272",
"^ 	c #757474",
"/ 	c #777676",
"( 	c #787777",
"_ 	c #7A7979",
": 	c #7C7B7B",
"< 	c #7E7C7C",
"[ 	c #7F7E7E",
"} 	c #807F7F",
"| 	c #818080",
"1 	c #828181",
"2 	c #838282",
"3 	c #838383",
"4 	c #828282",
"5 	c #DEDEDE",
"6 	c #636363",
"7 	c #656565",
"8 	c #666666",
"9 	c #6D6C6C",
"0 	c #6E6D6D",
"a 	c #706F6F",
"b 	c #727171",
"c 	c #747272",
"d 	c #767474",
"e 	c #777575",
"f 	c #797777",
"g 	c #7A7878",
"h 	c #7B7979",
"i 	c #7D7B7B",
"j 	c #7F7D7D",
"k 	c #807E7E",
"l 	c #C5C5C5",
"m 	c #B9B9B9",
"n 	c #5E5E5E",
"o 	c #616161",
"p 	c #656464",
"q 	c #666565",
"r 	c #696868",
"s 	c #6A6969",
"t 	c #6D6B6B",
"u 	c #6F6D6D",
"v 	c #706E6E",
"w 	c #716F6F",
"x 	c #757373",
"y 	c #777474",
"z 	c #797676",
"A 	c #7A7777",
"B 	c #7C7A7A",
"C 	c #817F7F",
"D 	c #818181",
"E 	c #B5B5B5",
"F 	c #5A5A5A",
"G 	c #5C5C5C",
"H 	c #5F5E5E",
"I 	c #605F5F",
"J 	c #626161",
"K 	c #656363",
"L 	c #676565",
"M 	c #686666",
"N 	c #6A6868",
"O 	c #6D6A6A",
"P 	c #6F6C6C",
"Q 	c #706D6D",
"R 	c #726F6F",
"S 	c #747171",
"T 	c #757272",
"U 	c #787575",
"V 	c #7B7878",
"W 	c #808080",
"X 	c #B1B1B1",
"Y 	c #565656",
"Z 	c #585757",
"` 	c #5A5959",
" .	c #5C5B5B",
"..	c #5F5D5D",
"+.	c #605E5E",
"@.	c #626060",
"#.	c #646262",
"$.	c #676464",
"%.	c #686565",
"&.	c #6B6767",
"*.	c #6D6969",
"=.	c #6E6A6A",
"-.	c #716E6D",
";.	c #726F6E",
">.	c #73706F",
",.	c #767373",
"'.	c #7D7C7C",
").	c #BBBBBB",
"!.	c #ACACAC",
"~.	c #515151",
"{.	c #545353",
"].	c #555454",
"^.	c #585656",
"/.	c #5A5858",
"(.	c #5D5A5A",
"_.	c #5F5C5C",
":.	c #615E5E",
"<.	c #63605F",
"[.	c #656261",
"}.	c #676463",
"|.	c #696665",
"1.	c #6A6766",
"2.	c #5E635B",
"3.	c #60655D",
"4.	c #61665F",
"5.	c #6D6C6A",
"6.	c #747170",
"7.	c #7E7D7D",
"8.	c #7E7E7E",
"9.	c #7F7F7F",
"0.	c #B8B8B8",
"a.	c #A3A3A3",
"b.	c #4E4D4D",
"c.	c #4F4E4E",
"d.	c #515050",
"e.	c #545252",
"f.	c #575454",
"g.	c #595656",
"h.	c #5A5757",
"i.	c #5D5A59",
"j.	c #605C5B",
"k.	c #615E5D",
"l.	c #505A4E",
"m.	c #415D43",
"n.	c #3B623E",
"o.	c #3E6741",
"p.	c #406944",
"q.	c #416944",
"r.	c #406743",
"s.	c #466248",
"t.	c #596557",
"u.	c #6D6C69",
"v.	c #7B7A7A",
"w.	c #7C7C7C",
"x.	c #B4B4B4",
"y.	c #979797",
"z.	c #494848",
"A.	c #4C4B4B",
"B.	c #4E4C4C",
"C.	c #514E4E",
"D.	c #524F4F",
"E.	c #545151",
"F.	c #565352",
"G.	c #595554",
"H.	c #555651",
"I.	c #3B583D",
"J.	c #38643C",
"K.	c #3E6D42",
"L.	c #447548",
"M.	c #46794B",
"N.	c #497B4E",
"O.	c #4A7C4F",
"P.	c #49784E",
"Q.	c #46734A",
"R.	c #426B46",
"S.	c #436245",
"T.	c #60665E",
"U.	c #716E6E",
"V.	c #737070",
"W.	c #797979",
"X.	c #B0B0B0",
"Y.	c #919191",
"Z.	c #393737",
"`.	c #484646",
" +	c #4B4848",
".+	c #4C4949",
"++	c #4F4B4B",
"@+	c #514E4D",
"#+	c #534F4E",
"$+	c #4C4F48",
"%+	c #325A36",
"&+	c #38673C",
"*+	c #3E7343",
"=+	c #447C4A",
"-+	c #49824F",
";+	c #4C8751",
">+	c #4E8853",
",+	c #4F8954",
"'+	c #4F8754",
")+	c #4D8352",
"!+	c #457149",
"~+	c #3D6441",
"{+	c #576256",
"]+	c #6E6B6A",
"^+	c #737171",
"/+	c #737272",
"(+	c #767575",
"_+	c #8D8D8D",
":+	c #201E1E",
"<+	c #444242",
"[+	c #474444",
"}+	c #4A4746",
"|+	c #4B4847",
"1+	c #4D4948",
"2+	c #4D4B48",
"3+	c #2E5732",
"4+	c #346739",
"5+	c #3B7441",
"6+	c #427E47",
"7+	c #47874D",
"8+	c #4B8C52",
"9+	c #4F9155",
"0+	c #509257",
"a+	c #529258",
"b+	c #539259",
"c+	c #528E57",
"d+	c #4B7F50",
"e+	c #457349",
"f+	c #3C6440",
"g+	c #5B6159",
"h+	c #6C6868",
"i+	c #6C6969",
"j+	c #6E6B6B",
"k+	c #A8A8A8",
"l+	c #888787",
"m+	c #181616",
"n+	c #2B2828",
"o+	c #434040",
"p+	c #454241",
"q+	c #474443",
"r+	c #4A4645",
"s+	c #324E33",
"t+	c #2E6233",
"u+	c #37703C",
"v+	c #3E7E44",
"w+	c #45884B",
"x+	c #498F4F",
"y+	c #4C9352",
"z+	c #4E9655",
"A+	c #509757",
"B+	c #529859",
"C+	c #54985A",
"D+	c #539659",
"E+	c #529157",
"F+	c #497D4D",
"G+	c #406F45",
"H+	c #3E5F40",
"I+	c #636260",
"J+	c #696666",
"K+	c #6C6A6A",
"L+	c #A2A2A2",
"M+	c #848383",
"N+	c #191616",
"O+	c #1A1716",
"P+	c #2F2C2B",
"Q+	c #433F3E",
"R+	c #44403F",
"S+	c #40433B",
"T+	c #28592D",
"U+	c #306A35",
"V+	c #39793F",
"W+	c #3F8545",
"X+	c #448D4A",
"Y+	c #48934F",
"Z+	c #4A9551",
"`+	c #4C9753",
" @	c #4E9855",
".@	c #4F9956",
"+@	c #519958",
"@@	c #529759",
"#@	c #4F8F55",
"$@	c #4A8550",
"%@	c #447849",
"&@	c #3B683F",
"*@	c #4C5A4C",
"=@	c #646160",
"-@	c #656262",
";@	c #666464",
">@	c #686767",
",@	c #9D9D9D",
"'@	c #1B1716",
")@	c #2C2827",
"!@	c #413D3C",
"~@	c #2E482F",
"{@	c #2A5F2F",
"]@	c #317037",
"^@	c #387D3E",
"/@	c #3E8844",
"(@	c #428E49",
"_@	c #45924C",
":@	c #47944E",
"<@	c #48964F",
"[@	c #4B9752",
"}@	c #4C9853",
"|@	c #4F9756",
"1@	c #4E9355",
"2@	c #4A8950",
"3@	c #447E4A",
"4@	c #3D6E42",
"5@	c #3B5B3E",
"6@	c #605D5C",
"7@	c #625F5E",
"8@	c #625F5F",
"9@	c #636161",
"0@	c #25201F",
"a@	c #244B26",
"b@	c #2A6430",
"c@	c #317337",
"d@	c #37803E",
"e@	c #3C8943",
"f@	c #408F47",
"g@	c #429149",
"h@	c #43934A",
"i@	c #45944C",
"j@	c #47954E",
"k@	c #499650",
"l@	c #4B9652",
"m@	c #4C9653",
"n@	c #4B9352",
"o@	c #488C4F",
"p@	c #44804A",
"q@	c #3D7142",
"r@	c #346039",
"s@	c #595754",
"t@	c #5E5B5B",
"u@	c #605D5D",
"v@	c #616060",
"w@	c #1C1716",
"x@	c #0D4812",
"y@	c #195C1F",
"z@	c #2B7231",
"A@	c #35803C",
"B@	c #3A8941",
"C@	c #3D8E45",
"D@	c #3F9047",
"E@	c #409147",
"F@	c #419148",
"G@	c #44934B",
"H@	c #46944D",
"I@	c #49924F",
"J@	c #468B4C",
"K@	c #428148",
"L@	c #3B7340",
"M@	c #336137",
"N@	c #4B5148",
"O@	c #585554",
"P@	c #5B5959",
"Q@	c #5D5C5C",
"R@	c #8B8B8B",
"S@	c #0D4913",
"T@	c #105816",
"U@	c #12641A",
"V@	c #1E7326",
"W@	c #2F8337",
"X@	c #3B8D42",
"Y@	c #3C8F44",
"Z@	c #3D8F45",
"`@	c #3E9046",
" #	c #429249",
".#	c #45934C",
"+#	c #448F4B",
"@#	c #428A49",
"##	c #3E7F44",
"$#	c #38713D",
"%#	c #316035",
"&#	c #484E45",
"*#	c #53504F",
"=#	c #555252",
"-#	c #575555",
";#	c #858585",
">#	c #676666",
",#	c #1A1717",
"'#	c #1B1817",
")#	c #1C1817",
"!#	c #1D1817",
"~#	c #0E4813",
"{#	c #115717",
"]#	c #13631A",
"^#	c #156D1D",
"/#	c #16741F",
"(#	c #1A7A23",
"_#	c #23802C",
":#	c #2D8635",
"<#	c #368B3E",
"[#	c #428E48",
"}#	c #3F8846",
"|#	c #3B7D41",
"1#	c #356F3A",
"2#	c #2E5E32",
"3#	c #454B42",
"4#	c #535050",
"5#	c #535151",
"6#	c #1C1918",
"7#	c #1D1918",
"8#	c #1F1A19",
"9#	c #133A15",
"0#	c #115417",
"a#	c #14611B",
"b#	c #176D1F",
"c#	c #187421",
"d#	c #197922",
"e#	c #1A7B23",
"f#	c #207E29",
"g#	c #2A8332",
"h#	c #2E8536",
"i#	c #308337",
"j#	c #2E7B35",
"k#	c #2B7131",
"l#	c #2B6731",
"m#	c #25562A",
"n#	c #3C3837",
"o#	c #3B3837",
"p#	c #3A3737",
"q#	c #3B3939",
"r#	c #343232",
"s#	c #1C1919",
"t#	c #1E1B1A",
"u#	c #1F1B1A",
"v#	c #211C1B",
"w#	c #192F18",
"x#	c #125118",
"y#	c #155E1C",
"z#	c #196A20",
"A#	c #1B7323",
"B#	c #1D7926",
"C#	c #1E7C27",
"D#	c #1E7D27",
"E#	c #1D7A26",
"F#	c #1C7524",
"G#	c #196D21",
"H#	c #17621E",
"I#	c #135419",
"J#	c #163817",
"K#	c #211D1C",
"L#	c #1F1C1B",
"M#	c #1D1A1A",
"N#	c #1C1A1A",
"O#	c #1A1919",
"P#	c #1D1B1B",
"Q#	c #1E1B1B",
"R#	c #201D1C",
"S#	c #211E1D",
"T#	c #231F1E",
"U#	c #22241D",
"V#	c #124B18",
"W#	c #17591D",
"X#	c #1A6622",
"Y#	c #1E7026",
"Z#	c #207728",
"`#	c #217B29",
" $	c #227E2B",
".$	c #237E2B",
"+$	c #237F2C",
"@$	c #227C2B",
"#$	c #207828",
"$$	c #1E7226",
"%$	c #1C6923",
"&$	c #185D1F",
"*$	c #144F1A",
"=$	c #1D2C1B",
"-$	c #24201F",
";$	c #221F1E",
">$	c #1F1C1C",
",$	c #1C1B1B",
"'$	c #575757",
")$	c #535252",
"!$	c #1E1C1C",
"~$	c #201D1D",
"{$	c #23201F",
"]$	c #262221",
"^$	c #282322",
"/$	c #1F341D",
"($	c #17521D",
"_$	c #1B5F22",
":$	c #1F6A26",
"<$	c #217229",
"[$	c #24772B",
"}$	c #257B2C",
"|$	c #257C2D",
"1$	c #267D2D",
"2$	c #257D2D",
"3$	c #257B2D",
"4$	c #24782B",
"5$	c #23742A",
"6$	c #206C27",
"7$	c #1D6223",
"8$	c #18551E",
"9$	c #1A3F1C",
"0$	c #282423",
"a$	c #262322",
"b$	c #252221",
"c$	c #221F1F",
"d$	c #1F1D1D",
"e$	c #1D1C1C",
"f$	c #525252",
"g$	c #4D4C4C",
"h$	c #242121",
"i$	c #252222",
"j$	c #272423",
"k$	c #2A2625",
"l$	c #2C2726",
"m$	c #1B421C",
"n$	c #1A551F",
"o$	c #1E6124",
"p$	c #226A28",
"q$	c #25712B",
"r$	c #26752D",
"s$	c #27782E",
"t$	c #26762D",
"u$	c #25722C",
"v$	c #236C2A",
"w$	c #1F6325",
"x$	c #1C5921",
"y$	c #194A1D",
"z$	c #2A2B25",
"A$	c #2B2726",
"B$	c #292625",
"C$	c #262323",
"D$	c #232121",
"E$	c #201F1F",
"F$	c #1F1E1E",
"G$	c #4C4C4C",
"H$	c #494949",
"I$	c #212020",
"J$	c #242222",
"K$	c #282525",
"L$	c #2A2726",
"M$	c #2D2928",
"N$	c #2E2A29",
"O$	c #2E2C29",
"P$	c #1E4520",
"Q$	c #1D5522",
"R$	c #205F25",
"S$	c #236729",
"T$	c #256B2B",
"U$	c #276F2D",
"V$	c #27702E",
"W$	c #266D2C",
"X$	c #24682A",
"Y$	c #216127",
"Z$	c #1D5823",
"`$	c #1C4B20",
" %	c #2D3128",
".%	c #2F2B2A",
"+%	c #2D2A29",
"@%	c #292626",
"#%	c #252323",
"$%	c #232222",
"%%	c #202020",
"&%	c #454545",
"*%	c #262424",
"=%	c #2A2727",
"-%	c #2C2929",
";%	c #2E2B2A",
">%	c #312D2C",
",%	c #322E2D",
"'%	c #342F2E",
")%	c #263E26",
"!%	c #1D5121",
"~%	c #205925",
"{%	c #225E28",
"]%	c #236229",
"^%	c #246329",
"/%	c #225F28",
"(%	c #205A26",
"_%	c #1E5323",
":%	c #234224",
"<%	c #34322F",
"[%	c #34302F",
"}%	c #312E2D",
"|%	c #302D2C",
"1%	c #2D2A2A",
"2%	c #292727",
"3%	c #272626",
"4%	c #252424",
"5%	c #222222",
"6%	c #404040",
"7%	c #242424",
"8%	c #2A2828",
"9%	c #2E2B2B",
"0%	c #302D2D",
"a%	c #322F2E",
"b%	c #343130",
"c%	c #363231",
"d%	c #373332",
"e%	c #353630",
"f%	c #2A3E29",
"g%	c #244726",
"h%	c #1F5224",
"i%	c #1F5324",
"j%	c #234A25",
"k%	c #284028",
"l%	c #33372F",
"m%	c #383433",
"n%	c #353231",
"o%	c #312E2E",
"p%	c #2F2D2D",
"q%	c #2D2B2B",
"r%	c #2B2929",
"s%	c #292828",
"t%	c #262626",
"u%	c #3D3D3D",
"v%	c #2B2A2A",
"w%	c #2E2C2C",
"x%	c #302E2E",
"y%	c #312F2F",
"z%	c #343131",
"A%	c #363332",
"B%	c #373433",
"C%	c #383534",
"D%	c #3A3635",
"E%	c #3B3635",
"F%	c #393635",
"G%	c #363333",
"H%	c #353232",
"I%	c #333131",
"J%	c #2D2C2C",
"K%	c #2A2A2A",
"L%	c #282828",
"M%	c #393939",
"N%	c #2F2E2E",
"O%	c #323030",
"P%	c #353333",
"Q%	c #373434",
"R%	c #383535",
"S%	c #3A3736",
"T%	c #393636",
"U%	c #363434",
"V%	c #313030",
"W%	c #2E2E2E",
"X%	c #2C2C2C",
"Y%	c #373737",
"Z%	c #333232",
"`%	c #373535",
" &	c #383636",
".&	c #3B3838",
"+&	c #3C3938",
"@&	c #3A3838",
"#&	c #343333",
"$&	c #323232",
"%&	c #303030",
"&&	c #383838",
"*&	c #363636",
"=&	c #353434",
"-&	c #363535",
";&	c #373636",
">&	c #3C3939",
",&	c #383737",
"'&	c #353535",
")&	c #343434",
"!&	c #393838",
"~&	c #3A3939",
"{&	c #3C3A3A",
"]&	c #333333",
"^&	c #3A3A3A",
"/&	c #3B3B3B",
"(&	c #3D3C3C",
"_&	c #3F3D3D",
":&	c #3E3D3D",
"<&	c #3C3C3C",
". + @ # $ $ % % % % & & & & * * * * * * * * * * * * * * * = - ; ",
"> , ' ) ! ~ { ] ^ ^ / ( _ : < < [ } | 1 2 3 3 3 3 3 3 3 3 3 4 5 ",
"% 6 7 8 , ' 9 0 a b c d e f g h i < j k } | 1 3 3 3 3 3 3 3 3 l ",
"m n o 6 p q r s t u v w c x y z A h B < < k C | D 4 3 3 3 3 3 * ",
"E F G H I J K L M N O P Q R S T y U A V h i < j [ } W D 4 3 3 # ",
"X Y Z `  ...+.@.#.$.%.&.*.=.-.;.>.T ,.y z A h B < '.[ [ W W 4 ).",
"!.~.{.].^./.(._.:.<.[.}.|.1.2.3.4.5.>.6.T y y f g h : '.7.8.9.0.",
"a.b.c.d.e.f.g.h.i.j.k.l.m.n.o.p.q.r.s.t.u.R S ,.d e f _ v.'.w.x.",
"y.z.A.B.C.D.E.F.G.H.I.J.K.L.M.N.O.P.Q.R.S.T.-.U.V.c d d / ( W.X.",
"Y.Z.`. +.+++@+#+$+%+&+*+=+-+;+>+,+'+)+O.!+~+{+]+P Q w ^+/+^ (+!.",
"_+:+<+[+}+|+1+2+3+4+5+6+7+8+9+0+a+b+c+'+d+e+f+g+h+i+j+u v a /+k+",
"l+m+n+o+p+q+r+s+t+u+v+w+x+y+z+A+B+C+D+E+>+F+G+H+I+|.J+N K+9 0 L+",
"M+N+O+P+Q+R+S+T+U+V+W+X+Y+Z+`+ @.@+@B+@@#@$@%@&@*@=@-@;@L >@s ,@",
"7.N+O+'@)@!@~@{@]@^@/@(@_@:@<@[@}@ @ @|@1@2@3@4@5@6@7@8@9@K q y.",
"( N+O+'@'@0@a@b@c@d@e@f@g@h@i@j@<@k@l@m@n@o@p@q@r@s@i.t@u@+.v@Y.",
"b N+O+'@'@w@x@y@z@A@B@C@D@E@F@h@G@H@j@j@I@J@K@L@M@N@O@g.h.P@Q@R@",
"9 N+O+'@'@w@S@T@U@V@W@X@Y@Z@`@D@F@ #h@.#+#@###$#%#&#*#=#f.-#Z ;#",
">#,#'#)#)#!#~#{#]#^#/#(#_#:#<#Z@`@D@E@F@[#}#|#1#2#3#@+C.4#5#{.[ ",
"v@,#6#7#7#8#9#0#a#b#c#d#(#e#e#e#f#_#g#h#i#j#k#l#m#R+n#o#p#q#r#s ",
"Q@s#t#t#u#v#w#x#y#z#A#B#C#D#D#D#D#D#C#E#F#G#H#I#J#K#L#t#M#N#O#G ",
"Z P#Q#R#S#T#U#V#W#X#Y#Z#`# $.$+$.$ $@$#$$$%$&$*$=$-$;$S#>$P#,$'$",
")$!$~${${$]$^$/$($_$:$<$[$}$|$1$2$3$4$5$6$7$8$9$0$a$b${$c$d$e$f$",
"g$:+c$h$i$j$k$l$m$n$o$p$q$r$s$s$s$t$u$v$w$x$y$z$A$B$C$i$D$E$F$G$",
"H$I$J$C$K$L$M$N$O$P$Q$R$S$T$U$V$U$W$X$Y$Z$`$ %.%+%n+@%K$#%$%%%H$",
"&%$%*%@%=%-%;%>%,%'%)%!%~%{%]%^%]%/%(%_%:%<%[%}%|%1%-%2%3%4%5%&%",
"6%7%3%8%-%9%0%a%b%c%d%e%f%g%h%i%h%j%k%l%m%d%n%b%o%p%q%r%s%t%7%6%",
"u%t%s%v%w%x%y%z%A%B%C%D%D%D%E%E%E%D%D%D%F%C%G%H%I%y%x%J%K%L%t%u%",
"M%L%K%J%N%O%I%P%Q%R%S%S%o#n#n#n#n#o#o#o#T%T%R%U%P%I%V%W%X%K%L%M%",
"Y%K%X%W%V%Z%P%`%`% &p#.&.&.&+&+&+&.&.&.&@&Z. &`%`%#&$&%&W%X%K%&&",
"*&X%W%%&$&=&-&;&Z.@&@&q#q#>&>&>&>&q#q#q#q#@&@&,&;&'&)&$&%&W%X%*&",
"*&W%%&$&)&'&*&,&!&~&q#{&{&{&{&{&{&{&{&{&{&~&~&&&Y%*&'&)&$&%&W%'&",
"  ]&)&*&Y%&&M%^&/&(&(&(&(&_&_&_&_&:&:&(&(&<&<&/&^&M%&&Y%*&)&]&  "};
