/* XPM */
static char *stick[] = {
/* columns rows colors chars-per-pixel */
"32 32 145 2 ",
"   c #010101",
".  c #0B060B",
"X  c #0E090E",
"o  c #130C13",
"O  c #180D18",
"+  c #1C141C",
"@  c #261426",
"#  c #2B1D2B",
"$  c #311630",
"%  c #2E202E",
"&  c #322432",
"*  c #452245",
"=  c #472847",
"-  c #492D49",
";  c #463047",
":  c #4D334C",
">  c #543454",
",  c #513E52",
"<  c #5C3A5C",
"1  c #703D70",
"2  c #524053",
"3  c #574258",
"4  c #5F4660",
"5  c #644764",
"6  c #664F67",
"7  c #694669",
"8  c #6D516E",
"9  c #795A6A",
"0  c #724473",
"q  c #774C76",
"w  c #7E407D",
"e  c #794E7B",
"r  c #735A74",
"t  c #7B5A7D",
"y  c #7F617F",
"u  c #8D0686",
"i  c #8F0884",
"p  c #8A0488",
"a  c #930C83",
"s  c #8E108F",
"d  c #971282",
"f  c #991583",
"g  c #9D1B83",
"h  c #93138B",
"j  c #971A8D",
"k  c #9A1C8A",
"l  c #961E95",
"z  c #A01E82",
"x  c #9F278D",
"c  c #992295",
"v  c #A32484",
"b  c #A72A84",
"n  c #A92D83",
"m  c #AD3484",
"M  c #A53C8B",
"N  c #AC3A8A",
"B  c #B13683",
"V  c #B23B84",
"C  c #B03E8E",
"Z  c #A32E92",
"A  c #A63395",
"S  c #AC3C93",
"D  c #A4369A",
"F  c #A93C99",
"G  c #9F36A1",
"H  c #A83FA1",
"J  c #874487",
"K  c #864986",
"L  c #974486",
"P  c #9A4686",
"I  c #845386",
"U  c #8B5F89",
"Y  c #984F98",
"T  c #955E96",
"R  c #B54284",
"E  c #AC449D",
"W  c #AF489E",
"Q  c #B24593",
"!  c #B24B9C",
"~  c #956994",
"^  c #AA45A3",
"/  c #AD4AA4",
"(  c #AD4DAA",
")  c #B14DA2",
"_  c #AE52AC",
"`  c #B453A4",
"'  c #B75AA6",
"]  c #B85DA7",
"[  c #B154AB",
"{  c #B55AAC",
"}  c #B95EAA",
"|  c #AF55B1",
" . c #AF5EB0",
".. c #B45DB2",
"X. c #A465A6",
"o. c #A86EA7",
"O. c #BA63AD",
"+. c #BE69AE",
"@. c #B663B4",
"#. c #B964B2",
"$. c #BC6BB4",
"%. c #B665B9",
"&. c #B768BA",
"*. c #BA6DBA",
"=. c #AF75B1",
"-. c #BF70B6",
";. c #B37EB4",
":. c #BE72BC",
">. c #C175BA",
",. c #C37BBD",
"<. c #BE77C1",
"1. c #BF7AC3",
"2. c #C27DC2",
"3. c #B081B1",
"4. c #B689B6",
"5. c #BE8CBD",
"6. c #CB85BC",
"7. c #ADA1C4",
"8. c #B3A6C9",
"9. c #C583C4",
"0. c #C887C4",
"q. c #C58BC4",
"w. c #C98AC5",
"e. c #C687C8",
"r. c #C789C9",
"t. c #C98DCA",
"y. c #CF91C5",
"u. c #CC93CD",
"i. c #CF98CE",
"p. c #D19ACC",
"a. c #CD97D0",
"s. c #CF9AD0",
"d. c #D19DD2",
"f. c #D4A3D5",
"g. c #D5A8D7",
"h. c #DAAED6",
"j. c #D8ABD8",
"k. c #DCB3DC",
"l. c #DEBADF",
"z. c #DEBFE2",
"x. c #E3C4E4",
"c. c #E4C8E5",
"v. c #E6CEE8",
"b. c #E5D5EA",
"n. c #E7D8EC",
/* pixels */
"8.b.v.z.x.x.x.x.x.x.x.c.c.x.c.c.c.c.c.c.c.c.c.c.c.c.c.c.c.v.b.7.",
"b.2.2.9.e.e.r.r.t.u.u.u.a.s.s.d.d.f.f.f.f.g.g.g.g.g.g.g.g.g.f.n.",
"z.<.1.1.2.2.e.e.r.t.t.u.u.u.s.s.s.s.d.f.f.f.f.g.g.g.g.g.g.g.g.c.",
"z.*.<.<.I +   X > e.            u.4 X . & d.f.  2 g.r   r g.g.x.",
"k.&.*.*.o # X.T e 2.=.=.  ; ;.3.5   t 3.8 d.d.  , y   6 g.g.g.x.",
"k.%.&.&.X o 0 X.<.<.2.2.  : e.r.O % t.u.a.a.i.  +   3 f.f.f.f.x.",
"j.....%.1 .     > :.<.1.  - 2.9.  ; r.t.t.t.a.    . 4.d.d.f.f.z.",
"f.| | .... .K O . *.*.:.  - ,.2.O % e.e.w.t.t.  # . + 5.d.d.d.l.",
"t.| | | * J Y @ o %.%.&.  = :.:.<   q o.7 0.w.  : ~   # q.p.i.l.",
"r.G ( ( $ X   O w ..@.@.  = *.*.:.> X   # 2.9.  : q.U   & q.a.h.",
"e.s ^ ( ( ( _ _ [ ......#.@.#.#.$.*.:.:.:.,.,.9.6.9.0.q.w.w.t.h.",
"2.p l G / ^ ( ( ( [ [ [ ......#.#.$.$.*.$.:.>.>.,.,.,.0.0.w.w.g.",
"2.p p c ^ ^ ^ ( ( ( ( [ _ { { ....#.#.#.$.$.*.:.>.>.,.,.6.6.9.f.",
"2.p p u l H ^ ^ ^ ^ / ) ( ( _ [ { { } ..#.#.#.$.-.-.-.>.:.,.,.p.",
"*.u u u u h D F ^ ^ ^ / / / ) [ ` [ { { } } O.#.+.$.$.-.>.>.>.p.",
"$.u u u u u u k D F E ^ W W / ) / ` [ ` { { } } O.O.+.+.+.-.-.y.",
"} i i a i a i i i j Z E E E E / / ) ) ` ` ' ' ' ] } } O.+.+.+.w.",
"} a i a a a a a a a a h k Z F E W W W ) ! ` ` ` ' ' ] } O.O.+.6.",
"' a a a a a a a a a a a d a a d k k x Z A A A E W W S F F F A +.",
"` d a d a a f f f f f f f f f f f f f f f f f d d d d a d a a ` ",
"` d d f f f f f f g g f k z f g g g k k f g k f f f f d d d d ` ",
"! f f f g g g g z g k v z v z x z v v z v g z k z g z f f f f ! ",
"Q f z z z g z v v v v v b x v b x b x b v v v v z z z g g f g Q ",
"R f z z z z v v x b b b b b b Z b b b b b b b v b v v z z z g Q ",
"Q z z z v z n v b n n b b N n b n n n n n n n n b v v v v z z R ",
"C z b z n n n n n n N n n N m n N m m m m m n n n b b b v v z C ",
"C v b b n n n B m m m B m m m C N m m N m m m m m n n n n v z C ",
"V b n n n n n B B B N B B C V B N m V N B N B B m m n n b n v N ",
"B z n n B B B B V V V V V C V V V V V V B B B B B B B B n n v B ",
"B n B B B B B B V V V V V V R V V V V V R V R B B B B B B n n M ",
"P B B B B B B V V V R R V R R R R R R R R V R V V V B B B n n P ",
"9 P B R B R R R R R R R R R R R R R R R R R R R R R V V B B L 9 "
};
