/* XPM */
static char *TagCam[] = {
/* columns rows colors chars-per-pixel */
"32 32 256 2",
"   c #16000D",
".  c #1D000E",
"X  c #140013",
"o  c #1F0017",
"O  c #160018",
"+  c #1C001D",
"@  c #290012",
"#  c #210018",
"$  c #2C001E",
"%  c #1E0020",
"&  c #230024",
"*  c #290020",
"=  c #270029",
"-  c #29002A",
";  c #340A2B",
":  c #2F0030",
">  c #300031",
",  c #300B32",
"<  c #370B38",
"1  c #3B0C3C",
"2  c #341434",
"3  c #3D1330",
"4  c #3A153A",
"5  c #3F1C3A",
"6  c #421B38",
"7  c #511E3F",
"8  c #3F1640",
"9  c #411E43",
"0  c #491F42",
"q  c #492546",
"w  c #4F2250",
"e  c #532B53",
"r  c #653D64",
"t  c #633875",
"y  c #6A416B",
"u  c #70446C",
"i  c #744973",
"p  c #794E7B",
"a  c #7D527D",
"s  c #8F0187",
"d  c #8C0089",
"f  c #940387",
"g  c #9C0587",
"h  c #940488",
"j  c #9A0689",
"k  c #950A8F",
"l  c #9D0A89",
"z  c #8E0B91",
"x  c #961996",
"c  c #981895",
"v  c #9A1D99",
"b  c #A40787",
"n  c #A30887",
"m  c #AF0D87",
"M  c #A20D8A",
"N  c #A90D89",
"B  c #B10C87",
"V  c #BA0F87",
"C  c #B30E88",
"Z  c #A5118C",
"A  c #AA158D",
"S  c #AE198F",
"D  c #B41F85",
"F  c #B4148A",
"G  c #BB148A",
"H  c #B21B8E",
"J  c #BB1B8E",
"K  c #A51F93",
"L  c #AC1B91",
"P  c #B21B90",
"I  c #BA1E90",
"U  c #952793",
"Y  c #932994",
"T  c #B52186",
"R  c #BD2686",
"E  c #BD208F",
"W  c #A12095",
"Q  c #AD2396",
"!  c #A3259A",
"~  c #AC2698",
"^  c #AB2D9C",
"/  c #BD2090",
"(  c #B02F9C",
")  c #AF309C",
"_  c #B1339F",
"`  c #A033A2",
"'  c #A93CA6",
"]  c #B035A0",
"[  c #B13CA3",
"{  c #C01087",
"}  c #C41589",
"|  c #C91788",
" . c #C21C8D",
".. c #CB1A8B",
"X. c #D81D89",
"o. c #C22786",
"O. c #C62986",
"+. c #CB2B86",
"@. c #C3228F",
"#. c #CF258F",
"$. c #D6268E",
"%. c #C32390",
"&. c #CB2690",
"*. c #CD2891",
"=. c #D92791",
"-. c #D32B91",
";. c #D92D92",
":. c #CD389D",
">. c #D73395",
",. c #DB3194",
"<. c #E52C92",
"1. c #ED2F92",
"2. c #F12F91",
"3. c #E53795",
"4. c #EA3696",
"5. c #E43996",
"6. c #EB3B99",
"7. c #F23695",
"8. c #F43E99",
"9. c #C13EA2",
"0. c #835683",
"q. c #825882",
"w. c #865D88",
"e. c #895D89",
"r. c #956893",
"t. c #976D98",
"y. c #9B689C",
"u. c #A66694",
"i. c #A2679B",
"p. c #AB44AA",
"a. c #AD4BAD",
"s. c #B340A6",
"d. c #BE42A5",
"f. c #B447A8",
"g. c #BA46A8",
"h. c #B64DAC",
"j. c #AE50AF",
"k. c #B651AE",
"l. c #B955AE",
"z. c #AF52B1",
"x. c #B155B2",
"c. c #B854B0",
"v. c #B35CB5",
"b. c #BB5BB2",
"n. c #AC6CAF",
"m. c #BA63A6",
"M. c #A875A5",
"N. c #AA7CAB",
"B. c #BC61B6",
"V. c #B663B9",
"C. c #B768BB",
"Z. c #BC6BBC",
"A. c #B47AB5",
"S. c #BD72BF",
"D. c #EB449C",
"F. c #EE4A9F",
"G. c #F5449D",
"H. c #F24A9F",
"J. c #CE44A3",
"K. c #CC49A6",
"L. c #C44BA9",
"P. c #C653AC",
"I. c #D051AB",
"U. c #D854AB",
"Y. c #D35CAF",
"T. c #DE58AB",
"R. c #C65AB0",
"E. c #CD5EB2",
"W. c #D05DB1",
"Q. c #F54DA1",
"!. c #E25EAE",
"~. c #E95AAA",
"^. c #F653A3",
"/. c #F658A5",
"(. c #F75EAC",
"). c #C362B5",
"_. c #CB63B4",
"`. c #C968B7",
"'. c #C26DBB",
"]. c #C96DBA",
"[. c #D265B4",
"{. c #DA65B3",
"}. c #D06DB9",
"|. c #C474BE",
" X c #CF74BD",
".X c #CE78BF",
"XX c #D972BA",
"oX c #D977BD",
"OX c #D579BF",
"+X c #EC61AE",
"@X c #F664AD",
"#X c #E066B2",
"$X c #EC64B1",
"%X c #E66DB4",
"&X c #E86DB4",
"*X c #F066B0",
"=X c #F76CB2",
"-X c #E373BA",
";X c #E975B8",
":X c #ED7ABB",
">X c #F674B6",
",X c #F778B7",
"<X c #F77BB9",
"1X c #F87DBA",
"2X c #BE74C1",
"3X c #BF79C3",
"4X c #C476C0",
"5X c #C47CC3",
"6X c #CA7AC0",
"7X c #9996BA",
"8X c #AE82AF",
"9X c #B283B3",
"0X c #B782B9",
"qX c #BC89BD",
"wX c #EC82BF",
"eX c #F683BE",
"rX c #F884BD",
"tX c #F889BF",
"yX c #A19DC0",
"uX c #C482C5",
"iX c #CA83C5",
"pX c #C686C9",
"aX c #C986C8",
"sX c #C788C9",
"dX c #CA8CCB",
"fX c #D883C3",
"gX c #D689C6",
"hX c #DC89C6",
"jX c #C69DC7",
"kX c #CC93CE",
"lX c #D293CD",
"zX c #CE96D0",
"xX c #CF99D1",
"cX c #D097D0",
"vX c #D29DD2",
"bX c #E782C0",
"nX c #F08DC3",
"mX c #F88CC1",
"MX c #F191C5",
"NX c #F894C5",
"BX c #F998C7",
"VX c #F99CC8",
"CX c #D4A5D6",
"ZX c #D3A8D4",
"AX c #DAABD7",
"SX c #D6A9D8",
"DX c #D9ADDA",
"FX c #DCB2DC",
"GX c #DEB8DF",
"HX c #F9A0CA",
"JX c #DEBEE2",
"KX c #E1BDE1",
"LX c #E3C4E5",
"PX c #E4C8E6",
"IX c #E6CEE9",
"UX c #E5D5EC",
/* pixels */
"yXUXIXLXLXLXLXLXLXLXLXLXLXLXPXPXPXPXPXPXPXPXPXPXPXPXPXPXPXIXUX7X",
"UX5XuXuXpXpXsXdXdXkXkXkXzXxXvXvXvXCXCXCXCXCXSXSXSXSXSXSXSXSXCXUX",
"JX2X3X5X5XuXuXpXsXdXdXkXkXkXzXxXxXvXvXCXCXCXCXCXSXSXSXSXSXSXSXLX",
"GXZ.S.2X3XuXdXkXkXkXxXzXkXkXvXCXvXcXxXvXCXSXDXDXDXSXSXSXSXSXSXLX",
"FXC.Z.Z.2Xy.+ % % & & & M.qX= = 8 vXzXvX8Xw : > 1 e.DXCXCXSXSXLX",
"FXV.V.C.Z.n.i p + % a p 0Xw.& , = 9XzXN.- < p a 1 > y.CXCXCXCXKX",
"SXv.v.v.V.C.S.sX+ + dX5XdX9 & a & i vXy = t.CXSXjXZXSXvXvXvXCXKX",
"vXz.x.v.v.v.V.5XO O uX2XA.+ 2 kX& 4 vXe = N.vX- - - 0.vXcXvXvXGX",
"dXa.j.z.x.x.v.S.X X 5XS.a + + + + + 9Xr & r.vXa e = q.cXkXkXcXFX",
"pX` a.a.a.z.x.Z.X X 4X|.6 o 5 q 2 + u M.* ; i i 4 = a kXdXkXkXDX",
"uXz p.p.p.a.a.B.  . ].m.@ @ fX6Xi.# 3 gXu.7 $ $ 0 a uXaXaXaXdXAX",
"5Xd x ' p.p.p.k.)._.E.[.XXXX[._.]..XOXoXoXfXhXgXgXiX5X5X5XiXaXCX",
"|.d d v ' ' p.g.L.I.U.&X:X:X{.W.E._.{.-XnXMXbXXXoX X|.4X4X5X5XvX",
"'.d d d c ' [ d.K.U.>XrXtXmXeX#XY.Y.;XBXVXVXHXnXXX}.].'.|.|.4XlX",
"Z.d d d d k _ 9.J.$X1X1XrXrXrXeXT.!.mXNXNXBXBXVXwX[.`.'.Z.'.'.lX",
"B.d d d d f g P :.*X,X,X<X1X1XrX~.+XtXmXmXmXNXNXwX[._.).B.B.Z.aX",
"b.d s s s f g B { D.@X>X>X,X<X1X/.@XrXrXrXtXtXmX:XY.R.b.b.b.B.iX",
"c.s s s f j b B G <.G.G.^.(.=X>X^./.<X1XrXrXrXtX%XP.P.l.l.l.b.6X",
"h.f f f h b B V G ..4.G.G.G.8.2.G.G.G.(.@X@X@X+XJ.9.( ^ ^ ^ ! b.",
"f.f f h n m G ....| X.1.7.7.2.8.G.G.8.2.7.7.<.| C N j h f f f f.",
"s.h h j N F } 4.G.6.<.G.G.G.Q.Q.Q.Q.Q.H.G.G.H.=.F N j h h h h s.",
"[ h j j N F | 4.Q.Q.Q.Q.Q.Q.Q.Q.Q.Q.Q.Q.Q.Q.Q.=.G N l j j j h [ ",
"_ j j l N G ..6.Q.Q.^.^.^.^.^.^.^.^.^.^.^.Q.Q.;.G A M l l j j ] ",
"( j l M A G ..6.^.Q.6.^.^.^.^.^.^.^.^.^.^.^.^.;.J A M l l l j ) ",
"^ l l M Z F  .;.,.#.$.Q.^././././././.^.^.^.^.,.J F Z M l l l ^ ",
"~ l M M Z F J  . .@.#.D.H.H.^././././.^.F.F.H.-.J S Z M M M l ~ ",
"Q M M Z Z A H H J J %.&.&.*.6.^.^.^.^.5.&.&.@. .J A Z Z Z M M Q ",
"L M Z Z A A A S H H I %.%.*.,.D.3.3.D.,.&.%.E J H A A A Z Z M L ",
"K Z Z A A A A S L L I %.&.-.Q./.;.;./.Q.-.%.I P S A A A A Z Z K ",
"K Z A A A S S S S H / &.-.D.^.-.&.*.;.^.F.*.@.H S S S A A A Z W ",
"U A A A S S S H P P %.&.-.D.>.&.%.%.*.,.F.-.%.I H S S S A A Z Y ",
"t U S P H D T T T T R O.+.+.O.o.R R O.+.+.O.o.R T T H P L L Y t "
};
