/* XPM */
static char *TagRmv[] = {
/* columns rows colors chars-per-pixel */
"32 32 248 2",
"   c #0F000D",
".  c #10000E",
"X  c #140013",
"o  c #160018",
"O  c #1B001C",
"+  c #21001E",
"@  c #1E0020",
"#  c #230024",
"$  c #270029",
"%  c #29002A",
"&  c #2C0A2B",
"*  c #2F0030",
"=  c #300031",
"-  c #300B32",
";  c #370B38",
":  c #3B0C3C",
">  c #331332",
",  c #3A153A",
"<  c #391B39",
"1  c #411D3F",
"2  c #3F1640",
"3  c #431E43",
"4  c #472546",
"5  c #4F2250",
"6  c #532B53",
"7  c #643D64",
"8  c #633875",
"9  c #6B426C",
"0  c #714770",
"q  c #734A74",
"w  c #7A4E7B",
"e  c #7C527D",
"r  c #8B018A",
"t  c #94038A",
"y  c #9A058A",
"u  c #8E0B91",
"i  c #961996",
"p  c #9F1F99",
"a  c #A10789",
"s  c #A30E8A",
"d  c #AB0C89",
"f  c #B50E87",
"g  c #BA0F87",
"h  c #B40D88",
"j  c #BD0F89",
"k  c #A6128C",
"l  c #AC158C",
"z  c #AE198E",
"x  c #BA1087",
"c  c #B41F85",
"v  c #B4158C",
"b  c #BD1389",
"n  c #B21B8E",
"m  c #BC1B8D",
"M  c #A51F93",
"N  c #AC1C92",
"B  c #B21D90",
"V  c #BA1E90",
"C  c #952793",
"Z  c #932994",
"A  c #B52186",
"S  c #A12095",
"D  c #AC2395",
"F  c #AC2698",
"G  c #AE2C9A",
"H  c #B22193",
"J  c #BC2191",
"K  c #BC2A97",
"L  c #B82C9A",
"P  c #B2319C",
"I  c #BD339C",
"U  c #A033A2",
"Y  c #AC3EA7",
"T  c #B537A0",
"R  c #B33DA4",
"E  c #B93CA2",
"W  c #C61287",
"Q  c #C21489",
"!  c #C91588",
"~  c #C31C8C",
"^  c #CB1C8B",
"/  c #D01D8B",
"(  c #C4228F",
")  c #CB238E",
"_  c #CD288D",
"`  c #D3248D",
"'  c #D32B8C",
"]  c #DA2E8D",
"[  c #D5318E",
"{  c #DB318D",
"}  c #DD3A8E",
"|  c #C32390",
" . c #CB2690",
".. c #D02690",
"X. c #D42A91",
"o. c #C4329A",
"O. c #CF3599",
"+. c #C03A9F",
"@. c #CE3B9D",
"#. c #D43392",
"$. c #DB3391",
"%. c #DC3E92",
"&. c #E0378E",
"*. c #E33C8E",
"=. c #E63C91",
"-. c #C53EA0",
";. c #835683",
":. c #825882",
">. c #865D88",
",. c #895D89",
"<. c #976394",
"1. c #936893",
"2. c #9D669C",
"3. c #976D98",
"4. c #9A6C9B",
"5. c #AC40A7",
"6. c #AB43A9",
"7. c #AD4BAD",
"8. c #BC44A7",
"9. c #B346A9",
"0. c #B14CAD",
"q. c #BB4DAB",
"w. c #A85EA6",
"e. c #AE50AF",
"r. c #B650AE",
"t. c #BB56AF",
"y. c #AF52B1",
"u. c #B355B1",
"i. c #B45CB5",
"p. c #B95EB5",
"a. c #AC6CAF",
"s. c #A574A5",
"d. c #AA7CAB",
"f. c #B761B6",
"g. c #BC62B7",
"h. c #B663B9",
"j. c #BC66B9",
"k. c #B768BB",
"l. c #BB6BBC",
"z. c #B47AB5",
"x. c #BD72BE",
"c. c #DE4293",
"v. c #DD4F9D",
"b. c #E5428E",
"n. c #E8468E",
"m. c #E6488F",
"M. c #E8488F",
"N. c #E44192",
"B. c #EA4591",
"V. c #E54C94",
"C. c #EB4D91",
"Z. c #E75195",
"A. c #ED5392",
"S. c #EE5C95",
"D. c #F15591",
"F. c #F35C93",
"G. c #F56494",
"H. c #F76B96",
"J. c #F66D99",
"K. c #F7729A",
"L. c #C344A4",
"P. c #CB44A3",
"I. c #C649A7",
"U. c #CF4CA7",
"Y. c #C34AA8",
"T. c #CC4EA9",
"R. c #D344A1",
"E. c #D34AA5",
"W. c #C551AC",
"Q. c #CB55AD",
"!. c #CB59AF",
"~. c #D253AA",
"^. c #D65DAE",
"/. c #DB5EAC",
"(. c #C45BB1",
"). c #CA5DB1",
"_. c #D15FB1",
"`. c #DD61AA",
"'. c #C462B5",
"]. c #CC63B4",
"[. c #C26CBB",
"{. c #CD6DB9",
"}. c #DA66B2",
"|. c #D569B6",
" X c #DA6EB7",
".X c #C173BE",
"XX c #CA75BF",
"oX c #D373BC",
"OX c #D971B9",
"+X c #EA67A3",
"@X c #E96FA7",
"#X c #E166AC",
"$X c #E26EAE",
"%X c #E975AA",
"&X c #F77AA1",
"*X c #E370B0",
"=X c #BE74C1",
"-X c #BF79C3",
";X c #C276C0",
":X c #C47CC3",
">X c #CA7CC2",
",X c #D97EC0",
"<X c #9996BA",
"1X c #AE82AF",
"2X c #B283B3",
"3X c #B782B9",
"4X c #BC89BD",
"5X c #F481A7",
"6X c #F283AA",
"7X c #F389AC",
"8X c #F290AF",
"9X c #E483B6",
"0X c #F89AB0",
"qX c #F09BB9",
"wX c #F7A4B5",
"eX c #F8A2B3",
"rX c #F0A2BC",
"tX c #F9B2B9",
"yX c #A19DC0",
"uX c #C482C5",
"iX c #C984C6",
"pX c #C686C9",
"aX c #C986C8",
"sX c #C788C9",
"dX c #CA8CCB",
"fX c #DD87C3",
"gX c #DE8DC8",
"hX c #C69DC7",
"jX c #CC93CE",
"kX c #DA94CB",
"lX c #D798CE",
"zX c #CE96D0",
"xX c #CF99D1",
"cX c #D097D0",
"vX c #D29DD2",
"bX c #D4A5D6",
"nX c #D3A8D4",
"mX c #DAABD7",
"MX c #D6A9D8",
"NX c #D9ADDA",
"BX c #DCB2DC",
"VX c #DEB8DF",
"CX c #DEBEE2",
"ZX c #E1BDE1",
"AX c #E3C4E5",
"SX c #E4C8E6",
"DX c #E6CEE9",
"FX c #E5D5EC",
/* pixels */
"yXFXDXAXAXAXAXAXAXAXAXAXAXAXSXSXSXSXSXSXSXSXSXSXSXSXSXSXSXDXFX<X",
"FX:XuXuXpXpXsXdXdXjXjXjXzXxXvXvXvXbXbXbXbXbXMXMXMXMXMXMXMXMXbXFX",
"CX=X-X:X:XuXuXpXsXdXdXjXjXjXzXxXxXvXvXbXbXbXbXbXMXMXMXMXMXMXMXAX",
"VXl.x.=X-XuXdXjXjXjXxXzXjXjXvXbXvXcXxXvXbXMXNXNXNXMXMXMXMXMXMXAX",
"BXk.l.l.=X2.O @ @ # # # s.4X$ $ 2 vXzXvX1X5 * = : ,.NXbXbXMXMXAX",
"BXh.h.k.l.a.q q O @ e w 3X>.# - $ 2XzXd.% ; w e : = 4.bXbXbXbXZX",
"MXi.i.i.h.k.x.sXO O dX:XdX3 # e # q vX9 $ 3.bXMXhXnXMXvXvXvXbXZX",
"vXy.u.i.i.i.h.:Xo o uX=Xz.O > jX# , vX6 $ d.vX% % % ;.vXcXvXvXVX",
"dX7.e.y.u.u.i.x.X X :Xx.e O O O O O 2X7 # 1.vXe 6 $ :.cXjXjXcXBX",
"pXU 7.7.7.y.u.l.X X ;Xx.< o < 4 > O 9 s.# & 0 0 , $ e jXdXjXjXNX",
"uXu 6.6.6.7.7.f.  . l.w.X X :X;X2.o > iX<.1 + + 3 w uXaXaXaXdXmX",
":Xr i Y 5.6.6.7.i.f.u.i.j.l.p.p.j..X.Xl..X:XiXiXiXuX:X:X:XiXiXbX",
".Xr r p Y Y 5.5.6.6.7.0.0.r.u.u.u.i.p.g.g.j.[.[.[.[..X;X;X>X>XvX",
"[.t y a N E R R Y 5.6.9.q.q.q.r.r.t.(.(.(.'.'.].[.[.[.[.XXXX>XlX",
"[.a d h h v I E R R R 8.I.I.Y.q.q.W.Q.!.(.(.).].].'.'.{.{.oXoXkX",
"'.d j W W W j V I E E L.P.E.U.I.Y.T.~.~.Q.Q.^.^._.).'.].|. XOXgX",
"'.h W C.F.A.n.` g v L -.R.6X%XP.I.E.%X8X~.~.#XwX^.!.)._.}.qXrXfX",
"(.f W F.{ ' b.F.*.b h b X.&X5XP.P.E.7X0X`.U./.eX$XQ.Q.^.*XtX9X,X",
"W.f W F._ f x ] F.} b b { F.F.~ m ^ K.&Xv.o.O.7X@XP.o.@.+X5Xo.].",
"Y.g ! F._ f f Q n.F.Q Q *.F.G.' Q ] G.D.} b Q b.D.b x ! D.b.f Y.",
"L.x ! G.' b Q ^ C.F.~ ^ A.D.G.N.~ N.F.A.C.Q Q { G.^ Q ` G.' h 8.",
"L.x ! G.*.] &.A.G.} ~ ^ G.B.D.A.^ F.A.B.S.~ m ) G.} ! M.F.b d E ",
"+.b ^ G.G.G.G.F.$.~ ~ $.J.=.C.H.] J.=.B.J.~ ~ ^ F.A./ F.m.x d T ",
"I b ^ G.b.A.H.S.] ^ ) N.J.` N.J.A.J.X.$.J.#.~ ^ C.H.*.G.[ v d P ",
"I b ^ G.{ ~ ' S.J.N.` S.S.) $.K.K.G.) ` J.V.~ ~ { H.G.G.~ v s G ",
"K b ^ H.[ ~ ~ ) C.K.N.J.A.) ..J.K.Z.) _ S.G.) ~ ) G.H.C.m v s F ",
"K b ^ A._ m m ~ ) %.$.K.c.|  .V.J.#.|  .V.K.) ( ) c.S.[ m l s D ",
"H v ~ ~ m n n m m (  .#.| J |  . .| J |  .#.( m m ( ~ ~ v k s N ",
"N l v m n n z n B V J | J J J J | J J J | | V B n m m n l k k M ",
"M l l n z z z z n n B V B B B V V B B B B V n n n n n z l k k S ",
"C l l l z z z n B B B B B B B B B B B B B B B B n z z z l l k Z ",
"8 C z B n c A A A A A A A A A A A A A A A A A A A A n B N N Z 8 "
};
