/* XPM */
static char *TagSel[] = {
/* columns rows colors chars-per-pixel */
"32 32 254 2",
"   c #0F000D",
".  c #10000E",
"X  c #140013",
"o  c #160018",
"O  c #1C001C",
"+  c #22001E",
"@  c #1E0020",
"#  c #230024",
"$  c #270029",
"%  c #29002A",
"&  c #2C0A2B",
"*  c #2F0030",
"=  c #300031",
"-  c #300B32",
";  c #370B38",
":  c #3B0C3C",
">  c #341332",
",  c #3A153A",
"<  c #391B39",
"1  c #421D3F",
"2  c #3F1640",
"3  c #441E43",
"4  c #472546",
"5  c #4F2250",
"6  c #532B53",
"7  c #643D64",
"8  c #633875",
"9  c #6B426C",
"0  c #714770",
"q  c #734A74",
"w  c #7A4E7B",
"e  c #7C527D",
"r  c #8B008A",
"t  c #930387",
"y  c #9A0587",
"u  c #930388",
"i  c #9B0588",
"p  c #9E0989",
"a  c #8E0B91",
"s  c #961996",
"d  c #9B1D99",
"f  c #A90987",
"g  c #A20688",
"h  c #A50989",
"j  c #AB0C89",
"k  c #BB0F87",
"l  c #B20D88",
"z  c #B90F88",
"x  c #A7128C",
"c  c #AB148C",
"v  c #AE188E",
"b  c #BE1087",
"n  c #B41F85",
"m  c #B4138A",
"M  c #BC1489",
"N  c #B41B8E",
"B  c #BB1B8E",
"V  c #A41E95",
"C  c #AC1B92",
"Z  c #B21C90",
"A  c #BA1F90",
"S  c #952793",
"D  c #932994",
"F  c #B52186",
"G  c #A12095",
"H  c #A82093",
"J  c #A3259A",
"K  c #A82E9E",
"L  c #B22495",
"P  c #BC2090",
"I  c #BB2895",
"U  c #B5339D",
"Y  c #BA339B",
"T  c #A033A2",
"R  c #AB3EA7",
"E  c #B537A0",
"W  c #B43CA2",
"Q  c #C11187",
"!  c #C11589",
"~  c #C81588",
"^  c #C41B8C",
"/  c #CB1D8B",
"(  c #C11E90",
")  c #C4218E",
"_  c #CB238E",
"`  c #CF298E",
"'  c #D1238B",
"]  c #D52C8D",
"[  c #DB2E8C",
"{  c #D5328F",
"}  c #DA338D",
"|  c #D9398F",
" . c #C42390",
".. c #CB2691",
"X. c #CD2E97",
"o. c #C12E98",
"O. c #D82C90",
"+. c #C0339A",
"@. c #CC3299",
"#. c #C8389E",
"$. c #D63391",
"%. c #DE3790",
"&. c #DC3A93",
"*. c #E13B8D",
"=. c #E13C91",
"-. c #C53FA1",
";. c #835683",
":. c #825882",
">. c #865D88",
",. c #895D89",
"<. c #986494",
"1. c #936893",
"2. c #9B649D",
"3. c #976D98",
"4. c #9A6C9B",
"5. c #A1679B",
"6. c #AA44AA",
"7. c #AD4BAD",
"8. c #B340A6",
"9. c #BF41A4",
"0. c #B445A8",
"q. c #B946A8",
"w. c #B34FAE",
"e. c #BB4CAB",
"r. c #A85EA6",
"t. c #AE50AF",
"y. c #BA54AE",
"u. c #AF52B1",
"i. c #B255B2",
"p. c #B954B0",
"a. c #B45CB5",
"s. c #BB5BB2",
"d. c #AC6CAF",
"f. c #A574A5",
"g. c #AA7CAB",
"h. c #B761B6",
"j. c #BD61B6",
"k. c #B663B9",
"l. c #B768BB",
"z. c #BC6BBB",
"x. c #B47AB5",
"c. c #BD72BE",
"v. c #DF4394",
"b. c #DC429A",
"n. c #DF499C",
"m. c #E6448F",
"M. c #EC4D8F",
"N. c #E44392",
"B. c #E94691",
"V. c #E64A93",
"C. c #EA4D92",
"Z. c #EB5493",
"A. c #ED5994",
"S. c #F15691",
"D. c #F45D92",
"F. c #EF6197",
"G. c #F56495",
"H. c #F76B96",
"J. c #F76D99",
"K. c #F77299",
"L. c #C544A4",
"P. c #CB46A4",
"I. c #C749A7",
"U. c #CB4AA6",
"Y. c #C64CA9",
"T. c #CD4FA8",
"R. c #D245A3",
"E. c #D34BA5",
"W. c #C254AE",
"Q. c #CC53AB",
"!. c #CC5AAF",
"~. c #DA56A5",
"^. c #D355AB",
"/. c #D55AAE",
"(. c #DC5FAD",
"). c #C359B0",
"_. c #CB5CB1",
"`. c #E35FA5",
"'. c #DE69AE",
"]. c #C362B5",
"[. c #CF64B5",
"{. c #CF68B7",
"}. c #C067B8",
"|. c #C26DBB",
" X c #CD6CB9",
".X c #D265B5",
"XX c #D964B2",
"oX c #D56AB6",
"OX c #DD6CB3",
"+X c #D36DB8",
"@X c #C273BF",
"#X c #CA72BD",
"$X c #CD78BF",
"%X c #DF75B4",
"&X c #E864A0",
"*X c #E366AB",
"=X c #E46CAD",
"-X c #EE7DA7",
";X c #E677AD",
":X c #EA74AB",
">X c #E77AAF",
",X c #E774B1",
"<X c #E87EB0",
"1X c #BE74C1",
"2X c #BF79C3",
"3X c #C275C0",
"4X c #C47CC3",
"5X c #CB7CC1",
"6X c #9996BA",
"7X c #AE82AF",
"8X c #B283B3",
"9X c #B782B9",
"0X c #BC89BD",
"qX c #F683A7",
"wX c #F289AD",
"eX c #F790AB",
"rX c #F893AC",
"tX c #EB80B0",
"yX c #EE8FB4",
"uX c #EB8EB8",
"iX c #EF91B4",
"pX c #F191B2",
"aX c #F89AB0",
"sX c #F49FB8",
"dX c #F8A4B4",
"fX c #F8A9B6",
"gX c #F8ACB9",
"hX c #A19DC0",
"jX c #C482C5",
"kX c #CB84C6",
"lX c #C686C9",
"zX c #C986C8",
"xX c #C788C9",
"cX c #CA8CCB",
"vX c #C69DC7",
"bX c #CC93CE",
"nX c #D293CD",
"mX c #CE96D0",
"MX c #CF99D1",
"NX c #D097D0",
"BX c #D19DD2",
"VX c #D4A5D6",
"CX c #D3A8D4",
"ZX c #DAABD7",
"AX c #D6A9D8",
"SX c #D9ADDA",
"DX c #DCB2DC",
"FX c #DEB8DF",
"GX c #DEBEE2",
"HX c #E1BDE1",
"JX c #E3C4E5",
"KX c #E4C8E6",
"LX c #E6CEE9",
"PX c #E5D5EC",
/* pixels */
"hXPXLXJXJXJXJXJXJXJXJXJXJXJXKXKXKXKXKXKXKXKXKXKXKXKXKXKXKXLXPX6X",
"PX4XjXjXlXlXxXcXcXbXbXbXmXMXBXBXBXVXVXVXVXVXAXAXAXAXAXAXAXAXVXPX",
"GX1X2X4X4XjXjXlXxXcXcXbXbXbXmXMXMXBXBXVXVXVXVXVXAXAXAXAXAXAXAXJX",
"FXz.c.1X2XjXcXbXbXbXMXmXbXbXBXVXBXNXMXBXVXAXSXSXSXAXAXAXAXAXAXJX",
"DXl.z.z.1X2.O @ @ # # # f.0X$ $ 2 BXmXBX7X5 * = : ,.SXVXVXAXAXJX",
"DXk.k.l.z.d.q q O @ e w 9X>.# - $ 8XmXg.% ; w e : = 4.VXVXVXVXHX",
"AXa.a.a.k.l.c.xXO O cX4XcX3 # e # q BX9 $ 3.VXAXvXCXAXBXBXBXVXHX",
"BXu.i.a.a.a.k.4Xo o jX1Xx.O > bX# , BX6 $ g.BX% % % ;.BXNXBXBXFX",
"cX7.t.u.i.i.a.c.X X 4Xc.e O O O O O 8X7 # 1.BXe 6 $ :.NXbXbXNXDX",
"lXT 7.7.7.u.i.z.X X 3Xc.< o < 4 > O 9 f.# & 0 0 , $ e bXcXbXbXSX",
"jXa 6.6.6.7.7.h.  . z.r.X X 4X3X5.O > kX<.1 + + 3 w jXzXzXzXcXZX",
"4Xr s R 6.6.6.w.s.j.p.a.z.|.].].|.$X$X#X#X5XkXkXkXkX4X4X4XkXzXVX",
"@Xr r d R R 0.q.q.e.e.e.y.W.)._._.[..X.X{.{. X X#X#X@X3X3X4X4XBX",
"|.r r u V W 9.L.I.I.I.Y.Y.Q.^././.(.XXXXXX.XoXoX+X X|.|.@X@X3XnX",
"z.r u i h m #.R.R.E.E.U.E.(.:XtXpXdXfXgXsXyXOXuXoX[.}.}.z.|.|.nX",
"j.r i h l Q ' Z.qXeXwX:XE.:XaXwX;X>X>X<XyXiX,XgX%X_.].j.j.j.z.kX",
"s.u g l Q [ D.M.} v.&X-XE.`.rXE.P.I.U.U.T.^.=XfXOX!.).s.s.s.j.kX",
"p.y f k ' D.} b z z z M ( b.qXP.L.L.L.P.U.E.*XdX'.Q.W.y.y.y.s.5X",
"e.i j b *.D./ Q b b m l b ] D.~ ^ ^ ..X.@.@.n.eX~.-.U K K K J s.",
"0.y f b ' D.S.m.*.*._ ! ! *.G.[ *.*.*.C.C.[ [ G.' l h t u u t 0.",
"8.y h l M ] Z.G.G.G.G.N./ N.G.G.G.G.G.A.Z.} [ G.] m h y u t t 8.",
"W p j l m M ! ^ ^ } Z.H.=.B.H.$._ ^ ^ ^ ^ ^ } G.] m j p p p i W ",
"U j m M M m m m B ^ / G.D.C.J.^ B B B N B ^ %.H.` m c j m j h E ",
"U m ! ' ] ^ B B B ^ ' G.D.C.J._ B B B B B _ V.H.^ B M M ! M m Y ",
"Y m ^ m.H.[ / _ _ ' N.K.N.C.K.` _ _ _ _ _ _ V.J._ ^ / / / ] ! +.",
"L m ! ] G.G.Z.V.C.G.K.Z._ =.K.V.&.&.&.&.&.O.C.J.=.=.V.A.H.H.] o.",
"L c M ^ ] Z.H.K.K.A.&. . ...F.K.K.K.K.K.K.V.N.K.K.J.J.G.C.| M I ",
"C x m B ^ ) _ _ _ )  .A P  ...$.&.&.&.&.$..._ $.&.{ _ / ^ B m L ",
"C x c N B B B ) P A A Z A P  . . . . . . .P P  .) ) B B N N c H ",
"V x c c N N N N N N Z Z Z Z A P P P P P A Z N B B N N N v c x G ",
"S c c v v v v N Z Z Z Z Z Z Z Z Z Z Z Z Z Z Z Z N N v v c c x D ",
"8 S v Z N n F F F F F F F F F F F F F F F F F F F F N Z C C D 8 "
};
