/* XPM */
static char *TagUI[] = {
/* columns rows colors chars-per-pixel */
"32 32 247 2",
"   c #10000E",
".  c #140013",
"X  c #160018",
"o  c #1C001C",
"O  c #22001E",
"+  c #1E0020",
"@  c #230024",
"#  c #270029",
"$  c #29002A",
"%  c #2C0A2B",
"&  c #2F0030",
"*  c #300031",
"=  c #300B32",
"-  c #370B38",
";  c #3B0C3C",
":  c #331332",
">  c #3A153A",
",  c #391B39",
"<  c #421D3F",
"1  c #3F1640",
"2  c #441E43",
"3  c #472546",
"4  c #4F2250",
"5  c #532B53",
"6  c #643D64",
"7  c #633875",
"8  c #6B426C",
"9  c #714770",
"0  c #734A74",
"q  c #7A4E7B",
"w  c #7C527D",
"e  c #8F0187",
"r  c #8B0089",
"t  c #940387",
"y  c #990687",
"u  c #940488",
"i  c #990689",
"p  c #9D0A89",
"a  c #8E0B91",
"s  c #961996",
"d  c #9A1995",
"f  c #9A1D99",
"g  c #A40787",
"h  c #A60987",
"j  c #AA0B87",
"k  c #A40788",
"l  c #A20D8A",
"z  c #AA0D89",
"x  c #B60E87",
"c  c #B40E88",
"v  c #A5118B",
"b  c #AB148C",
"n  c #AE198E",
"m  c #B41F85",
"M  c #B5158B",
"N  c #BB148A",
"B  c #B21B8E",
"V  c #BC1B8D",
"C  c #A31490",
"Z  c #A51F93",
"A  c #AB1C92",
"S  c #B21C90",
"D  c #BB1E90",
"F  c #952793",
"G  c #932994",
"H  c #B52186",
"J  c #BE208F",
"K  c #A12095",
"L  c #AD2396",
"P  c #A3259A",
"I  c #AC2698",
"U  c #AB2D9C",
"Y  c #B32597",
"T  c #BC2191",
"R  c #B02F9C",
"E  c #AF309C",
"W  c #B1359F",
"Q  c #BF359E",
"!  c #A033A2",
"~  c #AA3DA7",
"^  c #B035A0",
"/  c #B33BA2",
"(  c #BA3CA2",
")  c #C51187",
"_  c #C81387",
"`  c #C71288",
"'  c #C91688",
"]  c #C31C8D",
"[  c #CA1B8B",
"{  c #CA1F90",
"}  c #C4228F",
"|  c #CB228E",
" . c #D2258F",
".. c #D22C8D",
"X. c #D92C8D",
"o. c #DA358E",
"O. c #DE3C8E",
"+. c #C42391",
"@. c #CA2590",
"#. c #C52C97",
"$. c #C02F9A",
"%. c #D52A90",
"&. c #C5369D",
"*. c #D33090",
"=. c #DC3591",
"-. c #DA3B93",
";. c #E23A92",
":. c #C43DA1",
">. c #835683",
",. c #825882",
"<. c #865D88",
"1. c #895D89",
"2. c #986394",
"3. c #936893",
"4. c #9D669C",
"5. c #976D98",
"6. c #9A6C9B",
"7. c #AB44AA",
"8. c #AD4BAD",
"9. c #B341A6",
"0. c #BA41A5",
"q. c #B446A8",
"w. c #BB47A8",
"e. c #B34BAC",
"r. c #BB4AAA",
"t. c #A85EA6",
"y. c #AE50AF",
"u. c #B550AF",
"i. c #BA55AE",
"p. c #AF52B1",
"a. c #B155B2",
"s. c #BA55B0",
"d. c #B35CB5",
"f. c #BC5CB3",
"g. c #AC6CAF",
"h. c #A574A5",
"j. c #AA7CAB",
"k. c #BC61B6",
"l. c #B663B9",
"z. c #BA67B9",
"x. c #B768BB",
"c. c #BC6BBB",
"v. c #B47AB5",
"b. c #BD72BE",
"n. c #DE4494",
"m. c #D7479C",
"M. c #DD469C",
"N. c #E04290",
"B. c #E54C94",
"V. c #E84C93",
"C. c #EA5595",
"Z. c #ED5895",
"A. c #F45C93",
"S. c #EE6197",
"D. c #F56495",
"F. c #F76C97",
"G. c #F36598",
"H. c #F66C98",
"J. c #F77199",
"K. c #C443A4",
"L. c #CB44A3",
"P. c #C749A7",
"I. c #CC4AA6",
"U. c #C74CA9",
"Y. c #CC4FA9",
"T. c #D546A2",
"R. c #D64DA6",
"E. c #C452AC",
"W. c #CB54AC",
"Q. c #D450A7",
"!. c #D353AB",
"~. c #DD55A8",
"^. c #D05BAF",
"/. c #DF5EA9",
"(. c #C55CB2",
"). c #CC5BB0",
"_. c #D35FB1",
"`. c #E05EA7",
"'. c #DC64AD",
"]. c #C163B6",
"[. c #CA63B5",
"{. c #CD68B7",
"}. c #C16CBB",
"|. c #CD6CB9",
" X c #D565B3",
".X c #D866B0",
"XX c #D56BB6",
"oX c #DD6FB3",
"OX c #D46FB9",
"+X c #C473BE",
"@X c #CB73BC",
"#X c #E469A6",
"$X c #E36FAE",
"%X c #E672AA",
"&X c #E77AAF",
"*X c #EA7AAE",
"=X c #F77FA3",
"-X c #E26FB1",
";X c #E57EB8",
":X c #BE74C1",
">X c #BF79C3",
",X c #C376C0",
"<X c #C47CC3",
"1X c #CB7CC1",
"2X c #9996BA",
"3X c #AE82AF",
"4X c #B283B3",
"5X c #B782B9",
"6X c #BC89BD",
"7X c #F785A7",
"8X c #F895AD",
"9X c #F899AF",
"0X c #EA85B5",
"qX c #ED8BB5",
"wX c #F89EB2",
"eX c #F8A5B4",
"rX c #F8A9B7",
"tX c #F1A0B9",
"yX c #F9AEB9",
"uX c #F9B2BB",
"iX c #A19DC0",
"pX c #C482C5",
"aX c #CB84C6",
"sX c #C686C9",
"dX c #C986C8",
"fX c #C788C9",
"gX c #CA8CCB",
"hX c #C69DC7",
"jX c #CC93CE",
"kX c #D293CD",
"lX c #CE96D0",
"zX c #CF99D1",
"xX c #D097D0",
"cX c #D19DD2",
"vX c #D4A5D6",
"bX c #D3A8D4",
"nX c #DAABD7",
"mX c #D6A9D8",
"MX c #D9ADDA",
"NX c #DCB2DC",
"BX c #DEB8DF",
"VX c #DEBEE2",
"CX c #E1BDE1",
"ZX c #E3C4E5",
"AX c #E4C8E6",
"SX c #E6CEE9",
"DX c #E5D5EC",
/* pixels */
"iXDXSXZXZXZXZXZXZXZXZXZXZXZXAXAXAXAXAXAXAXAXAXAXAXAXAXAXAXSXDX2X",
"DX<XpXpXsXsXfXgXgXjXjXjXlXzXcXcXcXvXvXvXvXvXmXmXmXmXmXmXmXmXvXDX",
"VX:X>X<X<XpXpXsXfXgXgXjXjXjXlXzXzXcXcXvXvXvXvXvXmXmXmXmXmXmXmXZX",
"BXc.b.:X>XpXgXjXjXjXzXlXjXjXcXvXcXxXzXcXvXmXMXMXMXmXmXmXmXmXmXZX",
"NXx.c.c.:X4.o + + @ @ @ h.6X# # 1 cXlXcX3X4 & * ; 1.MXvXvXmXmXZX",
"NXl.l.x.c.g.0 0 o + w q 5X<.@ = # 4XlXj.$ - q w ; * 6.vXvXvXvXCX",
"mXd.d.d.l.x.b.fXo o gX<XgX2 @ w @ 0 cX8 # 5.vXmXhXbXmXcXcXcXvXCX",
"cXp.a.d.d.d.l.<XX X pX:Xv.o : jX@ > cX5 # j.cX$ $ $ >.cXxXcXcXBX",
"gX8.y.p.a.a.d.b.. . <Xb.w o o o o o 4X6 @ 3.cXw 5 # ,.xXjXjXxXNX",
"sX! 8.8.8.p.a.c.. . ,Xb., X , 3 : o 8 h.@ % 9 9 > # w jXgXjXjXMX",
"pXa 7.7.7.8.8.k.    c.t.. . <X,X4.o : aX2.< O O 2 q pXdXdXdXgXnX",
"<Xr s ~ 7.7.7.u.f.k.a.d.z.c.k.f.}.+X+X+X@X1XaXaXaXaX<X<X<XaXdXvX",
"+Xr r f ~ ~ 9.w.r.r.r.e.e.u.s.(.(.(.[.[.{.{.|.|.@X@X@X,X,X<X<XcX",
"}.r r r d / 0.K.I.P.w.q.e.r.E.W.^.^._. X X XXXXXOXOX@X@X+X+X,XkX",
"z.r r r t l Q L.`.Q.K.0.9.w.U.!.$X'.-X0X0XqXqX0X;XoXXX|.}.}.}.kX",
"k.r r r t k c { 7X#XK.( / 0.P.R.wX*XqXeXrXrXyXyXuXtX X[.].k.c.aX",
"f.r e e t g x ) A.n.$.( / ( L.R.9X%XI.Q.~.eX&X'.oX.X).(.f.f.k.aX",
"s.e e e t h x ` A.o.c h C Y &.T.8X%XL.I./.wX'.Y.W.E.E.i.i.i.f.1X",
"e.t t t u h x _ A.O.c h p j M ' D.n.+.#.M.=Xm.:.( / U U U U P f.",
"q.t t u y j N ' D.O.N z l z N ' D.O.N N X.D...c k i u u t t t q.",
"9.u u u p z N ' D.O.N z l M ] X.D.o.N ] X.D...M z i i u u u u 9.",
"/ u i i p z N [ D.N.N b b M ] =.F.*.V ] o.D...M z p p i i i u / ",
"W i i p p b N [ A.C.] M B V | V.H.] V ] =.F.*.V M b l p p i i ^ ",
"R p p p l b N [ C.G. .] ] |  .G.C.] ] | =.H.=.] ] N b l p p i E ",
"U p p p l b M ] =.H.Z.%.|  .C.J.-.| |  .;.H.;. .| ] M v l p p U ",
"I p l l l v M V | C.J.H.G.H.J.C.@.@.V.G.J.J.J.H.F...V b l l p I ",
"L l l v v v n V } | -.C.S.S.n.+.+.@.B.S.C.B.B.B.B.| V b v l l L ",
"A l v v b b b B V J +.@.@.@.+.T T +.@.@.@.+.} } } V B b v v l A ",
"A v v b b b b n S S D T T T T S S T T T T D D D V B B b b v v Z ",
"Z v b b b n n n n B S S S S S S S S S S S S B B B n n b b b v K ",
"F b b b n n n B S S S S S S S S S S S S S S S S B n n n b b v G ",
"7 F n S B m H H H H H H H H H H H H H H H H H H H H B S A A G 7 "
};
