/* XPM */
static char * trk_xpm[] = {
"32 32 430 2",
"  	c None",
". 	c #F1F0EE",
"+ 	c #DFDBD6",
"@ 	c #DDD9D5",
"# 	c #DFDCD7",
"$ 	c #E0DCD7",
"% 	c #E0DCD8",
"& 	c #E0DDD8",
"* 	c #E1DED9",
"= 	c #E1DEDA",
"- 	c #E2DFDA",
"; 	c #E2DFDB",
"> 	c #E3DFDB",
", 	c #DFDBD7",
"' 	c #F3F2F0",
") 	c #DDD9D4",
"! 	c #E7E5E1",
"~ 	c #E8E5E2",
"{ 	c #E8E6E2",
"] 	c #E9E6E3",
"^ 	c #E9E7E3",
"/ 	c #EAE7E4",
"( 	c #EBE9E6",
"_ 	c #ECE9E6",
": 	c #ECEAE7",
"< 	c #EDEBE8",
"[ 	c #EDECE9",
"} 	c #EEECEA",
"| 	c #EDECEA",
"1 	c #EEECE9",
"2 	c #EEEDEA",
"3 	c #EFEDEA",
"4 	c #F0EEEC",
"5 	c #EFEDEC",
"6 	c #EFEDEB",
"7 	c #DCD9D4",
"8 	c #E6E3E0",
"9 	c #E6E4E0",
"0 	c #E7E4E1",
"a 	c #EAE8E4",
"b 	c #E1E0DD",
"c 	c #C3C2BF",
"d 	c #EDEBE7",
"e 	c #C6C4C1",
"f 	c #C6C4C2",
"g 	c #C7C5C2",
"h 	c #EDEBE9",
"i 	c #D1CFCD",
"j 	c #C8C6C4",
"k 	c #C8C7C4",
"l 	c #F0EEED",
"m 	c #C9C7C5",
"n 	c #DCD8D3",
"o 	c #E5E2DE",
"p 	c #E5E2DF",
"q 	c #E6E3DF",
"r 	c #AEABA7",
"s 	c #504E4A",
"t 	c #464340",
"u 	c #464440",
"v 	c #524F4C",
"w 	c #CECCC9",
"x 	c #EAE8E5",
"y 	c #C4C3C0",
"z 	c #494744",
"A 	c #4A4845",
"B 	c #BCBAB8",
"C 	c #757371",
"D 	c #4B4A47",
"E 	c #4C4A47",
"F 	c #4D4B48",
"G 	c #4D4B49",
"H 	c #F1EFED",
"I 	c #E1DFDB",
"J 	c #DBD8D2",
"K 	c #E3E0DC",
"L 	c #E4E1DD",
"M 	c #D4D2CE",
"N 	c #43413D",
"O 	c #44413E",
"P 	c #8E8C89",
"Q 	c #65625F",
"R 	c #45433F",
"S 	c #706D6A",
"T 	c #EBE9E5",
"U 	c #918F8C",
"V 	c #484642",
"W 	c #5D5B58",
"X 	c #494643",
"Y 	c #888684",
"Z 	c #74726F",
"` 	c #4B4946",
" .	c #9F9D9B",
"..	c #C8C7C5",
"+.	c #4C4A48",
"@.	c #4C4B48",
"#.	c #F1F0ED",
"$.	c #DCD7D2",
"%.	c #E3E0DB",
"&.	c #A19E9A",
"*.	c #423F3B",
"=.	c #63605C",
"-.	c #D5D3CF",
";.	c #ACAAA7",
">.	c #CBC9C5",
",.	c #EBE8E6",
"'.	c #5B5955",
").	c #474441",
"!.	c #A5A4A0",
"~.	c #474542",
"{.	c #53514E",
"].	c #73716E",
"^.	c #747270",
"/.	c #4B4947",
"(.	c #757471",
"_.	c #F0EFED",
":.	c #D9D6D0",
"<.	c #E4E1DC",
"[.	c #95938F",
"}.	c #413E3A",
"|.	c #6C6965",
"1.	c #CCCAC6",
"2.	c #45423F",
"3.	c #E4E1DF",
"4.	c #666461",
"5.	c #BAB8B5",
"6.	c #72706D",
"7.	c #9D9B99",
"8.	c #7E7D7A",
"9.	c #757370",
"0.	c #E2DEDA",
"a.	c #D6D2CC",
"b.	c #A8A6A2",
"c.	c #403C38",
"d.	c #55524F",
"e.	c #E9E7E4",
"f.	c #AAA8A4",
"g.	c #625F5B",
"h.	c #8C8985",
"i.	c #E7E6E2",
"j.	c #A29F9C",
"k.	c #44413D",
"l.	c #44423E",
"m.	c #868480",
"n.	c #716F6C",
"o.	c #C6C5C1",
"p.	c #484643",
"q.	c #54524F",
"r.	c #D1CCC6",
"s.	c #DEDBD6",
"t.	c #DBD8D3",
"u.	c #494641",
"v.	c #3F3C37",
"w.	c #5F5C58",
"x.	c #4B4843",
"y.	c #403D39",
"z.	c #817E7A",
"A.	c #585551",
"B.	c #6D6B68",
"C.	c #64615D",
"D.	c #504D49",
"E.	c #EDECE8",
"F.	c #706D6B",
"G.	c #474541",
"H.	c #484542",
"I.	c #C6C5C2",
"J.	c #73706D",
"K.	c #D0CBC4",
"L.	c #DEDAD5",
"M.	c #E1DDD8",
"N.	c #C5C2BE",
"O.	c #5D5A56",
"P.	c #3E3B36",
"Q.	c #3E3B37",
"R.	c #74726D",
"S.	c #DCD9D5",
"T.	c #D1CFCA",
"U.	c #C0BDB9",
"V.	c #E9E8E4",
"W.	c #43403C",
"X.	c #B7B5B2",
"Y.	c #6E6C69",
"Z.	c #706E6B",
"`.	c #464441",
" +	c #ECEBE8",
".+	c #D2CEC7",
"++	c #DDDAD5",
"@+	c #E1DFDA",
"#+	c #E4E2DE",
"$+	c #E5E3DE",
"%+	c #E9E6E2",
"&+	c #D5D1CB",
"*+	c #DFDDD8",
"=+	c #E0DDD9",
"-+	c #E2DFDC",
";+	c #E3E0DD",
">+	c #E5E3DF",
",+	c #E7E4E2",
"'+	c #E8E5E3",
")+	c #E8E6E3",
"!+	c #D8D3CF",
"~+	c #8DB788",
"{+	c #73AC70",
"]+	c #73AD70",
"^+	c #74AD70",
"/+	c #74AE71",
"(+	c #73AD6F",
"_+	c #73AE70",
":+	c #74B071",
"<+	c #75B072",
"[+	c #75B172",
"}+	c #74B171",
"|+	c #C9D6C4",
"1+	c #E4E0DC",
"2+	c #C8D5C3",
"3+	c #75B372",
"4+	c #84BB80",
"5+	c #76B573",
"6+	c #76B572",
"7+	c #D9DFD4",
"8+	c #E7E4E0",
"9+	c #D3CFC8",
"0+	c #388A36",
"a+	c #007500",
"b+	c #007600",
"c+	c #007700",
"d+	c #E5E1DD",
"e+	c #007800",
"f+	c #007900",
"g+	c #007A00",
"h+	c #0F820E",
"i+	c #D7DCD1",
"j+	c #ADCBA8",
"k+	c #007C00",
"l+	c #007D00",
"m+	c #58A657",
"n+	c #007E00",
"o+	c #007F00",
"p+	c #91C08E",
"q+	c #D2CDC6",
"r+	c #AEBEA6",
"s+	c #A6BE9F",
"t+	c #559C53",
"u+	c #2B8A2A",
"v+	c #ACC8A6",
"w+	c #A9C4A3",
"x+	c #82B57E",
"y+	c #9FC29A",
"z+	c #ACC9A8",
"A+	c #ADC9A8",
"B+	c #007B00",
"C+	c #91BF8E",
"D+	c #75B373",
"E+	c #D1CCC5",
"F+	c #D5D0CA",
"G+	c #6FA26A",
"H+	c #006D00",
"I+	c #398E37",
"J+	c #E1DDD9",
"K+	c #2B8B2A",
"L+	c #C8D4C2",
"M+	c #ACC9A7",
"N+	c #0F830E",
"O+	c #E7E5E2",
"P+	c #006900",
"Q+	c #378535",
"R+	c #D8D3CE",
"S+	c #E0DDD7",
"T+	c #0E7D0E",
"U+	c #90BA8C",
"V+	c #ABC7A6",
"W+	c #83B77F",
"X+	c #DBD7D2",
"Y+	c #D5D1CA",
"Z+	c #D7D3CD",
"`+	c #007000",
" @	c #AAC5A5",
".@	c #399038",
"+@	c #489846",
"@@	c #ABC6A6",
"#@	c #2B8C2A",
"$@	c #0F800E",
"%@	c #D6DBCF",
"&@	c #DBD7D1",
"*@	c #D0CBC5",
"=@	c #D3CEC9",
"-@	c #006A00",
";@	c #388635",
">@	c #A5BC9E",
",@	c #A5BD9F",
"'@	c #006C00",
")@	c #B4C7AE",
"!@	c #A8C1A2",
"~@	c #007200",
"{@	c #C5D0BE",
"]@	c #1D831C",
"^@	c #72A96E",
"/@	c #D9D5CF",
"(@	c #D8D3CD",
"_@	c #D4CFC9",
":@	c #D0CCC5",
"<@	c #D3CEC8",
"[@	c #87AD81",
"}@	c #609A5C",
"|@	c #D4D0CA",
"1@	c #D1CDC6",
"2@	c #D6D1CB",
"3@	c #388735",
"4@	c #388736",
"5@	c #AFC0A7",
"6@	c #468E43",
"7@	c #7AA775",
"8@	c #B1C2A8",
"9@	c #378735",
"0@	c #D5D2CB",
"a@	c #96B48F",
"b@	c #378635",
"c@	c #C8CABD",
"d@	c #D3CEC7",
"e@	c #D4D0C9",
"f@	c #D5D0CB",
"g@	c #D4CFC8",
"h@	c #D7D2CB",
"i@	c #D7D2CC",
"j@	c #D5D0C9",
"k@	c #D6D2CB",
"l@	c #D7D3CC",
"m@	c #D2CEC8",
"n@	c #D2CFC8",
"o@	c #D6D1CC",
"p@	c #D6D3CC",
"q@	c #D6D1CA",
"r@	c #D7D4CE",
"s@	c #D7D2CD",
"t@	c #CCB6A7",
"u@	c #A65D36",
"v@	c #B8866A",
"w@	c #D8D4CE",
"x@	c #C19A84",
"y@	c #A75D36",
"z@	c #C19B83",
"A@	c #D8D5CE",
"B@	c #CEB9AA",
"C@	c #B17451",
"D@	c #A75E36",
"E@	c #AC6944",
"F@	c #C6A691",
"G@	c #CDB7A9",
"H@	c #C09982",
"I@	c #D2CDC7",
"J@	c #CAAE9E",
"K@	c #933200",
"L@	c #933300",
"M@	c #9E481B",
"N@	c #DDDAD4",
"O@	c #B17452",
"P@	c #953400",
"Q@	c #BB896D",
"R@	c #D9D0C8",
"S@	c #9A400E",
"T@	c #953500",
"U@	c #CAAF9E",
"V@	c #943400",
"W@	c #943300",
"X@	c #B8856A",
"Y@	c #CAAF9F",
"Z@	c #9E491B",
"`@	c #D7C8BE",
" #	c #9F491B",
".#	c #9F4A1B",
"+#	c #BB8A6D",
"@#	c #CDB2A2",
"##	c #963500",
"$#	c #D4BEB1",
"%#	c #C1947A",
"&#	c #BC8A6D",
"*#	c #D8D5CF",
"=#	c #DAD6D0",
"-#	c #CDB3A2",
";#	c #DAD6D1",
">#	c #CBAF9F",
",#	c #B27452",
"'#	c #C0947A",
")#	c #B37552",
"!#	c #A96037",
"~#	c #963600",
"{#	c #A04B1B",
"]#	c #D9CFC7",
"^#	c #CCB0A0",
"/#	c #CBB0A0",
"(#	c #A45529",
"_#	c #C59F88",
":#	c #BC8B6D",
"<#	c #D4BFB1",
"[#	c #A45629",
"}#	c #D9D5D0",
"|#	c #CCB1A0",
"1#	c #CFB5A3",
"2#	c #C09479",
"3#	c #973600",
"4#	c #9C410E",
"5#	c #CAAA96",
"6#	c #AF6B44",
"7#	c #CDB1A0",
"8#	c #D4D1CA",
"9#	c #B37652",
"0#	c #CFB4A3",
"a#	c #BD8B6D",
"b#	c #DAD2CA",
"c#	c #9C420E",
"d#	c #973700",
"e#	c #C8A894",
"f#	c #D9D4CF",
"g#	c #D1C2B7",
"h#	c #BA896B",
"i#	c #CBB09F",
"j#	c #D3C5B9",
"k#	c #BB896B",
"l#	c #D4C6B9",
"m#	c #BB8A6C",
"n#	c #C59F87",
"o#	c #BD8B6E",
"p#	c #D5C6BB",
"q#	c #D7D3CE",
"r#	c #DAD5D1",
"s#	c #BB896C",
"t#	c #D1C3B7",
"u#	c #DDD9D3",
"v#	c #D8D4CF",
"w#	c #DEDAD4",
". + @ # $ % & & & * = = = = - ; ; > > > > > > > > > > > > , $ ' ",
") ! ~ { ] ^ / ( _ ( ( : : < [ } | 1 } 2 3 4 5 6 6 5 4 5 6 6 6 $ ",
"7 8 9 0 ! a b c c d ( ( ( < e f g 2 h 3 i j k l 4 m m m 4 6 6 * ",
"n o p q ~ r s t u v w x ( y z z A B h 3 C D E j . F G G H 6 6 I ",
"J K L o M N O P Q R S x T U V W X Y < } Z ` `  ...E +.@.#.6 6 ; ",
"$.; %.o &.*.=.a -.;.>.~ ,.'.).!.~.{.h h ].A Z ^. ./.(.E _.} 3 ; ",
":.* = <.[.}.|.! 8 { { ! 1.2.R 3.4.).5.< 6.X 7.z 8.Z 9.` 4 [ 1 0.",
"a.# & ; b.c.d.e.f.g.h.i.j.k.O l.2.t m.h n.~.o.p.q.7.].A 6 < h = ",
"r.s.# & t.u.v.w.x.y.z.{ g.*.A.B.C.l.D.E.F.u 6 G.H.I.J.z 1 : : * ",
"K.:.L.s.M.N.O.P.Q.R.S.T.y.}.U.! V.W.N X.Y.2.: Z.`.[ n.V  +( ( & ",
"K..+) ) ++# @+K K > * ; #+$+L %.L 0 0 0 ~ %+~ ] V.e.x ( a e.x # ",
"K.K.&+7 s., *+& =+* * & - -+K ;+<.K K L >+>+>+>+,+{ '+{ ~ )+^ , ",
"K.K.K.!+~+{+]+^+^+/+(+K _+:+<+[+}+|+1+2+3+3+9 0 4+5+6+7+8+0 ~ s.",
"K.K.K.9+0+a+a+b+b+c+c+d+e+e+f+g+g+h+i+j+k+l+] m+n+o+p+8 >+q 9 L.",
"K.K.K.q+r+s+t+a+u+v+w+K c+c+x+y+f+f+z+A+B+B+C+k+l+D+q L L #+o ) ",
"K.K.K.K.E+F+G+H+I+$ n J+b+b+K+K+c+e+L+M+g+g+B+B+N+O+%.; %.K L n ",
"K.K.K.K.K.9+G+P+Q+R+R+S+a+a+b+b+T+U+= V+e+f+f+g+g+W+-+* 0.- ; X+",
"K.K.K.K.K.9+G+P+Q+Y+K.Z+H+`+ @.@a++@= @@c+c+#@x+f+$@%@J+& J+= &@",
"K.K.K.K.*@=@G+-@;@&+E+Z+-@-@>@,@'@H+)@!@~@~@{@0.]@b+^@n /@/@(@_@",
":@E+E+E+E+<@[@;@}@|@1@2@3@4@5@(@6@4@7@8@4@9@0@_@a@;@b@c@E+E+E+:@",
"E+E+E+r.1@d@e@2@f@9+.+g@h@i@j@e@k@l@2@Y+i@k@9+m@_@k@2@n@r.E+E+E+",
"E+r.1@q+g@o@p@q@e@&+Z+Z+0@e@Y+p@r@Z+&+e@Y+s@R+(@(@Z+a.e@d@1@r.E+",
"1@q+q+<@t@u@u@v@w@x@y@y@z@A@B@C@D@E@F@A@G@y@y@u@u@u@u@H@_@q+q+1@",
"q+I@.+e@J@K@L@M@N@O@P@P@Q@R@S@T@T@T@P@U@U@P@V@V@W@L@K@X@F+.+I@q+",
"I@d@d@F+Y@W@Z@V@`@ #.#T@+#@#####$#%#&#U@*#=## P@V@-#;#a._@d@d@I@",
"d@<@<@Y+>#V@,#P@'#T@)###&#) !#~#~#{#)#]#(@2@X+T@P@^#k@_@9+<@<@d@",
"<@<@_@2@/#P@+#.#(###_#~#:#) # <#:#[#~#)#}#a.$.##T@|#i@|@_@_@<@<@",
"<@_@_@a.^#T@&#)#~#{#1#~#:#2#3#4#5#6#3#!#=#a.n ~###7#l@F+|@_@_@<@",
"8#_@F+o@/###&#_#~#9#0#3#a#b#c#d#d#d#d#e#f#i@J ~#~#^#s@&+F+F+_@8#",
"a.F+F+a.g#h#i#j#k#|#l#m#i#;#]#n#o#:#p#=#q#Z+r#s#s#t#l@2@&+F+F+l@",
"u#F+&+2@Z+w@w@v#/@/@*#/@*#q#w@/@=#:.w@Z+Z+Z+w@}#}#Z+a.a.2@&+F+w#",
"' ) 2@k@a.a.s@Z+Z+Z+Z+Z+Z+Z+Z+Z+Z+Z+Z+Z+Z+Z+Z+Z+Z+s@a.a.k@2@@ ' "};
