/* XPM */
static char * unParent_xpm[] = {
"32 32 520 2",
"  	c None",
". 	c #6B6B6B",
"+ 	c #AEAEAE",
"@ 	c #BCBCBC",
"# 	c #B6B6B6",
"$ 	c #B7B7B7",
"% 	c #B8B8B8",
"& 	c #B9B9B9",
"* 	c #BBBBBB",
"= 	c #BDBDBD",
"- 	c #BFBFBF",
"; 	c #696969",
"> 	c #B5B5B5",
", 	c #898989",
"' 	c #8C8C8C",
") 	c #8E8E8E",
"! 	c #909090",
"~ 	c #929292",
"{ 	c #959595",
"] 	c #979797",
"^ 	c #9A9A9A",
"/ 	c #9B9B9B",
"( 	c #9D9D9D",
"_ 	c #9F9F9F",
": 	c #A1A1A1",
"< 	c #A4A4A4",
"[ 	c #A5A5A5",
"} 	c #A6A6A6",
"| 	c #A8A8A8",
"1 	c #AAAAAA",
"2 	c #ABABAB",
"3 	c #ADADAD",
"4 	c #AFAFAF",
"5 	c #B0B0B0",
"6 	c #B3B3B3",
"7 	c #838383",
"8 	c #858585",
"9 	c #878787",
"0 	c #8A8A8A",
"a 	c #8D8D8D",
"b 	c #8F8F8F",
"c 	c #919191",
"d 	c #939393",
"e 	c #969696",
"f 	c #989898",
"g 	c #9C9C9C",
"h 	c #9E9E9E",
"i 	c #A0A0A0",
"j 	c #A2A2A2",
"k 	c #A7A7A7",
"l 	c #A9A9A9",
"m 	c #ACACAC",
"n 	c #7C7C7C",
"o 	c #7F7F7F",
"p 	c #828282",
"q 	c #848484",
"r 	c #868686",
"s 	c #8B8B8B",
"t 	c #949494",
"u 	c #999999",
"v 	c #B2B2B2",
"w 	c #B4B4B4",
"x 	c #767676",
"y 	c #797979",
"z 	c #7B7B7B",
"A 	c #7D7D7D",
"B 	c #808080",
"C 	c #A7A7A6",
"D 	c #000000",
"E 	c #020202",
"F 	c #1A1A1A",
"G 	c #707070",
"H 	c #727272",
"I 	c #818180",
"J 	c #888888",
"K 	c #232323",
"L 	c #0C0C0C",
"M 	c #484848",
"N 	c #6C6C6C",
"O 	c #474747",
"P 	c #4A4A4A",
"Q 	c #1F1F1F",
"R 	c #404040",
"S 	c #161616",
"T 	c #A3A3A3",
"U 	c #5B5B5B",
"V 	c #2F2F2F",
"W 	c #636363",
"X 	c #656565",
"Y 	c #737373",
"Z 	c #4C4C4C",
"` 	c #A0A09F",
" .	c #343433",
"..	c #535353",
"+.	c #212121",
"@.	c #0B0B0B",
"#.	c #454544",
"$.	c #7A7A7A",
"%.	c #5C5C5C",
"&.	c #606060",
"*.	c #6D6D6D",
"=.	c #494948",
"-.	c #9A9A99",
";.	c #515151",
">.	c #2C2C2C",
",.	c #717171",
"'.	c #454545",
").	c #5A5A5A",
"!.	c #666666",
"~.	c #2D2D2D",
"{.	c #979796",
"].	c #929291",
"^.	c #4F4F4F",
"/.	c #515050",
"(.	c #9A9999",
"_.	c #545454",
":.	c #5D5D5D",
"<.	c #595959",
"[.	c #121212",
"}.	c #8A8989",
"|.	c #8A8787",
"1.	c #4A4949",
"2.	c #4C4B4A",
"3.	c #93908F",
"4.	c #717070",
"5.	c #5E5E5E",
"6.	c #616161",
"7.	c #595958",
"8.	c #747474",
"9.	c #5A5858",
"0.	c #737171",
"a.	c #615E5D",
"b.	c #625E5E",
"c.	c #7A7473",
"d.	c #706B6A",
"e.	c #686362",
"f.	c #746F6E",
"g.	c #847D7C",
"h.	c #6B6767",
"i.	c #6E6B6A",
"j.	c #7F7D7C",
"k.	c #807D7D",
"l.	c #7E7D7D",
"m.	c #5F5F5F",
"n.	c #343434",
"o.	c #505050",
"p.	c #565656",
"q.	c #585757",
"r.	c #5D5A5A",
"s.	c #625E5D",
"t.	c #655F5E",
"u.	c #6A6160",
"v.	c #6E6563",
"w.	c #6F6563",
"x.	c #746967",
"y.	c #766B69",
"z.	c #776D6B",
"A.	c #796F6D",
"B.	c #7C7371",
"C.	c #7E7574",
"D.	c #7C7574",
"E.	c #7A7574",
"F.	c #7B7877",
"G.	c #7C7A7A",
"H.	c #7D7C7C",
"I.	c #7E7E7E",
"J.	c #818181",
"K.	c #2E2E2E",
"L.	c #4B4B4B",
"M.	c #4F4E4E",
"N.	c #535050",
"O.	c #575251",
"P.	c #5C5453",
"Q.	c #605755",
"R.	c #645957",
"S.	c #695C5A",
"T.	c #6B5D5B",
"U.	c #6E5F5D",
"V.	c #716260",
"W.	c #736462",
"X.	c #756765",
"Y.	c #766967",
"Z.	c #776B69",
"`.	c #786E6C",
" +	c #786F6E",
".+	c #777170",
"++	c #777473",
"@+	c #787676",
"#+	c #797878",
"$+	c #555555",
"%+	c #222222",
"&+	c #444242",
"*+	c #514C4B",
"=+	c #564E4D",
"-+	c #5B514F",
";+	c #5F5250",
">+	c #645452",
",+	c #675754",
"'+	c #6B5956",
")+	c #6E5B58",
"!+	c #725E5B",
"~+	c #725F5C",
"{+	c #73615E",
"]+	c #756461",
"^+	c #756663",
"/+	c #756A68",
"(+	c #756B6A",
"_+	c #746E6D",
":+	c #747170",
"<+	c #777777",
"[+	c #181616",
"}+	c #1C1716",
"|+	c #322927",
"1+	c #4D4240",
"2+	c #5A4C4A",
"3+	c #5F4F4C",
"4+	c #64514E",
"5+	c #685350",
"6+	c #6B5551",
"7+	c #6E5753",
"8+	c #705955",
"9+	c #725B57",
"0+	c #735D59",
"a+	c #735E5B",
"b+	c #73605D",
"c+	c #736360",
"d+	c #726765",
"e+	c #706766",
"f+	c #706A69",
"g+	c #6E6B6B",
"h+	c #6F6E6E",
"i+	c #757575",
"j+	c #787878",
"k+	c #4D4D4D",
"l+	c #171616",
"m+	c #1A1716",
"n+	c #201817",
"o+	c #261917",
"p+	c #2B1A17",
"q+	c #3E2A27",
"r+	c #55403D",
"s+	c #644F4B",
"t+	c #68504C",
"u+	c #7F514E",
"v+	c #95514F",
"w+	c #A75151",
"x+	c #A75353",
"y+	c #A15655",
"z+	c #915957",
"A+	c #765D59",
"B+	c #715D5A",
"C+	c #71605D",
"D+	c #6F615F",
"E+	c #6F6462",
"F+	c #6C6463",
"G+	c #6B6766",
"H+	c #696767",
"I+	c #6A6A6A",
"J+	c #6F6F6F",
"K+	c #494949",
"L+	c #171717",
"M+	c #181818",
"N+	c #1A1818",
"O+	c #1E1918",
"P+	c #241A18",
"Q+	c #291A18",
"R+	c #2F1B18",
"S+	c #341C18",
"T+	c #391D18",
"U+	c #40211C",
"V+	c #862B29",
"W+	c #A73737",
"X+	c #A74343",
"Y+	c #A74D4D",
"Z+	c #A74F4F",
"`+	c #A75252",
" @	c #A45555",
".@	c #7B5A57",
"+@	c #6F5B58",
"@@	c #6D5D5A",
"#@	c #6B5E5C",
"$@	c #6A615F",
"%@	c #676160",
"&@	c #676463",
"*@	c #666565",
"=@	c #686868",
"-@	c #676767",
";@	c #191919",
">@	c #1C1A1A",
",@	c #221B1A",
"'@	c #281D1B",
")@	c #2E1E1B",
"!@	c #35201C",
"~@	c #3A201C",
"{@	c #761F1C",
"]@	c #A71D1D",
"^@	c #A72525",
"/@	c #A72A2A",
"(@	c #A73232",
"_@	c #A73A3A",
":@	c #A33E3E",
"<@	c #61433F",
"[@	c #594340",
"}@	c #61514E",
"|@	c #5C504E",
"1@	c #5A5150",
"2@	c #494544",
"3@	c #464545",
"4@	c #3E3E3E",
"5@	c #4E4E4E",
"6@	c #424242",
"7@	c #1B1B1B",
"8@	c #1C1C1C",
"9@	c #211E1D",
"0@	c #271F1E",
"a@	c #2E211F",
"b@	c #342320",
"c@	c #3B2521",
"d@	c #402521",
"e@	c #4C2722",
"f@	c #A72323",
"g@	c #A72424",
"h@	c #7C2422",
"i@	c #3F2521",
"j@	c #3A2521",
"k@	c #332320",
"l@	c #2D211F",
"m@	c #261F1E",
"n@	c #201D1D",
"o@	c #3F3F3F",
"p@	c #1E1E1E",
"q@	c #212020",
"r@	c #252221",
"s@	c #2C2423",
"t@	c #332624",
"u@	c #3A2825",
"v@	c #412B27",
"w@	c #482C28",
"x@	c #702C29",
"y@	c #A72B2B",
"z@	c #9C2A29",
"A@	c #462C28",
"B@	c #402B27",
"C@	c #392825",
"D@	c #242121",
"E@	c #202020",
"F@	c #3D3D3D",
"G@	c #252424",
"H@	c #2A2726",
"I@	c #312827",
"J@	c #382B29",
"K@	c #402E2B",
"L@	c #46302C",
"M@	c #4D322E",
"N@	c #7E3330",
"O@	c #A73131",
"P@	c #A73333",
"Q@	c #A73030",
"R@	c #4C322E",
"S@	c #3F2E2B",
"T@	c #302827",
"U@	c #292626",
"V@	c #242424",
"W@	c #3A3A3A",
"X@	c #262626",
"Y@	c #292828",
"Z@	c #2E2B2A",
"`@	c #352D2C",
" #	c #3D302E",
".#	c #443330",
"+#	c #4C3733",
"@#	c #513834",
"##	c #803936",
"$#	c #A73838",
"%#	c #A73939",
"&#	c #A73636",
"*#	c #4B3633",
"=#	c #433330",
"-#	c #3C302E",
";#	c #342D2C",
">#	c #2D2A2A",
",#	c #282828",
"'#	c #373737",
")#	c #272727",
"!#	c #292929",
"~#	c #302E2E",
"{#	c #383130",
"]#	c #403533",
"^#	c #473835",
"/#	c #4E3A37",
"(#	c #543D39",
"_#	c #693F3B",
":#	c #A73C3C",
"<#	c #A73E3E",
"[#	c #8F3D3B",
"}#	c #533D39",
"|#	c #4D3A37",
"1#	c #463835",
"2#	c #3F3533",
"3#	c #373130",
"4#	c #2A2A2A",
"5#	c #343232",
"6#	c #3B3635",
"7#	c #423937",
"8#	c #4A3C3A",
"9#	c #513F3C",
"0#	c #57413E",
"a#	c #5D4440",
"b#	c #9A4241",
"c#	c #A74242",
"d#	c #A74141",
"e#	c #744340",
"f#	c #56413E",
"g#	c #503F3C",
"h#	c #493C3A",
"i#	c #333333",
"j#	c #303030",
"k#	c #373636",
"l#	c #3E3A39",
"m#	c #453D3C",
"n#	c #4C403E",
"o#	c #534340",
"p#	c #584542",
"q#	c #5E4844",
"r#	c #704845",
"s#	c #A34646",
"t#	c #A74646",
"u#	c #A74747",
"v#	c #8D4745",
"w#	c #5D4744",
"x#	c #574542",
"y#	c #514240",
"z#	c #4B403E",
"A#	c #443D3C",
"B#	c #3D3A39",
"C#	c #323232",
"D#	c #3B3A3A",
"E#	c #403D3D",
"F#	c #47403F",
"G#	c #4E4442",
"H#	c #534644",
"I#	c #594946",
"J#	c #5D4A47",
"K#	c #624C48",
"L#	c #724C49",
"M#	c #9B4A49",
"N#	c #A74949",
"O#	c #A74A4A",
"P#	c #864B49",
"Q#	c #604B48",
"R#	c #584946",
"S#	c #4C4342",
"T#	c #46403F",
"U#	c #3F3D3D",
"V#	c #3B3B3B",
"W#	c #414040",
"X#	c #484443",
"Y#	c #4E4645",
"Z#	c #534947",
"`#	c #594B49",
" $	c #5D4D4A",
".$	c #614E4B",
"+$	c #644F4C",
"@$	c #66504C",
"#$	c #734F4C",
"$$	c #874E4C",
"%$	c #7F4E4C",
"&$	c #6A504C",
"*$	c #604E4B",
"=$	c #5C4D4A",
"-$	c #4D4645",
";$	c #474443",
">$	c #414141",
",$	c #444444",
"'$	c #484646",
")$	c #4E4948",
"!$	c #534B4A",
"~$	c #574D4B",
"{$	c #5B4E4C",
"]$	c #5E4F4D",
"^$	c #63514E",
"/$	c #65514E",
"($	c #66514E",
"_$	c #564D4B",
":$	c #4D4948",
"<$	c #474646",
"[$	c #313131",
"}$	c #4D4A4A",
"|$	c #524D4C",
"1$	c #554E4D",
"2$	c #59504E",
"3$	c #5D514F",
"4$	c #605250",
"5$	c #625350",
"6$	c #635350",
"7$	c #5C514F",
"8$	c #514D4C",
"9$	c #4C4A4A",
"0$	c #4E4D4D",
"a$	c #514E4E",
"b$	c #54504F",
"c$	c #585150",
"d$	c #5B5251",
"e$	c #5C5351",
"f$	c #5D5351",
"g$	c #5F5351",
"h$	c #5E5351",
"i$	c #5A5251",
"j$	c #575150",
"k$	c #53504F",
"l$	c #504E4E",
"m$	c #575757",
"n$	c #353535",
"o$	c #383838",
"p$	c #393939",
"q$	c #3D3B3B",
"r$	c #3F3C3B",
"s$	c #403C3B",
"t$	c #463D3C",
"u$	c #473E3C",
". + @ # $ $ % % % & * * * * @ @ @ = = = = = = = = = = = = - + ; ",
"> , ' ) ! ~ { ] ^ / ( _ : < [ } | 1 2 3 + 4 5 5 5 5 5 5 5 5 + 6 ",
"2 7 8 9 0 a b c d e f ^ g h i j < [ k l 1 m 3 4 5 5 5 5 5 5 5 5 ",
"1 n o p q r , s ) ! ~ t ] u / ( _ < 3 v 6 w 6 + 3 + 4 5 5 5 5 > ",
"k x y z A B 7 8 9 0 ' b c d e f ^ C D D D E F _ m 1 m 3 + 5 5 % ",
"< G H x I J 8 8 ) c b t f u h ( f } D D K L D M m } | l 2 m + w ",
"g ; N x O D P a D D / D Q R D S ' T D D J U D V l j < [ k | 1 5 ",
") W X Y P D Z b D D ` D D  .Q D ..j D D +.@.D #.: g h : T [ } 3 ",
"$.%.&.*.=.D P ! D D -.D D _ ;.D .._ D D D D >.] f ] ^ / ( _ : k ",
",.'.).!.'.D ~.;.D D {.D D ].^.D /.(.D D A ^ { c b c d e f ^ g j ",
"N +._.:.<.D D [.[.D }.D D |.1.D 2.3.D D 4.r q r , s ) ! ~ t ] ( ",
"X S V ..5.6.7.8.6.9.0.a.b.c.d.e.f.g.h.i.j.k.l.B 7 8 9 0 ' b c { ",
"m.S S n.o...p.q.r.s.t.u.v.w.x.y.z.A.B.C.D.E.F.G.H.I.J.q r J s b ",
"<.S S S K.L.M.N.O.P.Q.R.S.T.U.V.W.X.Y.Z.`. +.+++@+#+z A B p 8 9 ",
"$+S S S S %+&+*+=+-+;+>+,+'+)+!+~+{+]+^+X./+(+_+:+0.8.<+$.z I.I.",
";.S S S S [+}+|+1+2+3+4+5+6+7+8+9+0+a+b+c+W.d+e+f+g+h+G H i+j+<+",
"k+S S S l+m+n+o+p+q+r+s+t+u+v+w+x+y+z+A+B+C+D+E+F+G+H+I+*.J+,.J+",
"K+L+L+M+N+O+P+Q+R+S+T+U+V+W+X+Y+Z+w+`+ @.@+@@@#@$@%@&@*@=@; N -@",
"'.M+;@;@>@,@'@)@!@~@U+{@]@]@]@]@^@/@(@_@:@<@[@}@|@1@2@3@'.O 4@5@",
"6@7@8@8@9@0@a@b@c@d@e@f@f@g@g@g@g@g@g@f@f@h@i@j@k@l@m@n@8@8@7@6@",
"o@p@Q q@r@s@t@u@v@w@x@/@y@y@y@y@y@y@y@y@/@z@A@B@C@t@s@D@E@Q p@o@",
"F@+.%+G@H@I@J@K@L@M@N@O@(@(@P@P@P@P@(@(@O@Q@R@L@S@J@T@U@V@%++.F@",
"W@V@X@Y@Z@`@ #.#+#@###W+$#$#%#%#%#%#$#$#W+&#@#*#=#-#;#>#,#X@V@W@",
"'#)#!#>.~#{#]#^#/#(#_#:#<#<#<#<#<#<#<#<#:#[#}#|#1#2#3#~#>.!#)#'#",
"n.4#>.V 5#6#7#8#9#0#a#b#c#X+X+X+X+X+X+c#d#e#f#g#h#7#6#5#V >.4#n.",
"i#~.j#i#k#l#m#n#o#p#q#r#s#t#u#u#u#u#t#t#v#w#x#y#z#A#B#k#i#j#~.i#",
"C#j#n.'#D#E#F#G#H#I#J#K#L#M#N#O#O#N#N#P#Q#J#R#H#S#T#U#W@'#n.j#C#",
"V n.'#V#4@W#X#Y#Z#`# $.$+$@$#$$$$$%$&$+$*$=$`#Z#-$;$W#4@V#'#n.V ",
"j#'#V#4@>$,$'$)$!$~${$]$}@^$/$($($4+4+}@]${$_$!$:$<$,$>$4@V#'#j#",
"[$V#4@>$,$O 1.}$|$1$2$3$;+4$5$6$6$5$4$;+7$2$1$8$9$K+O ,$>$4@V#[$",
"i#4@>$,$O K+L.0$a$b$c$d$e$f$g$g$g$h$f$e$i$j$k$l$k+L.K+O ,$>$4@C#",
"m$[$C#n.n$'#o$p$W@q$r$s$A#m#t$u$u$t$A#A#s$r$q$W@p$o$'#n$n.C#C#m$"};
