/* XPM */
static char * upArrow_xpm[] = {
"24 24 45 1",
" 	c #000000",
".	c #FFFFFF",
"+	c #F8F8F8",
"@	c #CFCFCF",
"#	c #868686",
"$	c #AAAAAA",
"%	c #E2E2E2",
"&	c #FEFEFE",
"*	c #CBCBCB",
"=	c #535353",
"-	c #090909",
";	c #737373",
">	c #E8E8E8",
",	c #A9A9A9",
"'	c #444444",
")	c #0D0D0D",
"!	c #171717",
"~	c #565656",
"{	c #B7B7B7",
"]	c #E9E9E9",
"^	c #9B9B9B",
"/	c #353535",
"(	c #414141",
"_	c #979797",
":	c #FDFDFD",
"<	c #E4E4E4",
"[	c #888888",
"}	c #0C0C0C",
"|	c #131313",
"1	c #7D7D7D",
"2	c #FAFAFA",
"3	c #E3E3E3",
"4	c #6B6B6B",
"5	c #010101",
"6	c #020202",
"7	c #545454",
"8	c #D5D5D5",
"9	c #464646",
"0	c #2E2E2E",
"a	c #909090",
"b	c #828282",
"c	c #363636",
"d	c #1A1A1A",
"e	c #676767",
"f	c #FBFBFB",
"                        ",
"                        ",
"  ....................  ",
"  ....................  ",
"  .......+@#$%&.......  ",
"  .......*=--;>.......  ",
"  ......,')  !~{......  ",
"  ....]^/      (_%....  ",
"  ..:<[}        |1%2..  ",
"  ..34-5        6}78..  ",
"  .$9)            -0a.  ",
"  .bc)             de.  ",
"  ....            ....  ",
"  ....            ....  ",
"  ....            ....  ",
"  .&..            ....  ",
"  .&..            ....  ",
"  .&..            ....  ",
"  .&..            ....  ",
"  .&................f.  ",
"  ....................  ",
"  ....................  ",
"                        ",
"                        "};
