/* XPM */
static char *WLO[] = {
/* columns rows colors chars-per-pixel */
"32 32 168 2",
"   c #000000",
".  c #0A0000",
"X  c #0C0B0A",
"o  c #130200",
"O  c #1A0C00",
"+  c #140D0B",
"@  c #1B0C0B",
"#  c #161512",
"$  c #1D1611",
"%  c #23150B",
"&  c #261C16",
"*  c #23211E",
"=  c #2B221F",
"-  c #332517",
";  c #2E2A26",
":  c #372A20",
">  c #3B2D22",
",  c #332D29",
"<  c #3B2F2C",
"1  c #3F302C",
"2  c #562E07",
"3  c #592D07",
"4  c #542F08",
"5  c #5D2E09",
"6  c #5F310B",
"7  c #5C3A15",
"8  c #612F0B",
"9  c #64310D",
"0  c #68330F",
"q  c #673510",
"w  c #6C3612",
"e  c #653914",
"r  c #6E3915",
"t  c #663D18",
"y  c #693C18",
"u  c #703613",
"i  c #723A16",
"p  c #753D19",
"a  c #7A3E1B",
"s  c #403325",
"d  c #4B3726",
"f  c #473628",
"g  c #47392F",
"h  c #4E392A",
"j  c #553E2D",
"k  c #423A34",
"l  c #4C3F32",
"z  c #453E38",
"x  c #6C431A",
"c  c #75411B",
"v  c #7C421E",
"b  c #46403A",
"n  c #4C433D",
"m  c #5E4533",
"M  c #674523",
"N  c #6C4321",
"B  c #6B4826",
"V  c #6F4A2C",
"C  c #724522",
"Z  c #7D4521",
"A  c #734926",
"S  c #7D4824",
"D  c #774E2C",
"F  c #7B4C2B",
"G  c #664932",
"H  c #6D4C34",
"J  c #754E32",
"K  c #7C5434",
"L  c #765A3A",
"P  c #7F5D3E",
"I  c #544B44",
"U  c #585047",
"Y  c #5E574F",
"T  c #62544D",
"R  c #685B4E",
"E  c #6A5F54",
"W  c #6F635A",
"Q  c #756351",
"!  c #796654",
"~  c #72655A",
"^  c #7B6D5E",
"/  c #7C6E62",
"(  c #7D7368",
")  c #80421F",
"_  c #834421",
"`  c #884724",
"'  c #824D2B",
"]  c #82502D",
"[  c #835435",
"{  c #835C3D",
"}  c #885A3B",
"|  c #825F41",
" . c #846244",
".. c #8A6345",
"X. c #856649",
"o. c #8A6649",
"O. c #86694C",
"+. c #8C6A4D",
"@. c #906A4D",
"#. c #846D55",
"$. c #8D6E52",
"%. c #916E52",
"&. c #8C7056",
"*. c #8D745B",
"=. c #927156",
"-. c #95755B",
";. c #98775D",
":. c #96785E",
">. c #98785F",
",. c #837364",
"<. c #8A7867",
"1. c #82766B",
"2. c #85796D",
"3. c #8D7C6D",
"4. c #947B62",
"5. c #9A7D64",
"6. c #947F69",
"7. c #8B7E73",
"8. c #9D8067",
"9. c #97836B",
"0. c #9D836B",
"q. c #8E8276",
"w. c #928373",
"e. c #9D8A74",
"r. c #92857A",
"t. c #9F8E78",
"y. c #A1856E",
"u. c #A18771",
"i. c #A38A75",
"p. c #A68E79",
"a. c #A5927D",
"s. c #AA927D",
"d. c #998C80",
"f. c #9E9084",
"g. c #A79582",
"h. c #AA9682",
"j. c #AC9986",
"k. c #AD9D8B",
"l. c #B29885",
"z. c #B19E8B",
"x. c #AC9F90",
"c. c #B3A18F",
"v. c #A1A491",
"b. c #AEA194",
"n. c #A7A997",
"m. c #B4A493",
"M. c #B9A695",
"N. c #B2A69A",
"B. c #B7A999",
"V. c #BAAC9C",
"C. c #BCAFA0",
"Z. c #BEB1A2",
"A. c #BFB4A9",
"S. c #C1B4A5",
"D. c #C2B6A9",
"F. c #C4B9AB",
"G. c #C8BBAC",
"H. c #C9BEB2",
"J. c #CDC2B6",
"K. c #CFC5BA",
"L. c #D0C5BB",
"P. c #D3C8BE",
"I. c #D5CEC4",
"U. c #D7D0C7",
"Y. c #D8D0C7",
"T. c #DAD2CA",
"R. c #DCDAD2",
"E. c #E0DDD5",
/* pixels */
"n.R.T.I.I.I.I.I.I.I.U.Y.Y.Y.Y.T.T.T.T.T.T.T.T.T.T.T.T.T.T.T.R.v.",
"R.g.j.j.k.k.m.m.m.B.B.B.V.V.C.Z.Z.S.S.D.D.F.F.F.F.F.F.F.F.F.D.E.",
"I.a.a.g.h.j.j.k.k.m.m.m.B.B.B.V.V.C.Z.Z.S.S.D.D.F.F.F.F.F.F.F.U.",
"K.e.t.a.j.j.j.k.m.m.m.m.B.B.V.V.C.V.V.V.Z.Z.D.F.H.H.G.F.F.F.F.I.",
"J.9.e.w.; b c.E , n B.W < 2.f.1 T V.B.V.V.Z.N.E l l 2.A.F.F.F.I.",
"H.6.9.a.    x.*     N.= . r.r.. < V.m.m.V.b.% O > - O s H.D.D.I.",
"G.4.4.e.;   (   X   1.    B.q.. < B.k.c.B.T o ~ F.G.g O 7.D.S.P.",
"Z.*.*.9.U   #   z   #   ; z.7.  , m.j.k.M.< o d.B.V.~ O ~ S.Z.L.",
"m.#.&.4.~       w.X     I h.2.  , m.j.j.m.k . 7.B.V.T o ~ V.V.J.",
"k.L O.&.6.    # h.k     ^ i.1.  # Y Y ~ z./ . = 7.1.@ o k.M.M.H.",
"j.7 X.O.4.#   k 0.R     3.0./         ; h.j.I . . . + / M.z.c.G.",
"g.4 M  .+.! Q #.*.*.! ! 5.4.4.^ ,.,.,.<.i.i.s.g.3.3.c.z.j.j.z.D.",
"p.4 4 B  .X.X.O.O.+.$.&.&.&.-.4.4.5.5.8.8.0.0.u.p.p.p.a.s.s.h.S.",
"i.2 2 2 M P |  . . .X.X.+.+.$.$.=.-.-.:.4.5.5.8.0.0.u.i.i.p.s.V.",
"0.2 2 2 2 e K { |  . . .X.o.o.+.$.$.=.=.-.:.:.5.5.5.8.0.y.u.i.M.",
"5.3 3 3 3 3 3 t K { { |  . . .o.o.+.+.$.%.=.-.-.;.>.5.5.8.0.y.z.",
"5.3 3 3 3 3 3 3 3 t D { { { |  . ...o.o.+.+.%.%.=.-.-.;.5.5.5.l.",
"-.3 3 3 5 5 5 5 5 5 5 6 y A K o.+.o.....o.o.+.+.%.%.=.=.-.;.>.s.",
"%.5 5 5 5 5 5 5 5 5 5 5 6 e V d f G K D D D D { { { K K K K D 5.",
"@.5 5 8 8 8 9 9 9 9 9 9 e J +       h N 9 9 9 9 9 9 8 5 5 5 5 +.",
"..8 9 9 9 9 9 9 0 q q q C :           V y q q 0 9 9 9 9 9 9 8 o.",
"..9 9 9 9 0 q w w w r r F &           G p r w w w q 0 9 9 9 9 ..",
"} 9 0 0 w w w w r r r i F >           J p r r r w w w q 0 9 9 } ",
"[ 0 w w w r r i i p p p v [ $       m F p p p i i r r w w w 0 [ ",
"[ w w r u i i p p p c c c S [ j h H ] v c c p p p i i u r w w [ ",
"' w u i i i p p a c v v v v Z ' ' S Z v v v c a p p i i i r w ' ",
"' u i i p a a v v v v v v v v v v v v v v v v v v a p p i i r F ",
"S i i p a a a v v v v Z Z _ _ _ _ _ _ Z Z v v v v a a a p i i S ",
"Z i a a a a v v ) _ _ _ _ _ _ _ _ _ _ _ _ _ _ ) v v v a a p i Z ",
"v a a a a v ) _ _ _ _ _ _ _ _ _ _ _ _ _ _ _ _ _ _ ) v a a a p c ",
"c a a a ) ) _ _ _ _ _ _ _ _ _ _ _ _ _ _ _ _ _ _ _ _ ) v a a a x ",
"7 c ) ) _ _ _ ` ` ` ` ` ` ` ` ` ` ` ` ` ` ` ` ` ` _ _ _ ) v x 7 "
};
