/* XPM */
static char * image_name[]={
"32 32 70 2",
"  	c #899EC3",
". 	c #D4D4D4",
"X 	c #B0E0E6",
"o 	c #CFCFCF",
"O 	c #9C9C9C",
"+ 	c #7E88AB",
"@ 	c #8399C0",
"# 	c #859AC1",
"$ 	c #879CC2",
"% 	c #8BA0C4",
"& 	c #8DA1C5",
"* 	c #8FA3C7",
"= 	c #ACBBD6",
"- 	c #A5B5D2",
"; 	c #6A6A8D",
": 	c #9EB0CF",
"> 	c #5773B8",
", 	c #2F2F64",
"< 	c #384B66",
"1 	c #2E2E2E",
"2 	c #1C1C1C",
"3 	c #545454",
"4 	c #141414",
"5 	c #525252",
"6 	c #5C5C5C",
"7 	c #333333",
"8 	c #212121",
"9 	c #778899",
"0 	c #8499C0",
"q 	c #B0BFD8",
"w 	c #9AACCC",
"e 	c #5470AA",
"r 	c #999999",
"t 	c #787878",
"y 	c #292929",
"u 	c #ABABAB",
"i 	c #CCCCCC",
"p 	c #1A1A1A",
"a 	c #080808",
"s 	c #000000",
"d 	c #DCDCDC",
"f 	c #121212",
"g 	c #262626",
"h 	c #1F1F1F",
"j 	c #666666",
"k 	c #BABABA",
"l 	c #454545",
"z 	c #95A8CA",
"x 	c #0D0D0D",
"c 	c #EDEDED",
"v 	c #FFFFFF",
"b 	c #0F0F0F",
"n 	c #A9B9D5",
"m 	c #4955A5",
"M 	c #878787",
"N 	c #171717",
"B 	c #A0B2D0",
"V 	c #0A0A0A",
"C 	c #98AACB",
"Z 	c #3C5686",
"A 	c #2B2B2B",
"S 	c #93A7C9",
"D 	c #3E5A8B",
"F 	c #3D5889",
"G 	c #3E5A89",
"H 	c #242424",
"J 	c #050505",
"K 	c #3F5783",
"L 	c #385890",
"P 	c #35558E",
"  . . X X X X X X X X o o o o o o o o o o o o o o o o o o . . O ",
". + + + + + + + O O @ # # # # # $ $ % & & & * * * * * * * * & . ",
"X + + + + + + + + + + O O @ # # # # # $ $ % & & * * * * * * * X ",
"X + + + + + + + + + + + + O O @ # # # # # $ $ % & & & * * * * X ",
"X + + + + + + + + + + + + + + + O O @ # # # # # $ $ % & & * * X ",
"X + + + + + + + + + + + + + + + + + O O @ # # # # # $ $ % % & X ",
"= + + + + + + + + + + + + + + + + + + + + O O @ # # # # # $ $ X ",
"- + + + + + + + + + + + + + + + + + + + + + + O O O @ ; + # # X ",
": > ; , < ; 1 2 3 < 1 ; + + + < 4 5 + + + + 6 , ; + ; 7 8 9 0 q ",
"w e , r t y u i p t u y a s , 8 d f g s h , j r s 4 y k l < + = ",
"z e < t u x d c f u t 7 c v t 8 d x k v i r j d v d 3 v d b + n ",
"* m < 7 d 7 u u 3 i 3 u j f d 7 d l d f u r j d s d l k l , + - ",
"& m m s v t t j M v f d v v v j d j r 8 j r j r N k l k l < + B ",
"# m m 4 i d 8 f c i x u j s s 8 d l d f u r j r p k l k l 1 + w ",
"# m m , M i x 4 i u N 7 c v i 7 d V u v i r j r p k l r v s e C ",
"O m m Z , b A , 4 2 , , a s b , x 1 a s u t A g < h < y s y e S ",
"+ m m m m D F m m m m e e m m e m 8 c v d 8 < e e e e e e e e * ",
"+ m m m m m m m m m m m e e e e e , a s V 1 ; e > + + + + + +   ",
"+ m A s s s s A m m m m m m m m , b , m m m e e e < p s p < e + ",
"+ , t v v v v j y s b , , a s A b d 8 8 s a , m m f i v i f G + ",
"+ m A s t t s 2 r v d 7 7 c v r x d 8 u v c 8 < , t r s k j , + ",
"+ m m , t t H l d f M u k t 8 c 7 d 8 v l J g m m , H V d 8 < e ",
"+ e e , t t A j r 2 l k d 8 4 k l d 8 t v c l < e , 4 k t g < e ",
"e e e , t t 1 l d f M u k t 8 c 7 d 7 c 8 M r H m 8 i j s 8 m e ",
"e e e , t t 1 y r v d 7 7 c v r V d 8 M v c 7 , , M v v v j , e ",
"e e e m , , < < y s V A A J s 2 1 x , H s J H m m 1 s s s h K e ",
"e e e e e e e e e m m m e e m m e e e e e m m e e e m m m m m e ",
"e e e e e e e e e e e e e e e e e e e e e e e e e e e e e e e e ",
"e e e e e e e e e e e e e e e e e e e e e e e e e e e e e e e e ",
"e e e e e e e e e e e e e e e e e e e e e e e e e e e e e e e e ",
"L e e e e e e e e e e e e e e e e e e e e e e e e e e e e e e P ",
"v L e e e e e e e e e e e e e e e e e e e e e e e e e e e e P v "
};
