/* XPM */
static char *Zero[] = {
/* columns rows colors chars-per-pixel */
"32 32 148 2",
"   c #000100",
".  c #000900",
"X  c #080A06",
"o  c #090B08",
"O  c #0C120A",
"+  c #161D11",
"@  c #181F15",
"#  c #172211",
"$  c #1C2716",
"%  c #1E241C",
"&  c #222A1E",
"*  c #24331B",
"=  c #29381E",
"-  c #292F27",
";  c #2A3524",
":  c #2D3C22",
">  c #313B2C",
",  c #1E5B07",
"<  c #215D07",
"1  c #225E08",
"2  c #256109",
"3  c #2A650D",
"4  c #2E680F",
"5  c #2A6312",
"6  c #2F6911",
"7  c #336C13",
"8  c #366E1C",
"9  c #377015",
"0  c #397116",
"q  c #3D741A",
"w  c #2E4323",
"e  c #314625",
"r  c #334926",
"t  c #384C29",
"y  c #3A5C28",
"u  c #3A4436",
"i  c #3B4538",
"p  c #356C21",
"a  c #3D7223",
"s  c #416E1F",
"d  c #41761D",
"f  c #43791E",
"g  c #414E3C",
"h  c #405634",
"j  c #465F32",
"k  c #43543C",
"l  c #416D22",
"z  c #437423",
"x  c #467B21",
"c  c #4A7E23",
"v  c #45762C",
"b  c #46792C",
"n  c #497C2B",
"m  c #456431",
"M  c #4C6C36",
"N  c #4C7D32",
"B  c #4A7B39",
"V  c #537B39",
"C  c #4B5B44",
"Z  c #516745",
"A  c #577347",
"S  c #5D7F46",
"D  c #5A714E",
"F  c #5B6A56",
"G  c #5C7451",
"H  c #617B56",
"J  c #647D5A",
"K  c #4E8226",
"L  c #4E812B",
"P  c #518427",
"I  c #52852A",
"U  c #4F8035",
"Y  c #538434",
"T  c #588737",
"R  c #598934",
"E  c #55843C",
"W  c #5A853D",
"Q  c #5B893A",
"!  c #628F3F",
"~  c #578541",
"^  c #598744",
"/  c #5D8A44",
"(  c #5C834C",
")  c #5E894B",
"_  c #618943",
"`  c #628E4C",
"'  c #659142",
"]  c #66914E",
"[  c #6C974E",
"{  c #648E53",
"}  c #668458",
"|  c #678859",
" . c #679155",
".. c #6B9454",
"X. c #679058",
"o. c #6D945B",
"O. c #71975D",
"+. c #72995D",
"@. c #709762",
"#. c #749A63",
"$. c #799D65",
"%. c #769B68",
"&. c #7A9E6B",
"*. c #788D72",
"=. c #7C9F71",
"-. c #7EA16C",
";. c #7EA172",
":. c #809778",
">. c #80A36F",
",. c #83A474",
"<. c #87A877",
"1. c #86A67A",
"2. c #87A87A",
"3. c #8AAA7C",
"4. c #91B07D",
"5. c #8EAC82",
"6. c #91AF85",
"7. c #91AE88",
"8. c #93B186",
"9. c #95B28B",
"0. c #99B58E",
"q. c #9CB88C",
"w. c #9BB692",
"e. c #9EB895",
"r. c #A1BB96",
"t. c #A4BD9B",
"y. c #A7B4A3",
"u. c #A7BFA0",
"i. c #A8BFA1",
"p. c #ACB8A8",
"a. c #A8C09F",
"s. c #ABC2A4",
"d. c #AFC5A9",
"f. c #B1C6A7",
"g. c #B1C6AB",
"h. c #B5C9AC",
"j. c #BBCDB4",
"k. c #BED0B6",
"l. c #C3D2BC",
"z. c #C7D6C3",
"x. c #C9D7C4",
"c. c #CBD9C6",
"v. c #CDDBC9",
"b. c #D2DDCE",
"n. c #D5DFD3",
"m. c #D7E0D4",
"M. c #DAE1D7",
"N. c None",
/* pixels */
"p.n.b.z.z.x.x.x.c.c.c.c.c.c.v.v.v.v.v.v.v.v.v.v.v.v.v.v.v.b.m.y.",
"n.5.5.7.9.9.0.w.w.e.e.r.t.t.t.i.s.s.s.d.d.g.g.g.g.g.g.g.g.g.d.M.",
"l.1.3.5.5.5.7.9.9.w.w.e.e.r.t.t.t.u.s.s.s.d.d.g.g.g.g.g.g.g.g.c.",
"l.;.,.1.5.9.e.e.r.e.w.0.w.w.e.e.r.t.t.t.i.s.s.s.d.d.g.g.g.g.g.c.",
"j.&.=.;.5.      . . *.9.9.9.w.w.w.e.r.t.t.t.u.s.s.s.d.d.d.g.g.x.",
"j.%.%.&.2.- - %   . :.5.5.6.8.9.0.w.w.e.r.r.t.t.t.s.s.s.s.d.d.z.",
"h.o.@.@.&.1.w.%   F 5.2.2.3.5.5.7.9.9.0.w.w.e.r.t.t.t.a.s.s.s.l.",
"s.X.o.o.@.,.i   i 3.;.;.,.1.1.3.5.5.6.8.9.0.0.w.e.e.r.t.t.t.s.l.",
"w.{ { X.&.u   > 5.,.&.&.&.;.,.,.1.2.3.5.5.6.9.9.0.w.w.e.r.r.t.k.",
"9.B ) X.G     g C C J &.%.&.&.;.,.,.1.2.3.3.5.6.8.9.0.0.w.e.e.j.",
"6.5 ^ { k           k #.@.#.#.%.&.-.;.,.,.<.2.3.5.5.8.8.9.0.w.h.",
"3., p ) ( G H H J H | o.o.o.o.@.#.%.&.-.-.,.,.<.2.3.3.5.6.8.9.f.",
"2., , a ^ ) ) ` { { { { {  ...o.o.@.#.#.%.&.-.;.,.,.<.3.3.3.6.s.",
",., , , 8 E ~ ~ ^ ^ ) ) ` `  .+.#.#.O.O.#.#.$.&.-.-.,.,.<.<.3.t.",
"-., , , , 5 N E E ~ ^ ^ / ` o.> & D #...o.O.+.#.$.$.&.-.>.,.,.r.",
"$.< < < < < < 7 N E E ~ ^ ..@ C G o } .. ...o.o.+.+.#.$.$.-.-.q.",
"#.< < < < < < < < 7 b E / A & +...Z ; o.` ]  .....o.O.+.#.$.$.8.",
"O.1 1 1 2 2 2 2 2 2 2 2 v w h ` / +.  #.` ` ] ] ......o.O.+.+.4.",
"..2 2 2 2 2 2 2 2 2 2 2 a # y 6 6 N $ M N n n W W W N U U Y b $.",
"] 2 2 2 2 3 3 3 3 3 3 3 b O v 6 3 a * y 8 3 3 3 3 3 3 2 2 2 2 ] ",
"` 3 3 3 3 3 4 4 6 6 6 7 N   N 7 7 z w w a 6 6 6 4 4 3 3 3 3 3 ` ",
"/ 3 4 4 4 6 7 7 7 7 7 7 Y   Y 7 7 z e e z 7 7 7 7 7 6 4 4 3 3 / ",
"Q 4 4 7 7 7 7 7 7 0 0 0 E   T q q n r r n 0 0 7 7 7 7 7 7 4 4 Q ",
"T 7 7 7 7 9 0 0 q q q q Q   Q d q L r r n q q q 0 0 7 7 7 7 7 T ",
"Y 7 7 7 0 0 q q q d d f Q + V x f Y = m n d d q q q 0 9 7 7 7 Y ",
"I 7 9 0 q q q d d f x x T $ M L x Q $ M c x f d d q q q 0 9 7 L ",
"L 9 0 q q d f f x x x x Y t e Q L _ X / c x x x f f d q q 0 9 L ",
"c 0 q d d f f x x c c c L W X S [ : : R c c c x x f f d q q 0 c ",
"c q d d f x x c c c c c K R j X   * Q I c c c c c x x f d q q x ",
"x d f f x c c c K K K K K P R ! ' Q I K K K K K c c c x f d q z ",
"z d f x c c K K K K K K K K K K K K K K K K K K K K c c x f d l ",
"N.d c K K K P P P I I I I I I I I I I I I I I P P P K K c x s N."
};
